<?xml version="1.0" encoding="UTF-8"?>
<svg xmlns="http://www.w3.org/2000/svg" viewBox="-354.6 57.2 1389.2 566.5" width="1389" height="567">
<rect x="-354.6" y="57.2" width="1389.2" height="566.5" fill="white"/>
  <path d="M -179.82 445.51 L -181.13 442.32 L -181.31 441.14 L -183.69 437.07 L -184.65 433.24 L -185.64 430.83 L -185.50 429.66 L -184.69 433.53 L -183.20 437.40 L -182.80 440.07 L -179.50 453.52 L -175.16 469.57 L -174.17 470.69 L -172.28 474.22" fill="none" stroke="rgb(0,0,0)" stroke-width="5.43" stroke-linecap="round" stroke-linejoin="round"/>
  <path d="M -182.08 456.16 L -184.89 452.94 L -188.92 444.32 L -190.35 439.89 L -191.05 434.43 L -190.94 428.67 L -189.40 420.49 L -187.07 416.46 L -183.93 414.36 L -181.52 413.28 L -178.65 412.71 L -176.23 412.81 L -174.29 413.40 L -171.38 414.94 L -168.97 416.80 L -166.48 420.45 L -164.62 427.68 L -163.78 436.33 L -163.86 439.43 L -164.77 444.33 L -167.98 452.58 L -171.38 457.17 L -175.00 459.53 L -176.07 459.81 L -177.10 460.01 L -182.96 459.91 L -182.59 459.58" fill="none" stroke="rgb(0,0,0)" stroke-width="5.43" stroke-linecap="round" stroke-linejoin="round"/>
  <path d="M -157.63 479.67 L -154.60 477.32 L -154.01 476.04 L -152.18 473.53 L -148.53 465.57 L -146.98 459.08 L -146.49 454.70 L -144.52 444.66 L -144.66 439.36 L -146.33 432.69 L -147.27 430.71 L -148.25 430.19 L -149.48 430.18 L -151.76 432.45 L -152.75 433.95 L -153.83 437.75 L -154.31 440.49 L -153.89 449.50 L -152.27 460.17 L -150.61 463.62 L -149.48 466.73 L -145.38 473.88 L -142.01 477.17 L -141.50 477.36 L -140.52 477.15 L -140.06 477.43 L -138.88 477.42 L -137.06 476.36 L -136.53 476.34 L -135.83 475.55 L -133.75 471.16 L -133.87 467.06 L -134.19 466.65 L -134.26 465.57 L -134.98 467.33 L -134.69 471.43 L -134.11 472.37 L -134.16 473.02 L -132.19 476.94 L -129.25 478.44 L -127.81 478.35 L -125.87 477.73 L -125.52 477.49 L -123.24 471.61 L -123.36 464.77 L -123.66 464.39 L -123.59 467.13 L -122.60 469.68 L -122.68 470.50 L -122.03 472.99 L -120.46 476.45 L -119.53 476.77" fill="none" stroke="rgb(0,0,0)" stroke-width="5.43" stroke-linecap="round" stroke-linejoin="round"/>
  <path d="M -100.34 467.20 L -101.75 464.57 L -102.92 463.73 L -106.05 462.26 L -107.52 462.73 L -108.48 463.23 L -111.13 465.90 L -112.11 467.45 L -112.66 468.82 L -112.56 470.84 L -111.71 472.71 L -110.30 475.42 L -109.28 476.41 L -108.22 476.83 L -105.62 476.95 L -104.04 476.10 L -102.31 471.95 L -101.91 469.43 L -101.96 468.06 L -101.58 465.54 L -101.31 465.13 L -99.89 464.68 L -99.13 464.71 L -96.99 465.96 L -95.45 467.97 L -94.41 469.95 L -92.88 471.80 L -91.81 474.85 L -90.51 477.49 L -88.76 486.93 L -88.92 490.47 L -90.10 496.20 L -90.85 498.28 L -93.25 500.45 L -93.94 500.72 L -97.65 500.57 L -102.61 498.71 L -103.12 498.78 L -103.73 498.39" fill="none" stroke="rgb(0,0,0)" stroke-width="5.43" stroke-linecap="round" stroke-linejoin="round"/>
  <path d="M -84.04 477.08 L -82.92 474.89 L -81.51 468.87 L -80.42 466.05 L -80.44 463.58 L -79.95 465.08 L -79.96 465.87 L -79.08 468.10 L -77.51 473.78 L -76.60 474.77 L -75.68 476.50 L -75.44 476.67 L -75.43 476.44 L -75.16 476.43" fill="none" stroke="rgb(0,0,0)" stroke-width="5.43" stroke-linecap="round" stroke-linejoin="round"/>
  <path d="M -83.15 446.72 L -83.23 446.76" fill="none" stroke="rgb(0,0,0)" stroke-width="5.43" stroke-linecap="round" stroke-linejoin="round"/>
  <path d="M -67.48 477.97 L -67.14 476.44 L -67.09 472.16 L -65.54 466.63 L -65.62 466.15 L -64.44 463.68 L -62.12 462.72 L -60.68 463.47 L -59.72 464.55 L -58.54 465.23 L -56.70 467.39 L -55.62 468.27 L -53.84 472.04 L -52.99 475.03 L -51.98 476.68 L -52.13 475.44 L -51.80 474.95 L -50.89 470.91 L -49.07 467.30 L -46.68 464.78 L -44.34 464.18 L -43.29 464.27 L -41.51 464.90 L -40.55 465.65 L -37.18 469.78 L -34.82 473.37 L -34.10 473.85 L -33.32 475.46" fill="none" stroke="rgb(0,0,0)" stroke-width="5.43" stroke-linecap="round" stroke-linejoin="round"/>
  <path d="M 17.30 470.81 L 17.32 467.65 L 16.99 465.42 L 17.07 456.13 L 16.76 454.76 L 16.84 449.30 L 16.53 448.20 L 16.35 441.47 L 16.05 440.58 L 16.11 438.01 L 15.79 437.48 L 15.86 435.12 L 18.51 437.92 L 20.71 440.92 L 24.48 446.56 L 28.30 453.22 L 31.45 460.30 L 33.48 466.06 L 34.75 468.24 L 34.57 467.95 L 36.01 466.68 L 36.96 464.54 L 38.36 456.85 L 39.19 454.28 L 39.58 451.27 L 42.83 441.96 L 44.04 436.21 L 44.83 434.83 L 45.20 435.92 L 46.40 437.70 L 48.63 444.25 L 51.05 453.36 L 51.67 458.02 L 52.19 459.88 L 53.47 467.54 L 54.44 470.42 L 55.41 472.23 L 55.08 470.51" fill="none" stroke="rgb(0,0,0)" stroke-width="5.43" stroke-linecap="round" stroke-linejoin="round"/>
  <path d="M 68.19 475.79 L 69.38 473.57 L 71.72 466.84 L 74.09 461.11 L 74.83 460.23 L 75.44 458.58 L 75.73 458.54" fill="none" stroke="rgb(0,0,0)" stroke-width="5.43" stroke-linecap="round" stroke-linejoin="round"/>
  <path d="M 66.50 464.28 L 70.32 467.21 L 71.98 467.90 L 73.45 469.34 L 77.54 471.89 L 81.34 472.72" fill="none" stroke="rgb(0,0,0)" stroke-width="5.43" stroke-linecap="round" stroke-linejoin="round"/>
  <path d="M 118.30 466.70 L 118.30 460.25 L 120.48 451.03 L 120.87 450.38 L 122.22 449.25 L 123.79 448.67 L 125.77 449.52 L 126.88 450.78 L 127.70 452.30 L 129.68 462.59 L 129.56 469.19 L 129.26 469.60 L 129.29 470.47 L 129.00 469.74 L 129.07 465.05 L 130.17 460.41 L 133.28 454.59 L 134.28 453.71 L 136.24 453.03 L 137.04 453.06 L 138.88 453.86 L 139.68 454.88 L 141.19 456.04 L 143.35 459.65 L 145.53 467.23 L 145.36 469.41 L 143.98 472.13 L 144.15 471.91 L 143.13 471.30 L 142.80 470.46 L 144.09 464.71 L 145.66 461.14 L 146.92 459.10 L 150.95 453.94 L 151.68 453.29 L 155.18 451.58 L 155.90 451.67 L 156.87 452.31 L 157.88 454.07 L 158.57 456.29 L 159.79 461.54 L 159.71 467.68" fill="none" stroke="rgb(0,0,0)" stroke-width="5.43" stroke-linecap="round" stroke-linejoin="round"/>
  <path d="M 180.88 453.91 L 178.04 452.09 L 174.34 451.51 L 172.39 451.59 L 169.52 452.20 L 164.79 454.17 L 162.00 456.77 L 159.57 461.56 L 159.74 464.84 L 161.00 468.11 L 163.65 470.13 L 166.81 470.10 L 170.20 468.70 L 171.29 467.76 L 174.07 463.67 L 177.44 454.40 L 177.33 452.82 L 177.33 455.20 L 179.99 465.42 L 181.20 467.04 L 182.88 467.95 L 183.26 467.92" fill="none" stroke="rgb(0,0,0)" stroke-width="5.43" stroke-linecap="round" stroke-linejoin="round"/>
  <path d="M 195.52 444.98 L 191.27 447.28 L 189.00 448.85 L 186.41 451.45 L 185.83 451.55 L 186.72 453.30 L 188.72 454.98 L 190.01 455.80 L 190.95 456.04 L 194.26 458.29 L 196.83 459.44 L 200.66 462.02 L 202.12 463.56 L 203.18 465.33 L 204.04 468.13 L 203.93 469.54 L 202.49 472.45 L 201.95 472.94 L 200.65 473.40 L 198.02 473.32 L 196.94 472.73 L 194.45 472.01 L 192.92 471.10" fill="none" stroke="rgb(0,0,0)" stroke-width="5.43" stroke-linecap="round" stroke-linejoin="round"/>
  <path d="M 215.01 423.29 L 216.64 441.60 L 218.21 455.54 L 219.54 462.89 L 220.40 465.52 L 220.23 466.41 L 218.63 463.54" fill="none" stroke="rgb(0,0,0)" stroke-width="5.43" stroke-linecap="round" stroke-linejoin="round"/>
  <path d="M 206.66 448.03 L 211.00 448.05 L 214.01 447.19 L 215.39 447.17 L 226.43 443.84" fill="none" stroke="rgb(0,0,0)" stroke-width="5.43" stroke-linecap="round" stroke-linejoin="round"/>
  <path d="M 226.61 457.70 L 232.58 453.82 L 233.72 452.64 L 235.13 451.80 L 235.93 450.67 L 238.63 448.30 L 238.66 447.83 L 239.87 445.57 L 239.72 444.76 L 239.11 444.03 L 236.93 442.98 L 233.32 444.19 L 231.90 444.99 L 229.34 447.25 L 227.18 450.06 L 225.28 455.25 L 224.99 457.44 L 225.16 459.98 L 226.00 463.53 L 226.80 464.80 L 228.50 466.56 L 230.47 467.63 L 232.60 467.50 L 235.13 466.59 L 238.77 464.86 L 240.23 463.53" fill="none" stroke="rgb(0,0,0)" stroke-width="5.43" stroke-linecap="round" stroke-linejoin="round"/>
  <path d="M 247.53 444.86 L 250.14 454.82 L 250.66 460.36 L 251.54 464.34 L 251.46 466.46 L 251.53 466.22 L 250.48 465.11 L 250.02 463.88 L 250.14 459.58 L 252.05 455.30 L 253.34 454.56 L 254.65 453.33 L 254.92 452.72 L 256.56 451.69 L 257.78 450.38" fill="none" stroke="rgb(0,0,0)" stroke-width="5.43" stroke-linecap="round" stroke-linejoin="round"/>
  <path d="M -263.62 459.44 L -267.57 458.59 L -269.39 457.92 L -271.10 458.07 L -271.55 457.76 L -274.29 457.80 L -271.60 457.49 L -268.54 457.56 L -266.78 457.88 L -262.08 457.81 L -257.26 458.52 L -242.88 459.61 L -239.13 460.27 L -237.68 460.22 L -232.36 461.40 L -231.28 461.31 L -233.11 461.33 L -233.95 460.79" fill="none" stroke="rgb(0,0,0)" stroke-width="5.43" stroke-linecap="round" stroke-linejoin="round"/>
  <path d="M -233.10 457.32 L -235.87 456.57 L -236.78 456.03 L -238.11 456.05 L -233.52 457.92 L -231.74 459.23 L -228.86 460.70 L -227.83 462.79 L -227.89 463.25 L -229.24 464.34 L -233.41 465.78 L -234.37 465.69 L -234.98 466.10 L -237.02 466.08" fill="none" stroke="rgb(0,0,0)" stroke-width="5.43" stroke-linecap="round" stroke-linejoin="round"/>
  <path d="M -326.10 176.41 L -325.16 180.33 L -320.63 192.18 L -317.08 206.10 L -313.05 226.19 L -311.37 236.53 L -310.35 238.45 L -311.46 233.91 L -311.48 230.50" fill="none" stroke="rgb(0,0,0)" stroke-width="8.00" stroke-linecap="round" stroke-linejoin="round"/>
  <path d="M -332.98 201.93 L -334.40 195.96 L -334.62 191.46 L -334.21 186.99 L -332.68 180.51 L -330.15 174.64 L -327.57 170.75 L -323.82 165.98 L -320.55 163.60 L -317.28 162.49 L -313.31 162.33 L -308.54 163.06 L -304.41 164.32 L -299.09 166.57 L -296.10 168.46 L -291.31 171.85 L -286.50 176.44 L -283.82 179.90 L -279.49 187.16 L -277.57 192.00 L -276.60 195.93 L -276.03 204.04 L -276.15 207.59 L -276.97 213.48 L -279.00 220.94 L -281.32 226.32 L -283.24 229.02 L -285.86 232.10 L -287.53 233.48 L -289.65 234.59 L -294.10 235.65 L -297.18 235.51 L -305.78 233.59 L -307.35 232.77 L -307.55 231.96" fill="none" stroke="rgb(0,0,0)" stroke-width="8.00" stroke-linecap="round" stroke-linejoin="round"/>
  <path d="M -264.61 222.55 L -260.70 224.29 L -258.47 224.54 L -257.27 224.23 L -255.86 223.48 L -254.60 222.28 L -250.68 217.20 L -249.12 213.85 L -248.48 210.50 L -248.58 208.55 L -249.88 206.66 L -252.62 205.71 L -255.11 206.48 L -256.98 208.17 L -259.44 213.85 L -260.27 216.59 L -260.47 218.55 L -260.21 222.49 L -259.25 225.62 L -256.78 228.03 L -252.22 230.09 L -247.88 229.82 L -247.07 229.53 L -246.49 229.16 L -244.32 226.26" fill="none" stroke="rgb(0,0,0)" stroke-width="8.00" stroke-linecap="round" stroke-linejoin="round"/>
  <path d="M -234.93 212.45 L -235.19 218.21 L -234.10 222.95 L -232.98 225.50 L -232.30 229.39 L -229.32 225.50 L -226.88 218.82 L -226.09 217.75 L -225.08 217.24" fill="none" stroke="rgb(0,0,0)" stroke-width="8.00" stroke-linecap="round" stroke-linejoin="round"/>
  <path d="M -211.35 213.31 L -216.03 214.68 L -217.42 215.90 L -218.77 217.73 L -219.33 219.47 L -218.78 221.86 L -218.82 223.90 L -217.42 226.59" fill="none" stroke="rgb(0,0,0)" stroke-width="8.00" stroke-linecap="round" stroke-linejoin="round"/>
  <path d="M -215.18 216.84 L -219.10 218.76 L -221.92 220.86 L -222.42 224.24 L -222.41 227.90 L -221.06 230.43 L -219.31 231.36 L -216.71 231.09 L -210.77 228.39 L -208.55 228.27 L -206.63 229.00 L -205.30 229.92 L -202.73 232.95 L -201.26 234.18 L -200.68 235.85 L -200.81 236.65 L -201.75 238.28 L -207.46 244.38 L -208.81 245.20 L -210.25 245.42 L -211.81 245.21" fill="none" stroke="rgb(0,0,0)" stroke-width="8.00" stroke-linecap="round" stroke-linejoin="round"/>
  <path d="M -117.62 183.99 L -111.97 204.03 L -111.07 209.09 L -108.64 228.67 L -106.56 236.33" fill="none" stroke="rgb(0,0,0)" stroke-width="8.00" stroke-linecap="round" stroke-linejoin="round"/>
  <path d="M -123.52 208.97 L -124.81 202.32 L -125.01 197.35 L -124.57 192.81 L -123.98 189.66 L -123.01 186.84 L -121.70 184.20 L -119.46 180.91 L -112.23 172.61 L -107.40 167.88 L -104.91 166.31 L -101.32 165.65 L -98.28 165.97 L -95.71 167.10 L -92.56 169.04 L -88.75 172.46 L -86.88 174.73 L -83.57 179.66 L -82.06 182.98 L -81.45 186.14 L -81.38 190.52 L -82.10 193.58 L -83.50 196.78 L -85.87 200.91 L -89.77 205.71 L -94.61 210.65 L -98.15 213.04 L -101.01 214.23 L -106.99 215.40 L -112.77 215.07 L -116.72 214.30" fill="none" stroke="rgb(0,0,0)" stroke-width="8.00" stroke-linecap="round" stroke-linejoin="round"/>
  <path d="M -82.55 231.19 L -76.39 226.41 L -70.02 219.86 L -67.05 215.51 L -63.03 206.94 L -58.78 194.88 L -57.03 186.68 L -56.31 176.50 L -57.06 173.05 L -58.47 169.87 L -59.43 169.90 L -60.66 170.88 L -62.34 173.26 L -63.82 176.11 L -66.08 184.89 L -66.35 189.55 L -65.94 194.25 L -64.24 203.90 L -59.89 220.30 L -58.45 228.51 L -57.38 230.54" fill="none" stroke="rgb(0,0,0)" stroke-width="8.00" stroke-linecap="round" stroke-linejoin="round"/>
  <path d="M -35.33 217.12 L -38.16 215.11 L -41.07 213.83 L -44.03 213.48 L -46.29 214.08 L -49.06 216.15 L -50.95 218.17 L -52.83 223.79 L -52.52 226.55 L -51.69 228.15 L -50.65 229.29 L -44.93 232.96 L -42.68 232.82 L -39.90 231.50 L -38.38 230.42 L -35.76 227.68 L -34.48 225.31 L -33.17 216.72 L -33.25 215.29 L -33.92 214.21 L -35.72 218.04 L -35.69 222.18 L -34.86 224.03 L -33.10 225.94 L -32.08 227.99 L -29.77 229.20" fill="none" stroke="rgb(0,0,0)" stroke-width="8.00" stroke-linecap="round" stroke-linejoin="round"/>
  <path d="M -10.62 214.64 L -13.46 212.87 L -16.18 211.84 L -17.33 212.51 L -18.59 215.27 L -18.87 217.64 L -17.95 223.28 L -16.92 226.44 L -14.75 230.05 L -12.29 232.14 L -10.41 233.18 L -8.15 233.86 L -2.15 233.23 L 0.40 232.56 L 2.69 231.22 L 4.00 230.15 L 5.90 227.02 L 7.04 222.08 L 6.69 220.49 L 5.31 218.26 L 3.54 216.53 L 2.67 216.27 L 1.18 216.87 L 0.11 218.81 L -0.10 220.82 L 0.30 225.54 L 0.92 229.09 L 2.12 232.66 L 3.36 234.57 L 4.45 234.84 L 5.53 234.64 L 8.40 233.26 L 16.49 227.63 L 22.72 224.07 L 25.82 221.48 L 32.34 214.51" fill="none" stroke="rgb(0,0,0)" stroke-width="8.00" stroke-linecap="round" stroke-linejoin="round"/>
  <path d="M 33.74 205.92 L 31.50 206.00 L 28.21 206.87 L 27.03 207.66 L 25.73 209.31 L 24.25 213.20 L 22.61 221.07" fill="none" stroke="rgb(0,0,0)" stroke-width="8.00" stroke-linecap="round" stroke-linejoin="round"/>
  <path d="M 29.85 206.34 L 24.88 210.64 L 23.17 212.75 L 21.61 215.30 L 20.57 218.88 L 20.94 220.09 L 23.44 224.19 L 25.35 226.61 L 29.97 228.33 L 34.10 228.32 L 35.73 228.85 L 37.96 230.50 L 39.45 232.50 L 40.63 235.61 L 40.61 237.06 L 37.84 241.96 L 34.11 245.77" fill="none" stroke="rgb(0,0,0)" stroke-width="8.00" stroke-linecap="round" stroke-linejoin="round"/>
  <path d="M -254.91 565.90 L -256.33 566.26 L -258.80 566.31 L -253.68 567.78 L -242.92 568.67 L -227.42 572.52 L -225.12 572.39 L -223.59 571.60 L -223.37 571.36 L -223.60 571.26" fill="none" stroke="rgb(0,0,0)" stroke-width="8.00" stroke-linecap="round" stroke-linejoin="round"/>
  <path d="M -224.62 566.87 L -225.83 566.68 L -224.95 567.11 L -220.89 570.88 L -220.00 572.17 L -219.89 572.47 L -220.34 572.16 L -220.89 573.41" fill="none" stroke="rgb(0,0,0)" stroke-width="8.00" stroke-linecap="round" stroke-linejoin="round"/>
  <path d="M -181.09 547.17 L -181.52 551.73 L -181.24 555.48 L -179.47 562.61 L -177.47 568.73 L -171.12 584.20 L -169.32 586.74 L -166.99 588.07 L -165.21 588.50 L -163.55 588.48 L -160.92 587.56 L -158.67 585.64 L -156.84 583.01 L -154.33 578.09 L -153.18 574.83 L -151.26 567.96 L -149.67 558.85 L -149.53 554.12 L -151.70 544.82 L -153.44 540.71 L -154.48 539.27 L -155.66 538.60 L -156.61 538.73 L -157.51 539.52 L -159.42 542.28 L -160.64 544.85 L -162.76 555.60" fill="none" stroke="rgb(0,0,0)" stroke-width="8.00" stroke-linecap="round" stroke-linejoin="round"/>
  <path d="M -137.62 577.80 L -137.62 574.59 L -136.97 578.79 L -135.76 593.04 L -134.12 598.31 L -134.15 599.64" fill="none" stroke="rgb(0,0,0)" stroke-width="8.00" stroke-linecap="round" stroke-linejoin="round"/>
  <path d="M -134.95 586.19 L -136.73 584.10 L -138.43 581.29 L -139.00 578.60 L -138.60 575.95 L -137.31 573.07 L -135.89 570.93 L -134.48 570.01 L -128.68 567.39 L -128.00 567.67 L -127.08 570.31 L -127.00 572.27 L -129.91 578.16 L -131.46 580.51 L -132.78 581.49 L -136.08 582.89 L -137.11 582.85 L -137.24 582.07" fill="none" stroke="rgb(0,0,0)" stroke-width="8.00" stroke-linecap="round" stroke-linejoin="round"/>
  <path d="M -126.44 584.17 L -119.02 581.85 L -117.48 580.62 L -116.51 576.03 L -115.16 572.17 L -115.00 570.40 L -115.56 568.71 L -116.67 567.22 L -118.56 566.55 L -119.50 566.54 L -120.99 568.63 L -121.16 570.98 L -120.34 575.88 L -119.53 577.91 L -118.18 580.06 L -117.20 580.46 L -115.63 580.50 L -114.42 579.95 L -113.33 578.23 L -111.10 572.71 L -109.67 570.81 L -104.76 569.16 L -103.37 569.93 L -101.77 574.19 L -101.82 583.73 L -100.75 578.90 L -98.88 574.84 L -96.81 572.05 L -95.28 570.61 L -92.84 570.17 L -90.96 571.36 L -88.91 576.28 L -89.23 578.45 L -91.59 582.49" fill="none" stroke="rgb(0,0,0)" stroke-width="8.00" stroke-linecap="round" stroke-linejoin="round"/>
  <path d="M -59.33 546.39 L -64.51 535.23 L -64.77 534.91 L -66.21 535.30 L -67.32 535.97 L -69.11 537.75 L -73.01 542.24 L -75.01 545.55 L -77.87 551.70 L -79.90 557.01 L -82.33 568.04 L -82.64 570.70 L -82.44 575.04 L -81.33 578.93 L -79.71 581.65 L -78.70 582.16 L -77.10 582.24 L -76.04 582.13 L -74.80 581.53" fill="none" stroke="rgb(0,0,0)" stroke-width="8.00" stroke-linecap="round" stroke-linejoin="round"/>
  <path d="M -63.70 584.89 L -62.65 584.77 L -60.47 583.73 L -56.30 579.49 L -54.44 576.76 L -51.56 571.49 L -49.31 565.38 L -47.86 557.99 L -47.94 554.38 L -48.45 552.60 L -49.66 550.34 L -52.72 549.33 L -53.74 549.95 L -55.12 551.92 L -55.79 554.48 L -56.50 559.75 L -56.60 577.92 L -55.53 583.65" fill="none" stroke="rgb(0,0,0)" stroke-width="8.00" stroke-linecap="round" stroke-linejoin="round"/>
  <path d="M -39.44 577.59 L -39.43 575.46 L -39.76 574.31 L -41.84 574.15 L -43.39 575.09 L -44.93 577.02 L -46.84 580.68 L -47.41 582.76 L -47.11 585.11 L -46.14 586.54 L -44.61 587.70 L -43.39 587.57 L -41.46 586.11 L -40.53 584.41 L -38.46 576.34 L -38.60 573.53 L -38.99 574.93 L -38.97 578.31 L -38.07 585.64 L -37.08 588.07 L -35.66 589.35 L -34.33 591.24" fill="none" stroke="rgb(0,0,0)" stroke-width="8.00" stroke-linecap="round" stroke-linejoin="round"/>
  <path d="M -32.40 575.26 L -30.37 583.65 L -29.70 585.47 L -28.67 586.89 L -27.38 586.19 L -26.01 583.97 L -24.51 578.94 L -24.16 575.67 L -24.12 577.59 L -23.00 584.08 L -20.80 588.28 L -19.96 588.77 L -18.48 588.41 L -17.96 587.61 L -15.77 582.02 L -15.43 579.58 L -14.52 577.97" fill="none" stroke="rgb(0,0,0)" stroke-width="8.00" stroke-linecap="round" stroke-linejoin="round"/>
  <path d="M 33.37 553.08 L 34.59 555.37 L 38.02 560.17 L 40.07 563.92 L 41.77 569.20 L 43.22 585.31 L 43.57 597.48" fill="none" stroke="rgb(0,0,0)" stroke-width="8.00" stroke-linecap="round" stroke-linejoin="round"/>
  <path d="M 31.70 571.89 L 31.49 562.32 L 32.38 555.84 L 33.66 552.27 L 36.47 549.58 L 37.72 548.96 L 40.27 548.51 L 42.76 548.92 L 45.64 550.09 L 48.74 551.88 L 52.55 554.81 L 55.19 557.35 L 58.60 561.29 L 60.14 564.14 L 61.39 568.52 L 61.72 575.27 L 61.57 580.15 L 60.25 588.14 L 56.97 597.53 L 55.99 599.28 L 53.76 601.87 L 50.36 603.70 L 48.35 603.51 L 43.64 600.61" fill="none" stroke="rgb(0,0,0)" stroke-width="8.00" stroke-linecap="round" stroke-linejoin="round"/>
  <path d="M 71.54 595.19 L 74.00 587.56 L 75.70 580.16 L 75.52 580.91 L 76.04 583.69 L 76.22 590.33 L 76.93 594.22" fill="none" stroke="rgb(0,0,0)" stroke-width="8.00" stroke-linecap="round" stroke-linejoin="round"/>
  <path d="M 78.13 566.15 L 78.14 566.26" fill="none" stroke="rgb(0,0,0)" stroke-width="8.00" stroke-linecap="round" stroke-linejoin="round"/>
  <path d="M 96.88 575.61 L 92.67 574.27 L 90.40 574.69 L 89.14 575.64 L 86.87 579.08 L 87.37 580.79 L 89.96 582.74 L 96.78 585.30 L 99.46 586.84 L 101.60 591.49 L 101.58 593.15 L 99.65 596.41 L 97.67 597.68 L 96.62 597.83 L 91.59 597.05 L 91.33 596.89 L 93.12 595.24" fill="none" stroke="rgb(0,0,0)" stroke-width="8.00" stroke-linecap="round" stroke-linejoin="round"/>
  <path d="M 112.86 573.47 L 109.51 573.93 L 107.32 574.81 L 105.37 577.28 L 104.76 580.00 L 105.93 589.76 L 107.05 593.85 L 108.19 595.67 L 109.04 596.06 L 111.13 595.72 L 113.27 594.64 L 114.11 593.22" fill="none" stroke="rgb(0,0,0)" stroke-width="8.00" stroke-linecap="round" stroke-linejoin="round"/>
  <path d="M 124.37 578.23 L 122.33 578.11 L 119.82 579.07 L 117.89 581.54 L 117.56 583.77 L 118.08 587.08 L 119.95 592.25 L 121.30 594.25 L 125.18 598.00 L 126.09 598.29 L 127.47 597.97 L 128.96 597.02 L 130.70 595.04 L 132.84 591.17 L 133.81 585.61 L 132.79 583.45 L 128.91 580.29 L 125.40 579.09 L 123.46 579.20 L 121.82 580.46 L 120.32 582.50 L 119.87 583.83 L 120.02 584.77 L 121.18 586.26 L 122.69 587.08 L 123.96 587.21 L 127.24 586.55 L 130.75 584.86 L 137.99 579.12 L 142.38 577.99 L 144.10 578.21 L 145.63 579.56 L 146.52 582.72 L 146.46 586.41 L 145.98 589.76 L 146.66 591.20" fill="none" stroke="rgb(0,0,0)" stroke-width="8.00" stroke-linecap="round" stroke-linejoin="round"/>
  <path d="M 163.53 581.94 L 157.88 581.00 L 153.95 581.05 L 152.37 581.71 L 151.56 582.50 L 150.43 584.27 L 150.15 586.28 L 150.34 587.88 L 150.94 589.40 L 152.87 592.25 L 153.76 592.45 L 155.26 592.10 L 156.64 591.20 L 157.81 589.61 L 158.57 587.39 L 159.87 581.24 L 161.87 569.48 L 162.53 564.46 L 162.23 558.96 L 161.94 561.10 L 162.01 564.36 L 164.99 579.49" fill="none" stroke="rgb(0,0,0)" stroke-width="8.00" stroke-linecap="round" stroke-linejoin="round"/>
  <path d="M 1014.59 77.44 L 1011.40 77.20" fill="none" stroke="rgb(0,0,0)" stroke-width="9.00" stroke-linecap="round" stroke-linejoin="round"/>
</svg>
