<?xml version="1.0" encoding="UTF-8"?>
<svg xmlns="http://www.w3.org/2000/svg" viewBox="-603.9 44.2 866.2 397.8" width="866" height="398">
<rect x="-603.9" y="44.2" width="866.2" height="397.8" fill="white"/>
  <path d="M -361.95 233.77 L -352.54 235.06 L -346.46 235.24 L -333.95 235.07 L -317.56 233.54 L -308.52 233.79 L -304.60 234.30" fill="none" stroke="rgb(0,0,0)" stroke-width="8.00" stroke-linecap="round" stroke-linejoin="round"/>
  <path d="M -314.40 226.88 L -308.43 229.94 L -303.04 233.30 L -299.77 235.53 L -295.82 239.18 L -294.05 242.24 L -293.86 245.98 L -295.96 246.62 L -298.47 245.88" fill="none" stroke="rgb(0,0,0)" stroke-width="8.00" stroke-linecap="round" stroke-linejoin="round"/>
  <path d="M -258.76 224.76 L -260.90 228.75 L -261.70 232.58 L -261.57 236.11 L -259.74 244.21 L -256.97 251.64 L -255.86 253.75 L -254.16 255.48 L -249.99 257.53 L -248.76 257.38 L -247.36 256.56 L -246.11 254.73 L -244.02 245.56 L -242.70 241.85 L -242.76 242.83 L -241.06 248.34 L -238.59 252.93 L -237.27 254.74 L -234.98 256.28 L -233.56 256.47 L -232.32 256.28 L -230.73 255.50 L -229.20 254.14 L -227.89 252.09 L -227.28 249.62 L -226.32 241.61 L -226.19 236.99 L -226.49 233.00 L -227.10 230.40 L -228.38 226.40 L -228.81 226.32" fill="none" stroke="rgb(0,0,0)" stroke-width="8.00" stroke-linecap="round" stroke-linejoin="round"/>
  <path d="M -216.82 258.41 L -213.98 258.68 L -211.75 258.52 L -208.92 257.53 L -207.70 256.49 L -206.67 254.26 L -205.68 250.89 L -205.60 249.08 L -206.31 247.79 L -208.95 247.13 L -210.02 247.45 L -211.23 248.45 L -212.41 251.03 L -211.79 255.11 L -209.50 259.14 L -207.94 259.91 L -205.62 260.35 L -199.98 260.23 L -198.40 259.80 L -197.05 259.03 L -196.04 258.32 L -194.70 256.50 L -192.89 252.35 L -193.47 250.69 L -195.30 249.97 L -196.81 250.66 L -197.87 253.54 L -197.67 255.14 L -196.46 258.43 L -195.58 259.84 L -194.70 260.17 L -192.36 259.88 L -190.66 258.91" fill="none" stroke="rgb(0,0,0)" stroke-width="8.00" stroke-linecap="round" stroke-linejoin="round"/>
  <path d="M -187.14 226.27 L -183.20 236.27 L -178.71 254.60 L -175.60 262.66 L -174.56 264.11" fill="none" stroke="rgb(0,0,0)" stroke-width="8.00" stroke-linecap="round" stroke-linejoin="round"/>
  <path d="M -183.31 255.35 L -180.11 251.25 L -174.87 245.46 L -170.50 239.24 L -169.25 237.95" fill="none" stroke="rgb(0,0,0)" stroke-width="8.00" stroke-linecap="round" stroke-linejoin="round"/>
  <path d="M -175.51 251.86 L -174.73 256.47 L -173.14 259.96 L -172.08 261.25 L -170.08 262.87 L -165.69 263.98" fill="none" stroke="rgb(0,0,0)" stroke-width="8.00" stroke-linecap="round" stroke-linejoin="round"/>
  <path d="M -159.28 269.56 L -156.20 268.64 L -152.62 266.73 L -150.38 264.34 L -148.54 260.95 L -146.14 254.16 L -144.30 246.35 L -143.30 238.48 L -143.74 236.41 L -144.81 234.80 L -148.18 232.65 L -152.93 231.13 L -154.07 232.11 L -155.53 235.57 L -155.63 238.41 L -155.21 244.49 L -153.90 252.58 L -151.66 258.72 L -149.69 262.47 L -148.03 263.94 L -145.47 265.36 L -143.59 265.90 L -141.19 265.83 L -138.28 264.04 L -136.29 259.02 L -136.22 258.02 L -137.55 261.58 L -137.57 263.29 L -136.90 265.50 L -135.18 267.75 L -133.69 268.15 L -131.17 267.83 L -129.82 267.14 L -129.29 266.32 L -127.39 259.48 L -127.21 255.58 L -126.46 255.45 L -124.37 257.06 L -121.31 261.06 L -119.48 264.28 L -117.90 268.66 L -116.94 277.24 L -117.00 283.04 L -117.65 287.73 L -119.48 293.09 L -120.68 294.85 L -123.53 296.41 L -125.62 296.47 L -131.29 295.31" fill="none" stroke="rgb(0,0,0)" stroke-width="8.00" stroke-linecap="round" stroke-linejoin="round"/>
  <path d="M -64.11 266.83 L -62.29 258.65 L -61.71 252.78 L -60.74 239.66 L -60.48 226.03 L -60.01 222.44 L -58.20 231.01 L -53.68 247.03 L -50.98 253.13 L -45.62 262.24 L -44.85 264.10" fill="none" stroke="rgb(0,0,0)" stroke-width="8.00" stroke-linecap="round" stroke-linejoin="round"/>
  <path d="M -67.35 256.88 L -64.97 257.47 L -60.15 257.49 L -56.49 256.46 L -53.88 255.22 L -50.86 254.53" fill="none" stroke="rgb(0,0,0)" stroke-width="8.00" stroke-linecap="round" stroke-linejoin="round"/>
  <path d="M -27.81 253.87 L -31.67 255.13 L -35.71 257.72 L -37.87 262.39 L -38.28 265.35 L -38.13 266.62 L -37.44 268.10 L -36.42 269.74 L -35.27 270.58 L -32.94 270.61 L -27.13 268.44 L -26.47 268.52" fill="none" stroke="rgb(0,0,0)" stroke-width="8.00" stroke-linecap="round" stroke-linejoin="round"/>
  <path d="M -22.32 228.47 L -14.13 255.70 L -10.63 264.27 L -8.54 268.26" fill="none" stroke="rgb(0,0,0)" stroke-width="8.00" stroke-linecap="round" stroke-linejoin="round"/>
  <path d="M -21.40 264.33 L -14.40 262.53 L -6.70 261.52" fill="none" stroke="rgb(0,0,0)" stroke-width="8.00" stroke-linecap="round" stroke-linejoin="round"/>
  <path d="M 2.68 259.07 L 5.42 266.70 L 6.93 269.27 L 7.29 269.37" fill="none" stroke="rgb(0,0,0)" stroke-width="8.00" stroke-linecap="round" stroke-linejoin="round"/>
  <path d="M 1.18 244.24 L 1.20 244.33" fill="none" stroke="rgb(0,0,0)" stroke-width="8.00" stroke-linecap="round" stroke-linejoin="round"/>
  <path d="M 18.17 269.57 L 18.19 269.58" fill="none" stroke="rgb(0,0,0)" stroke-width="8.00" stroke-linecap="round" stroke-linejoin="round"/>
  <path d="M 18.70 264.30 L 19.20 262.52 L 19.36 259.74 L 19.22 257.93 L 18.61 257.13 L 18.36 257.03 L 19.74 262.75 L 21.52 268.11 L 22.63 269.64 L 24.65 268.73 L 25.71 267.78 L 26.76 265.88 L 28.98 256.65 L 29.35 255.89 L 29.39 256.60" fill="none" stroke="rgb(0,0,0)" stroke-width="8.00" stroke-linecap="round" stroke-linejoin="round"/>
  <path d="M 35.32 266.55 L 39.98 265.07 L 42.18 264.01 L 45.34 257.23 L 41.58 257.33 L 40.32 257.70 L 38.32 258.99 L 37.10 260.43 L 34.83 264.86 L 34.20 266.64 L 34.21 267.80 L 34.45 268.67 L 36.26 271.29 L 39.08 273.94 L 40.62 274.38 L 42.58 274.31 L 44.81 273.80 L 47.59 272.36" fill="none" stroke="rgb(0,0,0)" stroke-width="8.00" stroke-linecap="round" stroke-linejoin="round"/>
  <path d="M 93.79 222.01 L 95.67 230.59 L 99.61 243.34 L 103.31 259.74 L 105.03 264.03 L 106.26 266.27 L 106.25 265.52" fill="none" stroke="rgb(0,0,0)" stroke-width="8.00" stroke-linecap="round" stroke-linejoin="round"/>
  <path d="M 97.78 255.31 L 93.50 250.85 L 91.38 247.52 L 88.90 241.88 L 87.84 237.85 L 87.13 233.01 L 87.37 229.72 L 88.91 224.30 L 90.12 221.64 L 91.33 219.95 L 94.47 216.96 L 98.86 215.04 L 104.45 214.64 L 107.35 215.23 L 109.20 216.04 L 110.88 217.24 L 112.22 218.82 L 114.17 222.36 L 115.58 226.99 L 116.14 233.92 L 115.61 237.61 L 112.97 246.44 L 111.08 250.76 L 108.50 254.91 L 104.81 259.20 L 103.30 260.44 L 101.15 261.58 L 100.36 261.88 L 99.31 261.75 L 97.98 260.58 L 97.42 259.53" fill="none" stroke="rgb(0,0,0)" stroke-width="8.00" stroke-linecap="round" stroke-linejoin="round"/>
  <path d="M 118.37 269.74 L 118.63 269.87 L 119.32 268.65 L 120.58 264.70 L 120.38 261.94 L 119.87 261.01 L 119.30 260.90 L 119.39 261.28 L 121.23 257.85 L 125.24 256.33 L 127.96 264.92 L 129.73 268.31 L 130.16 268.65 L 131.34 268.43 L 132.07 267.61" fill="none" stroke="rgb(0,0,0)" stroke-width="8.00" stroke-linecap="round" stroke-linejoin="round"/>
  <path d="M 143.34 257.74 L 139.71 258.81 L 138.42 259.54 L 136.79 261.20 L 135.85 263.15 L 135.59 264.82 L 136.06 267.11 L 137.33 269.42 L 139.66 271.30 L 141.07 271.68 L 143.35 271.35 L 145.86 269.75 L 146.67 268.84 L 149.03 260.44 L 149.09 258.38 L 148.00 256.88 L 145.05 256.24 L 143.02 256.22 L 139.20 257.70 L 137.82 258.74 L 136.26 260.61 L 135.90 262.07 L 136.30 263.68 L 136.85 264.54 L 138.23 264.99 L 140.82 264.42 L 143.79 262.71 L 145.89 260.51 L 146.82 259.09 L 148.00 255.27 L 148.94 253.59 L 153.37 256.92 L 157.37 260.95 L 163.11 268.73 L 165.01 271.71 L 166.08 274.08 L 167.88 279.06 L 168.93 283.44 L 169.82 290.80 L 169.61 295.66 L 168.90 296.81 L 165.80 298.34 L 163.10 298.43 L 159.39 297.40 L 155.93 295.50 L 154.50 293.51 L 154.46 292.14 L 156.64 289.00 L 160.61 284.44 L 165.93 277.00 L 173.89 264.79 L 177.01 261.04 L 177.76 259.26 L 175.82 260.11 L 173.22 262.08 L 170.57 266.66 L 170.08 268.78 L 170.42 272.09 L 171.32 274.03 L 174.35 276.30 L 175.36 276.71 L 177.21 276.88 L 178.50 276.40 L 180.05 275.22 L 180.61 273.13" fill="none" stroke="rgb(0,0,0)" stroke-width="8.00" stroke-linecap="round" stroke-linejoin="round"/>
  <path d="M 156.58 233.96 L 156.82 234.29" fill="none" stroke="rgb(0,0,0)" stroke-width="8.00" stroke-linecap="round" stroke-linejoin="round"/>
  <path d="M 197.92 258.23 L 194.79 258.77 L 191.85 260.01 L 189.74 261.57 L 188.35 263.13 L 187.17 265.35 L 186.26 269.35 L 186.15 271.54 L 186.60 274.87 L 187.73 277.93 L 188.79 278.98 L 192.22 280.04 L 194.96 279.80 L 197.29 279.08 L 200.48 277.57 L 202.10 273.00" fill="none" stroke="rgb(0,0,0)" stroke-width="8.00" stroke-linecap="round" stroke-linejoin="round"/>
  <path d="M 203.86 235.57 L 202.81 231.77 L 205.77 240.26 L 214.88 263.51 L 221.33 277.88 L 224.39 283.17" fill="none" stroke="rgb(0,0,0)" stroke-width="8.00" stroke-linecap="round" stroke-linejoin="round"/>
  <path d="M 209.37 272.33 L 216.08 271.75 L 221.29 272.25 L 224.60 270.58" fill="none" stroke="rgb(0,0,0)" stroke-width="8.00" stroke-linecap="round" stroke-linejoin="round"/>
  <path d="M 240.90 255.27 L 234.13 258.65 L 232.10 260.07 L 230.49 261.75 L 227.58 266.54 L 227.85 267.89 L 229.08 269.11 L 239.38 275.13 L 240.99 276.61 L 241.94 278.46 L 242.32 283.37 L 240.19 290.43 L 239.15 292.05 L 237.43 293.53 L 236.20 294.00 L 234.58 293.87" fill="none" stroke="rgb(0,0,0)" stroke-width="8.00" stroke-linecap="round" stroke-linejoin="round"/>
  <path d="M -351.44 335.90 L -348.08 335.27 L -352.40 334.27 L -363.06 334.38 L -366.24 335.20 L -359.23 335.29 L -341.15 333.13 L -327.85 332.29 L -309.56 331.83 L -300.81 331.00 L -311.03 331.10 L -344.23 332.81 L -354.65 333.91 L -356.86 334.41 L -357.97 335.07 L -356.11 334.93 L -352.82 333.73 L -349.32 333.09" fill="none" stroke="rgb(0,0,0)" stroke-width="8.00" stroke-linecap="round" stroke-linejoin="round"/>
  <path d="M -317.58 325.59 L -313.36 325.24 L -309.64 325.56 L -305.17 326.61 L -299.72 328.72 L -298.29 328.89 L -298.05 330.53 L -298.81 331.91 L -299.58 332.56 L -301.58 333.59 L -307.37 335.84 L -308.05 335.86 L -308.74 336.67" fill="none" stroke="rgb(0,0,0)" stroke-width="8.00" stroke-linecap="round" stroke-linejoin="round"/>
  <path d="M -249.66 336.07 L -251.56 329.91 L -252.82 328.03 L -258.91 325.23 L -260.56 324.72 L -261.95 324.90 L -263.66 327.66 L -263.75 329.09 L -261.84 334.45 L -260.39 340.38 L -258.88 343.03 L -256.61 345.70 L -255.39 346.46 L -253.90 345.98 L -252.99 345.31 L -252.44 344.15 L -249.88 334.22 L -249.72 317.80 L -253.07 303.17 L -254.67 299.50 L -255.61 303.71 L -255.64 307.15 L -253.88 319.62 L -251.93 330.40 L -249.89 339.19 L -247.03 348.51 L -246.48 349.33 L -244.80 346.29" fill="none" stroke="rgb(0,0,0)" stroke-width="8.00" stroke-linecap="round" stroke-linejoin="round"/>
  <path d="M -236.91 333.10 L -237.88 332.43 L -240.95 331.47 L -242.77 331.48 L -244.59 332.79 L -246.60 336.46 L -246.84 337.83 L -246.53 341.71 L -245.49 345.80 L -244.56 348.00 L -242.17 349.94 L -240.69 350.40 L -239.05 349.85 L -237.40 348.62 L -235.63 345.88 L -233.35 338.96 L -233.55 336.19 L -234.48 333.39 L -232.01 340.40 L -230.30 343.53 L -227.66 345.73 L -225.29 346.60 L -224.25 346.55 L -221.90 345.42 L -221.17 344.29 L -219.53 339.20 L -219.81 333.81 L -220.37 337.40 L -219.50 341.87 L -218.60 344.04 L -215.69 347.64" fill="none" stroke="rgb(0,0,0)" stroke-width="8.00" stroke-linecap="round" stroke-linejoin="round"/>
  <path d="M -221.62 322.54 L -221.59 322.61" fill="none" stroke="rgb(0,0,0)" stroke-width="8.00" stroke-linecap="round" stroke-linejoin="round"/>
  <path d="M -210.07 345.73 L -205.06 340.99 L -204.12 339.68 L -203.44 337.87 L -201.32 328.75 L -199.67 320.57 L -199.61 318.29 L -200.13 316.70 L -205.03 310.70 L -206.46 309.95 L -207.91 311.32 L -208.42 312.27 L -209.86 317.17 L -210.08 322.21 L -207.23 338.00 L -203.59 344.44 L -202.17 346.25 L -200.25 347.86 L -198.11 347.95 L -195.27 347.75 L -191.69 345.93 L -190.40 344.52 L -189.49 342.93 L -187.32 337.72 L -187.26 336.87 L -187.46 337.09 L -189.06 336.90 L -190.02 337.72 L -190.64 338.88 L -190.78 341.42 L -190.04 344.93 L -187.82 349.02 L -186.98 349.85 L -185.16 350.35 L -182.62 349.78 L -181.91 349.27 L -181.53 348.50 L -179.47 341.95 L -179.60 338.70 L -181.04 334.07 L -178.02 335.14 L -174.91 337.56 L -171.37 341.48 L -169.46 345.22 L -168.14 350.66 L -167.25 360.93 L -168.15 366.31 L -169.75 369.82 L -170.82 370.98 L -173.31 372.63 L -175.65 372.34 L -179.28 370.66 L -181.39 369.07 L -182.48 367.81 L -183.75 365.49" fill="none" stroke="rgb(0,0,0)" stroke-width="8.00" stroke-linecap="round" stroke-linejoin="round"/>
  <path d="M -125.25 334.60 L -130.25 332.53 L -132.56 332.48 L -133.79 333.54 L -134.05 334.88 L -132.65 337.13 L -129.57 338.48 L -125.93 338.93 L -124.62 338.16 L -123.91 337.28 L -122.38 333.92 L -122.47 332.30 L -122.21 334.74 L -119.75 339.14 L -118.64 340.51 L -117.42 340.63 L -116.33 340.10 L -115.42 338.99 L -112.54 334.21 L -111.35 332.82 L -110.01 332.21 L -108.02 331.96 L -106.40 332.91 L -102.68 340.38 L -102.80 339.74 L -102.35 338.52 L -99.92 334.80 L -98.36 333.19 L -97.27 332.31 L -93.20 331.46 L -92.69 331.78 L -91.05 336.34 L -91.06 340.46" fill="none" stroke="rgb(0,0,0)" stroke-width="8.00" stroke-linecap="round" stroke-linejoin="round"/>
  <path d="M -72.52 330.67 L -75.00 330.12 L -77.45 330.02 L -80.96 330.80 L -83.01 331.88 L -84.76 333.46 L -85.66 335.06 L -87.30 339.22 L -86.98 341.15 L -86.01 341.79 L -84.02 341.56 L -80.76 339.31 L -77.50 335.10 L -75.10 330.07 L -73.66 323.98 L -72.79 319.06 L -72.70 316.59 L -74.53 309.32 L -75.67 306.82 L -76.93 313.33 L -76.86 321.83 L -75.51 330.73 L -74.30 334.97 L -73.31 337.30 L -71.70 339.57 L -66.20 342.07 L -64.56 342.40 L -62.66 342.34" fill="none" stroke="rgb(0,0,0)" stroke-width="8.00" stroke-linecap="round" stroke-linejoin="round"/>
  <path d="M -24.89 330.55 L -26.16 332.88 L -26.54 334.90 L -26.16 336.82 L -24.79 338.49 L -22.25 338.90 L -19.18 337.26 L -17.03 336.53 L -15.79 333.57 L -15.05 330.49 L -13.78 334.30 L -12.24 337.19 L -9.83 339.13 L -7.16 339.84 L -5.96 339.55 L -2.93 337.55 L -0.60 337.09 L 1.08 333.20 L 0.10 330.65 L 0.14 329.98" fill="none" stroke="rgb(0,0,0)" stroke-width="8.00" stroke-linecap="round" stroke-linejoin="round"/>
  <path d="M 5.28 335.69 L 8.59 334.74 L 10.65 333.63 L 12.55 328.66 L 12.42 328.34 L 11.01 327.96 L 9.39 328.03 L 7.72 328.97 L 5.24 332.30 L 4.54 334.07 L 4.47 335.56 L 5.05 338.86 L 7.25 342.25 L 8.86 342.83 L 12.84 342.32 L 18.86 339.70 L 21.50 337.58 L 23.00 336.04 L 24.15 332.87 L 23.50 332.04 L 19.44 330.49 L 17.84 331.90 L 17.12 333.67 L 17.12 334.59 L 17.41 336.09 L 20.20 340.74 L 22.01 341.51 L 24.35 341.34 L 27.81 339.70" fill="none" stroke="rgb(0,0,0)" stroke-width="8.00" stroke-linecap="round" stroke-linejoin="round"/>
  <path d="M 29.81 305.29 L 31.44 315.01 L 32.74 325.67 L 33.84 330.45 L 36.21 336.55 L 38.84 341.61 L 39.68 342.63 L 40.54 342.80 L 41.18 342.53 L 41.86 341.16" fill="none" stroke="rgb(0,0,0)" stroke-width="8.00" stroke-linecap="round" stroke-linejoin="round"/>
  <path d="M 39.63 332.26 L 47.18 321.07 L 47.63 319.14" fill="none" stroke="rgb(0,0,0)" stroke-width="8.00" stroke-linecap="round" stroke-linejoin="round"/>
  <path d="M 43.19 338.05 L 46.96 340.42 L 48.63 341.07 L 49.80 341.14 L 53.24 340.49 L 58.32 338.74 L 60.42 336.98 L 62.34 333.85 L 64.01 330.26 L 65.77 320.50 L 65.85 318.75 L 65.23 315.84 L 64.70 314.66 L 63.10 312.65 L 61.91 312.26 L 60.36 312.24 L 59.10 312.83 L 57.92 314.45 L 57.32 317.46 L 57.65 323.70 L 59.19 333.54 L 60.42 338.43 L 62.02 340.99 L 63.17 341.69 L 65.79 341.62 L 68.67 340.22 L 69.51 339.36 L 71.10 336.23 L 70.38 335.64 L 69.61 337.47 L 69.85 340.25 L 71.46 341.85 L 73.35 341.92 L 76.33 339.73 L 78.17 334.41 L 78.34 332.40 L 79.59 332.04 L 80.15 332.15 L 81.06 332.98 L 83.32 335.73 L 84.63 338.20 L 85.64 341.22 L 86.54 345.35 L 87.48 355.78 L 87.53 358.67 L 86.74 362.56 L 85.51 365.19 L 82.48 368.36 L 81.86 368.35 L 80.12 367.45 L 78.48 366.07" fill="none" stroke="rgb(0,0,0)" stroke-width="8.00" stroke-linecap="round" stroke-linejoin="round"/>
  <path d="M 106.52 341.54 L 105.27 338.13 L 105.11 336.47 L 105.38 332.03 L 106.08 330.89 L 106.71 330.99 L 108.60 330.48 L 110.02 331.72 L 110.96 333.92 L 112.78 340.37 L 112.73 343.04 L 113.07 341.49 L 115.38 336.62 L 119.30 335.16 L 120.01 335.35 L 120.59 336.22 L 122.18 339.89 L 122.22 341.62 L 122.20 341.01 L 122.81 339.87 L 125.66 336.79 L 128.20 333.09 L 130.01 331.06 L 130.14 332.15 L 131.09 334.45 L 134.68 340.96 L 135.55 341.84 L 136.89 342.38 L 139.20 342.04 L 142.00 341.02 L 142.91 340.15 L 145.62 335.48 L 144.92 335.68 L 141.19 334.66 L 140.12 334.92 L 138.82 335.83 L 137.78 337.17 L 137.34 338.39 L 137.71 340.49 L 139.90 343.78 L 141.64 344.64 L 142.68 344.65 L 147.22 343.78 L 149.41 342.79" fill="none" stroke="rgb(0,0,0)" stroke-width="8.00" stroke-linecap="round" stroke-linejoin="round"/>
  <path d="M 144.46 312.59 L 145.58 315.07 L 149.41 326.93 L 151.24 331.01 L 157.44 342.25 L 158.94 344.30 L 158.83 343.64" fill="none" stroke="rgb(0,0,0)" stroke-width="8.00" stroke-linecap="round" stroke-linejoin="round"/>
  <path d="M 146.05 332.97 L 156.14 330.76 L 158.47 331.10 L 159.09 331.51" fill="none" stroke="rgb(0,0,0)" stroke-width="8.00" stroke-linecap="round" stroke-linejoin="round"/>
  <path d="M 165.30 346.75 L 165.58 342.37 L 165.32 340.54 L 164.07 335.98 L 162.82 333.71 L 163.16 334.18 L 167.02 332.49 L 168.96 332.15 L 175.64 332.37 L 175.30 332.41 L 173.32 336.32 L 173.09 337.59 L 173.43 339.81 L 175.55 343.79 L 176.51 344.30 L 178.29 344.37 L 182.40 342.33 L 184.11 340.94 L 185.42 339.38 L 188.27 332.67 L 189.38 328.16 L 189.11 332.96 L 189.54 336.99 L 190.31 338.89 L 193.16 343.94 L 193.60 342.76" fill="none" stroke="rgb(0,0,0)" stroke-width="8.00" stroke-linecap="round" stroke-linejoin="round"/>
  <path d="M 187.29 315.76 L 185.84 321.80 L 185.71 324.03" fill="none" stroke="rgb(0,0,0)" stroke-width="8.00" stroke-linecap="round" stroke-linejoin="round"/>
  <path d="M 202.89 332.75 L 203.13 331.39 L 202.92 330.19 L 201.80 330.16 L 199.77 331.63 L 198.09 334.40 L 197.16 336.76 L 196.70 339.38 L 196.99 342.84 L 197.63 344.95 L 199.31 347.02 L 201.02 347.62 L 204.15 347.57 L 209.36 346.13 L 210.85 346.28 L 211.24 346.70" fill="none" stroke="rgb(0,0,0)" stroke-width="8.00" stroke-linecap="round" stroke-linejoin="round"/>
  <path d="M -265.84 415.27 L -266.93 415.13 L -261.46 407.30 L -258.90 401.57" fill="none" stroke="rgb(0,0,0)" stroke-width="8.00" stroke-linecap="round" stroke-linejoin="round"/>
  <path d="M -269.30 401.51 L -265.49 407.02 L -259.74 414.30 L -257.58 417.76 L -256.12 421.31" fill="none" stroke="rgb(0,0,0)" stroke-width="8.00" stroke-linecap="round" stroke-linejoin="round"/>
  <path d="M -263.81 404.52 L -261.09 406.38 L -257.25 411.25 L -255.89 413.72 L -253.75 420.22" fill="none" stroke="rgb(0,0,0)" stroke-width="8.00" stroke-linecap="round" stroke-linejoin="round"/>
  <path d="M -267.30 415.24 L -259.19 416.77 L -255.13 416.94 L -251.70 416.60 L -250.24 415.91 L -249.34 415.01" fill="none" stroke="rgb(0,0,0)" stroke-width="8.00" stroke-linecap="round" stroke-linejoin="round"/>
  <path d="M -233.67 399.34 L -233.31 401.62 L -229.55 413.64 L -228.63 417.91 L -228.01 418.26" fill="none" stroke="rgb(0,0,0)" stroke-width="8.00" stroke-linecap="round" stroke-linejoin="round"/>
  <path d="M -240.72 402.32 L -239.95 397.24 L -238.15 393.14 L -235.67 390.42 L -233.47 389.34 L -229.86 389.18 L -225.51 389.99 L -222.20 391.41 L -219.21 393.45 L -217.32 395.41 L -216.70 398.23 L -217.23 401.38 L -222.83 412.34 L -225.55 416.26 L -228.49 419.15 L -233.19 421.91 L -230.47 418.69" fill="none" stroke="rgb(0,0,0)" stroke-width="8.00" stroke-linecap="round" stroke-linejoin="round"/>
  <path d="M -210.79 403.62 L -213.37 403.67 L -215.77 404.42 L -217.70 406.60 L -218.42 408.81 L -217.96 412.26 L -216.14 419.01 L -214.42 420.96 L -213.42 421.62 L -211.88 421.99 L -207.06 421.10 L -205.24 420.50 L -203.87 419.60 L -202.59 417.75 L -201.89 416.10 L -201.19 412.11 L -201.28 409.08 L -202.85 405.55 L -205.02 403.21 L -206.81 402.16 L -212.14 401.34 L -214.98 402.01 L -216.01 402.70 L -216.91 404.16 L -217.17 405.31 L -217.00 406.51 L -216.22 408.09 L -213.52 410.77 L -209.13 412.41 L -206.03 412.03 L -201.03 409.69 L -199.09 407.94 L -197.78 405.54" fill="none" stroke="rgb(0,0,0)" stroke-width="8.00" stroke-linecap="round" stroke-linejoin="round"/>
  <path d="M -156.62 413.36 L -156.34 413.34 L -158.13 400.65 L -159.38 396.04 L -159.18 396.52 L -157.89 397.04 L -154.83 399.33 L -151.70 402.45 L -147.32 409.11 L -145.57 412.67 L -144.74 413.68 L -144.97 413.33 L -144.46 413.10 L -143.56 411.32 L -142.57 407.36 L -142.68 397.00" fill="none" stroke="rgb(0,0,0)" stroke-width="8.00" stroke-linecap="round" stroke-linejoin="round"/>
  <path d="M -128.64 395.82 L -132.18 397.27 L -134.37 398.98 L -135.84 401.89 L -135.98 404.41 L -134.93 410.06 L -133.76 413.00 L -132.88 414.17 L -131.84 414.60 L -130.41 413.94 L -128.48 412.06 L -127.27 410.17 L -126.49 408.15 L -124.87 399.49 L -124.78 397.13 L -125.28 395.89 L -126.06 395.25 L -127.70 394.94 L -128.54 395.01 L -129.58 395.63 L -131.44 398.67 L -132.40 403.40" fill="none" stroke="rgb(0,0,0)" stroke-width="8.00" stroke-linecap="round" stroke-linejoin="round"/>
  <path d="M -111.82 399.17 L -112.15 403.19 L -110.70 410.45 L -109.14 414.76 L -108.33 415.65 L -107.79 414.62" fill="none" stroke="rgb(0,0,0)" stroke-width="8.00" stroke-linecap="round" stroke-linejoin="round"/>
  <path d="M -123.04 398.88 L -117.43 398.91 L -112.50 398.00 L -108.27 396.80 L -106.09 397.10" fill="none" stroke="rgb(0,0,0)" stroke-width="8.00" stroke-linecap="round" stroke-linejoin="round"/>
  <path d="M -56.44 408.48 L -57.16 406.94 L -58.29 405.58 L -59.76 404.69 L -61.57 404.14 L -63.01 404.36 L -64.60 405.21 L -67.34 408.18 L -67.67 409.02 L -67.46 411.20 L -65.11 418.55 L -64.05 420.16 L -62.86 420.17 L -61.55 418.98 L -58.52 410.84 L -58.55 406.07 L -59.11 404.78 L -59.03 406.00 L -56.61 412.63 L -55.25 414.82 L -53.82 415.98 L -52.91 416.13 L -50.94 415.62 L -49.56 414.88 L -48.75 413.79 L -46.50 408.86 L -46.54 406.51 L -47.11 405.53 L -47.39 407.39 L -47.02 410.76 L -45.11 413.47 L -44.38 414.07 L -43.14 414.42 L -41.50 413.92 L -40.15 412.36 L -37.74 406.14 L -37.97 409.49 L -37.57 410.91 L -34.41 415.88 L -34.15 415.42" fill="none" stroke="rgb(0,0,0)" stroke-width="8.00" stroke-linecap="round" stroke-linejoin="round"/>
  <path d="M -31.92 384.79 L -30.81 389.27 L -27.55 408.65 L -26.24 413.30 L -24.82 416.31" fill="none" stroke="rgb(0,0,0)" stroke-width="8.00" stroke-linecap="round" stroke-linejoin="round"/>
  <path d="M -32.81 409.28 L -28.00 408.24 L -24.61 407.14 L -21.96 405.43 L -18.49 403.99" fill="none" stroke="rgb(0,0,0)" stroke-width="8.00" stroke-linecap="round" stroke-linejoin="round"/>
  <path d="M -9.87 400.98 L -13.30 403.78 L -15.17 406.02 L -16.37 408.12 L -17.91 411.92 L -18.21 415.29 L -16.65 417.52 L -15.43 418.50 L -14.32 418.77 L -12.85 418.61 L -6.59 415.96 L -5.16 414.58 L -3.92 412.36 L -2.79 408.49 L -2.85 407.42 L -4.83 405.12 L -7.65 404.01 L -8.76 403.97 L -11.50 404.82 L -14.27 406.53 L -16.52 409.21 L -16.73 410.13 L -13.44 411.14 L -10.82 411.06 L 0.33 405.82 L 1.34 405.77 L 2.54 406.82 L 4.95 412.06 L 4.83 414.61 L 9.11 410.20 L 10.34 409.52 L 13.65 408.60 L 14.35 409.31 L 15.69 413.02 L 15.55 414.87 L 14.10 418.55 L 13.82 420.06 L 19.32 412.80 L 20.49 411.46 L 21.99 410.41 L 23.83 410.02 L 25.87 410.56 L 28.15 415.84" fill="none" stroke="rgb(0,0,0)" stroke-width="8.00" stroke-linecap="round" stroke-linejoin="round"/>
  <path d="M 39.13 409.91 L 35.71 411.35 L 33.38 412.92 L 31.29 415.80 L 31.20 416.47 L 31.80 418.17 L 32.69 418.51 L 34.09 418.40 L 35.70 417.44 L 36.88 415.95 L 41.04 408.48 L 42.03 410.27 L 44.92 419.82 L 47.14 408.75 L 48.21 400.82 L 48.82 392.18 L 49.47 388.47 L 49.00 396.00 L 49.32 408.36 L 50.82 415.26 L 51.72 413.92" fill="none" stroke="rgb(0,0,0)" stroke-width="8.00" stroke-linecap="round" stroke-linejoin="round"/>
  <path d="M 44.61 404.76 L 53.93 402.88" fill="none" stroke="rgb(0,0,0)" stroke-width="8.00" stroke-linecap="round" stroke-linejoin="round"/>
  <path d="M 59.70 414.00 L 66.94 411.41 L 68.96 408.99 L 69.85 406.44 L 67.47 406.11 L 66.13 406.46 L 64.99 407.21 L 63.32 409.09 L 61.82 411.53 L 61.50 412.27 L 61.70 413.32 L 63.11 414.63 L 65.32 415.68 L 71.32 417.55 L 74.98 418.05" fill="none" stroke="rgb(0,0,0)" stroke-width="8.00" stroke-linecap="round" stroke-linejoin="round"/>
  <path d="M -565.16 97.36 L -565.12 97.54" fill="none" stroke="rgb(0,0,0)" stroke-width="8.00" stroke-linecap="round" stroke-linejoin="round"/>
  <path d="M -566.33 95.68 L -568.98 89.35 L -571.49 82.25 L -572.01 80.18 L -571.80 79.72 L -571.35 80.85 L -566.10 100.00 L -561.54 112.21 L -556.93 129.85 L -555.99 132.89 L -552.39 141.20 L -551.27 144.90 L -549.76 147.10 L -552.13 141.83" fill="none" stroke="rgb(0,0,0)" stroke-width="8.00" stroke-linecap="round" stroke-linejoin="round"/>
  <path d="M -575.66 106.81 L -576.72 107.30 L -579.07 107.47 L -581.37 106.64 L -582.48 105.39 L -583.43 103.55 L -583.91 100.30 L -581.73 89.77 L -578.57 79.83 L -576.86 76.25 L -574.60 72.87 L -571.46 70.05 L -566.30 68.52 L -560.75 68.35 L -555.97 68.81 L -548.66 70.94 L -545.13 72.40 L -541.24 75.29 L -538.25 78.56 L -534.84 83.98 L -533.75 87.12 L -533.10 90.93 L -532.69 99.64 L -532.85 102.91 L -533.94 108.67 L -534.81 111.08 L -536.40 114.68 L -539.00 118.48 L -543.16 122.27 L -547.10 124.04 L -555.91 126.43 L -560.51 127.31 L -565.75 127.04" fill="none" stroke="rgb(0,0,0)" stroke-width="8.00" stroke-linecap="round" stroke-linejoin="round"/>
  <path d="M -503.62 142.46 L -504.07 142.50 L -503.49 132.86 L -502.30 124.29 L -501.61 111.14 L -501.20 76.15" fill="none" stroke="rgb(0,0,0)" stroke-width="8.00" stroke-linecap="round" stroke-linejoin="round"/>
  <path d="M -503.18 64.23 L -501.67 66.70 L -493.47 77.43 L -485.94 94.62 L -481.10 102.82" fill="none" stroke="rgb(0,0,0)" stroke-width="8.00" stroke-linecap="round" stroke-linejoin="round"/>
  <path d="M -478.30 109.05 L -473.17 93.45 L -469.97 80.23 L -467.20 74.25" fill="none" stroke="rgb(0,0,0)" stroke-width="8.00" stroke-linecap="round" stroke-linejoin="round"/>
  <path d="M -459.66 89.72 L -457.07 109.98 L -455.76 117.25 L -454.90 120.34 L -450.92 130.36 L -451.13 136.67" fill="none" stroke="rgb(0,0,0)" stroke-width="8.00" stroke-linecap="round" stroke-linejoin="round"/>
  <path d="M -463.17 70.19 L -462.67 70.69 L -460.73 79.07 L -459.85 85.02 L -458.32 92.34 L -457.29 96.21 L -456.55 97.72" fill="none" stroke="rgb(0,0,0)" stroke-width="8.00" stroke-linecap="round" stroke-linejoin="round"/>
  <path d="M -422.22 128.56 L -422.68 118.17 L -424.61 105.42 L -427.00 97.46 L -431.22 78.90 L -434.30 70.85 L -434.12 70.34 L -430.67 68.64 L -428.00 67.88 L -425.79 67.68 L -406.17 68.11 L -394.52 68.92 L -393.13 69.30" fill="none" stroke="rgb(0,0,0)" stroke-width="8.00" stroke-linecap="round" stroke-linejoin="round"/>
  <path d="M -426.97 102.62 L -425.24 103.69 L -421.90 104.85 L -414.45 106.19 L -412.59 106.27 L -407.10 105.75 L -400.27 103.56 L -395.33 103.03" fill="none" stroke="rgb(0,0,0)" stroke-width="8.00" stroke-linecap="round" stroke-linejoin="round"/>
</svg>
