<?xml version="1.0" encoding="UTF-8"?>
<svg xmlns="http://www.w3.org/2000/svg" viewBox="-623.5 41.1 1412.7 992.1" width="1413" height="992">
<rect x="-623.5" y="41.1" width="1412.7" height="992.1" fill="white"/>
  <path d="M -578.34 167.96 L -588.47 164.11 L -595.68 162.47 L -600.15 163.86 L -603.46 164.10 L -600.83 165.24 L -596.38 166.48 L -573.78 170.25 L -529.15 175.17 L -511.21 178.16 L -507.24 178.12 L -504.88 177.24 L -505.66 176.58 L -507.88 175.60" fill="none" stroke="rgb(0,0,0)" stroke-width="8.00" stroke-linecap="round" stroke-linejoin="round"/>
  <path d="M -512.69 167.66 L -513.69 167.92 L -522.46 167.71 L -521.11 169.04 L -516.53 171.56 L -506.07 175.38 L -501.16 177.74 L -496.30 179.47 L -495.86 181.49 L -495.89 183.63 L -497.35 186.28 L -498.80 187.61 L -501.06 188.66 L -506.77 190.00 L -508.88 190.05 L -509.81 187.07" fill="none" stroke="rgb(0,0,0)" stroke-width="8.00" stroke-linecap="round" stroke-linejoin="round"/>
  <path d="M -418.05 133.94 L -418.98 130.48 L -420.11 128.16 L -421.35 127.53 L -426.68 126.68 L -428.47 126.62 L -431.67 127.30 L -438.11 130.26 L -441.10 132.03 L -442.92 133.58 L -445.05 136.02 L -446.98 140.06 L -448.22 144.00 L -450.80 156.23 L -450.61 160.56 L -449.92 163.06 L -448.33 166.35 L -444.70 170.84 L -439.87 175.24 L -436.30 177.70 L -428.71 180.96 L -426.33 180.80 L -425.24 180.15 L -424.48 179.48 L -423.39 177.08" fill="none" stroke="rgb(0,0,0)" stroke-width="8.00" stroke-linecap="round" stroke-linejoin="round"/>
  <path d="M -401.37 137.19 L -403.45 145.80 L -405.97 160.19 L -405.72 170.64 L -405.38 171.56 L -403.43 174.06 L -401.75 174.84 L -400.16 175.13 L -382.01 175.03 L -381.75 174.80 L -381.51 172.86" fill="none" stroke="rgb(0,0,0)" stroke-width="8.00" stroke-linecap="round" stroke-linejoin="round"/>
  <path d="M -367.03 141.61 L -367.03 144.11 L -366.13 151.66 L -363.76 166.14 L -362.69 169.56 L -358.75 178.32" fill="none" stroke="rgb(0,0,0)" stroke-width="8.00" stroke-linecap="round" stroke-linejoin="round"/>
  <path d="M -304.38 177.93 L -302.03 173.67 L -300.47 168.82 L -299.40 163.87 L -298.24 161.68 L -296.39 170.03 L -293.10 181.25 L -291.83 183.19 L -290.47 183.28 L -290.19 182.59" fill="none" stroke="rgb(0,0,0)" stroke-width="8.00" stroke-linecap="round" stroke-linejoin="round"/>
  <path d="M -297.52 148.81 L -297.50 148.94" fill="none" stroke="rgb(0,0,0)" stroke-width="8.00" stroke-linecap="round" stroke-linejoin="round"/>
  <path d="M -279.81 187.10 L -280.14 185.33 L -280.11 182.87 L -277.55 173.80 L -276.22 170.83 L -274.79 169.22 L -273.68 167.32 L -273.11 166.58 L -272.01 166.39 L -270.59 167.19 L -269.00 168.85 L -265.10 175.26 L -264.22 177.34 L -263.41 181.04 L -263.60 185.58 L -263.86 186.30 L -266.10 188.83 L -266.28 187.35 L -265.87 184.40 L -263.32 179.54 L -260.04 174.46 L -256.87 171.64 L -253.84 169.98 L -249.47 169.09 L -247.73 170.04 L -246.18 173.01 L -244.70 178.85 L -244.67 181.80 L -245.86 189.05" fill="none" stroke="rgb(0,0,0)" stroke-width="8.00" stroke-linecap="round" stroke-linejoin="round"/>
  <path d="M -223.66 161.72 L -227.93 164.10 L -230.83 166.44 L -233.47 168.96 L -236.59 173.22 L -236.93 174.21 L -236.50 175.77 L -234.67 176.77 L -226.40 176.37 L -224.62 176.70 L -219.21 178.59 L -217.50 179.90 L -216.48 181.13 L -215.50 184.64 L -216.52 187.88 L -220.91 195.26 L -224.22 198.05 L -224.02 196.03" fill="none" stroke="rgb(0,0,0)" stroke-width="8.00" stroke-linecap="round" stroke-linejoin="round"/>
  <path d="M -214.71 136.68 L -213.74 140.57 L -211.93 145.30 L -208.08 153.35 L -201.56 165.25 L -195.30 181.29 L -192.86 185.02 L -189.46 186.63" fill="none" stroke="rgb(0,0,0)" stroke-width="8.00" stroke-linecap="round" stroke-linejoin="round"/>
  <path d="M -212.01 173.82 L -208.30 173.93 L -198.86 172.43" fill="none" stroke="rgb(0,0,0)" stroke-width="8.00" stroke-linecap="round" stroke-linejoin="round"/>
  <path d="M -173.91 168.08 L -177.24 168.25 L -182.41 169.36 L -184.56 170.48 L -186.00 172.14 L -187.03 175.52 L -187.33 177.97 L -187.00 183.46 L -185.31 190.37 L -183.95 192.94 L -182.69 193.40 L -181.47 193.24 L -179.61 192.16 L -178.42 190.89 L -177.31 188.11 L -175.16 178.83 L -174.03 176.18 L -174.02 179.64 L -172.47 185.66 L -171.50 187.44 L -169.20 190.10 L -166.28 192.33 L -163.82 192.94 L -160.76 192.36 L -156.91 190.42 L -155.17 188.87 L -151.66 184.57 L -150.01 181.81 L -147.56 175.79 L -146.86 170.90 L -146.52 165.33 L -146.89 159.40 L -150.18 147.90 L -151.82 145.53 L -152.37 145.30 L -153.80 148.52 L -155.13 153.96 L -155.44 157.89 L -155.14 173.06 L -153.39 185.11 L -151.72 188.76 L -149.22 192.62 L -146.71 195.81 L -142.73 199.47 L -141.19 199.65 L -137.98 199.17 L -135.71 197.87 L -135.29 195.91" fill="none" stroke="rgb(0,0,0)" stroke-width="8.00" stroke-linecap="round" stroke-linejoin="round"/>
  <path d="M -139.91 198.70 L -137.77 198.26 L -134.85 196.95 L -133.62 196.02 L -131.84 193.86 L -129.86 190.06 L -125.25 179.14 L -122.35 170.66 L -121.01 162.88 L -120.97 160.86 L -121.38 159.44 L -122.92 157.09 L -125.23 154.87 L -128.92 153.57 L -130.40 154.18 L -131.36 155.16 L -132.46 156.82 L -133.52 159.29 L -134.39 162.62 L -134.25 168.02 L -132.67 176.73 L -129.30 187.22 L -126.22 192.92 L -121.42 200.37" fill="none" stroke="rgb(0,0,0)" stroke-width="8.00" stroke-linecap="round" stroke-linejoin="round"/>
  <path d="M -97.54 172.91 L -101.96 173.78 L -104.90 175.04 L -107.38 176.55 L -109.97 179.35 L -112.18 185.14 L -111.80 187.45 L -110.65 188.99 L -109.14 190.28 L -99.05 192.73 L -97.67 193.37 L -96.48 195.12 L -95.67 198.56 L -97.58 201.91 L -99.58 204.20 L -102.80 207.14 L -104.13 207.82 L -105.62 207.76" fill="none" stroke="rgb(0,0,0)" stroke-width="8.00" stroke-linecap="round" stroke-linejoin="round"/>
  <path d="M -32.91 193.88 L -31.46 187.95 L -29.10 175.28 L -26.29 166.98 L -24.57 160.73 L -22.46 156.00 L -19.79 159.66 L -17.39 164.49 L -12.54 181.92 L -10.74 190.70 L -10.11 192.31 L -8.80 193.90 L -6.53 190.84 L -1.66 181.65 L 0.67 176.38 L 5.35 162.95 L 10.27 153.36 L 11.33 155.27 L 13.02 161.35 L 15.95 178.29 L 16.22 188.85 L 16.73 192.98 L 17.90 196.41 L 19.23 198.14 L 19.50 198.29 L 19.46 197.86" fill="none" stroke="rgb(0,0,0)" stroke-width="8.00" stroke-linecap="round" stroke-linejoin="round"/>
  <path d="M 41.88 159.96 L 39.33 165.66 L 37.13 171.68 L 35.44 177.95 L 35.05 181.22 L 35.26 184.46 L 36.82 190.85 L 38.33 194.18 L 39.82 196.55 L 41.86 198.08 L 45.56 199.33 L 48.55 199.19 L 53.85 197.68 L 56.72 195.79 L 59.55 192.76 L 60.97 190.50 L 62.24 186.20" fill="none" stroke="rgb(0,0,0)" stroke-width="8.00" stroke-linecap="round" stroke-linejoin="round"/>
  <path d="M 76.65 166.40 L 76.46 170.07 L 76.99 175.18 L 77.42 186.45 L 77.84 190.45 L 79.57 198.75 L 79.66 203.13 L 77.92 199.19 L 76.15 193.56 L 74.71 184.81 L 75.23 174.82 L 77.09 167.00 L 78.80 163.50 L 81.25 160.55 L 85.35 158.05 L 87.01 157.42 L 92.23 156.37 L 94.18 156.34 L 98.91 158.34 L 100.00 159.25 L 100.92 162.39 L 100.60 167.43 L 98.85 172.31 L 94.97 177.92 L 91.68 180.45 L 86.91 183.03 L 85.29 183.60 L 82.79 183.50 L 79.76 182.54 L 73.85 179.56" fill="none" stroke="rgb(0,0,0)" stroke-width="8.00" stroke-linecap="round" stroke-linejoin="round"/>
  <path d="M 158.50 188.85 L 157.80 187.10 L 156.42 184.97 L 154.77 183.96 L 152.29 183.45 L 143.19 186.38 L 141.80 187.41 L 138.81 190.90 L 138.05 192.77 L 138.09 195.17 L 140.03 201.21 L 141.86 204.34 L 144.58 206.41 L 146.17 206.70 L 149.27 206.21 L 151.09 205.10 L 151.93 204.23 L 154.59 200.52 L 157.22 195.23 L 158.73 190.22 L 159.61 188.63 L 159.46 187.88 L 158.45 189.76 L 158.26 190.79 L 158.22 194.53 L 158.49 195.82 L 162.33 207.17 L 163.21 208.48 L 164.62 208.31 L 166.03 207.20 L 167.24 204.76 L 170.17 196.90 L 174.19 190.53 L 179.96 188.64 L 181.97 189.64 L 183.77 191.38 L 185.39 193.06 L 186.22 194.86 L 187.30 199.58 L 187.12 207.92 L 186.88 208.57 L 190.62 201.07 L 195.01 195.21 L 203.36 187.99 L 208.57 186.08 L 210.09 187.21 L 210.98 189.13 L 211.13 190.74 L 210.36 194.39 L 208.43 199.13 L 208.26 205.30" fill="none" stroke="rgb(0,0,0)" stroke-width="8.00" stroke-linecap="round" stroke-linejoin="round"/>
  <path d="M 244.55 195.69 L 238.92 192.72 L 234.79 191.18 L 229.24 190.20 L 226.10 190.89 L 221.73 193.40 L 219.99 194.81 L 219.10 196.12 L 217.45 199.87 L 216.91 202.21 L 217.21 206.20 L 218.25 209.08 L 220.04 211.70 L 222.35 211.09 L 225.06 209.53 L 228.23 206.00 L 232.11 199.07 L 237.17 192.04 L 239.89 186.66 L 241.03 183.79 L 242.77 177.12 L 243.83 167.24 L 243.85 163.29 L 242.18 151.83 L 240.95 153.67 L 240.24 155.40 L 238.77 163.92 L 238.55 170.47 L 238.90 186.09 L 238.67 204.14 L 239.57 207.93 L 242.13 211.39 L 246.38 214.33 L 247.94 214.43 L 249.31 214.14" fill="none" stroke="rgb(0,0,0)" stroke-width="8.00" stroke-linecap="round" stroke-linejoin="round"/>
  <path d="M 339.51 163.90 L 338.27 161.80 L 335.40 158.66 L 332.35 157.83 L 328.72 158.03 L 324.84 159.13 L 320.23 161.22 L 311.39 166.64 L 308.20 169.24 L 306.29 172.52 L 306.17 173.49 L 306.81 176.05 L 307.85 178.00 L 309.25 179.10 L 316.76 180.82 L 333.86 182.20 L 339.08 183.13 L 344.73 185.42 L 346.82 186.93 L 348.53 189.33 L 349.13 191.55 L 349.03 193.65 L 348.11 196.68 L 346.95 198.60 L 339.21 205.44 L 329.58 212.76 L 326.61 214.07 L 324.95 214.38 L 323.17 214.16 L 321.10 212.86 L 320.62 212.20 L 320.41 210.04 L 321.00 208.86" fill="none" stroke="rgb(0,0,0)" stroke-width="8.00" stroke-linecap="round" stroke-linejoin="round"/>
  <path d="M 359.96 159.67 L 360.87 164.61 L 365.63 183.58 L 368.16 199.44 L 370.22 208.37 L 370.19 210.58" fill="none" stroke="rgb(0,0,0)" stroke-width="8.00" stroke-linecap="round" stroke-linejoin="round"/>
  <path d="M 362.19 203.01 L 374.62 190.41 L 386.93 176.04 L 393.36 170.24 L 396.55 168.39" fill="none" stroke="rgb(0,0,0)" stroke-width="8.00" stroke-linecap="round" stroke-linejoin="round"/>
  <path d="M 362.65 199.12 L 365.90 199.49 L 373.54 201.22 L 378.06 202.78 L 381.65 205.15 L 385.20 209.45 L 387.37 213.12 L 388.11 213.90 L 389.32 214.40" fill="none" stroke="rgb(0,0,0)" stroke-width="8.00" stroke-linecap="round" stroke-linejoin="round"/>
  <path d="M 399.47 222.82 L 400.51 220.77 L 403.57 216.34 L 406.90 208.88 L 407.99 202.42 L 407.87 197.21 L 405.99 199.50 L 404.67 202.98 L 404.61 205.55 L 405.10 209.62 L 406.19 212.78 L 407.60 215.38 L 409.82 217.05 L 410.82 217.43 L 411.19 217.26 L 411.37 216.40" fill="none" stroke="rgb(0,0,0)" stroke-width="8.00" stroke-linecap="round" stroke-linejoin="round"/>
  <path d="M 406.84 172.41 L 407.30 175.02 L 409.28 180.00" fill="none" stroke="rgb(0,0,0)" stroke-width="8.00" stroke-linecap="round" stroke-linejoin="round"/>
  <path d="M 419.09 225.82 L 419.06 225.56 L 425.89 219.03 L 429.33 214.31 L 435.70 199.85 L 437.35 194.85 L 438.54 189.22 L 439.66 175.76 L 439.23 166.96 L 438.00 159.59 L 434.74 165.30 L 432.19 172.58 L 431.25 181.23 L 431.60 191.10 L 432.26 197.45 L 433.84 206.07 L 435.58 210.10 L 437.84 216.66 L 440.00 218.80 L 441.89 219.61 L 443.17 219.46 L 445.54 218.02 L 448.19 216.18 L 450.23 214.01 L 454.26 208.58 L 458.11 202.00 L 462.53 195.85 L 463.96 193.32 L 466.45 187.39 L 467.62 182.64 L 468.68 170.59 L 468.58 163.00 L 468.13 160.05 L 467.34 158.85 L 465.86 158.86 L 464.03 159.71 L 462.53 160.76 L 459.79 163.48 L 457.37 167.07 L 455.29 172.24 L 453.85 177.38 L 451.30 193.39 L 450.95 197.94 L 451.16 204.37 L 451.91 208.68 L 454.42 218.62 L 454.87 220.10 L 455.70 221.03 L 457.45 222.40 L 459.05 222.76" fill="none" stroke="rgb(0,0,0)" stroke-width="8.00" stroke-linecap="round" stroke-linejoin="round"/>
  <path d="M 490.09 194.14 L 475.96 198.82 L 472.35 201.41 L 469.76 203.75 L 472.38 205.65 L 477.85 207.54 L 486.12 211.41 L 489.87 214.23 L 492.17 217.39 L 492.79 219.17 L 493.13 222.57 L 491.78 226.48 L 488.71 229.90 L 483.72 232.38 L 481.26 233.14 L 477.40 232.99 L 468.71 230.20" fill="none" stroke="rgb(0,0,0)" stroke-width="8.00" stroke-linecap="round" stroke-linejoin="round"/>
  <path d="M -586.45 317.63 L -587.62 317.48 L -587.04 317.09 L -584.25 316.14 L -577.80 315.04 L -574.33 314.92 L -553.79 317.94 L -540.88 319.14 L -535.74 319.34 L -517.58 318.78 L -504.00 316.46 L -500.80 316.78 L -500.42 317.11" fill="none" stroke="rgb(0,0,0)" stroke-width="8.00" stroke-linecap="round" stroke-linejoin="round"/>
  <path d="M -507.35 310.90 L -511.45 309.68 L -513.95 309.71 L -513.28 311.53 L -512.03 313.02 L -506.63 316.40 L -500.62 318.32 L -498.97 319.23 L -500.99 321.40 L -503.19 323.09 L -506.99 324.60" fill="none" stroke="rgb(0,0,0)" stroke-width="8.00" stroke-linecap="round" stroke-linejoin="round"/>
  <path d="M -457.51 278.08 L -454.84 284.67 L -452.41 292.48 L -447.63 317.08 L -444.40 330.57 L -443.12 332.62 L -444.53 331.27" fill="none" stroke="rgb(0,0,0)" stroke-width="8.00" stroke-linecap="round" stroke-linejoin="round"/>
  <path d="M -459.39 307.05 L -463.46 293.36 L -464.12 289.69 L -464.17 285.88 L -463.70 283.45 L -462.36 280.40 L -459.40 276.94 L -457.67 275.43 L -450.77 270.56 L -446.68 268.61 L -443.29 267.67 L -438.47 267.15 L -437.08 267.26 L -433.80 268.41 L -431.12 270.23 L -429.96 271.60 L -428.32 275.29 L -427.71 281.44 L -428.26 287.66 L -430.27 296.24 L -432.22 301.00 L -434.71 304.46 L -438.61 307.87 L -446.81 312.33 L -452.47 314.14 L -458.01 315.22 L -460.17 315.22 L -459.14 314.17" fill="none" stroke="rgb(0,0,0)" stroke-width="8.00" stroke-linecap="round" stroke-linejoin="round"/>
  <path d="M -425.46 330.66 L -419.52 329.35 L -415.26 327.90 L -412.01 325.94 L -408.67 322.70 L -406.63 317.99 L -405.74 311.42 L -406.46 309.76 L -407.54 308.84 L -411.63 307.84 L -414.75 308.92 L -416.06 309.83 L -417.44 311.45 L -418.44 313.45 L -419.30 316.09 L -419.46 318.62 L -419.20 321.00 L -418.31 324.00 L -416.88 326.72 L -414.72 329.53 L -411.58 331.23 L -410.31 331.48 L -408.47 331.25 L -404.67 329.72 L -402.35 329.49" fill="none" stroke="rgb(0,0,0)" stroke-width="8.00" stroke-linecap="round" stroke-linejoin="round"/>
  <path d="M -395.92 308.61 L -401.03 310.44 L -404.44 312.17 L -405.95 314.15 L -406.08 315.76 L -405.61 317.58 L -403.61 322.34 L -400.48 327.51 L -397.15 330.79 L -394.31 332.14 L -392.28 332.71 L -387.51 332.33 L -384.65 331.26 L -382.61 329.79 L -380.38 327.06 L -379.13 325.01 L -378.52 322.65 L -377.95 318.39 L -378.33 315.07 L -379.94 312.56 L -382.76 309.92 L -384.54 308.66 L -386.16 308.01 L -395.98 306.67 L -398.91 307.24 L -402.16 309.27 L -402.94 310.33 L -403.81 312.89 L -403.95 314.67 L -403.56 316.57 L -402.22 318.52 L -399.70 320.55 L -398.47 321.17 L -396.25 321.68 L -393.20 321.32 L -386.90 318.31 L -383.01 314.83 L -381.14 312.63 L -379.03 311.10 L -376.55 308.70 L -375.07 308.37 L -373.88 308.62 L -371.45 310.85 L -369.14 314.81 L -367.88 319.25 L -364.44 343.28 L -364.18 346.87 L -364.53 351.89 L -366.99 349.57 L -368.43 347.53 L -370.09 342.53 L -371.99 327.99 L -371.89 322.14 L -371.09 318.14 L -369.09 313.64 L -366.14 311.81 L -364.19 311.31 L -361.86 310.99 L -359.66 311.54 L -357.48 312.68 L -354.91 314.70 L -353.19 317.74 L -352.16 324.36 L -352.58 325.96 L -353.46 327.50 L -356.52 330.47 L -351.94 328.93 L -348.77 327.12 L -346.11 324.51 L -342.16 319.17 L -338.40 313.53 L -334.37 304.09 L -333.07 299.45 L -331.99 291.86 L -332.25 287.86 L -334.79 282.18 L -338.09 277.76 L -339.55 276.57 L -340.99 276.02 L -342.23 276.02 L -343.37 276.69 L -344.32 279.04 L -344.68 281.71 L -344.85 286.97 L -344.30 296.44 L -342.99 306.09 L -341.48 310.57 L -332.68 325.06 L -330.15 328.23 L -328.04 329.42 L -326.32 329.73 L -323.73 329.33 L -321.99 328.63 L -318.95 326.36 L -313.74 320.93 L -311.26 317.24 L -309.94 308.88 L -310.11 306.48 L -310.88 305.23 L -311.53 305.05 L -313.12 304.97 L -314.76 305.82 L -316.25 307.49 L -317.64 310.18 L -318.73 317.35 L -318.11 326.75 L -316.61 332.30 L -315.47 333.91 L -313.69 334.91 L -312.23 335.21 L -308.91 334.66 L -307.30 333.75 L -306.39 331.71" fill="none" stroke="rgb(0,0,0)" stroke-width="8.00" stroke-linecap="round" stroke-linejoin="round"/>
  <path d="M -261.18 315.41 L -259.67 310.79 L -257.46 307.99 L -256.49 307.34 L -254.95 306.93 L -251.18 306.80 L -249.93 307.03 L -247.52 307.94 L -244.64 309.74 L -240.39 313.94 L -239.46 315.57 L -238.30 319.95 L -238.26 321.46 L -238.65 322.40 L -238.99 322.53 L -240.28 322.27 L -241.21 320.69 L -241.32 319.93 L -241.16 317.96 L -240.63 316.14 L -239.31 313.19 L -237.47 311.25 L -235.71 310.29 L -231.47 309.43 L -229.31 309.61 L -226.47 310.90 L -225.21 312.28 L -222.27 322.77 L -220.93 325.02 L -219.94 326.20 L -218.20 327.50 L -215.92 328.52 L -214.04 328.77 L -212.23 328.55 L -206.39 326.32 L -204.98 325.42 L -203.13 323.55 L -201.69 320.93 L -200.76 315.55 L -200.75 314.11 L -201.73 312.70 L -205.44 312.43 L -208.08 313.51 L -209.93 315.97 L -209.72 318.05 L -208.47 320.45 L -206.81 322.65 L -204.96 324.06 L -197.78 327.77 L -196.12 327.58 L -195.14 327.06" fill="none" stroke="rgb(0,0,0)" stroke-width="8.00" stroke-linecap="round" stroke-linejoin="round"/>
  <path d="M -187.61 325.67 L -183.92 322.75 L -180.84 319.47 L -179.53 317.45 L -178.97 313.93 L -179.38 313.41 L -182.41 313.03 L -184.71 314.21 L -187.85 318.08 L -188.43 319.21 L -188.03 321.54 L -186.18 324.24 L -183.12 327.08 L -181.63 327.80 L -175.34 326.89 L -172.64 326.04 L -170.88 324.96" fill="none" stroke="rgb(0,0,0)" stroke-width="8.00" stroke-linecap="round" stroke-linejoin="round"/>
  <path d="M -165.69 318.94 L -166.63 319.88 L -167.48 321.27 L -167.78 322.58 L -167.08 326.14 L -165.27 329.68 L -164.99 330.05" fill="none" stroke="rgb(0,0,0)" stroke-width="8.00" stroke-linecap="round" stroke-linejoin="round"/>
  <path d="M -155.92 294.45 L -156.07 285.85 L -154.88 292.76" fill="none" stroke="rgb(0,0,0)" stroke-width="8.00" stroke-linecap="round" stroke-linejoin="round"/>
  <path d="M -156.97 317.76 L -160.17 317.10 L -163.09 317.90 L -165.22 320.57 L -166.83 324.87 L -166.70 326.82 L -164.05 332.39 L -161.23 335.19 L -160.01 335.77 L -158.26 335.57 L -157.03 334.70 L -154.76 331.70 L -154.04 329.81 L -151.78 319.65 L -152.34 300.91 L -152.68 298.80 L -154.22 294.38 L -156.29 290.61 L -156.23 300.03 L -155.43 306.82 L -151.54 320.73 L -150.41 324.24 L -148.75 327.18 L -147.92 327.33 L -147.07 327.06 L -145.82 324.73" fill="none" stroke="rgb(0,0,0)" stroke-width="8.00" stroke-linecap="round" stroke-linejoin="round"/>
  <path d="M -129.24 310.17 L -133.07 313.57 L -137.15 319.10 L -131.47 319.76 L -125.65 322.35 L -123.17 325.31 L -121.95 328.22 L -121.92 329.29 L -123.92 332.29 L -125.84 333.93 L -128.25 334.60 L -131.92 334.56 L -132.12 334.10" fill="none" stroke="rgb(0,0,0)" stroke-width="8.00" stroke-linecap="round" stroke-linejoin="round"/>
  <path d="M -64.54 278.11 L -63.49 284.20 L -59.27 303.71 L -54.32 318.61 L -50.35 332.69 L -49.71 333.61" fill="none" stroke="rgb(0,0,0)" stroke-width="8.00" stroke-linecap="round" stroke-linejoin="round"/>
  <path d="M -60.93 319.93 L -54.30 318.81 L -49.71 317.67 L -47.90 316.86" fill="none" stroke="rgb(0,0,0)" stroke-width="8.00" stroke-linecap="round" stroke-linejoin="round"/>
  <path d="M -40.94 312.61 L -40.72 312.98 L -41.50 317.94 L -40.78 324.09 L -38.98 330.73 L -37.47 332.08 L -31.76 333.60 L -29.54 333.61 L -28.24 333.26 L -26.14 332.36 L -24.45 330.98 L -22.93 329.10 L -21.84 326.72 L -20.48 316.81 L -20.56 315.19 L -21.21 313.36 L -22.53 312.11 L -25.19 311.63 L -29.76 312.93 L -34.62 315.68 L -36.72 318.17 L -35.67 319.68 L -32.63 321.93 L -29.30 323.05 L -24.03 323.81 L -20.65 323.61 L -15.60 321.94" fill="none" stroke="rgb(0,0,0)" stroke-width="8.00" stroke-linecap="round" stroke-linejoin="round"/>
  <path d="M 58.61 290.81 L 56.81 286.41 L 55.66 285.03 L 54.36 284.43 L 51.86 284.05 L 50.61 284.25 L 48.37 285.23 L 45.38 287.55 L 42.14 291.30 L 39.46 297.15 L 38.32 300.81 L 36.60 309.16 L 36.33 313.51 L 36.44 315.54 L 37.25 319.18 L 39.44 324.50 L 43.20 329.25 L 45.46 330.70 L 48.73 332.01 L 51.59 331.63 L 54.14 330.51 L 57.18 328.45 L 58.73 326.98 L 60.04 324.86" fill="none" stroke="rgb(0,0,0)" stroke-width="8.00" stroke-linecap="round" stroke-linejoin="round"/>
  <path d="M 74.15 299.08 L 68.89 300.40 L 67.13 301.27 L 65.66 302.52 L 64.79 304.32 L 63.64 308.73 L 63.44 311.27 L 63.82 315.53 L 65.37 322.78 L 67.22 327.23 L 69.15 329.80 L 71.06 331.47 L 75.45 333.09 L 77.37 332.87 L 79.89 331.57 L 80.96 330.53 L 83.16 327.10 L 85.43 321.09 L 86.27 318.10 L 86.87 314.00 L 87.71 303.20 L 87.30 300.81 L 86.39 298.86 L 84.20 296.44 L 81.64 294.78 L 77.71 293.46 L 75.31 293.14 L 73.69 293.42 L 72.27 294.62 L 71.28 297.81 L 70.70 301.16 L 70.96 305.17" fill="none" stroke="rgb(0,0,0)" stroke-width="8.00" stroke-linecap="round" stroke-linejoin="round"/>
  <path d="M 101.89 336.34 L 101.85 323.34 L 101.46 315.54 L 101.68 297.42 L 105.36 305.11 L 108.69 311.19 L 111.10 317.40 L 113.13 323.83 L 115.60 327.10 L 117.02 328.21 L 117.94 328.47 L 118.94 326.29 L 119.43 321.38 L 120.25 317.26 L 124.05 304.56 L 125.78 301.61 L 127.47 301.42 L 128.77 302.20 L 130.51 306.43 L 132.47 316.59 L 135.22 325.11 L 136.96 332.08 L 138.06 334.76" fill="none" stroke="rgb(0,0,0)" stroke-width="8.00" stroke-linecap="round" stroke-linejoin="round"/>
  <path d="M 147.13 305.81 L 151.11 324.68 L 151.25 327.94 L 150.88 335.13 L 150.75 331.69 L 148.93 323.90 L 147.81 316.71 L 147.60 310.44 L 147.90 299.81 L 148.55 296.55 L 149.48 294.66 L 150.37 294.14 L 151.69 293.96 L 154.02 294.24 L 158.03 295.83 L 159.43 297.22 L 160.56 298.99 L 161.58 303.52 L 161.55 306.01 L 160.38 309.63 L 157.48 314.38 L 153.51 318.66 L 151.19 319.00 L 149.38 318.91" fill="none" stroke="rgb(0,0,0)" stroke-width="8.00" stroke-linecap="round" stroke-linejoin="round"/>
  <path d="M 175.29 291.71 L 173.79 298.06 L 173.16 303.07 L 173.54 327.03 L 173.96 329.28 L 176.90 333.81 L 179.11 335.05 L 182.05 334.87 L 186.80 332.57 L 188.21 332.25" fill="none" stroke="rgb(0,0,0)" stroke-width="8.00" stroke-linecap="round" stroke-linejoin="round"/>
  <path d="M 193.88 306.03 L 192.96 311.07 L 193.13 319.32 L 195.43 330.78 L 196.47 334.41 L 198.04 336.52 L 200.72 337.61 L 202.01 337.74 L 204.42 337.68 L 205.57 337.28 L 208.58 335.56 L 208.98 334.74" fill="none" stroke="rgb(0,0,0)" stroke-width="8.00" stroke-linecap="round" stroke-linejoin="round"/>
  <path d="M 196.98 328.11 L 206.64 326.30 L 208.99 325.43 L 209.56 324.78" fill="none" stroke="rgb(0,0,0)" stroke-width="8.00" stroke-linecap="round" stroke-linejoin="round"/>
  <path d="M 193.94 307.69 L 200.11 308.80 L 204.42 309.02 L 209.28 308.75 L 210.51 307.89" fill="none" stroke="rgb(0,0,0)" stroke-width="8.00" stroke-linecap="round" stroke-linejoin="round"/>
  <path d="M 231.68 305.26 L 231.33 309.29 L 232.33 315.27 L 243.00 339.02" fill="none" stroke="rgb(0,0,0)" stroke-width="8.00" stroke-linecap="round" stroke-linejoin="round"/>
  <path d="M 215.59 308.20 L 239.18 305.06 L 245.94 304.45 L 248.92 304.40 L 252.19 305.23" fill="none" stroke="rgb(0,0,0)" stroke-width="8.00" stroke-linecap="round" stroke-linejoin="round"/>
  <path d="M 255.95 305.99 L 254.49 309.40 L 253.78 312.20 L 253.39 313.97 L 253.24 317.74 L 253.70 323.81 L 256.04 334.93 L 256.73 336.45 L 257.80 337.58 L 260.32 338.32 L 263.50 338.23 L 267.69 337.48 L 272.67 337.30 L 273.99 336.96" fill="none" stroke="rgb(0,0,0)" stroke-width="8.00" stroke-linecap="round" stroke-linejoin="round"/>
  <path d="M 252.86 325.06 L 260.51 324.57 L 269.16 323.49 L 273.21 322.04 L 273.28 320.91" fill="none" stroke="rgb(0,0,0)" stroke-width="8.00" stroke-linecap="round" stroke-linejoin="round"/>
  <path d="M 251.11 307.72 L 257.26 307.29 L 260.59 307.51 L 269.37 308.42 L 275.60 309.56" fill="none" stroke="rgb(0,0,0)" stroke-width="8.00" stroke-linecap="round" stroke-linejoin="round"/>
  <path d="M 283.35 304.21 L 285.51 319.09 L 285.57 324.24 L 285.15 332.12 L 286.40 345.62 L 287.81 346.59 L 290.70 346.85 L 299.17 343.68 L 299.82 343.27 L 299.97 342.50" fill="none" stroke="rgb(0,0,0)" stroke-width="8.00" stroke-linecap="round" stroke-linejoin="round"/>
  <path d="M 309.04 347.25 L 311.57 341.50 L 317.74 324.23 L 321.30 317.65 L 324.62 310.28 L 326.95 306.05" fill="none" stroke="rgb(0,0,0)" stroke-width="8.00" stroke-linecap="round" stroke-linejoin="round"/>
  <path d="M 312.99 315.05 L 323.70 320.10" fill="none" stroke="rgb(0,0,0)" stroke-width="8.00" stroke-linecap="round" stroke-linejoin="round"/>
  <path d="M 367.73 338.79 L 368.49 325.77 L 367.80 320.67 L 367.67 325.37 L 369.55 337.08 L 370.40 339.24 L 371.79 341.45 L 375.93 343.20 L 379.51 342.82 L 381.20 341.83 L 382.61 338.56 L 383.87 332.98 L 383.60 327.37 L 382.18 323.97 L 380.74 321.98 L 380.03 321.63 L 379.20 322.79 L 378.99 325.52 L 382.33 333.40 L 384.75 338.00 L 387.04 341.25 L 388.58 342.36 L 390.17 342.83 L 391.48 342.38 L 392.56 341.55 L 393.56 339.97 L 394.74 335.43 L 395.88 326.24 L 396.70 323.15 L 397.42 321.97 L 399.09 321.74 L 400.02 322.03 L 401.39 323.10 L 403.05 325.14 L 405.91 331.02 L 407.46 336.17 L 407.34 338.04 L 406.84 335.86 L 407.06 330.57 L 407.66 328.09 L 408.83 325.21 L 410.09 323.27 L 412.83 320.93 L 415.71 320.31 L 417.15 320.33 L 419.12 320.73 L 420.89 321.77 L 421.98 323.37 L 422.81 325.58 L 423.78 329.38 L 424.04 331.68 L 423.92 337.69 L 423.24 339.86 L 423.41 340.54" fill="none" stroke="rgb(0,0,0)" stroke-width="8.00" stroke-linecap="round" stroke-linejoin="round"/>
  <path d="M 443.49 330.45 L 440.69 324.38 L 438.82 321.51 L 436.84 320.18 L 433.91 319.65 L 433.00 319.90 L 430.40 321.54 L 428.50 323.88 L 427.42 326.33 L 426.97 328.47 L 427.08 331.79 L 428.41 336.53 L 429.53 338.55 L 430.85 339.79 L 432.01 340.33 L 436.34 340.41 L 437.24 339.98 L 438.24 338.60 L 439.27 335.08 L 440.30 328.94 L 441.20 318.89 L 440.78 312.28 L 439.72 304.79 L 439.15 301.57 L 438.45 300.49 L 437.82 300.62 L 436.27 303.92 L 435.83 308.76 L 436.25 312.98 L 442.00 335.69 L 444.16 341.20 L 446.15 343.91 L 449.86 346.50 L 451.93 346.45 L 454.35 345.23 L 456.00 343.75 L 457.52 342.11 L 459.28 339.37 L 459.93 336.46 L 459.11 333.89 L 457.35 332.03 L 455.85 331.00 L 453.22 329.92 L 451.72 329.94 L 450.70 330.49 L 449.39 332.50 L 449.04 335.63 L 450.45 340.74 L 452.04 342.90 L 454.42 344.85 L 461.20 346.61 L 462.34 346.71 L 463.50 346.34 L 464.66 345.16 L 465.17 343.91 L 465.81 341.85 L 466.28 337.14 L 467.27 334.29 L 470.44 330.21 L 472.57 328.48 L 474.44 327.73 L 475.43 328.43 L 476.45 331.12 L 477.45 338.90 L 479.05 346.10 L 479.81 346.18 L 481.37 344.75" fill="none" stroke="rgb(0,0,0)" stroke-width="8.00" stroke-linecap="round" stroke-linejoin="round"/>
  <path d="M 498.10 318.34 L 493.09 321.95 L 487.84 327.74 L 485.13 329.49 L 486.26 331.52 L 489.50 334.92 L 496.80 339.58 L 498.94 341.90 L 499.36 343.98 L 499.19 347.66 L 497.70 355.55 L 496.99 357.59 L 495.91 359.41 L 495.64 357.55 L 495.91 354.94" fill="none" stroke="rgb(0,0,0)" stroke-width="8.00" stroke-linecap="round" stroke-linejoin="round"/>
  <path d="M 505.34 304.30 L 506.19 299.49 L 507.10 296.29 L 507.32 295.87 L 507.68 297.04 L 508.25 302.19 L 508.67 313.49 L 509.37 321.10 L 512.65 340.27 L 513.50 346.07 L 513.79 350.53" fill="none" stroke="rgb(0,0,0)" stroke-width="8.00" stroke-linecap="round" stroke-linejoin="round"/>
  <path d="M 501.88 335.46 L 509.57 335.32 L 514.32 335.59 L 517.85 336.42 L 519.42 336.06" fill="none" stroke="rgb(0,0,0)" stroke-width="8.00" stroke-linecap="round" stroke-linejoin="round"/>
  <path d="M 526.28 332.73 L 522.11 332.35 L 520.01 332.70 L 517.89 334.02 L 516.51 335.73 L 515.69 338.23 L 515.38 345.34 L 516.10 348.81 L 517.16 350.11 L 519.64 350.62 L 521.44 350.26 L 523.56 349.04 L 524.71 347.80 L 526.13 345.34 L 527.32 341.95 L 528.54 336.57 L 528.56 333.80 L 530.43 336.92 L 533.63 347.73 L 536.17 340.29 L 537.71 337.92 L 540.18 335.78 L 543.74 334.46 L 545.44 334.44 L 546.50 334.91 L 547.76 336.23 L 548.72 339.11 L 549.87 344.31 L 549.75 348.14 L 552.30 338.84 L 554.10 335.13 L 556.83 331.86 L 558.78 331.58 L 560.14 332.76 L 561.84 335.18 L 563.63 340.21 L 563.47 343.27 L 561.92 345.94" fill="none" stroke="rgb(0,0,0)" stroke-width="8.00" stroke-linecap="round" stroke-linejoin="round"/>
  <path d="M 579.07 332.12 L 577.02 329.05 L 575.54 327.80 L 574.00 327.26 L 571.89 327.57 L 565.97 330.38 L 564.16 331.70 L 561.60 334.77 L 560.62 337.39 L 560.26 339.34 L 560.26 343.28 L 560.62 346.28 L 561.71 349.80 L 563.14 351.36 L 564.08 351.58 L 565.86 351.05 L 568.65 349.33 L 571.11 346.89 L 572.76 342.36 L 574.12 335.95 L 576.39 316.65 L 577.51 310.08 L 581.27 293.22 L 581.85 291.96 L 582.09 295.05 L 581.11 304.00 L 580.57 313.07 L 581.25 320.50 L 582.28 325.22 L 588.46 344.42 L 590.71 349.08 L 590.45 346.64" fill="none" stroke="rgb(0,0,0)" stroke-width="8.00" stroke-linecap="round" stroke-linejoin="round"/>
  <path d="M -468.10 392.98 L -468.21 405.30 L -467.90 410.19 L -465.94 420.98 L -464.33 425.39 L -462.39 429.37 L -460.58 432.29 L -458.25 434.21 L -454.72 435.36 L -453.50 435.19 L -451.19 433.76 L -448.00 430.43 L -444.08 424.31 L -442.05 418.95 L -440.72 408.51 L -440.69 406.05 L -440.78 404.06 L -442.68 397.21 L -442.90 394.63" fill="none" stroke="rgb(0,0,0)" stroke-width="8.00" stroke-linecap="round" stroke-linejoin="round"/>
  <path d="M -414.97 395.64 L -417.05 395.34 L -419.78 395.99 L -422.50 398.35 L -424.70 402.07 L -425.64 404.86 L -428.44 417.29 L -428.42 421.12 L -427.29 424.97 L -425.44 428.02 L -421.89 431.40 L -417.02 433.33 L -414.11 433.70 L -411.38 433.26 L -406.72 430.63 L -405.12 426.12 L -405.02 424.46" fill="none" stroke="rgb(0,0,0)" stroke-width="8.00" stroke-linecap="round" stroke-linejoin="round"/>
  <path d="M -349.54 433.40 L -349.27 430.56 L -346.99 421.44 L -347.04 419.05 L -347.60 416.72 L -348.42 418.73 L -348.67 421.98 L -348.35 426.19 L -347.47 429.78 L -345.91 433.17 L -341.11 437.31" fill="none" stroke="rgb(0,0,0)" stroke-width="8.00" stroke-linecap="round" stroke-linejoin="round"/>
  <path d="M -349.73 400.19 L -349.70 400.33" fill="none" stroke="rgb(0,0,0)" stroke-width="8.00" stroke-linecap="round" stroke-linejoin="round"/>
  <path d="M -330.84 438.22 L -330.80 433.96 L -330.30 431.24 L -328.93 426.59 L -327.65 424.83 L -321.59 423.55 L -320.06 424.19 L -318.39 426.07 L -317.66 427.95 L -316.14 436.46 L -316.12 439.06 L -316.92 440.36 L -317.56 438.80 L -317.43 434.85 L -315.93 429.91 L -314.04 426.60 L -313.37 425.74 L -310.44 423.78 L -308.68 423.04 L -305.61 422.54 L -303.91 423.13 L -302.72 424.07 L -301.18 426.12 L -300.17 428.19 L -297.73 439.44 L -297.83 442.66" fill="none" stroke="rgb(0,0,0)" stroke-width="8.00" stroke-linecap="round" stroke-linejoin="round"/>
  <path d="M -223.36 379.59 L -225.38 374.59 L -226.30 380.69 L -226.56 388.91 L -226.39 418.71 L -225.76 423.36 L -223.75 431.76 L -222.42 436.32 L -220.98 439.82 L -218.45 441.72 L -212.87 441.75 L -211.47 441.42 L -206.90 439.59 L -206.41 438.94 L -206.45 438.26" fill="none" stroke="rgb(0,0,0)" stroke-width="8.00" stroke-linecap="round" stroke-linejoin="round"/>
  <path d="M -234.42 421.79 L -230.25 422.53 L -224.80 422.69 L -217.61 421.63" fill="none" stroke="rgb(0,0,0)" stroke-width="8.00" stroke-linecap="round" stroke-linejoin="round"/>
  <path d="M -203.01 380.59 L -202.76 384.43 L -199.79 402.53 L -195.21 435.89 L -194.84 439.83 L -195.13 442.73 L -195.49 441.93 L -195.66 439.73 L -195.47 434.10 L -195.11 432.27 L -192.89 423.90 L -192.12 422.51 L -190.15 420.65 L -186.11 419.40 L -184.54 419.28 L -181.27 421.14 L -179.80 422.72 L -178.75 424.67 L -176.91 430.52 L -176.82 433.90" fill="none" stroke="rgb(0,0,0)" stroke-width="8.00" stroke-linecap="round" stroke-linejoin="round"/>
  <path d="M -167.36 425.52 L -162.44 428.83 L -160.77 429.09 L -159.62 428.68 L -158.06 426.67 L -155.67 419.57 L -155.55 417.52 L -156.36 416.21 L -158.50 416.07 L -159.62 416.51 L -160.64 417.40 L -163.01 420.30 L -165.95 425.86 L -166.42 427.52 L -166.38 429.77 L -164.67 434.20 L -162.50 438.14 L -160.55 440.53 L -158.63 441.77 L -156.32 442.68 L -152.82 441.32 L -150.51 439.40 L -148.87 435.29 L -148.91 432.80" fill="none" stroke="rgb(0,0,0)" stroke-width="8.00" stroke-linecap="round" stroke-linejoin="round"/>
  <path d="M -82.86 377.78 L -81.54 384.14 L -77.33 396.18 L -76.02 400.89 L -70.87 428.20 L -69.05 442.78 L -68.09 447.45 L -68.18 447.90 L -71.32 443.58 L -73.12 439.20 L -73.74 435.40 L -73.48 429.06 L -71.64 421.03 L -69.91 417.88 L -68.63 416.54 L -64.10 413.67 L -61.08 412.92 L -59.90 412.91 L -57.50 413.51 L -54.12 415.56 L -52.21 418.11 L -50.09 421.94 L -48.76 426.66 L -47.53 436.42 L -47.64 439.00 L -49.22 441.33 L -49.25 442.46" fill="none" stroke="rgb(0,0,0)" stroke-width="8.00" stroke-linecap="round" stroke-linejoin="round"/>
  <path d="M -37.64 432.64 L -35.65 432.31 L -31.40 430.33 L -26.83 425.12 L -24.95 421.77 L -24.60 420.58 L -23.68 415.40 L -23.68 414.24 L -24.33 413.01 L -26.53 412.68 L -28.16 413.37 L -30.85 416.13 L -34.34 420.86 L -36.07 424.38 L -37.03 427.15 L -37.44 429.30 L -37.27 432.23 L -35.81 435.54 L -34.35 437.38 L -33.04 438.42 L -29.28 440.46 L -27.50 440.97 L -25.01 440.76 L -20.74 438.67" fill="none" stroke="rgb(0,0,0)" stroke-width="8.00" stroke-linecap="round" stroke-linejoin="round"/>
  <path d="M -4.63 416.60 L -6.52 410.47 L -4.54 418.61 L -1.39 436.22 L -0.56 439.03 L 0.31 440.18 L -0.52 437.11 L -0.72 434.88 L -0.52 430.19 L 0.10 428.06 L 1.66 425.89 L 3.94 424.00 L 6.06 422.85 L 10.74 421.10 L 11.60 421.27" fill="none" stroke="rgb(0,0,0)" stroke-width="8.00" stroke-linecap="round" stroke-linejoin="round"/>
  <path d="M 30.09 414.44 L 27.13 416.60 L 24.95 418.72 L 23.21 421.65 L 21.83 425.62 L 22.38 430.49 L 23.36 434.37 L 25.34 438.92 L 26.87 440.23 L 28.41 440.92 L 30.53 440.82 L 33.42 438.98 L 35.50 436.71 L 36.73 434.70 L 37.09 433.52 L 38.69 423.45 L 38.60 420.33 L 38.07 418.84 L 36.60 415.58 L 33.50 411.21 L 32.27 410.12 L 30.56 409.56 L 29.73 409.76 L 28.35 410.82 L 23.89 415.91 L 23.14 418.03 L 23.33 419.86 L 24.25 421.97 L 27.49 425.54 L 32.10 428.44 L 34.62 429.09 L 36.74 428.85 L 39.72 427.55 L 42.23 426.05 L 43.32 424.97" fill="none" stroke="rgb(0,0,0)" stroke-width="8.00" stroke-linecap="round" stroke-linejoin="round"/>
  <path d="M 69.71 457.81 L 68.51 454.68 L 66.98 447.88" fill="none" stroke="rgb(0,0,0)" stroke-width="8.00" stroke-linecap="round" stroke-linejoin="round"/>
  <path d="M 68.57 450.35 L 68.52 450.87 L 64.65 455.90 L 66.59 453.14 L 66.81 452.08 L 66.37 454.55 L 66.43 456.91 L 67.70 457.01 L 67.93 456.56 L 68.14 459.30 L 69.57 455.39 L 69.43 451.32 L 68.66 450.60 L 66.51 451.67 L 65.60 453.44 L 65.68 454.37" fill="none" stroke="rgb(0,0,0)" stroke-width="8.00" stroke-linecap="round" stroke-linejoin="round"/>
  <path d="M -446.65 545.68 L -447.46 545.63 L -445.53 546.80 L -438.24 549.31 L -432.37 550.27 L -422.32 550.58 L -416.12 551.31 L -408.45 553.13 L -390.36 558.48 L -388.48 558.39 L -386.38 557.85 L -386.04 557.47 L -386.44 556.96" fill="none" stroke="rgb(0,0,0)" stroke-width="8.00" stroke-linecap="round" stroke-linejoin="round"/>
  <path d="M -391.80 549.92 L -382.61 555.87 L -377.41 560.39 L -377.09 561.05 L -376.66 563.06 L -378.05 564.76 L -381.26 566.01 L -382.73 566.23 L -387.95 566.08 L -387.34 565.78" fill="none" stroke="rgb(0,0,0)" stroke-width="8.00" stroke-linecap="round" stroke-linejoin="round"/>
  <path d="M -314.02 527.35 L -313.61 524.50 L -313.76 521.36 L -315.79 517.81 L -318.42 516.62 L -319.75 516.57 L -325.36 518.68 L -332.62 522.17 L -335.45 524.18 L -336.94 525.83 L -338.56 528.32 L -339.63 531.56 L -340.53 535.35 L -340.92 539.67 L -340.44 547.77 L -338.54 556.50 L -337.61 558.88 L -336.33 560.86 L -332.07 565.50 L -325.90 568.34 L -322.87 568.13 L -317.33 565.90 L -315.81 564.85 L -314.19 559.95" fill="none" stroke="rgb(0,0,0)" stroke-width="8.00" stroke-linecap="round" stroke-linejoin="round"/>
  <path d="M -302.10 548.19 L -305.16 547.96 L -308.14 549.13 L -309.21 550.34 L -309.67 552.68 L -308.99 561.29 L -307.53 565.79 L -306.14 567.99 L -301.00 572.22 L -298.97 573.18 L -297.58 573.09 L -293.23 570.32 L -292.23 568.64 L -288.49 557.26 L -288.46 555.21 L -288.97 553.55 L -291.84 548.62 L -293.16 547.61 L -296.28 546.65 L -298.32 546.70 L -300.91 548.08 L -305.68 551.92 L -306.65 553.78 L -306.02 556.93 L -305.07 558.62 L -302.47 561.67 L -298.92 565.11 L -295.87 566.35 L -285.88 566.02 L -280.16 563.39 L -275.71 554.41 L -273.57 547.56 L -272.04 540.30 L -272.42 530.68 L -273.03 527.93 L -274.85 523.78 L -277.83 519.67 L -279.06 519.76 L -279.57 520.89 L -280.01 522.52 L -279.98 525.03 L -279.77 527.54 L -278.25 534.16 L -277.03 543.86 L -275.27 553.97 L -270.93 565.19 L -268.99 568.90 L -268.29 569.60 L -266.79 570.23 L -264.26 569.78 L -259.72 567.01 L -256.29 563.84 L -253.19 555.85 L -251.57 549.31 L -249.39 538.05 L -249.62 530.00 L -250.31 527.34 L -251.19 525.43 L -252.51 523.62 L -254.32 522.21 L -256.30 521.68 L -257.27 521.78 L -258.95 525.63 L -259.17 527.36 L -258.86 534.13 L -255.34 556.59 L -254.43 559.57 L -252.38 563.45 L -248.74 567.43 L -247.45 569.77 L -246.21 570.23" fill="none" stroke="rgb(0,0,0)" stroke-width="8.00" stroke-linecap="round" stroke-linejoin="round"/>
  <path d="M -226.41 552.68 L -227.31 550.38 L -228.90 548.05 L -230.28 546.68 L -231.59 546.15 L -233.56 545.88 L -235.42 546.92 L -237.88 550.32 L -239.33 553.30 L -240.01 555.77 L -240.48 558.58 L -240.43 561.01 L -239.94 564.27 L -239.16 566.01 L -237.07 569.18 L -236.02 569.97 L -234.40 569.84 L -233.08 568.96 L -231.97 567.73 L -230.91 565.23 L -229.25 562.59 L -228.41 559.84 L -226.97 550.60 L -227.24 545.00 L -227.23 547.46 L -226.49 550.87 L -223.52 560.17 L -221.61 563.33 L -220.47 564.14 L -219.73 564.18" fill="none" stroke="rgb(0,0,0)" stroke-width="8.00" stroke-linecap="round" stroke-linejoin="round"/>
  <path d="M -210.82 548.85 L -217.47 528.79 L -219.73 519.72 L -215.74 527.71 L -213.25 534.60 L -208.96 551.34 L -206.65 563.73 L -204.91 566.66 L -205.17 561.49 L -204.77 557.69 L -202.53 548.08 L -201.62 546.25 L -200.73 545.56 L -199.59 545.29 L -197.17 545.03 L -193.62 545.25 L -190.29 546.21 L -188.85 547.09 L -188.07 547.98 L -186.73 550.09 L -185.79 554.20 L -186.35 557.04 L -187.82 559.93 L -191.68 564.50 L -197.06 567.37 L -198.47 567.33 L -200.49 565.67 L -200.15 564.72 L -199.25 564.00" fill="none" stroke="rgb(0,0,0)" stroke-width="8.00" stroke-linecap="round" stroke-linejoin="round"/>
  <path d="M -175.02 540.28 L -178.85 543.63 L -180.89 546.36 L -182.04 548.40 L -182.30 551.16 L -181.67 553.87 L -180.03 557.67 L -177.79 561.29 L -175.81 563.18 L -170.23 566.44 L -169.06 566.57 L -166.59 565.02 L -164.76 563.07 L -163.62 561.26 L -162.23 557.56 L -160.97 550.11 L -160.92 547.93 L -161.19 546.39 L -162.52 542.80 L -164.38 540.70 L -165.68 539.65 L -166.90 539.15 L -169.38 538.64 L -171.19 538.65 L -173.46 539.58 L -175.24 541.45 L -176.76 544.49 L -177.35 546.81 L -176.89 551.48 L -175.38 553.32 L -173.94 554.36 L -171.03 555.27 L -164.30 554.86 L -159.46 552.71 L -154.55 549.22 L -148.21 546.67 L -147.41 549.86 L -147.45 556.83 L -146.94 558.21 L -145.47 560.02 L -144.56 560.46 L -140.52 559.57" fill="none" stroke="rgb(0,0,0)" stroke-width="8.00" stroke-linecap="round" stroke-linejoin="round"/>
  <path d="M -118.56 542.00 L -122.68 542.73 L -127.02 543.98 L -130.72 546.30 L -132.56 548.48 L -134.45 552.77 L -134.85 555.34 L -134.30 557.98 L -132.00 560.71 L -130.63 561.34 L -128.02 561.13 L -125.42 559.73 L -123.97 557.63 L -121.27 547.49 L -119.67 550.60 L -118.43 553.93 L -117.46 555.49 L -113.28 558.67 L -110.13 559.30 L -108.59 559.22" fill="none" stroke="rgb(0,0,0)" stroke-width="8.00" stroke-linecap="round" stroke-linejoin="round"/>
  <path d="M -101.31 508.37 L -99.67 517.37 L -94.34 537.82 L -91.27 556.29 L -90.26 558.49 L -89.06 559.58 L -89.35 558.54" fill="none" stroke="rgb(0,0,0)" stroke-width="8.00" stroke-linecap="round" stroke-linejoin="round"/>
  <path d="M -103.37 542.49 L -100.54 542.89 L -96.10 542.75 L -93.03 541.95 L -89.53 539.89 L -88.59 539.79" fill="none" stroke="rgb(0,0,0)" stroke-width="8.00" stroke-linecap="round" stroke-linejoin="round"/>
  <path d="M -78.67 561.99 L -76.03 561.85 L -73.01 560.93 L -71.06 559.94 L -70.26 558.87 L -68.67 550.48 L -68.55 546.36 L -69.74 542.85 L -70.34 542.01 L -71.28 541.71 L -73.33 541.57 L -74.59 542.11 L -76.36 543.97 L -77.83 546.92 L -78.24 549.12 L -77.78 553.41 L -75.89 558.66 L -74.23 560.55 L -69.08 564.01 L -65.80 564.87 L -63.08 564.58 L -62.08 563.84" fill="none" stroke="rgb(0,0,0)" stroke-width="8.00" stroke-linecap="round" stroke-linejoin="round"/>
  <path d="M 1.28 541.07 L 0.60 545.05 L 0.88 548.49 L 2.04 552.22 L 4.47 555.42 L 8.12 557.72 L 10.61 558.84 L 13.78 558.36 L 15.53 557.39 L 16.37 556.54 L 17.08 555.08 L 19.34 548.33 L 19.16 544.34 L 19.39 548.24 L 22.29 556.22 L 24.96 560.63 L 27.43 563.33 L 28.36 563.70 L 29.59 563.55 L 30.90 562.83 L 33.84 559.57 L 35.78 553.45 L 36.91 551.10 L 36.71 550.06" fill="none" stroke="rgb(0,0,0)" stroke-width="8.00" stroke-linecap="round" stroke-linejoin="round"/>
  <path d="M 51.45 555.46 L 54.86 562.99 L 55.98 564.78" fill="none" stroke="rgb(0,0,0)" stroke-width="8.00" stroke-linecap="round" stroke-linejoin="round"/>
  <path d="M 47.50 537.34 L 47.51 537.35" fill="none" stroke="rgb(0,0,0)" stroke-width="8.00" stroke-linecap="round" stroke-linejoin="round"/>
  <path d="M 66.61 519.82 L 66.26 526.26 L 68.46 537.90 L 70.28 550.13 L 73.96 567.68 L 74.93 568.66 L 75.63 565.65 L 75.61 564.35" fill="none" stroke="rgb(0,0,0)" stroke-width="8.00" stroke-linecap="round" stroke-linejoin="round"/>
  <path d="M 65.97 552.31 L 77.73 552.30 L 82.83 550.85" fill="none" stroke="rgb(0,0,0)" stroke-width="8.00" stroke-linecap="round" stroke-linejoin="round"/>
  <path d="M 85.33 526.79 L 86.32 532.04 L 89.12 540.31 L 92.95 557.46 L 94.09 560.97 L 93.98 567.02 L 92.83 563.98 L 92.83 562.42 L 95.98 555.94 L 97.58 554.57 L 102.17 553.36 L 103.60 553.78 L 105.32 554.85 L 107.83 557.30 L 109.06 558.99 L 110.67 565.87 L 110.43 569.07 L 109.36 569.11" fill="none" stroke="rgb(0,0,0)" stroke-width="8.00" stroke-linecap="round" stroke-linejoin="round"/>
  <path d="M 163.25 572.45 L 166.16 566.10 L 167.86 561.19 L 170.86 548.76 L 172.62 538.85 L 173.25 536.88 L 174.98 534.07 L 175.68 529.90 L 176.07 529.30 L 180.02 537.80 L 182.60 549.53 L 186.94 561.70 L 188.91 570.71 L 190.02 572.45 L 190.30 572.59 L 190.21 572.20" fill="none" stroke="rgb(0,0,0)" stroke-width="8.00" stroke-linecap="round" stroke-linejoin="round"/>
  <path d="M 160.50 566.04 L 171.14 564.24 L 183.64 563.14 L 188.12 562.37 L 194.62 561.98" fill="none" stroke="rgb(0,0,0)" stroke-width="8.00" stroke-linecap="round" stroke-linejoin="round"/>
  <path d="M 206.05 532.54 L 208.55 544.26 L 211.46 563.56 L 212.58 568.46 L 213.63 570.77 L 213.74 571.54 L 213.38 571.14" fill="none" stroke="rgb(0,0,0)" stroke-width="8.00" stroke-linecap="round" stroke-linejoin="round"/>
  <path d="M -443.19 755.14 L -446.85 754.67 L -451.51 754.64 L -445.87 756.46 L -439.99 757.85 L -416.25 761.97 L -388.21 768.08 L -381.75 769.07 L -372.64 770.04 L -373.49 769.73" fill="none" stroke="rgb(0,0,0)" stroke-width="8.00" stroke-linecap="round" stroke-linejoin="round"/>
  <path d="M -383.17 756.34 L -377.18 760.23 L -370.51 765.11 L -368.65 767.19 L -367.68 769.64 L -367.47 771.66 L -368.77 774.01 L -371.52 776.49 L -373.29 777.35 L -377.29 776.80 L -380.64 775.26 L -380.86 774.77 L -379.83 773.64" fill="none" stroke="rgb(0,0,0)" stroke-width="8.00" stroke-linecap="round" stroke-linejoin="round"/>
  <path d="M -345.80 749.18 L -343.36 755.38 L -340.86 763.50 L -339.40 770.76 L -336.43 790.31 L -335.14 796.67 L -334.15 798.95 L -336.93 793.45 L -339.72 786.61 L -346.14 753.19 L -346.02 749.33 L -344.72 745.53 L -342.47 742.67 L -338.84 739.74 L -335.31 738.43 L -330.02 737.88 L -326.62 738.38 L -323.95 739.82 L -321.62 742.35 L -320.75 744.11 L -320.04 748.67 L -320.17 752.21 L -320.91 755.65 L -324.93 768.48 L -327.41 773.51 L -329.90 776.76 L -333.67 779.42 L -335.80 780.29 L -339.25 781.13 L -340.89 781.35 L -343.62 781.05 L -345.40 779.89 L -345.29 778.75 L -343.89 776.97 L -340.49 774.21 L -337.46 772.49 L -333.12 771.29 L -324.48 770.90 L -319.55 772.05 L -315.49 774.41 L -311.59 777.95 L -309.43 781.47 L -308.09 784.31 L -307.04 790.28 L -308.00 794.24 L -310.16 798.93 L -311.17 800.27 L -312.74 801.52 L -315.78 802.75 L -317.60 803.00 L -319.45 802.87 L -324.35 801.68 L -333.15 798.46 L -332.77 797.96 L -330.80 796.99" fill="none" stroke="rgb(0,0,0)" stroke-width="8.00" stroke-linecap="round" stroke-linejoin="round"/>
  <path d="M -299.67 796.98 L -295.30 790.80 L -294.68 789.43 L -293.15 783.72 L -293.29 779.89 L -294.87 781.29 L -295.64 782.50 L -295.88 784.18 L -295.63 785.99 L -291.79 794.96 L -290.57 796.65 L -288.04 798.62 L -287.03 798.92 L -285.94 798.51 L -283.41 796.74 L -282.12 794.68 L -279.85 787.44 L -280.07 780.80 L -280.52 783.60 L -280.01 785.21 L -274.87 794.10 L -273.37 795.83 L -271.11 796.48 L -268.72 796.45 L -266.54 795.50 L -265.33 793.30 L -263.88 786.38 L -263.92 787.01 L -259.94 791.44 L -254.96 798.44 L -253.40 798.33 L -252.31 797.54" fill="none" stroke="rgb(0,0,0)" stroke-width="8.00" stroke-linecap="round" stroke-linejoin="round"/>
  <path d="M -259.89 772.41 L -259.81 772.63" fill="none" stroke="rgb(0,0,0)" stroke-width="8.00" stroke-linecap="round" stroke-linejoin="round"/>
  <path d="M -247.32 796.45 L -243.30 790.88 L -240.40 785.27 L -238.79 779.90 L -237.19 771.77 L -235.90 757.98 L -235.94 752.17 L -236.58 749.97 L -238.12 747.75 L -241.04 746.79 L -243.06 747.53 L -245.03 749.22 L -246.45 751.99 L -247.02 754.54 L -246.70 763.43 L -244.56 779.71 L -243.05 784.70 L -240.37 789.45 L -238.60 791.23 L -233.07 794.55" fill="none" stroke="rgb(0,0,0)" stroke-width="8.00" stroke-linecap="round" stroke-linejoin="round"/>
  <path d="M -211.50 784.65 L -214.78 781.16 L -216.52 780.26 L -217.83 780.36 L -219.62 781.26 L -220.94 782.41 L -225.04 788.70 L -225.47 790.88 L -225.20 794.45 L -222.21 805.34 L -221.19 806.34 L -219.50 805.72 L -218.30 804.74 L -216.55 802.47 L -213.99 796.06 L -212.92 789.90 L -211.56 776.58 L -211.47 766.75 L -212.07 760.18 L -213.29 752.86 L -214.03 750.69 L -215.16 748.95 L -214.10 761.83 L -211.44 775.20 L -209.51 781.12 L -204.55 791.29 L -202.12 797.97" fill="none" stroke="rgb(0,0,0)" stroke-width="8.00" stroke-linecap="round" stroke-linejoin="round"/>
  <path d="M -143.98 797.94 L -144.40 788.72 L -145.59 782.20 L -145.89 777.65 L -145.47 781.57 L -143.61 787.17 L -135.51 802.09 L -135.01 803.52 L -134.63 803.65 L -134.57 800.22 L -135.27 795.81" fill="none" stroke="rgb(0,0,0)" stroke-width="8.00" stroke-linecap="round" stroke-linejoin="round"/>
  <path d="M -148.75 759.75 L -148.58 760.56" fill="none" stroke="rgb(0,0,0)" stroke-width="8.00" stroke-linecap="round" stroke-linejoin="round"/>
  <path d="M -129.59 798.44 L -129.17 794.23 L -129.12 785.02 L -127.62 781.56 L -126.41 780.16 L -124.57 779.93 L -122.99 780.72 L -120.14 784.03 L -118.44 789.94 L -116.03 795.59 L -116.01 796.27 L -116.52 796.82 L -118.04 795.71 L -119.08 794.18 L -119.32 793.03 L -119.13 791.05 L -113.82 781.64 L -112.40 779.83 L -110.77 778.78 L -108.82 778.28 L -107.98 778.36 L -106.55 779.30 L -105.62 780.62 L -100.97 797.07 L -99.91 799.25 L -100.17 791.74" fill="none" stroke="rgb(0,0,0)" stroke-width="8.00" stroke-linecap="round" stroke-linejoin="round"/>
  <path d="M -98.10 745.01 L -97.16 751.34 L -95.26 759.41 L -92.41 768.17 L -86.94 782.83 L -81.87 792.47 L -80.42 795.84 L -80.33 798.11" fill="none" stroke="rgb(0,0,0)" stroke-width="8.00" stroke-linecap="round" stroke-linejoin="round"/>
  <path d="M -99.34 787.99 L -85.52 785.72 L -79.16 784.03 L -77.14 783.11" fill="none" stroke="rgb(0,0,0)" stroke-width="8.00" stroke-linecap="round" stroke-linejoin="round"/>
  <path d="M -75.07 800.45 L -70.01 799.18 L -68.06 798.32 L -65.77 796.28 L -63.13 792.55 L -62.04 789.91 L -61.03 783.68 L -60.95 781.46 L -61.37 780.05 L -62.04 779.07 L -64.11 779.05 L -65.19 779.55 L -67.08 781.39 L -67.89 783.39 L -67.41 786.62 L -65.36 791.37 L -64.26 792.92 L -62.74 794.23 L -59.22 796.15 L -56.04 797.04 L -54.31 796.96 L -51.37 795.69 L -47.55 792.49 L -45.64 790.11 L -41.21 781.28 L -39.57 776.91 L -38.95 773.21 L -38.00 763.67 L -37.95 759.70 L -38.26 756.82 L -39.33 751.85 L -41.53 747.20 L -44.97 743.32 L -47.06 742.60 L -48.12 742.99 L -48.59 743.57 L -49.25 745.40 L -49.37 746.83 L -48.74 755.86 L -46.30 770.12 L -43.50 780.43 L -42.25 783.50 L -37.65 791.72 L -34.80 795.43 L -32.78 796.70 L -31.62 796.91 L -29.27 796.13 L -26.17 794.23 L -22.68 791.38 L -18.46 786.54 L -15.85 780.90 L -14.23 767.04 L -14.43 760.03 L -15.55 754.59 L -17.19 748.86 L -19.16 745.42 L -21.49 743.04 L -22.15 743.44 L -22.95 744.72 L -23.45 746.82 L -22.86 756.88 L -20.72 768.74 L -19.67 772.68 L -15.51 784.22 L -13.55 788.41 L -9.58 793.35 L -7.88 793.80 L -6.35 793.22 L -3.34 786.39 L -1.37 777.91 L -1.43 776.36 L -0.81 779.53 L 3.34 788.54 L 6.26 793.54 L 7.95 795.32" fill="none" stroke="rgb(0,0,0)" stroke-width="8.00" stroke-linecap="round" stroke-linejoin="round"/>
  <path d="M 0.69 755.02 L 0.71 755.38" fill="none" stroke="rgb(0,0,0)" stroke-width="8.00" stroke-linecap="round" stroke-linejoin="round"/>
  <path d="M 31.51 786.52 L 30.23 783.32 L 28.10 779.84 L 26.84 778.71 L 24.79 778.46 L 20.23 781.41 L 18.09 783.33 L 15.38 786.79 L 13.22 791.56 L 13.11 793.16 L 13.44 794.71 L 14.48 796.78 L 16.22 798.91 L 17.82 800.16 L 20.36 801.43 L 21.28 801.67 L 22.99 801.50 L 24.63 800.41 L 25.72 798.48 L 27.85 785.25 L 29.17 780.06 L 30.42 777.08 L 31.69 777.04 L 33.02 778.44 L 35.66 782.44 L 37.01 785.69 L 37.96 790.11 L 39.22 804.30 L 38.93 809.38 L 37.27 815.16 L 35.83 816.83 L 32.69 818.83 L 31.08 819.38 L 23.90 819.27 L 22.93 818.95" fill="none" stroke="rgb(0,0,0)" stroke-width="8.00" stroke-linecap="round" stroke-linejoin="round"/>
  <path d="M 46.46 797.87 L 51.04 796.55 L 55.74 794.30 L 57.19 792.90 L 58.13 790.74 L 58.41 785.69 L 58.10 783.44 L 55.05 777.88 L 54.19 777.02 L 52.91 776.58 L 52.05 776.73 L 50.91 777.52 L 49.02 779.99 L 47.94 783.90 L 48.11 787.63 L 48.94 790.51 L 50.19 792.77 L 55.97 799.40 L 58.09 801.08 L 62.03 802.95 L 63.23 803.11 L 63.82 802.64 L 65.10 796.20 L 65.17 790.79 L 65.62 787.01 L 66.55 783.36 L 67.72 783.52 L 69.75 784.66 L 72.32 786.46 L 75.22 789.22 L 78.58 794.70 L 80.34 800.05 L 77.87 797.80 L 76.08 794.86 L 75.42 792.16 L 75.93 787.91 L 77.09 785.44 L 79.19 783.35 L 84.61 780.02 L 88.00 778.57 L 89.02 778.93 L 89.85 779.68 L 90.89 781.46 L 91.49 783.26 L 93.75 792.02 L 93.49 799.69 L 93.54 800.11 L 93.85 798.98" fill="none" stroke="rgb(0,0,0)" stroke-width="8.00" stroke-linecap="round" stroke-linejoin="round"/>
  <path d="M 102.63 783.10 L 100.51 787.37 L 100.17 789.54 L 100.68 795.19 L 102.17 797.98 L 102.75 798.47 L 104.27 798.94 L 107.23 798.60 L 112.13 796.78 L 115.11 795.31 L 116.70 793.46 L 120.20 785.65 L 122.16 782.99 L 123.22 782.47 L 123.02 782.80 L 118.40 783.21 L 116.87 784.56 L 115.68 786.26 L 115.03 788.16 L 115.09 789.02 L 115.58 791.68 L 117.21 795.95 L 119.33 798.02 L 124.06 800.26 L 127.60 799.98 L 132.97 798.08" fill="none" stroke="rgb(0,0,0)" stroke-width="8.00" stroke-linecap="round" stroke-linejoin="round"/>
  <path d="M 181.91 736.11 L 184.04 748.16 L 186.56 757.11 L 190.57 777.52 L 193.10 786.73 L 197.42 799.69 L 198.11 800.70 L 197.82 800.54" fill="none" stroke="rgb(0,0,0)" stroke-width="8.00" stroke-linecap="round" stroke-linejoin="round"/>
  <path d="M 172.58 788.43 L 176.04 788.31 L 188.98 786.26 L 192.64 784.55 L 196.85 780.87" fill="none" stroke="rgb(0,0,0)" stroke-width="8.00" stroke-linecap="round" stroke-linejoin="round"/>
  <path d="M 203.41 781.36 L 202.85 789.77 L 203.95 793.99 L 204.37 794.87 L 205.65 796.10 L 210.17 797.96 L 211.56 797.91 L 214.71 796.32 L 216.41 794.88 L 218.28 792.47 L 219.61 790.21 L 220.94 786.23 L 221.49 783.29 L 221.21 781.03 L 219.94 777.91 L 218.29 775.90 L 216.98 775.20 L 213.99 774.64 L 210.02 775.41 L 204.66 778.73 L 202.96 780.92 L 201.95 783.05 L 201.97 783.83 L 202.29 784.72 L 203.50 785.91 L 205.81 787.24 L 210.65 787.90 L 217.11 787.51 L 223.52 785.30" fill="none" stroke="rgb(0,0,0)" stroke-width="8.00" stroke-linecap="round" stroke-linejoin="round"/>
  <path d="M 238.16 786.05 L 236.75 780.90 L 236.05 779.51 L 235.40 779.00 L 232.52 778.80 L 230.19 779.20 L 227.70 780.24 L 222.89 783.06 L 219.27 786.09 L 217.55 789.98 L 217.81 795.31 L 219.13 799.77 L 219.76 801.00 L 221.62 802.68 L 225.03 803.96 L 227.27 803.69 L 229.02 803.03 L 232.42 800.75 L 235.45 796.62 L 236.97 792.70 L 237.99 787.11 L 237.93 781.16 L 239.75 782.57 L 246.83 789.43 L 248.43 791.27 L 250.46 794.48 L 252.53 802.13 L 253.76 809.34 L 254.45 818.01 L 254.16 823.25 L 252.94 827.37 L 250.49 831.39 L 246.75 834.85 L 244.56 836.04 L 242.62 836.49 L 240.02 836.37 L 237.20 835.74 L 232.63 833.52 L 231.27 832.40 L 230.35 831.11 L 229.83 829.71 L 229.96 827.63" fill="none" stroke="rgb(0,0,0)" stroke-width="8.00" stroke-linecap="round" stroke-linejoin="round"/>
  <path d="M 256.96 799.48 L 257.27 799.72 L 258.84 799.62 L 262.20 798.33 L 266.45 795.33 L 269.79 792.33 L 271.44 788.54 L 271.74 784.58 L 270.83 782.78 L 269.75 782.25 L 267.61 781.93 L 264.83 782.99 L 259.47 786.62 L 258.00 788.32 L 256.56 791.55 L 255.91 794.90 L 256.14 798.67 L 257.04 802.38 L 258.61 805.64 L 261.23 808.65 L 262.96 809.55 L 266.02 810.28 L 268.38 810.36 L 272.05 809.63 L 274.36 808.26 L 277.04 805.43" fill="none" stroke="rgb(0,0,0)" stroke-width="8.00" stroke-linecap="round" stroke-linejoin="round"/>
  <path d="M 276.88 749.43 L 284.45 763.14 L 286.54 768.08 L 292.73 789.12 L 293.97 795.94 L 295.12 798.24" fill="none" stroke="rgb(0,0,0)" stroke-width="8.00" stroke-linecap="round" stroke-linejoin="round"/>
  <path d="M 284.74 789.96 L 289.23 790.02 L 299.00 787.91 L 301.18 787.92" fill="none" stroke="rgb(0,0,0)" stroke-width="8.00" stroke-linecap="round" stroke-linejoin="round"/>
  <path d="M 300.90 754.52 L 305.03 762.99 L 308.68 772.23 L 313.56 790.45 L 315.52 793.56 L 315.04 794.26 L 313.81 793.97 L 311.12 791.85 L 310.09 789.60 L 310.18 787.99 L 310.57 786.41 L 312.26 784.36 L 318.12 782.96 L 319.93 782.89 L 323.29 784.18 L 326.98 787.32 L 327.91 788.98 L 329.05 793.77 L 330.18 795.43" fill="none" stroke="rgb(0,0,0)" stroke-width="8.00" stroke-linecap="round" stroke-linejoin="round"/>
  <path d="M 340.23 790.58 L 345.58 787.65 L 349.35 784.60 L 349.68 783.72 L 349.79 781.25 L 349.61 780.02 L 348.99 779.21 L 346.24 778.47 L 345.02 778.45 L 343.30 779.10 L 341.05 780.85 L 338.60 783.83 L 336.75 787.27 L 334.87 791.36 L 334.64 793.58 L 335.15 795.12 L 337.13 798.34 L 338.43 799.42 L 340.65 800.48 L 342.98 800.22 L 349.84 796.80 L 351.38 796.46" fill="none" stroke="rgb(0,0,0)" stroke-width="8.00" stroke-linecap="round" stroke-linejoin="round"/>
  <path d="M 363.80 775.82 L 363.66 780.22 L 365.00 788.63 L 366.48 792.71 L 368.34 795.32 L 366.17 791.53 L 366.00 790.62 L 366.13 789.06 L 367.68 786.98 L 369.31 785.69 L 370.74 785.02 L 382.56 781.45" fill="none" stroke="rgb(0,0,0)" stroke-width="8.00" stroke-linecap="round" stroke-linejoin="round"/>
  <path d="M -441.23 964.59 L -447.44 963.22 L -449.43 962.39 L -450.77 961.44 L -442.85 960.39 L -437.46 960.25 L -430.32 961.01 L -414.36 963.56 L -401.51 964.96 L -380.27 964.84 L -369.39 966.49 L -366.48 966.36" fill="none" stroke="rgb(0,0,0)" stroke-width="8.00" stroke-linecap="round" stroke-linejoin="round"/>
  <path d="M -377.07 962.02 L -365.91 967.83 L -364.24 969.17 L -363.20 970.63 L -363.38 972.54 L -364.64 974.39 L -367.21 975.65 L -371.90 976.95 L -373.11 976.88" fill="none" stroke="rgb(0,0,0)" stroke-width="8.00" stroke-linecap="round" stroke-linejoin="round"/>
  <path d="M -301.15 935.13 L -302.21 934.13 L -305.58 929.35 L -307.38 927.60 L -308.49 926.97 L -313.86 926.43 L -315.71 926.89 L -318.77 928.54 L -324.32 933.23 L -326.18 935.55 L -327.91 938.42 L -329.53 943.15 L -331.03 953.23 L -331.30 958.90 L -330.69 966.78 L -330.08 969.00 L -328.79 971.20 L -325.81 973.57 L -322.66 975.34 L -313.09 979.82 L -310.00 980.76 L -308.99 980.77 L -307.99 980.61 L -306.53 979.48" fill="none" stroke="rgb(0,0,0)" stroke-width="8.00" stroke-linecap="round" stroke-linejoin="round"/>
  <path d="M -296.58 962.02 L -297.65 963.23 L -299.69 966.57 L -301.70 970.74 L -301.52 972.72 L -298.87 980.31 L -297.55 982.62 L -295.98 984.45 L -293.10 986.22 L -291.76 986.39 L -289.97 986.14 L -287.13 984.50 L -285.64 982.34 L -283.53 975.14 L -283.56 973.12 L -285.77 969.69 L -287.44 968.54 L -293.99 965.92 L -295.65 965.98 L -299.36 967.85 L -299.62 968.23 L -299.55 969.67 L -297.97 971.42 L -294.83 972.74 L -293.35 972.90 L -286.25 972.41 L -284.50 971.95 L -279.32 969.65 L -277.39 967.73 L -275.69 965.08 L -274.40 961.64 L -272.32 950.54 L -272.31 947.00 L -273.35 941.18 L -273.94 939.42 L -274.94 938.08 L -277.01 938.08 L -279.23 939.41 L -280.42 941.91 L -281.19 945.49 L -281.55 949.77 L -281.00 958.80 L -280.53 961.95 L -279.21 966.17 L -276.29 971.33 L -274.51 973.63 L -271.72 976.62 L -269.54 978.37 L -268.45 978.86 L -265.31 979.22 L -260.14 978.71 L -258.43 978.18 L -256.92 977.12 L -255.69 975.64 L -249.87 963.86 L -248.49 957.10 L -248.75 950.32 L -250.04 945.16 L -251.63 942.24 L -255.09 939.91 L -257.11 939.50 L -258.20 940.10 L -259.07 942.14 L -260.19 947.14 L -259.91 959.91 L -259.30 964.79 L -258.37 969.00 L -257.33 971.76 L -252.64 979.54 L -251.79 980.64 L -249.93 982.11 L -248.65 982.04 L -247.61 981.44" fill="none" stroke="rgb(0,0,0)" stroke-width="8.00" stroke-linecap="round" stroke-linejoin="round"/>
  <path d="M -228.77 967.96 L -231.78 966.28 L -236.32 964.79 L -238.00 964.77 L -239.77 965.52 L -241.08 967.01 L -241.96 968.64 L -243.42 972.92 L -243.18 976.14 L -241.96 979.12 L -240.76 980.73 L -238.29 982.46 L -236.55 982.60 L -235.32 981.72 L -234.45 980.32 L -230.71 967.62 L -230.80 964.56 L -230.37 967.15 L -228.85 972.32 L -226.49 977.43 L -224.87 979.81 L -224.22 979.96 L -223.26 979.62" fill="none" stroke="rgb(0,0,0)" stroke-width="8.00" stroke-linecap="round" stroke-linejoin="round"/>
  <path d="M -224.21 933.16 L -220.02 949.12 L -217.54 968.56 L -215.90 975.70 L -216.16 978.90 L -217.87 975.57 L -218.38 973.07 L -218.37 970.79 L -216.88 968.28 L -214.74 966.73 L -209.68 965.35 L -208.25 965.22 L -206.59 966.10 L -204.88 968.20 L -203.30 973.42 L -203.21 975.33 L -204.59 979.15 L -206.32 981.25 L -207.03 981.57 L -208.50 981.56 L -209.40 980.73 L -209.58 978.65 L -208.91 977.31" fill="none" stroke="rgb(0,0,0)" stroke-width="8.00" stroke-linecap="round" stroke-linejoin="round"/>
  <path d="M -194.97 964.77 L -198.11 967.95 L -200.11 971.13 L -200.65 973.42 L -200.02 976.46 L -197.58 981.70 L -195.69 983.65 L -193.99 984.76 L -191.70 984.52 L -190.10 983.84 L -188.61 982.82 L -187.27 980.99 L -186.13 977.53 L -184.11 968.14 L -184.15 965.22 L -185.03 962.49 L -185.79 961.24 L -188.07 959.17 L -191.51 958.42 L -192.63 959.04 L -193.64 960.34 L -195.35 964.09 L -195.91 967.87 L -195.08 972.86 L -192.66 972.29 L -188.88 970.75 L -180.81 968.50 L -177.44 966.86 L -172.04 964.84 L -170.69 964.77 L -169.95 964.87 L -169.42 965.33 L -168.39 968.66 L -168.86 977.10 L -168.67 978.75 L -168.07 980.06 L -166.71 980.73 L -164.85 980.48 L -163.80 979.38 L -162.13 976.01" fill="none" stroke="rgb(0,0,0)" stroke-width="8.00" stroke-linecap="round" stroke-linejoin="round"/>
  <path d="M -149.70 967.90 L -153.74 967.05 L -156.78 967.03 L -158.69 967.85 L -160.43 970.01 L -162.14 974.19 L -162.55 976.68 L -162.14 982.17 L -161.49 984.08 L -160.75 985.05 L -160.09 985.65 L -158.97 985.46 L -157.19 984.22 L -155.97 982.88 L -152.23 974.46 L -150.36 968.54 L -149.15 965.73 L -147.20 973.74 L -142.42 982.18 L -141.93 982.46 L -139.33 982.09 L -138.42 979.77" fill="none" stroke="rgb(0,0,0)" stroke-width="8.00" stroke-linecap="round" stroke-linejoin="round"/>
  <path d="M -142.59 926.97 L -141.01 932.93 L -135.43 947.53 L -130.35 967.61 L -126.95 979.85 L -126.31 980.70 L -129.28 975.04 L -132.32 971.37 L -138.62 966.22 L -141.17 965.03 L -143.46 964.48 L -138.86 964.48 L -131.79 965.31 L -129.41 966.36 L -128.29 967.72" fill="none" stroke="rgb(0,0,0)" stroke-width="8.00" stroke-linecap="round" stroke-linejoin="round"/>
  <path d="M -115.60 968.00 L -113.88 972.25 L -111.98 978.36 L -110.97 979.85" fill="none" stroke="rgb(0,0,0)" stroke-width="8.00" stroke-linecap="round" stroke-linejoin="round"/>
  <path d="M -116.67 953.57 L -118.20 948.88" fill="none" stroke="rgb(0,0,0)" stroke-width="8.00" stroke-linecap="round" stroke-linejoin="round"/>
  <path d="M -100.82 968.45 L -103.09 962.57 L -95.21 976.20 L -91.76 983.45 L -91.29 981.62 L -91.20 975.74 L -89.88 967.86 L -87.79 963.01" fill="none" stroke="rgb(0,0,0)" stroke-width="8.00" stroke-linecap="round" stroke-linejoin="round"/>
  <path d="M -81.14 974.85 L -73.84 972.71 L -72.50 972.05 L -71.58 970.99 L -70.31 968.22 L -68.83 961.96 L -68.80 960.89 L -69.19 960.11 L -69.63 959.60 L -70.61 959.28 L -72.35 959.27 L -73.72 959.92 L -77.30 963.27 L -79.81 968.27 L -80.07 970.01 L -79.82 972.26 L -79.22 973.91 L -77.40 976.55 L -75.77 978.11 L -73.07 979.89 L -71.26 980.41 L -69.82 980.25 L -66.60 978.54" fill="none" stroke="rgb(0,0,0)" stroke-width="8.00" stroke-linecap="round" stroke-linejoin="round"/>
  <path d="M -333.13 843.16 L -333.11 843.17" fill="none" stroke="rgb(0,0,0)" stroke-width="8.00" stroke-linecap="round" stroke-linejoin="round"/>
  <path d="M -333.07 841.74 L -334.19 838.05 L -335.66 835.15 L -340.14 833.85 L -341.17 833.77 L -344.10 838.09 L -344.67 839.65 L -344.39 841.75 L -341.67 845.79 L -341.48 847.74 L -340.80 849.07 L -337.70 850.57 L -335.13 850.93 L -332.10 851.92 L -330.74 852.93 L -328.71 856.62 L -328.24 857.62 L -328.15 859.01 L -328.96 860.36 L -331.69 861.77 L -332.63 861.85 L -334.16 861.42" fill="none" stroke="rgb(0,0,0)" stroke-width="8.00" stroke-linecap="round" stroke-linejoin="round"/>
  <path d="M -328.80 840.72 L -326.85 848.36 L -325.86 850.92 L -323.57 855.10 L -323.27 858.61 L -323.26 857.73 L -320.98 853.70 L -317.33 852.90 L -314.85 854.10 L -313.02 855.69 L -311.43 858.73 L -311.22 859.02 L -311.08 858.79" fill="none" stroke="rgb(0,0,0)" stroke-width="8.00" stroke-linecap="round" stroke-linejoin="round"/>
  <path d="M -301.78 851.15 L -305.70 853.10 L -308.50 855.70 L -309.01 857.17 L -308.84 857.92 L -308.02 859.15 L -306.29 859.89 L -303.19 860.08 L -301.76 859.68 L -300.22 855.24 L -300.35 850.76 L -300.67 852.26 L -300.58 855.33 L -299.41 857.79 L -298.23 859.44 L -297.66 859.79 L -295.94 859.44 L -295.02 858.72 L -293.84 854.87 L -293.67 852.99 L -289.08 851.26 L -289.36 856.87 L -288.61 858.62 L -287.11 860.03 L -284.46 860.91 L -280.74 860.59 L -279.05 860.12 L -275.74 858.22 L -273.26 853.42 L -275.44 853.59 L -276.80 855.48 L -277.31 857.27 L -276.61 860.61 L -276.18 861.25 L -274.50 861.95 L -269.20 861.14" fill="none" stroke="rgb(0,0,0)" stroke-width="8.00" stroke-linecap="round" stroke-linejoin="round"/>
  <path d="M -236.58 847.23 L -236.45 847.44 L -240.58 850.78 L -241.38 852.50 L -241.05 854.38 L -238.28 857.73 L -237.06 858.50 L -235.71 858.74 L -234.51 858.12 L -233.60 855.53 L -232.61 853.80 L -232.77 855.41 L -231.76 858.72 L -231.03 859.71 L -228.56 861.01 L -227.74 860.84 L -226.29 859.78 L -222.78 858.54 L -221.37 855.59 L -220.98 853.65 L -222.42 851.34 L -223.73 850.31 L -228.27 848.04 L -229.66 847.95 L -231.27 848.81 L -232.09 851.25 L -231.64 853.42 L -230.10 855.11 L -229.46 855.38 L -227.92 855.31 L -223.50 853.14 L -221.67 851.73 L -216.92 849.91 L -215.54 850.85 L -214.92 851.87 L -213.72 856.11 L -212.73 854.02 L -211.64 852.95 L -207.53 851.47 L -205.99 851.30 L -204.68 851.65 L -203.09 852.60 L -201.29 856.97" fill="none" stroke="rgb(0,0,0)" stroke-width="8.00" stroke-linecap="round" stroke-linejoin="round"/>
  <path d="M -196.63 828.17 L -193.80 842.29 L -190.91 848.62 L -189.12 855.22 L -188.03 857.18" fill="none" stroke="rgb(0,0,0)" stroke-width="8.00" stroke-linecap="round" stroke-linejoin="round"/>
  <path d="M -199.59 850.59 L -192.63 849.04 L -189.17 847.60" fill="none" stroke="rgb(0,0,0)" stroke-width="8.00" stroke-linecap="round" stroke-linejoin="round"/>
  <path d="M -185.89 858.54 L -182.86 857.94 L -178.65 856.20 L -178.46 853.81 L -177.89 851.74 L -178.18 851.23 L -178.98 850.86 L -181.36 850.51 L -183.41 851.56 L -184.95 854.91 L -184.59 857.21 L -181.16 863.11 L -179.72 863.61 L -177.67 863.34 L -176.75 862.94 L -176.04 861.94" fill="none" stroke="rgb(0,0,0)" stroke-width="8.00" stroke-linecap="round" stroke-linejoin="round"/>
  <path d="M -171.51 861.69 L -170.16 859.11 L -167.38 855.41 L -165.79 853.62 L -164.40 853.74 L -164.03 853.02" fill="none" stroke="rgb(0,0,0)" stroke-width="8.00" stroke-linecap="round" stroke-linejoin="round"/>
  <path d="M -173.97 850.64 L -171.34 853.98 L -167.84 857.57 L -166.09 859.07 L -164.65 859.11 L -163.39 860.04" fill="none" stroke="rgb(0,0,0)" stroke-width="8.00" stroke-linecap="round" stroke-linejoin="round"/>
  <path d="M -152.44 844.19 L -152.46 840.47 L -151.69 842.81 L -150.45 848.85 L -148.87 853.18 L -149.01 855.63" fill="none" stroke="rgb(0,0,0)" stroke-width="8.00" stroke-linecap="round" stroke-linejoin="round"/>
  <path d="M -157.11 855.13 L -150.58 855.13 L -148.63 854.84 L -149.02 854.70" fill="none" stroke="rgb(0,0,0)" stroke-width="8.00" stroke-linecap="round" stroke-linejoin="round"/>
  <path d="M -148.91 858.97 L -148.91 858.96" fill="none" stroke="rgb(0,0,0)" stroke-width="8.00" stroke-linecap="round" stroke-linejoin="round"/>
  <path d="M -149.13 858.79 L -149.46 858.96 L -148.87 863.88 L -149.57 858.04 L -149.89 851.28" fill="none" stroke="rgb(0,0,0)" stroke-width="8.00" stroke-linecap="round" stroke-linejoin="round"/>
  <path d="M -129.40 859.20 L -129.19 859.02" fill="none" stroke="rgb(0,0,0)" stroke-width="8.00" stroke-linecap="round" stroke-linejoin="round"/>
  <path d="M -13.52 979.21 L -13.64 966.81 L -14.24 963.03 L -14.21 967.48 L -13.39 970.41 L -11.77 974.47 L -10.20 977.20 L -9.98 978.29 L -8.50 980.62" fill="none" stroke="rgb(0,0,0)" stroke-width="8.00" stroke-linecap="round" stroke-linejoin="round"/>
  <path d="M -17.17 944.94 L -17.12 945.07" fill="none" stroke="rgb(0,0,0)" stroke-width="8.00" stroke-linecap="round" stroke-linejoin="round"/>
  <path d="M -3.27 982.21 L -3.88 975.12 L -3.77 969.76 L -3.51 968.79 L -2.45 967.21 L -0.41 966.71 L 0.92 967.68 L 4.50 976.34 L 7.24 981.12 L 7.72 979.35 L 7.90 976.13 L 8.50 973.10 L 12.81 964.68 L 14.02 964.59 L 15.38 965.20 L 16.70 967.33 L 20.41 977.00 L 22.85 981.20 L 23.60 983.12" fill="none" stroke="rgb(0,0,0)" stroke-width="8.00" stroke-linecap="round" stroke-linejoin="round"/>
  <path d="M 23.17 934.62 L 25.16 947.16 L 25.79 954.68 L 27.17 965.34 L 27.66 966.94 L 29.83 971.28 L 34.77 980.40" fill="none" stroke="rgb(0,0,0)" stroke-width="8.00" stroke-linecap="round" stroke-linejoin="round"/>
  <path d="M 23.58 970.54 L 25.86 970.20 L 31.92 968.42 L 35.82 966.83" fill="none" stroke="rgb(0,0,0)" stroke-width="8.00" stroke-linecap="round" stroke-linejoin="round"/>
  <path d="M 36.05 980.25 L 39.28 979.72 L 41.18 979.01 L 43.43 977.17 L 44.48 975.79 L 45.06 974.47 L 45.78 970.69 L 47.17 967.19 L 46.73 966.38 L 45.23 965.82 L 44.24 965.85 L 42.53 966.65 L 41.92 967.25 L 41.19 970.44 L 41.73 974.09 L 44.32 978.57 L 45.04 979.07 L 45.87 979.26 L 47.89 978.99 L 54.87 976.73 L 57.47 975.15 L 60.14 972.07 L 66.05 961.26 L 67.66 953.71 L 67.45 948.59 L 66.50 945.46 L 65.45 944.20 L 62.17 941.48 L 60.44 940.67 L 59.10 941.20 L 58.39 942.39 L 57.10 946.35 L 56.69 948.68 L 56.94 962.18 L 57.59 966.49 L 59.16 971.73 L 61.97 976.78 L 63.79 979.22 L 67.66 982.91 L 70.68 984.79 L 73.34 985.79 L 75.11 985.57 L 77.39 984.27 L 79.50 982.19 L 80.70 980.31 L 81.94 976.60 L 83.23 968.91 L 84.33 964.27 L 84.35 958.45 L 83.77 956.25 L 81.82 951.57 L 79.36 949.32 L 77.16 948.43 L 75.74 948.83 L 74.69 951.91 L 75.11 961.24 L 76.26 966.74 L 77.43 970.08 L 80.56 976.51 L 83.61 981.55 L 84.66 983.17 L 85.98 984.28 L 87.63 983.96 L 88.70 983.03 L 89.84 980.21 L 92.11 971.97 L 92.32 968.82 L 95.02 977.75 L 98.14 982.53 L 100.52 987.33 L 100.75 987.65 L 100.82 987.35" fill="none" stroke="rgb(0,0,0)" stroke-width="8.00" stroke-linecap="round" stroke-linejoin="round"/>
  <path d="M 94.71 954.65 L 94.74 954.79" fill="none" stroke="rgb(0,0,0)" stroke-width="8.00" stroke-linecap="round" stroke-linejoin="round"/>
  <path d="M 111.96 965.42 L 108.67 965.48 L 105.89 966.47 L 104.47 968.02 L 103.45 969.86 L 103.24 970.78 L 103.47 972.18 L 106.73 979.69 L 107.66 980.93 L 109.00 979.28 L 111.22 973.78 L 113.73 968.69 L 113.85 964.53 L 115.18 964.51 L 116.83 965.46 L 120.49 969.37 L 121.97 971.56 L 124.18 975.97 L 125.97 980.37 L 126.67 983.05 L 127.98 991.06 L 128.62 1001.03 L 128.58 1004.86 L 127.97 1007.60 L 126.98 1009.66 L 125.12 1011.49 L 123.21 1012.93 L 122.43 1013.17 L 120.84 1013.16 L 118.02 1012.14 L 110.26 1007.83" fill="none" stroke="rgb(0,0,0)" stroke-width="8.00" stroke-linecap="round" stroke-linejoin="round"/>
  <path d="M 136.47 982.15 L 141.14 978.26 L 142.28 976.14 L 141.65 974.44 L 139.36 972.04 L 137.59 968.70 L 136.92 968.27 L 135.45 971.14 L 135.46 975.38 L 138.08 983.08 L 139.54 985.86 L 141.08 986.41 L 143.30 985.88 L 144.76 981.20 L 146.04 974.91 L 147.02 973.63 L 149.84 973.08 L 150.82 973.63 L 155.65 986.22 L 155.97 987.98 L 155.65 982.60 L 155.95 980.29 L 158.64 973.98 L 159.76 972.18 L 164.84 970.60 L 166.70 972.11 L 168.14 975.45 L 170.38 983.26 L 170.16 988.31" fill="none" stroke="rgb(0,0,0)" stroke-width="8.00" stroke-linecap="round" stroke-linejoin="round"/>
  <path d="M 182.79 970.92 L 179.52 973.41 L 178.03 975.22 L 176.53 977.49 L 175.95 979.63 L 177.03 984.77 L 178.30 986.83 L 180.06 988.34 L 182.21 989.39 L 185.92 989.06 L 191.79 986.24 L 193.76 984.82 L 196.92 980.99 L 200.85 974.25 L 200.78 973.48 L 197.76 972.53 L 196.06 973.15 L 194.86 974.15 L 191.32 978.61 L 191.15 979.42 L 191.42 981.16 L 192.43 983.07 L 194.23 985.29 L 196.47 986.70 L 198.15 986.94 L 205.25 986.42 L 207.81 987.32" fill="none" stroke="rgb(0,0,0)" stroke-width="8.00" stroke-linecap="round" stroke-linejoin="round"/>
  <path d="M 767.55 94.11 L 768.14 90.83 L 769.23 88.29" fill="none" stroke="rgb(255,0,255)" stroke-width="4.83" stroke-linecap="round" stroke-linejoin="round"/>
  <path d="M 756.63 89.90 L 760.81 75.47 L 760.95 73.84 L 761.04 74.06 L 761.21 73.74" fill="none" stroke="rgb(255,0,255)" stroke-width="4.87" stroke-linecap="round" stroke-linejoin="round"/>
  <path d="M 742.49 81.72 L 743.24 79.20 L 745.43 64.05 L 746.25 61.11" fill="none" stroke="rgb(255,0,255)" stroke-width="5.07" stroke-linecap="round" stroke-linejoin="round"/>
</svg>
