<?xml version="1.0" encoding="UTF-8"?>
<svg xmlns="http://www.w3.org/2000/svg" viewBox="-328.1 310.7 600.1 410.6" width="600" height="411">
<rect x="-328.1" y="310.7" width="600.1" height="410.6" fill="white"/>
  <path d="M -293.15 398.74 L -293.53 399.23 L -294.08 393.62 L -294.07 386.32 L -293.53 377.99 L -295.27 393.05 L -294.92 406.18 L -294.40 411.97 L -293.04 418.01 L -293.70 416.27" fill="none" stroke="rgb(0,0,0)" stroke-width="8.00" stroke-linecap="round" stroke-linejoin="round"/>
  <path d="M -294.40 360.24 L -294.40 360.33" fill="none" stroke="rgb(0,0,0)" stroke-width="8.00" stroke-linecap="round" stroke-linejoin="round"/>
  <path d="M -259.45 340.86 L -261.55 346.74 L -261.95 352.15 L -260.64 375.07 L -260.71 400.53 L -259.07 408.88 L -259.15 409.36 L -260.12 408.27 L -261.41 406.02" fill="none" stroke="rgb(0,0,0)" stroke-width="8.00" stroke-linecap="round" stroke-linejoin="round"/>
  <path d="M -259.18 397.82 L -257.38 390.35 L -257.49 385.82 L -258.38 383.18 L -260.05 381.38 L -260.94 380.82 L -263.46 380.46 L -265.57 380.97 L -267.66 382.35 L -271.49 387.26 L -274.21 392.92 L -275.37 398.34 L -275.38 400.86 L -274.93 403.70 L -273.84 406.97 L -272.01 409.93 L -268.22 411.64 L -266.13 412.03 L -265.11 411.90 L -262.36 410.69 L -261.27 409.79" fill="none" stroke="rgb(0,0,0)" stroke-width="8.00" stroke-linecap="round" stroke-linejoin="round"/>
  <path d="M -248.03 397.27 L -242.04 388.88 L -239.78 385.21 L -239.02 383.04 L -238.80 379.44 L -240.94 379.09 L -242.51 379.77 L -244.92 381.83 L -246.74 384.42 L -248.13 387.29 L -250.09 392.72 L -251.81 400.29 L -252.15 403.09 L -251.72 408.99 L -250.94 412.00 L -250.30 413.25 L -248.95 414.66 L -246.26 416.06 L -244.22 416.64 L -242.73 416.70 L -239.67 415.90 L -238.17 415.13 L -234.97 412.22 L -232.70 407.70 L -229.44 396.71 L -228.59 394.60 L -227.39 393.07 L -225.49 392.62 L -223.93 393.11 L -222.86 394.35 L -221.16 397.55 L -220.03 401.65 L -217.91 412.91 L -218.04 414.25 L -217.89 410.11 L -216.80 404.57 L -215.80 402.08 L -214.19 399.37 L -211.45 396.88 L -206.64 393.83 L -203.67 393.00 L -202.75 393.66 L -201.31 395.93 L -199.77 403.20 L -199.97 408.77 L -201.07 415.95 L -201.04 418.65 L -200.73 419.75" fill="none" stroke="rgb(0,0,0)" stroke-width="8.00" stroke-linecap="round" stroke-linejoin="round"/>
  <path d="M -190.44 352.39 L -188.81 369.91 L -188.37 379.32 L -188.02 395.77 L -188.10 413.68 L -187.68 417.16 L -186.61 419.04" fill="none" stroke="rgb(0,0,0)" stroke-width="8.00" stroke-linecap="round" stroke-linejoin="round"/>
  <path d="M -198.48 400.46 L -188.76 398.73 L -185.00 397.74 L -183.40 396.94" fill="none" stroke="rgb(0,0,0)" stroke-width="8.00" stroke-linecap="round" stroke-linejoin="round"/>
  <path d="M -165.95 394.33 L -167.54 401.59 L -168.46 407.66 L -168.14 419.67 L -168.73 420.36" fill="none" stroke="rgb(0,0,0)" stroke-width="8.00" stroke-linecap="round" stroke-linejoin="round"/>
  <path d="M -166.13 372.66 L -166.77 377.56" fill="none" stroke="rgb(0,0,0)" stroke-width="8.00" stroke-linecap="round" stroke-linejoin="round"/>
  <path d="M -140.88 353.75 L -141.15 363.47 L -139.80 378.21 L -138.71 401.07 L -136.89 416.76 L -137.15 420.38 L -137.67 419.39" fill="none" stroke="rgb(0,0,0)" stroke-width="8.00" stroke-linecap="round" stroke-linejoin="round"/>
  <path d="M -146.56 405.37 L -145.29 404.83 L -140.34 401.41 L -137.42 398.81 L -134.61 395.75 L -133.78 395.58" fill="none" stroke="rgb(0,0,0)" stroke-width="8.00" stroke-linecap="round" stroke-linejoin="round"/>
  <path d="M -124.64 417.22 L -121.32 414.00 L -117.23 407.73 L -107.60 387.93 L -106.92 385.24" fill="none" stroke="rgb(0,0,0)" stroke-width="8.00" stroke-linecap="round" stroke-linejoin="round"/>
  <path d="M -126.88 379.15 L -125.38 383.00 L -123.14 386.53 L -119.16 391.67 L -115.86 394.23" fill="none" stroke="rgb(0,0,0)" stroke-width="8.00" stroke-linecap="round" stroke-linejoin="round"/>
  <path d="M -61.00 389.90 L -39.36 389.64 L 0.75 391.44 L 7.58 391.50 L 19.70 390.78 L 31.34 389.28 L 33.58 389.38 L 31.51 387.88" fill="none" stroke="rgb(0,0,0)" stroke-width="8.00" stroke-linecap="round" stroke-linejoin="round"/>
  <path d="M 34.71 384.21 L 34.70 384.54 L 26.63 381.76 L 22.67 381.00 L 19.20 380.96 L 22.22 382.72 L 26.24 384.15 L 30.23 385.09 L 39.67 386.10 L 42.04 386.77 L 40.50 387.98 L 36.90 389.82 L 34.50 390.53 L 28.45 391.21 L 26.98 391.69 L 23.98 393.37 L 22.45 393.35 L 21.51 392.58 L 19.73 388.85 L 18.17 387.19" fill="none" stroke="rgb(0,0,0)" stroke-width="8.00" stroke-linecap="round" stroke-linejoin="round"/>
  <path d="M 128.32 558.14 L 127.89 556.45 L 127.78 553.84 L 129.46 555.37 L 130.60 557.21 L 131.57 560.29 L 132.85 567.80 L 134.04 570.84 L 137.65 567.76 L 140.21 562.22 L 142.13 560.07 L 144.96 557.79 L 145.32 556.55 L 144.92 556.10 L 138.92 554.16 L 136.63 553.77 L 132.50 553.69 L 130.70 554.24 L 130.84 555.96 L 132.17 557.45 L 133.62 557.31" fill="none" stroke="rgb(0,0,0)" stroke-width="8.00" stroke-linecap="round" stroke-linejoin="round"/>
  <path d="M 61.38 624.02 L 63.00 633.06 L 64.18 642.11 L 64.87 649.27 L 65.97 672.09 L 67.43 680.44 L 67.37 680.97 L 67.22 680.53 L 67.48 679.45" fill="none" stroke="rgb(0,0,0)" stroke-width="8.00" stroke-linecap="round" stroke-linejoin="round"/>
  <path d="M 64.73 677.13 L 64.06 674.54 L 63.89 671.49 L 65.03 668.53 L 66.52 667.28 L 69.99 665.61 L 70.90 665.29 L 71.41 665.54 L 73.99 671.85 L 73.92 675.17 L 72.08 679.85 L 71.64 681.93 L 69.98 682.59 L 68.91 682.24" fill="none" stroke="rgb(0,0,0)" stroke-width="8.00" stroke-linecap="round" stroke-linejoin="round"/>
  <path d="M 83.24 677.17 L 85.79 677.65 L 87.60 677.27 L 89.16 676.58 L 90.40 675.08 L 91.23 670.04 L 91.21 668.56 L 89.77 665.08 L 89.03 664.04 L 87.68 664.87 L 85.78 667.70 L 82.44 675.51 L 82.47 677.53 L 83.71 679.13 L 84.74 679.86 L 85.79 680.38 L 87.61 680.68 L 90.33 680.30 L 92.16 679.64 L 93.31 678.92 L 93.68 677.94" fill="none" stroke="rgb(0,0,0)" stroke-width="8.00" stroke-linecap="round" stroke-linejoin="round"/>
  <path d="M 90.60 631.52 L 91.00 634.15 L 97.31 660.49 L 99.96 675.39 L 100.77 678.30 L 102.15 680.01 L 101.80 679.64 L 103.95 675.40 L 105.62 668.36 L 106.38 666.37 L 107.01 665.91 L 109.70 665.43 L 110.84 666.00 L 112.05 667.12 L 114.54 670.53 L 115.80 675.98 L 116.36 677.21 L 117.15 678.03 L 116.97 678.65" fill="none" stroke="rgb(0,0,0)" stroke-width="8.00" stroke-linecap="round" stroke-linejoin="round"/>
  <path d="M 135.13 663.22 L 131.93 664.05 L 129.78 665.65 L 128.70 667.08 L 126.37 672.64 L 125.60 676.73 L 125.70 680.07 L 126.29 680.77 L 128.04 681.05 L 130.74 680.62 L 133.05 679.74 L 134.90 678.24 L 136.11 675.59 L 137.72 667.38 L 137.88 664.65 L 137.56 667.41 L 137.59 672.37 L 138.28 676.62 L 138.82 677.69 L 140.03 678.64 L 141.75 678.52 L 142.84 677.89" fill="none" stroke="rgb(0,0,0)" stroke-width="8.00" stroke-linecap="round" stroke-linejoin="round"/>
  <path d="M 146.33 656.14 L 146.44 659.12 L 147.71 668.50 L 149.55 677.64 L 150.66 680.78 L 152.53 681.88 L 153.93 681.77 L 156.12 679.57 L 158.33 674.95 L 160.50 667.91 L 161.11 666.70 L 161.37 666.74" fill="none" stroke="rgb(0,0,0)" stroke-width="8.00" stroke-linecap="round" stroke-linejoin="round"/>
  <path d="M 169.07 664.60 L 171.90 666.64 L 172.54 667.52 L 173.06 669.08 L 173.80 673.69 L 174.24 681.88 L 174.03 683.99" fill="none" stroke="rgb(0,0,0)" stroke-width="8.00" stroke-linecap="round" stroke-linejoin="round"/>
  <path d="M 174.63 650.29 L 174.18 648.29 L 173.80 648.56" fill="none" stroke="rgb(0,0,0)" stroke-width="8.00" stroke-linecap="round" stroke-linejoin="round"/>
  <path d="M 188.05 666.12 L 188.94 666.28 L 185.86 666.99 L 184.15 668.26 L 183.49 669.29 L 183.22 670.52 L 183.74 673.64 L 184.47 675.44 L 186.64 678.53 L 187.48 679.21 L 189.71 680.02 L 192.14 679.92 L 194.52 678.53 L 196.03 676.40 L 197.55 670.70 L 197.58 667.85 L 195.27 662.13 L 194.56 661.55 L 193.41 661.32 L 191.80 661.85 L 190.29 663.62 L 187.93 667.90 L 187.14 670.03 L 187.25 670.90 L 191.04 670.57 L 194.14 669.50 L 197.47 667.88 L 198.42 666.93 L 199.76 663.59 L 202.44 676.43 L 204.02 678.96 L 205.20 679.50 L 206.40 679.56 L 207.56 679.17 L 208.36 677.84 L 210.60 670.92 L 212.53 667.46 L 212.49 668.30 L 214.71 678.03 L 216.37 681.28 L 217.02 681.62 L 218.87 680.58 L 219.82 679.24 L 221.81 672.07 L 222.89 669.89 L 222.78 667.88 L 223.28 666.85 L 224.35 666.03 L 228.68 664.15 L 230.85 662.33 L 233.44 661.09 L 234.09 663.68 L 234.26 666.36 L 231.88 673.44 L 231.75 677.27 L 232.23 679.55 L 235.41 678.54" fill="none" stroke="rgb(0,0,0)" stroke-width="8.00" stroke-linecap="round" stroke-linejoin="round"/>
  <path d="M 250.75 661.18 L 249.53 661.22 L 243.27 663.98 L 240.83 664.75 L 240.25 665.10 L 239.80 666.03 L 239.72 667.62 L 241.00 671.90 L 242.17 672.73 L 249.44 675.06 L 251.05 676.42 L 251.74 678.24 L 251.98 680.58 L 251.66 681.62 L 249.28 685.51 L 247.15 688.23 L 245.22 692.66" fill="none" stroke="rgb(0,0,0)" stroke-width="8.00" stroke-linecap="round" stroke-linejoin="round"/>
  <path d="M 24.69 671.69 L 8.23 670.10 L -35.15 668.43 L -43.23 668.47 L -56.05 669.30 L -61.56 669.15 L -61.24 669.56 L -61.21 670.84" fill="none" stroke="rgb(0,0,0)" stroke-width="8.00" stroke-linecap="round" stroke-linejoin="round"/>
  <path d="M -58.89 664.35 L -64.62 665.75 L -72.37 668.44 L -71.94 668.21 L -69.19 669.32 L -65.83 670.84 L -63.43 672.34 L -61.80 672.31 L -60.82 670.72 L -59.54 666.14 L -59.60 664.43 L -60.34 665.05" fill="none" stroke="rgb(0,0,0)" stroke-width="8.00" stroke-linecap="round" stroke-linejoin="round"/>
  <path d="M -283.51 656.61 L -282.51 665.66 L -280.52 677.35 L -278.50 687.41 L -277.95 688.95 L -277.41 689.47" fill="none" stroke="rgb(0,0,0)" stroke-width="8.00" stroke-linecap="round" stroke-linejoin="round"/>
  <path d="M -284.61 681.63 L -287.91 679.46 L -289.41 677.43 L -290.54 674.55 L -291.52 670.64 L -291.86 667.02 L -291.57 661.85 L -290.77 658.03 L -289.78 655.18 L -288.42 653.09 L -286.93 651.79 L -281.94 649.48 L -277.67 648.87 L -276.05 648.96 L -274.18 649.63 L -271.68 651.39 L -270.00 653.37 L -269.46 656.03 L -270.04 659.12 L -271.84 662.96 L -275.29 667.98 L -277.55 670.33 L -280.35 672.14 L -283.74 672.92 L -287.11 672.95 L -288.54 673.44" fill="none" stroke="rgb(0,0,0)" stroke-width="8.00" stroke-linecap="round" stroke-linejoin="round"/>
  <path d="M -286.47 677.58 L -274.43 679.72 L -269.19 681.22 L -268.27 681.83 L -267.83 682.64 L -267.54 683.84 L -267.63 686.95" fill="none" stroke="rgb(0,0,0)" stroke-width="8.00" stroke-linecap="round" stroke-linejoin="round"/>
  <path d="M -263.05 679.99 L -259.58 675.44 L -257.10 671.59 L -255.69 667.78 L -255.17 663.23 L -258.41 665.62 L -261.71 669.20 L -263.80 672.54 L -264.94 676.65 L -264.63 679.41 L -262.99 682.74 L -258.52 686.04 L -257.61 686.04 L -256.65 685.36" fill="none" stroke="rgb(0,0,0)" stroke-width="8.00" stroke-linecap="round" stroke-linejoin="round"/>
  <path d="M -235.65 663.45 L -246.07 667.11 L -248.61 668.53 L -250.79 670.60 L -251.63 673.78 L -251.26 676.22 L -250.53 677.23 L -249.69 677.60 L -242.32 677.20 L -237.97 677.58 L -234.40 678.50 L -232.22 679.63 L -231.78 682.65 L -232.67 684.38 L -236.15 687.16 L -237.97 687.79 L -239.61 687.60" fill="none" stroke="rgb(0,0,0)" stroke-width="8.00" stroke-linecap="round" stroke-linejoin="round"/>
  <path d="M -227.76 686.29 L -224.01 670.51 L -223.33 668.93 L -223.25 682.58 L -223.05 683.56 L -221.96 685.03 L -219.80 684.42 L -217.68 682.02 L -215.33 677.96 L -213.55 671.72 L -213.50 681.08 L -212.60 684.70 L -211.67 686.19 L -209.39 685.92 L -202.98 683.69 L -200.66 682.09 L -199.57 680.01 L -198.94 677.68 L -196.79 658.97 L -196.78 655.13 L -198.41 643.78 L -199.48 651.53 L -200.01 662.27 L -199.76 673.50 L -198.41 682.64 L -198.69 685.09" fill="none" stroke="rgb(0,0,0)" stroke-width="8.00" stroke-linecap="round" stroke-linejoin="round"/>
  <path d="M -181.29 644.70 L -179.58 649.58 L -178.64 653.42 L -177.86 659.06 L -176.97 672.92 L -177.07 681.88 L -176.64 690.38 L -177.40 688.37" fill="none" stroke="rgb(0,0,0)" stroke-width="8.00" stroke-linecap="round" stroke-linejoin="round"/>
  <path d="M -183.57 679.34 L -177.33 676.75 L -172.68 674.39 L -170.58 673.66 L -170.31 674.38" fill="none" stroke="rgb(0,0,0)" stroke-width="8.00" stroke-linecap="round" stroke-linejoin="round"/>
  <path d="M -150.71 665.14 L -165.99 676.03 L -166.81 677.37 L -164.09 677.96 L -154.67 678.36 L -148.64 678.95 L -143.61 680.17 L -142.31 680.89 L -141.30 682.03 L -141.15 684.27 L -141.68 685.91 L -144.60 690.77 L -149.70 696.69 L -155.13 701.31" fill="none" stroke="rgb(0,0,0)" stroke-width="8.00" stroke-linecap="round" stroke-linejoin="round"/>
  <path d="M -213.34 576.28 L -213.29 585.19 L -213.07 582.62 L -213.02 550.59 L -213.53 535.16 L -213.74 503.35 L -213.25 495.55 L -212.08 488.15 L -211.40 485.54 L -210.58 484.04 L -210.67 488.52" fill="none" stroke="rgb(0,0,0)" stroke-width="8.00" stroke-linecap="round" stroke-linejoin="round"/>
  <path d="M -218.00 483.54 L -220.65 489.88 L -220.61 492.16 L -219.21 490.25 L -210.24 469.55 L -210.26 470.55 L -207.36 474.82 L -206.22 478.61 L -206.38 483.93 L -208.22 487.68 L -210.54 489.97 L -213.41 493.93 L -213.41 495.54 L -212.70 496.41" fill="none" stroke="rgb(0,0,0)" stroke-width="8.00" stroke-linecap="round" stroke-linejoin="round"/>
  <path d="M 26.44 481.68 L 22.29 474.24 L 19.74 470.77 L 13.77 464.43 L 10.37 461.57 L 6.70 458.94 L -1.36 454.41 L -10.28 450.89 L -15.02 449.53 L -24.97 447.63 L -30.13 447.11 L -40.75 446.91 L -51.60 447.84 L -57.07 448.73 L -67.96 451.34 L -78.67 455.01 L -83.90 457.23 L -94.00 462.40 L -98.84 465.32 L -107.99 471.78 L -112.27 475.30 L -120.13 482.84 L -123.70 486.83 L -126.99 490.95 L -132.73 499.50 L -135.14 503.90 L -139.04 512.86 L -141.62 521.91 L -142.85 530.92 L -142.71 539.74 L -142.12 544.04 L -141.20 548.24 L -138.35 556.27 L -134.19 563.71 L -131.65 567.18 L -128.81 570.45 L -122.27 576.38 L -118.61 579.01 L -110.55 583.54 L -101.63 587.06 L -96.89 588.42 L -86.94 590.32 L -81.77 590.84 L -71.16 591.04 L -65.75 590.72 L -60.30 590.11 L -49.38 588.05 L -38.55 584.90 L -28.01 580.72 L -22.89 578.25 L -13.06 572.63 L -8.40 569.50 L 0.36 562.65 L 8.23 555.11 L 11.79 551.12 L 18.10 542.78 L 20.82 538.45 L 25.35 529.60 L 28.59 520.57 L 29.71 516.04 L 30.94 507.03 L 31.04 502.59 L 30.22 493.91 L 28.03 485.63 L 26.44 481.68" fill="none" stroke="rgb(0,0,0)" stroke-width="8.00" stroke-linecap="round" stroke-linejoin="round"/>
  <path d="M 32.26 529.84 L 33.60 525.43 L 33.65 523.81 L 33.07 523.27 L 32.17 523.21 L 29.95 516.71 L 28.31 513.65 L 26.55 511.78" fill="none" stroke="rgb(0,0,0)" stroke-width="8.00" stroke-linecap="round" stroke-linejoin="round"/>
  <path d="M 33.98 504.14 L 33.44 507.88 L 32.99 516.26 L 31.97 520.64 L 30.73 523.55 L 31.03 522.86 L 30.46 523.12 L 29.63 522.86 L 27.47 520.81 L 25.65 515.88 L 23.81 512.74 L 21.86 511.02 L 20.92 510.63 L 20.94 510.93 L 20.62 510.58 L 22.07 517.81 L 22.46 523.06 L 23.32 527.36 L 23.45 529.86 L 23.38 529.31 L 24.35 529.67 L 26.55 528.87 L 40.26 520.68 L 38.76 521.59 L 39.39 521.21 L 39.54 520.49 L 39.07 519.69 L 38.00 518.91" fill="none" stroke="rgb(0,0,0)" stroke-width="8.00" stroke-linecap="round" stroke-linejoin="round"/>
  <path d="M 20.88 507.87 L 20.34 511.68 L 20.23 516.29 L 20.52 528.25 L 21.12 529.90 L 21.02 529.52 L 22.52 529.57 L 24.75 528.74 L 32.81 524.12 L 41.16 519.88 L 44.87 518.39 L 43.62 518.89 L 41.02 517.20 L 30.30 512.47 L 28.40 511.72 L 23.95 510.73 L 21.61 509.57 L 27.84 513.11 L 40.50 517.56 L 26.76 515.99 L 26.46 516.10 L 28.58 517.13 L 31.81 518.35" fill="none" stroke="rgb(0,0,0)" stroke-width="8.00" stroke-linecap="round" stroke-linejoin="round"/>
  <path d="M -143.67 497.70 L -143.68 496.68 L -143.55 496.99 L -140.82 494.95 L -137.30 491.50 L -136.17 489.53 L -135.55 486.53 L -132.43 485.46 L -130.78 484.05 L -131.20 484.30 L -130.35 487.09 L -129.51 492.47 L -129.11 499.79 L -128.05 506.63 L -128.20 506.21 L -136.95 503.32 L -142.30 501.21 L -145.16 499.48 L -144.55 499.83 L -144.98 498.86 L -144.96 497.96 L -143.12 492.05 L -141.17 490.08 L -137.26 488.86 L -132.11 486.56 L -128.85 485.65 L -123.35 483.17 L -124.17 483.45 L -124.66 486.15 L -126.83 492.11 L -133.83 507.59 L -134.21 509.14 L -134.08 508.87 L -134.59 507.91 L -136.89 505.40 L -139.74 502.99 L -144.80 499.89 L -146.58 498.27 L -146.09 498.55 L -147.11 496.69 L -147.04 495.01 L -144.83 493.17 L -135.56 488.89 L -132.16 486.36 L -141.86 495.84 L -139.69 494.68 L -133.90 493.30 L -132.03 493.30 L -130.32 494.39 L -132.19 496.28 L -139.16 505.28 L -140.54 507.77 L -141.44 510.44 L -137.92 508.40 L -134.14 505.65 L -129.66 501.17 L -127.98 498.07 L -127.81 495.60 L -129.64 496.27 L -133.30 499.10 L -134.89 500.89 L -136.01 502.95 L -135.28 503.93 L -133.50 502.61" fill="none" stroke="rgb(0,0,0)" stroke-width="8.00" stroke-linecap="round" stroke-linejoin="round"/>
  <path d="M 133.47 476.48 L 133.79 473.52" fill="none" stroke="rgb(0,0,0)" stroke-width="8.00" stroke-linecap="round" stroke-linejoin="round"/>
  <path d="M 138.46 473.34 L 138.53 473.96 L 139.13 481.15 L 140.03 520.71 L 141.13 539.26 L 141.16 555.10 L 140.84 555.92 L 140.90 557.22" fill="none" stroke="rgb(0,0,0)" stroke-width="8.00" stroke-linecap="round" stroke-linejoin="round"/>
  <path d="M 91.27 331.92 L 88.75 330.97 L 86.44 330.66 L 85.63 331.01 L 85.34 331.94 L 87.02 339.18 L 89.60 368.47 L 91.28 382.99 L 93.00 390.61 L 95.45 399.08 L 95.38 396.67 L 95.73 394.57 L 95.11 394.52" fill="none" stroke="rgb(0,0,0)" stroke-width="8.00" stroke-linecap="round" stroke-linejoin="round"/>
  <path d="M 85.78 391.87 L 84.88 388.84 L 84.71 386.63 L 85.06 383.25 L 86.07 380.06 L 87.52 377.87 L 94.67 374.68 L 100.06 373.40 L 102.39 373.46 L 104.71 374.58 L 109.31 377.51 L 113.98 381.86 L 114.93 383.96 L 114.98 385.57 L 114.05 388.48 L 112.74 390.59 L 108.04 396.14 L 103.68 399.51 L 98.56 402.73 L 95.61 403.86 L 94.96 403.83 L 93.18 402.78 L 91.11 400.49 L 90.23 399.11 L 90.41 397.81" fill="none" stroke="rgb(0,0,0)" stroke-width="8.00" stroke-linecap="round" stroke-linejoin="round"/>
  <path d="M 118.73 394.87 L 120.57 394.60 L 125.17 392.81 L 126.31 391.14 L 128.17 386.45 L 129.19 381.13 L 129.21 379.71 L 127.62 375.89 L 125.86 374.73 L 123.50 374.46 L 121.09 375.59 L 118.16 378.98 L 116.30 382.38 L 114.34 390.22 L 114.80 397.03 L 115.23 399.02 L 115.98 400.73 L 117.71 402.82 L 120.13 404.06 L 122.16 404.37 L 124.27 403.88 L 129.51 401.03 L 132.79 398.54 L 132.85 397.44" fill="none" stroke="rgb(0,0,0)" stroke-width="8.00" stroke-linecap="round" stroke-linejoin="round"/>
  <path d="M 140.66 400.69 L 142.37 397.92 L 145.63 390.54 L 147.71 384.75 L 148.75 379.46 L 149.68 369.47 L 149.84 362.98 L 149.05 357.17 L 147.75 351.52 L 147.01 350.48 L 146.26 350.38 L 144.83 351.65 L 142.66 354.96 L 141.36 359.70 L 140.71 363.78 L 140.42 374.74 L 140.76 380.41 L 141.67 386.18 L 144.06 392.76 L 146.02 396.20 L 148.48 399.16 L 151.30 400.09 L 153.12 399.79 L 157.45 397.86 L 159.75 395.95 L 162.22 390.75 L 163.44 386.58 L 163.01 386.21 L 161.95 387.29 L 161.70 389.01 L 162.30 396.55 L 163.53 401.78 L 164.31 402.51 L 166.28 403.02 L 170.39 402.36 L 171.14 401.79 L 171.11 401.27" fill="none" stroke="rgb(0,0,0)" stroke-width="8.00" stroke-linecap="round" stroke-linejoin="round"/>
  <path d="M 167.59 364.58 L 161.54 371.96" fill="none" stroke="rgb(0,0,0)" stroke-width="8.00" stroke-linecap="round" stroke-linejoin="round"/>
  <path d="M 176.58 393.90 L 177.04 394.40 L 178.43 394.88 L 180.16 394.54 L 181.21 393.90 L 182.45 392.21 L 183.46 388.65 L 183.96 385.42 L 183.29 382.56 L 182.39 381.06 L 180.35 380.77 L 177.44 381.53 L 173.36 384.62 L 170.94 387.80 L 169.94 389.75 L 169.12 392.94 L 169.41 394.89 L 170.57 397.42 L 173.93 401.54 L 175.21 402.46 L 177.27 403.28 L 178.80 403.57 L 181.57 403.29 L 189.24 401.32" fill="none" stroke="rgb(0,0,0)" stroke-width="8.00" stroke-linecap="round" stroke-linejoin="round"/>
  <path d="M 198.81 400.10 L 197.96 399.10 L 197.26 397.20 L 195.94 389.44 L 194.03 382.09 L 193.01 376.37 L 192.56 365.85 L 192.80 359.62 L 193.33 354.82 L 194.35 351.55 L 197.04 351.43 L 199.64 352.15 L 208.63 353.47 L 209.19 354.09 L 209.01 354.71 L 207.51 357.12" fill="none" stroke="rgb(0,0,0)" stroke-width="8.00" stroke-linecap="round" stroke-linejoin="round"/>
  <path d="M 188.93 387.39 L 192.39 388.50 L 195.48 388.72 L 199.80 387.96 L 204.56 386.22" fill="none" stroke="rgb(0,0,0)" stroke-width="8.00" stroke-linecap="round" stroke-linejoin="round"/>
  <path d="M 224.36 381.78 L 224.54 381.42 L 221.43 380.71 L 219.58 380.59 L 217.18 381.00 L 212.04 384.02 L 210.49 385.43 L 209.60 386.85 L 209.74 388.75 L 211.19 390.59 L 212.19 391.37 L 220.90 393.61 L 224.72 395.32 L 227.82 397.88 L 228.54 399.83 L 228.30 401.06 L 225.67 404.65 L 223.49 407.16 L 222.25 408.00 L 219.46 409.24 L 216.88 409.77 L 214.82 409.49 L 213.93 408.92" fill="none" stroke="rgb(0,0,0)" stroke-width="8.00" stroke-linecap="round" stroke-linejoin="round"/>
  <path d="M -212.60 387.04 L -212.63 387.06" fill="none" stroke="rgb(255,233,74)" stroke-width="11.02" stroke-linecap="round" stroke-linejoin="round"/>
  <path d="M -308.11 401.37 L -295.52 400.29 L -289.07 400.12 L -197.36 400.60 L -174.42 399.87 L -161.47 399.21 L -153.00 398.32 L -132.41 394.71 L -130.24 393.94 L -129.50 394.15 L -129.65 394.80 L -131.32 396.42" fill="none" stroke="rgb(255,233,74)" stroke-width="30.00" stroke-linecap="square" stroke-linejoin="round" opacity="0.392"/>
</svg>
