<?xml version="1.0" encoding="UTF-8"?>
<svg xmlns="http://www.w3.org/2000/svg" viewBox="-384.8 60.2 772.2 744.2" width="772" height="744">
<rect x="-384.8" y="60.2" width="772.2" height="744.2" fill="white"/>
  <path d="M -344.33 120.71 L -343.79 120.01 L -343.23 118.08 L -342.84 113.98 L -342.93 110.84 L -344.17 103.97 L -343.84 97.14 L -343.39 107.98 L -340.61 131.43 L -339.58 137.32 L -338.14 140.81 L -339.13 139.44 L -339.68 137.37 L -341.88 124.26 L -346.75 108.20 L -348.21 98.57 L -348.92 96.08 L -348.42 95.21 L -347.35 94.48 L -345.22 93.79 L -338.44 92.75 L -325.43 93.22 L -318.89 92.74 L -319.89 93.56" fill="none" stroke="rgb(0,0,0)" stroke-width="8.00" stroke-linecap="round" stroke-linejoin="round"/>
  <path d="M -350.21 123.23 L -346.50 124.09 L -340.80 124.30 L -335.82 123.93 L -328.20 122.67 L -319.71 122.18" fill="none" stroke="rgb(0,0,0)" stroke-width="8.00" stroke-linecap="round" stroke-linejoin="round"/>
  <path d="M -320.13 134.29 L -316.60 135.38 L -313.65 135.40 L -309.86 133.58 L -307.31 131.37 L -306.57 130.04 L -305.92 127.37 L -306.15 125.50 L -307.88 122.20 L -310.74 121.52 L -312.22 122.44 L -313.88 124.79 L -314.42 126.67 L -314.31 128.59 L -312.35 134.05 L -310.93 135.43 L -308.76 136.83 L -306.82 137.36 L -304.27 137.19 L -297.87 135.36 L -294.36 133.54 L -290.11 129.58 L -287.95 125.73 L -286.27 120.03 L -284.34 104.60 L -285.15 99.31 L -286.24 96.66 L -288.83 92.25 L -289.81 91.46 L -291.15 91.17 L -292.04 91.66 L -292.93 92.82 L -294.59 96.58 L -295.36 100.95 L -295.36 103.56 L -295.01 109.14 L -292.81 124.78 L -291.71 129.04 L -289.60 133.67 L -287.99 135.14 L -284.17 136.54 L -281.96 136.36 L -276.46 133.86 L -273.24 130.03 L -271.65 126.51 L -269.98 118.07 L -272.02 121.87 L -272.84 125.42 L -272.21 130.18 L -270.16 135.26 L -269.15 136.06 L -265.68 137.58 L -262.58 137.23 L -261.05 136.13 L -260.33 134.99 L -259.10 129.81" fill="none" stroke="rgb(0,0,0)" stroke-width="8.00" stroke-linecap="round" stroke-linejoin="round"/>
  <path d="M -265.04 103.41 L -265.01 103.56" fill="none" stroke="rgb(0,0,0)" stroke-width="8.00" stroke-linecap="round" stroke-linejoin="round"/>
  <path d="M -251.46 118.31 L -250.77 120.28 L -249.84 125.19 L -248.03 141.79 L -247.87 147.52 L -248.11 153.64 L -250.93 147.64 L -252.35 143.62 L -254.06 137.54 L -254.45 134.32 L -254.52 126.40 L -253.25 120.26 L -251.77 115.27 L -249.96 113.28 L -247.17 112.62 L -245.09 112.86 L -242.19 114.19 L -238.96 116.28 L -237.36 117.91 L -236.02 120.37 L -235.75 124.33 L -236.28 127.34 L -238.04 132.31 L -240.10 135.98 L -241.42 137.70 L -242.88 138.95 L -246.05 140.14 L -247.43 140.04 L -248.83 139.33 L -248.06 138.22 L -246.98 137.46" fill="none" stroke="rgb(0,0,0)" stroke-width="8.00" stroke-linecap="round" stroke-linejoin="round"/>
  <path d="M -236.23 133.16 L -234.25 133.64 L -231.19 133.81 L -227.54 133.26 L -224.29 131.84 L -220.99 129.04 L -219.78 127.34 L -217.88 123.44 L -216.57 120.04 L -215.69 115.96 L -216.01 114.76 L -216.91 113.94 L -219.34 113.26 L -220.47 113.36 L -224.40 115.49 L -226.11 117.10 L -227.74 119.63 L -228.89 123.37 L -229.06 125.94 L -228.52 128.42 L -227.20 130.86 L -225.52 132.20 L -223.80 132.96 L -221.20 132.82 L -217.18 131.35 L -213.55 129.39 L -209.98 127.25 L -208.44 125.61" fill="none" stroke="rgb(0,0,0)" stroke-width="8.00" stroke-linecap="round" stroke-linejoin="round"/>
  <path d="M -155.42 90.72 L -160.56 88.35 L -163.50 87.98 L -164.89 88.14 L -166.84 88.92 L -168.03 89.78 L -171.86 94.37 L -174.63 98.61 L -177.46 104.00 L -179.52 110.27 L -180.33 113.69 L -180.96 118.46 L -180.80 122.67 L -180.29 125.23 L -178.56 129.43 L -177.25 131.04 L -175.69 132.26 L -173.95 133.34 L -171.27 134.36 L -164.87 135.06 L -161.53 134.74 L -158.51 134.04 L -153.86 131.73 L -151.92 129.89 L -147.00 123.16" fill="none" stroke="rgb(0,0,0)" stroke-width="8.00" stroke-linecap="round" stroke-linejoin="round"/>
  <path d="M -137.81 115.40 L -138.60 112.57 L -139.61 111.23 L -140.78 110.56 L -142.58 110.22 L -144.64 110.91 L -146.13 111.84 L -148.63 114.41 L -150.70 118.26 L -151.64 121.74 L -151.87 124.02 L -151.62 126.94 L -150.87 129.18 L -149.81 130.50 L -148.55 131.12 L -146.60 131.42 L -143.98 130.49 L -142.59 129.30 L -140.22 126.39 L -138.15 122.88 L -135.76 115.63 L -135.59 113.35 L -134.80 121.90 L -133.44 128.88 L -132.50 131.97 L -132.02 132.69 L -131.46 132.70 L -129.41 130.22 L -127.59 126.48 L -126.34 120.56 L -125.63 118.65 L -123.37 115.02 L -121.16 112.38 L -119.77 111.08 L -117.92 110.25 L -117.21 110.58 L -116.56 112.81 L -116.46 114.40 L -118.21 123.58 L -118.20 127.10 L -117.70 128.49 L -116.36 129.72 L -115.02 130.22 L -112.64 130.47 L -109.64 130.19 L -107.99 129.00 L -106.36 126.24" fill="none" stroke="rgb(0,0,0)" stroke-width="8.00" stroke-linecap="round" stroke-linejoin="round"/>
  <path d="M -95.01 106.11 L -95.83 109.45 L -96.20 113.35 L -96.13 128.67 L -95.28 132.04 L -93.55 134.10 L -92.40 134.07 L -90.48 132.65 L -88.75 130.38 L -87.19 127.63 L -84.44 120.78 L -82.20 112.78" fill="none" stroke="rgb(0,0,0)" stroke-width="8.00" stroke-linecap="round" stroke-linejoin="round"/>
  <path d="M -58.98 112.38 L -63.77 111.34 L -66.64 111.84 L -68.67 112.62 L -71.86 115.00 L -77.44 120.48 L -80.98 126.28 L -82.40 132.18 L -82.16 135.14 L -81.65 136.48 L -80.92 137.44 L -79.26 138.29 L -77.17 137.94 L -74.66 136.47 L -72.65 134.56 L -71.20 132.62 L -69.94 130.22 L -67.70 124.45 L -66.05 117.97 L -65.68 123.18 L -64.49 130.69 L -63.59 133.19 L -62.17 134.70 L -57.81 136.33 L -55.62 136.13 L -52.99 135.00 L -51.00 133.59 L -48.11 130.07 L -45.30 125.86 L -41.55 118.46 L -39.37 112.19 L -38.20 106.70 L -37.88 98.03 L -38.31 93.79 L -40.62 89.26 L -41.58 88.51 L -43.43 88.14 L -44.44 88.49 L -45.45 89.44 L -47.38 93.51 L -50.12 106.39 L -50.57 111.04 L -50.29 116.02 L -47.75 128.43 L -46.37 130.65 L -43.82 132.88 L -38.44 135.38 L -32.44 137.19 L -30.67 137.28 L -28.92 136.73 L -26.96 135.34 L -23.40 130.86 L -18.67 122.95 L -17.45 120.27 L -16.05 116.01 L -15.24 111.09 L -14.87 104.78 L -15.38 101.70 L -16.15 100.04 L -17.92 97.65 L -19.00 96.70 L -20.69 96.26 L -22.02 97.01 L -24.22 100.83 L -25.64 109.71 L -25.85 117.25 L -25.50 128.29 L -24.58 134.12 L -22.76 140.75 L -21.79 136.56 L -19.81 130.76 L -17.40 127.13 L -16.46 126.15 L -15.49 125.76 L -13.86 126.10 L -12.08 127.37 L -10.44 129.79 L -7.52 135.23 L -6.25 136.43 L -3.88 137.68 L -2.91 137.65 L -0.75 136.41 L 2.29 133.53 L 5.15 127.87 L 3.93 128.79 L 2.60 130.44 L -0.17 136.20 L -0.80 140.02 L -0.42 142.96 L 0.70 144.42 L 2.47 145.55 L 3.93 146.30 L 5.88 146.75 L 8.11 146.22 L 12.48 143.62 L 14.71 140.79 L 16.50 136.72 L 17.13 132.76 L 17.38 126.68 L 16.10 122.81 L 14.95 120.60 L 13.42 118.71 L 10.33 117.04 L 7.22 116.73 L 5.76 117.28 L 3.88 118.74 L 2.67 120.21 L 1.83 121.93 L 1.11 124.17 L 0.96 125.74 L 1.23 127.30 L 2.34 129.32 L 4.33 130.87 L 10.72 133.07 L 15.73 133.27 L 21.13 132.49" fill="none" stroke="rgb(0,0,0)" stroke-width="8.00" stroke-linecap="round" stroke-linejoin="round"/>
  <path d="M 67.56 122.78 L 69.48 123.20 L 73.23 123.31 L 83.20 122.59 L 85.81 123.09 L 89.33 124.59 L 90.25 124.67" fill="none" stroke="rgb(0,0,0)" stroke-width="8.00" stroke-linecap="round" stroke-linejoin="round"/>
  <path d="M 152.66 98.65 L 152.65 95.21 L 152.21 92.36 L 151.31 88.75 L 150.30 86.85 L 148.55 85.30 L 145.48 84.86 L 142.82 86.64 L 140.82 89.51 L 138.81 93.42 L 136.44 99.68 L 134.99 105.81 L 133.75 116.50 L 134.01 121.19 L 135.16 126.25 L 137.23 130.61 L 138.16 131.69 L 139.26 132.35 L 141.15 133.05 L 143.34 132.66 L 147.55 130.24 L 150.81 127.24 L 152.95 126.47" fill="none" stroke="rgb(0,0,0)" stroke-width="8.00" stroke-linecap="round" stroke-linejoin="round"/>
  <path d="M 158.26 123.59 L 158.31 121.20 L 157.46 119.11 L 154.19 118.34 L 153.00 118.45 L 150.39 119.54 L 147.09 122.05 L 146.07 123.64 L 144.83 126.73 L 144.39 129.33 L 144.88 132.73 L 145.91 134.86 L 147.38 136.77 L 148.50 136.62 L 149.49 136.05 L 151.22 133.85 L 153.96 124.44 L 154.29 129.44 L 155.56 134.13 L 157.16 136.48 L 158.74 135.50 L 160.36 133.41 L 162.43 129.92 L 165.55 121.61 L 168.50 124.86 L 170.06 129.72 L 170.39 133.45 L 170.19 136.61 L 169.60 139.07 L 171.99 129.88 L 173.82 126.43 L 174.83 125.24 L 176.03 124.61 L 178.41 124.57 L 179.66 125.17 L 180.22 125.64 L 181.00 127.41 L 182.82 135.07 L 182.83 138.38 L 182.38 139.89 L 182.17 137.86 L 182.36 135.70 L 183.24 132.27 L 184.42 129.74 L 186.23 128.33 L 192.06 125.49 L 193.28 129.74 L 193.50 135.55 L 193.91 136.59 L 195.96 139.30 L 198.65 138.05 L 199.75 137.18 L 200.40 136.19 L 201.62 133.40 L 203.68 126.71 L 203.79 124.79 L 203.61 126.63 L 204.02 137.01 L 204.26 138.08 L 205.33 139.23 L 206.67 139.19 L 208.55 138.10 L 212.04 134.37 L 214.66 129.45 L 216.12 123.97 L 214.86 127.69 L 214.28 132.35 L 214.65 137.19 L 215.28 139.09 L 215.97 140.07 L 217.01 140.36 L 218.01 139.97 L 220.87 137.63 L 221.50 136.60 L 223.64 130.48" fill="none" stroke="rgb(0,0,0)" stroke-width="8.00" stroke-linecap="round" stroke-linejoin="round"/>
  <path d="M 232.81 149.20 L 235.47 136.07 L 241.34 115.43 L 245.76 103.76 L 255.47 81.45 L 255.57 80.19 L 253.12 83.71 L 252.75 85.27 L 253.02 87.76" fill="none" stroke="rgb(0,0,0)" stroke-width="8.00" stroke-linecap="round" stroke-linejoin="round"/>
  <path d="M 266.60 102.15 L 267.57 97.15 L 268.39 95.12 L 267.97 103.92 L 267.90 114.35 L 268.51 140.41 L 268.84 142.56 L 268.46 137.61 L 268.25 114.21 L 269.11 105.17 L 270.30 99.16 L 271.67 95.98 L 273.01 94.41 L 273.77 94.13 L 276.66 94.14 L 279.33 95.05 L 281.24 96.76 L 281.61 97.70 L 282.07 101.38 L 281.93 103.42 L 281.27 105.42 L 274.92 115.83 L 273.62 117.36 L 271.31 119.23 L 269.45 120.20 L 267.83 120.31" fill="none" stroke="rgb(0,0,0)" stroke-width="8.00" stroke-linecap="round" stroke-linejoin="round"/>
  <path d="M 275.23 145.82 L 284.49 125.90 L 285.50 122.49 L 283.85 134.14 L 283.87 137.74 L 284.27 141.32 L 285.34 144.30 L 286.26 145.85 L 286.59 143.24" fill="none" stroke="rgb(0,0,0)" stroke-width="8.00" stroke-linecap="round" stroke-linejoin="round"/>
  <path d="M 288.07 106.26 L 288.65 108.89" fill="none" stroke="rgb(0,0,0)" stroke-width="8.00" stroke-linecap="round" stroke-linejoin="round"/>
  <path d="M 293.78 139.95 L 296.46 125.09 L 296.99 123.99 L 296.99 128.78 L 296.33 135.94 L 295.60 153.70 L 294.66 166.41 L 294.82 172.16 L 295.23 145.39 L 296.07 137.06 L 297.83 129.75 L 299.74 125.67 L 301.37 123.60 L 302.64 122.78 L 304.06 122.88 L 304.91 123.50 L 309.18 128.87 L 310.10 130.92 L 310.62 135.45 L 310.43 137.26 L 309.76 139.38 L 308.32 141.95 L 306.85 143.09 L 305.19 143.46 L 305.82 144.57 L 307.02 145.58 L 309.20 145.78 L 310.85 145.35 L 313.50 144.11 L 315.22 142.71 L 317.95 139.31 L 320.52 134.89 L 321.32 130.30 L 320.98 129.30 L 318.19 129.29 L 317.09 129.99 L 316.13 131.30 L 313.49 137.73 L 313.69 141.57 L 314.36 142.73 L 315.52 143.58 L 316.93 143.85 L 320.91 143.64 L 322.33 145.06 L 324.78 144.93 L 326.24 143.86 L 328.01 139.38 L 329.26 137.31 L 331.34 136.59" fill="none" stroke="rgb(0,0,0)" stroke-width="8.00" stroke-linecap="round" stroke-linejoin="round"/>
  <path d="M 331.25 142.69 L 333.38 128.44 L 333.35 123.08 L 332.44 111.77 L 332.42 105.89 L 333.29 99.73 L 335.85 91.58 L 337.45 88.81 L 339.22 86.63 L 341.06 85.47 L 343.25 85.31 L 345.99 86.26 L 349.59 89.13 L 352.24 92.65 L 352.81 94.10" fill="none" stroke="rgb(0,0,0)" stroke-width="8.00" stroke-linecap="round" stroke-linejoin="round"/>
  <path d="M 328.62 120.40 L 332.06 119.83 L 335.68 118.80 L 337.79 118.01 L 343.29 115.12 L 345.67 114.40 L 346.40 114.48" fill="none" stroke="rgb(0,0,0)" stroke-width="8.00" stroke-linecap="round" stroke-linejoin="round"/>
  <path d="M 338.43 149.11 L 346.37 136.56 L 348.05 131.47 L 347.88 131.14 L 346.60 132.04 L 345.68 133.14 L 345.01 135.07 L 345.79 141.77 L 346.96 145.46 L 347.73 146.76 L 349.59 147.86 L 350.80 147.84 L 353.26 146.65 L 355.26 144.39 L 356.80 140.67 L 357.88 134.82 L 357.88 133.43 L 357.20 132.20 L 356.46 131.52 L 353.59 130.32 L 353.23 131.89 L 353.37 135.09 L 353.82 136.41 L 354.60 137.23 L 357.28 136.84 L 359.13 135.93 L 360.76 132.14 L 360.75 130.57 L 359.49 130.64 L 359.03 131.76 L 358.89 133.89 L 362.64 154.43 L 363.77 167.71 L 363.16 173.17 L 361.17 178.73 L 359.12 182.19 L 357.60 184.09 L 353.77 186.70 L 348.38 188.02 L 346.02 187.61 L 345.09 187.03 L 344.41 185.82 L 344.40 183.66 L 345.49 180.45 L 348.61 174.66 L 351.38 170.39 L 359.49 159.15 L 364.88 150.49 L 366.95 147.78 L 367.47 147.62" fill="none" stroke="rgb(0,0,0)" stroke-width="8.00" stroke-linecap="round" stroke-linejoin="round"/>
  <path d="M -356.51 262.62 L -358.93 262.73 L -361.00 263.35 L -362.59 264.92 L -362.86 266.37 L -362.41 267.63 L -361.38 268.88 L -360.04 269.65 L -358.17 270.16 L -355.93 269.81 L -355.01 269.38 L -354.01 266.83 L -354.05 266.18 L -358.59 264.29" fill="none" stroke="rgb(0,0,0)" stroke-width="8.00" stroke-linecap="round" stroke-linejoin="round"/>
  <path d="M -328.30 291.85 L -324.32 279.81 L -322.45 272.35 L -320.64 254.39 L -321.08 249.51 L -322.20 244.65 L -325.32 236.15 L -326.76 233.79 L -329.46 235.77 L -330.26 237.91 L -330.80 244.12 L -330.65 251.45 L -328.72 265.50 L -326.87 271.49 L -323.90 279.29 L -322.00 281.81 L -318.44 284.41 L -316.44 286.50 L -314.37 286.87 L -311.82 285.63 L -309.30 282.95 L -306.87 279.35 L -303.33 271.58 L -304.66 269.62 L -308.77 267.78 L -310.17 267.84 L -312.00 269.11 L -314.94 272.85 L -314.83 274.91 L -313.30 279.60 L -311.45 282.57 L -306.82 285.41 L -304.63 285.24 L -301.86 283.80" fill="none" stroke="rgb(0,0,0)" stroke-width="8.00" stroke-linecap="round" stroke-linejoin="round"/>
  <path d="M -285.88 273.00 L -288.08 270.22 L -289.26 269.26 L -290.51 268.58 L -292.53 268.09 L -295.19 267.78 L -297.46 268.01 L -299.03 268.65 L -301.37 270.65 L -302.86 273.00 L -303.62 274.99 L -303.84 277.06 L -303.49 279.08 L -302.94 280.38 L -301.60 282.19 L -296.71 284.93 L -294.92 285.44 L -293.37 285.25 L -291.12 283.17 L -289.78 280.73 L -289.00 277.92 L -288.16 272.73 L -288.35 269.79 L -289.63 266.65 L -290.68 271.23 L -290.69 275.67 L -290.29 278.33 L -288.89 282.25 L -286.72 283.65 L -285.38 283.88 L -284.14 282.97 L -282.74 280.99 L -280.30 275.50 L -276.28 271.48 L -271.47 269.60 L -269.60 268.46 L -271.07 272.84 L -271.96 277.90 L -271.87 280.81 L -270.50 285.10 L -269.84 285.93 L -268.73 286.48 L -266.07 286.17 L -264.21 285.40 L -263.37 284.63 L -262.42 282.27" fill="none" stroke="rgb(0,0,0)" stroke-width="8.00" stroke-linecap="round" stroke-linejoin="round"/>
  <path d="M -262.12 285.71 L -262.56 285.53 L -262.52 284.94 L -259.70 272.02 L -259.09 270.76 L -257.46 269.18 L -254.37 268.45 L -252.99 268.58 L -251.44 269.57 L -249.13 272.18 L -248.55 273.96 L -247.62 280.56 L -248.01 281.94 L -249.19 283.71 L -249.50 281.31 L -248.87 278.56 L -247.59 275.13 L -246.28 273.07 L -243.69 270.78 L -240.94 269.12 L -240.64 269.03" fill="none" stroke="rgb(0,0,0)" stroke-width="8.00" stroke-linecap="round" stroke-linejoin="round"/>
  <path d="M -243.97 275.30 L -244.22 275.14 L -244.17 279.63" fill="none" stroke="rgb(0,0,0)" stroke-width="8.00" stroke-linecap="round" stroke-linejoin="round"/>
  <path d="M -247.36 282.10 L -248.43 280.41 L -248.75 278.81 L -248.36 277.04 L -247.13 274.90 L -245.03 273.30 L -241.21 272.44 L -238.59 271.27 L -236.96 277.70 L -236.85 282.81 L -237.19 283.88 L -237.41 283.18" fill="none" stroke="rgb(0,0,0)" stroke-width="8.00" stroke-linecap="round" stroke-linejoin="round"/>
  <path d="M -208.24 232.76 L -205.73 251.45 L -203.74 262.18 L -202.16 274.20 L -200.83 281.15 L -199.94 282.79" fill="none" stroke="rgb(0,0,0)" stroke-width="8.00" stroke-linecap="round" stroke-linejoin="round"/>
  <path d="M -217.15 275.28 L -207.98 269.70 L -206.04 268.81 L -201.10 268.29 L -198.61 269.67" fill="none" stroke="rgb(0,0,0)" stroke-width="8.00" stroke-linecap="round" stroke-linejoin="round"/>
  <path d="M -190.16 268.40 L -193.98 270.26 L -195.57 271.46 L -196.60 272.71 L -197.43 274.74 L -197.31 277.90 L -196.13 282.56 L -194.88 285.46 L -193.05 286.70 L -190.77 286.14 L -187.86 284.63 L -184.29 280.89 L -182.15 277.79 L -180.99 275.29 L -179.97 269.32 L -180.32 267.74 L -181.31 266.61 L -183.74 266.15 L -185.65 266.27 L -188.80 267.31 L -193.53 270.37 L -194.89 272.58 L -193.66 273.83 L -191.73 274.52 L -185.52 273.88 L -181.27 272.32 L -179.53 271.35" fill="none" stroke="rgb(0,0,0)" stroke-width="8.00" stroke-linecap="round" stroke-linejoin="round"/>
  <path d="M -125.32 262.09 L -126.94 258.99 L -128.11 257.61 L -129.25 256.84 L -131.05 256.53 L -132.84 256.88 L -139.71 259.46 L -143.71 261.40 L -141.74 263.88 L -140.18 265.10 L -129.25 270.45 L -126.25 272.63 L -124.84 274.28 L -124.41 276.53 L -125.75 279.70 L -127.41 281.46 L -129.87 283.39 L -132.33 282.99 L -134.64 282.06 L -137.88 280.44 L -137.00 280.36" fill="none" stroke="rgb(0,0,0)" stroke-width="8.00" stroke-linecap="round" stroke-linejoin="round"/>
  <path d="M -107.51 267.77 L -110.85 266.43 L -118.96 264.52 L -121.63 264.69 L -123.73 265.79 L -125.14 267.28 L -126.98 270.44 L -127.39 271.61 L -127.33 273.96 L -126.75 275.38 L -125.47 277.16 L -121.23 280.05 L -119.51 280.21 L -117.37 279.14 L -116.24 277.74 L -114.53 274.28 L -113.24 269.11 L -114.82 267.86 L -115.64 267.63 L -115.98 268.13 L -116.09 269.39 L -115.66 272.12 L -114.18 275.54 L -112.61 276.99 L -110.81 278.27 L -108.72 278.69 L -106.83 278.39 L -103.19 276.63 L -102.04 275.59 L -100.36 272.55 L -99.07 268.60 L -99.96 267.08 L -101.80 266.59 L -102.57 266.79 L -103.19 268.57 L -103.01 271.40 L -102.09 274.74 L -100.97 277.33 L -99.95 278.50 L -98.42 279.53 L -96.70 279.45 L -93.21 276.95 L -92.05 275.21 L -90.49 271.73 L -89.94 270.13 L -89.97 267.99 L -91.29 265.60 L -85.75 270.72 L -82.17 274.78 L -78.74 279.66 L -77.05 284.00 L -76.59 286.78 L -76.47 293.62 L -77.39 298.83 L -78.97 302.63 L -80.67 305.42 L -82.84 308.09 L -85.40 310.03 L -87.87 310.92 L -90.32 311.32 L -93.28 310.87 L -96.39 309.40 L -100.24 305.77 L -101.76 303.23 L -101.97 302.23 L -101.66 300.91 L -100.46 299.62" fill="none" stroke="rgb(0,0,0)" stroke-width="8.00" stroke-linecap="round" stroke-linejoin="round"/>
  <path d="M -47.58 269.17 L -46.65 264.93 L -44.41 260.51 L -42.59 258.97 L -37.78 257.73 L -35.55 258.61 L -34.01 260.83 L -32.19 268.29 L -32.16 271.87 L -33.03 269.81 L -33.25 267.93 L -33.16 266.11 L -32.42 264.15 L -31.72 263.11 L -30.06 262.04 L -25.95 261.41 L -24.45 261.67 L -23.02 262.46 L -20.09 265.87 L -18.68 270.29 L -18.67 271.34 L -19.23 272.41" fill="none" stroke="rgb(0,0,0)" stroke-width="8.00" stroke-linecap="round" stroke-linejoin="round"/>
  <path d="M -5.16 264.19 L -9.79 263.20 L -11.53 263.53 L -13.41 264.89 L -14.48 266.69 L -14.82 268.11 L -14.18 271.40 L -13.39 273.00 L -12.26 274.25 L -9.37 276.22 L -7.24 276.66 L -5.78 276.54 L 0.24 274.31 L 2.44 272.89 L 4.62 270.86 L 5.83 268.95 L 6.37 266.30 L 6.25 264.84 L 5.65 263.42 L 3.94 261.29 L 1.81 259.47 L -2.57 258.41 L -5.62 258.39 L -7.59 258.73 L -12.44 260.00 L -13.99 260.86 L -10.67 263.42 L -6.63 265.31 L -1.79 266.86 L 4.60 267.70 L 7.18 267.44 L 8.91 266.73 L 10.26 265.63 L 11.12 262.68 L 10.89 260.30" fill="none" stroke="rgb(0,0,0)" stroke-width="8.00" stroke-linecap="round" stroke-linejoin="round"/>
  <path d="M -360.47 368.20 L -362.02 368.54 L -363.47 369.52 L -364.60 370.63 L -364.75 371.48 L -364.42 372.54 L -361.87 375.22 L -361.00 375.41 L -359.86 374.68 L -358.69 371.84 L -358.52 370.60 L -358.83 370.27 L -361.39 369.50" fill="none" stroke="rgb(0,0,0)" stroke-width="8.00" stroke-linecap="round" stroke-linejoin="round"/>
  <path d="M -324.11 360.68 L -326.89 357.38 L -328.60 356.39 L -330.33 358.07 L -333.35 362.20 L -334.24 365.53 L -333.98 370.57 L -332.45 374.86 L -331.01 376.71 L -327.93 379.05 L -325.76 380.16 L -323.80 380.08 L -321.13 378.87 L -319.46 377.02 L -318.73 375.54 L -317.37 370.25 L -317.32 366.46 L -319.13 360.63 L -323.10 355.75 L -324.85 354.87 L -328.08 354.16 L -330.10 354.62 L -331.88 355.58 L -334.94 358.85 L -335.21 360.30 L -335.05 361.28 L -334.21 362.93 L -332.85 364.80 L -330.83 366.67 L -329.50 367.21 L -325.15 366.70 L -319.02 366.51" fill="none" stroke="rgb(0,0,0)" stroke-width="8.00" stroke-linecap="round" stroke-linejoin="round"/>
  <path d="M -314.39 360.04 L -310.47 383.81 L -310.21 391.98 L -313.29 372.60 L -313.54 366.76 L -313.04 362.24 L -311.63 358.51 L -311.35 358.26 L -309.83 358.29 L -308.00 358.78 L -304.90 360.24 L -303.74 361.31 L -302.93 362.82 L -302.15 366.08 L -302.17 367.99 L -303.23 371.64 L -304.85 374.62 L -306.97 376.88 L -307.85 377.49 L -308.94 377.52 L -310.39 376.67 L -310.98 375.80 L -311.03 374.71 L -310.29 373.54" fill="none" stroke="rgb(0,0,0)" stroke-width="8.00" stroke-linecap="round" stroke-linejoin="round"/>
  <path d="M -298.27 343.36 L -298.77 337.28 L -296.76 348.24 L -293.74 360.67 L -291.42 368.36 L -289.98 370.89" fill="none" stroke="rgb(0,0,0)" stroke-width="8.00" stroke-linecap="round" stroke-linejoin="round"/>
  <path d="M -301.25 364.16 L -299.25 363.37 L -287.93 357.29 L -285.51 356.66 L -284.91 357.43" fill="none" stroke="rgb(0,0,0)" stroke-width="8.00" stroke-linecap="round" stroke-linejoin="round"/>
  <path d="M -280.18 374.15 L -278.27 367.47 L -276.83 364.58 L -275.73 369.84 L -274.80 371.76 L -273.71 373.15 L -272.93 366.74" fill="none" stroke="rgb(0,0,0)" stroke-width="8.00" stroke-linecap="round" stroke-linejoin="round"/>
  <path d="M -273.88 353.41 L -273.94 348.58" fill="none" stroke="rgb(0,0,0)" stroke-width="8.00" stroke-linecap="round" stroke-linejoin="round"/>
  <path d="M -262.43 370.46 L -262.15 370.42 L -264.01 365.69 L -263.92 362.51 L -261.61 356.31 L -260.32 355.18 L -258.60 354.84 L -257.84 355.02 L -256.83 355.97 L -255.51 358.35 L -254.98 360.07 L -253.24 367.40 L -253.28 368.17 L -254.63 370.28 L -255.18 367.66 L -251.92 359.41 L -250.72 357.94 L -248.90 357.57 L -248.13 357.83 L -246.77 359.28 L -244.77 362.92 L -242.68 370.96 L -242.57 372.47 L -242.88 373.87 L -244.98 372.30 L -245.92 370.90 L -246.21 369.39 L -245.92 367.02 L -244.58 364.12 L -243.65 362.96 L -239.55 361.88 L -235.46 362.19 L -231.80 364.15 L -231.30 366.64 L -231.19 371.10 L -230.27 373.12 L -228.69 375.46 L -226.80 374.38 L -225.66 372.97 L -223.37 365.36 L -222.34 363.13 L -220.77 370.06 L -219.94 371.37 L -217.83 372.93 L -216.51 373.33 L -214.60 372.74 L -214.23 372.37 L -213.29 369.50" fill="none" stroke="rgb(0,0,0)" stroke-width="8.00" stroke-linecap="round" stroke-linejoin="round"/>
  <path d="M -219.32 343.84 L -219.06 344.41" fill="none" stroke="rgb(0,0,0)" stroke-width="8.00" stroke-linecap="round" stroke-linejoin="round"/>
  <path d="M -212.44 353.33 L -203.06 351.87 L -198.47 351.98 L -196.79 352.62 L -195.36 354.53 L -194.62 357.36 L -194.63 358.95 L -195.63 362.38 L -199.57 370.42 L -201.14 372.59 L -200.54 371.98 L -198.64 371.93 L -193.49 370.18 L -189.98 369.71 L -189.26 369.32" fill="none" stroke="rgb(0,0,0)" stroke-width="8.00" stroke-linecap="round" stroke-linejoin="round"/>
  <path d="M -190.32 360.91 L -190.42 360.11 L -183.58 358.87 L -181.28 358.19 L -180.62 357.64 L -180.00 356.62 L -179.37 352.80 L -179.54 351.85 L -180.13 351.39 L -181.88 351.11 L -183.10 351.30 L -184.18 351.91 L -185.84 354.09 L -186.83 356.29 L -187.47 359.50 L -187.59 362.05 L -187.12 364.45 L -185.68 367.95 L -184.50 369.16 L -181.88 370.45 L -179.91 370.91 L -177.00 370.68 L -171.40 368.01 L -170.78 366.14" fill="none" stroke="rgb(0,0,0)" stroke-width="8.00" stroke-linecap="round" stroke-linejoin="round"/>
  <path d="M -130.56 365.51 L -129.60 365.24 L -132.74 350.01 L -134.70 342.57 L -138.73 329.59 L -138.94 327.52 L -138.50 326.55 L -134.19 325.12 L -130.06 325.22 L -127.80 325.67 L -124.91 326.72 L -124.72 330.91" fill="none" stroke="rgb(0,0,0)" stroke-width="8.00" stroke-linecap="round" stroke-linejoin="round"/>
  <path d="M -139.67 352.86 L -133.90 354.29 L -130.41 354.45 L -127.08 354.27 L -123.94 352.84 L -122.27 352.64 L -119.39 354.02" fill="none" stroke="rgb(0,0,0)" stroke-width="8.00" stroke-linecap="round" stroke-linejoin="round"/>
  <path d="M -117.22 353.70 L -118.73 355.37 L -120.78 358.89 L -121.18 360.51 L -121.05 362.53 L -119.29 365.09 L -116.33 367.76 L -114.59 368.71 L -112.36 368.69 L -110.46 368.20 L -107.55 366.88 L -105.06 365.10 L -104.03 363.66 L -103.66 362.48 L -103.26 359.47 L -103.40 356.87 L -104.80 353.37 L -108.43 350.60 L -112.12 349.08 L -115.69 348.47 L -117.65 348.64 L -119.32 349.67 L -121.11 352.99 L -121.54 354.42 L -121.38 356.55 L -120.53 358.04 L -118.96 359.33 L -115.87 361.18 L -114.32 361.77 L -112.42 361.97 L -108.85 361.50 L -107.95 361.12 L -106.84 359.89 L -105.22 356.64 L -103.20 353.75 L -101.28 352.25 L -98.08 351.09 L -95.29 351.72 L -93.18 352.69 L -92.90 353.11 L -92.48 356.40 L -93.45 362.21 L -93.09 364.04 L -89.90 363.84 L -86.54 362.94 L -80.10 360.28" fill="none" stroke="rgb(0,0,0)" stroke-width="8.00" stroke-linecap="round" stroke-linejoin="round"/>
  <path d="M -47.49 364.56 L -45.66 364.14 L -42.23 362.71 L -37.63 360.45 L -35.76 359.01 L -34.47 357.04 L -32.78 352.65 L -31.08 344.15 L -31.14 340.86 L -32.43 338.32 L -34.55 335.35 L -37.58 333.12 L -41.71 331.97 L -42.94 332.50 L -44.78 334.21 L -45.37 335.86 L -45.39 338.47 L -44.04 344.94 L -42.64 349.51 L -41.30 352.76 L -37.96 358.58 L -35.36 361.17 L -31.18 363.03 L -28.16 362.84 L -22.70 361.08 L -20.51 359.29 L -18.88 356.09 L -18.37 353.85 L -18.47 351.55 L -19.83 349.42 L -22.08 349.07 L -23.20 349.55 L -23.97 350.32 L -25.55 352.71 L -25.28 355.71 L -23.56 360.90 L -22.05 363.23 L -19.54 364.81 L -17.65 365.43 L -17.07 365.39 L -16.57 363.94" fill="none" stroke="rgb(0,0,0)" stroke-width="8.00" stroke-linecap="round" stroke-linejoin="round"/>
  <path d="M 0.26 354.56 L -5.19 353.04 L -7.63 353.84 L -9.69 355.97 L -11.68 360.01 L -12.02 361.13 L -11.96 362.92 L -10.05 366.46 L -8.12 367.87 L -6.10 367.60 L -3.71 366.23 L -2.52 364.97 L -1.03 359.31 L -1.08 356.39 L -1.27 360.21 L 0.59 364.80 L 3.91 367.60 L 4.90 367.98 L 5.83 367.80 L 7.62 366.14 L 8.85 361.59 L 8.73 358.54 L 8.25 356.92 L 8.59 355.38 L 11.36 353.76 L 15.76 352.49 L 17.92 352.26 L 20.62 352.48 L 20.52 355.33 L 18.64 361.57 L 18.49 364.88 L 18.76 367.18 L 20.12 368.93 L 21.52 369.39 L 23.00 369.32 L 26.60 367.49 L 28.23 365.75 L 29.35 363.77 L 30.61 359.21 L 31.81 356.63 L 34.29 355.47 L 35.87 355.23 L 37.13 355.83 L 38.10 357.12 L 41.86 368.58 L 42.70 361.90 L 44.95 357.29 L 48.38 353.59 L 50.40 352.27 L 53.77 351.26 L 54.05 351.44 L 54.68 355.21 L 54.69 365.41 L 55.57 367.85 L 56.29 368.84 L 57.51 369.16 L 59.06 369.12 L 60.67 368.26 L 62.03 366.82 L 64.59 358.80 L 65.48 357.35 L 66.95 365.14 L 67.84 367.37 L 69.61 370.14 L 70.72 370.04 L 71.39 369.19 L 73.54 362.73 L 74.95 360.29 L 76.19 359.42 L 77.50 359.17 L 78.73 359.44 L 79.75 360.61 L 82.48 366.48 L 82.57 368.63 L 84.06 364.21 L 86.75 359.71 L 89.01 357.56 L 92.06 356.79 L 93.29 357.03 L 94.52 358.00 L 96.74 364.28 L 96.65 369.92 L 95.67 369.45" fill="none" stroke="rgb(0,0,0)" stroke-width="8.00" stroke-linecap="round" stroke-linejoin="round"/>
  <path d="M 107.26 363.36 L 107.22 360.88 L 106.52 359.24 L 104.00 358.77 L 101.94 360.03 L 100.41 361.99 L 98.62 366.44 L 98.20 369.19 L 98.58 372.40 L 99.30 373.67 L 100.49 372.40 L 102.94 367.65 L 104.28 365.77 L 106.79 365.50 L 109.10 367.10 L 111.79 370.55 L 113.89 375.26 L 115.36 381.78 L 116.00 390.10 L 114.78 394.87 L 112.37 400.10 L 110.50 402.75 L 107.99 404.38 L 106.99 404.69 L 105.79 404.47 L 103.25 402.83" fill="none" stroke="rgb(0,0,0)" stroke-width="8.00" stroke-linecap="round" stroke-linejoin="round"/>
  <path d="M 60.90 340.08 L 60.90 340.08" fill="none" stroke="rgb(0,0,0)" stroke-width="8.00" stroke-linecap="round" stroke-linejoin="round"/>
  <path d="M -355.52 470.81 L -355.72 470.43 L -356.15 470.92 L -358.34 474.48 L -358.77 475.71 L -358.42 477.28 L -357.03 478.94 L -355.31 479.43 L -354.46 478.89 L -353.33 475.60 L -353.56 475.29 L -355.76 475.06" fill="none" stroke="rgb(0,0,0)" stroke-width="8.00" stroke-linecap="round" stroke-linejoin="round"/>
  <path d="M -321.23 456.81 L -323.06 460.06 L -323.45 461.43 L -323.51 467.83 L -322.45 472.48 L -320.33 479.11 L -319.06 480.69 L -317.92 481.45 L -315.33 481.41 L -314.13 480.81 L -312.49 479.00 L -310.14 470.79 L -310.15 468.59 L -310.55 470.60 L -310.51 474.83 L -307.68 482.89 L -306.62 483.99 L -304.98 484.93 L -303.28 484.83 L -301.77 484.02 L -299.56 481.21 L -298.73 478.22 L -298.06 473.14 L -298.84 467.23" fill="none" stroke="rgb(0,0,0)" stroke-width="8.00" stroke-linecap="round" stroke-linejoin="round"/>
  <path d="M -289.19 460.12 L -289.11 466.94 L -286.87 486.81 L -285.27 478.97 L -284.63 477.42 L -283.73 476.07 L -280.44 475.45 L -279.11 475.89 L -276.79 477.35 L -276.11 478.96 L -275.46 481.15 L -275.36 483.02 L -276.30 486.86" fill="none" stroke="rgb(0,0,0)" stroke-width="8.00" stroke-linecap="round" stroke-linejoin="round"/>
  <path d="M -263.66 490.82 L -259.58 478.23 L -258.50 476.04 L -258.20 474.83 L -258.47 474.47" fill="none" stroke="rgb(0,0,0)" stroke-width="8.00" stroke-linecap="round" stroke-linejoin="round"/>
  <path d="M -269.71 472.61 L -270.05 474.26 L -269.91 475.81 L -269.06 478.31 L -268.29 479.10 L -264.89 481.05 L -261.55 480.93 L -258.10 482.13" fill="none" stroke="rgb(0,0,0)" stroke-width="8.00" stroke-linecap="round" stroke-linejoin="round"/>
  <path d="M -216.80 472.38 L -217.03 477.02 L -216.70 480.42 L -215.18 484.71 L -214.37 485.80 L -213.39 486.41 L -211.38 486.44 L -209.70 485.35 L -208.04 482.76 L -206.15 478.42 L -205.97 477.31 L -204.86 482.25 L -202.69 485.93 L -201.46 486.97 L -199.95 487.63 L -197.54 487.49 L -195.12 485.70 L -194.07 481.30 L -194.37 476.25 L -194.69 475.93 L -195.49 476.28 L -195.97 478.23" fill="none" stroke="rgb(0,0,0)" stroke-width="8.00" stroke-linecap="round" stroke-linejoin="round"/>
  <path d="M -183.23 476.25 L -185.72 480.18 L -186.54 482.62 L -186.64 484.20 L -186.13 485.81 L -183.09 488.91 L -181.98 489.43 L -180.04 489.35 L -176.73 487.45 L -175.87 486.38 L -174.41 482.73 L -174.59 480.77 L -176.06 478.18 L -178.12 476.36 L -181.12 475.13 L -182.25 475.18 L -183.67 476.09 L -185.68 478.69 L -186.07 479.75 L -186.04 481.27 L -185.66 483.34 L -184.95 484.70 L -182.86 485.69 L -180.03 485.43 L -174.44 482.74 L -173.69 481.56 L -173.44 483.90 L -172.31 487.52 L -170.77 490.00 L -169.69 490.48 L -167.90 489.84 L -166.62 489.01 L -166.09 488.29 L -164.16 483.83 L -164.22 482.44 L -164.54 484.28 L -164.49 487.90 L -163.30 491.16 L -162.72 491.67 L -161.81 491.86 L -160.43 491.75 L -159.28 491.28 L -157.44 489.87 L -154.69 486.13 L -153.12 483.18 L -152.57 480.76 L -152.24 472.09 L -154.13 462.77 L -155.03 460.88 L -156.35 461.74 L -157.35 462.98 L -158.09 465.36 L -158.44 467.91 L -158.40 475.45 L -155.82 488.84 L -154.96 491.34 L -153.86 492.09 L -152.81 492.34 L -149.56 492.29 L -148.03 491.71" fill="none" stroke="rgb(0,0,0)" stroke-width="8.00" stroke-linecap="round" stroke-linejoin="round"/>
  <path d="M -132.27 486.14 L -134.06 485.06 L -137.67 483.82 L -138.55 483.71 L -140.10 484.09 L -141.43 484.85 L -142.74 486.32 L -144.83 489.41 L -145.62 491.75 L -145.34 493.29 L -143.45 495.52 L -141.54 496.42 L -140.16 496.21 L -138.29 494.96 L -136.87 493.40 L -135.43 491.11 L -133.97 487.88 L -133.08 483.21 L -131.34 466.19 L -131.52 459.08 L -131.96 456.61 L -132.93 454.12 L -134.39 457.49 L -134.55 462.89 L -131.29 484.72 L -130.51 487.48 L -128.44 490.58" fill="none" stroke="rgb(0,0,0)" stroke-width="8.00" stroke-linecap="round" stroke-linejoin="round"/>
  <path d="M -87.07 470.61 L -89.89 471.98 L -92.68 473.82 L -94.71 476.26 L -94.97 477.33 L -94.14 478.32 L -93.21 478.84 L -88.52 478.55 L -86.31 479.07 L -82.15 480.75 L -80.59 481.67 L -79.71 482.62 L -78.75 485.68 L -79.21 489.65 L -80.06 490.29 L -82.36 491.13 L -85.38 490.77" fill="none" stroke="rgb(0,0,0)" stroke-width="8.00" stroke-linecap="round" stroke-linejoin="round"/>
  <path d="M -70.98 478.76 L -73.19 479.64 L -74.90 480.77 L -76.57 482.41 L -76.97 483.58 L -77.02 484.67 L -76.21 488.17 L -74.47 490.95 L -73.19 491.77 L -70.67 491.51 L -69.41 491.02 L -67.18 489.81 L -65.90 488.58 L -65.02 486.99 L -63.74 481.31 L -63.76 477.95 L -65.04 475.46 L -66.96 473.91 L -70.40 472.92 L -71.39 472.91 L -72.77 473.60 L -75.58 476.88 L -76.37 478.68 L -76.18 480.80 L -74.03 484.36 L -72.96 485.39 L -71.32 486.09 L -70.03 486.14 L -68.34 485.21 L -62.76 480.17 L -59.58 478.94 L -57.99 478.85 L -57.34 479.38 L -56.22 481.96 L -54.74 486.39 L -54.81 488.33 L -54.94 487.19 L -54.38 485.37 L -52.98 482.87 L -50.73 481.89 L -47.50 481.41 L -44.96 482.63 L -43.66 484.60 L -42.17 489.37 L -42.08 491.76 L -42.48 489.47 L -42.16 487.06 L -39.32 482.26 L -37.23 481.79 L -36.62 482.66 L -35.11 486.67 L -33.11 490.21 L -32.50 490.92 L -31.27 491.54 L -29.39 491.81 L -25.21 489.49 L -23.52 487.65 L -21.50 483.44 L -21.48 483.04 L -21.89 482.78 L -24.16 481.77 L -25.85 481.61 L -27.33 482.27 L -29.35 483.94 L -30.31 486.67 L -29.86 491.97 L -28.17 494.66 L -27.27 495.11 L -25.42 494.97 L -23.91 494.39 L -19.43 491.74 L -18.09 490.77 L -15.67 488.05 L -16.05 497.32 L -14.10 500.13 L -13.17 500.81 L -11.14 500.50 L -8.01 498.36 L -3.29 487.24 L -3.24 486.13 L -3.96 485.44 L -8.22 483.82 L -9.71 484.44 L -10.82 485.63 L -13.22 488.71 L -13.36 489.14 L -12.95 489.76 L -12.10 490.28 L -10.88 490.34 L -5.07 488.84 L -2.27 489.25 L 2.22 492.01 L 3.89 495.37 L 3.98 497.05 L 4.65 494.14 L 6.22 490.38 L 7.34 489.58 L 11.45 487.99 L 12.00 488.57 L 13.48 492.26 L 17.12 499.11 L 18.24 499.88 L 20.13 499.97 L 24.48 497.24 L 29.75 492.38 L 30.97 488.97 L 30.78 488.59 L 28.78 488.21 L 26.97 488.93 L 25.02 490.41 L 22.46 495.95 L 22.36 497.37 L 22.68 498.58 L 24.16 501.12 L 27.27 503.34 L 28.47 503.67 L 30.41 503.53 L 36.17 500.86 L 38.44 499.17 L 39.06 497.84" fill="none" stroke="rgb(0,0,0)" stroke-width="8.00" stroke-linecap="round" stroke-linejoin="round"/>
  <path d="M 81.97 463.61 L 80.72 458.59 L 83.38 483.10 L 84.92 489.59 L 87.93 497.82 L 87.91 498.29 L 87.41 498.30 L 85.32 495.89 L 84.86 494.84 L 84.68 492.03 L 85.88 487.01 L 86.82 485.06 L 89.58 485.06 L 94.99 486.89 L 95.72 488.47 L 95.94 490.32 L 95.87 492.77 L 93.76 498.27 L 91.85 501.78 L 89.27 504.48 L 88.09 504.94 L 86.90 504.74 L 82.93 502.54 L 82.31 501.83 L 81.79 501.77 L 83.50 500.49" fill="none" stroke="rgb(0,0,0)" stroke-width="8.00" stroke-linecap="round" stroke-linejoin="round"/>
  <path d="M 100.47 501.12 L 103.36 500.97 L 105.43 500.44 L 107.63 499.43 L 108.40 498.48 L 109.10 497.23 L 110.22 492.85 L 111.66 490.10 L 108.52 488.81 L 106.86 489.48 L 105.91 490.56 L 104.16 493.21 L 102.73 496.54 L 103.10 500.95 L 104.87 507.05 L 105.45 508.15 L 107.39 509.82 L 108.81 509.71 L 110.71 508.66 L 113.95 506.08 L 117.64 501.76" fill="none" stroke="rgb(0,0,0)" stroke-width="8.00" stroke-linecap="round" stroke-linejoin="round"/>
  <path d="M 165.62 485.21 L 164.82 484.95 L 163.29 485.05 L 161.22 485.99 L 159.59 488.20 L 159.12 490.39 L 159.88 494.87 L 160.84 497.29 L 161.80 498.61 L 164.03 500.08 L 166.89 499.80 L 170.10 497.74 L 170.63 496.94 L 172.30 491.98 L 172.18 491.32 L 172.15 491.59 L 173.71 490.82 L 175.56 490.44 L 179.37 490.54 L 179.74 490.60 L 179.29 493.48 L 179.27 497.22 L 179.78 499.56 L 181.25 501.58 L 183.05 502.16 L 184.43 502.04 L 185.81 501.16 L 191.13 494.00 L 194.49 492.56 L 192.82 493.07 L 190.12 494.46 L 186.27 498.83 L 185.64 500.01 L 186.10 502.59 L 187.26 504.59 L 188.13 505.34 L 189.84 505.65 L 191.13 505.32 L 192.63 504.17 L 193.85 501.88 L 195.05 498.02 L 195.86 496.42 L 195.72 496.11 L 196.66 501.23 L 197.68 502.96 L 198.54 503.12 L 199.62 502.74 L 200.94 501.49 L 204.58 494.40 L 206.60 494.53 L 208.62 499.28 L 208.45 502.07 L 208.38 501.33 L 209.05 501.65 L 212.57 504.50 L 215.50 507.61 L 217.51 510.79 L 219.86 516.46 L 220.65 525.65 L 220.44 528.34 L 219.38 530.63 L 217.33 531.86 L 216.04 532.04 L 213.57 530.43 L 211.53 527.53 L 209.99 523.94 L 209.96 521.09 L 212.39 514.89 L 215.62 508.52 L 219.47 502.55 L 219.79 502.64 L 220.77 501.38" fill="none" stroke="rgb(0,0,0)" stroke-width="8.00" stroke-linecap="round" stroke-linejoin="round"/>
  <path d="M 227.47 503.15 L 227.90 503.06 L 228.89 500.02 L 232.66 492.50" fill="none" stroke="rgb(0,0,0)" stroke-width="8.00" stroke-linecap="round" stroke-linejoin="round"/>
  <path d="M 225.03 490.74 L 225.91 493.86 L 227.84 496.92 L 229.19 497.94 L 231.80 498.14 L 233.28 499.44 L 233.94 499.61" fill="none" stroke="rgb(0,0,0)" stroke-width="8.00" stroke-linecap="round" stroke-linejoin="round"/>
  <path d="M 274.06 496.10 L 273.81 493.15 L 274.17 491.37 L 274.83 490.81 L 278.96 490.15 L 281.94 490.98 L 284.96 492.79 L 286.95 494.94 L 287.80 497.85 L 287.42 501.91 L 286.59 504.75 L 285.86 501.60 L 285.91 498.19 L 286.39 496.52 L 286.98 495.65 L 288.19 494.74 L 290.63 494.11 L 292.83 492.85 L 293.66 492.89 L 295.31 493.94 L 298.41 497.89 L 299.11 499.54 L 296.66 505.47" fill="none" stroke="rgb(0,0,0)" stroke-width="8.00" stroke-linecap="round" stroke-linejoin="round"/>
  <path d="M 306.75 494.83 L 305.10 494.14 L 303.30 493.99 L 301.67 495.43 L 300.95 497.32 L 300.85 500.42 L 301.62 505.14 L 303.09 509.65 L 304.49 511.02 L 306.18 511.35 L 307.53 511.16 L 309.48 510.12 L 312.66 507.39 L 315.03 504.19 L 316.57 501.36 L 317.16 498.52 L 317.14 496.30 L 316.13 495.20 L 312.43 494.19 L 310.05 493.91 L 306.06 494.30 L 301.25 496.04 L 300.13 497.70 L 300.05 499.00 L 300.37 499.82 L 302.37 501.82 L 305.52 503.15 L 310.00 503.27 L 315.73 501.81 L 317.75 500.98 L 318.29 500.25 L 318.32 499.04" fill="none" stroke="rgb(0,0,0)" stroke-width="8.00" stroke-linecap="round" stroke-linejoin="round"/>
  <path d="M 319.26 463.76 L 320.02 472.22 L 322.23 484.22 L 323.60 488.96 L 326.35 494.89 L 328.53 501.83 L 330.01 505.01 L 329.76 505.35 L 329.07 505.45" fill="none" stroke="rgb(0,0,0)" stroke-width="8.00" stroke-linecap="round" stroke-linejoin="round"/>
  <path d="M 316.13 494.97 L 319.62 493.75 L 326.44 492.10 L 333.38 491.05" fill="none" stroke="rgb(0,0,0)" stroke-width="8.00" stroke-linecap="round" stroke-linejoin="round"/>
  <path d="M -324.87 521.15 L -325.41 525.32 L -325.49 531.42 L -325.10 546.99 L -324.44 553.90 L -322.96 555.85 L -320.17 557.78 L -318.38 557.83 L -315.43 557.10" fill="none" stroke="rgb(0,0,0)" stroke-width="8.00" stroke-linecap="round" stroke-linejoin="round"/>
  <path d="M -334.77 548.90 L -331.98 548.74 L -322.27 546.86 L -318.84 547.31" fill="none" stroke="rgb(0,0,0)" stroke-width="8.00" stroke-linecap="round" stroke-linejoin="round"/>
  <path d="M -313.73 553.80 L -313.91 555.75 L -312.76 559.89 L -311.29 561.24 L -309.87 561.42 L -308.52 560.93 L -305.54 558.92 L -301.65 557.24 L -300.64 556.03 L -299.93 553.38 L -301.07 551.07 L -302.69 550.05 L -307.04 548.90 L -308.55 548.97 L -309.64 549.52 L -312.30 553.06 L -312.27 553.45 L -311.19 553.68 L -308.10 553.29 L -300.77 551.15 L -298.63 551.07 L -295.91 551.70" fill="none" stroke="rgb(0,0,0)" stroke-width="8.00" stroke-linecap="round" stroke-linejoin="round"/>
  <path d="M -254.87 530.43 L -256.01 525.22 L -255.00 528.82 L -253.60 535.90 L -251.49 549.61 L -250.13 553.30 L -250.10 553.92 L -250.86 553.06 L -251.40 551.37 L -250.91 548.72 L -245.16 546.22 L -243.83 546.35 L -240.61 548.67 L -239.18 551.96 L -239.37 553.18 L -241.45 556.25 L -242.56 557.69 L -243.85 558.60 L -246.64 559.69 L -248.55 559.49 L -250.22 558.81" fill="none" stroke="rgb(0,0,0)" stroke-width="8.00" stroke-linecap="round" stroke-linejoin="round"/>
  <path d="M -232.74 557.70 L -230.78 556.75 L -228.56 554.93 L -227.80 552.21 L -228.15 550.95 L -229.63 551.84 L -230.55 553.60 L -230.58 554.75 L -229.87 556.71 L -228.52 557.83 L -227.35 558.27 L -222.57 557.40 L -221.54 555.12 L -221.59 554.40 L -221.83 554.40 L -221.78 556.33 L -220.61 558.59 L -217.83 559.65 L -216.25 559.47 L -212.70 557.68 L -211.91 554.78 L -212.06 553.58 L -212.56 553.19 L -212.91 555.19 L -212.82 556.72 L -210.39 560.82 L -209.68 561.44 L -208.03 561.97 L -205.81 561.89 L -203.82 560.55 L -202.51 557.22 L -202.58 556.25 L -198.15 561.22 L -194.43 566.30 L -192.39 571.57 L -190.79 577.19 L -189.96 586.73 L -191.06 588.20 L -192.76 589.28 L -195.72 589.25 L -199.43 588.03 L -207.64 583.77" fill="none" stroke="rgb(0,0,0)" stroke-width="8.00" stroke-linecap="round" stroke-linejoin="round"/>
  <path d="M -154.19 558.80 L -147.03 551.57 L -145.64 550.79 L -145.32 550.99 L -145.46 551.18" fill="none" stroke="rgb(0,0,0)" stroke-width="8.00" stroke-linecap="round" stroke-linejoin="round"/>
  <path d="M -157.70 543.42 L -154.37 547.71 L -151.74 549.74 L -151.04 549.73 L -150.93 548.97 L -149.90 550.99" fill="none" stroke="rgb(0,0,0)" stroke-width="8.00" stroke-linecap="round" stroke-linejoin="round"/>
  <path d="M -144.04 546.60 L -146.81 551.54 L -149.11 558.59" fill="none" stroke="rgb(0,0,0)" stroke-width="8.00" stroke-linecap="round" stroke-linejoin="round"/>
  <path d="M -135.13 550.83 L -137.03 551.70 L -139.71 553.68 L -140.28 554.90 L -139.92 556.11 L -137.30 559.75 L -135.89 561.17 L -133.95 562.22 L -133.01 562.38 L -129.61 562.05 L -127.99 561.39 L -127.25 560.46 L -125.62 556.34 L -125.65 554.14 L -127.28 550.86 L -129.17 548.99 L -131.74 548.01 L -133.41 548.22 L -135.97 549.70 L -138.46 551.90 L -138.24 553.01 L -136.92 554.74 L -135.44 555.85 L -133.88 556.53 L -131.43 556.18 L -126.94 553.75 L -125.54 553.46 L -125.59 555.28 L -124.66 559.09 L -122.40 562.51 L -120.63 562.78 L -118.37 561.41 L -115.64 556.13 L -115.32 559.34 L -114.06 563.07 L -113.40 564.05 L -112.54 564.59 L -110.60 564.48 L -108.79 563.37 L -107.50 560.04 L -105.92 558.12 L -101.26 556.09 L -100.34 559.64 L -99.87 565.81 L -98.48 568.14 L -97.64 568.72 L -96.22 568.92 L -93.98 567.83 L -93.68 566.71" fill="none" stroke="rgb(0,0,0)" stroke-width="8.00" stroke-linecap="round" stroke-linejoin="round"/>
  <path d="M -48.32 558.24 L -48.68 557.87 L -49.42 555.37 L -49.54 553.21 L -46.61 561.79 L -45.70 565.60 L -44.63 572.87 L -44.74 577.41 L -47.58 574.10 L -49.26 570.88 L -50.66 562.59 L -50.83 559.64 L -50.52 556.18 L -48.59 550.31 L -47.33 548.41 L -45.44 547.81 L -44.40 547.95 L -43.14 548.88 L -41.36 551.24 L -39.92 555.65 L -39.47 564.48 L -38.53 566.65 L -36.05 565.56 L -34.76 564.31 L -33.16 560.08 L -33.18 559.62 L -34.48 557.83 L -29.69 555.60 L -26.80 554.03 L -26.70 553.70 L -27.02 555.03 L -27.13 563.23 L -26.60 565.10 L -24.90 566.77 L -23.29 565.76 L -21.04 562.23 L -19.19 560.39 L -16.34 559.12 L -13.50 557.19 L -17.63 559.50 L -19.00 561.07 L -19.56 562.60 L -19.59 564.28 L -19.17 566.35 L -17.65 568.73 L -16.64 569.28 L -14.27 569.00 L -6.82 566.08 L -5.19 564.56 L -4.00 560.26 L -4.73 558.89 L -5.95 557.92 L -13.23 555.71 L -16.81 555.65 L -18.49 556.16 L -19.66 556.92 L -21.07 559.05 L -21.39 560.10 L -21.21 561.25 L -19.71 561.84 L -17.43 561.76 L -7.42 558.82 L -5.27 558.98" fill="none" stroke="rgb(0,0,0)" stroke-width="8.00" stroke-linecap="round" stroke-linejoin="round"/>
  <path d="M 8.78 559.04 L 4.19 558.43 L -0.30 559.45 L -2.99 561.72 L -4.82 564.62 L -5.14 565.99 L -4.20 567.66 L -3.26 568.56 L -2.35 568.97 L -1.12 568.91 L 1.15 567.18 L 3.39 564.01 L 4.61 561.66 L 6.89 555.97 L 8.35 549.21 L 8.05 544.71 L 6.87 541.89 L 4.77 544.37 L 4.00 546.59 L 3.67 549.18 L 4.50 560.13 L 6.07 565.95 L 7.21 568.35 L 8.76 569.78 L 9.69 570.15 L 11.40 570.01 L 13.02 569.24 L 14.03 568.21 L 16.05 563.95 L 16.73 562.08 L 16.54 561.02 L 16.33 565.63 L 17.05 567.47 L 18.11 568.90 L 19.07 569.11 L 20.85 568.87 L 21.96 568.27 L 23.49 566.48 L 25.55 561.01 L 26.32 559.94 L 26.93 562.95 L 27.05 568.29 L 27.36 570.10 L 27.81 570.87 L 28.38 571.35 L 29.36 571.37 L 30.74 571.02 L 33.27 569.63 L 34.28 569.55" fill="none" stroke="rgb(0,0,0)" stroke-width="8.00" stroke-linecap="round" stroke-linejoin="round"/>
  <path d="M 49.55 559.62 L 43.70 565.49 L 42.60 567.44 L 40.61 572.56 L 41.29 574.60 L 42.79 575.17 L 44.43 574.86 L 49.62 572.30" fill="none" stroke="rgb(0,0,0)" stroke-width="8.00" stroke-linecap="round" stroke-linejoin="round"/>
  <path d="M 58.15 542.79 L 59.18 549.45 L 61.88 559.38 L 64.86 573.48 L 66.61 579.27 L 67.50 580.55" fill="none" stroke="rgb(0,0,0)" stroke-width="8.00" stroke-linecap="round" stroke-linejoin="round"/>
  <path d="M 56.35 567.54 L 59.99 566.85 L 66.31 565.06 L 67.65 565.20" fill="none" stroke="rgb(0,0,0)" stroke-width="8.00" stroke-linecap="round" stroke-linejoin="round"/>
  <path d="M 79.96 547.77 L 80.23 545.11 L 80.99 542.47 L 81.94 541.17 L 82.98 540.79 L 94.33 540.45 L 98.10 541.16 L 99.69 542.48 L 100.40 543.85 L 101.19 546.70 L 101.19 548.64 L 99.88 553.37 L 97.82 558.20 L 95.41 565.84 L 95.20 570.09" fill="none" stroke="rgb(0,0,0)" stroke-width="8.00" stroke-linecap="round" stroke-linejoin="round"/>
  <path d="M 97.24 581.16 L 97.55 581.03" fill="none" stroke="rgb(0,0,0)" stroke-width="8.00" stroke-linecap="round" stroke-linejoin="round"/>
  <path d="M -356.53 430.52 L -358.33 425.89 L -358.34 426.67 L -360.68 430.25 L -360.47 433.87 L -358.82 438.43 L -355.51 445.04 L -354.83 445.86 L -352.68 446.48 L -350.69 445.59 L -349.27 442.14 L -349.35 436.70 L -349.97 433.94 L -349.89 435.24 L -348.22 440.54 L -346.72 443.67 L -344.13 446.75 L -342.12 446.73 L -341.32 446.30 L -339.13 441.78 L -339.02 439.58 L -342.32 432.30 L -342.43 431.50 L -342.08 431.55" fill="none" stroke="rgb(0,0,0)" stroke-width="8.00" stroke-linecap="round" stroke-linejoin="round"/>
  <path d="M -334.18 427.13 L -330.81 441.26 L -328.62 445.21 L -328.76 447.17 L -328.77 446.70 L -330.46 443.91 L -331.43 435.19 L -330.30 433.61 L -327.03 432.06 L -324.69 432.33 L -322.11 433.53 L -318.32 440.07 L -317.69 442.04 L -319.65 446.23" fill="none" stroke="rgb(0,0,0)" stroke-width="8.00" stroke-linecap="round" stroke-linejoin="round"/>
  <path d="M -305.21 437.42 L -306.21 434.04 L -306.84 433.10 L -311.15 432.25 L -312.98 433.57 L -313.82 434.65 L -315.20 438.96 L -315.01 442.51 L -312.60 447.56 L -311.42 448.47 L -310.49 448.66 L -308.99 448.27 L -303.88 445.60 L -302.54 442.01 L -302.51 440.53 L -302.87 439.38 L -303.79 437.50 L -306.62 433.89 L -308.77 432.10 L -313.07 430.82 L -314.19 430.78 L -317.42 432.70" fill="none" stroke="rgb(0,0,0)" stroke-width="8.00" stroke-linecap="round" stroke-linejoin="round"/>
  <path d="M -337.46 418.60 L -334.22 422.85 L -332.22 426.57 L -330.79 434.66 L -329.75 436.82" fill="none" stroke="rgb(0,0,0)" stroke-width="8.00" stroke-linecap="round" stroke-linejoin="round"/>
  <path d="M -283.81 433.07 L -283.78 437.62 L -283.30 439.49 L -281.93 442.05 L -281.63 443.18 L -281.63 443.61 L -281.82 443.37" fill="none" stroke="rgb(0,0,0)" stroke-width="8.00" stroke-linecap="round" stroke-linejoin="round"/>
  <path d="M -291.42 439.16 L -283.67 441.21 L -280.72 441.39 L -278.00 441.11 L -276.79 440.35" fill="none" stroke="rgb(0,0,0)" stroke-width="8.00" stroke-linecap="round" stroke-linejoin="round"/>
  <path d="M -275.60 607.17 L -276.11 610.08 L -275.51 613.13 L -273.85 616.69 L -272.50 618.71 L -270.85 620.43 L -261.76 626.54 L -255.63 629.87 L -252.22 632.32 L -246.78 633.83 L -241.81 633.84 L -243.66 633.83 L -245.80 632.99" fill="none" stroke="rgb(0,0,0)" stroke-width="8.00" stroke-linecap="round" stroke-linejoin="round"/>
  <path d="M -247.74 627.53 L -243.49 630.58 L -241.30 631.78 L -241.58 631.63 L -243.14 636.27 L -243.16 637.65 L -244.32 638.22 L -245.45 636.75 L -245.39 635.35" fill="none" stroke="rgb(0,0,0)" stroke-width="8.00" stroke-linecap="round" stroke-linejoin="round"/>
  <path d="M -218.58 613.10 L -217.24 617.47 L -213.87 624.95 L -209.16 644.03 L -207.59 646.41" fill="none" stroke="rgb(0,0,0)" stroke-width="8.00" stroke-linecap="round" stroke-linejoin="round"/>
  <path d="M -204.73 613.81 L -204.85 615.76 L -204.53 618.46 L -203.24 623.04 L -199.43 630.63 L -197.83 634.65 L -195.80 638.01 L -194.45 639.46" fill="none" stroke="rgb(0,0,0)" stroke-width="8.00" stroke-linecap="round" stroke-linejoin="round"/>
  <path d="M -216.10 634.02 L -204.49 632.18 L -200.58 632.33 L -198.06 632.88 L -195.56 632.33" fill="none" stroke="rgb(0,0,0)" stroke-width="8.00" stroke-linecap="round" stroke-linejoin="round"/>
  <path d="M -185.10 628.29 L -186.05 628.16 L -188.60 628.75 L -189.96 629.63 L -191.17 631.06 L -191.46 632.48 L -190.76 636.66 L -188.86 643.43 L -187.89 645.37 L -186.18 646.52 L -184.41 646.76 L -182.47 646.31 L -180.72 645.23 L -178.85 642.38 L -178.02 640.32 L -176.65 633.68 L -176.91 631.99 L -178.97 628.82 L -180.10 627.79 L -182.34 626.50 L -185.01 625.77 L -186.45 625.96 L -187.51 626.44 L -189.25 627.89 L -192.11 631.40 L -192.75 632.94 L -192.04 633.90" fill="none" stroke="rgb(0,0,0)" stroke-width="8.00" stroke-linecap="round" stroke-linejoin="round"/>
  <path d="M -176.96 627.15 L -177.24 633.63 L -176.33 637.74 L -174.68 641.64 L -173.17 643.04 L -172.16 643.43 L -170.89 643.31 L -169.20 642.49 L -168.02 641.20 L -166.37 638.45 L -164.67 630.41 L -163.63 627.34 L -163.73 628.51 L -163.16 631.92 L -161.99 636.22 L -160.46 639.90 L -159.26 642.15 L -157.61 644.18 L -156.79 644.74 L -156.19 644.51 L -155.23 643.45 L -153.85 640.68 L -150.77 629.65" fill="none" stroke="rgb(0,0,0)" stroke-width="8.00" stroke-linecap="round" stroke-linejoin="round"/>
  <path d="M -108.88 631.31 L -109.27 633.79 L -108.80 636.87 L -107.69 640.15 L -106.30 641.74 L -103.56 643.18 L -102.09 642.34 L -99.06 633.60 L -99.20 630.76 L -100.06 633.87 L -99.43 636.03 L -97.40 639.53 L -95.24 642.30 L -93.64 643.65 L -92.69 643.84 L -90.42 643.08 L -89.63 641.93 L -88.27 638.70 L -86.95 634.58 L -87.26 630.57" fill="none" stroke="rgb(0,0,0)" stroke-width="8.00" stroke-linecap="round" stroke-linejoin="round"/>
  <path d="M -84.26 644.62 L -81.42 646.13 L -79.19 646.60 L -77.55 646.49 L -75.51 645.28 L -73.01 642.44 L -71.20 637.65 L -71.18 636.34 L -71.52 635.97 L -73.65 635.49 L -75.14 635.98 L -75.94 636.71 L -76.68 637.59 L -77.26 639.31 L -76.50 644.39 L -74.87 647.17 L -71.64 648.28 L -68.28 648.14 L -63.81 645.54 L -61.01 642.51 L -59.40 637.23 L -57.81 629.78 L -57.37 627.07 L -57.30 623.34 L -57.48 618.58 L -57.92 616.95 L -59.59 614.29 L -61.54 613.53 L -62.16 613.73 L -63.10 615.97 L -63.79 621.56 L -63.23 636.11 L -62.46 640.21 L -61.22 642.76 L -60.39 643.91 L -58.72 645.32 L -54.29 648.04 L -53.42 648.11 L -51.30 647.09 L -48.92 644.88 L -45.94 641.38 L -42.90 635.34 L -41.52 628.66 L -41.46 626.65 L -42.78 621.72 L -43.86 619.20 L -45.21 617.24 L -46.80 616.66 L -47.82 617.04 L -48.73 618.15 L -49.78 621.72 L -50.04 625.54 L -49.45 632.40 L -48.10 638.38 L -46.93 640.46 L -45.12 642.18 L -41.59 644.58" fill="none" stroke="rgb(0,0,0)" stroke-width="8.00" stroke-linecap="round" stroke-linejoin="round"/>
  <path d="M 5.85 632.36 L 1.63 635.05 L -0.49 637.27 L -0.69 638.21 L -0.47 639.09 L 2.01 644.35 L 4.02 646.74 L 5.95 647.44 L 9.45 647.15 L 13.99 645.15" fill="none" stroke="rgb(0,0,0)" stroke-width="8.00" stroke-linecap="round" stroke-linejoin="round"/>
  <path d="M 22.63 638.24 L 18.90 639.38 L 16.60 641.47 L 15.62 643.04 L 15.19 644.38 L 15.91 646.81 L 17.87 647.67 L 20.86 647.36 L 22.35 646.41 L 24.96 643.29 L 24.59 643.74 L 26.00 644.11 L 27.78 646.61 L 29.04 647.62 L 31.69 648.63 L 34.33 648.71" fill="none" stroke="rgb(0,0,0)" stroke-width="8.00" stroke-linecap="round" stroke-linejoin="round"/>
  <path d="M 34.04 647.94 L 35.85 642.25 L 36.97 640.06 L 37.38 639.70 L 40.56 638.84 L 41.22 639.46 L 43.80 646.66 L 43.62 645.85 L 44.30 643.96 L 47.07 640.16 L 48.64 638.95 L 51.27 638.39 L 52.63 638.56 L 54.58 639.88 L 55.45 642.47 L 55.55 646.04" fill="none" stroke="rgb(0,0,0)" stroke-width="8.00" stroke-linecap="round" stroke-linejoin="round"/>
  <path d="M 95.90 643.05 L 95.85 639.37 L 95.12 637.75 L 89.17 636.17 L 87.80 636.42 L 85.64 637.86 L 83.28 641.00 L 82.30 643.08 L 81.80 645.25 L 82.07 648.81 L 82.88 651.31 L 84.86 654.00 L 86.06 654.37 L 87.98 653.85 L 89.68 652.39 L 91.14 650.33 L 93.06 643.75 L 93.24 639.99 L 93.27 643.74 L 94.15 648.73 L 95.33 652.44 L 96.68 654.82 L 97.80 654.36 L 98.87 652.92 L 100.60 647.22 L 100.49 645.65 L 105.31 643.28 L 105.82 643.55 L 106.36 646.83 L 106.61 652.56 L 107.49 654.74 L 109.31 657.57 L 109.91 658.05 L 111.62 656.96 L 112.41 655.13" fill="none" stroke="rgb(0,0,0)" stroke-width="8.00" stroke-linecap="round" stroke-linejoin="round"/>
  <path d="M 113.56 618.09 L 117.65 647.76 L 118.78 651.31 L 119.55 652.05 L 119.72 651.92" fill="none" stroke="rgb(0,0,0)" stroke-width="8.00" stroke-linecap="round" stroke-linejoin="round"/>
  <path d="M 109.93 642.21 L 121.40 642.26 L 123.96 642.83 L 127.08 644.07 L 128.67 645.07" fill="none" stroke="rgb(0,0,0)" stroke-width="8.00" stroke-linecap="round" stroke-linejoin="round"/>
  <path d="M 129.09 653.46 L 131.41 648.84 L 132.70 645.49 L 132.50 646.28 L 132.79 649.84 L 133.09 651.69 L 133.28 651.91 L 133.49 651.52" fill="none" stroke="rgb(0,0,0)" stroke-width="8.00" stroke-linecap="round" stroke-linejoin="round"/>
  <path d="M 134.93 633.73 L 137.54 637.86" fill="none" stroke="rgb(0,0,0)" stroke-width="8.00" stroke-linecap="round" stroke-linejoin="round"/>
  <path d="M 146.83 640.18 L 145.45 639.62 L 142.87 639.93 L 141.44 640.92 L 140.32 642.76 L 139.99 645.94 L 140.44 650.23 L 141.31 654.85 L 142.27 656.77 L 143.01 656.99 L 144.25 656.80 L 148.20 653.95 L 152.23 649.35 L 154.24 645.65 L 154.28 645.04 L 151.93 647.31 L 151.39 648.63 L 151.81 651.10 L 154.14 656.67 L 154.84 656.96 L 156.40 656.68 L 159.71 654.11 L 161.21 652.49 L 162.53 649.52 L 162.69 648.10 L 162.19 647.69 L 161.62 647.97 L 161.36 651.47 L 161.81 655.15 L 162.24 656.11 L 162.89 656.41 L 164.43 655.70 L 166.86 653.52 L 172.22 646.85 L 175.77 639.93 L 177.21 636.15 L 178.01 632.82 L 178.93 623.12 L 178.87 622.24 L 178.39 621.45 L 176.64 621.69 L 174.05 623.28 L 172.46 624.94 L 169.82 629.13 L 168.22 633.71 L 166.90 640.86 L 167.00 645.87 L 168.14 650.98 L 169.53 651.79 L 174.47 652.44" fill="none" stroke="rgb(0,0,0)" stroke-width="8.00" stroke-linecap="round" stroke-linejoin="round"/>
  <path d="M 187.86 647.43 L 185.64 646.24 L 181.33 644.74 L 180.17 644.85 L 178.85 645.54 L 177.88 647.18 L 176.60 651.17 L 176.43 653.82 L 176.92 656.39 L 177.66 657.28 L 178.46 657.37 L 181.32 655.91 L 183.97 652.87 L 185.73 649.48 L 186.45 652.76 L 188.23 656.07 L 189.26 656.67 L 189.85 656.67 L 190.63 656.34 L 191.21 655.49" fill="none" stroke="rgb(0,0,0)" stroke-width="8.00" stroke-linecap="round" stroke-linejoin="round"/>
  <path d="M 195.37 626.89 L 195.52 623.17 L 195.74 632.96 L 196.90 641.22 L 198.51 645.77 L 202.99 655.10" fill="none" stroke="rgb(0,0,0)" stroke-width="8.00" stroke-linecap="round" stroke-linejoin="round"/>
  <path d="M 189.58 643.83 L 194.93 642.89 L 201.81 642.98 L 205.83 641.98" fill="none" stroke="rgb(0,0,0)" stroke-width="8.00" stroke-linecap="round" stroke-linejoin="round"/>
  <path d="M 204.22 651.61 L 207.19 652.07 L 212.11 652.04 L 214.89 651.38 L 219.71 649.54 L 221.05 648.25 L 221.94 644.78 L 221.57 644.20 L 219.82 643.72 L 217.29 644.43 L 212.92 647.45 L 211.26 649.75 L 210.98 650.84 L 211.45 651.74 L 213.01 653.33 L 215.53 654.68 L 218.24 654.85 L 219.66 654.66 L 221.41 653.94" fill="none" stroke="rgb(0,0,0)" stroke-width="8.00" stroke-linecap="round" stroke-linejoin="round"/>
  <path d="M 262.96 619.17 L 261.79 621.28 L 259.82 626.35 L 259.06 630.33 L 259.57 638.63 L 259.42 643.50 L 260.13 649.58 L 261.02 653.07 L 262.01 654.59 L 264.46 656.12 L 265.54 656.30 L 267.77 655.94 L 269.16 655.41 L 272.18 653.25 L 274.40 651.01 L 274.62 649.41" fill="none" stroke="rgb(0,0,0)" stroke-width="8.00" stroke-linecap="round" stroke-linejoin="round"/>
  <path d="M 257.41 644.37 L 259.51 645.01 L 261.42 645.19 L 265.64 644.83 L 267.52 644.39 L 271.60 642.06 L 273.91 641.41" fill="none" stroke="rgb(0,0,0)" stroke-width="8.00" stroke-linecap="round" stroke-linejoin="round"/>
  <path d="M 280.41 622.26 L 279.55 624.88 L 278.95 628.23 L 278.76 631.76 L 278.90 640.52 L 279.66 647.71 L 279.66 653.19 L 283.17 647.60 L 286.32 643.63 L 289.38 641.44 L 293.12 641.10 L 294.42 642.05 L 295.27 643.50 L 295.43 645.95 L 293.47 650.37 L 290.32 659.70 L 293.79 654.45" fill="none" stroke="rgb(0,0,0)" stroke-width="8.00" stroke-linecap="round" stroke-linejoin="round"/>
  <path d="M 305.85 646.93 L 306.81 645.39 L 306.48 644.70 L 304.85 644.14 L 302.77 644.16 L 301.46 644.56 L 299.38 645.80 L 296.94 648.48 L 295.52 651.60 L 295.15 654.38 L 295.60 658.10 L 296.80 660.74 L 297.47 661.12 L 298.38 660.90 L 299.88 659.88 L 301.00 658.56 L 305.85 647.05 L 305.86 648.76 L 304.87 654.19 L 304.72 658.30 L 306.82 659.35 L 308.62 659.19 L 309.39 657.39 L 310.17 653.10" fill="none" stroke="rgb(0,0,0)" stroke-width="8.00" stroke-linecap="round" stroke-linejoin="round"/>
  <path d="M 315.64 621.17 L 314.72 624.77 L 314.16 628.66 L 313.44 636.92 L 313.42 641.84 L 314.66 652.15 L 315.91 656.72 L 317.23 659.26 L 316.91 659.32" fill="none" stroke="rgb(0,0,0)" stroke-width="8.00" stroke-linecap="round" stroke-linejoin="round"/>
  <path d="M 305.11 642.46 L 309.69 641.09 L 314.90 640.04 L 321.00 639.80 L 323.81 639.17 L 324.51 639.41" fill="none" stroke="rgb(0,0,0)" stroke-width="8.00" stroke-linecap="round" stroke-linejoin="round"/>
  <path d="M 326.42 610.14 L 327.16 608.05 L 328.24 606.66 L 329.67 605.80 L 332.04 605.44 L 333.89 606.16 L 335.48 607.36 L 336.82 608.88 L 338.33 611.57 L 339.51 614.51 L 340.33 619.07 L 340.23 628.96 L 340.98 635.14 L 340.50 638.61" fill="none" stroke="rgb(0,0,0)" stroke-width="8.00" stroke-linecap="round" stroke-linejoin="round"/>
  <path d="M 335.57 650.90 L 335.88 650.44" fill="none" stroke="rgb(0,0,0)" stroke-width="8.00" stroke-linecap="round" stroke-linejoin="round"/>
  <path d="M 207.41 714.30 L 206.04 716.55 L 207.35 709.62 L 206.60 704.61 L 206.54 701.49 L 208.08 697.52 L 211.73 692.25 L 212.70 691.61 L 213.94 691.36 L 215.01 691.53 L 216.59 692.64 L 218.23 695.42 L 217.93 696.51 L 216.02 698.56" fill="none" stroke="rgb(0,0,0)" stroke-width="8.00" stroke-linecap="round" stroke-linejoin="round"/>
  <path d="M 201.69 715.71 L 204.70 714.64 L 209.76 711.79 L 218.94 704.83 L 222.17 703.76" fill="none" stroke="rgb(0,0,0)" stroke-width="8.00" stroke-linecap="round" stroke-linejoin="round"/>
  <path d="M 222.13 716.59 L 223.12 715.30 L 224.87 711.48 L 224.64 708.78 L 224.12 707.73 L 223.76 707.79 L 223.85 707.36 L 225.33 706.21 L 227.90 705.22 L 228.31 708.19 L 228.08 710.57 L 228.33 711.97 L 229.28 714.23 L 230.03 714.87 L 233.20 714.77 L 236.00 713.48 L 238.29 710.22 L 239.15 708.20 L 238.88 708.77 L 237.50 708.96 L 236.58 709.49 L 235.78 711.58 L 236.52 714.95 L 237.44 717.18 L 237.96 717.71 L 238.90 717.92 L 241.09 717.68 L 242.87 716.61 L 246.65 711.50 L 247.33 709.37 L 247.34 707.35 L 246.17 705.60 L 243.60 704.94 L 241.85 704.93 L 238.11 706.04 L 236.77 706.98 L 236.18 708.02 L 236.15 709.26 L 236.75 710.41 L 238.02 710.86 L 241.79 710.06 L 245.20 707.94 L 248.80 706.34 L 250.14 705.30 L 253.07 704.54 L 253.72 704.84 L 254.48 705.81 L 255.74 709.00 L 255.91 711.13 L 255.35 713.04 L 255.31 711.93 L 255.77 710.20 L 257.06 707.58 L 259.20 705.77 L 262.43 704.54 L 262.92 706.94 L 261.49 713.19 L 266.04 707.14 L 266.90 706.51 L 268.05 706.20 L 271.03 706.13 L 272.11 706.61 L 272.91 708.79 L 272.87 711.35" fill="none" stroke="rgb(0,0,0)" stroke-width="8.00" stroke-linecap="round" stroke-linejoin="round"/>
  <path d="M 301.31 694.54 L 299.28 693.88 L 297.16 693.84 L 296.27 694.46 L 295.35 695.72 L 294.54 698.05 L 294.07 701.15 L 294.16 707.41 L 295.09 711.38 L 295.67 712.20 L 296.54 712.73 L 299.77 712.24 L 303.05 712.32 L 305.50 711.36 L 307.38 708.72 L 308.14 703.05 L 308.11 701.41 L 307.50 698.98 L 306.07 696.43 L 302.89 694.77 L 297.33 693.74 L 296.87 693.30" fill="none" stroke="rgb(0,0,0)" stroke-width="8.00" stroke-linecap="round" stroke-linejoin="round"/>
  <path d="M 308.87 702.59 L 311.62 702.06 L 315.73 702.14 L 317.85 702.55 L 318.09 702.29" fill="none" stroke="rgb(0,0,0)" stroke-width="8.00" stroke-linecap="round" stroke-linejoin="round"/>
  <path d="M 327.95 704.41 L 329.49 702.04 L 332.63 695.05 L 333.61 695.62 L 334.98 698.85 L 335.97 703.13 L 335.79 713.25 L 334.23 716.02 L 331.92 717.26 L 330.16 717.52 L 332.82 716.80 L 336.42 716.74 L 339.21 715.57" fill="none" stroke="rgb(0,0,0)" stroke-width="8.00" stroke-linecap="round" stroke-linejoin="round"/>
  <path d="M 351.54 698.04 L 347.92 699.12 L 345.62 701.10 L 344.04 704.49 L 343.47 708.22 L 343.52 713.24 L 344.17 716.15 L 346.24 718.82 L 347.44 719.26 L 349.25 719.19 L 352.44 717.25 L 353.62 715.96 L 355.29 713.29 L 357.28 703.73 L 356.87 700.91 L 355.36 698.46 L 352.92 697.77 L 351.03 698.16" fill="none" stroke="rgb(0,0,0)" stroke-width="8.00" stroke-linecap="round" stroke-linejoin="round"/>
  <path d="M -349.52 766.45 L -349.46 765.96 L -350.39 766.31 L -353.97 768.50 L -353.80 769.95 L -352.76 771.21 L -352.25 771.29 L -352.57 770.96" fill="none" stroke="rgb(0,0,0)" stroke-width="8.00" stroke-linecap="round" stroke-linejoin="round"/>
  <path d="M -321.93 748.74 L -326.41 753.59 L -328.91 758.13 L -329.54 763.16 L -329.41 768.04 L -328.14 772.02 L -326.68 774.12 L -323.53 777.08 L -321.17 778.02 L -319.03 777.81 L -315.49 776.72 L -311.72 775.04 L -309.70 772.11" fill="none" stroke="rgb(0,0,0)" stroke-width="8.00" stroke-linecap="round" stroke-linejoin="round"/>
  <path d="M -302.57 779.43 L -299.94 773.15 L -298.28 766.71 L -297.04 756.10 L -297.11 749.57 L -297.93 746.03 L -300.20 740.50 L -303.20 735.16 L -304.71 733.59 L -306.55 732.48 L -310.49 731.83 L -312.92 734.25 L -313.67 736.49 L -313.25 743.63 L -311.68 750.96 L -309.10 757.97 L -304.83 766.30 L -300.82 773.02 L -296.99 777.18" fill="none" stroke="rgb(0,0,0)" stroke-width="8.00" stroke-linecap="round" stroke-linejoin="round"/>
  <path d="M -280.79 757.64 L -283.74 754.07 L -285.16 753.21 L -286.55 752.90 L -287.21 753.39 L -289.72 759.34 L -290.34 762.76 L -289.96 769.16 L -287.99 776.03 L -287.42 777.25 L -286.38 778.20 L -284.45 778.08 L -282.99 777.29 L -282.43 776.43 L -281.54 773.55 L -280.96 771.02 L -280.88 768.76 L -281.17 762.29 L -281.54 760.64 L -281.90 760.35 L -281.46 764.68 L -279.27 772.21 L -277.24 775.06 L -274.19 777.55 L -273.20 777.86 L -271.35 777.04 L -270.28 773.92 L -270.26 770.14 L -271.80 764.73 L -271.75 764.03 L -270.63 761.95 L -269.06 760.51 L -261.62 757.19 L -260.72 762.06 L -259.70 771.97 L -259.12 773.94 L -257.79 776.63 L -255.34 779.14 L -254.45 779.37 L -253.21 778.96 L -251.65 775.93 L -249.23 765.66 L -249.33 767.28 L -246.08 777.63 L -245.04 779.14 L -241.96 782.10 L -240.93 784.37" fill="none" stroke="rgb(0,0,0)" stroke-width="8.00" stroke-linecap="round" stroke-linejoin="round"/>
  <path d="M -246.00 745.72 L -245.09 749.65 L -242.84 755.31" fill="none" stroke="rgb(0,0,0)" stroke-width="8.00" stroke-linecap="round" stroke-linejoin="round"/>
  <path d="M -233.15 729.02 L -231.44 741.21 L -230.50 744.77 L -226.11 757.21 L -222.13 772.73 L -221.06 775.09 L -219.54 777.39" fill="none" stroke="rgb(0,0,0)" stroke-width="8.00" stroke-linecap="round" stroke-linejoin="round"/>
  <path d="M -232.82 770.31 L -229.18 769.62 L -222.32 766.98 L -216.53 765.40" fill="none" stroke="rgb(0,0,0)" stroke-width="8.00" stroke-linecap="round" stroke-linejoin="round"/>
  <path d="M -209.22 784.27 L -204.86 761.39 L -203.19 756.62" fill="none" stroke="rgb(0,0,0)" stroke-width="8.00" stroke-linecap="round" stroke-linejoin="round"/>
  <path d="M -217.34 757.96 L -214.73 762.92 L -213.29 764.73 L -206.51 768.13" fill="none" stroke="rgb(0,0,0)" stroke-width="8.00" stroke-linecap="round" stroke-linejoin="round"/>
  <path d="M -155.41 759.07 L -157.02 759.66 L -159.14 761.13 L -160.06 762.29 L -160.58 763.96 L -160.22 766.49 L -157.39 777.07 L -156.33 778.92 L -155.11 780.06 L -150.63 782.06 L -147.32 781.81 L -145.54 780.72 L -144.53 779.41 L -143.62 775.54 L -143.88 771.88 L -145.60 767.56 L -149.55 763.22 L -150.97 762.31 L -153.78 761.49 L -154.54 761.61 L -155.85 762.65 L -157.66 765.18 L -158.33 767.12 L -158.41 770.14 L -158.08 772.25 L -157.32 773.38 L -156.60 773.83 L -155.02 774.23 L -153.00 773.75 L -150.62 772.09 L -146.14 766.84 L -141.46 765.76 L -139.45 766.73 L -136.32 770.15 L -134.45 775.71 L -134.26 777.08 L -132.80 771.98 L -130.13 767.95 L -129.09 767.03 L -125.62 765.04 L -122.34 764.34 L -120.94 764.83 L -119.74 765.94 L -117.36 770.29 L -116.18 776.81 L -116.28 780.10 L -116.96 781.85 L -116.42 780.32" fill="none" stroke="rgb(0,0,0)" stroke-width="8.00" stroke-linecap="round" stroke-linejoin="round"/>
  <path d="M -69.30 750.99 L -67.65 755.71 L -65.10 771.69 L -63.82 776.30 L -63.64 776.67 L -63.74 775.59" fill="none" stroke="rgb(0,0,0)" stroke-width="8.00" stroke-linecap="round" stroke-linejoin="round"/>
  <path d="M -38.44 751.19 L -41.22 751.01 L -44.91 751.93 L -47.79 753.47 L -50.62 756.28 L -52.21 759.44 L -53.90 767.26 L -53.74 771.49 L -53.17 773.93 L -51.73 776.16 L -49.24 777.84 L -44.10 779.55 L -40.28 779.46 L -36.15 778.14 L -33.20 776.06 L -32.27 774.64 L -31.60 772.05 L -31.63 770.59 L -32.17 769.74" fill="none" stroke="rgb(0,0,0)" stroke-width="8.00" stroke-linecap="round" stroke-linejoin="round"/>
  <path d="M -16.15 753.44 L -16.29 755.60 L -15.97 759.44 L -12.96 773.07 L -10.90 776.49 L -9.85 771.98" fill="none" stroke="rgb(0,0,0)" stroke-width="8.00" stroke-linecap="round" stroke-linejoin="round"/>
  <path d="M -19.55 766.10 L -21.23 761.78 L -21.24 759.86 L -20.67 758.42 L -18.33 754.30 L -15.59 750.85 L -12.82 748.54 L -10.36 747.59 L -5.04 747.27 L -1.88 748.22 L 1.47 750.75 L 2.38 751.78 L 3.06 752.94 L 3.49 754.90 L 2.05 757.94 L 0.00 760.71 L -1.43 761.98 L -8.46 764.84 L -10.85 765.28 L -13.01 764.90" fill="none" stroke="rgb(0,0,0)" stroke-width="8.00" stroke-linecap="round" stroke-linejoin="round"/>
</svg>
