<?xml version="1.0" encoding="UTF-8"?>
<svg xmlns="http://www.w3.org/2000/svg" viewBox="-336.5 126.9 723.5 1114.1" width="723" height="1114">
<rect x="-336.5" y="126.9" width="723.5" height="1114.1" fill="white"/>
  <path d="M -301.39 263.23 L -302.72 262.81 L -304.39 261.17 L -306.55 256.75 L -311.24 240.35 L -313.21 231.25 L -313.74 227.43 L -312.72 230.13 L -310.72 233.84 L -298.31 254.66 L -289.71 271.48 L -287.67 273.80 L -286.78 270.75 L -286.11 266.04 L -286.35 244.31 L -286.93 236.00 L -289.33 223.48 L -288.55 230.11 L -287.24 234.47" fill="none" stroke="rgb(0,0,0)" stroke-width="8.00" stroke-linecap="round" stroke-linejoin="round"/>
  <path d="M -276.75 269.80 L -276.22 265.46 L -275.90 258.54 L -273.25 269.06 L -271.99 272.36 L -270.14 275.70" fill="none" stroke="rgb(0,0,0)" stroke-width="8.00" stroke-linecap="round" stroke-linejoin="round"/>
  <path d="M -275.86 245.66 L -275.82 245.82" fill="none" stroke="rgb(0,0,0)" stroke-width="8.00" stroke-linecap="round" stroke-linejoin="round"/>
  <path d="M -267.61 224.33 L -264.13 230.74 L -261.40 237.84 L -259.25 245.61 L -254.71 266.88 L -252.75 274.36 L -251.44 276.55" fill="none" stroke="rgb(0,0,0)" stroke-width="8.00" stroke-linecap="round" stroke-linejoin="round"/>
  <path d="M -255.27 270.12 L -255.12 270.27 L -254.87 269.89 L -253.71 267.37 L -251.92 261.85 L -249.32 247.17 L -248.59 244.77" fill="none" stroke="rgb(0,0,0)" stroke-width="8.00" stroke-linecap="round" stroke-linejoin="round"/>
  <path d="M -256.42 265.51 L -255.93 267.60 L -254.64 270.73 L -252.06 275.79 L -250.12 278.40 L -247.88 279.87 L -246.89 280.10 L -244.34 279.87 L -242.21 279.14 L -240.69 278.17 L -239.15 276.28 L -238.26 274.41 L -237.78 272.20 L -237.00 266.62 L -237.16 262.32 L -237.72 265.07 L -237.30 268.23 L -236.13 271.62 L -233.44 276.20 L -232.27 277.70 L -230.22 279.40 L -229.37 279.00 L -228.61 276.57 L -228.51 275.07" fill="none" stroke="rgb(0,0,0)" stroke-width="8.00" stroke-linecap="round" stroke-linejoin="round"/>
  <path d="M -235.68 246.07 L -235.68 246.12" fill="none" stroke="rgb(0,0,0)" stroke-width="8.00" stroke-linecap="round" stroke-linejoin="round"/>
  <path d="M -222.43 243.11 L -223.74 237.79 L -225.04 226.29 L -224.86 223.93 L -223.06 233.59 L -220.50 259.46 L -216.59 280.87 L -216.70 282.85" fill="none" stroke="rgb(0,0,0)" stroke-width="8.00" stroke-linecap="round" stroke-linejoin="round"/>
  <path d="M -221.95 273.24 L -211.08 268.76" fill="none" stroke="rgb(0,0,0)" stroke-width="8.00" stroke-linecap="round" stroke-linejoin="round"/>
  <path d="M -196.53 265.54 L -200.26 263.78 L -204.89 262.55 L -207.45 263.22 L -209.40 264.87 L -210.90 267.51 L -211.99 272.63 L -211.64 278.59 L -210.97 280.63 L -210.14 281.40 L -209.15 281.19 L -205.96 278.23 L -204.41 276.17 L -200.86 269.70 L -200.11 269.12 L -199.33 269.21 L -198.20 270.51 L -193.94 278.29 L -192.47 280.05 L -188.68 282.24 L -184.44 283.04" fill="none" stroke="rgb(0,0,0)" stroke-width="8.00" stroke-linecap="round" stroke-linejoin="round"/>
  <path d="M -168.05 267.11 L -166.43 266.65 L -162.67 266.50 L -154.48 267.61 L -151.15 267.77 L -138.86 267.15" fill="none" stroke="rgb(0,0,0)" stroke-width="8.00" stroke-linecap="round" stroke-linejoin="round"/>
  <path d="M -144.39 259.71 L -133.39 265.19 L -133.64 265.11 L -139.71 271.39 L -140.54 271.67 L -141.02 272.48" fill="none" stroke="rgb(0,0,0)" stroke-width="8.00" stroke-linecap="round" stroke-linejoin="round"/>
  <path d="M -96.56 241.07 L -95.78 244.55 L -95.19 251.61 L -94.61 267.15 L -93.15 274.03 L -93.02 276.84 L -93.62 274.94" fill="none" stroke="rgb(0,0,0)" stroke-width="8.00" stroke-linecap="round" stroke-linejoin="round"/>
  <path d="M -99.19 265.67 L -102.19 258.61 L -102.97 254.12 L -102.27 247.07 L -101.52 242.98 L -100.57 238.55 L -98.92 234.69 L -97.18 232.73 L -95.30 231.75 L -91.16 231.05 L -88.59 231.07 L -87.26 231.41 L -85.35 232.59 L -83.95 234.27 L -82.98 238.19 L -82.95 240.75 L -84.68 246.83 L -89.55 255.34 L -93.85 257.95 L -95.14 258.30 L -98.23 258.19" fill="none" stroke="rgb(0,0,0)" stroke-width="8.00" stroke-linecap="round" stroke-linejoin="round"/>
  <path d="M -84.89 277.56 L -82.18 275.75 L -79.36 272.83 L -77.05 269.89 L -75.70 266.42 L -75.64 265.28 L -76.64 263.54 L -79.69 262.46 L -81.08 263.10 L -82.86 266.32 L -83.29 268.34 L -82.89 271.32 L -80.93 275.48 L -78.95 278.20 L -78.42 278.47 L -77.42 278.34 L -76.29 277.56" fill="none" stroke="rgb(0,0,0)" stroke-width="8.00" stroke-linecap="round" stroke-linejoin="round"/>
  <path d="M -65.16 265.68 L -68.29 269.22 L -69.65 271.68 L -70.03 273.03 L -70.29 275.04 L -70.10 276.90 L -69.76 278.39 L -68.71 280.56 L -66.32 282.85 L -65.02 283.35 L -63.92 283.34 L -62.73 283.22 L -59.98 282.08 L -57.48 279.55 L -55.29 275.41 L -54.09 270.26 L -54.40 268.74 L -55.71 266.37 L -57.56 264.41 L -59.26 263.49 L -62.74 262.70 L -65.07 263.26 L -67.37 266.58 L -67.76 268.39 L -67.48 270.27 L -65.60 273.25 L -64.11 274.40 L -62.25 273.84 L -56.62 271.20 L -56.13 271.21 L -55.33 272.06 L -52.68 275.93 L -50.91 280.26 L -49.10 292.62 L -49.18 296.83 L -49.24 296.34 L -51.29 294.40 L -52.67 292.33 L -53.31 290.06 L -53.59 287.41 L -53.12 281.63 L -51.03 272.92 L -49.95 270.43 L -48.71 269.10 L -46.29 268.61 L -44.57 269.71 L -43.17 271.36 L -41.30 276.11 L -41.74 277.74 L -44.34 282.38 L -44.35 282.64 L -42.72 282.37 L -38.66 280.63 L -34.47 277.00 L -30.90 271.11 L -29.22 266.08 L -27.77 257.45 L -27.81 254.43 L -29.05 249.51 L -30.06 247.16 L -32.34 243.00 L -33.77 241.73 L -36.07 241.15 L -37.73 242.40 L -38.74 244.34 L -39.58 248.78 L -39.96 254.14 L -39.80 263.37 L -39.30 267.72 L -38.15 273.52 L -36.43 276.91 L -31.21 282.50 L -29.89 283.10 L -26.73 282.55 L -23.98 281.05 L -21.84 278.97 L -19.01 271.97 L -18.87 269.18 L -20.93 265.35 L -22.39 264.80 L -23.08 265.06 L -24.21 265.91 L -25.15 267.58 L -25.65 270.81 L -25.49 279.10 L -24.87 281.89 L -22.84 285.15 L -20.70 287.47 L -18.05 289.48" fill="none" stroke="rgb(0,0,0)" stroke-width="8.00" stroke-linecap="round" stroke-linejoin="round"/>
  <path d="M 19.87 249.16 L 17.70 242.28 L 17.27 246.90 L 17.68 251.96 L 20.33 263.10 L 24.98 279.63 L 26.01 285.04 L 26.43 285.70 L 26.62 285.52" fill="none" stroke="rgb(0,0,0)" stroke-width="8.00" stroke-linecap="round" stroke-linejoin="round"/>
  <path d="M 10.31 270.83 L 13.73 272.10 L 17.95 272.85 L 20.71 272.98 L 23.51 274.63" fill="none" stroke="rgb(0,0,0)" stroke-width="8.00" stroke-linecap="round" stroke-linejoin="round"/>
  <path d="M 30.84 288.15 L 31.60 284.63 L 31.77 281.14 L 31.56 279.59 L 30.37 278.18 L 36.49 274.89 L 38.05 274.45 L 37.85 281.45 L 38.64 284.58 L 40.06 288.25 L 41.24 290.43 L 42.38 291.15 L 43.62 291.05 L 45.44 290.02 L 46.63 288.59 L 49.06 280.53 L 49.15 278.43 L 48.80 275.81 L 47.07 277.52 L 46.51 278.48 L 46.38 279.55 L 46.62 282.21 L 48.76 289.47 L 49.23 290.64 L 50.85 292.23 L 51.81 292.27 L 53.76 291.65 L 55.97 290.44 L 56.77 289.57 L 58.14 284.62 L 58.00 278.39 L 57.39 274.72 L 61.20 281.38 L 62.98 286.28 L 66.05 308.15 L 66.13 313.00 L 65.63 315.26 L 64.64 317.60 L 62.85 319.23 L 61.59 319.46 L 58.27 319.14 L 54.87 317.98 L 53.71 317.35 L 53.56 316.92" fill="none" stroke="rgb(0,0,0)" stroke-width="8.00" stroke-linecap="round" stroke-linejoin="round"/>
  <path d="M 67.32 273.54 L 70.16 288.27 L 71.48 291.82" fill="none" stroke="rgb(0,0,0)" stroke-width="8.00" stroke-linecap="round" stroke-linejoin="round"/>
  <path d="M 66.71 262.51 L 66.72 262.58" fill="none" stroke="rgb(0,0,0)" stroke-width="8.00" stroke-linecap="round" stroke-linejoin="round"/>
  <path d="M 77.21 285.86 L 74.63 274.60 L 74.69 273.15 L 76.84 281.86 L 77.74 288.11 L 78.96 292.05 L 79.80 288.56 L 80.89 280.83 L 81.85 278.69 L 83.63 279.00 L 85.25 280.48 L 86.78 283.56 L 88.52 289.78 L 90.24 292.53" fill="none" stroke="rgb(0,0,0)" stroke-width="8.00" stroke-linecap="round" stroke-linejoin="round"/>
  <path d="M 98.80 277.10 L 96.64 276.87 L 94.96 277.14 L 93.06 278.10 L 91.60 279.71 L 89.76 285.86 L 90.16 289.61 L 90.83 291.17 L 92.15 292.92 L 93.85 292.97 L 94.92 292.08 L 98.40 286.93 L 100.70 284.43 L 101.84 283.79 L 103.38 283.47 L 105.28 283.32 L 106.36 283.73 L 107.80 284.89 L 109.29 286.73 L 112.21 290.97 L 114.79 295.56 L 117.24 301.62 L 119.20 308.15 L 119.87 311.32 L 120.51 317.79 L 120.25 320.11 L 119.37 322.11 L 118.13 323.15 L 115.28 324.41 L 111.98 324.31 L 109.16 323.76" fill="none" stroke="rgb(0,0,0)" stroke-width="8.00" stroke-linecap="round" stroke-linejoin="round"/>
  <path d="M 132.93 266.47 L 131.81 260.45 L 130.77 234.65 L 130.38 238.87 L 130.74 244.54 L 133.41 269.86 L 134.74 277.52 L 137.50 286.81 L 137.10 286.27" fill="none" stroke="rgb(0,0,0)" stroke-width="8.00" stroke-linecap="round" stroke-linejoin="round"/>
  <path d="M 124.94 273.92 L 128.69 273.05 L 130.92 272.87 L 133.31 273.45 L 136.44 275.22 L 137.79 275.08" fill="none" stroke="rgb(0,0,0)" stroke-width="8.00" stroke-linecap="round" stroke-linejoin="round"/>
  <path d="M 143.50 272.34 L 142.73 273.58 L 141.28 277.74 L 140.56 281.65 L 140.68 286.64 L 141.23 288.71 L 142.35 291.10 L 144.68 293.60 L 146.58 294.63 L 148.43 295.02 L 150.25 294.73 L 153.43 292.92 L 155.92 290.35 L 157.66 287.74 L 158.86 284.68 L 159.66 278.37 L 159.51 276.91 L 158.71 275.31 L 155.76 273.68 L 150.45 272.54 L 148.02 272.82 L 146.55 273.72 L 145.24 275.23 L 143.99 278.02 L 143.74 279.85 L 144.09 282.08 L 145.21 283.61 L 146.46 284.40 L 148.96 284.13 L 151.28 283.16" fill="none" stroke="rgb(0,0,0)" stroke-width="8.00" stroke-linecap="round" stroke-linejoin="round"/>
  <path d="M 200.27 278.81 L 200.04 278.27 L 196.90 277.60 L 193.40 278.10 L 190.70 279.72 L 188.38 281.84 L 186.55 285.01 L 186.83 287.10 L 187.63 288.61 L 188.36 289.08 L 191.17 288.92 L 193.49 287.93 L 194.94 286.94 L 196.24 285.45 L 197.61 282.80 L 198.43 279.77 L 199.64 277.26 L 199.53 275.12 L 200.11 277.19 L 202.01 281.02 L 202.95 283.83 L 203.96 290.31 L 203.94 293.24 L 202.15 300.57 L 198.90 307.36 L 196.72 309.88 L 194.93 311.28 L 193.66 311.51 L 193.25 311.35 L 192.96 310.64 L 192.98 309.29" fill="none" stroke="rgb(0,0,0)" stroke-width="8.00" stroke-linecap="round" stroke-linejoin="round"/>
  <path d="M 214.54 285.32 L 219.52 281.12 L 219.90 280.24 L 219.95 278.44 L 219.87 277.45 L 219.37 276.59 L 217.35 275.67 L 215.42 275.66 L 213.01 276.42 L 210.60 278.38 L 208.79 281.81 L 208.25 283.74 L 208.56 288.30 L 209.11 290.52 L 210.17 293.33 L 211.45 294.38 L 212.26 294.61 L 215.71 294.11 L 223.38 291.60" fill="none" stroke="rgb(0,0,0)" stroke-width="8.00" stroke-linecap="round" stroke-linejoin="round"/>
  <path d="M 225.23 228.03 L 228.97 265.33 L 233.91 283.86 L 235.22 291.12 L 235.99 292.95" fill="none" stroke="rgb(0,0,0)" stroke-width="8.00" stroke-linecap="round" stroke-linejoin="round"/>
  <path d="M 226.42 277.08 L 231.78 274.89 L 238.83 272.71" fill="none" stroke="rgb(0,0,0)" stroke-width="8.00" stroke-linecap="round" stroke-linejoin="round"/>
  <path d="M 287.68 267.75 L 282.74 266.51 L 280.95 266.42 L 278.24 266.91 L 273.56 268.45 L 270.25 270.08 L 268.11 271.68 L 266.13 274.02 L 265.86 275.23 L 266.46 277.65 L 269.69 280.00 L 275.47 281.59 L 288.39 283.64 L 287.88 283.65 L 287.36 285.50 L 286.42 286.75 L 284.25 287.94 L 280.82 287.86 L 277.17 286.75" fill="none" stroke="rgb(0,0,0)" stroke-width="8.00" stroke-linecap="round" stroke-linejoin="round"/>
  <path d="M 296.43 270.16 L 295.72 274.33 L 295.80 277.89 L 298.95 284.65 L 300.81 287.46 L 301.84 288.13 L 302.75 287.91 L 304.55 286.66 L 306.95 284.50 L 309.16 281.90 L 310.71 279.30 L 311.64 275.93 L 311.68 274.50 L 311.36 271.98 L 309.70 269.61 L 305.07 268.31 L 301.09 268.45 L 299.47 269.02 L 298.00 270.09 L 295.82 272.87 L 295.23 274.13 L 295.57 275.68 L 296.24 276.84 L 297.61 278.00 L 299.01 278.53 L 301.73 278.44 L 306.32 276.91 L 317.06 271.75 L 320.95 270.79 L 321.74 270.81 L 322.47 271.28 L 324.12 275.87 L 324.29 278.16 L 321.76 282.46 L 321.54 283.67 L 320.98 284.59 L 323.17 280.85 L 325.77 277.84 L 328.39 276.03 L 332.96 273.65 L 333.65 273.47 L 334.15 273.86 L 335.39 277.62 L 335.29 279.56 L 333.66 283.44 L 333.76 284.92 L 337.49 279.84 L 340.14 277.00 L 341.93 275.58 L 347.93 273.18 L 348.37 273.25 L 348.98 276.10 L 348.04 279.66 L 348.53 282.67 L 349.45 283.86 L 350.79 284.75 L 353.11 285.24 L 354.35 285.10 L 360.00 283.01 L 362.68 281.22 L 365.48 278.46 L 366.87 274.37 L 366.99 273.10 L 366.29 271.89 L 364.68 271.11 L 362.63 270.85 L 361.84 271.26 L 360.89 272.38 L 354.56 284.75 L 354.20 285.99 L 354.36 287.68 L 355.60 289.39 L 357.18 290.56" fill="none" stroke="rgb(0,0,0)" stroke-width="8.00" stroke-linecap="round" stroke-linejoin="round"/>
  <path d="M -93.79 331.86 L -97.28 331.13 L -100.10 331.68 L -102.11 333.12 L -103.61 335.47 L -103.46 336.11 L -102.71 336.91 L -99.60 337.91 L -97.64 337.84 L -94.74 337.07 L -92.66 337.10 L -92.92 337.34 L -92.82 340.36 L -94.75 344.60 L -95.73 346.44 L -98.03 347.41" fill="none" stroke="rgb(0,0,0)" stroke-width="8.00" stroke-linecap="round" stroke-linejoin="round"/>
  <path d="M -86.90 333.79 L -85.54 342.64 L -85.15 347.28 L -85.37 361.54 L -85.92 363.36 L -86.95 359.97 L -87.25 357.80 L -87.50 352.63 L -87.31 347.42 L -86.03 340.17 L -84.70 334.69 L -83.93 332.73 L -81.02 332.52 L -78.97 333.48 L -77.73 335.08 L -76.33 339.04 L -76.27 340.85 L -76.60 342.00 L -79.49 348.05 L -79.16 347.59 L -76.99 347.98 L -75.75 347.65 L -70.93 345.70 L -69.00 344.39 L -67.60 342.59 L -67.12 341.23 L -65.48 335.40 L -65.75 334.47 L -68.00 334.19 L -69.23 334.36 L -70.54 335.12 L -72.12 337.07 L -72.94 338.93 L -73.29 340.72 L -72.81 345.28 L -71.97 347.07 L -69.37 348.80 L -68.11 349.20 L -65.83 348.92 L -62.75 349.31" fill="none" stroke="rgb(0,0,0)" stroke-width="8.00" stroke-linecap="round" stroke-linejoin="round"/>
  <path d="M -48.91 336.59 L -52.72 335.42 L -55.35 335.47 L -56.65 336.41 L -58.32 339.06 L -59.01 342.38 L -58.56 346.94 L -57.16 349.79 L -55.35 351.45 L -54.19 351.94 L -52.47 351.90 L -50.95 351.69 L -48.81 350.73 L -46.70 348.13 L -44.49 343.80 L -44.38 345.30 L -43.37 347.53 L -41.16 349.15 L -37.39 350.42 L -36.20 350.18 L -33.23 348.11 L -32.43 345.77" fill="none" stroke="rgb(0,0,0)" stroke-width="8.00" stroke-linecap="round" stroke-linejoin="round"/>
  <path d="M -42.01 325.75 L -41.91 326.09" fill="none" stroke="rgb(0,0,0)" stroke-width="8.00" stroke-linecap="round" stroke-linejoin="round"/>
  <path d="M -28.37 353.69 L -29.17 350.71 L -29.51 346.67 L -29.63 334.43 L -28.96 330.30 L -27.46 324.41 L -26.62 322.59 L -25.88 321.81 L -19.11 319.00 L -16.80 318.91 L -17.26 321.91" fill="none" stroke="rgb(0,0,0)" stroke-width="8.00" stroke-linecap="round" stroke-linejoin="round"/>
  <path d="M -34.34 337.08 L -27.78 340.54 L -24.96 340.83 L -22.73 339.74 L -21.72 342.94" fill="none" stroke="rgb(0,0,0)" stroke-width="8.00" stroke-linecap="round" stroke-linejoin="round"/>
  <path d="M -12.63 340.70 L -11.57 343.13 L -9.91 349.23 L -9.32 350.42 L -9.35 351.09" fill="none" stroke="rgb(0,0,0)" stroke-width="8.00" stroke-linecap="round" stroke-linejoin="round"/>
  <path d="M -10.55 328.95 L -10.43 330.61" fill="none" stroke="rgb(0,0,0)" stroke-width="8.00" stroke-linecap="round" stroke-linejoin="round"/>
  <path d="M 4.46 338.98 L 1.27 342.63 L -1.54 347.43 L -1.89 349.98 L -0.87 352.90 L 0.84 354.85 L 2.83 355.28 L 14.17 352.14" fill="none" stroke="rgb(0,0,0)" stroke-width="8.00" stroke-linecap="round" stroke-linejoin="round"/>
  <path d="M 57.59 345.50 L 55.71 341.03 L 56.85 347.36 L 58.38 352.07 L 60.15 354.30 L 63.20 356.60 L 64.42 356.23 L 65.43 355.00 L 67.79 348.89" fill="none" stroke="rgb(0,0,0)" stroke-width="8.00" stroke-linecap="round" stroke-linejoin="round"/>
  <path d="M 79.24 342.44 L 75.19 343.44 L 73.32 344.26 L 70.84 346.50 L 71.45 349.17 L 74.07 354.75 L 74.59 355.21 L 75.74 355.33 L 77.71 353.70 L 81.32 346.60 L 81.40 343.98 L 83.31 350.43 L 85.30 353.80 L 87.58 355.56 L 88.92 355.91 L 90.29 355.62 L 91.36 354.09 L 92.72 350.87 L 94.84 342.82 L 96.53 333.48 L 96.39 328.77 L 95.07 322.55 L 94.42 320.65 L 92.62 318.59 L 91.40 318.74 L 89.53 320.24 L 88.93 321.58 L 88.53 323.65 L 88.98 331.81 L 89.08 346.98 L 89.69 350.24 L 90.57 352.80 L 92.71 355.64 L 95.67 358.72 L 96.60 359.28 L 98.83 359.04 L 101.97 357.31 L 104.59 355.00 L 105.47 353.64 L 107.43 347.50 L 107.52 346.26 L 107.21 345.80 L 105.54 347.59 L 104.70 349.62 L 105.03 354.70 L 106.15 357.85 L 107.54 359.94 L 109.25 360.20 L 110.95 359.86 L 112.05 359.26 L 113.09 357.52 L 114.83 351.17 L 116.13 348.81 L 115.93 347.06 L 117.08 351.85 L 119.71 358.29 L 123.30 361.62 L 124.86 362.25 L 126.90 362.01 L 131.55 359.35 L 133.22 356.85 L 137.02 347.12 L 136.86 345.38 L 135.63 343.64 L 134.80 343.24 L 133.73 343.20 L 132.91 343.57 L 131.29 345.48 L 130.51 348.64 L 130.49 353.65 L 131.29 358.56 L 132.57 362.50 L 134.17 363.83 L 136.28 364.49" fill="none" stroke="rgb(0,0,0)" stroke-width="8.00" stroke-linecap="round" stroke-linejoin="round"/>
  <path d="M -67.24 400.88 L -67.26 395.55 L -68.40 401.22 L -67.15 408.27 L -63.59 417.88 L -62.36 420.24 L -60.88 421.97 L -54.46 426.33 L -50.91 427.46 L -43.15 429.09 L -40.15 428.91 L -38.13 428.06" fill="none" stroke="rgb(0,0,0)" stroke-width="8.00" stroke-linecap="round" stroke-linejoin="round"/>
  <path d="M -42.47 422.49 L -35.92 426.17 L -36.16 426.21 L -36.27 428.05 L -36.90 428.84 L -40.46 430.95 L -40.99 430.95" fill="none" stroke="rgb(0,0,0)" stroke-width="8.00" stroke-linecap="round" stroke-linejoin="round"/>
  <path d="M -4.74 409.01 L -4.56 404.96 L -4.82 403.85 L -7.85 403.17 L -10.19 403.01 L -14.00 403.89 L -17.17 405.21 L -19.08 407.04 L -21.01 410.40 L -20.67 415.63 L -20.11 416.89 L -19.42 417.59 L -18.06 418.42 L -15.21 419.26 L -9.04 419.88 L -5.82 420.61 L -2.27 422.31 L -1.62 424.24 L -1.59 426.03 L -3.17 428.60 L -7.11 432.06 L -11.14 433.86 L -15.83 434.86" fill="none" stroke="rgb(0,0,0)" stroke-width="8.00" stroke-linecap="round" stroke-linejoin="round"/>
  <path d="M 3.75 434.94 L 3.77 432.31 L 4.31 429.01 L 5.68 426.57 L 7.83 426.26 L 10.20 427.64 L 13.77 434.97 L 13.54 434.35 L 13.90 433.35 L 16.49 428.71 L 20.29 427.44 L 21.88 427.37 L 22.96 428.30 L 24.82 432.57 L 25.13 434.19 L 24.97 438.57" fill="none" stroke="rgb(0,0,0)" stroke-width="8.00" stroke-linecap="round" stroke-linejoin="round"/>
  <path d="M 35.50 427.29 L 27.77 430.45 L 27.21 432.85 L 27.67 436.44 L 28.45 437.11 L 29.78 437.58 L 31.64 437.45 L 33.00 436.83 L 34.64 433.77 L 36.12 430.04 L 35.86 431.14 L 36.96 433.89 L 38.85 437.10 L 39.94 437.68 L 42.14 437.33 L 45.56 435.31 L 46.30 434.21 L 46.95 432.30 L 48.60 436.39 L 51.25 446.04 L 51.02 451.40 L 49.07 446.16 L 48.94 444.87 L 49.34 438.03 L 50.49 433.80 L 51.46 432.05 L 53.43 429.96 L 55.32 428.67 L 57.98 427.70 L 59.82 426.59 L 60.83 429.30 L 60.94 431.09 L 60.37 432.77 L 57.88 436.97 L 56.72 439.90" fill="none" stroke="rgb(0,0,0)" stroke-width="8.00" stroke-linecap="round" stroke-linejoin="round"/>
  <path d="M 67.31 424.58 L 65.01 426.32 L 63.50 428.20 L 61.46 431.32 L 61.18 433.26 L 63.80 437.61 L 65.40 438.80 L 67.23 438.46 L 68.98 437.31 L 70.92 434.54" fill="none" stroke="rgb(0,0,0)" stroke-width="8.00" stroke-linecap="round" stroke-linejoin="round"/>
  <path d="M 75.58 399.65 L 76.37 406.90 L 79.87 427.17 L 80.67 436.57 L 80.70 434.11 L 81.08 432.70 L 82.62 429.58 L 85.96 428.62 L 91.34 428.55 L 92.10 429.08 L 93.59 434.00 L 93.61 435.72 L 92.77 436.83" fill="none" stroke="rgb(0,0,0)" stroke-width="8.00" stroke-linecap="round" stroke-linejoin="round"/>
  <path d="M 106.31 431.02 L 104.56 430.76 L 101.88 431.27 L 98.79 433.05 L 97.45 434.53 L 95.59 438.58 L 94.18 440.79 L 94.58 440.57 L 96.30 441.36 L 98.35 441.50 L 100.01 440.61 L 101.07 438.94 L 103.07 433.44 L 105.09 437.86 L 106.52 439.71 L 108.53 441.25 L 110.01 441.71 L 111.37 441.59 L 112.53 440.84 L 113.64 438.64 L 115.98 427.17" fill="none" stroke="rgb(0,0,0)" stroke-width="8.00" stroke-linecap="round" stroke-linejoin="round"/>
  <path d="M 116.97 394.65 L 116.25 406.34 L 116.45 415.18 L 117.95 421.57 L 118.86 423.96 L 122.55 429.96 L 123.72 433.22" fill="none" stroke="rgb(0,0,0)" stroke-width="8.00" stroke-linecap="round" stroke-linejoin="round"/>
  <path d="M 110.41 425.94 L 121.63 426.06 L 125.12 425.63" fill="none" stroke="rgb(0,0,0)" stroke-width="8.00" stroke-linecap="round" stroke-linejoin="round"/>
  <path d="M 160.27 427.42 L 159.50 431.07 L 159.35 433.37 L 159.62 449.11 L 157.55 456.05 L 155.82 450.32 L 155.51 448.02 L 155.72 439.46 L 158.11 428.79 L 159.34 426.29 L 161.60 426.34 L 162.88 429.98 L 163.83 437.56 L 164.81 440.13 L 165.45 440.95 L 166.00 440.97 L 167.27 440.27 L 169.02 436.41 L 169.15 430.38 L 169.62 429.13 L 178.76 425.27 L 175.47 430.82 L 174.60 433.21 L 175.02 437.32 L 175.91 438.73 L 178.05 438.94 L 181.94 436.88 L 185.66 429.74 L 185.81 437.93 L 187.03 440.88 L 187.24 441.14 L 187.70 440.96 L 188.95 439.03 L 190.78 433.84 L 192.19 431.32 L 193.06 430.55 L 196.35 429.28 L 198.69 434.62 L 198.22 441.63 L 198.11 438.29 L 199.48 434.64 L 201.69 431.75 L 203.36 430.22 L 204.41 429.81 L 205.16 429.71 L 205.53 429.98 L 209.35 438.61 L 209.44 439.00 L 209.28 438.86 L 208.36 440.02" fill="none" stroke="rgb(0,0,0)" stroke-width="8.00" stroke-linecap="round" stroke-linejoin="round"/>
  <path d="M 194.36 419.00 L 194.38 419.06" fill="none" stroke="rgb(0,0,0)" stroke-width="8.00" stroke-linecap="round" stroke-linejoin="round"/>
  <path d="M 217.70 393.26 L 215.92 398.21 L 213.78 406.94 L 212.37 414.32 L 211.81 422.03 L 212.53 432.56 L 214.46 440.70 L 216.21 445.22 L 216.20 446.74" fill="none" stroke="rgb(0,0,0)" stroke-width="8.00" stroke-linecap="round" stroke-linejoin="round"/>
  <path d="M 203.93 438.29 L 209.15 437.41 L 218.57 434.65" fill="none" stroke="rgb(0,0,0)" stroke-width="8.00" stroke-linecap="round" stroke-linejoin="round"/>
  <path d="M 244.38 439.44 L 242.39 435.26 L 243.13 435.56 L 246.94 434.07 L 253.98 433.06 L 253.27 433.22 L 251.65 434.68 L 249.55 437.32 L 249.06 439.12 L 249.39 443.39 L 250.12 444.73 L 251.57 445.67 L 253.24 446.28 L 256.56 446.56 L 258.86 445.87 L 261.20 444.13 L 263.10 440.30 L 264.25 438.76 L 264.32 437.67 L 263.27 437.30 L 261.63 437.28 L 258.76 438.82 L 257.86 440.84 L 257.87 442.25 L 258.09 443.75 L 259.22 446.02 L 260.90 446.99 L 262.01 447.03 L 264.15 445.89 L 266.41 443.01 L 267.35 441.04 L 267.64 441.39 L 269.66 448.54 L 269.80 450.67 L 269.47 453.85 L 267.34 460.63 L 267.38 463.38 L 267.58 450.19 L 267.99 446.59 L 269.27 440.85 L 270.14 438.84 L 271.08 437.63 L 271.64 437.21 L 272.94 437.33 L 275.76 436.86 L 276.73 437.03 L 277.50 437.40 L 277.88 439.15 L 277.92 440.32 L 277.30 442.44 L 272.91 448.31 L 272.45 449.72 L 277.66 448.37 L 281.98 446.35 L 285.17 444.05 L 287.10 441.45 L 290.89 431.68 L 292.33 425.42 L 292.32 423.46 L 291.80 422.03 L 290.52 420.24 L 288.92 418.76 L 287.29 418.60 L 286.33 419.07 L 283.86 423.19 L 281.43 428.22 L 280.77 431.18 L 280.43 434.78 L 280.69 438.46 L 281.45 441.82 L 284.10 446.82 L 286.29 448.04 L 288.34 447.97 L 291.87 445.97 L 295.37 442.66 L 296.29 441.42 L 297.25 438.73 L 295.20 442.63 L 295.22 444.35 L 295.61 445.66 L 296.34 446.53 L 297.33 447.19 L 298.98 447.18 L 301.78 445.80 L 302.54 444.85 L 306.02 438.48 L 308.05 433.31 L 307.72 433.41 L 309.09 437.71 L 310.70 441.24 L 313.15 448.01 L 315.14 459.76 L 314.77 460.85 L 312.37 464.01 L 309.20 465.74 L 306.56 465.48 L 305.11 464.89 L 304.70 464.12" fill="none" stroke="rgb(0,0,0)" stroke-width="8.00" stroke-linecap="round" stroke-linejoin="round"/>
  <path d="M -43.57 462.47 L -8.83 461.29 L 33.89 461.51 L 79.94 464.38 L 150.29 467.93 L 169.57 469.39 L 194.29 472.00 L 217.72 475.13 L 239.29 478.41 L 259.13 482.08 L 283.27 487.55 L 296.45 491.33 L 311.05 496.59 L 320.94 501.28 L 313.09 495.57" fill="none" stroke="rgb(0,0,0)" stroke-width="8.00" stroke-linecap="round" stroke-linejoin="round"/>
  <path d="M -29.27 509.43 L -29.03 509.35 L -29.04 508.38 L -30.90 496.28 L -31.27 491.60 L -31.50 495.46 L -29.10 505.33 L -27.74 514.85 L -27.45 521.13 L -27.06 522.79" fill="none" stroke="rgb(0,0,0)" stroke-width="8.00" stroke-linecap="round" stroke-linejoin="round"/>
  <path d="M -29.84 520.28 L -26.81 514.42 L -24.10 507.23 L -22.23 503.77 L -21.10 500.17" fill="none" stroke="rgb(0,0,0)" stroke-width="8.00" stroke-linecap="round" stroke-linejoin="round"/>
  <path d="M -30.89 514.04 L -29.67 520.71 L -28.93 522.66 L -28.03 523.85 L -26.84 524.43 L -24.79 524.81 L -17.95 524.45" fill="none" stroke="rgb(0,0,0)" stroke-width="8.00" stroke-linecap="round" stroke-linejoin="round"/>
  <path d="M -14.16 519.48 L -14.39 519.26 L -14.12 514.31 L -13.11 511.37 L -12.20 510.09 L -10.45 512.83 L -8.57 518.62 L -7.20 521.33 L -6.00 517.59 L -2.60 512.03 L 1.21 504.26 L 1.97 503.46 L 3.35 504.14 L 4.60 506.04 L 6.80 512.75 L 6.70 515.28 L 5.69 517.45" fill="none" stroke="rgb(0,0,0)" stroke-width="8.00" stroke-linecap="round" stroke-linejoin="round"/>
  <path d="M 10.92 506.26 L 9.22 508.52 L 7.28 512.10 L 6.79 514.74 L 7.14 516.21 L 9.68 521.69 L 10.63 523.09 L 12.20 524.49 L 13.40 524.52 L 15.72 523.12 L 16.65 522.20 L 17.95 519.48 L 19.22 514.89 L 19.29 513.44 L 16.95 508.68 L 11.98 506.96 L 9.59 506.71 L 7.64 508.04 L 6.93 509.69 L 7.19 511.70 L 7.90 513.21 L 8.96 514.98 L 9.87 515.62 L 12.43 515.47 L 17.57 513.79 L 20.49 512.30 L 20.87 511.17 L 20.75 511.61 L 21.52 514.14 L 23.84 517.71 L 27.58 520.50 L 29.31 520.91 L 30.63 520.18 L 31.36 518.98 L 33.56 512.82 L 33.69 511.57 L 35.85 514.51 L 37.39 517.40 L 40.03 517.91 L 40.88 517.49" fill="none" stroke="rgb(0,0,0)" stroke-width="8.00" stroke-linecap="round" stroke-linejoin="round"/>
  <path d="M 37.48 519.74 L 38.56 518.84 L 39.89 515.63 L 41.17 510.45 L 41.16 507.90" fill="none" stroke="rgb(0,0,0)" stroke-width="8.00" stroke-linecap="round" stroke-linejoin="round"/>
  <path d="M 69.26 509.10 L 68.85 508.46 L 68.79 508.99 L 69.14 511.85 L 70.66 517.33 L 71.89 520.20 L 73.38 522.02 L 74.29 522.45 L 76.36 522.00 L 77.22 520.51 L 78.55 516.72 L 78.42 514.72 L 77.95 513.66 L 80.98 519.74 L 81.49 520.25 L 83.52 520.44 L 84.38 519.96 L 86.89 515.06 L 86.81 512.79" fill="none" stroke="rgb(0,0,0)" stroke-width="8.00" stroke-linecap="round" stroke-linejoin="round"/>
  <path d="M 89.43 499.26 L 89.09 498.23 L 88.92 495.19 L 90.21 498.86 L 92.06 507.09 L 93.81 518.93 L 93.71 522.92 L 92.91 520.69 L 92.51 515.11 L 93.17 512.77 L 94.88 510.66 L 97.17 511.20 L 98.35 513.27 L 100.10 518.85 L 99.66 523.58" fill="none" stroke="rgb(0,0,0)" stroke-width="8.00" stroke-linecap="round" stroke-linejoin="round"/>
  <path d="M 113.71 516.50 L 108.07 516.17 L 106.54 516.61 L 105.59 517.36 L 102.10 521.81 L 101.31 523.45 L 101.52 524.75 L 102.15 525.10 L 104.23 525.36 L 105.34 524.79 L 106.52 523.09 L 109.10 517.81 L 110.93 521.63 L 112.47 523.97 L 114.13 525.20 L 115.05 523.04 L 115.72 520.56 L 116.06 516.21 L 115.90 510.58 L 114.57 495.65 L 115.00 487.44 L 115.21 488.55 L 117.82 494.55 L 121.92 508.82 L 126.42 520.34 L 128.40 524.15" fill="none" stroke="rgb(0,0,0)" stroke-width="8.00" stroke-linecap="round" stroke-linejoin="round"/>
  <path d="M 111.15 510.66 L 114.69 512.46 L 118.29 513.43 L 121.71 513.50 L 127.74 512.79" fill="none" stroke="rgb(0,0,0)" stroke-width="8.00" stroke-linecap="round" stroke-linejoin="round"/>
  <path d="M 161.27 515.89 L 157.31 521.69 L 156.81 522.90 L 156.96 524.61 L 159.96 533.12 L 161.55 536.06 L 162.65 536.14 L 163.96 535.22 L 165.07 533.82 L 165.90 531.83 L 167.70 523.81 L 166.80 518.66 L 165.81 516.55 L 163.03 515.53 L 161.69 515.46 L 160.77 515.79 L 159.77 516.46 L 157.95 518.71 L 157.29 520.95 L 157.53 523.11 L 158.09 524.29 L 159.18 525.79 L 160.88 526.36 L 164.76 525.96 L 166.05 522.81 L 167.73 516.61 L 168.03 513.30 L 168.30 504.68 L 167.96 493.88 L 170.58 506.28 L 172.81 514.22 L 178.21 528.52 L 182.15 536.55 L 180.93 533.22 L 179.93 531.55 L 178.03 528.97 L 175.12 526.34 L 171.68 524.24 L 165.66 522.76 L 164.43 522.05 L 167.78 519.05 L 170.93 517.72 L 173.41 517.07 L 175.45 516.93 L 177.63 518.39" fill="none" stroke="rgb(0,0,0)" stroke-width="8.00" stroke-linecap="round" stroke-linejoin="round"/>
  <path d="M 182.35 519.28 L 179.55 502.81 L 178.88 500.15 L 177.92 498.75 L 179.69 509.95 L 182.41 519.98 L 184.29 531.23 L 185.23 533.85 L 185.99 534.46 L 184.92 531.19 L 184.82 527.52 L 185.19 526.35 L 187.20 523.18 L 190.56 522.11 L 192.32 522.14 L 194.13 522.80 L 196.70 524.47 L 197.51 527.36 L 197.55 529.33 L 196.38 538.09 L 195.49 539.75 L 194.11 539.83" fill="none" stroke="rgb(0,0,0)" stroke-width="8.00" stroke-linecap="round" stroke-linejoin="round"/>
  <path d="M 199.87 526.29 L 204.91 527.88 L 206.40 527.81 L 208.30 526.90 L 210.27 527.37 L 211.06 526.92 L 211.42 524.91 L 210.21 524.61 L 207.44 525.44 L 206.11 527.14 L 205.36 529.46 L 205.49 531.30 L 207.71 540.23 L 208.60 542.35 L 209.94 543.75 L 211.68 542.73 L 213.18 541.00 L 214.53 538.21 L 215.31 535.88 L 215.66 532.67 L 215.62 532.19 L 215.32 532.13 L 215.41 531.21 L 216.26 529.63 L 218.46 528.58 L 220.61 528.94 L 220.55 529.92 L 221.70 532.99 L 221.30 537.85 L 221.62 539.83 L 223.53 542.68 L 224.99 542.95 L 225.72 543.90" fill="none" stroke="rgb(0,0,0)" stroke-width="8.00" stroke-linecap="round" stroke-linejoin="round"/>
  <path d="M 230.14 526.31 L 228.04 529.89 L 227.10 530.83 L 225.74 533.03 L 227.03 532.72 L 231.17 534.25 L 235.31 535.16 L 239.43 536.86 L 241.90 538.95 L 241.78 541.49 L 240.87 544.68 L 237.95 549.64 L 235.83 552.23 L 235.98 552.67" fill="none" stroke="rgb(0,0,0)" stroke-width="8.00" stroke-linecap="round" stroke-linejoin="round"/>
  <path d="M 263.89 504.62 L 260.53 512.47 L 259.55 516.86 L 260.02 522.06 L 261.26 527.72 L 263.29 534.20 L 268.38 544.80 L 269.96 546.03 L 271.91 546.40 L 273.55 545.61 L 273.95 544.49" fill="none" stroke="rgb(0,0,0)" stroke-width="8.00" stroke-linecap="round" stroke-linejoin="round"/>
  <path d="M 253.93 538.05 L 259.02 538.43 L 264.43 537.93 L 266.47 538.64" fill="none" stroke="rgb(0,0,0)" stroke-width="8.00" stroke-linecap="round" stroke-linejoin="round"/>
  <path d="M 267.20 513.54 L 272.63 533.93 L 275.39 552.98 L 275.14 555.20 L 275.11 548.54 L 275.91 544.59 L 276.65 543.45 L 281.07 543.24 L 282.55 544.08 L 283.09 545.02 L 285.63 553.85 L 285.91 556.17" fill="none" stroke="rgb(0,0,0)" stroke-width="8.00" stroke-linecap="round" stroke-linejoin="round"/>
  <path d="M 294.21 545.80 L 297.79 552.75 L 298.89 554.24 L 299.37 555.89 L 299.62 555.83" fill="none" stroke="rgb(0,0,0)" stroke-width="8.00" stroke-linecap="round" stroke-linejoin="round"/>
  <path d="M 292.88 530.44 L 292.92 530.66" fill="none" stroke="rgb(0,0,0)" stroke-width="8.00" stroke-linecap="round" stroke-linejoin="round"/>
  <path d="M 305.18 557.21 L 303.75 554.37 L 303.86 551.25 L 303.15 548.61 L 303.50 547.31 L 304.49 545.85 L 304.54 545.07 L 306.26 544.55 L 307.57 545.17 L 307.89 545.91 L 308.24 547.59 L 309.80 551.38 L 309.32 552.99 L 309.72 554.23 L 309.38 555.10 L 311.31 558.64" fill="none" stroke="rgb(0,0,0)" stroke-width="8.00" stroke-linecap="round" stroke-linejoin="round"/>
  <path d="M 305.73 513.15 L 306.61 518.36 L 311.30 535.11 L 313.48 544.26 L 314.76 551.91 L 315.16 552.73 L 316.53 553.39 L 317.57 555.25" fill="none" stroke="rgb(0,0,0)" stroke-width="8.00" stroke-linecap="round" stroke-linejoin="round"/>
  <path d="M 314.12 546.76 L 313.83 546.56 L 315.30 545.45 L 316.65 543.87 L 318.77 540.63 L 319.75 538.49 L 321.66 532.65 L 322.76 526.82 L 323.29 525.79 L 323.56 525.78 L 322.24 525.95" fill="none" stroke="rgb(0,0,0)" stroke-width="8.00" stroke-linecap="round" stroke-linejoin="round"/>
  <path d="M 317.38 546.06 L 320.92 550.49 L 328.36 556.84 L 329.91 558.53 L 331.36 561.10 L 331.82 564.97 L 332.45 566.35" fill="none" stroke="rgb(0,0,0)" stroke-width="8.00" stroke-linecap="round" stroke-linejoin="round"/>
  <path d="M -315.21 563.94 L -316.48 560.17 L -316.25 560.21 L -314.14 561.87 L -310.96 565.17 L -304.59 573.23 L -300.76 580.72 L -298.15 587.30 L -296.35 594.71 L -294.40 611.41 L -295.05 614.56 L -296.08 616.45 L -297.54 618.36 L -299.90 620.30 L -303.18 622.37 L -310.39 625.18 L -311.85 625.50 L -313.44 625.42 L -314.42 625.04 L -313.55 624.52" fill="none" stroke="rgb(0,0,0)" stroke-width="8.00" stroke-linecap="round" stroke-linejoin="round"/>
  <path d="M -289.92 577.38 L -292.41 581.53 L -293.96 585.31 L -294.46 587.69 L -294.38 591.03 L -292.59 600.78 L -290.75 607.66 L -287.97 613.84 L -285.71 617.16 L -283.65 617.96 L -281.49 617.33 L -279.23 615.42 L -277.73 612.90 L -276.33 609.52 L -274.61 602.66 L -272.87 591.03 L -272.46 585.28 L -272.54 581.91 L -273.15 578.90 L -274.56 574.83 L -276.07 571.87 L -280.72 565.63 L -283.32 563.04 L -284.66 562.42 L -286.06 563.40 L -287.51 566.22 L -289.59 574.01 L -291.61 584.25 L -291.64 587.92 L -291.04 591.30" fill="none" stroke="rgb(0,0,0)" stroke-width="8.00" stroke-linecap="round" stroke-linejoin="round"/>
  <path d="M -268.95 575.41 L -267.09 588.33 L -263.98 603.01 L -262.47 612.26 L -261.71 613.83 L -261.48 613.83 L -264.28 606.41 L -265.74 601.22 L -268.38 589.81 L -268.94 585.17 L -268.70 579.69 L -267.69 575.13 L -266.16 570.37 L -265.45 569.41 L -264.34 568.67 L -261.18 568.00 L -259.64 568.08 L -257.54 568.63 L -254.08 570.57 L -252.28 573.04 L -251.46 575.00 L -250.90 580.17 L -251.13 583.34 L -251.86 585.79 L -253.96 589.99 L -256.70 593.63 L -258.58 595.17 L -261.34 596.38 L -263.10 596.70 L -264.94 596.35 L -260.49 595.29 L -256.32 595.14 L -252.24 595.58 L -249.13 596.51 L -247.54 597.68 L -245.52 599.98 L -243.87 604.13 L -243.08 608.76 L -243.32 611.38 L -244.71 615.11 L -247.08 618.95 L -249.54 621.20 L -254.43 623.72 L -256.89 623.57 L -258.33 622.61" fill="none" stroke="rgb(0,0,0)" stroke-width="8.00" stroke-linecap="round" stroke-linejoin="round"/>
  <path d="M -196.93 576.53 L -193.03 588.82 L -189.47 604.26 L -189.08 605.25 L -188.34 606.01" fill="none" stroke="rgb(0,0,0)" stroke-width="8.00" stroke-linecap="round" stroke-linejoin="round"/>
  <path d="M -209.30 575.26 L -197.12 576.67 L -192.87 576.64 L -187.66 576.06 L -185.70 576.50 L -184.21 577.42" fill="none" stroke="rgb(0,0,0)" stroke-width="8.00" stroke-linecap="round" stroke-linejoin="round"/>
  <path d="M -173.26 582.70 L -173.93 584.95 L -174.24 588.74 L -173.89 599.03 L -172.80 606.14 L -171.22 609.60 L -169.98 610.63 L -168.60 611.25 L -165.35 611.83 L -160.97 611.11 L -159.66 610.13 L -157.66 607.65 L -155.22 602.36 L -154.62 598.34 L -154.09 590.10 L -154.34 585.90 L -155.10 583.97 L -156.61 581.81 L -158.94 579.80 L -161.88 577.95 L -165.13 576.53 L -168.22 576.03 L -169.51 576.32 L -170.54 577.00 L -172.21 579.43 L -173.67 582.98 L -174.47 586.10 L -175.40 592.28" fill="none" stroke="rgb(0,0,0)" stroke-width="8.00" stroke-linecap="round" stroke-linejoin="round"/>
  <path d="M -112.12 589.13 L -109.56 605.41 L -107.95 612.90 L -108.23 615.29" fill="none" stroke="rgb(0,0,0)" stroke-width="8.00" stroke-linecap="round" stroke-linejoin="round"/>
  <path d="M -119.37 588.57 L -114.26 586.16 L -109.48 584.58 L -106.21 583.86 L -103.79 584.68 L -100.53 587.08 L -99.19 588.70 L -98.74 591.25 L -99.53 593.51 L -103.46 597.86 L -106.10 599.63 L -109.03 600.73 L -110.32 600.65 L -111.43 600.09 L -108.95 599.30 L -106.12 598.93 L -99.83 599.82 L -94.36 601.62 L -92.02 603.71 L -90.60 605.66 L -89.93 609.13 L -89.99 610.32 L -90.56 612.51 L -92.01 615.20 L -94.24 617.42 L -99.05 621.03 L -104.57 624.20 L -106.17 624.65" fill="none" stroke="rgb(0,0,0)" stroke-width="8.00" stroke-linecap="round" stroke-linejoin="round"/>
  <path d="M -92.16 592.03 L -90.41 596.97 L -89.64 600.63 L -87.67 619.36 L -85.59 621.36 L -81.71 623.16 L -79.11 622.77 L -77.22 621.54" fill="none" stroke="rgb(0,0,0)" stroke-width="8.00" stroke-linecap="round" stroke-linejoin="round"/>
  <path d="M -91.27 610.81 L -85.23 609.97 L -74.62 609.70 L -74.00 609.43" fill="none" stroke="rgb(0,0,0)" stroke-width="8.00" stroke-linecap="round" stroke-linejoin="round"/>
  <path d="M -102.96 595.17 L -98.31 592.63 L -95.12 591.36 L -88.28 590.32 L -84.10 590.19 L -79.13 590.67 L -70.73 592.48" fill="none" stroke="rgb(0,0,0)" stroke-width="8.00" stroke-linecap="round" stroke-linejoin="round"/>
  <path d="M -27.93 593.56 L -25.23 614.59 L -23.31 623.06 L -22.26 624.56" fill="none" stroke="rgb(0,0,0)" stroke-width="8.00" stroke-linecap="round" stroke-linejoin="round"/>
  <path d="M -33.83 601.11 L -32.95 594.46 L -31.57 589.66 L -29.93 587.66 L -28.80 587.32 L -27.20 587.33 L -21.38 590.22 L -13.68 596.12 L -10.22 600.11 L -7.10 604.31 L -6.23 606.00 L -5.78 607.88 L -5.66 612.73 L -6.12 615.50 L -8.59 620.27 L -12.61 625.21 L -15.77 627.74 L -18.73 628.96 L -21.91 628.83 L -24.07 628.36 L -24.68 627.96" fill="none" stroke="rgb(0,0,0)" stroke-width="8.00" stroke-linecap="round" stroke-linejoin="round"/>
  <path d="M -6.71 599.28 L -8.39 604.58 L -10.17 613.05 L -10.79 620.20 L -9.58 624.02 L -7.91 626.74 L -5.74 629.14 L -1.91 631.75 L 1.31 632.62 L 3.78 632.53 L 8.16 630.76 L 9.91 629.52 L 12.12 626.80 L 13.33 624.13 L 14.35 620.06 L 14.89 612.87 L 14.41 608.96 L 13.59 606.61 L 11.91 603.91 L 9.58 601.85 L 6.15 600.34 L 4.16 600.16 L 1.59 600.40 L -0.97 601.70" fill="none" stroke="rgb(0,0,0)" stroke-width="8.00" stroke-linecap="round" stroke-linejoin="round"/>
  <path d="M 23.42 629.30 L 23.44 621.63 L 22.67 612.37 L 20.90 601.88 L 20.74 598.65 L 21.91 600.98 L 25.61 606.24 L 28.35 610.92 L 31.28 617.03 L 33.08 622.05 L 34.45 624.94 L 37.99 629.98 L 39.55 630.56 L 40.32 629.74 L 41.54 626.74 L 42.64 620.84 L 44.61 603.57 L 44.77 592.03 L 44.34 594.86" fill="none" stroke="rgb(0,0,0)" stroke-width="8.00" stroke-linecap="round" stroke-linejoin="round"/>
  <path d="M 67.20 602.52 L 65.58 604.93 L 63.95 608.73 L 62.89 613.24 L 62.27 622.72 L 62.53 629.38 L 63.43 635.53 L 64.13 637.32 L 64.87 638.06 L 66.13 638.65 L 71.45 638.52 L 72.38 638.37 L 74.13 637.41 L 75.03 634.85" fill="none" stroke="rgb(0,0,0)" stroke-width="8.00" stroke-linecap="round" stroke-linejoin="round"/>
  <path d="M 55.35 620.34 L 60.52 622.12 L 64.18 622.71 L 68.48 622.22 L 69.34 621.76 L 69.83 620.89" fill="none" stroke="rgb(0,0,0)" stroke-width="8.00" stroke-linecap="round" stroke-linejoin="round"/>
  <path d="M 54.12 603.81 L 57.14 603.91 L 64.32 605.01 L 77.88 608.42" fill="none" stroke="rgb(0,0,0)" stroke-width="8.00" stroke-linecap="round" stroke-linejoin="round"/>
  <path d="M 103.73 618.09 L 117.78 608.56 L 126.59 603.32 L 134.08 597.45 L 143.25 587.37 L 145.03 584.95 L 147.02 580.92 L 149.53 576.94 L 149.19 577.70 L 149.40 577.32 L 147.60 577.62" fill="none" stroke="rgb(0,0,0)" stroke-width="8.00" stroke-linecap="round" stroke-linejoin="round"/>
  <path d="M 144.67 577.19 L 144.11 576.20 L 139.94 574.56 L 140.87 574.93 L 141.82 574.72 L 144.27 572.88 L 146.81 569.87 L 148.26 566.70 L 148.81 566.10 L 149.82 569.17 L 150.06 572.14 L 150.00 573.87 L 149.01 577.11 L 148.77 579.15 L 148.96 580.78 L 150.01 582.61 L 149.86 582.37 L 146.56 582.51 L 143.37 582.19 L 140.28 582.47" fill="none" stroke="rgb(0,0,0)" stroke-width="8.00" stroke-linecap="round" stroke-linejoin="round"/>
  <path d="M -51.70 459.80 L -51.46 455.73 L -50.39 451.34 L -50.48 451.93 L -54.20 456.78 L -54.84 458.40 L -54.19 466.85 L -54.52 480.40 L -55.25 485.94 L -56.77 493.04 L -61.28 519.64 L -62.37 531.37 L -62.33 534.59 L -62.36 534.06 L -61.68 534.84 L -59.56 535.56 L -51.98 536.28 L -39.79 538.01 L -21.89 541.11 L -2.95 543.67 L 10.44 545.09 L 25.45 546.27 L 45.74 546.16 L 57.77 546.87 L 78.83 548.77 L 109.69 549.80 L 134.11 552.50 L 142.67 552.90 L 154.24 554.10 L 167.35 555.91 L 179.45 558.35 L 188.19 559.63 L 195.31 560.21 L 204.10 560.36 L 210.61 561.47 L 217.00 563.07 L 232.58 566.20 L 242.39 567.45 L 257.67 568.43 L 278.08 570.38 L 286.66 570.75 L 291.77 571.32 L 319.67 571.49 L 336.49 572.90 L 348.04 573.04 L 349.11 571.68 L 349.95 569.38 L 349.93 564.24 L 345.22 542.83 L 341.34 521.22 L 340.57 513.87 L 340.87 508.44 L 341.60 503.73" fill="none" stroke="rgb(0,0,0)" stroke-width="8.00" stroke-linecap="round" stroke-linejoin="round"/>
  <path d="M -165.52 164.94 L -170.92 161.89" fill="none" stroke="rgb(255,0,0)" stroke-width="8.00" stroke-linecap="round" stroke-linejoin="round"/>
  <path d="M -170.24 157.22 L -170.76 154.30 L -170.92 148.64 L -170.72 146.92 L -170.60 148.56 L -170.50 175.97" fill="none" stroke="rgb(255,0,0)" stroke-width="8.00" stroke-linecap="round" stroke-linejoin="round"/>
  <path d="M -177.37 162.10 L -178.46 157.33 L -178.50 152.41 L -178.05 150.31 L -176.60 148.60 L -174.00 147.96 L -171.94 148.06 L -167.49 150.16 L -166.01 151.15 L -165.46 151.90 L -163.82 155.98 L -163.60 157.52 L -163.78 159.64 L -165.09 162.72 L -166.40 164.77 L -170.22 169.30 L -171.18 169.73 L -172.70 169.74 L -174.25 168.45 L -174.18 167.22" fill="none" stroke="rgb(255,0,0)" stroke-width="8.00" stroke-linecap="round" stroke-linejoin="round"/>
  <path d="M -155.95 154.50 L -156.24 161.78 L -155.00 173.15 L -156.67 171.06 L -157.29 169.90 L -157.57 168.27 L -156.82 155.71 L -155.91 152.88 L -153.05 151.51 L -151.18 151.35 L -149.97 152.11 L -148.77 153.85 L -147.31 157.83 L -147.25 159.74 L -148.49 162.48 L -150.63 165.06 L -153.56 167.69 L -155.59 168.19 L -150.79 168.26 L -147.88 169.73 L -146.67 171.53 L -143.80 180.11 L -142.39 177.47" fill="none" stroke="rgb(255,0,0)" stroke-width="8.00" stroke-linecap="round" stroke-linejoin="round"/>
  <path d="M -130.94 157.36 L -134.49 160.95 L -135.92 162.83 L -137.73 166.37 L -138.58 169.10 L -138.07 172.64 L -136.22 175.26 L -135.13 175.97 L -133.17 175.60 L -130.99 174.15 L -128.70 171.60 L -127.12 169.29 L -125.73 166.86 L -124.45 162.99 L -124.36 161.57 L -124.97 160.63 L -126.47 159.50 L -129.93 157.94 L -132.75 158.02 L -136.02 159.24" fill="none" stroke="rgb(255,0,0)" stroke-width="8.00" stroke-linecap="round" stroke-linejoin="round"/>
  <path d="M -113.22 160.43 L -114.83 165.16 L -116.24 171.58 L -116.71 176.61 L -116.49 180.81 L -116.90 177.62 L -116.87 166.30 L -116.57 164.27 L -115.90 162.83 L -115.02 161.88 L -112.08 160.44 L -110.55 159.98 L -109.53 160.10 L -108.97 160.45 L -108.22 162.85 L -108.22 165.94 L -111.39 174.49 L -114.68 178.72 L -114.98 179.57 L -116.92 179.49 L -118.71 178.81 L -114.61 175.72 L -108.65 173.92 L -107.30 173.89 L -105.74 174.46 L -104.11 175.92 L -101.92 180.99 L -102.03 181.95 L -103.44 184.20 L -107.64 188.24 L -108.81 188.61 L -110.11 188.36" fill="none" stroke="rgb(255,0,0)" stroke-width="8.00" stroke-linecap="round" stroke-linejoin="round"/>
  <path d="M -97.43 162.67 L -98.75 167.12 L -100.27 174.26 L -100.42 176.88 L -99.93 182.50 L -99.49 183.23 L -98.11 184.07 L -92.48 185.87 L -90.38 186.04 L -89.44 184.76" fill="none" stroke="rgb(255,0,0)" stroke-width="8.00" stroke-linecap="round" stroke-linejoin="round"/>
  <path d="M -85.54 165.74 L -88.08 176.69 L -87.74 180.32 L -86.42 181.89 L -85.67 183.64 L -84.02 184.89 L -82.64 185.21 L -79.06 185.27 L -78.59 184.90 L -77.90 183.07" fill="none" stroke="rgb(255,0,0)" stroke-width="8.00" stroke-linecap="round" stroke-linejoin="round"/>
  <path d="M -86.33 175.90 L -82.80 177.02 L -80.60 177.37 L -76.38 177.44 L -75.38 177.37 L -75.24 176.65 L -75.56 175.59" fill="none" stroke="rgb(255,0,0)" stroke-width="8.00" stroke-linecap="round" stroke-linejoin="round"/>
  <path d="M -84.30 166.59 L -79.70 164.88 L -78.07 165.00 L -75.05 166.91 L -74.24 168.07 L -73.58 170.32" fill="none" stroke="rgb(255,0,0)" stroke-width="8.00" stroke-linecap="round" stroke-linejoin="round"/>
  <path d="M -68.93 188.55 L -66.05 176.06 L -65.02 167.51 L -64.21 166.07 L -61.29 177.17 L -60.26 181.70 L -60.06 184.11 L -59.02 186.02 L -58.68 187.65 L -55.42 178.17 L -52.67 167.49 L -52.72 168.50 L -50.38 176.66 L -50.41 186.39 L -48.72 190.78" fill="none" stroke="rgb(255,0,0)" stroke-width="8.00" stroke-linecap="round" stroke-linejoin="round"/>
  <path d="M 13.26 164.13 L 10.16 164.40 L 7.94 165.40 L 6.73 166.55 L 4.56 169.55 L 3.72 171.41 L 3.86 172.49 L 4.73 173.33 L 12.64 175.18 L 14.90 176.05 L 18.29 178.39 L 19.09 179.55 L 19.81 182.81 L 18.54 185.03 L 15.35 187.89 L 12.77 189.23 L 10.62 189.32 L 11.43 188.24" fill="none" stroke="rgb(255,0,0)" stroke-width="8.00" stroke-linecap="round" stroke-linejoin="round"/>
  <path d="M 30.36 167.20 L 28.61 176.71 L 29.00 181.81 L 29.71 185.40 L 29.83 184.55" fill="none" stroke="rgb(255,0,0)" stroke-width="8.00" stroke-linecap="round" stroke-linejoin="round"/>
  <path d="M 30.21 163.67 L 30.22 163.79" fill="none" stroke="rgb(255,0,0)" stroke-width="8.00" stroke-linecap="round" stroke-linejoin="round"/>
  <path d="M 38.47 168.45 L 37.93 187.35 L 37.30 177.31 L 38.03 172.45 L 39.37 169.92 L 39.95 169.58 L 43.08 169.18 L 45.44 169.69 L 48.93 171.03 L 50.18 171.81 L 51.25 172.98 L 52.03 175.59 L 52.22 178.12 L 51.21 182.52 L 49.87 185.74 L 47.70 189.52 L 44.75 193.06 L 43.65 192.53 L 42.59 191.43 L 42.28 190.55 L 42.56 189.96" fill="none" stroke="rgb(255,0,0)" stroke-width="8.00" stroke-linecap="round" stroke-linejoin="round"/>
  <path d="M 61.20 169.39 L 58.75 173.74 L 56.70 179.34 L 56.06 185.27 L 56.97 190.27 L 60.20 192.27 L 64.31 192.79 L 68.63 194.33" fill="none" stroke="rgb(255,0,0)" stroke-width="8.00" stroke-linecap="round" stroke-linejoin="round"/>
  <path d="M 60.13 182.07 L 66.59 180.80 L 68.93 181.40 L 69.92 182.03" fill="none" stroke="rgb(255,0,0)" stroke-width="8.00" stroke-linecap="round" stroke-linejoin="round"/>
  <path d="M 57.94 171.13 L 59.71 171.61 L 64.17 171.73 L 69.52 171.61 L 72.33 171.05" fill="none" stroke="rgb(255,0,0)" stroke-width="8.00" stroke-linecap="round" stroke-linejoin="round"/>
  <path d="M -302.73 719.29 L -302.59 718.74 L -301.25 719.71 L -298.42 720.99 L -289.71 724.20 L -287.82 724.63 L -285.03 724.70 L -279.43 723.89 L -277.60 723.98 L -274.66 724.86 L -273.88 724.82 L -274.12 723.46 L -275.29 720.98" fill="none" stroke="rgb(0,0,0)" stroke-width="8.00" stroke-linecap="round" stroke-linejoin="round"/>
  <path d="M -278.41 716.58 L -282.29 718.83 L -278.49 721.61 L -271.51 725.82 L -270.01 726.91 L -268.85 728.33 L -269.12 728.26 L -273.13 732.55 L -274.49 733.31 L -274.74 733.28 L -274.58 733.09 L -275.74 733.43" fill="none" stroke="rgb(0,0,0)" stroke-width="8.00" stroke-linecap="round" stroke-linejoin="round"/>
  <path d="M -242.11 699.19 L -242.83 703.54 L -242.61 709.47 L -240.73 718.87 L -238.25 734.58 L -237.66 736.57 L -236.41 738.23 L -236.29 739.23" fill="none" stroke="rgb(0,0,0)" stroke-width="8.00" stroke-linecap="round" stroke-linejoin="round"/>
  <path d="M -248.15 728.78 L -245.67 727.37 L -240.83 725.98 L -238.20 725.88 L -235.77 726.19 L -233.72 725.71" fill="none" stroke="rgb(0,0,0)" stroke-width="8.00" stroke-linecap="round" stroke-linejoin="round"/>
  <path d="M -223.65 725.17 L -225.19 724.72 L -228.02 724.78 L -230.10 726.16 L -231.08 727.77 L -231.27 729.44 L -230.76 733.98 L -229.74 738.27 L -228.81 739.95 L -224.19 737.41 L -222.60 732.76 L -221.63 728.37 L -221.77 730.43 L -221.06 732.66 L -218.89 736.10 L -217.56 736.91 L -215.46 736.68 L -213.48 735.50 L -211.71 733.58 L -210.50 731.62 L -209.22 724.61 L -209.42 719.01 L -209.98 715.37 L -210.87 711.76 L -211.93 709.35 L -213.24 707.19 L -215.99 703.87 L -216.55 703.56 L -216.75 708.23 L -213.75 724.86 L -212.11 731.09 L -209.31 735.43 L -208.17 738.03" fill="none" stroke="rgb(0,0,0)" stroke-width="8.00" stroke-linecap="round" stroke-linejoin="round"/>
  <path d="M -204.22 704.85 L -197.10 739.23 L -196.61 740.20 L -196.06 740.69 L -196.00 740.39" fill="none" stroke="rgb(0,0,0)" stroke-width="8.00" stroke-linecap="round" stroke-linejoin="round"/>
  <path d="M -200.48 735.36 L -195.17 723.85 L -191.94 717.69" fill="none" stroke="rgb(0,0,0)" stroke-width="8.00" stroke-linecap="round" stroke-linejoin="round"/>
  <path d="M -203.09 728.74 L -194.03 734.91 L -188.55 737.19 L -186.73 738.39" fill="none" stroke="rgb(0,0,0)" stroke-width="8.00" stroke-linecap="round" stroke-linejoin="round"/>
  <path d="M -148.43 728.45 L -149.37 726.72 L -150.10 722.11 L -150.53 715.30 L -151.82 707.87 L -151.70 705.45 L -151.43 711.17 L -150.08 716.95 L -147.23 734.02 L -146.17 738.31 L -145.51 739.80 L -144.47 740.91" fill="none" stroke="rgb(0,0,0)" stroke-width="8.00" stroke-linecap="round" stroke-linejoin="round"/>
  <path d="M -154.43 734.89 L -148.39 734.05 L -140.21 733.62 L -139.51 733.27 L -139.30 732.81" fill="none" stroke="rgb(0,0,0)" stroke-width="8.00" stroke-linecap="round" stroke-linejoin="round"/>
  <path d="M -129.34 730.12 L -133.24 731.77 L -134.90 733.20 L -136.02 734.81 L -135.63 736.52 L -132.81 743.04 L -131.76 744.61 L -130.08 746.00 L -128.44 746.11 L -125.66 744.67 L -124.17 743.41 L -121.77 739.96 L -120.56 733.99 L -120.82 730.66 L -121.78 728.87 L -123.08 727.70 L -125.90 727.04 L -127.24 727.08 L -129.65 727.91 L -131.85 729.32 L -132.94 730.20 L -134.41 732.54 L -134.78 733.77 L -134.42 734.88 L -132.85 736.34 L -130.83 737.03 L -126.80 736.64 L -124.34 734.93 L -123.28 733.78" fill="none" stroke="rgb(0,0,0)" stroke-width="8.00" stroke-linecap="round" stroke-linejoin="round"/>
  <path d="M -92.31 745.98 L -91.57 744.93 L -90.41 742.05 L -89.24 737.19 L -88.90 734.29 L -89.29 731.25 L -89.62 730.73 L -90.97 734.45 L -90.90 739.20 L -89.95 742.99 L -88.23 746.26 L -86.74 746.06 L -84.87 744.88 L -81.61 737.35 L -81.60 736.59 L -83.13 738.36 L -83.43 740.34 L -82.37 743.14 L -80.45 745.81 L -79.87 746.17 L -78.29 745.86 L -75.39 744.24 L -74.51 742.79 L -73.02 737.25 L -73.15 732.10 L -70.13 738.48 L -70.35 744.16 L -69.77 744.99 L -67.61 746.40 L -65.01 746.37 L -60.11 743.47 L -56.60 739.67 L -55.95 738.07 L -55.80 737.01 L -56.07 736.46 L -57.88 735.38 L -60.36 734.50 L -62.00 736.44 L -62.49 737.77 L -62.63 739.50 L -61.88 744.49 L -60.41 747.68 L -59.54 748.28 L -56.63 747.78 L -54.49 746.60 L -53.57 743.95 L -52.08 742.20 L -42.33 735.36 L -43.81 740.16 L -43.99 742.82 L -43.29 749.12 L -42.19 751.73 L -42.33 751.25 L -42.07 750.89" fill="none" stroke="rgb(0,0,0)" stroke-width="8.00" stroke-linecap="round" stroke-linejoin="round"/>
  <path d="M -30.46 734.84 L -33.32 738.27 L -35.65 742.20 L -36.03 743.81 L -35.18 745.63 L -33.91 746.77 L -27.89 748.97 L -25.43 750.38 L -23.70 754.74 L -23.59 756.43 L -23.65 757.15 L -24.19 757.90 L -27.86 761.36 L -29.59 761.97 L -32.44 761.16" fill="none" stroke="rgb(0,0,0)" stroke-width="8.00" stroke-linecap="round" stroke-linejoin="round"/>
  <path d="M -3.90 749.62 L -3.88 749.64" fill="none" stroke="rgb(0,0,0)" stroke-width="8.00" stroke-linecap="round" stroke-linejoin="round"/>
  <path d="M -1.44 738.13 L -1.46 738.19" fill="none" stroke="rgb(0,0,0)" stroke-width="8.00" stroke-linecap="round" stroke-linejoin="round"/>
  <path d="M -227.79 787.49 L -227.41 795.35 L -226.21 802.78 L -226.35 804.52" fill="none" stroke="rgb(0,0,0)" stroke-width="8.00" stroke-linecap="round" stroke-linejoin="round"/>
  <path d="M -229.96 798.67 L -232.02 794.97 L -232.55 793.23 L -232.68 790.96 L -232.29 787.92 L -229.09 779.82 L -225.56 778.84 L -223.31 778.92 L -220.97 779.84 L -220.16 783.00 L -220.10 784.52 L -222.16 789.38 L -226.67 795.98 L -229.05 798.24 L -231.22 799.83 L -232.70 800.22 L -231.00 796.64" fill="none" stroke="rgb(0,0,0)" stroke-width="8.00" stroke-linecap="round" stroke-linejoin="round"/>
  <path d="M -215.03 781.84 L -211.43 798.50 L -211.06 805.27 L -213.18 801.00 L -214.26 797.36 L -214.73 794.41 L -214.37 788.75 L -213.56 785.81 L -210.89 780.90 L -208.01 779.41 L -206.29 779.80 L -204.42 781.18 L -203.49 783.42 L -203.53 784.69 L -205.09 787.32 L -209.04 791.84 L -212.76 795.28 L -215.25 796.50 L -213.37 795.59 L -212.10 795.39 L -206.63 795.36 L -204.12 796.21 L -201.89 798.60 L -200.54 802.70" fill="none" stroke="rgb(0,0,0)" stroke-width="8.00" stroke-linecap="round" stroke-linejoin="round"/>
  <path d="M -195.53 784.48 L -197.40 787.05 L -198.34 788.93 L -199.33 792.88 L -197.66 801.47 L -196.70 803.60 L -194.93 805.30 L -193.88 805.79 L -192.84 805.67 L -191.85 805.02 L -190.21 802.87 L -189.07 799.45 L -187.63 791.21 L -187.89 788.43 L -188.99 786.25 L -190.27 785.20 L -192.09 784.57 L -193.45 785.00 L -194.83 786.43 L -195.77 788.96 L -195.60 790.52" fill="none" stroke="rgb(0,0,0)" stroke-width="8.00" stroke-linecap="round" stroke-linejoin="round"/>
  <path d="M -182.99 786.45 L -183.38 788.06 L -183.47 793.43 L -182.49 801.71 L -182.41 805.28 L -183.79 797.14 L -183.72 792.28 L -182.39 787.75 L -181.13 785.39 L -177.78 784.26 L -176.34 784.23 L -175.78 786.48 L -175.77 788.27 L -176.96 791.08 L -181.04 796.38 L -183.06 798.42 L -183.82 800.23 L -181.75 798.06 L -179.63 796.45 L -174.83 794.84 L -173.90 794.78 L -173.01 795.02 L -171.85 795.97 L -170.48 800.75 L -170.53 803.64 L -173.85 808.80 L -175.37 809.52 L -176.70 809.51 L -178.43 808.84 L -180.05 807.75" fill="none" stroke="rgb(0,0,0)" stroke-width="8.00" stroke-linecap="round" stroke-linejoin="round"/>
  <path d="M -165.27 785.08 L -165.85 792.63 L -165.75 804.79 L -165.21 807.05 L -162.92 807.97 L -160.12 808.38 L -156.90 806.64 L -156.14 805.46" fill="none" stroke="rgb(0,0,0)" stroke-width="8.00" stroke-linecap="round" stroke-linejoin="round"/>
  <path d="M -152.65 786.49 L -153.81 792.05 L -153.66 797.74 L -153.04 801.08 L -151.07 804.90 L -150.22 805.63 L -148.94 806.05 L -141.75 805.85 L -141.77 805.48" fill="none" stroke="rgb(0,0,0)" stroke-width="8.00" stroke-linecap="round" stroke-linejoin="round"/>
  <path d="M -152.24 797.60 L -147.02 797.19 L -144.88 797.32 L -143.76 797.81 L -142.89 797.71" fill="none" stroke="rgb(0,0,0)" stroke-width="8.00" stroke-linecap="round" stroke-linejoin="round"/>
  <path d="M -152.74 789.06 L -146.45 787.57 L -144.37 787.87 L -143.61 788.51 L -141.21 792.66" fill="none" stroke="rgb(0,0,0)" stroke-width="8.00" stroke-linecap="round" stroke-linejoin="round"/>
  <path d="M -135.67 805.99 L -134.28 803.49 L -133.12 799.70 L -131.56 791.33 L -131.62 788.70 L -127.27 802.63 L -126.85 805.27 L -126.38 806.01 L -125.10 805.08 L -124.30 803.46 L -122.53 795.71 L -121.52 792.86 L -120.49 791.05 L -119.48 790.71 L -118.89 791.00 L -118.00 793.10 L -115.40 803.83 L -113.81 808.24 L -113.64 809.27 L -113.92 808.95 L -113.85 809.63" fill="none" stroke="rgb(0,0,0)" stroke-width="8.00" stroke-linecap="round" stroke-linejoin="round"/>
  <path d="M -84.03 801.73 L -84.23 802.34 L -83.20 802.54 L -60.82 802.85 L -52.57 803.29 L -39.65 804.54 L -34.05 804.65 L -26.50 804.13 L -21.16 802.90 L -24.35 802.33 L -27.45 800.91" fill="none" stroke="rgb(0,0,0)" stroke-width="8.00" stroke-linecap="round" stroke-linejoin="round"/>
  <path d="M -24.01 800.56 L -31.22 796.95 L -35.68 796.46 L -35.08 796.47 L -32.03 798.19 L -27.94 799.55 L -21.57 800.62 L -21.91 800.60 L -22.80 802.05 L -23.63 802.73 L -31.50 805.96 L -35.05 808.63 L -35.10 808.26 L -37.44 807.23 L -39.44 805.55 L -39.67 804.98 L -39.39 804.82 L -39.36 803.27" fill="none" stroke="rgb(0,0,0)" stroke-width="8.00" stroke-linecap="round" stroke-linejoin="round"/>
  <path d="M 3.95 799.59 L 3.88 799.52" fill="none" stroke="rgb(0,0,0)" stroke-width="8.00" stroke-linecap="round" stroke-linejoin="round"/>
  <path d="M 1.53 787.93 L 5.63 805.28 L 5.38 810.26 L 4.40 814.71 L 3.99 815.32 L 2.00 815.80 L -4.33 815.69 L -6.54 815.16" fill="none" stroke="rgb(0,0,0)" stroke-width="8.00" stroke-linecap="round" stroke-linejoin="round"/>
  <path d="M 11.19 794.19 L 9.63 797.59 L 8.35 802.99 L 8.56 810.64 L 9.65 814.36 L 10.82 815.89 L 12.45 815.83 L 13.93 814.94 L 15.10 813.68 L 16.07 811.00 L 17.03 806.06 L 17.01 802.60 L 16.35 800.24 L 14.61 797.38 L 11.44 796.38 L 10.22 796.27 L 9.25 796.69 L 9.04 798.50" fill="none" stroke="rgb(0,0,0)" stroke-width="8.00" stroke-linecap="round" stroke-linejoin="round"/>
  <path d="M 22.30 796.15 L 22.12 803.94 L 23.85 813.70 L 23.67 814.61 L 21.91 811.91 L 20.45 809.13 L 19.62 806.65 L 19.02 803.07 L 19.22 800.33 L 19.82 798.70 L 20.71 797.51 L 23.00 795.83 L 25.21 795.01 L 27.15 796.57 L 28.71 799.99 L 28.78 801.19 L 22.37 812.23 L 23.74 809.67 L 24.91 808.54 L 28.13 807.21 L 29.09 807.24 L 29.76 807.57 L 30.56 808.56 L 32.84 814.08 L 32.71 816.53 L 30.24 821.93 L 29.07 822.15 L 28.68 821.64" fill="none" stroke="rgb(0,0,0)" stroke-width="8.00" stroke-linecap="round" stroke-linejoin="round"/>
  <path d="M 53.50 795.49 L 53.71 798.10 L 55.07 805.22 L 57.52 814.07" fill="none" stroke="rgb(0,0,0)" stroke-width="8.00" stroke-linecap="round" stroke-linejoin="round"/>
  <path d="M 45.54 799.64 L 52.23 800.11 L 53.61 800.40 L 55.13 801.68 L 57.15 801.75" fill="none" stroke="rgb(0,0,0)" stroke-width="8.00" stroke-linecap="round" stroke-linejoin="round"/>
  <path d="M 66.13 797.53 L 64.36 798.65 L 62.50 800.65 L 60.72 804.06 L 60.36 806.34 L 61.20 811.22 L 62.93 816.45 L 64.04 817.91 L 64.90 818.09 L 66.94 817.81 L 68.96 816.77 L 70.72 814.41 L 72.09 808.41 L 72.12 804.27 L 70.97 799.95 L 67.63 796.47 L 65.93 796.18 L 64.77 796.93 L 64.06 797.99" fill="none" stroke="rgb(0,0,0)" stroke-width="8.00" stroke-linecap="round" stroke-linejoin="round"/>
  <path d="M 88.35 796.96 L 90.43 806.69 L 90.36 816.00 L 88.56 809.63 L 88.19 806.29 L 88.48 797.80 L 89.46 796.28 L 92.68 795.24 L 94.24 798.80 L 94.22 801.91 L 92.21 806.68 L 88.32 811.59 L 86.90 812.61 L 91.89 811.75 L 95.37 811.84 L 99.55 813.92 L 100.16 815.20 L 100.50 817.78 L 99.05 820.57 L 96.63 822.86 L 95.24 823.25 L 94.99 822.40" fill="none" stroke="rgb(0,0,0)" stroke-width="8.00" stroke-linecap="round" stroke-linejoin="round"/>
  <path d="M 100.00 798.21 L 100.76 803.55 L 100.71 812.95 L 102.49 821.90 L 105.51 822.66 L 109.60 822.77 L 111.20 822.28 L 111.91 820.90" fill="none" stroke="rgb(0,0,0)" stroke-width="8.00" stroke-linecap="round" stroke-linejoin="round"/>
  <path d="M 99.19 809.82 L 102.76 812.38 L 106.49 813.64 L 107.72 813.22 L 108.19 811.25" fill="none" stroke="rgb(0,0,0)" stroke-width="8.00" stroke-linecap="round" stroke-linejoin="round"/>
  <path d="M 96.47 796.10 L 100.69 794.99 L 103.88 794.82 L 108.98 795.52 L 111.41 796.73" fill="none" stroke="rgb(0,0,0)" stroke-width="8.00" stroke-linecap="round" stroke-linejoin="round"/>
  <path d="M 133.94 797.12 L 136.03 807.02 L 136.68 813.04 L 137.86 819.41 L 137.70 821.94 L 135.47 818.21 L 134.63 815.48 L 134.43 813.54 L 134.53 806.08 L 137.15 800.61 L 138.41 800.65 L 139.49 801.20 L 142.47 804.65 L 143.34 806.50 L 145.39 814.73 L 145.47 816.90 L 144.65 818.97 L 142.43 823.26 L 140.55 824.57" fill="none" stroke="rgb(0,0,0)" stroke-width="8.00" stroke-linecap="round" stroke-linejoin="round"/>
  <path d="M 153.02 799.77 L 148.90 807.37 L 148.19 810.69 L 149.26 819.82 L 149.76 821.91 L 151.16 824.54 L 151.88 824.55 L 152.62 823.99 L 154.31 822.09 L 155.81 818.96 L 157.66 811.51 L 157.58 806.68 L 155.51 803.56 L 152.16 800.79 L 149.80 799.64 L 149.27 799.60 L 148.97 800.54 L 148.42 804.55" fill="none" stroke="rgb(0,0,0)" stroke-width="8.00" stroke-linecap="round" stroke-linejoin="round"/>
  <path d="M 163.20 826.12 L 162.60 814.42 L 160.76 807.19 L 160.89 804.79 L 163.18 807.75 L 164.84 810.85 L 167.18 816.46 L 172.65 826.39 L 172.35 825.80 L 173.91 822.91 L 174.41 821.21 L 174.31 804.88 L 174.75 801.06 L 175.03 800.35 L 175.02 801.29" fill="none" stroke="rgb(0,0,0)" stroke-width="8.00" stroke-linecap="round" stroke-linejoin="round"/>
  <path d="M 183.96 802.00 L 184.12 808.68 L 183.80 813.01 L 182.29 819.93 L 182.49 822.77 L 183.27 824.35 L 184.71 825.84 L 189.93 828.20 L 190.76 828.28 L 191.72 827.87" fill="none" stroke="rgb(0,0,0)" stroke-width="8.00" stroke-linecap="round" stroke-linejoin="round"/>
  <path d="M 182.59 814.69 L 186.06 815.75 L 190.92 816.57 L 193.68 817.35" fill="none" stroke="rgb(0,0,0)" stroke-width="8.00" stroke-linecap="round" stroke-linejoin="round"/>
  <path d="M 181.41 800.71 L 183.73 799.78 L 186.84 799.30 L 188.00 799.42 L 191.56 800.83 L 195.23 803.59 L 196.50 803.36" fill="none" stroke="rgb(0,0,0)" stroke-width="8.00" stroke-linecap="round" stroke-linejoin="round"/>
  <path d="M -306.58 883.82 L -302.87 886.00 L -300.25 887.06 L -289.61 888.65 L -283.89 888.45 L -278.23 887.67 L -272.32 887.81 L -273.56 886.81" fill="none" stroke="rgb(0,0,0)" stroke-width="8.00" stroke-linecap="round" stroke-linejoin="round"/>
  <path d="M -278.97 883.09 L -273.61 888.90 L -273.46 889.93 L -273.73 891.19 L -275.41 893.62 L -276.28 896.02" fill="none" stroke="rgb(0,0,0)" stroke-width="8.00" stroke-linecap="round" stroke-linejoin="round"/>
  <path d="M -239.84 881.73 L -245.33 878.70 L -246.30 878.67 L -248.10 880.31 L -250.66 883.67 L -251.69 887.55 L -251.32 891.19 L -249.40 896.07 L -247.79 898.64 L -247.05 898.89 L -245.53 898.58 L -243.79 897.51 L -241.91 892.38 L -241.49 883.87 L -242.54 886.84 L -242.62 893.35 L -239.97 912.32 L -238.45 906.20 L -238.37 896.04 L -239.52 889.30 L -241.32 883.15 L -240.08 890.71 L -238.21 897.02 L -235.99 900.04 L -234.15 900.74 L -233.05 900.60 L -231.92 899.79 L -230.39 894.39 L -230.55 887.86 L -230.82 887.05 L -231.09 887.07 L -231.47 891.36 L -230.81 895.06 L -230.05 896.83 L -229.06 898.16 L -227.24 898.32 L -225.00 897.52 L -222.82 892.70 L -222.53 890.61 L -222.98 885.91 L -223.93 887.77 L -224.09 890.27 L -221.79 897.18 L -221.17 898.31 L -219.84 899.65 L -217.53 900.77 L -216.35 900.77 L -210.63 900.21 L -207.98 898.87 L -207.02 896.83 L -205.70 891.17 L -205.62 888.89 L -207.10 886.03 L -209.75 883.89 L -210.76 883.53 L -211.11 885.64 L -210.19 896.36 L -209.10 900.04" fill="none" stroke="rgb(0,0,0)" stroke-width="8.00" stroke-linecap="round" stroke-linejoin="round"/>
  <path d="M -198.55 881.17 L -201.93 885.36 L -204.38 889.85 L -204.61 890.86 L -203.59 892.01 L -200.32 891.45 L -195.88 893.21 L -192.76 893.87 L -191.18 894.52 L -190.38 896.63 L -190.31 898.88 L -192.84 903.28 L -193.92 903.63 L -195.70 902.02 L -196.51 899.87 L -196.57 898.15" fill="none" stroke="rgb(0,0,0)" stroke-width="8.00" stroke-linecap="round" stroke-linejoin="round"/>
  <path d="M -192.07 858.05 L -188.06 885.39 L -185.18 899.53 L -184.01 901.36" fill="none" stroke="rgb(0,0,0)" stroke-width="8.00" stroke-linecap="round" stroke-linejoin="round"/>
  <path d="M -192.27 890.77 L -186.40 888.98 L -184.81 888.21 L -184.93 888.47" fill="none" stroke="rgb(0,0,0)" stroke-width="8.00" stroke-linecap="round" stroke-linejoin="round"/>
  <path d="M -179.46 902.72 L -175.75 898.13 L -174.71 896.13 L -173.61 892.44 L -173.12 895.67 L -171.56 901.70 L -171.01 903.39 L -170.32 904.37 L -170.25 903.15" fill="none" stroke="rgb(0,0,0)" stroke-width="8.00" stroke-linecap="round" stroke-linejoin="round"/>
  <path d="M -170.60 876.30 L -170.68 879.82" fill="none" stroke="rgb(0,0,0)" stroke-width="8.00" stroke-linecap="round" stroke-linejoin="round"/>
  <path d="M -160.98 888.57 L -162.95 889.58 L -164.38 891.03 L -165.49 893.16 L -166.05 896.14 L -165.76 899.66 L -165.03 903.08 L -162.89 905.70 L -161.52 906.79 L -159.31 907.11 L -158.12 906.37 L -156.70 904.71 L -155.75 901.96 L -154.67 895.13 L -154.67 891.67 L -155.85 887.93 L -157.44 886.55 L -159.86 886.23 L -162.34 887.36 L -164.94 890.48 L -165.49 891.89 L -164.96 895.59 L -162.38 897.64 L -160.51 898.53 L -159.49 898.40 L -157.16 896.78 L -153.26 891.26 L -151.08 890.30 L -149.84 890.23 L -148.30 893.48 L -146.93 897.67 L -147.15 902.25 L -147.73 900.32 L -147.68 898.56 L -144.64 891.65 L -142.95 890.33 L -139.24 888.82 L -137.81 888.70 L -136.92 889.01 L -136.03 890.96 L -135.60 893.36 L -135.65 895.43 L -136.82 901.66 L -136.70 902.85" fill="none" stroke="rgb(0,0,0)" stroke-width="8.00" stroke-linecap="round" stroke-linejoin="round"/>
  <path d="M -127.01 890.54 L -131.94 892.11 L -133.91 893.16 L -135.59 894.75 L -136.40 897.52 L -133.93 899.41 L -125.59 902.77 L -122.05 905.57 L -120.64 908.39 L -119.58 913.13 L -119.58 914.53 L -120.85 916.64 L -123.19 916.56" fill="none" stroke="rgb(0,0,0)" stroke-width="8.00" stroke-linecap="round" stroke-linejoin="round"/>
  <path d="M -87.37 907.12 L -83.39 886.68 L -82.39 879.23 L -78.37 890.00 L -76.24 897.78 L -75.05 904.22 L -74.48 905.74 L -73.26 907.60 L -73.02 908.62 L -73.24 908.48" fill="none" stroke="rgb(0,0,0)" stroke-width="8.00" stroke-linecap="round" stroke-linejoin="round"/>
  <path d="M -91.83 898.47 L -87.83 900.24 L -83.80 901.36 L -77.16 902.11 L -75.22 901.99" fill="none" stroke="rgb(0,0,0)" stroke-width="8.00" stroke-linecap="round" stroke-linejoin="round"/>
  <path d="M -71.59 884.40 L -70.45 904.66 L -69.58 909.38 L -68.81 911.07 L -67.69 912.12 L -66.05 912.61 L -59.27 911.66 L -57.08 911.86 L -57.18 911.31" fill="none" stroke="rgb(0,0,0)" stroke-width="8.00" stroke-linecap="round" stroke-linejoin="round"/>
  <path d="M -58.73 887.19 L -56.42 897.74 L -55.55 903.52 L -54.35 907.67 L -52.62 911.78 L -50.21 910.70 L -48.88 908.56 L -46.05 896.68 L -44.90 894.09 L -40.39 909.98 L -38.74 912.73 L -36.87 911.56 L -35.28 908.60 L -31.08 890.99 L -30.28 889.21 L -29.90 888.85 L -29.92 889.31" fill="none" stroke="rgb(0,0,0)" stroke-width="8.00" stroke-linecap="round" stroke-linejoin="round"/>
  <path d="M -27.67 913.10 L -22.92 902.72 L -19.39 892.16 L -16.57 886.32 L -16.64 886.79 L -15.63 887.27 L -15.03 888.13 L -13.78 892.24 L -12.47 900.60 L -11.71 911.43 L -10.82 913.51" fill="none" stroke="rgb(0,0,0)" stroke-width="8.00" stroke-linecap="round" stroke-linejoin="round"/>
  <path d="M -29.70 903.21 L -17.82 906.56 L -14.51 906.59 L -12.71 905.52" fill="none" stroke="rgb(0,0,0)" stroke-width="8.00" stroke-linecap="round" stroke-linejoin="round"/>
  <path d="M -3.67 914.54 L -0.15 908.02 L 2.28 901.32 L 3.74 895.99 L 4.76 893.42 L 6.66 890.20 L 6.66 889.61" fill="none" stroke="rgb(0,0,0)" stroke-width="8.00" stroke-linecap="round" stroke-linejoin="round"/>
  <path d="M -7.43 885.20 L -4.43 898.14 L -3.45 900.70 L -1.95 903.41" fill="none" stroke="rgb(0,0,0)" stroke-width="8.00" stroke-linecap="round" stroke-linejoin="round"/>
  <path d="M 18.81 881.57 L 13.33 885.29 L 9.25 889.03 L 6.68 892.78 L 6.83 894.67 L 8.60 896.58 L 18.06 902.56 L 19.79 904.23 L 21.16 906.14 L 22.45 908.93 L 23.46 915.47 L 22.04 918.94 L 19.07 921.11 L 17.42 921.22 L 15.57 920.13 L 12.23 918.81" fill="none" stroke="rgb(0,0,0)" stroke-width="8.00" stroke-linecap="round" stroke-linejoin="round"/>
  <path d="M 59.81 908.86 L 63.43 924.72 L 62.92 929.67 L 60.97 925.87 L 60.34 923.47 L 59.53 915.19 L 59.62 909.54 L 63.74 907.85 L 64.95 908.51 L 68.42 912.29 L 68.70 912.26 L 69.44 914.16 L 69.21 916.54 L 67.67 917.94 L 64.21 919.08" fill="none" stroke="rgb(0,0,0)" stroke-width="8.00" stroke-linecap="round" stroke-linejoin="round"/>
  <path d="M 71.83 918.40 L 71.45 917.97 L 72.39 912.65 L 72.25 907.71 L 72.29 908.18 L 76.59 905.53 L 76.30 905.70 L 76.33 906.26 L 77.60 910.61 L 78.69 913.34 L 80.19 915.54 L 83.11 915.67 L 84.28 915.23 L 87.09 908.96 L 89.82 907.65 L 87.73 910.34 L 87.47 912.07 L 87.63 914.54 L 89.41 918.80 L 90.21 919.65 L 91.50 920.32 L 93.95 919.93 L 97.65 917.98 L 98.78 917.00 L 100.71 913.85 L 101.90 909.46 L 101.90 907.82 L 101.23 907.00 L 100.25 906.53 L 96.56 905.20 L 95.30 905.09 L 93.54 905.19 L 91.79 905.77 L 88.92 907.57 L 87.06 909.86 L 86.94 910.46 L 88.86 913.28 L 89.86 913.95 L 90.84 914.25 L 93.44 913.96 L 95.80 913.21 L 100.48 912.56" fill="none" stroke="rgb(0,0,0)" stroke-width="8.00" stroke-linecap="round" stroke-linejoin="round"/>
  <path d="M 99.11 888.37 L 102.22 893.92 L 105.01 900.61 L 107.14 908.30 L 108.16 913.99 L 109.36 916.66 L 109.44 917.13 L 108.66 916.59 L 107.35 914.77 L 106.97 913.33 L 107.58 907.07 L 108.91 903.75 L 110.35 903.17 L 113.97 902.86 L 117.40 903.71 L 118.86 904.73 L 119.71 908.47 L 119.42 910.77 L 117.06 914.73 L 114.90 916.81 L 113.80 917.22" fill="none" stroke="rgb(0,0,0)" stroke-width="8.00" stroke-linecap="round" stroke-linejoin="round"/>
  <path d="M 121.56 921.36 L 124.86 918.80 L 130.36 913.29 L 132.49 910.15 L 133.58 907.15 L 134.70 902.03 L 134.63 897.39 L 133.00 892.65 L 131.10 890.11 L 130.00 889.16 L 128.12 890.82 L 127.27 893.41 L 126.70 897.40 L 126.90 903.89 L 129.32 915.59 L 131.08 919.83 L 132.39 921.61 L 133.68 922.59 L 135.07 923.08 L 137.54 922.74 L 141.27 920.72 L 142.80 919.03 L 144.51 913.48 L 144.56 911.96 L 143.27 910.01 L 141.03 909.08 L 139.85 910.16 L 139.09 911.47 L 137.99 914.55 L 137.80 916.42 L 138.40 919.42 L 141.44 925.61 L 142.84 925.03 L 146.78 917.24 L 148.32 914.81 L 149.41 914.13 L 152.04 913.29 L 153.11 914.97 L 156.08 922.91 L 157.49 925.19 L 157.80 923.42 L 160.25 916.91 L 161.46 914.67 L 161.90 914.03 L 164.68 913.55 L 166.62 914.59 L 172.27 926.98 L 172.87 922.19 L 176.11 914.83 L 176.54 914.38 L 179.44 913.89 L 182.52 915.34 L 185.77 918.27 L 187.36 920.70 L 191.36 928.88 L 192.06 928.81" fill="none" stroke="rgb(0,0,0)" stroke-width="8.00" stroke-linecap="round" stroke-linejoin="round"/>
  <path d="M 227.06 909.65 L 223.14 910.82 L 221.13 912.09 L 218.31 914.62 L 217.72 915.97 L 217.77 917.02 L 218.43 917.94 L 219.92 918.59 L 221.30 918.86 L 224.57 918.67 L 226.68 919.23 L 229.02 920.33 L 230.84 921.93 L 232.15 926.22 L 230.91 928.34 L 229.31 929.67 L 226.15 931.07 L 224.90 931.16 L 224.29 930.64 L 223.35 929.26 L 223.29 928.15" fill="none" stroke="rgb(0,0,0)" stroke-width="8.00" stroke-linecap="round" stroke-linejoin="round"/>
  <path d="M 235.04 931.74 L 237.45 929.45 L 239.18 926.77 L 240.01 921.82 L 239.25 918.00 L 240.79 928.32 L 241.65 931.25 L 242.31 932.68 L 242.03 931.17" fill="none" stroke="rgb(0,0,0)" stroke-width="8.00" stroke-linecap="round" stroke-linejoin="round"/>
  <path d="M 238.29 905.71 L 238.33 905.87" fill="none" stroke="rgb(0,0,0)" stroke-width="8.00" stroke-linecap="round" stroke-linejoin="round"/>
  <path d="M 257.03 923.89 L 255.90 919.58 L 254.42 916.72 L 249.99 915.54 L 248.63 916.75 L 247.61 919.46 L 247.41 922.11 L 247.64 926.06 L 248.53 929.27 L 249.81 930.00 L 251.80 930.16 L 254.11 928.96 L 255.00 927.96 L 255.66 926.35 L 257.63 917.86 L 257.72 913.88 L 257.31 911.35 L 255.57 903.94 L 253.63 898.66 L 252.55 894.54 L 254.19 900.69 L 256.43 917.53 L 257.40 921.19 L 258.70 924.37 L 260.30 926.52 L 261.54 926.99 L 263.49 926.81 L 264.94 926.31 L 266.46 924.93 L 269.87 917.74 L 269.83 915.08 L 268.68 913.01 L 266.00 912.08 L 264.51 913.77 L 264.13 914.78 L 264.12 916.01 L 264.97 921.72 L 266.09 925.38 L 267.80 928.53 L 269.44 929.77 L 272.40 931.10" fill="none" stroke="rgb(0,0,0)" stroke-width="8.00" stroke-linecap="round" stroke-linejoin="round"/>
  <path d="M 287.70 917.63 L 280.41 915.73 L 279.47 916.18 L 278.54 917.88 L 277.69 921.45 L 277.81 928.69 L 278.69 931.64 L 279.41 932.52 L 281.02 932.62 L 282.60 931.73 L 283.70 929.34 L 285.32 922.99 L 286.07 919.54 L 286.17 916.39 L 286.00 913.82 L 284.93 908.56 L 282.78 901.35 L 280.60 895.43 L 276.71 887.02 L 277.96 890.78 L 278.88 894.91 L 280.27 906.12 L 282.04 914.00 L 285.27 921.75 L 288.72 925.02" fill="none" stroke="rgb(0,0,0)" stroke-width="8.00" stroke-linecap="round" stroke-linejoin="round"/>
  <path d="M 308.07 932.99 L 308.01 932.69" fill="none" stroke="rgb(0,0,0)" stroke-width="8.00" stroke-linecap="round" stroke-linejoin="round"/>
  <path d="M -250.35 945.41 L -250.89 948.06 L -251.14 951.96 L -250.94 960.48 L -250.62 962.39 L -249.84 964.63 L -247.95 967.95 L -246.05 969.04 L -244.69 969.08 L -243.88 968.76 L -241.40 967.25 L -240.47 966.32 L -239.66 964.57 L -237.95 958.41 L -238.04 950.19 L -238.90 946.43 L -241.17 939.82 L -241.66 946.36" fill="none" stroke="rgb(0,0,0)" stroke-width="8.00" stroke-linecap="round" stroke-linejoin="round"/>
  <path d="M -225.04 954.83 L -225.08 954.52 L -227.47 954.70 L -230.75 956.15 L -232.72 957.94 L -235.92 962.35 L -235.67 964.63 L -234.05 965.52 L -231.12 965.15 L -223.82 962.65 L -221.75 962.69 L -220.00 963.92 L -218.52 967.83 L -218.52 968.79 L -219.35 970.19 L -221.38 971.82 L -224.02 972.99 L -225.82 972.91 L -227.35 972.31 L -227.91 971.71" fill="none" stroke="rgb(0,0,0)" stroke-width="8.00" stroke-linecap="round" stroke-linejoin="round"/>
  <path d="M -214.57 965.50 L -211.42 962.74 L -210.40 960.63 L -210.50 959.77 L -211.38 958.98 L -212.84 958.63 L -213.74 958.54 L -215.12 959.08 L -218.25 963.00 L -218.68 964.67 L -218.63 965.75 L -217.85 967.85 L -215.26 972.66 L -213.85 973.62 L -211.20 973.18 L -208.06 971.37 L -206.15 969.55 L -204.29 965.60 L -204.17 963.73 L -203.53 962.55 L -201.27 960.87 L -197.84 959.57 L -195.65 967.51 L -195.05 971.91 L -193.08 976.10" fill="none" stroke="rgb(0,0,0)" stroke-width="8.00" stroke-linecap="round" stroke-linejoin="round"/>
  <path d="M -181.90 961.39 L -183.80 961.38 L -186.51 962.02 L -187.39 962.48 L -187.17 963.60 L -185.03 965.61 L -183.37 966.53 L -177.41 968.57 L -177.19 969.61 L -178.16 971.77 L -179.07 972.44 L -182.33 973.76 L -184.24 973.85" fill="none" stroke="rgb(0,0,0)" stroke-width="8.00" stroke-linecap="round" stroke-linejoin="round"/>
  <path d="M -139.22 936.87 L -136.97 941.79 L -136.03 945.49 L -133.21 966.88 L -133.06 970.20" fill="none" stroke="rgb(0,0,0)" stroke-width="8.00" stroke-linecap="round" stroke-linejoin="round"/>
  <path d="M -135.94 961.96 L -135.89 962.21 L -137.83 961.83 L -139.58 962.07 L -142.76 963.46 L -143.99 965.17 L -144.64 966.77 L -144.70 969.28 L -142.92 973.41 L -140.47 976.14 L -139.82 976.46 L -138.34 975.85 L -136.64 973.57 L -134.14 971.46" fill="none" stroke="rgb(0,0,0)" stroke-width="8.00" stroke-linecap="round" stroke-linejoin="round"/>
  <path d="M -126.35 960.99 L -129.21 966.25 L -129.78 968.95 L -129.32 971.09 L -125.98 975.46 L -124.98 975.83 L -122.66 975.69 L -119.76 974.22 L -118.78 972.87 L -117.55 969.32 L -117.62 966.30 L -118.58 964.65 L -122.50 963.17 L -123.52 963.07 L -125.05 963.43 L -126.35 964.22 L -128.68 966.77 L -128.93 967.47 L -128.50 969.00 L -127.41 970.42 L -126.46 970.76 L -125.27 970.66 L -119.63 967.26 L -114.62 965.13 L -113.05 964.97 L -111.97 965.36 L -111.16 966.61 L -108.97 971.42 L -108.99 972.98 L -108.98 972.13 L -108.02 969.79 L -105.56 967.16 L -103.74 965.99 L -101.09 965.20 L -100.05 965.22 L -99.52 966.13 L -98.57 970.15 L -98.73 972.14 L -99.94 974.28 L -99.98 975.07" fill="none" stroke="rgb(0,0,0)" stroke-width="8.00" stroke-linecap="round" stroke-linejoin="round"/>
  <path d="M -95.24 944.46 L -93.96 947.88 L -90.95 959.11" fill="none" stroke="rgb(0,0,0)" stroke-width="8.00" stroke-linecap="round" stroke-linejoin="round"/>
  <path d="M -79.82 947.19 L -78.97 953.62 L -78.99 969.29 L -77.99 979.25" fill="none" stroke="rgb(0,0,0)" stroke-width="8.00" stroke-linecap="round" stroke-linejoin="round"/>
  <path d="M -86.81 973.95 L -74.39 970.93" fill="none" stroke="rgb(0,0,0)" stroke-width="8.00" stroke-linecap="round" stroke-linejoin="round"/>
  <path d="M -36.42 948.00 L -37.89 943.21 L -37.92 946.33 L -35.61 957.08 L -34.70 966.58 L -33.41 973.81" fill="none" stroke="rgb(0,0,0)" stroke-width="8.00" stroke-linecap="round" stroke-linejoin="round"/>
  <path d="M -35.45 964.75 L -31.43 959.27 L -29.61 957.38 L -27.82 956.25 L -26.76 956.27 L -26.90 956.59" fill="none" stroke="rgb(0,0,0)" stroke-width="8.00" stroke-linecap="round" stroke-linejoin="round"/>
  <path d="M -34.85 966.99 L -28.73 973.67 L -27.15 975.94" fill="none" stroke="rgb(0,0,0)" stroke-width="8.00" stroke-linecap="round" stroke-linejoin="round"/>
  <path d="M -21.25 978.90 L -21.69 978.54 L -21.72 974.38 L -21.04 971.59 L -19.83 969.40 L -18.18 970.53 L -16.35 974.54 L -16.60 977.92 L -14.99 975.78 L -12.94 973.90 L -9.79 971.72 L -6.28 970.16 L -5.99 970.30 L -5.25 973.39 L -5.21 975.26 L -5.55 976.60" fill="none" stroke="rgb(0,0,0)" stroke-width="8.00" stroke-linecap="round" stroke-linejoin="round"/>
  <path d="M 4.39 970.18 L 1.21 973.10 L -0.30 975.17 L -0.84 976.72 L -0.37 979.06 L 2.16 983.03 L 2.74 983.52 L 4.08 983.82 L 7.18 982.84 L 8.51 981.43 L 9.34 979.49 L 10.68 974.04 L 10.55 972.28 L 9.30 969.64 L 7.84 968.59 L 5.03 968.13 L 3.88 968.89 L 2.10 971.51 L 1.80 972.76 L 2.74 973.98 L 5.08 974.92 L 8.63 974.73 L 14.37 971.42 L 15.97 970.86 L 17.96 976.24 L 19.84 979.56 L 21.02 979.37 L 22.10 978.61 L 23.52 975.76 L 24.12 977.96 L 25.66 980.69 L 26.40 981.23 L 27.41 981.42 L 29.19 981.00 L 32.71 978.89 L 34.77 977.21 L 36.22 974.96 L 37.23 970.63 L 37.29 969.21 L 36.96 968.30 L 35.30 966.07 L 32.75 965.04 L 30.81 965.31 L 30.36 966.62 L 31.18 968.23 L 33.05 969.86 L 35.94 971.20 L 39.28 970.76 L 43.68 968.50 L 45.30 968.49" fill="none" stroke="rgb(0,0,0)" stroke-width="8.00" stroke-linecap="round" stroke-linejoin="round"/>
  <path d="M 86.89 958.30 L 83.19 958.98 L 80.66 960.12 L 77.33 964.04 L 76.69 965.51 L 76.73 966.55 L 77.74 967.73 L 80.18 969.19 L 87.65 972.43 L 89.93 973.13 L 90.72 972.98 L 90.05 972.77 L 90.07 974.23 L 89.34 976.49 L 87.66 977.54 L 86.06 977.58 L 83.87 976.99 L 82.48 976.23 L 80.95 976.09" fill="none" stroke="rgb(0,0,0)" stroke-width="8.00" stroke-linecap="round" stroke-linejoin="round"/>
  <path d="M 95.62 961.43 L 98.18 965.34 L 99.35 968.04 L 100.89 974.76 L 100.74 977.78 L 101.66 975.16" fill="none" stroke="rgb(0,0,0)" stroke-width="8.00" stroke-linecap="round" stroke-linejoin="round"/>
  <path d="M 106.07 961.51 L 108.89 973.30 L 108.90 975.46 L 108.51 977.48" fill="none" stroke="rgb(0,0,0)" stroke-width="8.00" stroke-linecap="round" stroke-linejoin="round"/>
  <path d="M 101.47 970.72 L 109.79 972.82 L 110.50 972.78 L 110.51 972.42 L 112.26 972.42" fill="none" stroke="rgb(0,0,0)" stroke-width="8.00" stroke-linecap="round" stroke-linejoin="round"/>
  <path d="M 118.95 966.47 L 118.63 968.93 L 118.63 974.70 L 119.93 980.16" fill="none" stroke="rgb(0,0,0)" stroke-width="8.00" stroke-linecap="round" stroke-linejoin="round"/>
  <path d="M 114.27 958.50 L 117.72 961.47 L 118.69 963.05" fill="none" stroke="rgb(0,0,0)" stroke-width="8.00" stroke-linecap="round" stroke-linejoin="round"/>
  <path d="M 130.57 968.40 L 131.53 964.77 L 133.92 975.72 L 135.02 979.47 L 136.09 981.57" fill="none" stroke="rgb(0,0,0)" stroke-width="8.00" stroke-linecap="round" stroke-linejoin="round"/>
  <path d="M 125.67 962.69 L 132.20 961.53 L 141.28 960.53" fill="none" stroke="rgb(0,0,0)" stroke-width="8.00" stroke-linecap="round" stroke-linejoin="round"/>
  <path d="M 171.34 974.67 L 168.86 971.79 L 167.12 970.93 L 166.09 970.99 L 164.49 972.50 L 163.64 975.25 L 163.92 977.40 L 164.41 978.44 L 165.76 978.80 L 166.74 978.64 L 167.82 977.96 L 169.45 973.41 L 169.50 972.15 L 171.05 976.41 L 172.33 978.22 L 173.42 978.53" fill="none" stroke="rgb(0,0,0)" stroke-width="8.00" stroke-linecap="round" stroke-linejoin="round"/>
  <path d="M 171.18 955.71 L 172.94 959.70 L 174.68 965.72 L 176.12 974.62 L 177.09 977.96 L 178.22 980.06 L 178.42 981.16 L 178.22 981.02 L 177.44 979.32 L 176.90 975.53 L 177.91 973.83 L 179.47 972.66 L 182.60 971.30 L 183.88 971.84 L 185.93 977.12 L 185.80 979.82 L 183.10 984.72 L 182.13 985.16 L 180.52 985.03 L 178.98 983.93 L 178.63 982.75" fill="none" stroke="rgb(0,0,0)" stroke-width="8.00" stroke-linecap="round" stroke-linejoin="round"/>
  <path d="M 191.85 971.20 L 187.66 972.71 L 186.10 974.07 L 184.72 976.03 L 184.44 977.88 L 184.98 981.15 L 185.94 983.81 L 187.57 986.31 L 188.92 986.46 L 190.77 986.06 L 194.04 982.78 L 195.49 980.71 L 197.54 974.97 L 197.57 972.92 L 196.73 971.86 L 193.26 970.15 L 191.95 969.98 L 189.38 971.39 L 187.40 973.92 L 186.80 975.44 L 186.83 976.71 L 187.89 977.81 L 189.74 978.60 L 192.95 978.30 L 194.53 977.78 L 197.67 975.95 L 199.07 975.63 L 198.78 975.82 L 199.80 981.05 L 200.99 984.27 L 201.74 985.13 L 203.48 985.58 L 204.36 985.47 L 205.36 984.86 L 207.60 980.58 L 209.32 978.00 L 210.06 979.99 L 212.30 983.80 L 215.13 986.48 L 215.74 986.58 L 216.08 985.71" fill="none" stroke="rgb(0,0,0)" stroke-width="8.00" stroke-linecap="round" stroke-linejoin="round"/>
  <path d="M 215.97 965.31 L 218.03 969.82 L 221.76 980.79 L 222.58 981.80" fill="none" stroke="rgb(0,0,0)" stroke-width="8.00" stroke-linecap="round" stroke-linejoin="round"/>
  <path d="M 210.30 968.15 L 220.15 970.31 L 221.59 970.32 L 223.56 969.76" fill="none" stroke="rgb(0,0,0)" stroke-width="8.00" stroke-linecap="round" stroke-linejoin="round"/>
  <path d="M 258.81 968.80 L 251.78 967.36 L 246.61 971.35 L 246.35 972.34 L 246.55 973.33 L 251.07 973.86 L 254.08 974.97 L 258.58 974.79 L 259.82 975.34 L 260.75 976.56 L 261.67 978.93 L 261.74 979.86 L 260.61 980.99 L 255.72 982.91 L 253.23 982.71 L 251.71 982.07" fill="none" stroke="rgb(0,0,0)" stroke-width="8.00" stroke-linecap="round" stroke-linejoin="round"/>
  <path d="M 269.90 970.38 L 268.58 971.27 L 267.02 973.00 L 265.73 974.92 L 265.08 976.83 L 265.71 980.76 L 266.67 983.56 L 267.70 985.26 L 269.41 985.12 L 272.46 983.56 L 274.96 976.42 L 274.87 973.67 L 272.89 970.58 L 270.98 969.07 L 268.84 968.94 L 267.43 971.74 L 267.71 974.99 L 270.49 979.49 L 271.47 980.41 L 272.70 980.75 L 273.69 980.65 L 275.64 979.55 L 278.07 976.85 L 278.91 974.94 L 280.67 968.87 L 280.73 966.49 L 280.24 965.19 L 277.42 960.83 L 273.96 957.09 L 273.66 957.24 L 273.32 959.04 L 273.74 969.62 L 274.99 974.74 L 277.07 979.22 L 279.41 980.11 L 281.20 980.03 L 282.35 979.62 L 285.21 972.80 L 285.29 971.50 L 283.79 974.06 L 283.62 976.43 L 284.16 978.18 L 286.19 981.58 L 286.32 982.24 L 287.64 982.30 L 289.40 981.19 L 290.87 977.72 L 291.04 974.81 L 291.09 975.54 L 292.99 979.79 L 294.12 983.84 L 294.29 984.12 L 294.79 983.46" fill="none" stroke="rgb(0,0,0)" stroke-width="8.00" stroke-linecap="round" stroke-linejoin="round"/>
  <path d="M 296.29 962.49 L 297.29 969.00 L 298.59 974.45 L 299.31 976.46 L 301.99 980.96" fill="none" stroke="rgb(0,0,0)" stroke-width="8.00" stroke-linecap="round" stroke-linejoin="round"/>
  <path d="M 294.07 973.18 L 300.55 973.56 L 300.88 973.84" fill="none" stroke="rgb(0,0,0)" stroke-width="8.00" stroke-linecap="round" stroke-linejoin="round"/>
  <path d="M 309.07 985.59 L 310.39 979.68 L 310.55 976.74 L 310.32 975.28 L 310.49 976.45 L 311.87 979.18 L 313.23 984.25 L 314.08 983.46 L 315.69 980.98 L 318.83 975.30 L 319.37 973.63 L 318.53 975.96 L 318.55 979.13 L 319.67 982.99 L 321.00 985.39 L 321.76 985.94 L 323.21 986.26 L 326.46 984.37 L 327.24 983.53 L 328.58 979.76 L 328.24 976.22 L 326.54 973.29 L 324.91 971.61 L 320.93 969.11 L 320.05 969.36 L 319.62 971.60 L 320.15 974.64 L 321.30 977.98 L 322.72 978.78 L 324.14 978.77 L 326.74 977.56 L 328.06 975.37 L 328.89 974.72 L 331.67 973.66 L 332.17 973.75 L 332.92 974.67 L 338.66 988.30 L 338.36 986.08 L 338.95 981.76 L 340.10 979.31 L 341.98 976.40 L 344.19 975.36 L 345.90 977.69 L 348.34 983.21 L 349.06 983.59 L 350.50 983.28 L 351.55 982.68 L 352.14 981.69 L 356.95 970.03 L 359.26 977.00 L 360.69 982.49 L 360.66 985.20 L 360.17 986.80 L 361.18 984.89 L 362.67 983.61 L 363.41 981.63" fill="none" stroke="rgb(0,0,0)" stroke-width="8.00" stroke-linecap="round" stroke-linejoin="round"/>
  <path d="M 301.17 959.19 L 301.01 959.08" fill="none" stroke="rgb(0,0,0)" stroke-width="8.00" stroke-linecap="round" stroke-linejoin="round"/>
  <path d="M 81.55 985.45 L 86.92 984.77 L 92.94 984.56 L 129.91 984.80 L 135.08 984.13 L 131.01 983.25" fill="none" stroke="rgb(0,0,0)" stroke-width="8.00" stroke-linecap="round" stroke-linejoin="round"/>
  <path d="M -240.29 1027.38 L -236.64 1022.65 L -235.33 1017.03 L -234.59 1015.55" fill="none" stroke="rgb(0,0,0)" stroke-width="8.00" stroke-linecap="round" stroke-linejoin="round"/>
  <path d="M -242.24 1012.53 L -239.95 1017.17 L -237.71 1024.75 L -236.35 1026.87" fill="none" stroke="rgb(0,0,0)" stroke-width="8.00" stroke-linecap="round" stroke-linejoin="round"/>
  <path d="M -241.72 1017.77 L -236.22 1026.70 L -235.36 1029.17" fill="none" stroke="rgb(0,0,0)" stroke-width="8.00" stroke-linecap="round" stroke-linejoin="round"/>
  <path d="M -246.07 1022.94 L -241.36 1025.16 L -238.15 1026.05 L -235.01 1025.78 L -234.29 1025.46 L -233.63 1024.54" fill="none" stroke="rgb(0,0,0)" stroke-width="8.00" stroke-linecap="round" stroke-linejoin="round"/>
  <path d="M -218.01 1018.14 L -218.26 1018.06 L -218.25 1018.39 L -217.23 1024.72 L -216.72 1026.65 L -215.47 1028.66" fill="none" stroke="rgb(0,0,0)" stroke-width="8.00" stroke-linecap="round" stroke-linejoin="round"/>
  <path d="M -219.43 1011.73 L -219.41 1011.88" fill="none" stroke="rgb(0,0,0)" stroke-width="8.00" stroke-linecap="round" stroke-linejoin="round"/>
  <path d="M -201.33 1019.64 L -204.43 1019.60 L -207.18 1020.29 L -209.18 1021.60 L -210.43 1023.02 L -210.68 1023.75 L -210.29 1025.85 L -208.34 1028.97 L -207.61 1029.44 L -206.33 1029.21 L -204.98 1028.09 L -202.11 1021.61 L -202.08 1020.77 L -202.19 1021.18 L -200.20 1023.27 L -198.95 1025.52 L -196.63 1034.50 L -196.66 1037.51 L -198.81 1041.71 L -199.91 1042.09 L -202.35 1041.90 L -202.97 1041.59 L -203.10 1040.88" fill="none" stroke="rgb(0,0,0)" stroke-width="8.00" stroke-linecap="round" stroke-linejoin="round"/>
  <path d="M -192.84 1024.50 L -192.10 1019.62 L -191.20 1017.80 L -189.53 1018.52 L -188.63 1019.48 L -185.80 1025.28 L -185.84 1026.94 L -185.92 1024.79 L -183.84 1019.33 L -181.63 1018.82 L -180.89 1019.50 L -178.12 1025.58 L -177.99 1026.69" fill="none" stroke="rgb(0,0,0)" stroke-width="8.00" stroke-linecap="round" stroke-linejoin="round"/>
  <path d="M -169.64 1015.65 L -171.67 1017.65 L -173.14 1019.87 L -174.31 1021.93 L -174.85 1023.71 L -174.03 1027.41 L -171.77 1031.86 L -170.92 1032.16 L -169.34 1031.96 L -167.93 1031.48 L -166.82 1030.70 L -165.83 1029.02 L -163.80 1021.73 L -163.76 1019.36 L -164.24 1018.61 L -167.11 1017.63 L -168.28 1017.55 L -171.06 1018.60 L -173.88 1021.96 L -174.35 1023.37 L -174.09 1024.14 L -173.49 1024.48 L -172.00 1024.92 L -169.65 1024.77 L -160.20 1019.98 L -157.76 1019.91 L -157.06 1020.86 L -155.88 1023.83 L -156.64 1031.44 L -155.87 1032.36 L -153.29 1032.99 L -151.50 1032.24 L -149.43 1029.77 L -145.21 1022.03 L -145.19 1021.72 L -145.84 1021.45 L -147.11 1021.38 L -148.62 1021.92 L -149.88 1024.06 L -149.99 1026.02 L -149.42 1028.37 L -148.42 1030.61 L -147.43 1031.30 L -145.83 1031.76 L -138.54 1031.15" fill="none" stroke="rgb(0,0,0)" stroke-width="8.00" stroke-linecap="round" stroke-linejoin="round"/>
  <path d="M -101.15 1019.16 L -101.22 1018.91 L -102.49 1018.94 L -105.32 1019.84 L -106.93 1021.03 L -107.46 1022.27 L -107.39 1023.33 L -106.57 1025.71 L -100.31 1029.18 L -100.03 1029.65 L -99.77 1033.00 L -102.51 1034.65 L -103.88 1034.92 L -105.03 1034.70" fill="none" stroke="rgb(0,0,0)" stroke-width="8.00" stroke-linecap="round" stroke-linejoin="round"/>
  <path d="M -91.13 1021.52 L -93.27 1025.14 L -94.03 1027.13 L -94.01 1028.93 L -93.26 1031.78 L -92.27 1033.47 L -91.58 1033.95 L -90.66 1033.89 L -86.58 1031.96 L -85.43 1030.73 L -82.35 1024.32 L -82.24 1022.68 L -86.63 1020.78 L -87.75 1020.89 L -88.89 1021.47 L -89.75 1022.64 L -90.63 1025.01 L -90.36 1026.16 L -89.69 1027.12 L -87.15 1028.07 L -85.31 1027.80 L -83.44 1026.79 L -80.43 1023.77 L -76.90 1018.96 L -74.57 1013.84 L -74.50 1012.40 L -74.84 1010.91 L -77.38 1010.35 L -79.54 1011.28 L -81.07 1014.89 L -80.55 1025.56 L -78.90 1032.50 L -77.68 1033.09 L -76.88 1033.13 L -74.01 1031.68 L -71.53 1026.88 L -71.57 1025.81 L -71.62 1030.17 L -70.40 1032.19 L -68.47 1032.69 L -66.71 1031.64 L -64.04 1026.12 L -63.30 1030.16 L -62.37 1032.51 L -60.89 1032.10 L -60.45 1032.25" fill="none" stroke="rgb(0,0,0)" stroke-width="8.00" stroke-linecap="round" stroke-linejoin="round"/>
  <path d="M -57.42 1008.51 L -57.73 1014.01 L -57.50 1022.19 L -55.25 1032.03 L -53.75 1034.94" fill="none" stroke="rgb(0,0,0)" stroke-width="8.00" stroke-linecap="round" stroke-linejoin="round"/>
  <path d="M -61.59 1026.60 L -56.84 1025.56 L -52.04 1023.62 L -51.65 1024.00" fill="none" stroke="rgb(0,0,0)" stroke-width="8.00" stroke-linecap="round" stroke-linejoin="round"/>
  <path d="M -49.15 1034.75 L -46.81 1030.77 L -45.56 1027.95 L -43.34 1034.20 L -41.56 1037.05 L -39.92 1036.90 L -38.42 1036.08 L -35.27 1032.86 L -34.80 1031.60 L -36.39 1032.95 L -37.42 1034.51 L -37.49 1035.87 L -36.45 1036.89 L -35.15 1037.13 L -32.48 1036.88 L -28.43 1035.14 L -26.87 1033.90 L -25.90 1032.56 L -25.03 1030.96 L -23.83 1027.43 L -24.73 1026.28 L -29.73 1024.37 L -30.90 1024.50 L -32.13 1025.54 L -33.97 1028.07 L -34.70 1029.81 L -34.64 1030.73 L -31.97 1030.74 L -29.22 1030.00 L -23.51 1029.41 L -22.72 1029.95 L -21.22 1033.52 L -21.19 1035.76 L -21.02 1034.72 L -19.79 1032.77 L -16.25 1029.51 L -11.38 1027.63 L -10.16 1028.72 L -7.22 1034.73 L -7.19 1035.81 L -7.89 1037.21" fill="none" stroke="rgb(0,0,0)" stroke-width="8.00" stroke-linecap="round" stroke-linejoin="round"/>
  <path d="M -39.48 1017.09 L -39.47 1017.09" fill="none" stroke="rgb(0,0,0)" stroke-width="8.00" stroke-linecap="round" stroke-linejoin="round"/>
  <path d="M 2.86 1023.33 L 1.32 1023.85 L -1.02 1023.94 L -0.49 1023.95 L -2.24 1025.03 L -4.67 1027.19 L -7.18 1029.74 L -7.69 1030.68 L -7.74 1031.63 L -6.09 1032.24 L -2.74 1032.65 L 2.36 1032.62 L 3.96 1033.71 L 6.03 1037.87 L 5.60 1038.74 L 4.51 1040.21 L 2.43 1041.26 L -1.03 1040.93" fill="none" stroke="rgb(0,0,0)" stroke-width="8.00" stroke-linecap="round" stroke-linejoin="round"/>
  <path d="M 28.58 1037.29 L 29.01 1037.09 L 29.39 1035.19 L 29.58 1028.29 L 29.53 1029.32 L 30.89 1029.80 L 32.30 1032.36 L 32.79 1033.94 L 32.85 1036.98 L 35.75 1037.02 L 37.33 1036.19 L 39.46 1031.68 L 39.69 1030.07 L 38.53 1033.03 L 38.53 1036.77 L 39.09 1037.96 L 41.24 1040.55 L 41.83 1040.39 L 42.97 1039.21 L 43.92 1037.16 L 45.29 1033.43 L 45.08 1031.51 L 45.57 1033.46 L 48.29 1038.37 L 48.97 1039.15 L 50.06 1039.47" fill="none" stroke="rgb(0,0,0)" stroke-width="8.00" stroke-linecap="round" stroke-linejoin="round"/>
  <path d="M 59.46 1029.70 L 56.87 1029.64 L 52.83 1030.72 L 51.59 1032.12 L 51.37 1033.53 L 52.46 1037.02 L 54.77 1040.78 L 55.94 1040.00 L 57.68 1035.33 L 57.77 1033.32 L 58.74 1033.39 L 60.24 1034.21 L 64.25 1038.60 L 65.76 1045.74 L 65.83 1047.68 L 65.35 1049.02 L 63.60 1051.52 L 62.29 1051.98" fill="none" stroke="rgb(0,0,0)" stroke-width="8.00" stroke-linecap="round" stroke-linejoin="round"/>
  <path d="M 71.11 1029.34 L 64.30 1032.04 L 63.05 1033.31 L 62.39 1034.98 L 62.82 1036.69 L 63.91 1038.40 L 64.90 1039.16 L 65.93 1039.46 L 67.58 1039.21 L 69.30 1038.09 L 71.37 1033.03 L 71.25 1031.62 L 73.67 1034.59 L 75.02 1038.33 L 75.90 1043.22 L 75.76 1046.13 L 73.48 1054.83" fill="none" stroke="rgb(0,0,0)" stroke-width="8.00" stroke-linecap="round" stroke-linejoin="round"/>
  <path d="M 77.98 1042.49 L 81.89 1039.67 L 83.82 1037.81 L 85.90 1032.31 L 86.07 1030.80 L 85.63 1030.04 L 81.75 1028.58 L 80.73 1029.58 L 80.02 1030.95 L 79.70 1032.62 L 79.93 1034.71 L 80.71 1036.97 L 82.81 1041.20 L 84.04 1041.28" fill="none" stroke="rgb(0,0,0)" stroke-width="8.00" stroke-linecap="round" stroke-linejoin="round"/>
  <path d="M 99.43 1030.74 L 97.40 1027.28 L 95.99 1026.43 L 94.14 1026.02 L 92.63 1026.25 L 91.51 1026.97 L 89.15 1029.94 L 89.51 1031.54 L 91.57 1033.99 L 94.39 1035.22 L 96.04 1035.26 L 96.70 1035.62 L 97.65 1038.47 L 97.80 1039.97 L 97.73 1041.62 L 96.84 1044.20" fill="none" stroke="rgb(0,0,0)" stroke-width="8.00" stroke-linecap="round" stroke-linejoin="round"/>
  <path d="M 100.73 1010.55 L 102.22 1023.25 L 103.43 1030.39 L 104.44 1034.10 L 106.58 1038.00" fill="none" stroke="rgb(0,0,0)" stroke-width="8.00" stroke-linecap="round" stroke-linejoin="round"/>
  <path d="M 101.43 1033.33 L 107.89 1031.82 L 110.87 1030.45" fill="none" stroke="rgb(0,0,0)" stroke-width="8.00" stroke-linecap="round" stroke-linejoin="round"/>
  <path d="M 113.48 1042.27 L 114.25 1042.27 L 115.77 1037.38 L 115.79 1035.91 L 115.23 1033.54 L 115.72 1038.16 L 117.85 1041.52 L 118.78 1042.44 L 120.13 1042.58 L 121.39 1041.61 L 123.56 1036.55 L 123.61 1035.71 L 122.06 1037.39 L 121.57 1039.77 L 122.09 1041.70 L 124.38 1045.65 L 125.98 1047.09 L 127.26 1047.54 L 128.49 1047.34 L 130.84 1045.74 L 132.25 1044.03 L 134.10 1039.30 L 134.04 1036.84 L 132.19 1033.72 L 126.24 1031.15 L 124.29 1032.23 L 123.80 1034.19 L 124.14 1036.80 L 125.52 1039.18 L 126.50 1039.46 L 128.40 1039.23 L 136.27 1035.73 L 137.37 1036.56 L 139.64 1041.78 L 139.45 1041.10 L 142.49 1036.57 L 145.79 1035.23 L 148.07 1041.77 L 148.55 1044.18 L 149.88 1042.83 L 150.84 1041.27 L 152.32 1036.64 L 153.44 1034.34 L 154.27 1033.27 L 155.51 1032.97 L 155.79 1033.16 L 157.29 1038.00 L 157.24 1044.12 L 157.63 1046.62 L 158.00 1047.70 L 159.79 1047.04" fill="none" stroke="rgb(0,0,0)" stroke-width="8.00" stroke-linecap="round" stroke-linejoin="round"/>
  <path d="M 121.40 1014.73 L 121.42 1014.70" fill="none" stroke="rgb(0,0,0)" stroke-width="8.00" stroke-linecap="round" stroke-linejoin="round"/>
</svg>
