<?xml version="1.0" encoding="UTF-8"?>
<svg xmlns="http://www.w3.org/2000/svg" viewBox="-357.3 145.5 720.5 1295.0" width="721" height="1295">
<rect x="-357.3" y="145.5" width="720.5" height="1295.0" fill="white"/>
  <path d="M -243.11 173.41 L -250.01 172.51 L -252.50 172.69 L -254.95 173.65 L -257.20 175.39 L -258.59 176.98 L -260.42 179.88 L -261.39 182.12 L -262.53 185.75 L -263.89 191.83 L -265.29 204.00 L -266.49 225.14 L -266.40 230.24 L -265.58 237.17 L -264.55 241.26 L -263.20 244.95 L -260.94 249.50 L -258.40 253.20 L -256.64 255.21 L -253.87 257.61 L -251.11 259.21 L -249.15 259.80 L -246.12 259.96 L -243.95 259.66 L -240.36 258.75 L -238.05 257.80 L -232.55 254.74 L -223.86 248.30 L -223.74 247.48 L -225.71 245.39 L -230.06 242.18" fill="none" stroke="rgb(0,0,0)" stroke-width="8.00" stroke-linecap="round" stroke-linejoin="round"/>
  <path d="M -222.88 226.22 L -226.12 229.93 L -227.59 232.75 L -228.58 235.99 L -228.30 239.84 L -227.26 242.70 L -225.79 245.44 L -221.39 251.65 L -217.04 256.37 L -215.16 257.67 L -213.24 258.32 L -211.86 258.54 L -209.69 258.33 L -205.91 257.13 L -202.41 254.40 L -199.51 250.59 L -197.83 246.90 L -196.95 243.16 L -197.05 237.22 L -197.99 232.40 L -199.82 227.67 L -202.90 223.10 L -207.82 218.48 L -210.57 216.67 L -215.30 214.58 L -218.98 214.27 L -222.25 214.89 L -225.54 217.04 L -226.86 218.92 L -227.56 222.12 L -227.52 225.00 L -226.94 228.01 L -225.79 230.49 L -224.65 231.97 L -222.51 233.94 L -220.12 235.37 L -216.53 236.51 L -211.62 236.91 L -205.25 236.23 L -195.45 234.59 L -189.79 233.16 L -189.30 232.87 L -191.55 233.26" fill="none" stroke="rgb(0,0,0)" stroke-width="8.00" stroke-linecap="round" stroke-linejoin="round"/>
  <path d="M -189.18 247.77 L -189.63 247.62 L -189.68 247.02 L -189.50 241.34 L -187.64 234.07 L -184.81 227.02 L -184.15 226.49 L -182.60 226.11 L -181.35 226.83 L -178.61 229.28 L -177.36 231.29 L -175.98 234.71 L -175.27 238.33 L -174.17 248.15 L -173.92 256.76 L -174.10 251.13 L -171.68 242.23 L -168.61 235.48 L -166.76 232.63 L -165.59 231.45 L -164.73 231.15 L -163.63 231.26 L -162.50 232.20 L -161.19 234.00 L -160.56 235.96 L -158.49 246.99 L -158.48 249.65 L -159.53 255.43 L -159.88 253.45 L -159.78 248.99 L -157.76 238.83 L -156.61 235.27 L -154.97 231.76 L -152.29 228.25 L -149.99 226.57 L -148.17 226.25 L -147.28 226.68 L -146.61 227.46 L -145.35 230.36 L -143.04 244.02 L -143.00 250.03" fill="none" stroke="rgb(0,0,0)" stroke-width="8.00" stroke-linecap="round" stroke-linejoin="round"/>
  <path d="M -134.95 230.46 L -133.23 240.06 L -133.09 244.14 L -133.23 249.40 L -135.31 266.04 L -135.79 272.49 L -135.39 280.38 L -137.10 272.89 L -139.20 254.06 L -139.09 243.36 L -138.03 235.66 L -135.63 227.68 L -132.50 222.58 L -130.00 219.91 L -127.84 219.51 L -126.77 220.39 L -125.82 222.62 L -125.19 228.35 L -125.56 234.11 L -127.00 243.06 L -127.66 245.42 L -128.93 248.52 L -130.68 251.28 L -132.81 252.77 L -133.67 252.92" fill="none" stroke="rgb(0,0,0)" stroke-width="8.00" stroke-linecap="round" stroke-linejoin="round"/>
  <path d="M -121.98 253.89 L -120.49 247.31 L -117.09 235.48 L -115.23 224.91 L -115.86 227.57 L -116.01 231.42 L -115.84 238.14 L -115.33 242.18 L -113.67 249.04 L -112.92 250.04 L -112.16 250.56 L -111.65 250.50 L -109.94 249.65 L -109.05 247.74 L -105.02 230.75 L -103.64 223.17 L -103.06 221.74 L -103.21 233.16 L -100.79 248.05 L -99.97 251.18 L -98.73 253.78 L -97.16 255.19 L -96.21 255.08" fill="none" stroke="rgb(0,0,0)" stroke-width="8.00" stroke-linecap="round" stroke-linejoin="round"/>
  <path d="M -92.33 176.40 L -90.89 190.47 L -91.10 220.09 L -90.95 228.44 L -90.44 234.95 L -89.68 239.78 L -88.62 243.05 L -85.13 248.43" fill="none" stroke="rgb(0,0,0)" stroke-width="8.00" stroke-linecap="round" stroke-linejoin="round"/>
  <path d="M -98.96 225.93 L -89.89 226.96 L -80.38 227.03" fill="none" stroke="rgb(0,0,0)" stroke-width="8.00" stroke-linecap="round" stroke-linejoin="round"/>
  <path d="M -70.28 234.58 L -68.45 234.76 L -66.05 234.12 L -64.69 233.32 L -61.95 230.82 L -60.44 228.52 L -59.76 226.43 L -59.47 222.57 L -60.24 221.30 L -62.89 220.81 L -64.72 221.56 L -67.76 224.16 L -70.25 227.73 L -72.07 231.36 L -73.31 235.43 L -74.23 241.17 L -73.83 244.02 L -73.17 245.62 L -71.87 246.96 L -68.77 247.77 L -67.20 247.76 L -63.01 246.78 L -60.54 245.72 L -53.85 241.66" fill="none" stroke="rgb(0,0,0)" stroke-width="8.00" stroke-linecap="round" stroke-linejoin="round"/>
  <path d="M -44.41 216.10 L -43.81 228.68 L -43.35 232.49 L -41.36 240.58 L -40.92 241.67 L -39.39 243.72" fill="none" stroke="rgb(0,0,0)" stroke-width="8.00" stroke-linecap="round" stroke-linejoin="round"/>
  <path d="M -41.40 235.22 L -37.89 229.74 L -35.39 227.24 L -33.67 226.41 L -32.62 226.65 L -32.19 227.31" fill="none" stroke="rgb(0,0,0)" stroke-width="8.00" stroke-linecap="round" stroke-linejoin="round"/>
  <path d="M -18.44 219.46 L -24.41 221.29 L -28.44 223.98 L -30.66 226.63 L -32.06 230.79 L -32.01 232.99 L -30.27 235.96 L -28.61 237.58 L -22.29 241.74 L -20.18 244.47 L -19.66 247.18 L -19.67 249.14 L -20.48 251.53 L -21.74 253.44 L -22.60 253.74 L -24.71 253.38 L -26.62 252.21" fill="none" stroke="rgb(0,0,0)" stroke-width="8.00" stroke-linecap="round" stroke-linejoin="round"/>
  <path d="M 49.00 169.46 L 48.49 165.49 L 47.12 174.02 L 46.30 192.02 L 46.37 204.52 L 46.63 219.79 L 47.11 228.02 L 48.44 235.50 L 49.03 237.08 L 50.11 238.30" fill="none" stroke="rgb(0,0,0)" stroke-width="8.00" stroke-linecap="round" stroke-linejoin="round"/>
  <path d="M 36.47 219.15 L 48.28 217.78 L 50.71 217.67 L 51.13 218.04" fill="none" stroke="rgb(0,0,0)" stroke-width="8.00" stroke-linecap="round" stroke-linejoin="round"/>
  <path d="M 69.48 240.00 L 72.24 233.89 L 74.84 221.48 L 74.62 228.11 L 75.55 234.90 L 76.24 237.02 L 77.99 239.99 L 78.18 240.19 L 78.58 239.06" fill="none" stroke="rgb(0,0,0)" stroke-width="8.00" stroke-linecap="round" stroke-linejoin="round"/>
  <path d="M 82.14 199.62 L 79.43 203.02 L 78.00 205.44" fill="none" stroke="rgb(0,0,0)" stroke-width="8.00" stroke-linecap="round" stroke-linejoin="round"/>
  <path d="M 86.96 238.29 L 92.44 221.56 L 93.35 217.53 L 93.92 216.40 L 95.19 217.31 L 96.90 220.51 L 98.00 224.50 L 99.26 231.71 L 100.35 235.36 L 103.31 220.79 L 104.93 217.29 L 105.70 216.73 L 107.22 216.88 L 107.88 217.48 L 108.61 219.03 L 112.25 234.37 L 112.16 236.45 L 112.17 232.20 L 114.28 224.01 L 116.49 219.70 L 117.78 218.35 L 118.66 218.05 L 119.28 218.29 L 119.67 218.87 L 121.66 225.89 L 122.13 229.26 L 124.29 234.67 L 127.78 238.23 L 128.90 238.70 L 129.89 238.56 L 131.43 237.29 L 133.20 234.92 L 134.26 232.81 L 136.22 223.38 L 136.15 220.66 L 135.34 219.06 L 132.42 219.11 L 131.34 219.73 L 130.14 221.26 L 129.39 224.45 L 129.95 230.13 L 131.82 235.80 L 133.00 237.38 L 135.04 239.03 L 135.84 239.39 L 137.18 239.32 L 139.92 237.54 L 142.59 234.37 L 145.22 228.96 L 148.45 219.33 L 149.47 214.19 L 150.55 206.31 L 151.09 195.34 L 149.89 188.22 L 148.56 184.20 L 147.07 186.72 L 145.44 191.66 L 144.37 202.30 L 144.85 222.62 L 145.35 229.82 L 146.17 235.38 L 147.95 239.49 L 148.82 240.73 L 149.93 241.64 L 153.77 243.21 L 155.22 243.01 L 156.91 242.09 L 158.88 240.47 L 160.75 238.32 L 162.55 234.46 L 163.31 231.64 L 163.97 225.20 L 163.92 222.90 L 163.61 222.27 L 161.94 226.46 L 161.37 228.85 L 161.20 233.90 L 161.53 237.68 L 162.33 240.96 L 163.60 243.93 L 164.48 245.12 L 164.83 243.99" fill="none" stroke="rgb(0,0,0)" stroke-width="8.00" stroke-linecap="round" stroke-linejoin="round"/>
  <path d="M 161.00 200.96 L 159.41 204.10 L 157.77 208.36 L 157.49 209.98" fill="none" stroke="rgb(0,0,0)" stroke-width="8.00" stroke-linecap="round" stroke-linejoin="round"/>
  <path d="M 173.79 248.01 L 172.29 244.69 L 171.82 242.46 L 171.80 238.39 L 172.41 236.62 L 173.42 234.71 L 175.64 232.60 L 180.35 230.10 L 182.54 229.50 L 183.83 230.21 L 185.19 232.19 L 186.49 235.27 L 187.64 239.18 L 187.87 243.78 L 186.78 250.22 L 187.36 240.75 L 188.56 235.71 L 189.42 234.33 L 193.01 230.79 L 194.76 229.96 L 195.34 230.04 L 196.17 230.78 L 197.29 233.60 L 198.30 242.71 L 198.95 245.89 L 199.87 247.84 L 201.21 248.67 L 204.23 249.28 L 206.11 249.28 L 208.35 248.80 L 210.52 247.37 L 211.59 246.18 L 215.47 240.49 L 219.45 233.19 L 219.77 230.80 L 218.37 228.52 L 217.68 227.87 L 215.19 227.05 L 212.89 227.77 L 211.24 229.24 L 209.84 231.37 L 209.23 233.46 L 209.36 237.44 L 210.69 242.57 L 212.33 247.04 L 213.44 248.60 L 214.94 249.68 L 218.68 250.49 L 222.94 249.88 L 224.09 249.32 L 225.27 248.06" fill="none" stroke="rgb(0,0,0)" stroke-width="8.00" stroke-linecap="round" stroke-linejoin="round"/>
  <path d="M -286.66 414.96 L -284.71 426.38 L -284.23 433.04 L -284.05 448.48 L -283.45 457.97 L -282.33 463.94 L -280.85 467.18" fill="none" stroke="rgb(0,0,0)" stroke-width="8.00" stroke-linecap="round" stroke-linejoin="round"/>
  <path d="M -295.64 444.67 L -297.63 440.79 L -299.76 434.24 L -300.85 429.41 L -300.89 425.05 L -299.51 419.16 L -297.70 414.67 L -295.52 410.13 L -292.41 404.89 L -289.75 401.79 L -287.34 400.20 L -286.12 399.81 L -283.82 399.67 L -281.53 400.30 L -278.86 402.50 L -277.18 404.83 L -275.46 409.63 L -274.65 414.21 L -274.48 420.99 L -276.21 428.13 L -277.89 432.57 L -283.77 445.17 L -286.71 450.69 L -289.41 454.15 L -291.17 455.39 L -293.39 456.09 L -295.01 455.64 L -294.67 454.56" fill="none" stroke="rgb(0,0,0)" stroke-width="8.00" stroke-linecap="round" stroke-linejoin="round"/>
  <path d="M -268.97 468.81 L -271.28 458.72 L -272.37 455.89 L -272.77 455.15 L -273.16 455.09 L -273.01 455.46 L -272.70 455.40 L -267.27 452.95 L -260.38 451.17 L -260.61 451.87 L -258.67 461.40 L -256.56 468.44 L -255.34 469.87 L -253.75 470.65 L -252.43 470.55 L -250.72 469.74 L -249.78 468.72 L -247.34 464.32 L -243.64 454.30 L -246.01 455.20 L -247.04 456.25 L -247.72 457.80 L -248.15 460.97 L -248.00 463.61 L -247.60 465.72 L -246.86 467.00 L -244.91 469.38 L -242.66 470.71 L -239.18 472.12 L -236.96 472.15 L -233.78 470.55 L -230.58 466.94 L -229.08 463.51 L -227.95 454.77 L -227.91 452.30 L -228.70 448.83 L -230.40 445.62 L -231.19 444.85 L -233.02 443.88 L -236.22 443.60 L -237.77 444.10 L -239.73 445.36 L -242.90 448.66 L -244.99 452.99 L -245.18 454.62 L -244.79 455.84 L -242.05 458.58 L -238.31 459.71 L -232.78 460.14" fill="none" stroke="rgb(0,0,0)" stroke-width="8.00" stroke-linecap="round" stroke-linejoin="round"/>
  <path d="M -213.29 445.61 L -215.66 446.67 L -218.16 448.35 L -220.02 450.02 L -221.34 452.05 L -222.06 454.28 L -223.35 460.65 L -223.10 465.28 L -222.67 466.88 L -222.01 468.57 L -220.19 470.48 L -217.35 471.91 L -215.08 472.28 L -210.17 471.56 L -206.78 470.65 L -205.88 470.12 L -205.17 469.31 L -205.06 468.55 L -205.27 467.33 L -206.21 465.94" fill="none" stroke="rgb(0,0,0)" stroke-width="8.00" stroke-linecap="round" stroke-linejoin="round"/>
  <path d="M -202.69 457.23 L -202.03 456.80 L -196.70 455.76 L -195.46 454.85 L -194.97 453.77 L -194.75 450.55 L -195.20 448.71 L -196.98 448.22 L -198.10 448.30 L -199.78 449.03 L -203.55 451.64 L -205.06 453.47 L -206.26 455.60 L -206.92 457.18 L -207.22 459.35 L -206.96 461.30 L -205.83 464.08 L -204.70 465.47 L -203.13 466.47 L -201.22 467.10 L -200.08 467.04 L -195.90 466.45 L -195.12 465.96 L -194.76 465.31" fill="none" stroke="rgb(0,0,0)" stroke-width="8.00" stroke-linecap="round" stroke-linejoin="round"/>
  <path d="M -182.75 446.72 L -188.54 451.79 L -192.88 456.56 L -194.00 458.54 L -194.82 461.64 L -194.02 462.85 L -193.10 463.09 L -188.32 461.16 L -187.21 460.99 L -179.79 461.40 L -177.55 462.22 L -176.61 463.06 L -175.85 465.96 L -176.87 468.97 L -178.91 472.69 L -181.47 475.65 L -184.18 477.13 L -185.89 477.59 L -186.96 477.41 L -187.73 476.86 L -188.06 476.22 L -187.98 475.25" fill="none" stroke="rgb(0,0,0)" stroke-width="8.00" stroke-linecap="round" stroke-linejoin="round"/>
  <path d="M -166.75 450.14 L -174.52 456.40 L -176.42 458.54 L -177.54 460.92 L -177.08 461.79 L -171.85 463.36 L -161.67 467.13 L -160.14 468.15 L -159.66 470.22 L -160.09 472.49 L -163.57 477.36 L -169.49 481.69 L -170.34 481.61 L -170.24 480.38" fill="none" stroke="rgb(0,0,0)" stroke-width="8.00" stroke-linecap="round" stroke-linejoin="round"/>
  <path d="M -153.59 458.89 L -153.33 471.49 L -150.90 482.38" fill="none" stroke="rgb(0,0,0)" stroke-width="8.00" stroke-linecap="round" stroke-linejoin="round"/>
  <path d="M -156.80 442.13 L -156.79 442.32" fill="none" stroke="rgb(0,0,0)" stroke-width="8.00" stroke-linecap="round" stroke-linejoin="round"/>
  <path d="M -150.64 463.47 L -145.45 476.52 L -143.96 482.11 L -142.33 484.48 L -141.96 484.60 L -143.80 482.61 L -144.68 480.37 L -144.73 477.54 L -143.77 473.11 L -141.71 470.13 L -134.08 465.55 L -133.07 465.90 L -132.17 466.99 L -131.26 469.29 L -129.43 477.83 L -129.52 481.21" fill="none" stroke="rgb(0,0,0)" stroke-width="8.00" stroke-linecap="round" stroke-linejoin="round"/>
  <path d="M -114.44 468.42 L -113.13 466.13 L -111.76 462.34 L -111.85 461.90 L -114.54 462.10 L -117.53 463.41 L -120.75 465.58 L -122.73 467.53 L -124.42 470.23 L -125.60 474.74 L -125.88 478.88 L -125.44 482.87 L -123.86 488.05 L -122.99 489.21 L -121.32 489.77 L -119.83 489.21 L -118.54 487.99 L -116.73 484.49 L -113.33 471.40 L -111.91 467.42 L -110.11 465.61 L -108.03 465.50 L -106.50 466.30 L -103.89 469.07 L -102.10 472.33 L -101.31 474.45 L -100.44 477.92 L -100.02 481.80 L -99.47 489.89 L -99.79 494.44 L -100.78 500.03 L -102.80 506.11 L -104.27 508.57 L -106.96 511.38 L -110.47 512.68 L -113.36 512.22 L -116.79 509.74 L -118.25 508.14 L -119.04 506.46" fill="none" stroke="rgb(0,0,0)" stroke-width="8.00" stroke-linecap="round" stroke-linejoin="round"/>
  <path d="M -250.39 521.09 L -249.60 516.83 L -250.92 519.77 L -251.68 521.99 L -251.76 524.62 L -251.16 535.93 L -250.54 537.35 L -250.45 537.00 L -249.72 536.95" fill="none" stroke="rgb(0,0,0)" stroke-width="8.00" stroke-linecap="round" stroke-linejoin="round"/>
  <path d="M -252.61 525.35 L -252.32 525.42 L -253.38 521.89 L -253.32 518.48 L -251.46 514.46 L -250.86 513.60 L -249.71 512.76 L -248.01 511.98 L -246.75 512.00 L -244.64 513.22 L -242.68 515.40 L -241.52 518.37 L -241.58 519.54 L -242.70 522.37 L -246.45 528.59 L -247.60 530.10 L -250.08 532.34 L -251.05 532.79 L -250.87 532.21" fill="none" stroke="rgb(0,0,0)" stroke-width="8.00" stroke-linecap="round" stroke-linejoin="round"/>
  <path d="M -230.29 517.77 L -233.99 519.71 L -236.13 521.37 L -238.51 525.73 L -238.73 526.95 L -238.53 528.39 L -236.55 531.38 L -232.00 534.08 L -226.74 535.56 L -222.91 535.42" fill="none" stroke="rgb(0,0,0)" stroke-width="8.00" stroke-linecap="round" stroke-linejoin="round"/>
  <path d="M -25.36 489.33 L -5.74 488.73 L 12.01 488.73 L 29.03 489.42 L 83.48 493.03 L 100.82 493.38 L 113.15 493.09 L 113.63 492.80 L 109.82 491.62 L 98.05 489.61" fill="none" stroke="rgb(0,0,0)" stroke-width="8.00" stroke-linecap="round" stroke-linejoin="round"/>
  <path d="M 114.19 490.89 L 110.71 488.12 L 108.10 486.93 L 97.66 484.68 L 93.37 484.48 L 98.80 486.31 L 111.96 488.63 L 114.95 489.60 L 116.37 490.54 L 116.09 490.54 L 113.85 493.25 L 112.04 494.28 L 103.91 495.14 L 101.00 495.15 L 97.85 493.99 L 93.56 491.72 L 93.80 491.91 L 93.46 496.48" fill="none" stroke="rgb(0,0,0)" stroke-width="8.00" stroke-linecap="round" stroke-linejoin="round"/>
  <path d="M 172.42 443.68 L 172.11 444.97 L 171.94 449.81 L 172.26 462.65 L 174.89 476.83 L 175.75 479.61 L 176.88 481.41" fill="none" stroke="rgb(0,0,0)" stroke-width="8.00" stroke-linecap="round" stroke-linejoin="round"/>
  <path d="M 152.03 451.74 L 163.38 450.34 L 170.08 449.17 L 174.21 448.90 L 179.50 449.71 L 181.65 450.43 L 180.24 450.40" fill="none" stroke="rgb(0,0,0)" stroke-width="8.00" stroke-linecap="round" stroke-linejoin="round"/>
  <path d="M 187.96 459.13 L 191.82 485.79 L 192.61 488.73 L 193.76 490.12 L 192.05 487.32 L 192.20 486.94 L 192.41 487.34 L 191.66 488.90 L 189.41 485.30 L 189.61 480.92 L 190.46 478.94 L 191.73 477.12 L 194.76 476.42 L 196.81 476.50 L 198.05 477.04 L 199.54 477.98 L 201.66 480.43 L 202.97 485.18 L 202.88 488.22 L 201.13 491.69" fill="none" stroke="rgb(0,0,0)" stroke-width="8.00" stroke-linecap="round" stroke-linejoin="round"/>
  <path d="M 210.02 479.99 L 209.88 484.81 L 210.53 488.70 L 213.65 489.86 L 213.82 490.26 L 212.63 490.78" fill="none" stroke="rgb(0,0,0)" stroke-width="8.00" stroke-linecap="round" stroke-linejoin="round"/>
  <path d="M 207.36 463.72 L 205.70 467.05 L 205.18 470.49" fill="none" stroke="rgb(0,0,0)" stroke-width="8.00" stroke-linecap="round" stroke-linejoin="round"/>
  <path d="M 217.82 476.89 L 221.32 482.79 L 223.22 489.93 L 224.39 491.88 L 222.21 488.46 L 222.33 484.46 L 223.02 482.37 L 224.80 479.11 L 226.87 478.36 L 229.73 478.45 L 230.98 478.82 L 232.21 479.50 L 233.96 481.41 L 235.72 487.97 L 235.61 490.08 L 234.83 490.57" fill="none" stroke="rgb(0,0,0)" stroke-width="8.00" stroke-linecap="round" stroke-linejoin="round"/>
  <path d="M 238.19 456.95 L 238.56 462.30 L 240.25 471.39 L 244.85 489.48 L 246.97 495.65 L 249.70 500.94 L 251.19 504.65 L 251.48 504.84 L 251.42 503.64 L 250.50 499.60" fill="none" stroke="rgb(0,0,0)" stroke-width="8.00" stroke-linecap="round" stroke-linejoin="round"/>
  <path d="M 240.53 493.04 L 245.68 488.25 L 250.02 483.27 L 251.20 481.47 L 253.37 476.71 L 254.21 474.07 L 252.94 476.24" fill="none" stroke="rgb(0,0,0)" stroke-width="8.00" stroke-linecap="round" stroke-linejoin="round"/>
  <path d="M 244.70 491.97 L 244.66 495.34 L 245.20 497.38 L 245.98 498.64 L 250.63 501.15 L 255.23 500.66 L 257.24 499.76 L 258.44 498.83 L 260.22 496.38 L 261.75 490.00 L 261.80 487.97 L 261.39 486.79 L 261.35 488.14 L 261.96 490.18 L 262.85 491.82 L 264.45 498.95 L 265.93 501.96 L 267.21 502.96 L 268.30 503.25 L 270.61 502.01 L 270.84 501.38 L 269.48 499.08" fill="none" stroke="rgb(0,0,0)" stroke-width="8.00" stroke-linecap="round" stroke-linejoin="round"/>
  <path d="M 263.90 466.22 L 261.99 471.19 L 261.28 474.23" fill="none" stroke="rgb(0,0,0)" stroke-width="8.00" stroke-linecap="round" stroke-linejoin="round"/>
  <path d="M 273.12 499.44 L 272.15 498.76 L 270.85 496.70 L 270.36 495.01 L 270.28 493.24 L 271.09 489.21 L 272.43 484.83 L 273.48 482.62 L 276.09 484.37 L 278.25 487.40 L 280.09 495.39 L 280.06 499.48 L 278.15 496.12 L 277.95 493.49 L 278.58 491.59 L 281.01 487.74 L 282.44 487.42 L 283.84 487.78 L 285.43 488.70 L 288.15 491.21 L 290.70 492.65 L 291.49 495.06 L 291.40 496.92 L 289.71 499.68 L 287.90 500.01" fill="none" stroke="rgb(0,0,0)" stroke-width="8.00" stroke-linecap="round" stroke-linejoin="round"/>
  <path d="M 298.05 489.29 L 297.79 488.03 L 296.86 486.86 L 295.41 486.88 L 294.21 487.56 L 287.98 493.91 L 286.95 495.55 L 286.79 496.93 L 288.00 499.26 L 289.91 501.77 L 291.62 502.83 L 292.95 502.58 L 294.73 500.35 L 295.76 498.05 L 298.06 489.83 L 298.79 489.37 L 299.87 489.99 L 300.93 492.58 L 301.60 495.47 L 302.79 502.50 L 303.50 509.12 L 303.53 515.54 L 302.58 521.68 L 301.43 523.22 L 299.11 524.47 L 287.66 526.04" fill="none" stroke="rgb(0,0,0)" stroke-width="8.00" stroke-linecap="round" stroke-linejoin="round"/>
  <path d="M 296.41 421.51 L 295.31 418.96 L 295.91 431.83 L 296.32 433.40 L 297.54 435.45 L 298.49 436.00 L 299.99 436.19 L 303.47 435.36 L 306.55 435.20 L 305.96 434.13 L 306.32 432.71" fill="none" stroke="rgb(0,0,0)" stroke-width="8.00" stroke-linecap="round" stroke-linejoin="round"/>
  <path d="M 310.77 420.01 L 308.69 421.96 L 308.05 423.72 L 308.16 425.01 L 308.85 426.55 L 308.81 430.58 L 309.46 432.35 L 310.14 432.87 L 310.82 432.93 L 315.15 431.95 L 318.01 430.68 L 318.46 429.75 L 317.87 429.41" fill="none" stroke="rgb(0,0,0)" stroke-width="8.00" stroke-linecap="round" stroke-linejoin="round"/>
  <path d="M 323.52 433.60 L 324.28 427.91 L 326.48 420.77 L 326.77 418.07 L 326.59 416.72 L 326.69 417.67 L 329.93 426.55 L 331.23 428.85 L 330.95 428.37 L 331.95 427.99 L 333.16 425.96 L 335.40 419.91 L 336.74 417.59 L 337.01 417.23 L 338.80 416.65 L 339.94 418.66 L 341.70 425.44 L 342.37 431.38 L 343.18 434.19 L 342.77 434.70" fill="none" stroke="rgb(0,0,0)" stroke-width="8.00" stroke-linecap="round" stroke-linejoin="round"/>
  <path d="M 231.98 575.03 L 231.96 566.47 L 231.95 567.65 L 232.67 570.30 L 234.91 576.56 L 236.53 582.46 L 240.97 603.11 L 244.87 618.46 L 247.58 635.21 L 249.07 654.80 L 250.13 664.14 L 251.69 671.33 L 254.38 687.87 L 254.70 684.68 L 254.67 679.88" fill="none" stroke="rgb(0,0,0)" stroke-width="8.00" stroke-linecap="round" stroke-linejoin="round"/>
  <path d="M 242.15 685.57 L 242.84 682.36 L 242.78 679.45 L 242.59 679.64 L 250.30 696.69 L 251.08 697.82 L 252.31 698.49 L 253.18 698.59 L 253.96 697.93 L 254.58 695.34 L 255.47 687.23 L 257.56 680.15 L 255.80 681.31 L 251.14 682.10 L 249.78 682.59 L 241.30 687.54" fill="none" stroke="rgb(0,0,0)" stroke-width="8.00" stroke-linecap="round" stroke-linejoin="round"/>
  <path d="M 171.46 789.15 L 167.43 772.06 L 166.57 763.39 L 168.50 771.97 L 173.24 798.40 L 175.20 805.25 L 175.87 806.58 L 176.63 807.34 L 175.48 806.20 L 172.29 804.97" fill="none" stroke="rgb(0,0,0)" stroke-width="8.00" stroke-linecap="round" stroke-linejoin="round"/>
  <path d="M 171.95 799.99 L 170.62 797.84 L 166.72 792.97 L 163.42 792.42 L 158.89 794.52 L 157.16 795.72 L 155.36 797.60 L 153.92 800.54 L 153.86 802.90 L 155.66 810.79 L 157.08 813.96 L 159.21 816.24 L 161.53 816.93 L 167.47 816.29 L 170.45 815.36 L 172.78 813.81 L 174.01 812.35 L 176.80 807.67 L 176.45 807.17 L 173.28 806.72" fill="none" stroke="rgb(0,0,0)" stroke-width="8.00" stroke-linecap="round" stroke-linejoin="round"/>
  <path d="M 181.80 794.78 L 179.79 794.75 L 176.24 795.37 L 174.42 796.44 L 173.97 796.96 L 173.87 797.94 L 174.17 799.46 L 177.51 807.91 L 179.25 810.08 L 181.36 811.25 L 187.08 812.95 L 191.42 813.41 L 192.95 813.33 L 195.80 812.24 L 198.00 810.36 L 200.25 807.55 L 200.93 805.93 L 201.50 802.49 L 201.05 800.47 L 199.68 798.27 L 196.87 794.78 L 194.68 793.03 L 191.74 792.24 L 186.71 791.70 L 183.23 792.30 L 181.34 793.02 L 180.51 793.63 L 180.29 794.52 L 180.88 796.25 L 183.29 799.33 L 186.82 802.20 L 188.89 803.07 L 190.59 803.40 L 196.33 803.79 L 197.45 803.50 L 198.92 802.45 L 200.57 800.44 L 198.33 801.85" fill="none" stroke="rgb(0,0,0)" stroke-width="8.00" stroke-linecap="round" stroke-linejoin="round"/>
  <path d="M 200.11 805.33 L 201.41 804.96 L 204.91 802.57 L 207.28 800.38 L 208.76 798.16 L 209.38 794.23 L 209.17 792.44 L 207.67 790.81 L 204.97 789.86 L 204.00 789.83 L 202.65 790.51 L 200.53 792.77 L 199.11 795.16 L 198.33 797.21 L 198.27 800.32 L 199.44 804.20 L 200.21 805.26 L 201.50 806.09 L 203.98 807.02 L 207.05 807.12 L 210.95 806.50 L 215.13 805.39 L 218.07 804.37 L 218.58 804.12 L 218.20 804.00" fill="none" stroke="rgb(0,0,0)" stroke-width="8.00" stroke-linecap="round" stroke-linejoin="round"/>
  <path d="M 222.05 792.28 L 224.59 806.28 L 225.17 808.12 L 226.01 808.91 L 226.14 808.63" fill="none" stroke="rgb(0,0,0)" stroke-width="8.00" stroke-linecap="round" stroke-linejoin="round"/>
  <path d="M 219.85 779.39 L 217.80 781.87 L 217.37 783.76 L 217.85 785.02 L 219.62 785.99" fill="none" stroke="rgb(0,0,0)" stroke-width="8.00" stroke-linecap="round" stroke-linejoin="round"/>
  <path d="M 235.02 790.62 L 233.17 787.92 L 233.30 788.48 L 238.09 799.98 L 239.04 801.90 L 240.11 803.13 L 240.47 804.39 L 240.29 806.01 L 239.69 805.62 L 238.79 803.91 L 236.89 797.89 L 236.63 795.29 L 237.14 790.84 L 237.74 789.38 L 238.61 788.35 L 242.04 786.90 L 244.02 787.19 L 245.79 788.42 L 249.69 793.06 L 251.34 795.65 L 252.51 798.50 L 253.15 802.96 L 252.95 805.77 L 252.22 806.06 L 249.82 805.00" fill="none" stroke="rgb(0,0,0)" stroke-width="8.00" stroke-linecap="round" stroke-linejoin="round"/>
  <path d="M 269.85 792.69 L 269.02 790.61 L 267.03 788.28 L 265.05 787.56 L 263.18 787.95 L 258.25 790.45 L 255.63 792.80 L 254.09 796.46 L 254.29 798.69 L 255.26 800.30 L 256.40 801.41 L 258.78 802.67 L 260.37 803.14 L 261.55 803.13 L 264.40 802.40 L 267.81 800.53 L 269.57 798.97 L 271.44 796.58 L 273.35 793.18 L 274.07 789.08 L 274.03 787.59 L 273.71 786.13 L 272.66 784.79 L 271.95 784.78 L 273.31 789.12 L 278.80 800.32 L 280.20 804.11 L 281.51 809.92 L 282.01 814.92 L 281.90 816.85 L 280.95 819.70 L 278.06 823.43 L 276.11 824.93 L 270.66 827.22 L 267.71 827.51 L 266.16 826.76 L 264.39 824.36 L 264.24 822.51" fill="none" stroke="rgb(0,0,0)" stroke-width="8.00" stroke-linecap="round" stroke-linejoin="round"/>
  <path d="M 176.49 881.73 L 173.59 881.14 L 172.26 881.21 L 170.52 882.27 L 169.05 884.23 L 168.66 885.44 L 169.00 888.12 L 169.89 890.46 L 171.02 891.79 L 173.46 893.34 L 175.20 893.25 L 176.32 892.78 L 178.52 891.57 L 181.35 889.18 L 183.33 885.77 L 184.08 883.23 L 183.91 882.26 L 178.21 880.15 L 174.99 880.41" fill="none" stroke="rgb(0,0,0)" stroke-width="8.00" stroke-linecap="round" stroke-linejoin="round"/>
  <path d="M 188.77 880.66 L 189.50 881.58 L 188.27 885.01 L 188.16 889.31 L 189.26 893.74 L 189.81 894.79 L 190.74 895.57 L 191.44 895.08 L 191.62 892.69 L 189.25 886.77 L 188.31 882.74 L 188.53 880.39 L 189.03 879.76 L 192.34 878.76 L 193.79 878.64 L 194.85 879.26 L 195.89 882.49 L 195.82 884.10 L 193.93 886.84 L 192.04 888.39 L 189.69 889.08" fill="none" stroke="rgb(0,0,0)" stroke-width="8.00" stroke-linecap="round" stroke-linejoin="round"/>
  <path d="M 200.28 882.75 L 198.96 884.54 L 198.19 886.92 L 198.25 888.64 L 199.35 890.85 L 202.08 894.39 L 203.31 896.69 L 204.60 897.10 L 205.98 897.09 L 208.47 896.59 L 208.88 896.33 L 208.50 895.97" fill="none" stroke="rgb(0,0,0)" stroke-width="8.00" stroke-linecap="round" stroke-linejoin="round"/>
  <path d="M 198.84 892.39 L 201.46 890.77 L 204.07 889.69 L 207.47 888.68 L 209.33 889.05" fill="none" stroke="rgb(0,0,0)" stroke-width="8.00" stroke-linecap="round" stroke-linejoin="round"/>
  <path d="M 202.24 888.32 L 202.45 885.87 L 203.67 884.57 L 206.83 883.69 L 209.66 884.30" fill="none" stroke="rgb(0,0,0)" stroke-width="8.00" stroke-linecap="round" stroke-linejoin="round"/>
  <path d="M 218.01 898.84 L 218.57 895.30 L 218.70 891.75 L 218.30 890.30 L 216.45 886.46 L 216.16 885.09 L 217.24 885.66 L 224.40 893.25 L 225.82 893.86 L 228.38 893.37 L 229.69 892.65 L 230.48 891.48 L 231.86 885.22 L 231.78 883.46 L 231.04 881.99 L 229.66 881.66 L 228.32 882.07" fill="none" stroke="rgb(0,0,0)" stroke-width="8.00" stroke-linecap="round" stroke-linejoin="round"/>
  <path d="M 246.81 879.39 L 242.72 880.67 L 238.23 883.18 L 236.83 884.67 L 236.11 886.36 L 235.94 889.04 L 236.86 891.96 L 237.83 893.34 L 238.80 893.88 L 240.73 893.63 L 245.27 891.63 L 247.90 890.65 L 248.40 890.77" fill="none" stroke="rgb(0,0,0)" stroke-width="8.00" stroke-linecap="round" stroke-linejoin="round"/>
  <path d="M 252.52 882.61 L 253.96 888.28 L 255.33 892.08 L 256.57 894.27 L 257.59 895.36 L 259.39 896.40 L 260.84 896.29 L 264.40 894.39 L 264.53 893.85" fill="none" stroke="rgb(0,0,0)" stroke-width="8.00" stroke-linecap="round" stroke-linejoin="round"/>
  <path d="M 268.04 893.73 L 267.76 893.47 L 267.81 892.86 L 269.76 884.53 L 269.63 877.71 L 270.82 873.99 L 271.98 876.11 L 275.13 885.28 L 276.36 888.13 L 277.36 889.60 L 276.58 889.34" fill="none" stroke="rgb(0,0,0)" stroke-width="8.00" stroke-linecap="round" stroke-linejoin="round"/>
  <path d="M 264.16 886.64 L 272.80 884.69 L 275.89 885.11" fill="none" stroke="rgb(0,0,0)" stroke-width="8.00" stroke-linecap="round" stroke-linejoin="round"/>
  <path d="M 281.76 876.70 L 280.78 879.08 L 280.52 881.40 L 281.10 884.29 L 282.59 887.83 L 285.23 889.25 L 286.63 888.86 L 288.36 887.54 L 289.07 886.24 L 290.10 882.01 L 290.06 879.94 L 289.97 880.94 L 290.41 882.73 L 292.60 888.79 L 294.57 891.87 L 296.18 893.05 L 297.12 893.34 L 299.11 892.77 L 301.08 891.28 L 302.45 889.50 L 303.50 887.21 L 304.36 881.98 L 304.23 879.21 L 303.85 878.25 L 301.30 878.39" fill="none" stroke="rgb(0,0,0)" stroke-width="8.00" stroke-linecap="round" stroke-linejoin="round"/>
  <path d="M 99.15 804.78 L 87.13 802.39 L 76.59 800.95 L 29.20 795.75 L -1.22 793.90 L -1.61 793.97 L 4.75 796.86" fill="none" stroke="rgb(0,0,0)" stroke-width="8.00" stroke-linecap="round" stroke-linejoin="round"/>
  <path d="M -9.47 785.86 L -4.63 784.10 L -4.28 783.76 L -7.63 784.83 L -21.81 790.34 L -24.90 792.51 L -25.44 794.00 L -24.72 795.58 L -23.21 796.32 L -16.11 796.67 L -13.19 797.29 L -11.24 798.13 L -7.00 798.44 L -7.45 798.42 L -6.13 795.55 L -5.80 793.67 L -5.56 785.81 L -5.96 785.36 L -7.90 790.58 L -8.79 791.47 L -10.17 792.17" fill="none" stroke="rgb(0,0,0)" stroke-width="8.00" stroke-linecap="round" stroke-linejoin="round"/>
  <path d="M -18.36 792.87 L -18.31 792.21 L -14.69 790.42 L -17.24 791.70" fill="none" stroke="rgb(0,0,0)" stroke-width="8.00" stroke-linecap="round" stroke-linejoin="round"/>
  <path d="M -63.16 369.62 L -62.90 369.55" fill="none" stroke="rgb(0,0,0)" stroke-width="8.00" stroke-linecap="round" stroke-linejoin="round"/>
  <path d="M -56.76 372.46 L -56.64 372.51" fill="none" stroke="rgb(0,0,0)" stroke-width="8.00" stroke-linecap="round" stroke-linejoin="round"/>
  <path d="M -53.69 368.07 L -53.62 367.96" fill="none" stroke="rgb(0,0,0)" stroke-width="8.00" stroke-linecap="round" stroke-linejoin="round"/>
  <path d="M -34.36 358.27 L -34.35 358.36" fill="none" stroke="rgb(0,0,0)" stroke-width="8.00" stroke-linecap="round" stroke-linejoin="round"/>
  <path d="M -35.06 356.12 L -35.25 355.48 L -36.09 355.28 L -40.31 356.49 L -41.93 357.47 L -43.79 359.61 L -40.11 360.64 L -34.56 360.75 L -30.90 362.49 L -30.02 365.88 L -31.14 367.89 L -33.99 370.51 L -35.82 371.01 L -37.27 370.92" fill="none" stroke="rgb(0,0,0)" stroke-width="8.00" stroke-linecap="round" stroke-linejoin="round"/>
  <path d="M -31.84 339.59 L -30.40 345.70 L -28.78 349.73 L -27.99 352.65 L -26.14 364.39 L -25.53 365.87 L -24.53 366.77 L -26.70 364.14 L -26.97 362.55 L -26.03 361.39 L -20.76 359.70 L -19.27 359.69 L -18.40 364.76 L -18.74 366.34 L -19.28 366.89" fill="none" stroke="rgb(0,0,0)" stroke-width="8.00" stroke-linecap="round" stroke-linejoin="round"/>
  <path d="M -6.79 361.77 L -10.54 360.93 L -12.87 361.27 L -14.59 361.90 L -16.11 364.04 L -15.68 366.70 L -14.21 367.78 L -12.53 367.68 L -9.48 365.64 L -7.60 363.58 L -6.87 361.92 L -7.11 362.22 L -6.94 363.23 L -5.52 366.88 L -3.30 368.93 L -2.21 369.22 L -0.94 368.41 L 0.13 365.63 L 0.04 361.72 L 0.55 360.60 L 1.64 359.70 L 4.49 358.69 L 5.51 362.00 L 5.68 364.35 L 7.83 367.79 L 8.86 367.87 L 10.06 366.81 L 11.31 363.83 L 12.80 366.98 L 14.99 370.10 L 15.64 370.41 L 15.46 368.54" fill="none" stroke="rgb(0,0,0)" stroke-width="8.00" stroke-linecap="round" stroke-linejoin="round"/>
  <path d="M 13.09 345.90 L 13.11 346.32" fill="none" stroke="rgb(0,0,0)" stroke-width="8.00" stroke-linecap="round" stroke-linejoin="round"/>
  <path d="M 17.93 372.07 L 20.92 361.76 L 23.31 362.69 L 24.10 363.56 L 26.20 369.05 L 26.11 370.96 L 26.02 367.20 L 26.70 364.80 L 27.38 363.85 L 30.58 362.76 L 31.28 362.71 L 31.93 363.21 L 34.32 368.57 L 34.43 369.04 L 34.15 368.76" fill="none" stroke="rgb(0,0,0)" stroke-width="8.00" stroke-linecap="round" stroke-linejoin="round"/>
  <path d="M 38.64 364.45 L 38.33 364.20 L 36.49 364.58 L 34.27 366.19 L 32.90 368.58 L 32.82 369.66 L 33.14 370.69 L 33.86 371.73 L 35.31 370.50 L 36.03 369.45 L 37.67 365.47 L 40.27 365.03 L 41.66 365.66 L 43.44 367.65 L 44.69 370.10 L 45.78 377.07 L 45.52 380.46 L 44.28 383.65 L 41.75 385.78 L 40.54 385.96 L 34.81 385.12 L 33.36 385.36" fill="none" stroke="rgb(0,0,0)" stroke-width="8.00" stroke-linecap="round" stroke-linejoin="round"/>
  <path d="M -277.04 789.25 L -280.31 788.27 L -281.71 788.31 L -283.20 788.99 L -284.35 790.80 L -286.64 800.46 L -286.57 805.49 L -285.43 810.64 L -284.37 813.17 L -282.42 815.14 L -280.92 815.78 L -276.26 816.89 L -274.33 816.83 L -271.55 815.95 L -268.97 814.11 L -267.97 812.94 L -267.89 812.25 L -270.70 811.82" fill="none" stroke="rgb(0,0,0)" stroke-width="8.00" stroke-linecap="round" stroke-linejoin="round"/>
  <path d="M -261.33 794.46 L -263.62 794.57 L -265.82 795.33 L -267.39 796.74 L -268.52 799.27 L -268.73 801.60 L -268.35 805.40 L -266.66 812.27 L -265.40 814.93 L -264.30 815.99 L -261.60 816.72 L -259.46 816.35 L -257.02 815.23 L -255.02 813.27 L -253.35 810.50 L -252.32 804.82 L -252.45 802.43 L -253.38 798.68 L -254.60 795.87 L -256.68 793.37 L -258.20 792.74 L -260.94 792.59 L -262.93 793.23 L -264.76 794.71 L -265.78 796.11 L -267.05 799.84 L -266.95 801.32 L -266.19 802.60 L -265.02 803.30 L -262.04 804.25 L -256.44 804.02 L -255.30 804.24" fill="none" stroke="rgb(0,0,0)" stroke-width="8.00" stroke-linecap="round" stroke-linejoin="round"/>
  <path d="M -253.63 774.43 L -253.96 765.76 L -252.00 777.40 L -250.13 791.16 L -246.49 807.51 L -245.51 810.36 L -245.68 811.50 L -245.71 810.36" fill="none" stroke="rgb(0,0,0)" stroke-width="8.00" stroke-linecap="round" stroke-linejoin="round"/>
  <path d="M -245.98 775.16 L -245.19 768.29 L -244.95 768.02 L -244.56 768.54 L -244.07 770.18 L -240.57 800.87 L -239.38 806.89 L -238.02 809.72" fill="none" stroke="rgb(0,0,0)" stroke-width="8.00" stroke-linecap="round" stroke-linejoin="round"/>
  <path d="M -225.46 799.14 L -229.88 797.72 L -231.66 797.53 L -233.57 798.12 L -235.36 799.68 L -236.01 800.97 L -237.25 805.75 L -237.36 808.91 L -236.80 811.34 L -235.91 812.83 L -233.84 813.90 L -232.38 813.49 L -230.29 811.73 L -228.05 807.71 L -226.67 801.56 L -225.97 800.34 L -224.36 811.44 L -223.21 815.14 L -221.72 816.31 L -220.71 816.27 L -220.26 815.85 L -219.46 813.17" fill="none" stroke="rgb(0,0,0)" stroke-width="8.00" stroke-linecap="round" stroke-linejoin="round"/>
  <path d="M -220.63 775.88 L -217.89 806.52 L -216.94 813.33 L -216.20 815.56 L -216.25 815.89 L -217.27 814.18 L -217.89 811.82 L -218.00 805.29 L -217.14 800.39 L -215.54 795.27 L -214.66 794.70 L -213.58 794.90 L -211.48 796.39 L -209.27 799.49 L -208.44 802.63 L -208.07 806.22 L -208.24 810.48 L -210.86 822.31 L -211.63 823.63 L -212.90 823.09 L -214.29 821.36 L -214.54 820.03" fill="none" stroke="rgb(0,0,0)" stroke-width="8.00" stroke-linecap="round" stroke-linejoin="round"/>
  <path d="M -198.70 805.55 L -199.86 802.44 L -200.62 801.99 L -201.53 802.23 L -203.45 804.27 L -205.73 808.86 L -207.23 813.80 L -207.22 817.52 L -206.93 819.65 L -206.19 821.64 L -205.80 822.31 L -204.70 822.97 L -203.07 823.54 L -201.69 823.35 L -198.66 821.68 L -196.42 818.02 L -194.34 811.96 L -193.32 805.75 L -193.57 802.62 L -194.42 801.04 L -195.09 800.48 L -197.95 799.94 L -200.06 800.65 L -202.60 802.21 L -203.96 803.47 L -205.26 805.55 L -206.66 811.43 L -206.20 814.08 L -204.95 815.56 L -203.74 816.14 L -202.33 816.25 L -200.79 815.87 L -198.25 814.58 L -189.06 808.25 L -187.52 806.58 L -186.41 804.10 L -182.55 803.21 L -182.22 803.56 L -181.49 806.46 L -181.83 813.34 L -181.62 816.77 L -181.00 819.64 L -180.20 821.33 L -178.24 822.45 L -176.33 822.64 L -174.44 821.88 L -172.18 820.04 L -170.22 817.12 L -168.79 813.17 L -168.22 809.57 L -165.72 808.82 L -166.00 808.39 L -167.63 807.83 L -169.11 808.19 L -170.62 809.36 L -172.65 812.14 L -173.94 815.70 L -174.36 817.91 L -174.35 820.59 L -173.96 822.19 L -173.14 823.32 L -171.72 823.93 L -170.16 823.24 L -168.46 821.51 L -166.68 818.09 L -165.38 811.38 L -164.33 807.91 L -163.90 817.86 L -163.34 820.32 L -162.50 821.57 L -162.23 821.37" fill="none" stroke="rgb(0,0,0)" stroke-width="8.00" stroke-linecap="round" stroke-linejoin="round"/>
  <path d="M -159.44 782.79 L -157.46 797.10 L -155.38 817.66 L -154.04 824.71 L -152.83 828.69" fill="none" stroke="rgb(0,0,0)" stroke-width="8.00" stroke-linecap="round" stroke-linejoin="round"/>
  <path d="M -162.82 808.27 L -157.52 806.67 L -155.86 806.53 L -154.38 807.06 L -153.26 808.33 L -152.79 809.44" fill="none" stroke="rgb(0,0,0)" stroke-width="8.00" stroke-linecap="round" stroke-linejoin="round"/>
  <path d="M -144.39 812.95 L -140.20 829.61" fill="none" stroke="rgb(0,0,0)" stroke-width="8.00" stroke-linecap="round" stroke-linejoin="round"/>
  <path d="M -147.48 801.75 L -147.46 801.80" fill="none" stroke="rgb(0,0,0)" stroke-width="8.00" stroke-linecap="round" stroke-linejoin="round"/>
  <path d="M -129.11 799.51 L -127.01 806.27 L -123.23 815.44 L -122.21 822.93 L -121.14 826.06" fill="none" stroke="rgb(0,0,0)" stroke-width="8.00" stroke-linecap="round" stroke-linejoin="round"/>
  <path d="M -121.17 825.58 L -121.58 821.40 L -121.36 812.35 L -119.57 805.32 L -118.13 803.39 L -116.69 802.80 L -112.88 802.77 L -110.64 803.59 L -109.40 804.57 L -108.20 806.41 L -107.35 812.02 L -107.36 815.06 L -107.65 818.94 L -108.76 823.97" fill="none" stroke="rgb(0,0,0)" stroke-width="8.00" stroke-linecap="round" stroke-linejoin="round"/>
  <path d="M -94.32 808.47 L -93.15 805.00 L -93.19 803.15 L -94.29 802.79 L -95.61 802.80 L -98.44 803.87 L -103.94 807.20 L -106.38 809.27 L -108.64 812.25 L -109.71 815.42 L -109.54 816.65 L -109.13 817.23 L -106.30 818.65 L -104.70 818.55 L -102.44 817.49 L -100.75 816.01 L -98.95 813.51 L -95.03 802.16 L -94.24 801.86 L -93.90 802.04 L -92.75 803.44 L -92.02 806.15 L -91.21 812.41 L -91.16 818.34 L -91.98 824.74 L -93.93 832.13 L -95.82 836.91 L -97.68 839.72 L -99.44 841.26 L -100.36 841.41" fill="none" stroke="rgb(0,0,0)" stroke-width="8.00" stroke-linecap="round" stroke-linejoin="round"/>
  <path d="M -254.25 869.55 L -253.86 875.13 L -252.18 881.89 L -251.31 883.80 L -248.68 885.66 L -247.50 885.82 L -246.58 885.29 L -244.96 881.02 L -245.22 873.37" fill="none" stroke="rgb(0,0,0)" stroke-width="8.00" stroke-linecap="round" stroke-linejoin="round"/>
  <path d="M -237.33 874.30 L -238.52 878.34 L -238.73 880.59 L -238.64 885.52 L -238.17 889.26 L -236.59 890.72 L -234.19 890.70 L -231.06 889.79 L -230.40 888.06" fill="none" stroke="rgb(0,0,0)" stroke-width="8.00" stroke-linecap="round" stroke-linejoin="round"/>
  <path d="M -226.17 878.34 L -221.77 889.35 L -220.75 890.78" fill="none" stroke="rgb(0,0,0)" stroke-width="8.00" stroke-linecap="round" stroke-linejoin="round"/>
  <path d="M -231.38 878.54 L -230.23 876.36 L -227.63 873.58 L -225.60 873.25 L -223.94 874.68" fill="none" stroke="rgb(0,0,0)" stroke-width="8.00" stroke-linecap="round" stroke-linejoin="round"/>
  <path d="M -219.23 882.07 L -219.56 877.70 L -219.27 876.99 L -218.47 878.94 L -215.19 894.05 L -215.27 895.13 L -216.77 892.71 L -217.79 889.75 L -218.79 884.29 L -218.90 880.10 L -218.15 877.35 L -216.94 875.40 L -213.10 874.86 L -211.85 875.40 L -210.23 877.08 L -209.29 878.98 L -208.92 880.73 L -209.24 883.41 L -210.12 885.70 L -211.52 887.40 L -213.86 888.91 L -215.30 888.45 L -212.83 888.00 L -209.39 888.17 L -207.11 889.03 L -204.52 890.71 L -204.22 891.21" fill="none" stroke="rgb(0,0,0)" stroke-width="8.00" stroke-linecap="round" stroke-linejoin="round"/>
  <path d="M -202.80 898.21 L -199.34 882.03 L -197.22 875.59 L -196.88 876.01 L -195.08 883.08 L -193.29 888.06 L -191.99 890.91 L -189.44 894.87" fill="none" stroke="rgb(0,0,0)" stroke-width="8.00" stroke-linecap="round" stroke-linejoin="round"/>
  <path d="M -203.98 890.05 L -198.13 889.80 L -195.22 890.75" fill="none" stroke="rgb(0,0,0)" stroke-width="8.00" stroke-linecap="round" stroke-linejoin="round"/>
  <path d="M -178.49 877.76 L -182.52 878.54 L -186.75 880.26 L -188.08 881.27 L -188.90 882.82 L -188.91 885.44 L -188.05 888.19 L -187.12 889.93 L -185.09 891.65 L -182.69 892.11" fill="none" stroke="rgb(0,0,0)" stroke-width="8.00" stroke-linecap="round" stroke-linejoin="round"/>
  <path d="M -167.66 878.44 L -172.20 880.76 L -174.05 882.33 L -175.68 885.46 L -176.04 886.92 L -175.98 888.41 L -174.86 892.19 L -173.31 894.11 L -171.55 894.84 L -169.82 894.58 L -168.46 893.76 L -166.13 889.04" fill="none" stroke="rgb(0,0,0)" stroke-width="8.00" stroke-linecap="round" stroke-linejoin="round"/>
  <path d="M -163.76 884.64 L -163.77 884.66" fill="none" stroke="rgb(0,0,0)" stroke-width="8.00" stroke-linecap="round" stroke-linejoin="round"/>
  <path d="M -163.62 883.66 L -163.73 882.76 L -165.89 879.50" fill="none" stroke="rgb(0,0,0)" stroke-width="8.00" stroke-linecap="round" stroke-linejoin="round"/>
  <path d="M -166.94 882.30 L -171.66 881.67" fill="none" stroke="rgb(0,0,0)" stroke-width="8.00" stroke-linecap="round" stroke-linejoin="round"/>
  <path d="M -168.25 880.52 L -167.43 882.04 L -165.03 889.41 L -163.91 891.38 L -163.94 892.50" fill="none" stroke="rgb(0,0,0)" stroke-width="8.00" stroke-linecap="round" stroke-linejoin="round"/>
  <path d="M -154.30 887.88 L -154.71 891.84 L -154.57 892.80 L -154.29 887.73 L -154.14 877.20 L -153.74 874.75 L -153.28 873.80 L -153.00 873.80 L -150.23 890.40 L -149.70 891.72 L -148.86 892.61 L -147.90 892.88 L -147.14 892.67 L -145.58 891.07 L -144.52 888.54 L -142.90 881.55 L -142.11 880.02" fill="none" stroke="rgb(0,0,0)" stroke-width="8.00" stroke-linecap="round" stroke-linejoin="round"/>
  <path d="M -139.17 874.96 L -137.23 882.48 L -135.17 892.30 L -134.37 894.13 L -133.75 894.79 L -132.77 894.60 L -132.62 893.84" fill="none" stroke="rgb(0,0,0)" stroke-width="8.00" stroke-linecap="round" stroke-linejoin="round"/>
  <path d="M -144.25 882.95 L -140.99 881.96 L -134.81 880.69 L -131.91 880.83 L -130.11 882.29" fill="none" stroke="rgb(0,0,0)" stroke-width="8.00" stroke-linecap="round" stroke-linejoin="round"/>
  <path d="M -125.71 880.23 L -128.11 884.77 L -129.55 889.17 L -129.85 892.53 L -128.91 896.24 L -126.62 898.12 L -124.93 898.94 L -118.74 898.77 L -118.34 897.09 L -118.41 895.42 L -119.30 893.11 L -120.35 891.99 L -123.37 891.29 L -128.50 891.61 L -126.55 890.16 L -123.29 888.85 L -116.68 889.00" fill="none" stroke="rgb(0,0,0)" stroke-width="8.00" stroke-linecap="round" stroke-linejoin="round"/>
  <path d="M -120.99 886.75 L -125.84 883.73 L -127.06 882.55 L -127.23 881.55 L -126.22 880.96 L -119.24 879.67 L -117.42 879.78" fill="none" stroke="rgb(0,0,0)" stroke-width="8.00" stroke-linecap="round" stroke-linejoin="round"/>
  <path d="M -111.75 903.38 L -107.49 895.61 L -106.29 892.60 L -105.85 890.60" fill="none" stroke="rgb(0,0,0)" stroke-width="8.00" stroke-linecap="round" stroke-linejoin="round"/>
  <path d="M -108.28 899.98 L -101.96 903.57 L -96.50 906.12 L -95.61 906.03 L -95.63 905.49" fill="none" stroke="rgb(0,0,0)" stroke-width="8.00" stroke-linecap="round" stroke-linejoin="round"/>
  <path d="M -98.53 885.10 L -96.45 887.55 L -93.56 891.86 L -89.12 899.95 L -88.12 902.35 L -89.27 902.47 L -90.22 902.10" fill="none" stroke="rgb(0,0,0)" stroke-width="8.00" stroke-linecap="round" stroke-linejoin="round"/>
  <path d="M -100.90 892.85 L -99.37 889.67 L -97.21 887.90 L -95.33 887.40 L -91.51 887.09" fill="none" stroke="rgb(0,0,0)" stroke-width="8.00" stroke-linecap="round" stroke-linejoin="round"/>
  <path d="M -332.98 1157.84 L -332.53 1151.13 L -332.60 1144.84 L -332.09 1152.07 L -332.07 1163.13 L -331.20 1175.59 L -333.73 1168.63 L -335.74 1158.39 L -337.16 1149.68 L -337.33 1145.11 L -336.96 1142.46 L -335.77 1140.60 L -332.81 1139.97 L -331.17 1140.02 L -328.31 1140.96 L -325.78 1142.32 L -324.08 1143.71 L -323.26 1145.13 L -323.05 1148.24 L -323.74 1152.14 L -325.02 1156.16 L -326.89 1159.73 L -328.09 1161.05 L -329.94 1161.95 L -334.21 1161.70 L -333.86 1161.14" fill="none" stroke="rgb(0,0,0)" stroke-width="8.00" stroke-linecap="round" stroke-linejoin="round"/>
  <path d="M -319.51 1173.77 L -318.68 1172.13 L -317.43 1167.76 L -317.37 1165.79 L -317.81 1163.54 L -317.77 1164.08 L -316.71 1162.82 L -315.64 1162.09 L -310.80 1160.33 L -309.75 1160.34 L -309.27 1160.64 L -309.04 1162.16 L -307.98 1164.53 L -306.22 1171.98 L -304.76 1174.96 L -302.80 1174.05 L -301.05 1171.47 L -298.77 1164.01 L -297.67 1162.27 L -298.84 1165.83 L -298.60 1171.01 L -296.65 1176.81 L -295.67 1177.94 L -293.76 1179.30 L -291.26 1178.91 L -289.85 1177.96 L -288.35 1176.17 L -286.50 1169.25 L -286.51 1165.05 L -287.35 1162.96 L -292.28 1160.81 L -293.93 1160.70 L -296.02 1162.23 L -296.47 1163.61 L -296.15 1165.67 L -294.75 1166.84 L -292.77 1167.39 L -289.22 1167.11 L -285.92 1167.36" fill="none" stroke="rgb(0,0,0)" stroke-width="8.00" stroke-linecap="round" stroke-linejoin="round"/>
  <path d="M -270.36 1164.68 L -275.09 1168.69 L -276.79 1170.86 L -278.40 1173.96 L -278.78 1175.44 L -278.50 1178.86 L -276.34 1183.68 L -274.06 1185.98 L -272.58 1186.58 L -269.76 1186.36 L -266.70 1185.18 L -265.96 1184.55 L -265.37 1182.13" fill="none" stroke="rgb(0,0,0)" stroke-width="8.00" stroke-linecap="round" stroke-linejoin="round"/>
  <path d="M -261.83 1176.45 L -258.14 1175.20 L -256.47 1174.31 L -256.30 1170.62 L -257.58 1170.10 L -258.78 1170.05 L -260.54 1170.88 L -261.05 1172.14 L -260.98 1176.10 L -259.38 1180.48 L -257.62 1183.27 L -256.56 1183.55 L -255.13 1183.19 L -254.25 1181.13" fill="none" stroke="rgb(0,0,0)" stroke-width="8.00" stroke-linecap="round" stroke-linejoin="round"/>
  <path d="M -243.64 1167.57 L -248.53 1170.71 L -250.26 1172.58 L -250.73 1173.98 L -250.42 1176.44 L -249.38 1177.59 L -238.69 1177.77 L -238.43 1180.49 L -239.79 1183.40 L -240.78 1184.09 L -242.09 1184.43 L -244.04 1183.98" fill="none" stroke="rgb(0,0,0)" stroke-width="8.00" stroke-linecap="round" stroke-linejoin="round"/>
  <path d="M -229.58 1167.34 L -231.67 1167.86 L -234.48 1169.09 L -236.35 1170.48 L -237.66 1172.54 L -237.82 1173.70 L -237.60 1174.40 L -232.20 1176.17 L -230.20 1177.14 L -229.66 1180.65 L -229.81 1181.37 L -230.68 1183.08 L -231.55 1183.80 L -232.86 1184.14" fill="none" stroke="rgb(0,0,0)" stroke-width="8.00" stroke-linecap="round" stroke-linejoin="round"/>
  <path d="M -267.14 1218.37 L -266.53 1222.83 L -265.07 1228.53 L -263.47 1230.97 L -261.61 1232.52 L -254.86 1236.80 L -247.26 1239.70 L -246.22 1239.67 L -246.05 1239.51 L -246.49 1239.44" fill="none" stroke="rgb(0,0,0)" stroke-width="8.00" stroke-linecap="round" stroke-linejoin="round"/>
  <path d="M -246.21 1233.45 L -245.12 1236.78 L -241.17 1242.39 L -240.39 1244.01 L -240.64 1243.82 L -244.53 1246.21 L -246.83 1246.66 L -247.76 1246.50" fill="none" stroke="rgb(0,0,0)" stroke-width="8.00" stroke-linecap="round" stroke-linejoin="round"/>
  <path d="M -210.49 1233.43 L -214.34 1235.99 L -216.67 1238.54 L -218.24 1241.71 L -217.74 1244.07 L -216.81 1244.92 L -215.42 1245.54 L -208.72 1245.56 L -207.05 1245.88 L -203.92 1247.59 L -203.76 1248.96 L -204.31 1250.21 L -206.83 1252.35 L -208.42 1253.24 L -213.72 1254.54 L -213.95 1254.52 L -213.72 1253.54" fill="none" stroke="rgb(0,0,0)" stroke-width="8.00" stroke-linecap="round" stroke-linejoin="round"/>
  <path d="M -205.71 1221.50 L -204.29 1225.08 L -203.52 1228.05 L -200.87 1242.78 L -199.47 1247.59 L -198.16 1249.42 L -200.94 1246.17 L -201.55 1244.20 L -201.53 1243.07 L -201.13 1241.15 L -199.93 1238.82 L -197.81 1238.02 L -196.14 1238.04 L -194.20 1239.25 L -191.78 1243.13 L -190.73 1245.49 L -190.96 1248.81" fill="none" stroke="rgb(0,0,0)" stroke-width="8.00" stroke-linecap="round" stroke-linejoin="round"/>
  <path d="M -180.44 1240.90 L -183.49 1240.22 L -185.48 1240.19 L -186.76 1240.70 L -188.01 1242.40 L -188.52 1244.77 L -188.38 1250.49 L -187.75 1252.11 L -186.84 1252.72 L -184.31 1253.35 L -182.28 1252.29 L -179.91 1246.40 L -180.04 1244.69 L -179.76 1248.14 L -178.63 1251.20 L -177.04 1253.74 L -176.26 1253.92 L -175.01 1253.61 L -173.78 1251.51 L -172.37 1246.14 L -172.53 1246.63 L -168.34 1244.16 L -168.50 1244.87 L -167.45 1249.05 L -165.69 1253.27 L -165.13 1255.61 L -162.63 1256.03 L -161.10 1255.79 L -159.85 1254.97 L -158.93 1253.74 L -155.51 1246.79 L -155.54 1244.90 L -156.00 1243.69 L -156.67 1242.82 L -158.30 1242.17 L -159.29 1242.25 L -160.21 1244.60 L -160.00 1248.11 L -159.06 1251.08 L -156.64 1255.11 L -154.96 1255.56 L -151.84 1255.19" fill="none" stroke="rgb(0,0,0)" stroke-width="8.00" stroke-linecap="round" stroke-linejoin="round"/>
  <path d="M -147.37 1272.81 L -145.56 1281.05 L -144.43 1284.46 L -142.49 1289.00 L -140.80 1291.16 L -137.38 1293.57 L -128.37 1297.90 L -122.11 1299.59 L -115.00 1300.43" fill="none" stroke="rgb(0,0,0)" stroke-width="8.00" stroke-linecap="round" stroke-linejoin="round"/>
  <path d="M -111.97 1294.90 L -116.70 1292.75 L -114.73 1294.29 L -111.48 1297.68 L -109.25 1302.48 L -109.51 1303.79 L -112.27 1304.80" fill="none" stroke="rgb(0,0,0)" stroke-width="8.00" stroke-linecap="round" stroke-linejoin="round"/>
  <path d="M -81.45 1283.60 L -81.08 1278.04 L -81.28 1270.38 L -81.80 1269.29 L -82.41 1268.85 L -80.48 1276.35 L -77.06 1301.58 L -73.79 1312.93 L -72.62 1315.06 L -72.58 1313.89 L -73.14 1311.82" fill="none" stroke="rgb(0,0,0)" stroke-width="8.00" stroke-linecap="round" stroke-linejoin="round"/>
  <path d="M -86.75 1302.21 L -80.11 1302.58 L -74.74 1301.81 L -70.72 1301.90" fill="none" stroke="rgb(0,0,0)" stroke-width="8.00" stroke-linecap="round" stroke-linejoin="round"/>
  <path d="M -64.68 1292.28 L -65.26 1289.24 L -65.29 1283.36 L -62.94 1289.60 L -61.30 1296.95 L -59.61 1307.90 L -58.26 1312.76 L -58.37 1314.16 L -58.87 1312.24 L -58.82 1310.25 L -58.48 1309.51 L -57.03 1307.63 L -53.19 1306.11 L -49.35 1306.21 L -48.30 1306.71 L -46.66 1310.54 L -45.84 1311.74" fill="none" stroke="rgb(0,0,0)" stroke-width="8.00" stroke-linecap="round" stroke-linejoin="round"/>
  <path d="M -38.10 1308.92 L -36.56 1319.02" fill="none" stroke="rgb(0,0,0)" stroke-width="8.00" stroke-linecap="round" stroke-linejoin="round"/>
  <path d="M -39.09 1294.15 L -39.07 1296.14" fill="none" stroke="rgb(0,0,0)" stroke-width="8.00" stroke-linecap="round" stroke-linejoin="round"/>
  <path d="M -29.97 1311.62 L -29.25 1315.10 L -27.69 1319.80 L -28.14 1322.75 L -27.91 1324.65 L -26.54 1319.46 L -26.23 1316.90 L -25.64 1315.55 L -21.45 1314.12 L -20.25 1314.53 L -18.25 1316.66 L -15.32 1322.60 L -15.52 1322.29 L -15.62 1323.12 L -15.20 1324.35" fill="none" stroke="rgb(0,0,0)" stroke-width="8.00" stroke-linecap="round" stroke-linejoin="round"/>
  <path d="M -16.54 1296.34 L -16.85 1285.68 L -16.17 1289.39 L -12.71 1300.59 L -9.22 1315.08 L -7.38 1320.65 L -5.56 1323.86" fill="none" stroke="rgb(0,0,0)" stroke-width="8.00" stroke-linecap="round" stroke-linejoin="round"/>
  <path d="M -9.10 1318.27 L -9.01 1317.27 L -3.40 1310.05 L -1.54 1307.12 L 1.56 1300.02" fill="none" stroke="rgb(0,0,0)" stroke-width="8.00" stroke-linecap="round" stroke-linejoin="round"/>
  <path d="M -9.76 1314.65 L -6.01 1317.74 L -0.19 1323.94 L 1.53 1325.34 L 3.24 1326.01 L 4.87 1325.77 L 5.68 1325.24" fill="none" stroke="rgb(0,0,0)" stroke-width="8.00" stroke-linecap="round" stroke-linejoin="round"/>
  <path d="M 5.22 1338.85 L 10.60 1344.05 L 19.70 1354.48 L 21.99 1356.34 L 26.58 1358.89 L 31.71 1360.23 L 39.53 1360.40 L 39.75 1359.86" fill="none" stroke="rgb(0,0,0)" stroke-width="8.00" stroke-linecap="round" stroke-linejoin="round"/>
  <path d="M 38.75 1353.64 L 42.22 1356.31 L 45.37 1357.93 L 45.04 1357.86 L 44.91 1359.43 L 42.68 1361.85 L 41.72 1364.02 L 41.72 1363.27" fill="none" stroke="rgb(0,0,0)" stroke-width="8.00" stroke-linecap="round" stroke-linejoin="round"/>
  <path d="M 78.38 1352.20 L 78.23 1351.42" fill="none" stroke="rgb(0,0,0)" stroke-width="8.00" stroke-linecap="round" stroke-linejoin="round"/>
  <path d="M 79.23 1345.13 L 79.23 1345.14" fill="none" stroke="rgb(0,0,0)" stroke-width="8.00" stroke-linecap="round" stroke-linejoin="round"/>
  <path d="M 79.77 1356.38 L 79.64 1353.85 L 79.09 1352.33 L 78.62 1351.89 L 76.29 1351.43 L 72.42 1351.79 L 71.81 1352.66 L 71.43 1354.68 L 71.88 1363.89 L 74.62 1369.14 L 75.92 1369.11 L 77.61 1368.04 L 78.84 1365.87 L 80.49 1359.42 L 80.51 1356.79 L 79.56 1354.44 L 78.70 1358.70 L 79.47 1361.84 L 81.09 1365.21 L 83.32 1367.53 L 86.23 1368.70 L 88.03 1368.65 L 89.56 1367.76 L 90.31 1366.74 L 91.52 1363.60" fill="none" stroke="rgb(0,0,0)" stroke-width="8.00" stroke-linecap="round" stroke-linejoin="round"/>
  <path d="M 98.29 1353.18 L 96.43 1355.77 L 94.61 1359.49 L 94.59 1362.79 L 95.36 1364.69 L 97.00 1366.11 L 100.63 1367.15 L 102.94 1367.06 L 107.59 1365.24" fill="none" stroke="rgb(0,0,0)" stroke-width="8.00" stroke-linecap="round" stroke-linejoin="round"/>
  <path d="M 107.50 1324.41 L 109.08 1333.71 L 113.01 1350.46 L 115.60 1364.43 L 118.04 1370.57 L 118.95 1370.37 L 119.61 1368.83" fill="none" stroke="rgb(0,0,0)" stroke-width="8.00" stroke-linecap="round" stroke-linejoin="round"/>
  <path d="M 106.04 1353.31 L 109.42 1356.03 L 112.79 1358.14 L 114.25 1358.56 L 115.74 1358.09 L 119.88 1358.00 L 122.27 1359.26" fill="none" stroke="rgb(0,0,0)" stroke-width="8.00" stroke-linecap="round" stroke-linejoin="round"/>
  <path d="M 137.30 1376.60 L 136.65 1373.46 L 137.19 1373.14 L 138.50 1373.62 L 140.71 1376.35 L 143.83 1378.78 L 145.61 1380.77 L 153.72 1391.38 L 157.44 1393.13 L 160.27 1395.73 L 167.22 1401.11 L 169.21 1401.39 L 173.26 1400.25 L 177.70 1400.43 L 180.63 1399.77" fill="none" stroke="rgb(0,0,0)" stroke-width="8.00" stroke-linecap="round" stroke-linejoin="round"/>
  <path d="M 174.12 1391.87 L 176.10 1395.12 L 178.55 1397.68 L 181.46 1399.52 L 183.35 1400.33 L 184.64 1401.34 L 185.08 1404.48 L 184.51 1405.62 L 182.78 1406.52 L 182.20 1406.53 L 182.20 1408.26" fill="none" stroke="rgb(0,0,0)" stroke-width="8.00" stroke-linecap="round" stroke-linejoin="round"/>
  <path d="M 215.75 1392.91 L 212.34 1392.25 L 210.75 1392.74 L 210.17 1393.39 L 209.80 1395.27 L 211.00 1402.64 L 213.08 1405.95 L 215.66 1407.14 L 217.35 1407.01 L 218.44 1406.30 L 219.17 1405.51 L 219.58 1404.34" fill="none" stroke="rgb(0,0,0)" stroke-width="8.00" stroke-linecap="round" stroke-linejoin="round"/>
  <path d="M 229.25 1395.19 L 227.42 1395.42 L 225.05 1396.44 L 224.25 1397.17 L 223.53 1398.56 L 224.46 1402.33 L 226.45 1407.98 L 228.10 1411.38 L 228.92 1412.46 L 229.75 1412.91 L 230.69 1413.08 L 231.74 1412.62 L 234.55 1405.46 L 234.74 1398.26 L 233.76 1395.21 L 231.64 1391.52 L 230.39 1390.77 L 227.04 1389.57 L 225.72 1390.81 L 224.66 1394.02 L 224.98 1396.68 L 225.84 1398.26 L 230.65 1403.78 L 232.05 1403.95 L 234.96 1402.99" fill="none" stroke="rgb(0,0,0)" stroke-width="8.00" stroke-linecap="round" stroke-linejoin="round"/>
  <path d="M 241.32 1412.03 L 243.73 1408.80 L 244.87 1406.23 L 246.95 1395.55 L 247.06 1392.71 L 244.15 1382.52 L 240.28 1374.67 L 239.58 1374.99 L 238.27 1376.88 L 237.36 1378.97 L 237.56 1384.28 L 240.63 1397.43 L 243.70 1402.90 L 246.00 1407.92 L 247.70 1408.94 L 249.92 1409.06 L 251.63 1410.12 L 253.63 1409.87 L 257.19 1408.09 L 258.06 1406.88 L 259.51 1403.60 L 261.87 1396.21 L 262.10 1393.25 L 261.88 1390.18 L 260.36 1386.41 L 258.55 1384.23 L 257.26 1381.89 L 256.08 1383.64 L 254.40 1387.24 L 254.88 1393.49 L 256.65 1401.46 L 258.29 1407.05 L 260.86 1411.78 L 261.51 1412.48 L 262.76 1412.74" fill="none" stroke="rgb(0,0,0)" stroke-width="8.00" stroke-linecap="round" stroke-linejoin="round"/>
  <path d="M 278.43 1403.89 L 275.71 1401.73 L 273.28 1400.53 L 272.12 1401.10 L 269.76 1403.60 L 268.45 1405.75 L 267.92 1407.61 L 268.29 1410.36 L 270.45 1414.46 L 271.56 1415.30 L 272.99 1415.24 L 274.45 1414.41 L 275.28 1413.42 L 277.94 1404.95 L 277.76 1400.82 L 276.98 1402.93 L 276.81 1404.71 L 277.35 1407.65 L 278.69 1411.23 L 279.93 1412.92 L 282.05 1414.46 L 284.16 1415.41 L 285.35 1415.45" fill="none" stroke="rgb(0,0,0)" stroke-width="8.00" stroke-linecap="round" stroke-linejoin="round"/>
  <path d="M 281.15 1369.88 L 282.55 1377.42 L 284.97 1386.95 L 291.16 1405.88 L 293.25 1410.27 L 292.93 1409.77 L 292.77 1412.06 L 293.28 1417.00 L 292.21 1414.70 L 292.07 1413.25 L 292.33 1405.85 L 293.48 1400.67 L 296.44 1400.18 L 298.17 1401.32 L 302.17 1407.49 L 304.26 1412.38 L 304.23 1413.76 L 302.19 1416.90 L 297.79 1419.75 L 297.52 1420.51" fill="none" stroke="rgb(0,0,0)" stroke-width="8.00" stroke-linecap="round" stroke-linejoin="round"/>
</svg>
