<?xml version="1.0" encoding="UTF-8"?>
<svg xmlns="http://www.w3.org/2000/svg" viewBox="-610.4 95.9 608.0 387.7" width="608" height="388">
<rect x="-610.4" y="95.9" width="608.0" height="387.7" fill="white"/>
  <path d="M -590.38 171.17 L -579.55 169.47 L -576.00 169.30 L -528.96 169.72 L -525.45 169.29 L -521.92 168.10 L -520.98 168.19 L -522.46 167.66" fill="none" stroke="rgb(0,0,0)" stroke-width="8.00" stroke-linecap="round" stroke-linejoin="round"/>
  <path d="M -530.78 159.11 L -524.22 163.45 L -523.90 165.48 L -524.06 167.23 L -525.01 169.28 L -530.14 174.83" fill="none" stroke="rgb(0,0,0)" stroke-width="8.00" stroke-linecap="round" stroke-linejoin="round"/>
  <path d="M -487.79 155.33 L -491.63 139.63 L -495.35 121.68 L -495.49 117.87 L -495.05 115.88 L -494.73 116.91 L -493.13 126.48 L -489.62 143.00 L -483.82 182.26 L -481.53 191.51 L -481.09 192.39 L -480.37 192.55 L -483.56 190.10 L -484.52 187.41 L -484.32 182.56 L -482.76 176.16 L -481.17 171.34 L -479.96 169.43 L -476.38 166.92 L -473.09 166.36 L -471.04 166.46 L -468.22 167.24 L -464.69 169.34 L -462.56 173.17 L -462.03 180.60 L -462.22 183.64 L -463.96 189.84 L -464.60 190.92 L -465.59 191.57" fill="none" stroke="rgb(0,0,0)" stroke-width="8.00" stroke-linecap="round" stroke-linejoin="round"/>
  <path d="M -435.21 179.94 L -435.44 179.76 L -435.44 177.30 L -436.10 174.75 L -437.70 172.53 L -439.10 171.62 L -441.35 171.24 L -445.86 171.18 L -447.70 171.69 L -449.76 173.03 L -451.86 175.18 L -452.67 176.49 L -454.41 182.86 L -454.06 186.35 L -452.73 190.86 L -451.81 192.28 L -450.41 193.20 L -448.27 192.77 L -443.80 190.25 L -440.87 187.14 L -439.90 184.89 L -439.39 182.46 L -438.83 173.86 L -438.41 172.50 L -437.74 171.66 L -437.37 171.78 L -436.81 173.86 L -434.85 184.64 L -434.46 185.49 L -434.14 185.72 L -431.64 184.20" fill="none" stroke="rgb(0,0,0)" stroke-width="8.00" stroke-linecap="round" stroke-linejoin="round"/>
  <path d="M -411.11 161.67 L -416.88 164.18 L -424.40 169.61 L -426.83 173.37 L -428.74 179.85 L -428.66 181.10 L -427.92 181.86 L -426.50 182.49 L -425.00 182.56 L -422.62 182.11 L -413.28 179.04 L -406.43 177.57 L -405.10 177.67 L -405.22 179.18 L -405.70 180.38 L -408.44 184.15 L -414.15 189.32 L -416.96 191.00" fill="none" stroke="rgb(0,0,0)" stroke-width="8.00" stroke-linecap="round" stroke-linejoin="round"/>
  <path d="M -393.45 117.44 L -392.29 130.12 L -389.97 146.35 L -387.57 181.29 L -386.89 187.12 L -386.16 190.51 L -385.57 191.73 L -384.80 192.23 L -384.76 191.78 L -387.38 180.51 L -387.64 175.44 L -387.23 172.22 L -386.24 168.94 L -384.72 166.41 L -382.70 164.80 L -380.55 164.07 L -377.44 164.36 L -375.61 165.25 L -373.32 167.37 L -371.52 170.58 L -370.26 174.87 L -368.88 189.04" fill="none" stroke="rgb(0,0,0)" stroke-width="8.00" stroke-linecap="round" stroke-linejoin="round"/>
  <path d="M -299.24 168.72 L -299.23 163.14 L -295.43 182.26 L -294.73 184.49 L -294.06 185.25 L -293.78 185.21 L -292.45 184.11 L -290.60 181.40 L -287.95 175.85 L -282.52 162.41 L -281.03 159.22 L -280.70 158.76 L -280.69 159.07" fill="none" stroke="rgb(0,0,0)" stroke-width="8.00" stroke-linecap="round" stroke-linejoin="round"/>
  <path d="M -275.44 180.84 L -269.47 178.33 L -265.40 175.99 L -261.37 172.46 L -260.08 170.69 L -258.99 167.62 L -258.83 164.19 L -259.25 163.07 L -262.05 162.96 L -264.06 163.40 L -268.07 166.23 L -270.41 169.72 L -271.76 174.59 L -271.82 176.10 L -271.40 178.93 L -269.66 183.40 L -268.34 185.37 L -267.04 186.63 L -264.51 187.70 L -262.32 187.78 L -260.61 187.33 L -257.46 185.28" fill="none" stroke="rgb(0,0,0)" stroke-width="8.00" stroke-linecap="round" stroke-linejoin="round"/>
  <path d="M -248.95 182.72 L -250.59 177.49 L -250.64 171.35 L -250.43 170.44 L -248.55 167.11 L -246.90 163.32 L -245.93 162.59 L -241.88 161.23 L -237.08 161.23 L -235.93 162.16" fill="none" stroke="rgb(0,0,0)" stroke-width="8.00" stroke-linecap="round" stroke-linejoin="round"/>
  <path d="M -251.81 167.96 L -248.02 162.19 L -246.45 160.56 L -244.99 159.62 L -242.63 159.41 L -237.57 162.39 L -232.73 167.04 L -231.81 170.11 L -231.85 171.57 L -232.48 173.10 L -236.84 177.50 L -243.09 180.79 L -244.64 181.16 L -246.54 180.96 L -248.49 178.91 L -247.99 177.41 L -246.12 176.21 L -242.07 175.48 L -240.11 175.54 L -238.23 176.05 L -236.85 176.91 L -232.16 182.17 L -231.32 183.39 L -231.39 184.53" fill="none" stroke="rgb(0,0,0)" stroke-width="8.00" stroke-linecap="round" stroke-linejoin="round"/>
  <path d="M -219.60 166.03 L -215.10 190.04 L -214.20 193.04 L -214.00 193.31 L -213.86 192.92" fill="none" stroke="rgb(0,0,0)" stroke-width="8.00" stroke-linecap="round" stroke-linejoin="round"/>
  <path d="M -218.69 154.70 L -218.67 154.85" fill="none" stroke="rgb(0,0,0)" stroke-width="8.00" stroke-linecap="round" stroke-linejoin="round"/>
  <path d="M -185.50 184.79 L -188.90 185.26 L -190.08 185.09 L -191.57 184.26 L -192.98 182.15 L -194.21 178.43 L -197.44 158.87 L -197.21 148.84 L -195.98 141.72 L -195.07 138.54 L -193.63 136.09 L -190.61 133.90 L -187.98 133.11 L -184.00 132.89 L -178.65 134.63 L -177.44 135.47 L -176.15 136.95 L -175.70 138.62 L -175.96 139.11" fill="none" stroke="rgb(0,0,0)" stroke-width="8.00" stroke-linecap="round" stroke-linejoin="round"/>
  <path d="M -203.81 173.04 L -187.10 168.01 L -179.57 167.03 L -178.35 167.51" fill="none" stroke="rgb(0,0,0)" stroke-width="8.00" stroke-linecap="round" stroke-linejoin="round"/>
  <path d="M -160.90 186.81 L -161.52 186.37 L -161.12 185.18 L -154.34 172.84 L -150.04 166.06 L -148.34 162.84 L -147.79 161.14" fill="none" stroke="rgb(0,0,0)" stroke-width="8.00" stroke-linecap="round" stroke-linejoin="round"/>
  <path d="M -162.89 158.54 L -160.65 163.43 L -157.29 168.31 L -155.83 169.60 L -152.72 171.50" fill="none" stroke="rgb(0,0,0)" stroke-width="8.00" stroke-linecap="round" stroke-linejoin="round"/>
  <path d="M -93.46 157.20 L -92.66 154.29 L -91.68 152.20 L -91.08 154.39 L -91.40 172.19 L -91.22 194.03 L -90.79 198.17 L -90.16 199.65" fill="none" stroke="rgb(0,0,0)" stroke-width="8.00" stroke-linecap="round" stroke-linejoin="round"/>
  <path d="M -95.51 165.96 L -91.72 154.79 L -89.55 150.79 L -87.67 149.09 L -86.55 148.98 L -84.82 149.61 L -79.20 154.34 L -77.94 156.01 L -77.31 158.72 L -77.25 160.26 L -77.89 162.54 L -86.11 176.15 L -89.70 178.17 L -92.02 179.89 L -93.15 180.32" fill="none" stroke="rgb(0,0,0)" stroke-width="8.00" stroke-linecap="round" stroke-linejoin="round"/>
  <path d="M -63.98 165.54 L -67.62 163.47 L -71.13 162.34 L -73.14 162.21 L -75.01 162.65 L -76.65 163.69 L -79.38 166.63 L -80.78 169.08 L -82.05 172.76 L -81.78 173.66 L -80.96 174.41 L -78.20 175.75 L -76.07 175.58 L -72.91 174.18 L -70.11 171.46 L -68.39 169.07 L -65.67 164.78 L -64.83 162.73 L -66.30 165.66 L -68.03 170.60 L -68.85 174.63 L -68.76 178.54 L -67.86 181.15 L -66.42 181.87 L -65.39 181.46 L -62.94 179.50" fill="none" stroke="rgb(0,0,0)" stroke-width="8.00" stroke-linecap="round" stroke-linejoin="round"/>
  <path d="M -43.34 162.51 L -47.87 161.09 L -50.68 161.03 L -52.50 161.81 L -53.91 162.89 L -55.71 165.82 L -57.28 171.20 L -57.27 173.60 L -56.21 175.10 L -53.48 177.09 L -52.14 177.56 L -50.61 177.37 L -49.26 176.64 L -47.97 175.29 L -45.99 171.80 L -45.38 169.99 L -43.68 161.41 L -43.08 159.93 L -42.35 159.23 L -40.47 165.81 L -40.49 176.43 L -41.17 181.20 L -45.88 198.41 L -48.45 205.17 L -49.51 206.56 L -51.84 208.15 L -53.60 208.42 L -55.64 207.03 L -57.39 205.04 L -58.27 203.40" fill="none" stroke="rgb(0,0,0)" stroke-width="8.00" stroke-linecap="round" stroke-linejoin="round"/>
  <path d="M -33.59 168.49 L -34.21 167.82 L -31.23 167.55 L -27.50 166.54 L -25.61 165.76 L -24.64 164.90 L -23.36 162.88 L -22.38 156.37 L -23.99 156.06 L -26.77 157.09 L -29.92 159.68 L -33.16 163.78 L -34.64 168.73 L -35.28 172.61 L -35.23 174.66 L -34.89 177.55 L -33.84 180.93 L -31.97 183.25 L -30.69 183.85 L -28.13 184.28" fill="none" stroke="rgb(0,0,0)" stroke-width="8.00" stroke-linecap="round" stroke-linejoin="round"/>
  <path d="M -566.24 296.82 L -566.58 297.35 L -568.39 297.73 L -574.43 297.53 L -577.17 298.60 L -574.32 300.40 L -566.25 301.97 L -561.08 302.35 L -554.43 302.29 L -540.75 301.78 L -534.22 301.04 L -526.26 300.77 L -522.55 300.98 L -519.46 302.40 L -517.61 302.97 L -517.35 302.91 L -517.66 302.65" fill="none" stroke="rgb(0,0,0)" stroke-width="8.00" stroke-linecap="round" stroke-linejoin="round"/>
  <path d="M -513.83 299.07 L -519.55 297.01 L -521.76 297.00 L -521.17 297.14 L -518.12 296.51 L -514.90 297.46 L -511.81 299.09 L -508.83 301.28 L -508.66 302.46 L -508.83 303.29 L -509.87 304.80 L -511.24 306.01 L -513.28 307.09 L -516.18 307.63 L -521.33 307.34" fill="none" stroke="rgb(0,0,0)" stroke-width="8.00" stroke-linecap="round" stroke-linejoin="round"/>
  <path d="M -458.87 301.01 L -460.95 297.09 L -462.67 294.60 L -463.96 292.80 L -466.02 290.89 L -467.42 290.15 L -469.68 289.83 L -471.42 289.83 L -473.22 290.50 L -475.30 292.21 L -476.90 294.51 L -478.53 297.93 L -480.14 303.39 L -480.46 305.09 L -480.15 307.77 L -477.77 311.48 L -473.83 313.98 L -471.08 314.68 L -467.71 314.13 L -464.40 311.44 L -462.27 309.08 L -461.02 306.90 L -459.42 297.63 L -459.44 296.68 L -462.77 295.87 L -463.12 296.38 L -463.14 297.44 L -462.46 300.50 L -460.54 305.14 L -458.16 308.37 L -455.76 310.57 L -455.01 310.84 L -452.64 310.55 L -451.12 309.51" fill="none" stroke="rgb(0,0,0)" stroke-width="8.00" stroke-linecap="round" stroke-linejoin="round"/>
  <path d="M -448.76 297.68 L -446.81 308.71 L -444.72 324.23 L -444.24 328.64 L -444.15 333.69 L -446.91 328.78 L -449.90 320.46 L -453.41 306.09 L -453.74 303.42 L -453.60 300.16 L -451.26 293.91 L -450.09 292.59 L -448.79 291.93 L -444.24 291.28 L -439.92 292.65 L -438.23 293.90 L -437.28 296.92 L -437.40 298.58 L -438.60 302.06 L -443.96 311.80 L -445.89 314.36" fill="none" stroke="rgb(0,0,0)" stroke-width="8.00" stroke-linecap="round" stroke-linejoin="round"/>
  <path d="M -425.66 298.20 L -424.42 305.67 L -424.12 310.38 L -424.47 331.69 L -424.22 335.69 L -424.21 307.92 L -422.76 299.24 L -420.84 292.40 L -420.01 291.60 L -418.47 291.57 L -416.40 292.37 L -415.20 293.27 L -413.23 295.55 L -411.35 301.35 L -411.38 302.66 L -412.83 305.10 L -418.11 310.04 L -415.83 308.88 L -414.72 308.66 L -413.04 309.86 L -412.00 310.01 L -408.73 308.31 L -407.69 307.42 L -406.22 305.78 L -403.81 302.09 L -401.32 294.92 L -399.78 281.50 L -399.73 278.57 L -400.13 275.95 L -401.12 273.40 L -402.91 271.29 L -404.63 270.33 L -406.08 270.12 L -406.88 270.35 L -408.17 271.51 L -408.87 272.93 L -409.51 276.50 L -409.62 279.30 L -409.00 289.23 L -408.41 293.08 L -407.64 296.25 L -406.03 299.34 L -403.52 302.14 L -398.56 304.47 L -396.42 305.22 L -393.02 305.04 L -391.08 304.20 L -389.76 302.58 L -387.57 295.92 L -387.55 294.86 L -387.74 301.16 L -386.41 304.55 L -384.44 306.82 L -382.72 307.50 L -377.95 307.15" fill="none" stroke="rgb(0,0,0)" stroke-width="8.00" stroke-linecap="round" stroke-linejoin="round"/>
  <path d="M -386.99 282.50 L -386.95 282.63" fill="none" stroke="rgb(0,0,0)" stroke-width="8.00" stroke-linecap="round" stroke-linejoin="round"/>
  <path d="M -367.99 289.83 L -369.77 293.29 L -371.72 298.47 L -372.48 301.95 L -372.25 304.36 L -370.90 306.00 L -367.43 307.17 L -360.18 310.36" fill="none" stroke="rgb(0,0,0)" stroke-width="8.00" stroke-linecap="round" stroke-linejoin="round"/>
  <path d="M -342.42 295.29 L -342.75 295.46 L -346.25 294.83 L -347.74 294.95 L -350.62 295.98 L -352.27 297.33 L -353.71 299.54 L -355.02 302.95 L -356.01 307.40 L -355.49 310.18 L -354.15 311.30 L -352.87 311.63 L -351.20 311.21 L -348.60 309.68 L -345.74 306.12 L -341.83 299.56 L -338.96 296.63 L -335.74 314.33 L -334.81 316.01 L -333.79 315.07 L -332.72 313.31" fill="none" stroke="rgb(0,0,0)" stroke-width="8.00" stroke-linecap="round" stroke-linejoin="round"/>
  <path d="M -327.90 254.38 L -325.71 273.24 L -322.17 290.61 L -320.72 302.00 L -320.02 304.22" fill="none" stroke="rgb(0,0,0)" stroke-width="8.00" stroke-linecap="round" stroke-linejoin="round"/>
  <path d="M -329.58 294.34 L -326.73 294.70 L -321.13 296.06 L -318.53 297.33 L -316.25 298.93" fill="none" stroke="rgb(0,0,0)" stroke-width="8.00" stroke-linecap="round" stroke-linejoin="round"/>
  <path d="M -304.40 294.53 L -304.90 296.85 L -305.06 300.59 L -304.72 310.95" fill="none" stroke="rgb(0,0,0)" stroke-width="8.00" stroke-linecap="round" stroke-linejoin="round"/>
  <path d="M -306.20 277.69 L -305.93 278.61" fill="none" stroke="rgb(0,0,0)" stroke-width="8.00" stroke-linecap="round" stroke-linejoin="round"/>
  <path d="M -284.17 299.10 L -286.87 295.71 L -288.64 294.58 L -289.90 295.27 L -290.98 297.44 L -292.23 302.03 L -292.81 307.63 L -292.34 312.90 L -291.52 315.70 L -290.41 317.97 L -288.25 319.04 L -287.02 319.30 L -284.30 318.77 L -282.08 317.77 L -279.95 316.30 L -275.83 311.84 L -274.37 308.41 L -273.84 304.95 L -274.05 303.10 L -274.83 301.79 L -276.17 300.90 L -278.89 300.33 L -280.38 300.75 L -283.24 303.50 L -285.99 308.79 L -286.42 310.30 L -285.95 312.10 L -284.28 313.82 L -282.54 314.19 L -281.16 313.93 L -276.18 311.68 L -274.13 311.16" fill="none" stroke="rgb(0,0,0)" stroke-width="8.00" stroke-linecap="round" stroke-linejoin="round"/>
  <path d="M -257.43 308.17 L -255.11 305.03 L -250.94 301.41 L -249.10 300.44 L -245.91 300.21 L -244.32 302.04 L -243.39 305.81 L -243.30 307.86 L -245.16 317.31 L -246.73 321.83 L -247.40 322.84 L -244.48 315.06 L -242.59 310.99 L -239.81 306.83 L -237.94 305.00 L -236.83 304.40 L -233.99 304.50 L -232.32 305.58 L -231.35 306.77 L -229.76 310.02 L -228.75 314.24 L -226.75 318.64" fill="none" stroke="rgb(0,0,0)" stroke-width="8.00" stroke-linecap="round" stroke-linejoin="round"/>
  <path d="M -537.10 434.09 L -557.91 430.02 L -560.10 429.88 L -561.16 430.15 L -559.43 431.06 L -556.28 432.03 L -549.79 433.03 L -543.37 432.97 L -536.10 432.03 L -528.82 431.61 L -508.98 431.90 L -512.17 431.13 L -514.07 430.33 L -516.90 428.61 L -520.33 425.71 L -524.47 423.88 L -525.90 424.05 L -524.08 425.29 L -520.44 426.96 L -505.11 429.68 L -506.37 432.33 L -509.32 435.09 L -512.43 435.89 L -518.30 435.57" fill="none" stroke="rgb(0,0,0)" stroke-width="8.00" stroke-linecap="round" stroke-linejoin="round"/>
  <path d="M -470.57 431.13 L -470.55 431.14" fill="none" stroke="rgb(0,0,0)" stroke-width="8.00" stroke-linecap="round" stroke-linejoin="round"/>
  <path d="M -475.80 429.44 L -474.91 429.98 L -475.92 434.48 L -476.00 437.40 L -474.92 436.14 L -474.04 434.32 L -471.59 426.12 L -471.23 428.78 L -470.07 433.07 L -469.16 435.04 L -467.85 436.92 L -468.34 435.14" fill="none" stroke="rgb(0,0,0)" stroke-width="8.00" stroke-linecap="round" stroke-linejoin="round"/>
  <path d="M -470.37 411.64 L -469.85 417.80" fill="none" stroke="rgb(0,0,0)" stroke-width="8.00" stroke-linecap="round" stroke-linejoin="round"/>
  <path d="M -461.38 441.08 L -461.01 436.79 L -460.44 434.19 L -457.21 426.83 L -456.44 426.77 L -454.50 427.74 L -453.39 428.76 L -452.57 430.21 L -450.65 436.90 L -450.84 438.96 L -451.59 441.54 L -451.84 440.22 L -451.50 436.94 L -449.53 431.77 L -448.48 429.99 L -445.95 429.87 L -445.00 430.45 L -442.17 437.25 L -440.77 432.34 L -439.46 429.94 L -438.58 429.21 L -435.51 428.78 L -433.94 429.08 L -432.61 429.99 L -430.72 433.61 L -429.97 433.36" fill="none" stroke="rgb(0,0,0)" stroke-width="8.00" stroke-linecap="round" stroke-linejoin="round"/>
  <path d="M -420.60 425.90 L -418.51 438.80 L -418.37 445.20 L -419.06 449.27 L -421.44 455.73 L -421.09 435.97 L -419.85 426.65 L -418.78 423.20 L -417.15 420.52 L -414.52 418.76 L -411.95 418.64 L -410.93 419.29 L -410.09 420.53 L -408.89 426.17 L -408.83 427.95 L -410.40 434.28 L -411.90 436.72 L -413.10 437.64 L -414.05 437.76 L -416.21 437.28" fill="none" stroke="rgb(0,0,0)" stroke-width="8.00" stroke-linecap="round" stroke-linejoin="round"/>
  <path d="M -402.19 419.00 L -406.52 424.82 L -409.10 430.61 L -409.84 434.15 L -409.44 436.40 L -408.68 437.57 L -407.53 438.27 L -406.05 438.59 L -404.19 438.03 L -400.60 436.09 L -397.22 433.35 L -396.01 431.51 L -394.76 428.60 L -393.76 422.01 L -394.08 419.68 L -395.06 417.59 L -396.34 417.04 L -398.34 417.10 L -400.72 418.20 L -402.43 419.55 L -404.80 422.13 L -406.84 425.75 L -406.96 427.38 L -405.64 429.07 L -403.96 429.74 L -402.35 429.65 L -397.79 427.14 L -395.09 425.20" fill="none" stroke="rgb(0,0,0)" stroke-width="8.00" stroke-linecap="round" stroke-linejoin="round"/>
  <path d="M -375.16 411.34 L -383.22 415.10 L -385.77 416.81 L -390.00 420.53 L -392.93 424.30 L -392.57 425.44 L -391.22 426.20 L -382.54 428.39 L -372.64 430.22 L -370.84 431.00 L -371.07 432.36 L -373.75 436.17 L -375.64 437.97 L -377.26 438.93 L -378.90 439.39 L -381.12 439.08 L -382.42 437.96 L -382.83 436.19" fill="none" stroke="rgb(0,0,0)" stroke-width="8.00" stroke-linecap="round" stroke-linejoin="round"/>
  <path d="M -357.08 413.07 L -368.52 419.48 L -371.61 421.98 L -372.73 423.94 L -371.14 424.22 L -366.34 423.95 L -361.32 424.66 L -356.07 426.39 L -353.83 428.32 L -353.01 429.57 L -352.53 431.78 L -352.67 432.97 L -353.41 434.73 L -355.08 436.97 L -358.23 439.45 L -359.29 439.86" fill="none" stroke="rgb(0,0,0)" stroke-width="8.00" stroke-linecap="round" stroke-linejoin="round"/>
  <path d="M -343.57 422.06 L -343.77 429.74 L -343.41 434.77 L -342.63 437.47 L -341.92 437.91" fill="none" stroke="rgb(0,0,0)" stroke-width="8.00" stroke-linecap="round" stroke-linejoin="round"/>
  <path d="M -345.48 399.88 L -345.53 400.35" fill="none" stroke="rgb(0,0,0)" stroke-width="8.00" stroke-linecap="round" stroke-linejoin="round"/>
  <path d="M -337.07 398.08 L -337.55 392.79 L -337.66 379.91 L -335.24 398.21 L -331.78 432.04 L -330.67 439.27 L -329.79 442.18 L -329.12 442.91 L -330.49 440.97 L -330.96 438.98 L -330.24 436.07 L -327.87 431.88 L -325.17 429.07 L -322.66 427.98 L -319.63 428.12 L -317.70 429.34 L -316.11 431.17 L -315.42 432.51 L -314.40 438.51 L -315.56 441.81 L -316.72 443.10 L -319.27 444.48 L -321.92 443.83" fill="none" stroke="rgb(0,0,0)" stroke-width="8.00" stroke-linecap="round" stroke-linejoin="round"/>
  <path d="M -309.31 450.65 L -308.27 448.42 L -299.90 434.92 L -297.78 429.94 L -295.85 423.29 L -294.65 415.71 L -293.66 398.82 L -294.57 392.64 L -295.49 390.69 L -297.10 388.87 L -297.60 388.88 L -298.16 389.36 L -298.99 390.98 L -300.38 395.85 L -301.15 404.23 L -300.89 414.44 L -299.76 425.17 L -297.59 437.67 L -294.72 447.47 L -292.83 451.82 L -291.51 453.79" fill="none" stroke="rgb(0,0,0)" stroke-width="8.00" stroke-linecap="round" stroke-linejoin="round"/>
  <path d="M -227.67 433.25 L -228.96 429.43 L -230.23 422.76 L -230.16 421.71 L -229.89 422.50 L -227.98 430.81 L -225.77 450.43 L -225.96 459.01 L -226.69 463.55 L -227.55 451.26 L -228.35 446.02 L -227.65 439.48 L -226.38 432.76 L -224.46 426.84 L -222.68 424.22 L -220.14 422.31 L -217.64 422.03 L -217.41 422.18 L -217.23 425.63 L -218.54 430.77 L -221.46 437.50 L -223.00 440.06 L -222.81 440.80" fill="none" stroke="rgb(0,0,0)" stroke-width="8.00" stroke-linecap="round" stroke-linejoin="round"/>
  <path d="M -210.97 450.45 L -208.14 440.49 L -208.60 435.89 L -208.33 433.06 L -203.57 431.88 L -195.87 426.71 L -197.15 430.77 L -197.82 434.17 L -197.82 439.14 L -196.39 443.37 L -195.63 444.17 L -194.27 444.73 L -193.05 444.48 L -191.15 443.45 L -187.94 440.27 L -180.02 427.80 L -182.90 431.24 L -184.36 433.71 L -186.70 440.07 L -187.13 443.02 L -186.89 447.70 L -186.00 450.88 L -184.70 453.16 L -182.70 454.23 L -179.62 454.62 L -176.96 453.66 L -174.67 452.05 L -171.77 449.05 L -170.37 446.48 L -168.45 440.86 L -167.79 431.90 L -168.68 429.51 L -170.35 428.39 L -176.78 428.30 L -179.41 428.93 L -182.42 430.13 L -185.86 432.05 L -187.23 433.39 L -184.52 434.92 L -181.54 435.72 L -171.88 435.37 L -168.82 435.57" fill="none" stroke="rgb(0,0,0)" stroke-width="8.00" stroke-linecap="round" stroke-linejoin="round"/>
  <path d="M -159.35 452.70 L -157.18 433.28 L -157.13 428.94 L -158.19 414.84 L -157.81 409.96 L -157.12 407.31 L -156.13 405.36 L -154.89 404.54 L -147.87 403.60 L -141.15 403.09 L -140.55 403.32 L -140.77 404.91" fill="none" stroke="rgb(0,0,0)" stroke-width="8.00" stroke-linecap="round" stroke-linejoin="round"/>
  <path d="M -164.65 432.19 L -153.53 431.93 L -145.62 432.42 L -139.53 434.99 L -138.71 434.28 L -137.09 430.51 L -135.90 429.38 L -135.14 432.83 L -135.08 439.13 L -134.49 441.24 L -133.93 441.58 L -133.78 441.21" fill="none" stroke="rgb(0,0,0)" stroke-width="8.00" stroke-linecap="round" stroke-linejoin="round"/>
  <path d="M -132.44 417.36 L -132.45 417.53" fill="none" stroke="rgb(0,0,0)" stroke-width="8.00" stroke-linecap="round" stroke-linejoin="round"/>
  <path d="M -121.55 453.93 L -111.59 436.99 L -109.36 431.11 L -107.24 422.74 L -106.43 417.58 L -105.88 410.29 L -106.18 405.96 L -107.18 402.45 L -108.64 399.68 L -110.36 398.19 L -111.38 397.84 L -113.26 399.01 L -114.61 401.68 L -116.14 409.21 L -117.43 419.59 L -117.32 429.32 L -116.74 434.91 L -116.03 439.66 L -114.27 444.86 L -111.38 448.38 L -110.09 449.26 L -107.37 450.07 L -105.07 449.96 L -102.22 449.30 L -96.92 446.98 L -92.41 443.46 L -90.45 440.43 L -89.81 435.35 L -89.91 433.35 L -90.75 431.59 L -91.52 430.89 L -92.72 430.66 L -93.68 431.01 L -94.61 431.88 L -96.85 435.73 L -97.23 438.30 L -96.59 441.92 L -95.64 443.81 L -94.26 445.19 L -89.39 447.44 L -85.46 449.84" fill="none" stroke="rgb(0,0,0)" stroke-width="8.00" stroke-linecap="round" stroke-linejoin="round"/>
</svg>
