<?xml version="1.0" encoding="UTF-8"?>
<svg xmlns="http://www.w3.org/2000/svg" viewBox="-593.1 228.9 1252.2 1074.6" width="1252" height="1075">
<rect x="-593.1" y="228.9" width="1252.2" height="1074.6" fill="white"/>
  <path d="M -521.02 282.99 L -520.42 282.93 L -515.89 282.09 L -512.17 281.54 L -509.47 281.48 L -504.81 281.90 L -501.72 282.50 L -500.23 282.86 L -495.84 284.05 L -492.82 285.06 L -491.37 285.59 L -484.36 288.23 L -482.91 288.72 L -473.00 291.80 L -470.20 292.40 L -456.17 294.98 L -453.45 294.96 L -447.41 294.50 L -443.08 294.33 L -441.63 294.34 L -440.32 294.42 L -439.63 294.52 L -439.63 294.56 L -439.69 294.58 L -439.77 294.59 L -439.85 294.61" fill="none" stroke="rgb(0,0,255)" stroke-width="16.99" stroke-linecap="round" stroke-linejoin="round"/>
  <path d="M -435.65 286.91 L -436.55 286.60 L -436.77 286.50 L -443.43 282.24 L -445.29 281.36 L -446.25 280.99 L -446.26 281.00 L -446.22 281.01 L -446.11 281.09 L -445.86 281.22 L -445.56 281.37 L -444.66 281.71 L -440.77 283.62 L -433.98 286.26 L -429.41 288.60 L -428.03 289.45 L -426.26 290.75 L -425.19 291.62 L -422.07 295.07 L -421.06 296.74 L -420.11 298.59 L -419.73 299.76 L -419.39 300.68 L -419.39 301.11 L -419.40 301.34 L -419.46 301.81 L -419.57 302.05 L -421.16 304.16 L -424.43 305.49 L -425.43 305.76 L -427.80 306.37 L -428.60 306.61 L -428.92 306.66 L -430.06 307.00 L -430.82 307.08 L -430.80 307.08 L -430.77 307.07 L -430.69 307.06 L -430.69 307.05 L -430.73 307.03 L -430.61 306.82" fill="none" stroke="rgb(0,0,255)" stroke-width="15.05" stroke-linecap="round" stroke-linejoin="round"/>
  <path d="M -381.12 319.01 L -381.08 318.91 L -381.07 318.71 L -381.08 306.89 L -381.16 305.85 L -383.86 286.99 L -385.31 281.12 L -388.64 274.59 L -390.00 270.90 L -390.31 270.47 L -390.92 270.38 L -391.59 270.02 L -392.05 269.38 L -392.10 267.79 L -391.32 266.03 L -390.63 265.03 L -388.95 263.63 L -388.53 263.46 L -387.11 262.99 L -385.63 262.32 L -384.20 261.89 L -382.50 261.22 L -378.55 260.45 L -365.19 258.61 L -362.41 258.50 L -358.98 258.58 L -348.87 259.31 L -348.91 259.36 L -348.85 259.92 L -348.71 260.59 L -348.72 261.97" fill="none" stroke="rgb(0,0,255)" stroke-width="11.18" stroke-linecap="round" stroke-linejoin="round"/>
  <path d="M -388.48 310.69 L -384.06 309.46 L -377.89 308.32 L -370.02 306.73 L -361.83 303.91 L -350.85 301.01 L -348.30 299.79" fill="none" stroke="rgb(0,0,255)" stroke-width="11.89" stroke-linecap="round" stroke-linejoin="round"/>
  <path d="M -346.50 289.21 L -347.22 293.77 L -347.44 299.57 L -346.69 303.62 L -345.40 307.53 L -343.16 311.08 L -340.79 313.80 L -333.73 317.76 L -332.94 317.86 L -331.88 317.81 L -329.28 317.31 L -324.65 315.18 L -323.07 313.69 L -321.84 308.63 L -321.76 305.64 L -323.33 298.24 L -324.23 296.07 L -326.23 292.83 L -328.87 290.10 L -333.29 287.51 L -336.66 286.10 L -343.66 284.79 L -344.29 285.19 L -345.05 286.43 L -346.99 290.88 L -347.79 294.70 L -347.70 297.01 L -347.22 298.64 L -346.61 299.90 L -345.80 301.03 L -345.25 301.42 L -344.63 301.80 L -343.68 302.17 L -341.84 302.36 L -341.16 302.30 L -339.90 302.16 L -338.58 301.92 L -337.26 301.83 L -331.42 300.33 L -321.26 295.26 L -311.15 289.23 L -308.06 288.10 L -304.52 287.68 L -303.47 287.73 L -302.39 288.01 L -300.89 288.80 L -299.45 290.31 L -298.58 291.96 L -297.57 294.62 L -297.17 296.22 L -295.50 307.27 L -294.09 312.61 L -293.99 312.08 L -291.99 308.52 L -287.81 299.88" fill="none" stroke="rgb(0,0,255)" stroke-width="12.33" stroke-linecap="round" stroke-linejoin="round"/>
  <path d="M -236.23 262.45 L -236.58 253.77 L -236.54 253.97 L -236.36 254.22 L -236.12 254.68 L -235.14 256.52 L -234.77 257.21 L -234.02 258.95 L -230.85 270.00 L -230.02 276.16 L -228.22 298.64 L -227.28 305.76 L -226.04 311.20 L -226.04 311.58 L -226.16 311.80 L -227.43 305.27 L -227.49 301.26 L -225.99 290.76 L -224.84 286.19 L -223.53 284.25 L -221.46 283.26 L -217.96 282.81 L -213.95 283.65 L -211.54 284.84 L -210.36 285.69 L -209.02 287.13 L -205.89 293.95 L -204.66 298.47 L -203.62 307.90 L -203.56 310.04 L -203.79 311.14 L -204.11 311.91 L -205.10 313.29 L -209.30 315.99 L -212.05 317.23 L -214.98 317.87 L -219.37 318.00 L -219.36 317.93 L -219.00 317.52 L -218.45 316.90 L -217.58 316.17" fill="none" stroke="rgb(0,0,255)" stroke-width="11.76" stroke-linecap="round" stroke-linejoin="round"/>
  <path d="M -191.35 311.95 L -190.18 311.28 L -188.13 309.98 L -184.23 306.39 L -181.72 303.75 L -179.07 299.42 L -177.81 294.42 L -178.25 293.98 L -180.53 293.34 L -182.46 293.33 L -184.79 294.07 L -188.68 296.30 L -191.75 298.56 L -193.77 300.81 L -195.10 303.44 L -196.19 307.41 L -195.86 310.29 L -195.51 311.06 L -195.11 311.81 L -194.70 312.36 L -194.12 312.83 L -193.47 313.28 L -187.88 316.01 L -185.41 316.64 L -183.67 316.66 L -182.82 316.59 L -181.82 316.43 L -181.11 316.15 L -178.06 314.67 L -175.39 313.61 L -174.81 313.18 L -174.05 312.08 L -172.67 308.18" fill="none" stroke="rgb(0,0,255)" stroke-width="11.80" stroke-linecap="round" stroke-linejoin="round"/>
  <path d="M -162.15 299.66 L -162.30 300.96 L -161.93 304.18 L -160.14 313.24 L -158.87 315.54 L -157.13 316.36 L -156.20 316.28" fill="none" stroke="rgb(0,0,255)" stroke-width="10.39" stroke-linecap="round" stroke-linejoin="round"/>
  <path d="M -163.97 278.40 L -163.93 278.53 L -163.87 278.72" fill="none" stroke="rgb(0,0,255)" stroke-width="10.25" stroke-linecap="round" stroke-linejoin="round"/>
  <path d="M -144.30 292.05 L -144.33 292.35 L -144.34 296.24 L -144.24 297.11 L -142.56 305.60 L -140.93 310.85 L -140.65 311.35 L -139.51 312.87 L -138.44 314.82 L -138.55 314.81 L -139.67 314.22 L -140.42 313.72 L -140.87 312.83 L -140.90 311.17 L -138.22 307.27 L -134.32 304.21 L -130.59 302.74 L -129.35 302.70 L -129.03 302.80 L -128.31 303.11 L -127.26 303.89 L -124.45 307.43 L -123.97 308.33 L -122.73 311.16 L -122.45 311.59 L -122.35 311.49" fill="none" stroke="rgb(0,0,255)" stroke-width="11.94" stroke-linecap="round" stroke-linejoin="round"/>
  <path d="M -109.93 308.51 L -107.52 303.41 L -107.40 302.74 L -107.78 301.90 L -111.35 301.85 L -114.96 302.99 L -118.67 305.31 L -120.37 306.95 L -121.92 310.19 L -122.21 311.45 L -122.02 312.93 L -118.43 317.26 L -117.52 317.81 L -116.92 318.09 L -116.34 318.33 L -115.13 318.47 L -113.33 318.33 L -110.66 317.59 L -109.95 317.16 L -109.32 316.55 L -108.78 315.90 L -108.29 315.23 L -107.56 314.14 L -107.31 313.88 L -104.92 311.92 L -103.45 311.24 L -101.29 310.72 L -100.82 310.70 L -99.86 310.90 L -98.24 311.52 L -94.03 312.69 L -90.83 314.50 L -88.50 316.79 L -87.18 318.90 L -86.35 320.66 L -85.83 322.18 L -85.43 323.74 L -84.24 334.39 L -83.91 339.31 L -83.98 345.50 L -85.32 350.31 L -87.57 354.12 L -91.32 357.76 L -93.25 358.84 L -95.51 359.28 L -97.62 359.18 L -101.14 358.44 L -104.52 357.42 L -107.20 355.97 L -108.91 354.27 L -111.29 350.82 L -112.72 347.55 L -112.67 346.27" fill="none" stroke="rgb(0,0,255)" stroke-width="12.16" stroke-linecap="round" stroke-linejoin="round"/>
  <path d="M -12.36 306.53 L -12.31 306.54 L -11.88 305.91 L -10.38 303.47 L -9.27 300.88 L -9.48 298.81 L -12.09 295.99 L -17.10 293.87 L -18.55 293.75 L -20.72 294.49 L -23.20 296.53 L -25.36 299.79 L -28.38 306.51 L -28.84 308.16 L -28.75 310.82 L -28.19 312.04 L -27.53 312.77 L -24.62 314.38 L -22.71 314.83 L -21.76 314.83 L -20.84 314.75 L -19.95 314.47 L -15.80 312.40 L -12.90 309.67 L -10.90 305.48 L -9.72 297.39 L -9.16 295.34 L -10.09 298.46 L -10.38 301.85 L -10.16 303.24 L -9.61 305.18 L -8.26 308.55 L -7.65 309.75 L -7.28 310.25 L -6.67 310.94 L -2.33 314.36 L -1.39 314.51 L -0.50 314.44 L 0.18 314.30 L 0.74 313.86 L 1.20 312.45" fill="none" stroke="rgb(0,0,255)" stroke-width="12.18" stroke-linecap="round" stroke-linejoin="round"/>
  <path d="M -2.66 260.60 L -2.64 260.64 L -2.37 262.15 L -1.54 265.41 L 0.34 275.65 L 2.89 283.88 L 3.69 288.99 L 5.83 309.26 L 6.68 313.60 L 7.26 315.11 L 7.40 315.28 L 7.69 315.50 L 7.79 315.71 L 7.79 315.64 L 7.75 315.42 L 7.46 314.90 L 5.81 312.90 L 4.88 311.18 L 4.28 308.49 L 4.50 304.54 L 5.61 301.07 L 6.96 298.01 L 7.84 296.78 L 10.37 295.38 L 13.76 294.88 L 15.51 294.95 L 16.71 295.22 L 18.52 295.77 L 20.12 296.68 L 21.90 298.35 L 23.34 300.96 L 23.68 302.47 L 24.42 308.04 L 24.42 310.64 L 24.04 312.11 L 23.51 313.47 L 20.75 316.53 L 19.44 317.11 L 18.92 317.20 L 19.05 317.00" fill="none" stroke="rgb(0,0,255)" stroke-width="12.64" stroke-linecap="round" stroke-linejoin="round"/>
  <path d="M 31.44 315.95 L 31.37 315.89 L 38.11 313.63 L 39.55 312.82 L 41.61 310.74 L 42.70 309.04 L 44.17 304.81 L 45.50 297.36 L 46.70 283.33 L 46.72 278.98 L 46.31 277.61 L 43.72 274.95 L 38.98 266.13 L 36.60 262.71 L 35.30 261.80 L 34.26 263.46 L 33.61 265.59 L 32.58 270.59 L 32.24 274.12 L 32.54 280.55 L 33.78 290.63 L 34.62 295.24 L 35.80 299.77 L 38.77 307.59 L 46.62 323.87 L 48.69 327.29 L 50.21 328.99 L 50.97 329.43 L 51.80 329.80 L 52.89 330.13 L 53.67 330.05 L 54.52 329.69 L 56.72 328.18 L 58.06 326.75 L 63.25 319.88 L 65.93 313.69 L 66.88 309.84 L 66.96 306.93 L 66.49 304.11 L 65.59 302.59 L 62.86 302.44 L 58.80 304.67 L 54.67 309.07 L 54.26 310.26 L 54.42 311.79 L 54.96 312.78 L 55.63 313.68 L 55.85 314.03 L 56.27 314.82 L 57.09 315.79 L 57.67 316.36 L 59.39 317.72 L 61.66 319.05 L 62.59 319.40 L 64.40 319.91 L 65.72 319.91 L 66.15 319.87 L 68.15 319.64 L 69.89 319.49 L 75.87 318.27" fill="none" stroke="rgb(0,0,255)" stroke-width="12.36" stroke-linecap="round" stroke-linejoin="round"/>
  <path d="M 117.14 248.89 L 117.39 249.42 L 118.05 250.96 L 121.33 259.13 L 122.41 263.05 L 123.11 268.70 L 126.32 311.38 L 127.17 316.32 L 129.26 324.90 L 129.81 326.17 L 130.46 327.10 L 130.49 327.11 L 130.50 327.01 L 130.69 326.46 L 130.71 325.75" fill="none" stroke="rgb(0,0,255)" stroke-width="14.10" stroke-linecap="round" stroke-linejoin="round"/>
  <path d="M 117.34 315.56 L 117.53 315.55 L 118.70 315.31 L 119.42 315.03 L 125.80 312.33 L 131.44 309.12 L 133.85 308.40 L 134.30 308.42 L 135.68 308.72" fill="none" stroke="rgb(0,0,255)" stroke-width="9.42" stroke-linecap="round" stroke-linejoin="round"/>
  <path d="M 144.72 304.47 L 142.57 310.97 L 141.90 314.10 L 141.75 316.57 L 142.29 318.60 L 143.66 320.68 L 145.24 325.08 L 145.77 325.93 L 146.53 326.57 L 149.51 328.46 L 150.11 328.50 L 150.68 328.42 L 151.48 328.00 L 154.74 325.25 L 159.70 319.73 L 161.10 316.61 L 161.16 315.53 L 159.89 312.81 L 158.58 310.90 L 156.23 307.67 L 154.54 306.41 L 151.76 305.22 L 149.93 304.85 L 145.12 304.23 L 142.91 304.65 L 141.80 305.73 L 141.56 306.47 L 141.66 307.32 L 142.26 308.73 L 143.10 310.03 L 145.00 312.30 L 148.62 315.22 L 151.67 316.81 L 152.49 316.61 L 153.31 316.20 L 154.11 315.69 L 155.92 314.92 L 158.21 314.65 L 158.92 315.17 L 159.25 315.52 L 159.85 316.27 L 160.40 316.82 L 160.57 317.07 L 161.07 317.55 L 161.17 317.61 L 161.31 317.64 L 161.32 317.59 L 161.64 317.34 L 161.87 317.25" fill="none" stroke="rgb(0,0,255)" stroke-width="13.03" stroke-linecap="round" stroke-linejoin="round"/>
  <path d="M 206.21 307.18 L 206.18 308.63 L 206.29 309.64 L 206.95 313.84 L 207.48 315.61 L 208.38 317.20 L 209.83 318.57 L 211.48 319.77 L 215.42 322.22 L 218.08 324.84 L 219.67 325.84 L 220.22 325.89 L 220.78 325.83 L 221.63 325.67 L 221.99 325.61 L 222.83 325.30 L 225.85 323.26 L 227.47 317.37 L 228.70 314.27 L 229.15 310.60 L 229.05 308.43 L 229.01 312.16 L 229.82 315.30 L 230.22 316.05 L 230.87 316.99 L 231.96 318.89 L 233.21 321.59 L 233.95 322.42 L 235.49 323.36 L 237.44 324.11 L 238.33 324.16 L 239.19 324.14 L 241.73 323.92 L 245.36 322.83 L 247.97 321.46 L 248.97 318.45" fill="none" stroke="rgb(0,0,255)" stroke-width="12.46" stroke-linecap="round" stroke-linejoin="round"/>
  <path d="M 263.07 316.49 L 262.19 315.94 L 260.71 315.18 L 257.52 313.75 L 254.20 312.67 L 251.07 312.12 L 249.47 312.28 L 247.63 313.23 L 245.05 315.90 L 243.97 315.94 L 243.67 316.55 L 243.82 318.68 L 246.56 326.33 L 247.37 327.67 L 247.67 328.11 L 248.26 328.93 L 249.18 329.97 L 250.09 330.78 L 252.10 332.40 L 252.48 332.58 L 252.76 332.60 L 253.16 332.70 L 253.64 332.66 L 253.99 332.46 L 254.14 332.31 L 254.47 332.08 L 254.77 331.80 L 259.06 325.35 L 260.18 324.10 L 262.67 322.86 L 263.02 322.19 L 263.83 319.11 L 263.83 315.30 L 260.73 314.24 L 260.09 314.51 L 260.06 315.19 L 260.83 318.30 L 262.25 321.31 L 265.08 325.69 L 265.77 326.42 L 266.86 327.37 L 267.16 327.54 L 267.39 327.60 L 268.07 327.88 L 268.91 327.84 L 270.08 327.63 L 270.67 327.34 L 271.28 326.98 L 272.15 326.42 L 272.52 326.25 L 273.16 325.78 L 275.10 323.95 L 279.23 317.72 L 281.62 313.07 L 283.12 306.72 L 284.62 296.80 L 284.42 291.75 L 282.58 282.99 L 279.05 272.56 L 278.36 271.38 L 276.68 273.33 L 275.99 274.64 L 275.31 276.67 L 274.91 279.68 L 275.42 295.67 L 276.33 303.57 L 277.55 310.22 L 278.80 313.46 L 280.23 315.69 L 281.07 316.52 L 282.90 318.19 L 283.82 319.10 L 286.50 322.04 L 287.79 323.08 L 289.48 324.19 L 291.18 325.58 L 291.68 325.67 L 292.10 325.63 L 292.34 325.53 L 292.54 325.41 L 292.53 325.22" fill="none" stroke="rgb(0,0,255)" stroke-width="12.45" stroke-linecap="round" stroke-linejoin="round"/>
  <path d="M 297.03 275.01 L 297.83 279.40 L 298.39 282.23 L 298.92 285.51 L 299.18 286.69 L 303.94 307.15 L 305.09 311.69 L 307.32 317.88 L 309.23 321.37 L 310.46 322.88 L 310.66 322.93 L 310.74 322.98 L 310.86 322.98 L 310.89 322.93 L 310.83 322.73 L 310.98 322.06" fill="none" stroke="rgb(0,0,255)" stroke-width="10.88" stroke-linecap="round" stroke-linejoin="round"/>
  <path d="M 304.69 314.00 L 305.74 313.82 L 309.31 309.14 L 311.08 305.50 L 313.80 296.80 L 315.64 292.60 L 316.67 291.18 L 316.87 291.27 L 317.39 291.65" fill="none" stroke="rgb(0,0,255)" stroke-width="11.17" stroke-linecap="round" stroke-linejoin="round"/>
  <path d="M 300.99 311.94 L 303.70 312.82 L 305.89 313.00 L 313.56 314.20 L 315.97 314.88 L 317.92 316.04 L 318.26 316.13 L 319.08 316.09 L 321.21 316.38 L 322.96 316.96 L 323.87 317.48 L 324.24 317.78 L 326.32 319.39 L 329.29 321.82 L 329.62 322.20 L 330.52 323.40 L 331.28 324.57 L 332.31 325.55 L 332.34 325.56 L 332.22 325.32 L 332.15 325.11" fill="none" stroke="rgb(0,0,255)" stroke-width="13.00" stroke-linecap="round" stroke-linejoin="round"/>
  <path d="M 238.13 321.90 L 239.26 320.91 L 243.95 319.67 L 245.93 318.72 L 246.55 315.98 L 247.77 314.36 L 249.41 310.16" fill="none" stroke="rgb(0,0,255)" stroke-width="9.00" stroke-linecap="round" stroke-linejoin="round"/>
  <path d="M -519.02 416.13 L -518.85 416.16 L -518.68 416.18 L -518.47 416.21 L -518.09 416.26 L -517.87 416.44 L -517.38 416.79 L -516.79 417.13 L -514.52 418.14 L -508.59 420.19 L -502.22 422.01 L -499.04 422.51 L -498.00 422.63 L -491.94 422.82 L -485.22 422.77 L -480.60 423.12 L -472.23 424.04 L -467.21 424.10 L -463.92 424.31 L -457.97 424.22 L -455.28 424.50 L -454.92 424.61 L -454.25 424.87 L -453.87 424.95 L -453.17 425.24 L -452.17 425.43 L -452.04 425.51 L -451.83 425.55 L -451.71 425.55 L -451.60 425.52 L -451.59 425.50 L -451.83 425.37 L -451.95 425.27 L -452.35 424.80 L -453.28 424.11" fill="none" stroke="rgb(0,0,255)" stroke-width="15.21" stroke-linecap="round" stroke-linejoin="round"/>
  <path d="M -452.42 419.98 L -452.19 419.87 L -455.25 417.27 L -456.93 416.14 L -457.01 416.14 L -456.94 416.16 L -456.37 416.45 L -455.55 416.90 L -454.61 417.41 L -453.65 418.13 L -450.75 420.15 L -447.39 422.40 L -446.10 422.77 L -445.69 422.87 L -444.10 423.17 L -442.93 423.70 L -441.74 424.44 L -439.69 425.91 L -438.74 426.84 L -438.15 428.07 L -437.53 430.22 L -437.63 430.47 L -437.78 430.72 L -438.13 431.21 L -438.76 432.04 L -439.37 432.53 L -440.38 433.01 L -441.07 433.27 L -442.07 433.61 L -442.39 433.72 L -446.08 435.29 L -447.65 435.29 L -447.72 435.18 L -447.95 434.35" fill="none" stroke="rgb(0,0,255)" stroke-width="14.25" stroke-linecap="round" stroke-linejoin="round"/>
  <path d="M -403.46 374.69 L -403.12 376.01 L -402.21 378.08 L -401.52 379.69 L -399.78 383.85 L -399.10 385.45 L -396.91 389.30 L -395.55 392.13 L -393.77 396.61 L -392.73 400.19 L -389.24 417.81 L -384.56 438.34 L -383.90 440.45 L -383.62 440.90 L -383.48 441.10 L -382.91 441.87 L -382.67 442.04 L -382.63 442.10 L -382.63 442.44 L -382.68 442.91 L -382.83 443.35 L -383.79 444.00 L -384.55 444.42 L -386.06 444.67" fill="none" stroke="rgb(0,0,255)" stroke-width="16.28" stroke-linecap="round" stroke-linejoin="round"/>
  <path d="M -404.13 431.49 L -404.07 431.53 L -403.87 431.63 L -402.47 432.08 L -398.60 433.07 L -391.38 433.28 L -386.46 432.84 L -379.55 431.06 L -375.73 430.31 L -374.75 430.26 L -374.49 430.29" fill="none" stroke="rgb(0,0,255)" stroke-width="10.36" stroke-linecap="round" stroke-linejoin="round"/>
  <path d="M -363.70 423.31 L -366.84 426.25 L -369.89 430.92 L -370.44 433.33 L -370.15 436.35 L -367.56 444.84 L -366.98 446.26 L -365.74 448.99 L -362.93 452.39 L -362.07 452.91 L -360.17 453.85 L -359.56 454.25 L -358.53 454.69 L -358.21 454.71 L -357.65 454.67 L -356.35 454.45 L -354.40 453.38 L -352.92 451.88 L -351.95 450.07 L -349.35 437.34 L -349.23 434.66 L -349.64 433.12 L -351.02 429.42 L -352.04 427.58 L -353.21 426.27 L -355.63 424.44 L -361.53 422.95 L -365.75 422.87 L -367.75 423.75 L -368.88 425.11 L -369.16 426.10 L -369.09 426.76 L -368.94 427.39 L -368.58 427.99 L -367.91 428.93 L -366.55 430.49 L -365.15 431.40 L -361.73 433.25 L -360.37 433.70 L -359.10 433.88 L -358.28 433.85 L -356.68 433.62 L -351.05 431.22 L -343.03 428.78 L -341.36 428.68" fill="none" stroke="rgb(0,0,255)" stroke-width="12.98" stroke-linecap="round" stroke-linejoin="round"/>
  <path d="M -294.00 391.30 L -293.96 391.41 L -293.90 391.65 L -293.24 395.28 L -292.35 399.82 L -291.06 408.35 L -286.76 442.89 L -286.64 445.98 L -286.78 447.51 L -287.00 448.53 L -287.01 448.46 L -287.02 448.29 L -287.02 447.53 L -286.96 444.22 L -287.28 439.82 L -287.20 432.11 L -286.74 430.19 L -284.96 425.99 L -283.99 424.50 L -282.49 423.81 L -279.94 423.25 L -276.62 423.53 L -275.27 424.05 L -273.42 424.99 L -272.40 425.74 L -271.53 426.58 L -270.46 427.78 L -267.40 430.32 L -267.22 430.59 L -266.93 431.12 L -266.31 432.74 L -265.37 436.08 L -265.27 437.07 L -265.25 438.22 L -265.36 441.78 L -265.46 442.36 L -265.82 443.93 L -266.11 444.79 L -266.52 445.66 L -267.12 446.60 L -269.13 448.85 L -275.49 454.36 L -279.48 456.15 L -280.11 456.03 L -279.68 455.38 L -278.42 453.61 L -277.84 452.70 L -275.43 449.31 L -273.93 447.12" fill="none" stroke="rgb(0,0,255)" stroke-width="13.87" stroke-linecap="round" stroke-linejoin="round"/>
  <path d="M -256.72 445.41 L -254.75 445.37 L -251.84 445.10 L -248.38 444.05 L -245.00 441.30 L -243.84 439.75 L -242.65 437.15 L -241.53 432.49 L -241.46 430.61 L -242.38 429.18 L -245.30 428.58 L -246.75 428.61 L -249.16 429.46 L -252.41 431.47 L -254.57 433.82 L -255.61 436.23 L -256.61 439.29 L -256.61 440.47 L -256.41 442.17 L -256.02 443.27 L -255.80 443.81 L -255.09 445.43 L -253.39 448.05 L -252.50 448.81 L -251.54 449.35 L -250.58 449.81 L -249.18 450.43 L -248.28 450.84 L -246.99 451.53 L -244.12 452.45 L -242.90 452.50 L -239.36 452.23 L -237.56 451.61 L -236.63 450.94 L -235.22 447.59" fill="none" stroke="rgb(0,0,255)" stroke-width="12.86" stroke-linecap="round" stroke-linejoin="round"/>
  <path d="M -178.56 443.87 L -178.63 443.97 L -177.56 443.75 L -176.30 443.20 L -173.82 441.47 L -172.32 439.49 L -171.21 437.00 L -170.09 433.23 L -168.93 424.82 L -166.33 411.26 L -166.47 404.31 L -167.59 399.72 L -169.06 395.64 L -171.38 393.22 L -174.99 392.05 L -177.10 394.08 L -178.01 396.00 L -178.31 397.07 L -178.67 398.99 L -178.70 400.63 L -178.65 402.68 L -177.93 419.21 L -177.50 421.56 L -174.94 433.93 L -174.32 435.55 L -173.48 437.12 L -172.85 437.98 L -171.58 439.54 L -169.31 441.88 L -168.63 442.54 L -167.48 443.39 L -165.32 445.25 L -164.76 445.60 L -164.22 445.89 L -163.14 446.36 L -162.57 446.56 L -162.14 446.58 L -161.91 446.64 L -161.39 446.55 L -160.59 445.98 L -159.96 444.80 L -157.07 436.07 L -157.18 427.56 L -157.21 427.62 L -157.20 427.73 L -157.19 428.06 L -157.15 429.37 L -156.79 431.02 L -156.27 432.72 L -154.27 438.28 L -152.29 442.35 L -150.40 445.00 L -149.76 445.66 L -149.10 446.69 L -148.80 446.94 L -148.63 446.97 L -148.50 447.05 L -148.35 447.06 L -148.30 447.04 L -147.98 446.92 L -147.86 446.79 L -146.95 444.27 L -146.80 442.84 L -147.17 440.53 L -147.38 439.80" fill="none" stroke="rgb(0,0,255)" stroke-width="14.45" stroke-linecap="round" stroke-linejoin="round"/>
  <path d="M -153.34 413.98 L -153.33 414.05 L -153.31 414.12 L -153.30 414.16" fill="none" stroke="rgb(0,0,255)" stroke-width="11.25" stroke-linecap="round" stroke-linejoin="round"/>
  <path d="M -137.37 441.86 L -138.91 436.24 L -139.45 434.60 L -139.68 431.75 L -139.67 431.84 L -139.53 432.08 L -139.26 433.11 L -138.91 434.07 L -137.37 438.60 L -135.73 443.83 L -134.71 446.67 L -131.60 451.13 L -131.40 451.25 L -131.08 451.28 L -130.80 451.22 L -130.53 451.11 L -129.74 450.53 L -128.62 448.43 L -126.25 439.08 L -124.82 436.21 L -124.70 435.68 L -124.73 435.13 L -124.80 435.17 L -124.82 435.21 L -124.84 435.31" fill="none" stroke="rgb(0,0,255)" stroke-width="12.57" stroke-linecap="round" stroke-linejoin="round"/>
  <path d="M -118.80 446.62 L -118.80 446.56 L -118.82 446.47 L -115.92 445.61 L -113.66 443.82 L -112.48 441.86 L -110.41 436.04 L -110.36 436.37 L -110.26 436.67 L -110.14 437.01 L -109.99 437.38 L -109.67 438.16 L -109.49 438.56 L -108.94 439.71 L -104.78 447.43 L -104.55 447.70 L -104.19 447.97 L -104.02 448.02 L -103.65 448.20 L -103.28 448.27 L -103.11 448.26 L -102.97 448.32 L -102.81 448.31 L -102.67 448.37 L -102.52 448.37 L -100.64 447.81 L -97.22 439.85 L -96.21 438.59 L -91.89 437.42 L -91.24 437.52 L -91.12 437.61 L -90.65 437.89 L -90.47 438.12 L -90.19 438.45 L -89.94 438.77 L -88.58 441.82 L -88.34 442.18 L -87.87 443.35 L -87.24 444.43 L -87.23 445.05 L -87.26 445.32 L -87.30 445.37 L -87.29 445.03 L -86.93 444.03 L -85.73 441.35 L -84.70 439.45 L -84.01 438.78 L -79.23 437.53 L -76.98 437.35 L -74.78 437.57 L -74.27 437.81 L -73.00 438.53 L -71.83 439.28 L -70.82 439.70 L -70.57 439.89 L -70.43 440.11 L -70.31 440.38 L -70.24 443.07 L -70.36 443.39 L -70.58 443.74 L -70.64 443.92 L -71.00 444.51 L -71.26 444.82 L -71.30 444.99 L -71.74 445.21" fill="none" stroke="rgb(0,0,255)" stroke-width="14.01" stroke-linecap="round" stroke-linejoin="round"/>
  <path d="M -62.10 434.97 L -62.22 435.03 L -64.83 434.78 L -67.95 435.45 L -69.98 436.60 L -72.06 438.29 L -73.03 439.92 L -74.57 444.04 L -74.57 444.90 L -74.41 446.16 L -74.26 446.56 L -73.66 447.89 L -72.23 450.38 L -71.26 451.29 L -68.81 453.25 L -68.37 453.75 L -67.60 454.21 L -67.33 454.26 L -66.88 454.25 L -66.10 453.98 L -65.00 453.24 L -64.10 451.27 L -61.02 440.13 L -59.58 436.94 L -58.52 436.26 L -55.59 435.48 L -54.67 435.51 L -53.60 435.94 L -53.17 436.20 L -52.81 436.51 L -52.16 437.16 L -51.07 438.41 L -50.73 438.91 L -49.63 440.70 L -48.19 443.47 L -46.08 450.17 L -44.62 459.94 L -44.55 461.87 L -44.92 463.82 L -45.29 465.16 L -45.91 467.21 L -46.51 468.60 L -47.17 469.82 L -47.85 470.96 L -48.86 472.28 L -50.40 473.50 L -52.43 474.18 L -54.75 473.94 L -59.37 472.61 L -73.34 469.92 L -74.92 469.35 L -75.84 468.31" fill="none" stroke="rgb(0,0,255)" stroke-width="13.77" stroke-linecap="round" stroke-linejoin="round"/>
  <path d="M -108.79 405.49 L -108.77 405.50" fill="none" stroke="rgb(0,0,255)" stroke-width="9.38" stroke-linecap="round" stroke-linejoin="round"/>
  <path d="M -0.16 440.34 L -0.12 435.68 L -0.57 430.16 L -0.06 428.11 L 1.15 426.60 L 5.04 425.51 L 6.56 425.39 L 7.41 425.73 L 8.24 426.24 L 8.78 426.80 L 9.88 428.13 L 12.42 432.96 L 14.15 441.14 L 14.54 442.44 L 15.04 443.41 L 15.09 443.76 L 15.08 444.11 L 15.05 444.23 L 14.99 444.03 L 14.90 443.00 L 15.62 439.31 L 16.37 437.04 L 17.55 434.82 L 18.33 433.80 L 22.92 432.74 L 23.23 432.93 L 23.69 433.23 L 23.89 433.32 L 25.29 434.39 L 25.87 435.02 L 26.80 436.34 L 28.31 439.79 L 30.34 446.16 L 30.47 447.03 L 30.46 447.36 L 30.38 447.65 L 30.33 447.54 L 30.20 447.37 L 30.06 447.10 L 29.69 446.25 L 29.50 445.15 L 29.67 441.55 L 32.91 435.83 L 35.91 434.50 L 38.53 434.76 L 39.07 435.10 L 39.63 435.54 L 40.36 435.96 L 40.71 436.27 L 42.20 439.50 L 42.52 439.94 L 43.76 441.10 L 45.65 444.67" fill="none" stroke="rgb(0,0,255)" stroke-width="13.40" stroke-linecap="round" stroke-linejoin="round"/>
  <path d="M 55.33 454.47 L 55.44 454.24 L 55.97 452.35 L 56.92 450.47 L 62.60 442.67 L 63.97 440.13 L 66.20 435.42 L 67.69 429.66 L 69.09 426.15 L 69.59 425.32 L 69.73 425.28 L 69.70 425.40" fill="none" stroke="rgb(0,0,255)" stroke-width="9.31" stroke-linecap="round" stroke-linejoin="round"/>
  <path d="M 52.57 426.80 L 52.82 427.42 L 53.18 428.69 L 53.46 429.37 L 54.45 431.11 L 55.15 432.11 L 56.88 434.09 L 61.38 437.65 L 61.72 438.17 L 61.97 438.71 L 62.19 439.10 L 62.37 439.26 L 62.75 439.82 L 62.96 440.05 L 63.01 440.09 L 63.00 440.07 L 62.99 440.05" fill="none" stroke="rgb(0,0,255)" stroke-width="17.25" stroke-linecap="round" stroke-linejoin="round"/>
  <path d="M 131.15 435.18 L 129.01 431.56 L 126.92 428.78 L 125.00 426.87 L 122.93 425.85 L 114.30 423.96 L 112.48 425.26 L 111.00 428.02 L 110.72 430.01 L 111.01 435.50 L 111.25 436.74 L 111.72 439.01 L 113.79 448.21 L 114.61 449.81 L 115.90 451.30 L 116.54 451.74 L 118.09 452.67 L 118.68 452.88 L 119.82 453.22 L 121.76 452.98 L 122.88 452.26 L 124.30 450.60 L 125.90 446.97 L 127.04 443.33 L 128.05 437.67 L 130.28 420.76 L 130.53 415.66 L 130.34 407.30 L 129.43 401.70 L 128.49 398.14 L 125.70 392.04 L 124.33 392.45 L 123.63 393.65 L 123.47 394.64 L 123.41 395.88 L 123.40 397.25 L 123.47 399.70 L 123.73 401.57 L 124.79 407.32 L 125.00 408.89 L 125.67 412.22 L 126.48 417.34 L 130.07 433.89 L 131.69 439.59 L 135.02 446.80 L 136.68 449.57 L 138.51 452.21 L 138.71 452.45 L 138.83 452.47 L 138.94 452.45 L 139.13 452.32 L 139.32 451.94 L 140.55 447.86 L 140.59 438.36 L 139.77 435.77 L 139.78 435.82 L 139.88 435.87 L 140.38 435.79 L 142.25 435.26 L 147.61 433.30 L 151.27 432.63 L 149.41 435.45 L 149.32 435.81 L 149.24 436.49 L 149.26 437.14 L 149.34 437.94 L 149.40 438.36 L 149.70 440.56 L 149.80 441.51 L 149.93 442.05 L 150.04 443.20 L 150.63 445.56 L 152.46 451.22 L 153.70 453.31 L 154.42 453.96 L 154.71 454.12 L 155.32 454.38 L 155.63 454.50 L 156.59 454.83 L 157.30 454.87 L 158.93 454.78 L 161.68 453.45 L 163.28 451.99 L 165.03 448.41 L 167.42 439.75 L 167.38 438.51 L 164.55 438.03 L 161.50 438.06 L 157.17 439.67 L 155.67 440.37 L 155.49 440.98 L 155.49 441.33 L 155.55 441.96 L 155.70 442.28 L 155.88 442.68 L 156.09 443.12 L 157.48 445.95 L 161.03 450.90 L 161.90 451.75 L 164.56 454.04 L 165.10 454.35 L 165.92 454.71 L 166.47 454.93 L 167.52 455.22 L 167.76 455.37 L 167.86 455.40" fill="none" stroke="rgb(0,0,255)" stroke-width="14.27" stroke-linecap="round" stroke-linejoin="round"/>
  <path d="M 187.86 440.37 L 187.58 440.35 L 182.32 438.27 L 180.57 437.48 L 180.05 437.40 L 179.17 437.84 L 177.42 439.99 L 176.84 441.41 L 176.43 442.08 L 175.70 443.92 L 174.44 447.51 L 174.34 448.25 L 174.34 449.08 L 174.50 450.77 L 174.75 451.31 L 174.87 451.86 L 175.95 453.75 L 176.29 454.12 L 176.77 454.53 L 177.27 454.75 L 178.16 455.08 L 178.92 455.11 L 180.42 454.90 L 181.89 453.75 L 184.56 447.19 L 184.33 441.52 L 184.34 441.54 L 184.39 441.58 L 184.84 441.63 L 185.27 441.90 L 185.49 442.15 L 185.92 442.78 L 186.53 443.87 L 189.02 452.00 L 190.80 454.75 L 190.89 454.72 L 191.00 454.58 L 191.03 454.38 L 191.24 453.76 L 191.49 453.01 L 191.62 452.61 L 192.05 451.43 L 193.28 447.65 L 194.17 445.11 L 195.59 442.72 L 198.48 440.02 L 201.87 439.11 L 202.93 439.39 L 203.52 439.80 L 204.03 440.29 L 204.48 441.11 L 205.59 443.69 L 206.45 445.45 L 206.79 446.86 L 206.80 447.57 L 206.74 448.62 L 206.79 449.47 L 206.73 451.36 L 206.84 452.22 L 207.22 453.73 L 207.43 454.00 L 207.46 453.99 L 207.48 453.94 L 207.48 453.80 L 207.81 452.83 L 208.92 449.87 L 210.48 445.19 L 211.70 442.99 L 213.65 441.70 L 216.57 440.63 L 217.93 440.45 L 221.15 440.65 L 221.27 440.73 L 222.57 441.45 L 224.18 442.29 L 224.42 442.54 L 224.82 443.09 L 224.98 443.39 L 225.27 444.03 L 225.86 445.78 L 226.45 447.39 L 226.83 448.58 L 226.92 449.37 L 226.90 450.53 L 226.85 451.26 L 226.66 452.85 L 226.65 453.57 L 226.55 453.86 L 226.57 453.85 L 226.22 453.20 L 226.12 452.52 L 225.98 448.62 L 226.06 445.61 L 226.64 444.76 L 232.36 442.28 L 236.98 442.33 L 237.28 442.42 L 237.56 442.55 L 238.07 442.94 L 238.22 443.17 L 238.37 443.44 L 238.65 444.06 L 239.36 445.78 L 239.78 446.78 L 240.51 448.29 L 240.67 448.50 L 240.99 448.79 L 241.24 449.13 L 241.66 449.80 L 241.81 449.98 L 241.87 450.14 L 242.80 451.97 L 243.04 452.31 L 243.65 453.67 L 243.88 453.99 L 244.23 454.79" fill="none" stroke="rgb(0,0,255)" stroke-width="15.28" stroke-linecap="round" stroke-linejoin="round"/>
  <path d="M 297.37 457.63 L 297.11 457.46 L 297.13 456.99 L 298.26 445.81 L 298.13 441.16 L 297.96 441.61 L 297.86 442.34 L 297.81 443.20 L 297.93 447.51 L 298.15 448.19 L 298.45 448.96 L 298.98 450.15 L 299.34 451.15 L 301.25 457.47 L 303.54 460.07 L 304.16 460.47 L 304.89 460.74 L 305.79 461.01 L 306.42 461.07 L 307.67 460.79 L 308.66 459.81 L 312.82 448.12 L 315.59 442.65 L 317.11 441.25 L 320.77 440.10 L 321.09 440.16 L 322.41 440.63 L 323.53 441.17 L 324.76 441.93 L 325.60 442.90 L 326.41 444.19 L 328.21 449.35 L 328.29 450.04 L 328.29 450.60 L 328.06 453.58 L 328.15 454.15 L 328.16 454.11 L 328.17 453.97 L 328.54 453.11 L 329.02 451.27 L 329.60 449.79 L 333.41 442.45 L 335.30 440.85 L 337.51 440.03 L 338.42 440.01 L 339.60 440.15 L 340.17 440.41 L 340.65 440.76 L 341.24 442.42 L 341.72 443.14 L 343.50 445.55 L 345.01 448.10 L 347.61 455.31 L 349.37 459.01 L 349.42 459.78 L 349.30 460.31 L 348.99 460.87 L 348.60 461.44 L 347.99 462.01" fill="none" stroke="rgb(0,0,255)" stroke-width="12.93" stroke-linecap="round" stroke-linejoin="round"/>
  <path d="M 295.54 424.60 L 295.63 424.71" fill="none" stroke="rgb(0,0,255)" stroke-width="9.75" stroke-linecap="round" stroke-linejoin="round"/>
  <path d="M 435.35 428.33 L 435.26 423.62 L 435.74 419.38 L 435.77 414.42 L 435.29 411.49 L 433.80 407.04 L 431.34 403.45 L 427.46 400.03 L 421.11 396.21 L 417.55 395.07 L 416.27 395.47 L 415.22 396.88 L 413.14 401.57 L 410.75 408.09 L 408.46 416.40 L 408.00 419.84 L 407.95 421.27 L 407.49 424.54 L 407.79 446.65 L 409.46 454.99 L 411.85 459.75 L 412.80 460.95 L 413.60 461.66 L 414.49 462.36 L 414.95 462.65 L 417.26 463.87 L 418.17 464.17 L 419.07 464.42 L 420.80 464.78 L 423.63 464.68 L 428.13 463.60 L 431.07 462.35 L 432.00 460.79" fill="none" stroke="rgb(0,0,255)" stroke-width="12.32" stroke-linecap="round" stroke-linejoin="round"/>
  <path d="M 448.51 451.41 L 450.12 445.68 L 450.11 443.86 L 449.72 443.36 L 447.75 441.86 L 446.01 441.35 L 443.51 442.44 L 441.43 445.28 L 439.57 451.14 L 439.21 454.86 L 439.33 456.65 L 439.59 457.64 L 439.94 458.53 L 440.26 459.74 L 440.73 460.94 L 441.22 461.81 L 442.12 462.74 L 442.60 462.84 L 443.17 462.77 L 443.59 462.64 L 444.21 462.32 L 445.34 461.63 L 446.00 460.69 L 450.26 450.48 L 450.90 448.08 L 450.94 448.12 L 451.05 448.17 L 451.16 448.30 L 452.09 450.35 L 453.22 453.72 L 454.05 454.85 L 454.38 455.19 L 455.76 457.41 L 458.65 460.84 L 462.09 463.77 L 462.65 463.93 L 463.21 464.13 L 463.50 464.15 L 463.71 464.15 L 464.12 464.10 L 464.65 464.02 L 465.48 463.85 L 467.15 462.72 L 468.01 460.91 L 467.98 455.98 L 466.78 447.16 L 466.28 435.53 L 467.08 429.92 L 466.99 425.16 L 467.74 423.68 L 467.56 421.33 L 466.32 418.15 L 463.56 412.84 L 463.06 412.54 L 462.11 412.46 L 460.76 412.94 L 459.68 415.09 L 459.33 417.52 L 459.69 425.18 L 460.10 428.03 L 461.89 438.86 L 462.56 441.41 L 463.01 442.82 L 465.01 451.47 L 465.81 453.71 L 467.27 457.21 L 467.76 457.94 L 468.31 458.61 L 468.68 459.26 L 470.52 461.64 L 473.42 464.39 L 474.38 464.83 L 474.67 464.83 L 474.93 464.79 L 475.45 464.63 L 476.18 464.30 L 476.42 464.20 L 476.91 464.02 L 477.93 463.31 L 480.66 457.57 L 481.45 455.11 L 482.32 449.20 L 482.45 444.50 L 482.43 445.43 L 482.73 447.44 L 483.00 448.61 L 485.98 457.47 L 486.19 457.83 L 486.40 458.01 L 486.52 458.14 L 487.51 458.87 L 488.13 459.04 L 488.46 459.27 L 488.65 459.44 L 489.48 459.84" fill="none" stroke="rgb(0,0,255)" stroke-width="13.98" stroke-linecap="round" stroke-linejoin="round"/>
  <path d="M 486.15 432.32 L 486.15 432.34 L 485.98 432.98 L 485.69 433.96 L 485.34 435.08 L 484.83 437.19 L 484.01 439.77 L 484.08 441.05" fill="none" stroke="rgb(0,0,255)" stroke-width="14.16" stroke-linecap="round" stroke-linejoin="round"/>
  <path d="M 507.96 463.17 L 508.26 456.96 L 507.84 451.21 L 505.32 429.07 L 505.81 420.57 L 507.90 414.94 L 508.72 413.52 L 511.61 409.75 L 514.21 407.02 L 517.16 404.93 L 517.45 404.86 L 517.75 404.83 L 517.89 404.75 L 517.94 404.76 L 518.00 404.78 L 518.29 404.85 L 518.52 405.03 L 518.76 405.65 L 518.95 406.03 L 518.80 406.53 L 518.73 406.93 L 517.52 409.62 L 516.63 410.84" fill="none" stroke="rgb(0,0,255)" stroke-width="11.28" stroke-linecap="round" stroke-linejoin="round"/>
  <path d="M 500.25 440.90 L 501.10 441.44 L 502.08 441.95 L 504.37 442.91 L 507.52 443.66 L 510.83 443.91 L 516.87 443.25 L 523.57 441.66 L 524.32 441.25" fill="none" stroke="rgb(0,0,255)" stroke-width="11.00" stroke-linecap="round" stroke-linejoin="round"/>
  <path d="M 526.35 439.68 L 522.04 442.71 L 521.33 443.86 L 521.23 445.71 L 522.59 449.62 L 524.82 458.32 L 525.86 460.08 L 526.13 460.31 L 526.83 460.72 L 527.65 460.72 L 528.36 460.87 L 531.76 460.99 L 534.49 460.23 L 537.12 459.01 L 538.98 456.89 L 540.67 452.53 L 541.16 450.22 L 540.87 448.71 L 539.07 444.24 L 537.70 442.11 L 536.03 441.06 L 532.91 439.74 L 529.10 439.48 L 528.03 439.90 L 527.49 440.53 L 527.18 442.03 L 527.28 442.35 L 527.55 442.73 L 528.12 443.85 L 529.82 446.51 L 530.37 447.06 L 530.79 447.30 L 532.75 448.04 L 533.06 448.04 L 533.19 448.02 L 533.50 447.95 L 533.73 447.91 L 534.05 447.84 L 534.59 447.76 L 535.55 447.71 L 535.66 447.72 L 535.78 447.79 L 535.99 447.90 L 536.24 447.96 L 537.42 448.17 L 538.06 448.08 L 538.62 447.88 L 538.84 447.73 L 540.35 446.88 L 540.69 446.62 L 541.52 446.19 L 543.81 444.20 L 547.11 442.19 L 551.28 439.03 L 553.68 437.55 L 554.91 437.23 L 555.08 438.23 L 553.96 442.76 L 554.10 446.38 L 554.37 447.14 L 554.54 447.44 L 555.09 448.56 L 557.13 453.99 L 558.00 455.32 L 559.10 455.81 L 559.38 455.81 L 559.77 455.73 L 560.01 455.59 L 560.49 455.41 L 561.98 454.16 L 563.78 450.85 L 566.64 443.96 L 568.61 443.02 L 569.34 442.92 L 569.92 442.96 L 570.49 443.27 L 570.80 443.50 L 571.06 443.79 L 571.50 444.37 L 572.42 445.82 L 573.57 448.13 L 574.73 451.44 L 574.82 455.02 L 574.61 456.57 L 574.30 455.42 L 574.71 453.40 L 576.43 448.64 L 579.07 444.51 L 580.39 442.94 L 581.48 442.18 L 581.95 442.06 L 582.07 442.00 L 582.19 442.06 L 582.33 442.09 L 582.60 442.18 L 582.93 442.41 L 583.50 442.95 L 583.63 443.09 L 584.16 443.92 L 584.68 444.90 L 585.54 446.09 L 586.10 446.61 L 587.68 447.72 L 587.96 448.14 L 588.06 448.40 L 588.22 448.64 L 588.31 448.92 L 588.94 450.06 L 590.00 451.55 L 590.22 451.79 L 590.68 452.13 L 590.96 452.28 L 591.26 452.41 L 591.69 452.55 L 591.89 452.57 L 592.29 452.72 L 593.43 452.62 L 593.75 452.73 L 594.05 452.75 L 594.81 452.68 L 594.99 452.56 L 595.45 452.33 L 595.74 452.07 L 595.95 451.92 L 596.21 451.67 L 596.57 451.26 L 596.70 451.03 L 598.47 446.99 L 600.60 437.86 L 600.63 437.85 L 600.65 437.95 L 600.56 442.45 L 600.96 447.58 L 601.43 450.10 L 602.20 451.93 L 602.33 452.06 L 602.40 452.09 L 602.63 452.23 L 602.90 452.39 L 603.68 452.66 L 605.63 452.45 L 606.08 452.28 L 606.91 451.87 L 607.51 451.61 L 608.69 450.83 L 608.83 450.47 L 608.95 450.29 L 609.24 449.30 L 609.12 447.31 L 608.56 446.36 L 607.57 445.24" fill="none" stroke="rgb(0,0,255)" stroke-width="14.04" stroke-linecap="round" stroke-linejoin="round"/>
  <path d="M 602.48 425.25 L 602.49 425.28 L 602.48 425.32 L 602.49 425.39 L 602.41 425.58 L 601.88 426.64 L 601.31 427.51 L 600.80 428.90 L 600.73 429.91" fill="none" stroke="rgb(0,0,255)" stroke-width="9.83" stroke-linecap="round" stroke-linejoin="round"/>
  <path d="M 618.96 447.10 L 620.68 443.37 L 620.57 440.52 L 620.00 439.62 L 617.54 438.66 L 615.46 438.73 L 613.10 439.78 L 611.84 441.31 L 610.92 443.61 L 610.93 447.08 L 612.04 454.31 L 612.32 454.83 L 612.45 454.93 L 612.66 455.02 L 613.01 455.19 L 613.19 455.19 L 613.36 455.16 L 614.74 454.87 L 615.81 454.35 L 616.42 453.96 L 616.77 453.66 L 618.17 452.64 L 618.88 451.68 L 619.72 449.48 L 619.93 444.57 L 620.29 444.10 L 622.07 447.32 L 623.07 450.30 L 624.69 451.54 L 627.27 452.75 L 628.22 452.87 L 629.86 453.27 L 630.91 453.34 L 631.52 453.14 L 632.17 453.02 L 633.36 452.59 L 637.49 450.59 L 637.77 450.53 L 638.31 450.49 L 638.50 450.42 L 638.89 450.44 L 639.05 450.38 L 639.13 450.42" fill="none" stroke="rgb(0,0,255)" stroke-width="13.27" stroke-linecap="round" stroke-linejoin="round"/>
  <path d="M -524.28 534.34 L -524.13 534.41 L -523.81 534.59 L -521.73 534.99 L -512.09 536.21 L -506.66 536.81 L -493.13 538.11 L -466.98 542.65 L -455.78 543.72 L -447.32 543.41 L -442.08 542.19 L -438.20 540.87 L -436.61 539.81 L -436.76 539.90 L -436.87 539.94 L -437.66 539.79 L -440.27 538.87" fill="none" stroke="rgb(0,0,255)" stroke-width="10.76" stroke-linecap="round" stroke-linejoin="round"/>
  <path d="M -453.77 536.53 L -453.74 536.58 L -453.69 536.63 L -453.67 536.65 L -453.65 536.66 L -453.11 536.65 L -451.08 536.87 L -448.52 537.24 L -442.27 538.43 L -435.10 541.00 L -432.10 542.22 L -431.70 542.26 L -431.59 542.33 L -431.39 542.35 L -431.45 542.37 L -431.44 542.52 L -431.52 542.97 L -432.16 544.23 L -432.98 545.30 L -433.94 546.34 L -437.57 549.12 L -439.55 550.09 L -439.88 550.08 L -439.74 549.90 L -439.55 549.65" fill="none" stroke="rgb(0,0,255)" stroke-width="11.37" stroke-linecap="round" stroke-linejoin="round"/>
  <path d="M -406.91 568.36 L -406.07 568.64 L -406.02 573.35 L -405.96 570.00 L -408.26 559.18 L -409.88 546.54 L -411.21 539.53 L -412.53 535.68 L -414.23 532.35 L -416.78 526.11 L -419.44 525.23 L -419.42 525.24 L -419.30 525.26 L -418.35 524.99 L -416.29 524.72 L -408.83 524.40 L -395.90 522.00 L -392.88 521.80 L -392.26 521.65 L -390.86 521.62 L -389.09 521.42 L -383.87 521.28 L -383.72 521.76 L -383.64 521.97 L -383.66 522.56" fill="none" stroke="rgb(0,0,255)" stroke-width="11.73" stroke-linecap="round" stroke-linejoin="round"/>
  <path d="M -419.91 564.80 L -419.83 564.72 L -419.13 564.85 L -418.45 565.10 L -414.79 566.06 L -411.91 566.68 L -404.39 566.54 L -401.46 565.98 L -391.99 562.96 L -388.00 561.22 L -387.61 561.16 L -387.38 561.18 L -387.18 561.25" fill="none" stroke="rgb(0,0,255)" stroke-width="12.00" stroke-linecap="round" stroke-linejoin="round"/>
  <path d="M -382.95 558.75 L -383.57 560.77 L -383.77 564.09 L -383.70 566.90 L -383.59 567.18 L -383.09 568.06 L -382.95 568.23 L -382.43 568.75 L -381.23 569.31 L -378.94 570.71 L -377.39 571.77 L -373.26 573.42 L -371.73 573.66 L -370.90 573.68 L -367.88 573.35 L -363.89 571.08 L -361.87 569.20 L -360.62 566.28 L -360.55 565.04 L -362.35 559.78 L -367.54 552.82 L -369.47 551.37 L -375.46 549.67 L -376.96 550.43 L -378.27 553.34 L -378.14 557.60 L -377.58 559.01 L -377.27 559.48 L -376.77 560.17 L -376.45 560.63 L -375.98 561.36 L -375.54 561.83 L -375.41 562.02 L -374.67 562.55 L -373.48 563.06 L -372.79 563.30 L -372.22 563.34 L -371.71 563.32 L -370.70 563.48 L -366.53 563.43 L -365.92 563.26 L -365.30 562.99 L -358.50 559.12 L -354.71 555.57 L -353.42 553.50 L -352.58 553.29 L -352.44 553.42 L -352.17 553.92 L -351.22 556.95 L -348.73 567.31 L -347.47 570.96 L -346.00 573.40 L -345.36 574.25 L -344.40 575.42 L -341.52 577.18 L -340.44 577.45 L -340.05 577.42 L -339.40 577.30 L -338.74 577.04 L -338.18 576.63 L -337.17 575.95 L -334.86 573.99 L -329.80 568.73 L -329.05 568.31 L -328.35 568.07 L -328.27 568.10 L -328.27 568.16 L -328.22 568.14" fill="none" stroke="rgb(0,0,255)" stroke-width="13.76" stroke-linecap="round" stroke-linejoin="round"/>
  <path d="M -275.33 559.84 L -275.36 559.85" fill="none" stroke="rgb(0,0,255)" stroke-width="9.00" stroke-linecap="round" stroke-linejoin="round"/>
  <path d="M -276.54 553.91 L -278.30 536.21 L -278.08 519.02 L -278.11 519.36 L -278.11 521.36 L -278.04 526.60 L -277.74 528.09 L -277.30 529.72 L -276.84 531.05 L -276.35 532.99 L -275.70 536.39 L -273.56 557.55 L -272.40 565.13 L -271.03 572.37 L -270.74 573.47 L -270.46 574.33 L -270.40 574.70 L -270.06 575.78 L -269.28 579.63 L -268.86 580.53 L -268.84 580.52 L -268.84 580.37 L -268.77 580.09 L -268.56 579.29 L -268.43 577.95 L -268.08 576.54 L -266.83 572.25 L -266.44 571.28" fill="none" stroke="rgb(0,0,255)" stroke-width="15.32" stroke-linecap="round" stroke-linejoin="round"/>
  <path d="M -285.51 559.14 L -281.51 559.51 L -273.14 559.55 L -271.59 559.77 L -270.20 560.16 L -267.97 560.98 L -266.45 561.78 L -265.81 561.90 L -265.32 561.91 L -264.66 562.05 L -264.18 561.90" fill="none" stroke="rgb(0,0,255)" stroke-width="11.80" stroke-linecap="round" stroke-linejoin="round"/>
  <path d="M -260.12 530.70 L -260.11 531.46 L -260.09 533.53 L -259.71 535.69 L -259.05 538.61 L -255.79 547.78 L -252.78 555.32 L -250.89 561.30 L -249.49 569.66 L -247.76 573.29 L -247.77 573.31 L -247.77 573.30 L -247.77 573.28 L -247.86 573.29 L -248.17 573.60 L -248.88 574.79 L -249.11 575.30 L -249.18 575.53 L -249.18 575.60 L -249.17 575.66 L -249.33 575.39 L -249.79 574.80 L -250.34 574.13 L -250.57 573.75 L -251.52 571.88 L -251.64 570.40 L -251.00 568.06 L -249.26 564.97 L -246.92 563.64 L -243.01 562.68 L -240.87 563.43 L -240.16 563.84 L -238.98 564.64 L -237.95 565.55 L -236.11 567.59 L -235.60 568.46 L -235.39 568.74 L -235.08 569.32 L -233.08 573.75 L -233.05 574.33 L -233.08 575.22 L -233.32 575.82 L -233.89 577.89 L -233.95 578.41 L -233.92 579.01 L -233.89 579.40 L -233.82 579.49 L -233.80 579.39 L -233.68 579.17 L -233.37 578.52 L -232.85 577.71" fill="none" stroke="rgb(0,0,255)" stroke-width="14.09" stroke-linecap="round" stroke-linejoin="round"/>
  <path d="M -222.85 569.70 L -222.86 569.71 L -222.68 569.80 L -221.61 570.09 L -220.97 570.15 L -215.84 570.25 L -214.04 569.69 L -211.82 567.85 L -209.87 562.65 L -209.75 560.63 L -211.36 558.04 L -215.06 556.78 L -216.55 556.79 L -218.22 558.13 L -220.12 560.77 L -221.17 564.16 L -221.15 565.26 L -221.05 566.42 L -220.84 567.59 L -220.47 568.76 L -218.82 573.28 L -217.68 575.29 L -215.41 578.14 L -214.16 578.97 L -208.62 581.83 L -208.22 581.89 L -207.41 581.90 L -205.66 581.68 L -200.68 579.16 L -199.57 578.17 L -198.00 575.61 L -197.73 574.56 L -197.73 574.46 L -197.75 574.31 L -197.77 574.07 L -197.86 573.96" fill="none" stroke="rgb(0,0,255)" stroke-width="12.31" stroke-linecap="round" stroke-linejoin="round"/>
  <path d="M -142.33 562.19 L -142.36 561.92 L -140.59 558.04 L -140.54 556.48 L -141.41 556.16 L -146.34 555.80 L -148.95 556.69 L -150.25 557.57 L -154.57 561.87 L -156.40 564.42 L -157.56 567.65 L -157.58 568.65 L -157.42 570.06 L -156.79 571.68 L -156.45 572.16 L -155.73 573.23 L -154.95 574.34 L -154.18 575.29 L -152.75 576.78 L -152.11 577.29 L -150.41 578.38 L -149.26 578.73 L -148.43 578.72 L -147.77 578.62 L -145.63 577.38 L -143.20 573.86 L -142.46 571.58 L -139.97 558.20 L -140.08 552.47 L -140.98 552.84 L -140.95 553.50 L -140.84 553.91 L -140.33 554.79 L -139.26 556.37 L -130.21 564.67 L -127.53 568.05 L -126.56 569.58 L -125.75 571.03 L -124.38 573.92 L -123.64 576.93 L -123.17 584.79 L -123.25 589.09 L -123.35 589.49 L -124.29 592.97 L -124.63 594.35 L -125.90 598.04 L -126.39 599.12 L -128.58 601.97 L -131.55 604.46 L -133.86 605.80 L -136.15 606.01 L -138.37 605.42 L -138.97 604.98 L -137.96 603.38 L -135.27 600.61 L -133.78 598.28" fill="none" stroke="rgb(0,0,255)" stroke-width="13.38" stroke-linecap="round" stroke-linejoin="round"/>
  <path d="M -112.12 575.16 L -112.37 574.63 L -112.15 568.96 L -112.43 567.19 L -113.50 563.22 L -114.78 560.54 L -114.62 560.05 L -111.63 558.39 L -104.18 556.01 L -101.30 556.11 L -101.33 556.14 L -101.60 556.25 L -102.24 556.94 L -103.82 559.32 L -104.60 561.00 L -104.63 562.08 L -104.59 562.38 L -104.40 563.40 L -104.25 564.21 L -104.11 565.05 L -103.97 565.54 L -101.63 571.75 L -99.35 574.09 L -98.29 574.84 L -93.99 577.36 L -93.19 577.69 L -92.40 577.78 L -91.80 577.75 L -90.68 577.59 L -89.34 576.89 L -87.24 575.25 L -84.75 572.64 L -83.63 570.66 L -81.86 566.02 L -81.78 565.00 L -83.74 562.91 L -85.97 561.91 L -87.80 561.82 L -89.24 563.23 L -89.92 564.73 L -90.30 566.14 L -90.26 566.78 L -90.17 567.38 L -90.05 567.93 L -88.55 569.99 L -87.95 570.42 L -87.20 571.15 L -87.02 571.19 L -86.66 571.37 L -86.11 571.56 L -85.85 571.59 L -83.97 571.41 L -83.34 571.41" fill="none" stroke="rgb(0,0,255)" stroke-width="12.55" stroke-linecap="round" stroke-linejoin="round"/>
  <path d="M -64.80 560.83 L -70.15 560.64 L -71.19 560.84 L -72.88 561.49 L -74.79 563.07 L -76.50 566.38 L -76.91 568.02 L -76.91 569.00 L -76.63 572.15 L -76.43 572.67 L -76.29 572.86 L -75.98 573.46 L -75.34 574.32 L -74.82 574.59 L -74.20 574.84 L -73.62 575.00 L -72.55 575.39 L -71.63 575.44 L -69.86 575.30 L -67.78 574.13 L -64.80 565.80 L -64.99 566.18 L -64.94 566.33 L -64.72 566.79 L -62.81 569.29 L -59.26 572.86 L -58.59 573.84 L -58.16 574.34 L -57.51 575.44 L -57.32 575.57 L -57.16 575.61 L -56.82 575.77 L -56.36 575.82 L -55.82 575.71 L -55.37 575.56 L -54.48 574.91 L -53.46 572.78 L -52.47 569.67 L -52.31 568.93" fill="none" stroke="rgb(0,0,255)" stroke-width="13.90" stroke-linecap="round" stroke-linejoin="round"/>
  <path d="M -54.96 520.15 L -55.15 523.91 L -53.89 532.36 L -50.39 545.06 L -48.97 550.95 L -44.65 566.75 L -44.06 568.33 L -42.48 571.19 L -39.69 575.22 L -39.67 575.22 L -39.74 575.04 L -39.79 574.06 L -39.93 573.69" fill="none" stroke="rgb(0,0,255)" stroke-width="13.10" stroke-linecap="round" stroke-linejoin="round"/>
  <path d="M -57.92 561.05 L -57.76 561.09 L -56.60 561.12 L -52.90 560.58 L -43.96 558.35 L -39.38 556.01 L -36.10 554.85" fill="none" stroke="rgb(0,0,255)" stroke-width="9.64" stroke-linecap="round" stroke-linejoin="round"/>
  <path d="M 11.68 561.31 L 11.94 562.15 L 13.52 566.12 L 15.70 571.06 L 18.61 578.99 L 21.94 591.98 L 23.22 599.41 L 23.57 600.34 L 24.23 600.94 L 24.35 600.59 L 24.25 598.63 L 21.68 587.42 L 16.40 567.37 L 16.52 562.84 L 17.20 557.88 L 17.87 556.12 L 18.91 554.88 L 20.11 554.85 L 21.09 555.21 L 24.95 557.92 L 26.82 559.54 L 30.02 563.32 L 31.77 567.36 L 31.48 567.89 L 30.22 569.69 L 28.95 571.10 L 28.87 571.60 L 30.52 571.95 L 33.39 571.79 L 42.58 567.75 L 44.00 567.57 L 45.21 567.01 L 45.83 566.29 L 48.14 561.14 L 48.20 560.52 L 47.65 560.38 L 45.83 560.49 L 43.16 561.23 L 40.64 561.19 L 38.88 562.01 L 37.40 564.63 L 37.37 565.15 L 37.47 566.04 L 37.78 566.61 L 38.17 567.19 L 38.83 567.84 L 39.59 568.33 L 40.35 568.74 L 40.97 569.18 L 43.70 570.40 L 44.20 570.47 L 44.57 570.45 L 47.41 570.11 L 49.46 570.21 L 51.63 569.02 L 54.52 565.74 L 56.83 564.94 L 54.63 567.90 L 54.39 569.35 L 54.61 570.61 L 56.73 574.65 L 60.24 577.11 L 61.84 576.86 L 64.26 575.10 L 65.60 572.61 L 67.58 567.67 L 67.58 565.09 L 66.50 563.18 L 65.64 562.43 L 61.32 560.98 L 58.53 561.04 L 56.69 562.24 L 55.38 563.76 L 54.41 565.98 L 54.40 566.50 L 54.51 567.12 L 55.32 567.58 L 58.52 567.80 L 60.37 567.11 L 63.49 565.10 L 64.57 565.02 L 65.08 565.19 L 66.04 565.76 L 66.49 566.10 L 66.69 566.36 L 67.03 566.95 L 67.35 567.43 L 70.96 571.29 L 72.52 574.15 L 73.61 577.30 L 75.88 593.05 L 76.79 597.60 L 76.84 599.31 L 76.79 599.78 L 76.63 600.53 L 76.48 600.29 L 76.35 599.99 L 74.88 597.74 L 73.56 595.08 L 72.54 591.76 L 71.79 586.74 L 72.33 580.20 L 74.88 572.50 L 75.79 570.56 L 78.26 567.89 L 81.14 567.22 L 81.50 567.33 L 81.62 567.61 L 81.71 567.85 L 82.07 568.80 L 82.29 569.24 L 82.30 570.56 L 82.18 571.73 L 81.79 572.52 L 81.06 573.65 L 80.49 575.00 L 80.41 575.43 L 80.44 575.51 L 80.52 575.46 L 80.54 575.40 L 81.16 574.99 L 82.59 574.11 L 86.69 571.89 L 88.32 570.25 L 90.69 566.31 L 93.15 559.66 L 93.76 556.84 L 95.15 547.07 L 94.84 538.81 L 93.69 536.29 L 92.76 535.24 L 91.61 534.88 L 90.03 535.06 L 88.24 536.09 L 87.10 537.27 L 85.72 539.48 L 84.32 542.93 L 83.80 545.27 L 83.13 549.88 L 83.45 558.38 L 83.71 560.06 L 84.21 562.25 L 85.10 564.84 L 85.63 565.28 L 86.54 565.73 L 86.84 565.94 L 88.99 567.48 L 91.79 570.58 L 92.91 571.37 L 93.83 571.79 L 95.02 572.06 L 98.07 571.80 L 101.17 570.19 L 105.18 565.95 L 108.29 563.70 L 108.95 561.87 L 108.31 561.09 L 106.12 560.31 L 104.66 560.34 L 103.57 561.24 L 101.89 565.14 L 101.84 565.38 L 101.86 565.72 L 102.07 566.03 L 103.21 567.06 L 106.43 568.66 L 107.37 568.99 L 113.15 568.92" fill="none" stroke="rgb(0,0,255)" stroke-width="12.00" stroke-linecap="round" stroke-linejoin="round"/>
  <path d="M 167.54 532.54 L 167.62 532.76 L 167.93 534.39 L 168.20 535.31 L 168.51 536.30 L 170.91 543.27 L 174.39 551.62 L 175.08 553.58 L 177.62 561.18 L 178.61 563.87 L 179.62 566.98 L 180.30 568.19 L 180.43 568.31 L 180.50 568.32 L 180.51 568.29 L 180.69 568.35 L 181.15 568.88" fill="none" stroke="rgb(0,0,255)" stroke-width="15.22" stroke-linecap="round" stroke-linejoin="round"/>
  <path d="M 155.04 537.77 L 155.15 537.86 L 154.90 536.01 L 155.54 533.79 L 156.71 532.59 L 158.14 532.16 L 163.39 531.80 L 168.67 533.11 L 173.34 533.62 L 177.10 533.44 L 179.75 533.09 L 180.55 533.02 L 180.96 533.02 L 181.39 532.81" fill="none" stroke="rgb(0,0,255)" stroke-width="9.70" stroke-linecap="round" stroke-linejoin="round"/>
  <path d="M 167.19 587.23 L 167.77 586.79 L 171.72 584.86 L 174.62 583.96 L 179.15 582.94 L 183.97 580.67" fill="none" stroke="rgb(0,0,255)" stroke-width="9.00" stroke-linecap="round" stroke-linejoin="round"/>
  <path d="M 195.08 533.90 L 194.95 533.66 L 194.79 533.15 L 193.50 528.25 L 192.76 518.74" fill="none" stroke="rgb(0,0,255)" stroke-width="9.30" stroke-linecap="round" stroke-linejoin="round"/>
  <path d="M 206.29 578.81 L 206.12 578.07 L 206.07 577.38 L 205.96 573.95 L 206.16 565.77 L 206.96 562.02 L 208.29 557.88 L 209.81 557.22 L 210.61 557.15 L 211.25 557.33 L 212.24 557.79 L 213.22 558.41 L 213.86 559.02 L 214.46 559.67 L 217.85 565.90 L 220.48 570.10 L 222.03 575.34 L 222.45 576.24 L 223.06 577.11 L 223.13 577.13 L 223.16 577.11 L 223.17 577.06 L 223.16 576.90 L 223.12 576.28 L 222.99 574.72 L 222.92 573.22 L 222.52 570.21 L 222.54 566.85 L 224.27 560.43 L 224.99 558.69 L 226.17 557.06 L 229.69 556.75 L 230.42 557.03 L 231.06 557.34 L 231.46 557.59 L 232.29 558.36 L 232.87 559.29 L 235.55 567.16 L 235.65 568.02 L 235.66 568.88 L 235.62 569.74 L 235.56 570.59 L 235.36 572.48 L 235.33 575.20 L 235.34 575.20 L 235.33 575.18 L 235.32 575.12 L 235.32 574.89 L 234.89 574.46 L 234.24 573.26 L 234.08 570.86 L 238.06 563.31 L 239.31 562.41 L 241.67 561.94 L 247.26 559.31 L 248.59 559.41 L 248.67 559.53 L 249.03 559.79 L 249.34 560.22 L 252.58 566.51 L 253.18 568.47 L 253.14 569.73" fill="none" stroke="rgb(0,0,255)" stroke-width="13.17" stroke-linecap="round" stroke-linejoin="round"/>
  <path d="M 319.59 565.36 L 319.49 565.34 L 318.64 563.66 L 316.99 561.54 L 315.60 560.13 L 314.29 559.33 L 308.11 558.24 L 305.96 559.36 L 302.83 563.48 L 301.87 565.85 L 302.56 572.11 L 302.70 572.47 L 303.14 573.42 L 303.79 575.47 L 304.65 577.08 L 305.38 578.11 L 305.88 578.64 L 306.47 579.19 L 307.16 579.57 L 308.32 579.89 L 309.20 579.82 L 310.10 579.66 L 310.59 579.38 L 311.04 579.21 L 311.73 578.82 L 312.08 578.33 L 313.03 576.38 L 317.91 562.13 L 318.00 560.03 L 317.71 558.54 L 316.52 561.30 L 316.43 564.91 L 318.59 570.11 L 319.48 571.56 L 320.00 572.22 L 320.89 572.98 L 321.11 573.21 L 321.66 573.64 L 322.78 574.79 L 323.14 575.00 L 324.08 575.19 L 324.43 575.12 L 325.19 574.88 L 325.62 574.55 L 325.92 573.65" fill="none" stroke="rgb(0,0,255)" stroke-width="12.07" stroke-linecap="round" stroke-linejoin="round"/>
  <path d="M 325.56 526.33 L 325.57 526.40 L 325.58 526.57 L 325.37 527.32 L 325.25 529.33 L 326.06 534.37 L 330.60 549.63 L 332.66 559.84 L 333.28 565.19 L 334.61 571.27 L 336.03 574.15 L 337.02 575.63 L 338.01 576.81 L 339.17 578.66 L 339.34 578.87 L 339.25 578.72 L 339.19 578.55" fill="none" stroke="rgb(0,0,255)" stroke-width="10.90" stroke-linecap="round" stroke-linejoin="round"/>
  <path d="M 325.08 568.26 L 325.11 568.27 L 325.13 568.29 L 325.33 568.30 L 325.84 568.21 L 327.89 567.75 L 330.74 567.07 L 335.22 565.59 L 335.58 565.57 L 336.28 565.58 L 337.00 565.65 L 338.12 565.79 L 338.44 565.84 L 338.97 566.11 L 339.89 566.40 L 339.98 566.50 L 340.31 566.64 L 340.57 566.69 L 340.99 566.67 L 341.16 566.65 L 341.62 566.58 L 341.78 566.47" fill="none" stroke="rgb(0,0,255)" stroke-width="17.69" stroke-linecap="round" stroke-linejoin="round"/>
  <path d="M 342.84 534.08 L 342.93 534.66 L 345.21 543.74 L 346.71 549.43 L 349.65 562.03 L 352.44 568.69 L 354.62 574.97 L 355.78 577.53 L 356.96 579.47" fill="none" stroke="rgb(0,0,255)" stroke-width="11.67" stroke-linecap="round" stroke-linejoin="round"/>
  <path d="M 344.37 571.38 L 344.39 571.38 L 344.40 571.40 L 344.60 571.40 L 345.77 571.16 L 350.96 569.28 L 355.47 567.79 L 359.07 565.95 L 359.53 565.85 L 359.96 565.86 L 360.21 565.91 L 360.58 566.02 L 360.83 566.18" fill="none" stroke="rgb(0,0,255)" stroke-width="14.02" stroke-linecap="round" stroke-linejoin="round"/>
  <path d="M 367.70 580.15 L 367.64 580.02 L 368.73 576.80 L 369.62 574.50 L 369.78 573.13 L 369.40 572.18 L 367.81 570.69 L 367.27 569.71 L 366.91 568.62 L 367.34 567.47 L 367.51 567.29 L 367.82 567.17 L 369.47 566.50 L 370.54 566.04 L 373.12 564.79 L 377.58 563.07 L 380.28 561.74 L 380.40 561.77 L 380.34 561.89 L 380.36 562.18 L 380.47 562.94 L 380.40 564.89 L 378.96 569.45 L 378.64 572.65 L 378.98 579.17 L 379.33 580.80 L 380.88 583.15 L 381.05 583.31 L 381.25 583.45 L 381.71 583.63 L 381.98 583.64 L 383.82 583.42 L 384.78 582.98 L 385.40 582.63 L 385.63 582.44 L 386.98 581.59 L 387.16 580.90" fill="none" stroke="rgb(0,0,255)" stroke-width="12.00" stroke-linecap="round" stroke-linejoin="round"/>
  <path d="M 403.96 567.26 L 399.19 566.36 L 396.25 566.41 L 393.13 567.66 L 389.40 570.51 L 388.37 571.88 L 386.80 575.47 L 387.29 578.80 L 388.02 580.29 L 389.12 581.59 L 390.99 582.96 L 391.61 583.16 L 392.22 583.15 L 392.80 583.05 L 393.70 582.84 L 396.97 580.85 L 397.79 580.07 L 398.89 578.90 L 399.26 578.30 L 401.09 573.23 L 401.38 576.43 L 403.90 582.85 L 405.63 585.66 L 406.14 586.07 L 406.73 586.34 L 407.35 586.56 L 407.99 586.57 L 409.27 586.39 L 415.24 583.92 L 416.07 583.20 L 416.57 582.65 L 417.05 582.07 L 417.34 581.48 L 417.55 580.89 L 418.13 578.77" fill="none" stroke="rgb(0,0,255)" stroke-width="12.06" stroke-linecap="round" stroke-linejoin="round"/>
  <path d="M 426.89 566.90 L 426.72 567.04 L 424.00 568.95 L 421.21 571.55 L 419.34 573.91 L 417.91 576.61 L 417.50 578.58 L 417.80 581.88 L 419.84 587.25 L 421.19 588.84 L 422.75 590.23 L 423.81 591.00 L 424.63 591.42 L 425.53 591.63 L 427.83 591.45 L 431.38 589.85 L 432.23 589.27 L 433.50 588.32 L 436.45 585.20 L 438.45 582.11 L 439.31 579.36" fill="none" stroke="rgb(0,0,255)" stroke-width="11.89" stroke-linecap="round" stroke-linejoin="round"/>
  <path d="M 440.36 533.11 L 440.36 533.17 L 440.35 533.40 L 442.35 538.70 L 443.06 540.87 L 448.03 567.62 L 451.30 574.42 L 453.40 578.07 L 453.74 578.50 L 453.97 578.91 L 453.97 578.91 L 454.19 579.35 L 454.30 579.51" fill="none" stroke="rgb(0,0,255)" stroke-width="10.21" stroke-linecap="round" stroke-linejoin="round"/>
  <path d="M 434.79 570.19 L 435.63 570.49 L 437.06 571.12 L 438.55 571.57 L 440.02 571.76 L 442.15 571.85 L 443.95 571.82 L 445.07 571.72 L 445.78 571.44 L 446.43 571.27 L 448.15 570.14 L 448.65 570.09 L 449.15 570.10 L 449.69 570.03 L 451.38 570.23" fill="none" stroke="rgb(0,0,255)" stroke-width="13.60" stroke-linecap="round" stroke-linejoin="round"/>
  <path d="M 462.60 567.56 L 462.52 567.60 L 462.69 567.79 L 463.77 568.72 L 467.20 572.66 L 468.94 574.94 L 470.06 577.89" fill="none" stroke="rgb(0,0,255)" stroke-width="9.96" stroke-linecap="round" stroke-linejoin="round"/>
  <path d="M 463.65 552.77 L 463.67 552.92" fill="none" stroke="rgb(0,0,255)" stroke-width="10.50" stroke-linecap="round" stroke-linejoin="round"/>
  <path d="M 480.06 570.80 L 483.45 577.80 L 485.28 580.85 L 486.47 584.63 L 487.17 589.00 L 484.77 584.35 L 484.27 579.77 L 484.54 569.45 L 485.24 567.56 L 485.76 566.78 L 487.35 564.68 L 487.75 564.56 L 488.12 564.50 L 488.30 564.41 L 488.47 564.40 L 489.08 564.19 L 490.94 564.18 L 491.76 564.51 L 492.35 564.82 L 494.17 565.86 L 494.40 565.94 L 494.87 566.34 L 496.77 570.55 L 498.72 576.89 L 498.59 582.10 L 498.89 582.18 L 499.23 581.37" fill="none" stroke="rgb(0,0,255)" stroke-width="12.22" stroke-linecap="round" stroke-linejoin="round"/>
  <path d="M 516.80 570.51 L 516.70 570.56 L 515.02 568.84 L 513.29 568.25 L 511.01 568.38 L 508.36 569.73 L 505.95 572.29 L 505.06 574.46 L 505.18 577.21 L 506.08 579.57 L 507.33 581.99 L 508.24 582.90 L 508.71 582.99 L 509.05 582.94 L 509.24 582.90 L 509.98 582.72 L 510.57 582.62 L 510.99 582.39 L 511.66 582.09 L 512.15 581.98 L 512.39 581.77 L 512.91 581.16 L 513.47 579.97 L 513.53 579.00 L 513.59 578.68 L 513.56 577.99 L 513.49 577.26 L 513.14 576.07 L 512.85 574.15 L 512.86 572.94 L 512.97 571.60 L 512.76 570.02 L 512.84 569.82 L 512.94 568.99 L 513.00 567.46 L 513.04 567.48 L 513.39 567.54 L 513.75 567.75 L 516.61 569.83 L 521.30 574.72 L 526.42 583.99 L 528.99 591.70 L 530.53 602.21 L 530.10 604.45 L 528.86 607.09 L 526.93 608.99 L 525.11 610.24 L 521.81 610.96 L 518.29 610.58 L 513.91 609.46 L 512.95 608.92 L 512.94 608.83 L 512.99 608.76 L 512.99 608.65 L 513.24 608.27" fill="none" stroke="rgb(0,0,255)" stroke-width="12.31" stroke-linecap="round" stroke-linejoin="round"/>
  <path d="M -289.78 858.47 L -290.54 858.49 L -292.89 858.50 L -307.70 858.36 L -324.80 857.96 L -336.24 857.08 L -339.89 856.28 L -336.53 855.25 L -329.45 854.41 L -298.97 852.63 L -257.38 851.23 L -222.75 850.50 L -168.63 849.55 L -140.76 849.39 L -96.20 849.68 L -74.39 851.76 L -74.14 851.73 L -74.61 851.16 L -77.09 849.84" fill="none" stroke="rgb(0,0,0)" stroke-width="10.97" stroke-linecap="round" stroke-linejoin="round"/>
  <path d="M 10.85 844.69 L 10.78 844.77 L 10.67 844.91 L 10.59 845.08 L 9.15 848.55 L 5.20 853.98 L 1.79 856.86 L -3.52 860.01 L -5.78 862.20 L -8.56 863.53" fill="none" stroke="rgb(0,0,0)" stroke-width="11.18" stroke-linecap="round" stroke-linejoin="round"/>
  <path d="M -7.05 851.84 L -7.05 853.71 L -6.20 857.84 L -5.11 861.43 L -3.57 864.98 L -3.23 867.00" fill="none" stroke="rgb(0,0,0)" stroke-width="9.00" stroke-linecap="round" stroke-linejoin="round"/>
  <path d="M 4.38 850.89 L 4.15 853.99 L 0.85 861.37 L -0.16 864.57 L 0.36 869.93 L 0.25 872.50" fill="none" stroke="rgb(0,0,0)" stroke-width="9.00" stroke-linecap="round" stroke-linejoin="round"/>
  <path d="M -10.78 863.39 L -10.42 863.88 L -7.82 864.20 L 2.69 864.22 L 9.34 863.74 L 18.63 862.54" fill="none" stroke="rgb(0,0,0)" stroke-width="9.00" stroke-linecap="round" stroke-linejoin="round"/>
  <path d="M 75.74 876.14 L 87.44 874.32 L 106.70 872.27 L 147.26 868.87 L 171.00 867.22 L 192.18 866.12 L 203.17 865.80 L 267.85 864.93 L 316.11 863.83 L 332.54 863.70 L 362.13 863.97 L 393.68 865.63" fill="none" stroke="rgb(0,0,0)" stroke-width="9.00" stroke-linecap="round" stroke-linejoin="round"/>
  <path d="M -555.11 951.97 L -554.90 952.11 L -555.33 952.92 L -557.57 955.69 L -560.86 961.68 L -561.91 964.10 L -563.17 968.45 L -563.47 971.22 L -563.04 976.00 L -560.62 985.45 L -559.31 988.15 L -557.71 990.17 L -557.29 990.46 L -554.93 991.83 L -554.27 992.29 L -553.15 992.69 L -551.65 992.65 L -549.71 991.72 L -547.79 989.77 L -546.40 987.19 L -544.86 983.27 L -542.97 972.74 L -542.88 969.56 L -543.06 967.14 L -544.14 962.37 L -545.62 959.98 L -547.56 958.69 L -552.00 957.67 L -553.25 957.59 L -554.51 958.07 L -555.68 958.93 L -557.09 960.78 L -557.91 962.18 L -559.15 964.91 L -560.49 969.36" fill="none" stroke="rgb(0,0,0)" stroke-width="11.31" stroke-linecap="round" stroke-linejoin="round"/>
  <path d="M -534.72 970.72 L -534.43 970.80 L -533.99 970.24 L -530.71 961.75 L -528.50 960.03 L -525.67 959.07 L -524.22 959.05 L -517.92 962.20 L -517.72 962.35 L -517.53 962.72 L -517.22 963.52 L -517.04 963.88 L -516.87 964.70 L -516.64 965.36 L -516.57 966.20 L -516.56 967.27 L -516.65 967.60 L -517.08 968.72 L -517.84 969.99 L -518.73 970.82 L -521.08 972.61 L -527.00 979.05 L -530.53 982.10 L -531.50 982.53 L -530.74 981.21 L -529.59 980.31 L -525.65 978.68 L -524.82 978.68 L -522.85 979.28 L -520.19 980.90 L -518.17 982.90 L -517.56 983.81 L -517.11 984.71 L -515.95 987.51 L -515.89 988.22 L -515.91 989.10 L -516.01 989.39 L -516.50 990.41 L -516.90 991.06 L -517.30 991.65 L -517.49 992.01 L -518.56 993.64 L -519.07 994.19 L -519.94 995.01 L -520.24 995.36 L -520.71 995.61 L -521.23 995.82 L -522.37 995.93 L -523.68 995.61" fill="none" stroke="rgb(0,0,0)" stroke-width="13.59" stroke-linecap="round" stroke-linejoin="round"/>
  <path d="M -501.38 1007.25 L -501.52 1007.34 L -501.30 1006.19 L -496.33 990.17 L -493.53 975.89 L -487.43 953.56 L -485.52 944.46 L -484.55 942.37 L -484.33 942.19 L -484.30 942.21 L -484.30 942.26 L -484.29 942.38 L -484.22 942.57" fill="none" stroke="rgb(0,0,0)" stroke-width="10.44" stroke-linecap="round" stroke-linejoin="round"/>
  <path d="M -469.09 974.75 L -470.11 974.29 L -469.53 971.64 L -467.88 967.93 L -465.62 965.87 L -462.73 965.51 L -460.91 964.79 L -459.41 964.84 L -459.02 965.12 L -458.90 965.40 L -458.77 965.77 L -458.39 966.83 L -457.99 967.92 L -457.41 969.27 L -457.34 969.58 L -457.28 970.24 L -457.29 971.06 L -457.76 972.49 L -460.76 978.43 L -466.10 986.91 L -467.21 988.30 L -468.76 989.81 L -469.01 990.45 L -469.03 989.32 L -467.84 986.64 L -466.61 984.89 L -462.73 983.80 L -461.29 983.81 L -458.35 985.75 L -457.92 986.57 L -456.67 989.63 L -455.20 992.36 L -455.09 992.90 L -455.07 993.43 L -455.33 996.26 L -455.88 997.64 L -457.12 999.68 L -457.93 1000.49 L -458.15 1000.76 L -459.04 1001.57 L -460.05 1002.67 L -461.38 1003.69 L -462.31 1004.18 L -462.95 1004.97 L -463.28 1005.45 L -463.40 1005.69 L -464.03 1006.10 L -464.22 1006.15 L -464.61 1005.38" fill="none" stroke="rgb(0,0,0)" stroke-width="12.66" stroke-linecap="round" stroke-linejoin="round"/>
  <path d="M -440.39 973.04 L -440.10 973.36 L -440.31 973.87 L -444.91 982.75 L -445.82 986.50 L -445.30 992.57 L -441.87 999.77 L -441.20 1000.56 L -440.44 1000.78 L -438.86 1000.57 L -436.41 999.21 L -432.61 995.11 L -429.93 990.66 L -428.10 982.11 L -428.32 979.91 L -429.26 978.36 L -431.36 977.58 L -432.67 977.63 L -436.16 979.56 L -438.00 981.47 L -440.19 984.64" fill="none" stroke="rgb(0,0,0)" stroke-width="10.96" stroke-linecap="round" stroke-linejoin="round"/>
  <path d="M -534.28 1106.97 L -534.80 1107.26 L -536.52 1106.85 L -538.61 1106.73 L -542.16 1106.67 L -543.58 1106.86 L -545.19 1107.15 L -546.06 1107.24 L -549.47 1107.90 L -553.51 1108.49 L -556.74 1109.05 L -564.30 1110.03 L -568.35 1110.80 L -570.41 1110.89 L -571.57 1111.06 L -572.53 1111.31 L -573.06 1111.31 L -573.08 1111.28 L -573.00 1111.27 L -572.76 1111.25 L -571.40 1111.19 L -570.05 1111.16 L -564.13 1110.50 L -548.77 1109.83 L -516.93 1107.82 L -504.59 1106.67 L -492.77 1104.75 L -490.96 1104.76 L -490.93 1104.77 L -490.97 1104.78 L -491.02 1104.80 L -491.07 1104.81" fill="none" stroke="rgb(0,0,0)" stroke-width="14.88" stroke-linecap="round" stroke-linejoin="round"/>
  <path d="M -497.52 1095.75 L -497.35 1095.98 L -497.15 1096.21 L -497.05 1096.34 L -497.01 1096.38 L -497.00 1096.39 L -497.01 1096.37 L -496.88 1096.42 L -496.03 1096.91 L -494.21 1097.80 L -493.00 1098.47 L -489.57 1100.85 L -484.48 1103.01 L -484.55 1103.03 L -484.55 1103.35 L -484.40 1104.38 L -484.48 1104.59 L -484.73 1104.78 L -485.10 1105.06 L -485.47 1105.36 L -485.93 1105.67 L -486.44 1105.91 L -487.51 1106.51 L -488.54 1106.94 L -489.54 1107.28 L -490.36 1107.56 L -492.07 1108.02 L -494.59 1108.40 L -495.20 1108.58 L -495.97 1108.62 L -496.45 1108.79 L -496.70 1108.82 L -497.18 1109.04 L -498.00 1109.32" fill="none" stroke="rgb(0,0,0)" stroke-width="18.46" stroke-linecap="round" stroke-linejoin="round"/>
  <path d="M -441.29 1123.52 L -441.39 1123.73 L -441.56 1124.02 L -441.84 1123.42 L -443.18 1117.92 L -445.77 1096.84 L -447.52 1089.24 L -450.46 1081.85 L -456.06 1072.06 L -456.97 1069.30 L -451.75 1068.41 L -440.89 1069.60 L -426.38 1069.24 L -422.24 1069.99 L -422.30 1070.13" fill="none" stroke="rgb(0,0,0)" stroke-width="10.40" stroke-linecap="round" stroke-linejoin="round"/>
  <path d="M -456.41 1103.33 L -456.37 1103.42 L -455.99 1103.48 L -451.93 1103.59 L -441.34 1103.45 L -437.17 1103.11 L -434.50 1102.51 L -430.88 1102.26 L -429.87 1101.98 L -428.92 1101.80 L -428.17 1101.72" fill="none" stroke="rgb(0,0,0)" stroke-width="9.68" stroke-linecap="round" stroke-linejoin="round"/>
  <path d="M -419.72 1107.35 L -419.91 1107.60 L -420.10 1109.00 L -420.98 1114.00 L -421.15 1117.53 L -421.03 1120.52 L -420.34 1121.91 L -418.07 1124.45 L -415.67 1126.46 L -414.76 1126.88 L -413.81 1127.23 L -412.13 1127.36 L -409.29 1126.99 L -406.46 1125.49 L -405.42 1124.39 L -404.07 1122.53 L -403.55 1121.14 L -402.35 1115.69 L -402.29 1113.91 L -402.46 1111.61 L -403.54 1108.29 L -406.48 1104.87 L -408.33 1103.34 L -409.45 1102.84 L -410.99 1102.48 L -413.99 1102.70 L -416.42 1103.82 L -418.65 1106.69 L -418.95 1107.30 L -419.28 1108.16 L -419.28 1108.71 L -419.20 1109.24 L -419.14 1109.50 L -418.96 1110.27 L -418.57 1111.49 L -418.10 1112.42 L -417.43 1113.56 L -417.11 1113.93 L -416.87 1114.07 L -416.60 1114.20 L -416.32 1114.31 L -415.72 1114.52 L -415.34 1114.61 L -413.99 1114.77 L -411.81 1114.64 L -406.37 1112.23 L -403.36 1111.82 L -397.35 1108.95 L -390.95 1106.76 L -389.67 1106.70 L -389.49 1106.73 L -389.36 1106.84 L -388.96 1107.15 L -388.79 1107.25 L -388.43 1107.67 L -388.24 1107.84 L -387.97 1108.37 L -387.84 1108.67 L -387.71 1108.99 L -387.31 1109.99 L -387.03 1110.65 L -386.44 1111.91 L -385.20 1115.27 L -384.21 1119.84 L -383.95 1119.96 L -383.71 1119.94 L -383.13 1119.86 L -382.11 1119.68 L -380.34 1119.08 L -377.80 1117.93" fill="none" stroke="rgb(0,0,0)" stroke-width="14.08" stroke-linecap="round" stroke-linejoin="round"/>
  <path d="M -333.88 1094.84 L -334.51 1092.84 L -335.08 1090.75 L -336.31 1083.91 L -336.42 1077.51 L -335.77 1070.49 L -335.72 1070.73 L -335.04 1071.74 L -334.40 1072.83 L -333.33 1075.14 L -331.90 1079.60 L -330.27 1085.95 L -328.27 1095.90 L -325.49 1129.99 L -325.49 1132.11 L -325.53 1132.65 L -325.57 1132.90 L -325.65 1133.23 L -325.71 1133.09 L -325.97 1132.90 L -327.03 1132.23 L -328.93 1130.45 L -330.34 1128.39 L -332.41 1123.18 L -332.74 1121.59 L -332.88 1119.00 L -332.51 1115.13 L -331.25 1110.70 L -330.62 1109.56 L -328.92 1107.57 L -326.93 1106.29 L -325.39 1105.80 L -321.18 1105.55 L -317.29 1106.92 L -316.93 1107.24 L -316.64 1107.56 L -315.59 1108.57 L -315.25 1108.97 L -314.48 1110.30 L -314.33 1110.76 L -313.50 1119.25 L -313.73 1120.74 L -314.24 1123.11 L -314.44 1123.90 L -315.58 1127.48 L -316.63 1129.66 L -317.17 1130.42 L -318.02 1131.29 L -318.32 1131.53 L -320.64 1133.09 L -322.04 1133.65 L -323.16 1133.59 L -324.23 1133.44 L -324.33 1133.41 L -324.43 1133.37" fill="none" stroke="rgb(0,0,0)" stroke-width="14.00" stroke-linecap="round" stroke-linejoin="round"/>
  <path d="M -307.02 1126.31 L -306.87 1126.21 L -303.57 1125.74 L -300.41 1124.91 L -298.65 1123.81 L -297.56 1122.55 L -295.89 1118.86 L -293.58 1109.39 L -293.59 1108.31 L -294.72 1107.42 L -297.69 1107.31 L -299.82 1108.12 L -301.37 1109.36 L -301.96 1110.10 L -302.50 1111.01 L -303.50 1113.22 L -303.79 1114.54 L -303.76 1116.92 L -303.44 1119.29 L -302.53 1122.32 L -301.47 1124.28 L -299.29 1127.42 L -297.94 1128.85 L -296.70 1129.49 L -296.03 1129.87 L -294.45 1130.65 L -292.77 1131.60 L -290.19 1132.46 L -285.45 1132.22 L -283.97 1131.71 L -282.00 1130.49 L -279.85 1124.18 L -279.87 1119.19 L -279.79 1119.23 L -279.80 1119.27 L -279.75 1119.39 L -279.73 1119.51 L -279.38 1120.66 L -278.29 1123.87 L -276.44 1128.85 L -275.36 1130.63 L -275.09 1130.86 L -274.95 1130.87 L -274.61 1130.96 L -274.27 1130.89 L -272.33 1129.03 L -270.01 1122.51 L -268.19 1119.55 L -264.92 1118.56 L -260.91 1116.17 L -259.75 1115.91 L -259.10 1116.33 L -258.16 1117.65 L -257.81 1118.57 L -257.49 1119.60 L -257.05 1121.49 L -255.80 1128.70 L -255.56 1131.81 L -255.81 1134.24 L -255.80 1134.21 L -255.83 1133.96 L -255.83 1133.66 L -255.83 1132.08 L -255.36 1130.08 L -252.32 1122.35 L -249.72 1118.80 L -248.61 1118.28 L -247.35 1118.21 L -246.28 1118.45 L -245.63 1119.02 L -245.08 1119.65 L -244.56 1120.70 L -243.55 1122.16 L -242.25 1124.70 L -241.30 1127.28 L -239.37 1131.55 L -238.12 1133.87 L -238.08 1134.47" fill="none" stroke="rgb(0,0,0)" stroke-width="13.11" stroke-linecap="round" stroke-linejoin="round"/>
  <path d="M -273.99 1105.75 L -273.79 1105.98" fill="none" stroke="rgb(0,0,0)" stroke-width="9.38" stroke-linecap="round" stroke-linejoin="round"/>
  <path d="M -230.80 1119.81 L -230.74 1119.94 L -234.11 1122.51 L -235.91 1124.54 L -237.48 1127.39 L -238.57 1130.91 L -238.85 1133.50 L -238.28 1137.62 L -236.16 1142.44 L -235.18 1143.27 L -234.53 1143.61 L -233.59 1144.04 L -233.00 1144.17 L -231.89 1143.92 L -230.36 1142.69 L -228.99 1140.80 L -227.42 1134.70 L -225.19 1128.86 L -223.34 1125.45 L -221.11 1123.37 L -218.67 1123.04 L -217.74 1123.22 L -216.37 1123.98 L -215.43 1124.85 L -214.08 1126.40 L -213.01 1127.84 L -210.64 1131.38 L -209.61 1133.25 L -207.55 1138.51 L -206.02 1143.41 L -205.23 1152.53 L -205.39 1153.88 L -205.93 1155.79 L -206.89 1157.88 L -209.48 1162.73 L -211.29 1165.08 L -212.21 1165.99 L -214.47 1167.22 L -217.89 1167.98 L -220.38 1167.81 L -223.00 1167.20 L -227.21 1165.69 L -230.46 1164.17 L -232.49 1162.91" fill="none" stroke="rgb(0,0,0)" stroke-width="12.84" stroke-linecap="round" stroke-linejoin="round"/>
  <path d="M -148.71 1118.58 L -148.92 1118.54 L -151.82 1114.32 L -153.29 1113.05 L -155.08 1112.48 L -156.66 1112.39 L -159.66 1113.79 L -162.69 1117.29 L -163.51 1119.05 L -164.77 1122.11 L -165.81 1125.04 L -166.30 1127.27 L -166.36 1128.72 L -165.85 1132.22 L -165.00 1133.62 L -164.79 1133.84 L -164.01 1134.56 L -163.68 1134.91 L -163.37 1135.12 L -161.79 1135.16 L -160.64 1134.56 L -158.93 1133.20 L -154.04 1126.64 L -152.49 1125.61 L -151.43 1123.40 L -150.82 1124.05 L -150.29 1125.11 L -149.74 1126.09 L -149.30 1127.17 L -147.87 1129.82 L -146.17 1132.20 L -145.69 1132.65 L -144.88 1133.27 L -144.49 1133.39 L -143.99 1133.43 L -143.35 1133.30 L -143.26 1133.34 L -142.56 1133.28 L -142.01 1133.28" fill="none" stroke="rgb(0,0,0)" stroke-width="12.38" stroke-linecap="round" stroke-linejoin="round"/>
  <path d="M -141.48 1084.44 L -141.42 1083.88 L -141.39 1077.21 L -141.02 1077.79 L -139.75 1080.28 L -139.02 1082.10 L -137.91 1085.78 L -136.84 1090.10 L -135.54 1096.68 L -133.80 1106.97 L -132.43 1115.44 L -131.05 1123.05 L -130.54 1127.21 L -129.67 1136.58 L -129.32 1139.11 L -128.34 1142.43 L -128.19 1142.59 L -127.89 1142.86 L -127.73 1142.90 L -127.64 1142.84 L -127.58 1142.53 L -127.96 1128.30 L -127.30 1124.86 L -126.35 1122.36 L -124.44 1119.89 L -122.68 1118.81 L -118.53 1117.95 L -116.80 1118.87 L -116.42 1119.41 L -116.12 1120.26 L -116.02 1120.64 L -115.60 1122.45 L -115.36 1123.41 L -115.42 1127.58 L -117.54 1133.97 L -117.86 1134.53 L -118.28 1135.16 L -118.74 1135.54 L -118.92 1135.74 L -119.48 1136.48 L -119.57 1136.63 L -119.79 1137.07 L -119.76 1137.60" fill="none" stroke="rgb(0,0,0)" stroke-width="14.67" stroke-linecap="round" stroke-linejoin="round"/>
  <path d="M -110.76 1141.03 L -110.72 1141.07 L -108.16 1137.75 L -106.90 1135.56 L -105.03 1130.89 L -103.66 1125.94 L -103.16 1122.88 L -101.31 1101.14 L -101.21 1096.92 L -101.92 1090.53 L -104.31 1082.57 L -108.00 1073.51 L -107.98 1073.55 L -107.95 1073.63 L -107.92 1073.78 L -108.02 1074.15 L -108.66 1075.78 L -108.93 1076.55 L -109.15 1077.40 L -109.66 1080.16 L -109.76 1082.36 L -109.77 1084.65 L -109.51 1090.81 L -107.63 1104.90 L -106.48 1111.04 L -104.82 1118.78 L -102.55 1125.49 L -100.20 1130.78 L -98.86 1133.01 L -96.00 1136.82 L -95.21 1137.50 L -94.41 1138.11 L -93.59 1138.56 L -91.50 1139.61 L -90.20 1140.03 L -88.00 1140.07 L -83.81 1138.36 L -82.62 1137.14 L -80.55 1133.81 L -79.00 1127.56 L -78.92 1125.77 L -79.23 1123.77 L -80.82 1121.07 L -83.77 1120.67 L -85.39 1121.34 L -86.23 1122.54 L -86.57 1123.55 L -86.83 1124.55 L -87.01 1125.36 L -87.00 1126.25 L -86.93 1127.15 L -86.84 1127.97 L -86.93 1130.30 L -86.73 1131.11 L -84.75 1136.06 L -84.33 1136.90 L -83.52 1138.15 L -82.31 1140.29" fill="none" stroke="rgb(0,0,0)" stroke-width="15.23" stroke-linecap="round" stroke-linejoin="round"/>
  <path d="M -16.70 1099.39 L -16.50 1098.57 L -16.86 1095.60 L -19.79 1077.81 L -19.53 1067.36 L -20.04 1060.64 L -20.04 1060.70 L -20.03 1061.69 L -19.79 1065.06 L -17.55 1083.47 L -15.67 1102.70 L -14.98 1107.20 L -13.22 1114.65 L -8.75 1126.97 L -7.12 1134.41 L -6.76 1135.30 L -6.17 1136.31 L -6.12 1136.34 L -6.11 1136.32 L -6.17 1136.27 L -6.43 1136.11 L -7.13 1135.71" fill="none" stroke="rgb(0,0,0)" stroke-width="15.61" stroke-linecap="round" stroke-linejoin="round"/>
  <path d="M -29.13 1124.06 L -28.73 1124.26 L -28.13 1124.47 L -25.43 1125.04 L -23.05 1125.23 L -16.05 1125.36 L -9.25 1125.03 L -6.69 1125.97" fill="none" stroke="rgb(0,0,0)" stroke-width="9.00" stroke-linecap="round" stroke-linejoin="round"/>
  <path d="M 4.64 1119.56 L 4.46 1119.73 L 4.08 1120.30 L 2.19 1123.92 L 1.68 1125.34 L 1.47 1126.71 L 1.42 1128.02 L 1.64 1130.40 L 5.01 1138.16 L 5.49 1138.66 L 6.23 1139.32 L 7.90 1140.55 L 9.07 1140.96 L 11.93 1140.61 L 16.50 1137.93 L 17.32 1136.31 L 18.70 1130.88 L 18.54 1126.83 L 17.80 1124.68 L 16.91 1123.31 L 15.62 1121.94 L 13.12 1120.28 L 4.28 1118.11 L 3.54 1118.15 L 2.26 1119.07 L 2.04 1119.55 L 2.03 1119.89 L 2.08 1120.57 L 2.22 1120.91 L 2.60 1121.59 L 3.75 1123.19 L 4.38 1123.78 L 5.73 1124.89 L 6.58 1125.41 L 10.28 1127.50 L 11.17 1127.92 L 12.46 1128.37 L 13.72 1128.71 L 15.36 1128.90 L 19.79 1128.52 L 20.59 1128.34 L 21.12 1128.04 L 21.29 1127.89" fill="none" stroke="rgb(0,0,0)" stroke-width="12.58" stroke-linecap="round" stroke-linejoin="round"/>
  <path d="M 71.55 1121.10 L 71.70 1121.33 L 71.88 1121.56 L 71.97 1121.68 L 72.01 1121.73 L 72.07 1122.22 L 72.29 1123.23 L 72.57 1124.46 L 73.06 1126.33 L 73.34 1127.97 L 73.63 1128.79 L 73.93 1129.43 L 74.14 1130.36 L 74.63 1131.79 L 76.80 1135.60 L 77.09 1135.99 L 77.26 1136.14 L 77.60 1136.64 L 78.01 1136.95 L 78.54 1137.19 L 79.42 1137.37 L 81.03 1137.21 L 83.45 1135.91 L 84.13 1135.01 L 86.01 1130.52 L 85.87 1127.56 L 85.55 1126.45 L 83.78 1123.25 L 83.74 1123.33 L 83.53 1123.96 L 83.44 1124.71 L 83.40 1125.50 L 83.40 1126.66 L 83.50 1127.38 L 83.95 1128.37 L 84.51 1129.24 L 84.83 1130.03 L 86.76 1133.35 L 87.07 1133.73 L 87.61 1134.22 L 87.82 1134.29 L 87.98 1134.39 L 88.15 1134.43 L 88.52 1134.59 L 88.72 1134.61 L 89.11 1134.78 L 89.31 1134.81 L 89.47 1134.89 L 90.07 1135.03 L 92.37 1134.96 L 94.40 1134.06 L 96.91 1128.26 L 97.00 1126.37 L 96.41 1121.58" fill="none" stroke="rgb(0,0,0)" stroke-width="15.35" stroke-linecap="round" stroke-linejoin="round"/>
  <path d="M 114.77 1123.94 L 114.69 1124.01 L 114.64 1124.05 L 114.61 1124.08 L 114.56 1124.12 L 113.88 1123.80 L 109.06 1122.38 L 108.12 1122.22 L 106.31 1122.82 L 105.39 1123.86 L 105.18 1124.22 L 104.56 1125.33 L 104.12 1126.06 L 103.65 1126.96 L 102.89 1128.13 L 102.70 1128.57 L 102.09 1130.46 L 102.08 1130.74 L 102.14 1131.26 L 102.47 1132.90 L 102.72 1133.38 L 103.04 1133.89 L 103.54 1134.68 L 103.88 1135.22 L 104.52 1136.36 L 104.85 1136.80 L 104.99 1136.85 L 105.29 1137.02 L 105.82 1136.98 L 106.98 1136.32 L 108.14 1134.04 L 110.48 1131.19 L 112.23 1127.58 L 112.42 1126.30 L 112.19 1124.23 L 112.18 1124.29 L 112.26 1124.56 L 112.52 1125.31 L 112.67 1126.09 L 112.80 1126.48 L 113.18 1128.50 L 113.30 1129.54 L 113.55 1130.35 L 114.01 1131.33 L 114.38 1132.32 L 114.65 1132.78 L 115.08 1133.43 L 115.24 1133.58 L 115.33 1133.62 L 115.36 1133.62 L 115.45 1133.65 L 115.56 1133.70 L 116.37 1134.28 L 117.34 1134.70 L 117.54 1134.91 L 117.90 1135.25 L 118.37 1135.74 L 118.79 1136.34" fill="none" stroke="rgb(0,0,0)" stroke-width="15.70" stroke-linecap="round" stroke-linejoin="round"/>
  <path d="M 117.59 1091.85 L 117.61 1091.98 L 117.64 1092.29 L 118.00 1093.25 L 121.66 1102.25 L 121.90 1103.06 L 122.77 1105.34 L 123.33 1106.92 L 125.49 1113.39 L 127.15 1117.45 L 131.28 1126.37 L 133.78 1131.03 L 133.89 1131.16 L 133.93 1131.19" fill="none" stroke="rgb(0,0,0)" stroke-width="15.86" stroke-linecap="round" stroke-linejoin="round"/>
  <path d="M 121.81 1122.29 L 122.16 1122.52 L 122.74 1122.76 L 124.38 1123.30 L 129.67 1123.91 L 132.61 1123.70 L 133.14 1122.93 L 133.95 1122.80" fill="none" stroke="rgb(0,0,0)" stroke-width="9.66" stroke-linecap="round" stroke-linejoin="round"/>
  <path d="M 145.04 1119.39 L 144.96 1119.48 L 144.89 1119.58 L 144.85 1119.64 L 144.68 1119.80 L 143.83 1120.95 L 141.88 1124.49 L 141.23 1125.91 L 140.80 1127.93 L 140.81 1129.01 L 141.03 1130.32 L 141.54 1131.35 L 142.02 1131.80 L 142.27 1132.00 L 142.98 1132.53 L 143.20 1132.71 L 144.27 1133.80 L 144.55 1133.93 L 144.69 1133.93 L 145.46 1134.26 L 145.66 1134.29 L 146.03 1134.48 L 148.55 1134.70" fill="none" stroke="rgb(0,0,0)" stroke-width="12.95" stroke-linecap="round" stroke-linejoin="round"/>
  <path d="M 146.11 1096.91 L 146.23 1095.55 L 146.23 1091.95 L 146.27 1092.18 L 146.48 1093.04 L 146.77 1094.23 L 147.78 1098.99 L 148.06 1100.06 L 148.50 1102.34 L 150.27 1109.03 L 155.82 1124.59 L 157.15 1128.91 L 158.25 1131.00 L 158.40 1131.16 L 158.51 1131.23 L 158.53 1131.22 L 158.43 1131.11 L 158.14 1130.55 L 157.77 1129.85 L 156.95 1128.33 L 156.45 1125.91 L 156.76 1121.28 L 157.78 1119.57 L 162.44 1118.27 L 163.49 1118.57 L 164.19 1118.91 L 165.13 1119.50 L 165.97 1120.39 L 166.31 1120.72 L 167.46 1122.07 L 168.28 1123.35 L 168.94 1124.26 L 170.11 1126.09 L 170.97 1127.73 L 172.57 1130.44 L 174.24 1133.74 L 174.38 1133.90 L 174.46 1133.97" fill="none" stroke="rgb(0,0,0)" stroke-width="15.85" stroke-linecap="round" stroke-linejoin="round"/>
  <path d="M 228.23 1124.72 L 228.09 1124.82 L 227.93 1124.93 L 227.88 1124.96 L 227.82 1124.99 L 227.71 1124.81 L 227.26 1122.61 L 227.15 1118.45 L 227.93 1114.65 L 229.93 1110.90 L 232.83 1110.60 L 233.81 1111.08 L 234.06 1111.31 L 234.42 1111.88 L 234.87 1112.86 L 235.00 1113.20 L 235.39 1114.21 L 238.64 1126.06 L 239.68 1128.70 L 239.66 1128.66 L 239.63 1128.48 L 239.56 1127.80 L 239.43 1126.53 L 239.65 1123.93 L 240.60 1120.89 L 242.34 1117.27 L 244.03 1114.82 L 245.83 1114.22 L 247.83 1114.01 L 249.74 1114.98 L 250.27 1115.42 L 250.92 1116.18 L 251.22 1116.67 L 251.23 1116.77 L 251.29 1117.04 L 251.47 1117.60 L 251.95 1118.81 L 253.04 1120.93 L 253.20 1121.79 L 253.16 1122.91 L 253.00 1124.29 L 252.86 1124.61 L 252.73 1124.82 L 252.61 1125.28 L 252.55 1125.82 L 252.53 1126.33 L 252.55 1126.50 L 252.58 1126.52 L 252.61 1126.52 L 252.62 1126.49 L 252.64 1126.45 L 252.68 1126.29 L 252.74 1125.98 L 252.74 1126.03 L 252.73 1126.20 L 252.73 1126.44 L 252.72 1127.04 L 252.71 1127.69 L 252.72 1128.20 L 253.03 1129.02 L 253.23 1129.83 L 253.26 1130.32 L 253.42 1131.50 L 253.43 1131.48 L 253.41 1131.45 L 253.37 1131.32 L 253.36 1131.17 L 253.33 1130.57 L 253.25 1126.35 L 253.56 1124.01 L 256.15 1118.44 L 258.07 1115.09 L 261.15 1113.91 L 262.59 1113.69 L 263.32 1114.13 L 263.37 1114.26 L 263.56 1114.92 L 263.80 1115.65 L 265.54 1120.73 L 265.66 1121.64 L 265.69 1122.51 L 265.41 1126.28 L 265.35 1127.63 L 265.39 1129.85 L 265.43 1129.94 L 265.46 1129.93 L 265.48 1129.89 L 265.48 1129.83 L 265.49 1129.69" fill="none" stroke="rgb(0,0,0)" stroke-width="14.65" stroke-linecap="round" stroke-linejoin="round"/>
  <path d="M 273.72 1135.67 L 273.71 1135.76 L 273.73 1135.86 L 273.81 1135.81 L 274.39 1134.83 L 275.48 1132.79 L 276.91 1130.00 L 280.56 1123.31 L 283.96 1119.03 L 286.04 1113.49 L 286.89 1111.64 L 287.05 1111.34 L 287.15 1111.25" fill="none" stroke="rgb(0,0,0)" stroke-width="10.73" stroke-linecap="round" stroke-linejoin="round"/>
  <path d="M 275.24 1114.71 L 275.15 1114.79 L 275.07 1114.89 L 275.11 1115.14 L 278.13 1118.73 L 282.04 1122.56 L 282.30 1122.98 L 282.45 1123.37 L 282.54 1123.75 L 282.65 1124.34 L 282.75 1124.77 L 282.88 1125.05 L 282.96 1125.14 L 283.16 1125.31" fill="none" stroke="rgb(0,0,0)" stroke-width="17.09" stroke-linecap="round" stroke-linejoin="round"/>
  <path d="M 326.20 1134.74 L 326.20 1134.68 L 326.17 1134.60 L 326.17 1133.37 L 326.92 1121.12 L 326.87 1121.31 L 326.92 1121.66 L 327.02 1122.15 L 327.64 1124.13 L 328.10 1126.40 L 329.25 1129.76 L 329.88 1131.09 L 331.42 1133.57 L 332.97 1136.43" fill="none" stroke="rgb(0,0,0)" stroke-width="14.25" stroke-linecap="round" stroke-linejoin="round"/>
  <path d="M 328.25 1107.92 L 328.28 1108.04 L 328.29 1108.19 L 328.36 1108.56" fill="none" stroke="rgb(0,0,0)" stroke-width="12.19" stroke-linecap="round" stroke-linejoin="round"/>
  <path d="M 355.48 1125.06 L 355.44 1124.42 L 355.43 1119.98 L 354.94 1118.18 L 352.90 1114.28 L 351.03 1112.71 L 349.17 1112.32 L 348.29 1112.43 L 346.63 1113.76 L 346.16 1114.65 L 345.74 1116.15 L 345.52 1117.35 L 345.03 1120.54 L 345.01 1121.17 L 345.50 1128.77 L 346.01 1131.29 L 346.40 1132.12 L 346.99 1132.89 L 347.30 1133.07 L 347.82 1133.11 L 348.97 1132.87 L 350.53 1132.04 L 352.31 1130.28 L 353.24 1128.56 L 354.55 1122.68 L 356.83 1108.30 L 356.85 1101.63 L 356.15 1094.14 L 356.15 1094.18 L 356.10 1094.40 L 356.00 1094.76 L 355.55 1095.83 L 354.93 1098.04 L 354.02 1102.68 L 353.94 1107.47 L 354.52 1115.03 L 356.56 1123.30 L 358.41 1126.95 L 359.24 1127.98 L 360.62 1129.18 L 369.01 1133.56 L 371.93 1133.50 L 374.94 1131.88 L 375.63 1130.35 L 376.68 1125.86 L 376.67 1122.03 L 375.17 1119.46 L 371.03 1117.87 L 369.84 1118.69 L 369.46 1119.37 L 369.16 1120.09 L 369.11 1120.82 L 369.17 1121.61 L 369.79 1126.28 L 371.72 1131.62 L 372.44 1132.97 L 372.90 1133.41 L 373.45 1133.86 L 374.04 1134.31 L 375.11 1135.39 L 375.59 1135.65 L 376.39 1135.91 L 377.88 1135.65 L 380.60 1133.98 L 381.76 1132.29 L 383.42 1128.30 L 385.74 1125.48 L 390.94 1124.10 L 392.05 1124.62 L 392.46 1125.41 L 392.75 1126.06 L 393.19 1127.10 L 393.50 1127.79 L 393.95 1129.08 L 394.16 1130.15 L 394.20 1130.77 L 393.93 1135.46 L 393.95 1135.43 L 394.05 1135.06 L 394.49 1134.00 L 394.83 1133.20 L 397.15 1127.20 L 398.47 1125.26 L 400.90 1123.39 L 404.19 1122.96 L 404.93 1123.26 L 405.23 1123.73 L 405.53 1124.33 L 406.27 1126.05 L 406.56 1126.90 L 407.74 1130.62 L 408.93 1133.20 L 409.03 1133.67 L 409.04 1134.12 L 408.80 1135.55" fill="none" stroke="rgb(0,0,0)" stroke-width="13.14" stroke-linecap="round" stroke-linejoin="round"/>
  <path d="M 407.57 1094.65 L 407.58 1094.93 L 407.61 1095.33 L 409.65 1100.66 L 411.85 1107.59 L 412.84 1111.27 L 413.42 1114.71 L 413.87 1116.69 L 416.05 1123.89 L 418.52 1134.23 L 419.42 1136.85 L 419.88 1137.74 L 420.01 1138.48 L 420.01 1138.71 L 420.01 1138.71 L 419.97 1139.13 L 419.96 1139.18" fill="none" stroke="rgb(0,0,0)" stroke-width="16.10" stroke-linecap="round" stroke-linejoin="round"/>
  <path d="M 409.35 1122.97 L 409.42 1123.06 L 409.57 1123.29 L 410.37 1123.12 L 417.61 1120.10 L 418.26 1120.10 L 419.04 1120.75" fill="none" stroke="rgb(0,0,0)" stroke-width="10.39" stroke-linecap="round" stroke-linejoin="round"/>
  <path d="M 429.33 1123.25 L 429.33 1123.24 L 429.34 1123.23 L 429.34 1123.39 L 429.74 1125.54 L 430.25 1128.14 L 431.13 1131.83 L 432.78 1136.10 L 432.99 1136.75 L 433.01 1137.12" fill="none" stroke="rgb(0,0,0)" stroke-width="12.38" stroke-linecap="round" stroke-linejoin="round"/>
  <path d="M 429.42 1110.76 L 429.44 1110.88" fill="none" stroke="rgb(0,0,0)" stroke-width="10.12" stroke-linecap="round" stroke-linejoin="round"/>
  <path d="M 443.09 1089.86 L 443.10 1089.99 L 443.09 1090.14 L 443.11 1090.71 L 444.19 1096.43 L 445.07 1102.16 L 447.01 1118.31 L 448.27 1123.27 L 451.35 1139.31 L 451.42 1140.12 L 451.19 1141.49" fill="none" stroke="rgb(0,0,0)" stroke-width="15.27" stroke-linecap="round" stroke-linejoin="round"/>
  <path d="M 440.03 1128.14 L 440.18 1128.36 L 441.01 1128.38 L 441.73 1128.17 L 444.71 1127.46 L 448.88 1126.40 L 453.02 1124.60" fill="none" stroke="rgb(0,0,0)" stroke-width="9.75" stroke-linecap="round" stroke-linejoin="round"/>
  <path d="M 463.36 1145.17 L 464.09 1142.99 L 465.51 1139.92 L 467.04 1137.27 L 467.97 1135.89 L 468.85 1134.50 L 469.90 1132.27 L 472.48 1124.42 L 472.65 1123.30 L 472.51 1121.10 L 472.59 1119.44 L 472.35 1118.71" fill="none" stroke="rgb(0,0,0)" stroke-width="9.69" stroke-linecap="round" stroke-linejoin="round"/>
  <path d="M 461.42 1113.23 L 461.70 1113.51 L 461.77 1116.40 L 462.35 1119.65 L 464.98 1125.24 L 467.58 1128.30 L 468.17 1128.73 L 468.72 1129.09 L 469.31 1129.61 L 470.46 1129.68" fill="none" stroke="rgb(0,0,0)" stroke-width="11.70" stroke-linecap="round" stroke-linejoin="round"/>
  <path d="M -564.55 1235.60 L -564.89 1235.48 L -566.22 1235.17 L -568.38 1235.01 L -569.18 1234.99 L -569.63 1234.99 L -569.70 1235.03 L -569.60 1235.25 L -569.38 1235.58 L -569.03 1235.94 L -567.92 1236.85 L -563.17 1239.74 L -559.00 1241.78 L -555.87 1243.05 L -552.62 1244.12 L -545.96 1245.93 L -539.90 1247.30 L -525.96 1249.37 L -516.56 1251.14 L -508.99 1252.10 L -503.37 1252.33 L -490.04 1252.12 L -485.65 1253.28 L -485.04 1253.58 L -484.72 1253.65 L -484.20 1253.92 L -483.74 1254.02 L -483.15 1254.06 L -483.65 1254.14 L -484.74 1254.82 L -485.56 1255.26 L -485.88 1255.38" fill="none" stroke="rgb(0,0,0)" stroke-width="11.39" stroke-linecap="round" stroke-linejoin="round"/>
  <path d="M -494.51 1246.46 L -494.37 1246.52 L -494.25 1246.59 L -493.86 1246.77 L -493.11 1247.36 L -487.93 1250.46 L -481.53 1254.87 L -480.94 1255.38 L -480.18 1256.15 L -479.69 1256.57 L -479.38 1256.77 L -479.26 1256.81 L -479.23 1256.81 L -479.23 1257.05 L -479.18 1257.26 L -479.13 1257.50 L -479.05 1257.76 L -479.09 1258.63 L -479.20 1258.94 L -479.51 1259.58 L -479.69 1259.91 L -480.08 1260.56 L -480.85 1261.51 L -482.84 1263.21 L -487.23 1264.97" fill="none" stroke="rgb(0,0,0)" stroke-width="16.05" stroke-linecap="round" stroke-linejoin="round"/>
  <path d="M -437.78 1226.41 L -437.73 1226.55 L -437.65 1226.89 L -437.43 1227.29 L -432.63 1235.56 L -430.45 1240.21 L -428.74 1245.07 L -427.36 1249.71 L -425.85 1254.99 L -423.86 1261.45 L -421.68 1266.73 L -420.06 1269.88 L -419.56 1270.77 L -419.36 1270.97 L -419.34 1270.89 L -419.57 1270.36 L -420.12 1269.28 L -421.08 1267.78" fill="none" stroke="rgb(0,0,0)" stroke-width="14.92" stroke-linecap="round" stroke-linejoin="round"/>
  <path d="M -448.59 1241.57 L -448.71 1241.59 L -452.49 1239.16 L -458.04 1234.88 L -459.52 1233.05 L -459.55 1232.59 L -459.02 1232.06 L -451.82 1230.37 L -446.91 1228.33 L -439.28 1226.32 L -426.04 1224.53 L -424.12 1224.48 L -420.98 1225.21 L -419.90 1225.66 L -419.36 1225.96 L -418.74 1226.37 L -418.65 1226.49 L -418.55 1226.54 L -418.55 1226.57 L -418.59 1226.63 L -418.58 1226.87 L -418.50 1227.49" fill="none" stroke="rgb(0,0,0)" stroke-width="12.78" stroke-linecap="round" stroke-linejoin="round"/>
  <path d="M -411.88 1255.52 L -411.43 1255.70 L -411.28 1256.26 L -411.52 1263.82 L -411.09 1267.88 L -410.53 1270.83 L -409.25 1274.25 L -407.86 1276.52 L -404.80 1280.04 L -402.46 1282.11 L -399.93 1283.28 L -399.12 1283.46 L -397.50 1283.28 L -394.61 1281.89 L -393.40 1281.00 L -391.97 1279.09 L -391.43 1277.15 L -390.26 1269.06 L -390.42 1266.23 L -391.13 1263.71 L -392.20 1261.09 L -394.42 1257.67 L -396.26 1255.67 L -398.47 1254.41 L -401.55 1253.99 L -404.23 1255.02 L -405.77 1256.29 L -408.22 1259.46 L -408.35 1259.81 L -408.39 1260.52 L -408.31 1261.09 L -408.17 1261.63 L -406.67 1263.40 L -406.00 1263.83 L -405.12 1264.11 L -404.14 1264.34 L -403.15 1264.55 L -401.67 1264.72 L -395.24 1264.42 L -392.72 1264.03 L -389.47 1262.93 L -389.32 1262.81 L -389.35 1262.72 L -389.29 1262.09 L -389.31 1261.65" fill="none" stroke="rgb(0,0,0)" stroke-width="11.82" stroke-linecap="round" stroke-linejoin="round"/>
  <path d="M -351.55 1239.05 L -351.48 1238.91 L -352.25 1236.80 L -355.03 1225.50 L -355.14 1223.11 L -354.90 1221.43 L -354.32 1221.80 L -354.01 1222.12 L -353.32 1222.89 L -352.21 1224.57 L -351.48 1226.14 L -351.13 1227.06 L -349.32 1231.14 L -346.97 1236.90 L -345.12 1243.75 L -342.08 1258.81 L -340.71 1261.75 L -340.00 1263.03 L -339.84 1263.24 L -339.32 1263.90 L -338.95 1264.44 L -338.90 1264.65 L -338.95 1264.95 L -339.18 1265.06 L -339.46 1265.26 L -339.78 1265.48 L -340.07 1265.67 L -340.77 1266.05 L -342.13 1266.24 L -343.09 1265.91 L -345.42 1263.13 L -346.03 1260.85 L -346.10 1258.10 L -345.51 1254.57 L -344.13 1250.97 L -343.02 1249.43 L -341.27 1247.94 L -339.35 1247.34 L -337.11 1247.13 L -335.27 1247.48 L -333.43 1248.32 L -331.81 1249.46 L -330.65 1250.79 L -329.51 1252.49 L -327.29 1256.23 L -326.21 1258.58 L -325.02 1263.68 L -324.99 1264.57 L -325.04 1265.90 L -325.29 1266.70 L -325.63 1267.51 L -325.82 1267.91 L -326.39 1268.82 L -327.26 1269.59 L -329.56 1271.35 L -332.44 1272.48 L -334.05 1272.29 L -336.38 1271.08 L -336.70 1270.34 L -336.50 1268.98" fill="none" stroke="rgb(0,0,0)" stroke-width="15.30" stroke-linecap="round" stroke-linejoin="round"/>
  <path d="M -316.42 1265.70 L -316.15 1265.58 L -312.25 1264.65 L -309.90 1263.82 L -307.47 1261.68 L -306.47 1259.55 L -304.69 1251.76 L -305.53 1250.08 L -307.28 1249.77 L -308.39 1249.90 L -309.76 1250.66 L -311.25 1252.35 L -311.80 1253.24 L -312.34 1254.20 L -312.79 1255.71 L -313.00 1256.89 L -313.18 1258.10 L -313.11 1259.58 L -312.99 1260.45 L -312.78 1261.57 L -312.48 1262.08 L -312.10 1262.52 L -311.18 1263.53 L -310.69 1264.20 L -308.74 1266.06 L -307.81 1266.62 L -307.21 1266.92 L -306.62 1267.18 L -305.74 1267.23 L -304.68 1267.08 L -301.30 1265.98" fill="none" stroke="rgb(0,0,0)" stroke-width="13.35" stroke-linecap="round" stroke-linejoin="round"/>
  <path d="M -243.68 1254.45 L -243.43 1254.21 L -244.13 1251.15 L -245.16 1248.12 L -245.94 1246.72 L -247.09 1245.77 L -249.52 1245.36 L -251.76 1246.24 L -255.22 1249.64 L -257.00 1252.98 L -257.31 1253.83 L -258.16 1256.47 L -259.34 1260.66 L -259.61 1262.83 L -259.55 1264.18 L -259.42 1265.49 L -258.85 1267.42 L -258.63 1267.99 L -257.95 1269.56 L -256.99 1270.73 L -256.30 1271.36 L -255.97 1271.59 L -255.31 1272.00 L -254.91 1272.18 L -253.60 1272.78 L -253.15 1272.99 L -252.24 1273.25 L -251.33 1273.29 L -249.57 1273.13 L -244.97 1271.19 L -242.91 1269.48 L -242.37 1268.23 L -241.74 1268.07 L -240.93 1267.28" fill="none" stroke="rgb(0,0,0)" stroke-width="13.90" stroke-linecap="round" stroke-linejoin="round"/>
  <path d="M -233.73 1271.37 L -233.72 1271.53 L -233.72 1271.34 L -233.32 1269.67 L -233.00 1268.59 L -230.26 1261.46 L -230.69 1257.78 L -230.74 1257.89 L -230.97 1258.57 L -231.27 1259.36 L -231.41 1260.19 L -231.47 1261.00 L -231.46 1262.11 L -231.31 1263.08 L -230.62 1264.19 L -228.83 1266.39 L -227.02 1267.94 L -226.57 1268.18 L -226.05 1268.42 L -225.48 1268.45 L -223.50 1268.01 L -220.07 1265.78 L -217.35 1259.90 L -217.34 1257.62 L -217.64 1258.08 L -217.77 1258.92 L -217.86 1260.23 L -217.78 1260.67 L -217.52 1261.50 L -216.36 1263.89 L -216.07 1264.32 L -215.74 1264.68 L -213.84 1266.95 L -212.52 1268.34 L -209.91 1270.57 L -209.36 1270.87 L -208.82 1271.10 L -208.27 1271.10 L -207.47 1270.89 L -205.41 1269.34 L -203.76 1265.46 L -203.70 1264.20 L -204.36 1262.97 L -194.92 1258.22 L -194.51 1258.33 L -194.62 1258.49 L -194.61 1258.77 L -194.55 1259.07 L -194.47 1259.39 L -194.24 1260.09 L -193.80 1261.18 L -193.37 1262.56 L -190.45 1268.35 L -188.55 1271.28 L -188.06 1271.77 L -187.51 1272.25 L -187.01 1272.65 L -186.83 1272.77 L -186.67 1272.80 L -186.31 1272.93 L -185.54 1272.83 L -184.88 1272.64 L -183.24 1271.36 L -179.48 1263.74 L -179.42 1263.71 L -179.43 1263.77 L -179.37 1263.82 L -178.76 1264.05 L -178.52 1264.26 L -178.30 1264.43 L -177.07 1265.22 L -173.59 1268.13 L -172.98 1268.44 L -172.39 1268.68 L -172.12 1268.86 L -169.12 1269.92 L -168.72 1268.72 L -168.63 1267.27 L -168.98 1265.17" fill="none" stroke="rgb(0,0,0)" stroke-width="14.40" stroke-linecap="round" stroke-linejoin="round"/>
  <path d="M -175.35 1248.10 L -175.28 1248.33 L -175.23 1248.46 L -175.16 1248.64" fill="none" stroke="rgb(0,0,0)" stroke-width="11.44" stroke-linecap="round" stroke-linejoin="round"/>
  <path d="M -160.55 1254.37 L -162.43 1258.90 L -162.68 1261.64 L -162.45 1264.86 L -161.92 1266.38 L -159.54 1270.97 L -156.88 1273.25 L -155.68 1273.87 L -155.38 1273.92 L -152.05 1273.62 L -150.20 1273.00 L -149.17 1272.23 L -146.77 1264.34 L -146.62 1262.24 L -147.37 1258.65 L -149.65 1251.88 L -151.87 1249.47 L -154.08 1248.42 L -156.49 1247.91 L -157.26 1248.36 L -158.29 1249.65 L -158.86 1251.18 L -158.88 1252.19 L -158.79 1253.29 L -158.53 1255.59 L -158.21 1256.80 L -155.88 1261.96 L -155.41 1262.38 L -155.15 1262.58 L -154.30 1263.21 L -153.06 1263.56 L -147.89 1262.89 L -142.02 1260.11 L -141.37 1259.22 L -141.14 1257.92 L -141.89 1259.41 L -142.15 1260.85 L -142.21 1262.27 L -141.88 1263.88 L -137.82 1270.08 L -137.62 1270.23 L -137.44 1270.28 L -136.82 1270.57 L -136.27 1270.66 L -134.98 1270.44 L -131.73 1268.65 L -130.45 1267.66 L -129.52 1266.40 L -126.26 1259.77 L -125.48 1254.19 L -125.51 1254.22 L -125.52 1254.28 L -125.71 1254.78 L -125.83 1255.68 L -125.93 1257.13 L -125.74 1262.66 L -122.77 1268.00 L -122.48 1268.35 L -122.26 1268.48 L -121.78 1268.99 L -121.29 1269.24 L -120.66 1269.46 L -120.46 1269.49 L -119.80 1269.78 L -119.25 1269.85 L -117.81 1269.37 L -115.85 1265.15 L -114.40 1263.04 L -113.94 1262.12 L -113.74 1261.41 L -113.57 1260.09 L -113.31 1259.15" fill="none" stroke="rgb(0,0,0)" stroke-width="13.01" stroke-linecap="round" stroke-linejoin="round"/>
  <path d="M -101.84 1246.85 L -101.86 1246.92 L -102.01 1247.11 L -102.50 1247.51 L -108.04 1251.21 L -110.51 1253.86 L -110.87 1254.83 L -110.79 1255.33 L -110.64 1255.85 L -110.39 1256.57 L -110.29 1256.66 L -107.89 1258.40 L -106.85 1259.07 L -102.83 1261.49 L -101.35 1262.69 L -100.34 1263.61 L -99.19 1264.88 L -98.67 1265.70 L -97.65 1267.48 L -96.07 1273.89 L -95.99 1275.43 L -96.11 1276.15 L -96.26 1276.46 L -96.59 1276.98 L -96.97 1277.46 L -97.57 1278.16 L -97.68 1278.33 L -97.84 1278.44 L -99.47 1278.66 L -101.76 1278.17" fill="none" stroke="rgb(0,0,0)" stroke-width="14.40" stroke-linecap="round" stroke-linejoin="round"/>
</svg>
