<?xml version="1.0" encoding="UTF-8"?>
<svg xmlns="http://www.w3.org/2000/svg" viewBox="-378.7 232.6 654.8 428.1" width="655" height="428">
<rect x="-378.7" y="232.6" width="654.8" height="428.1" fill="white"/>
  <path d="M -356.75 263.22 L -356.52 265.27 L -352.59 273.41 L -351.17 277.89 L -349.32 299.42 L -348.50 304.06 L -345.30 315.01 L -343.76 322.27 L -343.76 327.82 L -344.44 330.45 L -344.73 333.83" fill="none" stroke="rgb(0,0,0)" stroke-width="8.00" stroke-linecap="round" stroke-linejoin="round"/>
  <path d="M -352.50 263.02 L -350.86 267.48 L -348.02 278.26 L -345.62 298.72 L -343.83 308.61 L -341.24 315.45 L -339.40 322.71 L -337.37 326.83 L -338.47 327.14 L -339.91 326.58" fill="none" stroke="rgb(0,0,0)" stroke-width="8.00" stroke-linecap="round" stroke-linejoin="round"/>
  <path d="M -357.56 287.42 L -357.89 287.36 L -358.40 286.14 L -358.67 283.07 L -358.51 279.26 L -357.83 276.46 L -354.03 265.92 L -350.20 258.79 L -347.84 256.07 L -345.28 254.15 L -343.68 253.36 L -338.37 252.64 L -335.70 252.75 L -330.54 254.30 L -329.49 254.92 L -326.59 257.53 L -324.00 261.09 L -323.28 264.32 L -322.41 271.15 L -322.34 272.89 L -322.90 276.92 L -323.63 280.16 L -326.30 288.35 L -331.26 299.32 L -333.17 302.66 L -335.48 305.04 L -342.57 307.44 L -347.38 307.84" fill="none" stroke="rgb(0,0,0)" stroke-width="8.00" stroke-linecap="round" stroke-linejoin="round"/>
  <path d="M -322.85 334.55 L -320.32 331.17 L -314.82 325.54 L -312.91 322.56 L -311.48 313.95 L -311.42 311.84 L -312.53 309.64 L -315.36 309.06 L -317.56 310.05 L -318.55 311.05 L -319.84 314.99 L -319.00 323.83 L -317.94 329.39 L -316.53 334.03 L -314.67 336.56 L -313.19 337.00 L -310.45 336.71 L -306.78 335.24 L -305.20 334.03 L -303.65 332.36 L -298.03 324.13 L -296.01 318.61 L -294.02 314.98 L -292.45 313.28 L -290.13 312.27 L -288.63 316.13 L -288.13 323.21 L -286.99 328.04 L -286.29 329.53 L -284.38 332.18 L -283.96 332.46 L -282.62 332.35" fill="none" stroke="rgb(0,0,0)" stroke-width="8.00" stroke-linecap="round" stroke-linejoin="round"/>
  <path d="M -262.45 302.90 L -264.16 304.23 L -271.05 308.28 L -272.38 309.58 L -273.27 310.94 L -275.13 315.26 L -275.64 317.55 L -275.07 320.85 L -273.28 322.17 L -271.59 322.70 L -259.31 324.59 L -256.95 325.42 L -255.87 326.15 L -254.53 330.17 L -254.47 331.22 L -255.04 332.53 L -256.55 334.64 L -259.10 337.30 L -262.37 338.53 L -263.45 338.48" fill="none" stroke="rgb(0,0,0)" stroke-width="8.00" stroke-linecap="round" stroke-linejoin="round"/>
  <path d="M -238.68 312.48 L -239.21 312.71 L -243.52 311.15 L -244.77 311.36 L -246.11 312.44 L -247.44 315.42 L -248.89 320.18 L -249.39 323.83 L -249.33 326.40 L -248.62 330.80 L -247.78 332.36 L -245.93 334.39 L -244.40 334.98 L -240.68 334.71 L -237.93 333.62 L -236.76 332.83 L -234.75 330.55 L -233.21 328.16 L -232.62 326.62 L -231.02 320.87 L -230.95 318.61 L -231.22 317.71 L -232.70 314.52 L -233.78 313.00 L -235.49 311.56 L -238.50 310.46 L -239.44 310.57 L -240.66 311.56 L -242.18 313.64 L -243.96 317.07 L -244.86 321.78 L -244.51 323.54 L -243.51 325.00 L -242.05 325.37 L -237.40 324.85 L -233.00 322.46 L -224.47 319.64 L -218.75 317.92 L -216.16 317.94 L -214.37 319.28 L -212.61 323.85 L -212.67 326.41 L -214.47 333.60 L -212.67 329.84 L -207.03 323.49 L -204.87 321.96 L -202.39 321.16 L -200.73 321.20 L -197.03 323.01 L -196.14 324.01 L -193.51 332.12 L -192.94 336.02 L -192.96 338.80" fill="none" stroke="rgb(0,0,0)" stroke-width="8.00" stroke-linecap="round" stroke-linejoin="round"/>
  <path d="M -169.40 325.29 L -169.71 320.69 L -171.09 317.58 L -173.59 317.61 L -174.92 318.07 L -176.17 320.24 L -176.80 322.51 L -175.49 333.62 L -174.29 340.04 L -173.11 344.11 L -171.23 346.49 L -170.46 346.68 L -168.32 346.36 L -166.64 345.48 L -165.14 343.67 L -162.84 337.45 L -160.48 327.47 L -160.44 322.76 L -161.77 320.19 L -162.92 318.88 L -167.30 317.88 L -168.64 318.37 L -170.48 320.54 L -172.31 324.17 L -173.14 327.72 L -173.51 330.20 L -173.07 333.79 L -171.00 337.81 L -169.59 337.93 L -168.56 337.41 L -165.05 335.29 L -162.22 332.82 L -156.34 329.66 L -154.15 328.08 L -150.32 326.43 L -148.95 326.35 L -147.77 327.58 L -145.55 333.71 L -145.66 338.61 L -146.55 345.69 L -146.32 349.30 L -144.37 344.50 L -143.07 340.01 L -139.76 335.70 L -136.07 332.35 L -133.02 330.23 L -130.06 329.02 L -128.46 329.15 L -127.48 330.05 L -125.58 335.02 L -125.75 339.91 L -127.12 345.05 L -127.21 346.41" fill="none" stroke="rgb(0,0,0)" stroke-width="8.00" stroke-linecap="round" stroke-linejoin="round"/>
  <path d="M -101.26 327.99 L -105.91 327.22 L -107.80 327.32 L -110.55 328.17 L -111.96 329.18 L -112.90 330.35 L -114.95 335.51 L -115.71 339.07 L -115.32 346.66 L -114.89 348.40 L -113.60 350.23 L -112.11 349.87 L -110.82 348.09 L -108.88 343.97 L -107.46 339.69 L -105.66 336.84 L -104.61 343.46 L -103.83 345.96 L -102.52 347.73 L -101.62 348.36 L -99.13 348.94 L -97.21 348.75 L -95.64 348.22 L -91.51 345.68 L -87.68 340.40 L -85.78 336.57 L -83.41 328.71 L -81.11 318.36 L -79.49 302.96 L -79.73 298.00 L -80.81 292.62 L -82.62 288.14 L -84.52 284.89 L -85.23 284.04 L -86.12 283.61 L -86.88 283.57 L -87.75 284.04 L -89.66 286.47 L -91.60 290.70 L -93.06 295.46 L -94.44 302.82 L -94.91 306.71 L -94.88 312.40 L -94.17 317.69 L -92.30 324.42 L -80.01 355.05" fill="none" stroke="rgb(0,0,0)" stroke-width="8.00" stroke-linecap="round" stroke-linejoin="round"/>
  <path d="M 52.44 290.16 L 54.26 303.52 L 55.78 310.76 L 58.36 319.73 L 62.03 353.30 L 62.90 358.09 L 64.55 364.30 L 64.37 367.70 L 63.47 365.90 L 62.19 361.64 L 60.13 350.54 L 56.53 313.05 L 56.64 298.61 L 57.68 290.71 L 59.60 280.54 L 61.47 275.65 L 64.38 271.53 L 66.79 269.82 L 70.29 268.98 L 72.58 269.38 L 74.54 270.23 L 76.57 271.37 L 79.91 273.98 L 81.42 275.94 L 83.02 279.42 L 83.42 282.90 L 83.65 290.39 L 82.46 298.96 L 80.67 307.13 L 77.27 317.35 L 76.37 318.98 L 75.19 320.09 L 68.53 323.27 L 63.76 324.55" fill="none" stroke="rgb(0,0,0)" stroke-width="8.00" stroke-linecap="round" stroke-linejoin="round"/>
  <path d="M 84.18 369.95 L 86.58 360.31 L 86.81 358.31 L 87.00 348.07 L 87.61 338.84 L 90.53 338.14 L 94.91 335.53 L 95.23 335.60 L 97.77 346.30 L 99.30 350.65 L 103.93 362.06 L 104.36 362.85 L 105.77 363.89 L 107.84 362.83 L 110.77 358.13 L 115.23 348.51 L 118.81 341.94 L 116.53 345.51 L 115.13 349.48 L 115.06 352.28 L 115.52 356.13 L 117.25 360.63 L 119.05 363.29 L 120.50 364.49 L 122.09 364.78 L 123.78 364.48 L 126.09 363.14 L 127.99 361.10 L 129.88 357.85 L 130.75 354.36 L 132.52 342.57 L 132.52 340.76 L 132.09 338.93 L 130.66 337.25 L 126.06 336.22 L 124.48 336.97 L 123.28 338.30 L 120.84 343.39 L 120.27 345.90 L 120.09 348.49 L 120.49 352.99 L 121.30 354.74 L 124.12 357.45 L 125.74 358.21 L 127.01 358.25 L 128.97 357.21 L 129.94 356.22 L 136.13 348.09 L 136.80 346.27 L 138.06 339.72 L 139.69 335.97 L 140.09 335.53 L 140.74 335.52 L 142.46 336.18 L 144.33 338.13 L 145.26 339.95 L 149.74 352.65 L 150.84 359.31 L 152.89 378.78 L 153.17 386.32 L 153.00 399.07 L 151.98 409.57 L 150.29 420.51 L 146.19 407.34 L 145.17 403.14 L 144.81 399.53 L 145.23 393.69 L 147.14 385.75 L 149.30 380.72 L 151.39 376.93 L 156.90 368.78 L 160.23 362.36 L 163.59 356.82 L 166.86 350.00 L 169.36 340.43 L 167.14 343.07 L 164.73 346.81 L 163.71 350.28 L 163.11 355.15 L 163.76 360.90 L 165.51 363.87 L 170.12 367.85 L 172.93 369.36 L 174.57 369.13" fill="none" stroke="rgb(0,0,0)" stroke-width="8.00" stroke-linecap="round" stroke-linejoin="round"/>
  <path d="M 193.20 338.59 L 193.12 338.90 L 190.82 338.19 L 188.02 337.83 L 186.17 338.42 L 184.85 340.41 L 183.85 343.34 L 183.48 348.07 L 184.29 354.24 L 185.45 358.01 L 187.13 362.01 L 192.31 366.12 L 193.58 365.94 L 194.48 364.72" fill="none" stroke="rgb(0,0,0)" stroke-width="8.00" stroke-linecap="round" stroke-linejoin="round"/>
  <path d="M 197.25 346.46 L 197.85 346.66 L 201.79 346.08 L 207.44 345.89" fill="none" stroke="rgb(0,0,0)" stroke-width="8.00" stroke-linecap="round" stroke-linejoin="round"/>
  <path d="M 211.32 330.96 L 211.58 331.06 L 211.72 330.71 L 211.99 326.86 L 211.92 317.98 L 211.66 316.06 L 209.04 305.76 L 209.31 304.90 L 209.51 306.03 L 210.19 325.70 L 211.53 340.05 L 213.20 352.24 L 214.62 359.32 L 215.44 361.50 L 218.01 363.79 L 218.92 365.02 L 217.15 361.73" fill="none" stroke="rgb(0,0,0)" stroke-width="8.00" stroke-linecap="round" stroke-linejoin="round"/>
  <path d="M 205.28 342.04 L 213.56 346.10 L 219.16 347.09" fill="none" stroke="rgb(0,0,0)" stroke-width="8.00" stroke-linecap="round" stroke-linejoin="round"/>
  <path d="M 213.85 347.59 L 213.82 362.15 L 213.58 362.36 L 213.50 361.73 L 213.38 327.52 L 209.10 287.72 L 208.92 279.01 L 209.32 274.86 L 209.81 284.58 L 211.11 298.06 L 211.87 309.93 L 213.26 321.93 L 214.62 328.96 L 216.13 332.26 L 217.93 334.89" fill="none" stroke="rgb(0,0,0)" stroke-width="8.00" stroke-linecap="round" stroke-linejoin="round"/>
  <path d="M 211.81 287.38 L 211.84 281.65 L 211.43 285.02 L 211.42 297.79 L 212.45 310.70 L 214.51 327.77 L 216.13 336.68 L 217.84 349.08 L 220.68 361.43 L 220.49 363.99" fill="none" stroke="rgb(0,0,0)" stroke-width="8.00" stroke-linecap="round" stroke-linejoin="round"/>
  <path d="M 204.37 335.43 L 207.84 337.11 L 210.30 337.87 L 214.49 338.07 L 216.94 337.15 L 219.01 334.62" fill="none" stroke="rgb(0,0,0)" stroke-width="8.00" stroke-linecap="round" stroke-linejoin="round"/>
  <path d="M 250.22 332.46 L 242.10 334.21 L 238.70 336.07 L 236.19 338.15 L 233.66 341.54 L 233.05 342.71 L 233.12 344.33 L 234.59 346.21 L 238.29 348.74 L 245.46 350.89 L 250.02 352.91 L 251.28 353.76 L 253.49 355.85 L 255.08 358.14 L 256.15 361.44 L 255.81 364.06 L 254.67 366.60 L 253.14 368.51 L 250.30 370.77 L 246.25 373.14 L 241.95 374.20 L 234.69 374.35" fill="none" stroke="rgb(0,0,0)" stroke-width="8.00" stroke-linecap="round" stroke-linejoin="round"/>
  <path d="M -287.52 509.53 L -290.18 510.02 L -294.98 510.27 L -297.30 510.02 L -293.20 509.24 L -265.77 507.63 L -257.99 507.36 L -235.19 507.47 L -227.52 508.56 L -221.96 510.74 L -225.11 511.50 L -227.52 512.45" fill="none" stroke="rgb(0,0,0)" stroke-width="8.00" stroke-linecap="round" stroke-linejoin="round"/>
  <path d="M -235.43 499.99 L -238.13 500.97 L -240.75 500.96 L -241.00 500.52 L -226.43 504.02 L -223.79 505.69 L -222.75 507.30 L -222.15 509.22 L -223.61 512.00 L -226.84 515.49 L -228.74 516.16 L -232.91 515.73 L -236.00 515.87" fill="none" stroke="rgb(0,0,0)" stroke-width="8.00" stroke-linecap="round" stroke-linejoin="round"/>
  <path d="M -171.74 480.24 L -171.63 477.57 L -170.59 470.54 L -170.38 473.12 L -167.71 486.49 L -166.79 494.77 L -165.17 520.94 L -163.82 530.22 L -163.32 531.37 L -162.66 531.72 L -160.49 519.77" fill="none" stroke="rgb(0,0,0)" stroke-width="8.00" stroke-linecap="round" stroke-linejoin="round"/>
  <path d="M -179.36 473.26 L -182.69 474.85 L -188.27 476.83 L -183.02 476.59 L -179.59 475.84 L -173.85 473.47 L -167.80 469.87 L -162.10 465.37 L -153.39 457.01 L -152.13 455.23 L -152.57 454.03" fill="none" stroke="rgb(0,0,0)" stroke-width="8.00" stroke-linecap="round" stroke-linejoin="round"/>
  <path d="M -139.87 517.44 L -142.32 514.28 L -145.38 506.87 L -146.09 503.74 L -145.64 500.44 L -145.18 499.81 L -144.94 500.12 L -144.15 500.09 L -139.39 499.07 L -134.01 498.98 L -130.17 499.62 L -125.13 501.07 L -120.30 503.44 L -117.19 505.49 L -116.03 506.78 L -115.42 509.98 L -115.63 511.79 L -116.84 513.72 L -119.04 515.67 L -119.67 516.87 L -119.13 519.64 L -118.66 520.40" fill="none" stroke="rgb(0,0,0)" stroke-width="8.00" stroke-linecap="round" stroke-linejoin="round"/>
  <path d="M -93.10 505.05 L -95.54 500.82 L -96.42 500.00 L -97.94 499.50 L -100.86 499.23 L -102.97 499.72 L -104.94 500.91 L -106.11 502.63 L -106.97 505.52 L -107.09 507.20 L -106.71 510.26 L -105.29 514.04 L -102.72 517.75 L -101.38 518.95 L -98.44 520.70 L -97.11 520.56 L -96.03 519.71 L -93.81 515.37 L -92.85 511.73 L -91.16 501.55 L -91.10 499.47 L -91.53 498.81 L -92.44 501.97 L -92.41 505.96 L -90.41 515.05 L -89.17 518.33 L -85.65 522.63 L -85.20 522.27 L -84.39 519.94 L -81.10 506.47 L -79.62 503.62 L -77.54 502.62 L -76.93 502.67 L -76.02 503.31 L -74.86 505.41 L -72.98 511.21 L -70.36 517.25 L -68.33 524.95 L -67.58 526.41 L -67.79 519.65 L -66.11 510.69 L -64.50 506.26 L -63.03 503.40 L -61.02 500.60 L -58.60 498.44 L -56.14 497.39 L -55.13 498.02 L -54.34 500.57 L -52.27 513.63 L -52.29 516.80 L -51.55 513.56" fill="none" stroke="rgb(0,0,0)" stroke-width="8.00" stroke-linecap="round" stroke-linejoin="round"/>
  <path d="M -32.31 492.75 L -38.54 495.11 L -46.40 499.65 L -51.15 503.80 L -52.36 505.89 L -51.80 506.72 L -44.69 509.34 L -32.82 511.43 L -30.21 512.38 L -27.89 513.86 L -26.32 515.97 L -25.70 517.91 L -25.82 518.84 L -27.26 520.93 L -30.28 523.78 L -33.83 526.15 L -42.55 529.14 L -43.07 529.09" fill="none" stroke="rgb(0,0,0)" stroke-width="8.00" stroke-linecap="round" stroke-linejoin="round"/>
  <path d="M -10.09 495.51 L -12.45 496.00 L -14.74 497.44 L -15.55 498.27 L -17.12 501.53 L -19.40 510.94 L -19.68 513.18 L -19.34 516.04 L -18.59 517.59 L -17.69 518.60 L -14.43 519.91 L -12.49 519.84 L -10.35 518.95 L -7.96 516.91 L -5.51 513.42 L -4.03 510.25 L -2.99 505.56 L -3.02 503.78 L -3.76 503.22 L -3.32 502.66 L -0.84 501.33 L 4.66 499.56 L 9.25 497.30 L 14.90 495.94 L 14.87 499.17 L 11.75 509.17 L 11.59 510.79 L 11.93 513.10 L 14.65 516.62 L 15.64 517.06 L 17.67 516.86 L 19.31 515.93 L 20.69 514.46 L 24.13 507.96 L 26.19 514.19 L 26.81 517.29 L 30.20 524.06 L 30.95 524.78 L 31.58 524.77 L 31.72 524.49" fill="none" stroke="rgb(0,0,0)" stroke-width="8.00" stroke-linecap="round" stroke-linejoin="round"/>
  <path d="M 31.53 477.45 L 31.45 477.84" fill="none" stroke="rgb(0,0,0)" stroke-width="8.00" stroke-linecap="round" stroke-linejoin="round"/>
  <path d="M 41.48 462.46 L 45.24 474.12 L 46.79 481.40 L 48.60 493.41 L 50.44 515.31 L 53.31 526.78 L 53.19 527.91" fill="none" stroke="rgb(0,0,0)" stroke-width="8.00" stroke-linecap="round" stroke-linejoin="round"/>
  <path d="M 42.93 520.12 L 43.19 520.49 L 43.34 520.32 L 44.84 512.80 L 45.72 510.27 L 46.62 508.99 L 47.75 508.17 L 48.93 507.95 L 52.51 508.16 L 62.16 510.46 L 64.52 511.36 L 65.86 512.96 L 66.45 518.94 L 65.03 524.72 L 63.08 528.36 L 61.12 529.66 L 58.76 529.52 L 51.72 527.24 L 50.09 525.95" fill="none" stroke="rgb(0,0,0)" stroke-width="8.00" stroke-linecap="round" stroke-linejoin="round"/>
  <path d="M 71.69 522.61 L 79.77 520.38 L 81.34 519.29 L 83.08 517.03 L 84.75 513.63 L 86.26 506.35 L 85.59 505.52 L 82.57 504.76 L 79.78 505.72 L 77.28 508.24 L 74.59 514.48 L 74.35 516.47 L 74.73 518.87 L 75.45 520.48 L 76.57 521.52 L 78.82 522.60 L 81.20 523.15 L 85.11 522.88 L 87.99 521.11" fill="none" stroke="rgb(0,0,0)" stroke-width="8.00" stroke-linecap="round" stroke-linejoin="round"/>
  <path d="M 96.56 516.39 L 102.19 512.09 L 102.76 509.89 L 104.67 506.05 L 104.62 504.72 L 102.94 504.16 L 101.70 504.22 L 99.80 505.29 L 98.21 507.20 L 96.21 511.02 L 95.79 512.46 L 95.46 514.46 L 95.78 517.60 L 98.40 524.35 L 100.83 526.75 L 103.15 527.39 L 108.37 527.08" fill="none" stroke="rgb(0,0,0)" stroke-width="8.00" stroke-linecap="round" stroke-linejoin="round"/>
  <path d="M -281.91 618.81 L -286.45 617.70 L -293.20 616.91 L -307.55 616.50 L -302.65 615.40 L -296.81 615.05 L -289.58 615.07 L -267.87 617.15 L -252.93 617.58 L -245.72 617.34 L -243.66 616.88 L -255.12 614.75 L -259.38 614.78 L -261.09 615.10 L -263.41 616.07 L -264.21 617.30" fill="none" stroke="rgb(0,0,0)" stroke-width="8.00" stroke-linecap="round" stroke-linejoin="round"/>
  <path d="M -256.08 616.75 L -256.08 616.75" fill="none" stroke="rgb(0,0,0)" stroke-width="8.00" stroke-linecap="round" stroke-linejoin="round"/>
  <path d="M -261.82 611.90 L -263.80 611.35 L -265.85 610.29 L -262.15 610.36 L -254.08 612.80 L -251.71 613.78 L -251.57 614.20 L -251.85 616.29 L -254.93 618.23 L -260.43 619.49 L -263.73 619.53 L -261.29 623.18" fill="none" stroke="rgb(0,0,0)" stroke-width="8.00" stroke-linecap="round" stroke-linejoin="round"/>
  <path d="M -189.81 594.06 L -190.76 587.64 L -192.20 583.55 L -194.02 581.35 L -196.08 580.69 L -206.68 580.06 L -210.84 580.47 L -214.47 581.73 L -217.22 583.29 L -219.13 584.83 L -221.31 587.46 L -222.32 590.09 L -222.29 591.22 L -221.85 593.04 L -220.03 595.46 L -216.35 597.46 L -197.29 604.82 L -195.71 606.09 L -193.10 609.52 L -190.30 614.44 L -189.27 619.70 L -189.88 623.19 L -192.92 630.02 L -195.20 632.83 L -198.08 634.08 L -199.59 634.26 L -201.63 634.06 L -207.04 632.23 L -208.85 631.36 L -210.23 630.27 L -210.06 629.21 L -208.73 627.58" fill="none" stroke="rgb(0,0,0)" stroke-width="8.00" stroke-linecap="round" stroke-linejoin="round"/>
  <path d="M -183.30 614.41 L -183.03 614.55 L -183.26 614.88 L -185.90 617.61 L -188.14 620.70 L -188.62 621.87 L -188.45 623.18 L -187.04 625.26 L -184.66 627.30 L -181.00 629.49 L -175.69 631.87 L -172.88 632.08 L -171.45 631.50 L -168.19 629.22 L -166.44 626.90 L -165.70 624.90 L -165.10 620.59 L -165.22 617.03 L -165.74 614.74 L -166.51 613.29 L -168.88 610.27 L -170.75 608.88 L -172.69 608.13 L -175.76 608.11 L -177.27 608.63 L -180.62 610.97 L -182.14 613.22 L -182.94 615.20 L -182.87 616.87 L -180.11 619.17 L -177.85 620.32 L -174.50 620.06 L -168.72 617.78" fill="none" stroke="rgb(0,0,0)" stroke-width="8.00" stroke-linecap="round" stroke-linejoin="round"/>
  <path d="M -146.11 612.32 L -148.14 611.92 L -152.95 612.59 L -155.23 613.89 L -157.08 615.68 L -159.13 620.18 L -159.71 622.39 L -159.46 624.27 L -158.37 625.98 L -156.39 627.72 L -154.11 628.89 L -150.77 628.78 L -146.84 627.18 L -145.38 626.25 L -142.75 623.92 L -141.82 622.63 L -141.75 624.40 L -139.86 629.78 L -138.18 632.24 L -135.17 634.39 L -132.74 635.34 L -130.57 635.40 L -129.48 634.83 L -129.30 634.37" fill="none" stroke="rgb(0,0,0)" stroke-width="8.00" stroke-linecap="round" stroke-linejoin="round"/>
  <path d="M -133.31 608.46 L -133.17 608.75" fill="none" stroke="rgb(0,0,0)" stroke-width="8.00" stroke-linecap="round" stroke-linejoin="round"/>
  <path d="M -114.99 622.35 L -116.93 621.34 L -121.35 620.06 L -123.10 620.32 L -124.46 621.44 L -126.54 627.34 L -126.74 631.02 L -126.40 632.65 L -125.62 634.15 L -123.76 636.19 L -122.77 636.69 L -121.76 636.70 L -119.35 635.41 L -117.47 633.01 L -116.58 630.74 L -115.19 624.14 L -115.24 621.68 L -117.04 626.61 L -117.17 629.02 L -116.90 631.15 L -115.49 634.09 L -114.43 635.03 L -111.97 636.26 L -110.79 636.43 L -108.37 636.17 L -104.42 634.80 L -100.98 632.05 L -97.71 628.00 L -93.48 619.83 L -90.73 613.63 L -89.49 609.83 L -89.02 605.91 L -89.03 601.18 L -90.18 596.20 L -92.85 590.18 L -94.82 588.50 L -96.22 588.49 L -97.53 590.33 L -99.69 598.69 L -100.35 604.92 L -100.33 610.80 L -99.73 617.06 L -98.90 623.12 L -97.49 629.42 L -95.90 633.53 L -93.13 638.16 L -91.14 639.98 L -88.67 640.77 L -86.84 640.77 L -85.10 639.89 L -82.16 637.10 L -80.18 634.48" fill="none" stroke="rgb(0,0,0)" stroke-width="8.00" stroke-linecap="round" stroke-linejoin="round"/>
  <path d="M -38.69 582.26 L -36.24 587.24 L -34.64 592.25 L -33.92 595.83 L -32.65 608.19 L -30.85 618.16 L -28.60 626.41 L -26.86 635.13 L -26.27 636.25 L -25.70 634.11" fill="none" stroke="rgb(0,0,0)" stroke-width="8.00" stroke-linecap="round" stroke-linejoin="round"/>
  <path d="M -21.76 585.98 L -18.27 599.11 L -15.80 610.27 L -14.39 614.95 L -12.76 619.05 L -7.06 629.64" fill="none" stroke="rgb(0,0,0)" stroke-width="8.00" stroke-linecap="round" stroke-linejoin="round"/>
  <path d="M -34.43 622.56 L -30.07 624.17 L -26.58 624.42 L -24.06 624.40 L -19.84 623.80 L -13.80 622.31 L -12.38 622.36 L -11.87 622.74" fill="none" stroke="rgb(0,0,0)" stroke-width="8.00" stroke-linecap="round" stroke-linejoin="round"/>
  <path d="M -2.47 625.81 L 2.07 626.26 L 3.98 625.84 L 5.83 625.00 L 6.66 623.89 L 7.15 622.54 L 7.62 618.56 L 7.10 617.84 L 4.14 617.41 L 2.23 618.47 L 0.73 619.94 L -0.61 622.09 L -1.94 625.44 L -2.25 627.49 L -1.87 629.73 L 0.02 633.59 L 1.83 634.89 L 3.41 635.33 L 5.02 635.07 L 6.51 634.33 L 10.45 632.21 L 11.86 630.96" fill="none" stroke="rgb(0,0,0)" stroke-width="8.00" stroke-linecap="round" stroke-linejoin="round"/>
  <path d="M 27.45 622.09 L 22.55 620.78 L 19.09 620.81 L 16.67 621.42 L 15.00 622.25 L 13.10 623.68 L 12.39 624.90 L 12.74 627.41 L 15.69 632.64 L 17.51 634.14 L 20.84 635.59 L 22.25 635.47 L 23.97 634.60 L 25.78 632.69 L 26.55 631.19 L 27.83 626.27 L 27.68 624.69 L 27.22 625.96 L 27.09 628.04 L 27.65 630.41 L 28.87 631.74 L 29.91 632.00 L 31.55 631.76 L 33.96 630.20 L 38.86 624.59 L 45.71 618.54 L 45.07 623.90 L 45.21 629.70 L 46.42 633.86 L 47.68 636.09 L 48.81 636.96 L 49.60 637.14 L 50.40 637.06 L 51.91 636.10 L 53.33 634.42 L 54.91 631.59 L 55.74 628.55" fill="none" stroke="rgb(0,0,0)" stroke-width="8.00" stroke-linecap="round" stroke-linejoin="round"/>
  <path d="M 57.62 589.00 L 61.29 617.67 L 64.17 625.32 L 68.85 632.09" fill="none" stroke="rgb(0,0,0)" stroke-width="8.00" stroke-linecap="round" stroke-linejoin="round"/>
  <path d="M 52.16 623.01 L 54.62 623.40 L 58.71 623.37 L 66.66 621.20" fill="none" stroke="rgb(0,0,0)" stroke-width="8.00" stroke-linecap="round" stroke-linejoin="round"/>
  <path d="M 77.22 595.30 L 78.11 603.39 L 78.34 614.22 L 79.14 620.55 L 80.40 624.99 L 82.88 629.69 L 84.91 631.69 L 83.34 628.76 L 81.31 626.45 L 80.43 624.28 L 80.36 622.82 L 80.67 621.38 L 81.76 619.24 L 83.44 617.17 L 84.54 616.50 L 88.05 615.97 L 91.78 617.51 L 94.21 618.83 L 96.95 620.91 L 98.47 622.51 L 98.86 623.55 L 99.17 625.38 L 98.26 628.26 L 95.80 632.48 L 93.47 634.73 L 90.55 635.82 L 89.03 636.06 L 86.57 635.81 L 84.24 635.15 L 82.29 633.85 L 83.49 632.78 L 85.34 631.75" fill="none" stroke="rgb(0,0,0)" stroke-width="8.00" stroke-linecap="round" stroke-linejoin="round"/>
  <path d="M 103.67 622.92 L 111.08 621.13 L 114.33 619.62 L 115.48 618.68 L 116.40 617.00 L 116.01 616.20 L 114.07 615.78 L 112.68 615.72 L 109.93 616.33 L 106.82 618.00 L 106.02 618.77 L 104.57 620.78 L 103.68 623.07 L 103.87 624.51 L 104.62 625.91 L 105.85 627.02 L 109.17 628.67 L 111.12 628.98 L 113.87 628.69 L 121.33 626.13" fill="none" stroke="rgb(0,0,0)" stroke-width="8.00" stroke-linecap="round" stroke-linejoin="round"/>
  <path d="M 135.28 620.03 L 132.88 617.77 L 130.95 616.48 L 127.77 615.64 L 125.79 615.97 L 124.17 616.86 L 122.88 618.18 L 120.83 621.63 L 121.10 623.13 L 123.37 625.59 L 124.74 626.08 L 126.71 625.80 L 128.97 624.59 L 132.23 621.62 L 134.40 620.84 L 135.88 622.57 L 139.10 631.27 L 140.75 631.56 L 142.20 630.84 L 143.29 629.87 L 144.47 627.92" fill="none" stroke="rgb(0,0,0)" stroke-width="8.00" stroke-linecap="round" stroke-linejoin="round"/>
  <path d="M 152.62 579.40 L 152.92 613.21 L 153.80 619.79 L 155.05 625.67 L 156.16 628.01 L 156.00 627.37 L 156.42 626.02" fill="none" stroke="rgb(0,0,0)" stroke-width="8.00" stroke-linecap="round" stroke-linejoin="round"/>
</svg>
