<?xml version="1.0" encoding="UTF-8"?>
<svg xmlns="http://www.w3.org/2000/svg" viewBox="-593.6 272.7 1216.6 1374.4" width="1217" height="1374">
<rect x="-593.6" y="272.7" width="1216.6" height="1374.4" fill="white"/>
  <path d="M -346.75 414.94 L -342.47 419.19 L -339.75 421.18 L -337.28 422.50 L -336.63 422.75" fill="none" stroke="rgb(0,0,0)" stroke-width="5.97" stroke-linecap="round" stroke-linejoin="round"/>
  <path d="M -464.92 365.77 L -464.89 366.01 L -464.87 366.15 L -464.83 366.35 L -465.04 367.14 L -465.13 368.83 L -465.18 370.97 L -464.88 375.55 L -464.25 383.68 L -461.94 401.72 L -460.03 413.21 L -458.11 422.76 L -455.75 432.29 L -453.53 441.84 L -447.46 467.19 L -443.18 483.44 L -440.76 490.32 L -433.21 508.91 L -426.36 523.03 L -426.30 523.10 L -426.30 523.08 L -426.35 522.94 L -426.40 522.68 L -426.46 522.32 L -426.76 521.21" fill="none" stroke="rgb(0,168,0)" stroke-width="19.56" stroke-linecap="round" stroke-linejoin="round"/>
  <path d="M -469.37 484.89 L -475.78 473.13 L -480.09 462.64 L -485.00 448.86 L -487.27 440.49 L -488.37 434.50 L -489.92 420.20 L -490.31 400.91 L -489.62 390.47 L -488.42 382.95 L -485.69 373.21 L -482.82 366.07 L -479.44 359.35 L -475.67 353.37 L -471.53 348.22 L -465.66 342.53 L -460.81 338.77 L -455.48 335.58 L -449.36 332.66 L -439.88 329.38 L -429.94 326.96 L -422.21 325.97 L -414.52 325.92 L -406.82 326.72 L -397.05 328.78 L -389.76 331.17 L -382.82 334.39 L -376.47 338.08 L -372.42 341.19 L -366.72 346.99 L -363.23 351.47 L -359.96 356.48 L -355.53 364.59 L -353.03 370.07 L -350.87 375.59 L -347.91 384.59 L -345.09 396.59 L -343.77 408.02 L -343.87 413.87 L -344.41 419.96 L -347.44 435.34 L -350.01 444.51 L -355.82 460.43 L -358.61 466.85 L -361.84 473.19 L -370.73 488.57 L -376.25 496.88 L -380.04 501.86 L -389.71 512.76 L -395.33 518.13 L -400.86 522.70 L -406.36 526.61 L -414.67 531.72 L -423.22 536.49 L -426.26 537.88 L -426.51 537.93 L -426.43 537.47" fill="none" stroke="rgb(0,168,0)" stroke-width="13.68" stroke-linecap="round" stroke-linejoin="round"/>
  <path d="M -341.60 470.32 L -341.68 472.00 L -341.59 473.42 L -340.76 482.06 L -339.86 487.46 L -338.28 493.83 L -335.88 500.25 L -332.17 505.55 L -326.20 510.61 L -322.90 512.19 L -318.49 512.85 L -315.69 512.40 L -313.04 511.33 L -309.59 508.52 L -303.51 500.39 L -299.68 492.55 L -295.67 480.71 L -293.70 470.65 L -293.35 461.82 L -293.72 459.05 L -294.86 454.98 L -296.51 450.96 L -298.14 448.42 L -302.16 443.42 L -306.42 439.09 L -313.72 433.91 L -316.31 432.67 L -320.53 431.37 L -323.23 431.11 L -327.19 431.48 L -332.31 433.52 L -334.75 435.18 L -337.01 437.36 L -339.77 440.96 L -342.05 444.71 L -343.12 447.25 L -343.93 449.71 L -344.15 450.90 L -344.45 453.13 L -344.56 454.07 L -344.37 455.71 L -343.66 457.90 L -343.27 458.52 L -341.97 460.36 L -340.71 461.51 L -339.95 462.08 L -338.13 463.24 L -332.91 466.38 L -330.43 467.55 L -324.96 469.80 L -320.80 471.17 L -309.70 473.30 L -303.31 472.96 L -292.27 470.07 L -291.22 469.50 L -295.62 468.75 L -297.57 468.85" fill="none" stroke="rgb(0,168,0)" stroke-width="13.00" stroke-linecap="round" stroke-linejoin="round"/>
  <path d="M -57.74 346.15 L -56.55 342.98 L -55.01 336.07 L -54.60 333.84 L -54.67 330.42 L -55.66 326.61 L -58.36 319.44 L -59.72 316.39 L -62.58 311.84 L -65.41 308.50 L -69.75 304.69 L -79.00 298.65 L -87.29 294.69 L -93.39 293.08 L -101.67 292.71 L -106.87 293.36 L -112.17 294.61 L -117.12 296.36 L -121.95 298.61 L -134.87 306.23 L -138.04 308.57 L -140.99 311.13 L -148.84 319.16 L -151.94 323.25 L -155.79 329.90 L -157.78 334.84 L -159.08 342.19 L -158.99 347.67 L -158.06 353.44 L -155.94 361.36 L -153.30 367.79 L -151.52 370.79 L -149.63 373.67 L -147.49 376.39 L -145.09 378.89 L -139.42 383.68 L -133.10 388.44 L -118.11 398.23 L -112.75 401.08 L -102.98 405.32 L -80.47 413.58 L -78.08 414.26 L -60.86 417.35 L -46.79 421.35 L -38.04 424.82 L -27.64 429.67 L -20.43 434.26 L -14.43 439.11 L -11.81 441.53 L -9.52 444.07 L -4.61 450.20 L -2.48 453.79 L -1.46 456.24 L -0.75 459.09 L -0.35 462.16 L -0.27 463.73 L -0.41 468.63 L -0.88 472.12 L -2.04 477.42 L -3.70 482.70 L -6.04 487.27 L -7.78 489.88 L -9.76 492.20 L -11.92 494.27 L -14.51 496.22 L -18.68 498.81 L -28.81 503.64 L -34.70 505.88 L -40.66 507.58 L -44.78 508.44 L -51.08 509.17 L -57.66 509.10 L -61.88 508.66 L -67.99 507.50 L -75.53 504.83 L -84.27 500.26 L -91.95 495.16 L -95.40 492.23 L -97.62 491.31 L -99.21 490.20 L -100.48 488.44 L -101.23 485.93 L -101.52 483.82 L -101.35 481.97" fill="none" stroke="rgb(0,168,0)" stroke-width="13.21" stroke-linecap="round" stroke-linejoin="round"/>
  <path d="M 40.14 435.09 L 36.63 435.61 L 29.73 437.68 L 25.19 439.65 L 21.01 442.41 L 17.16 445.87 L 9.95 454.10 L 8.10 456.98 L 6.20 461.38 L 5.47 465.29 L 4.74 471.69 L 4.56 476.70 L 5.14 483.38 L 6.58 488.58 L 9.09 492.71 L 11.49 495.62 L 17.52 501.68 L 22.98 506.16 L 26.46 508.37 L 29.99 509.82 L 32.39 510.30 L 34.96 510.56 L 38.87 510.28 L 43.00 509.30 L 48.53 506.87 L 52.47 504.43 L 56.33 501.18 L 63.13 494.29 L 66.22 490.03 L 67.95 486.86 L 73.24 475.49 L 76.80 465.55 L 78.13 460.50 L 78.65 455.63 L 78.71 452.64 L 78.05 448.35 L 76.48 444.38 L 74.99 441.75 L 71.21 436.80 L 65.89 431.07 L 61.04 426.82 L 56.99 424.31 L 52.76 422.33 L 48.47 421.21 L 44.15 421.10 L 39.84 421.76 L 34.61 424.01 L 32.12 425.64 L 26.60 430.88 L 24.67 433.24 L 20.71 439.25 L 19.11 442.63 L 18.57 444.77 L 18.27 447.60 L 18.51 449.21 L 18.75 449.95 L 19.43 451.39 L 19.87 451.96 L 21.56 453.21 L 22.93 454.00 L 25.37 455.23 L 31.39 457.31 L 40.96 459.40 L 44.97 459.92 L 47.83 460.20 L 52.05 460.28 L 57.12 460.02 L 63.30 459.30 L 69.09 457.60 L 69.71 457.19 L 69.73 456.79 L 69.65 456.75 L 68.72 456.57 L 68.26 456.56" fill="none" stroke="rgb(0,168,0)" stroke-width="12.39" stroke-linecap="round" stroke-linejoin="round"/>
  <path d="M 111.64 428.51 L 111.67 428.57 L 111.72 428.77 L 110.34 431.55 L 108.53 437.61 L 108.07 442.00 L 108.12 448.09 L 108.72 452.53 L 110.05 459.98 L 111.49 473.91 L 111.73 479.40 L 112.69 487.17 L 113.09 489.34 L 113.37 490.30 L 113.64 491.10 L 113.78 491.42 L 114.06 491.76 L 114.34 492.18 L 115.03 493.06 L 115.14 493.49 L 115.12 493.52 L 115.11 493.53 L 115.10 493.52 L 115.01 493.50 L 114.73 493.39 L 113.57 492.96 L 112.31 492.44 L 111.17 492.17 L 110.77 491.81 L 110.59 491.53 L 110.32 490.99 L 110.41 490.43" fill="none" stroke="rgb(0,168,0)" stroke-width="17.37" stroke-linecap="round" stroke-linejoin="round"/>
  <path d="M 107.88 468.18 L 107.91 468.18 L 108.04 467.67 L 108.21 466.90 L 110.46 456.26 L 111.19 454.41 L 115.37 448.54 L 121.31 443.17 L 124.11 441.25 L 127.06 439.93 L 135.48 437.23 L 142.58 436.66 L 145.54 437.13 L 147.51 437.65 L 150.47 438.71 L 151.46 439.16 L 154.19 440.65 L 157.63 443.12 L 159.11 444.39 L 163.16 448.78 L 165.11 451.10 L 168.24 456.13 L 169.88 460.84 L 171.09 465.88 L 172.41 478.71 L 172.54 482.61 L 172.47 489.34 L 172.51 490.15 L 172.53 490.11 L 172.54 490.03 L 172.58 489.82 L 172.57 489.51 L 172.42 488.75" fill="none" stroke="rgb(0,168,0)" stroke-width="13.34" stroke-linecap="round" stroke-linejoin="round"/>
  <path d="M 175.66 490.47 L 175.01 488.36 L 174.02 482.70 L 173.63 475.50 L 174.01 466.98 L 175.68 459.34 L 177.02 455.69 L 178.86 452.41 L 182.87 447.78 L 184.83 446.17 L 186.51 445.15 L 188.32 444.31 L 192.06 443.27 L 201.53 442.67 L 205.64 443.26 L 208.65 444.05 L 211.23 445.08 L 212.63 445.95 L 213.85 446.90 L 215.32 448.48 L 216.25 449.89 L 217.18 451.39 L 218.82 455.30 L 219.70 458.79 L 220.52 466.10 L 220.50 472.76 L 219.95 476.83 L 218.00 483.71 L 218.07 484.69 L 217.84 484.59 L 217.05 484.09 L 216.55 483.66 L 216.22 483.23 L 215.91 482.63" fill="none" stroke="rgb(0,168,0)" stroke-width="12.60" stroke-linecap="round" stroke-linejoin="round"/>
  <path d="M 241.10 471.69 L 241.17 471.27 L 242.20 470.82 L 251.08 469.74 L 255.03 468.76 L 257.77 467.30 L 261.43 464.00 L 264.44 458.83 L 266.30 452.79 L 266.83 447.06 L 266.08 444.39 L 264.94 442.96 L 263.81 442.28 L 261.04 441.57 L 256.35 441.58 L 252.91 442.21 L 244.51 444.98 L 238.88 448.26 L 233.58 452.57 L 229.57 456.54 L 225.10 462.10 L 222.69 466.21 L 221.51 469.00 L 220.81 471.78 L 220.64 473.18 L 220.45 475.90 L 220.80 479.91 L 221.43 482.39 L 222.89 485.95 L 224.29 488.03 L 226.87 490.59 L 228.83 492.06 L 230.91 493.48 L 233.13 494.65 L 235.33 495.61 L 237.67 496.51 L 240.06 497.04 L 245.86 497.97 L 248.13 497.98 L 250.36 497.86 L 253.61 497.63 L 261.27 495.99 L 264.93 494.70 L 267.07 493.33 L 267.14 492.65 L 266.41 491.56 L 265.77 491.01 L 265.41 490.71 L 264.67 490.11 L 264.30 489.81 L 262.43 488.47" fill="none" stroke="rgb(0,168,0)" stroke-width="13.63" stroke-linecap="round" stroke-linejoin="round"/>
  <path d="M 281.96 333.92 L 281.90 334.90 L 281.58 337.26 L 281.02 341.30 L 280.81 350.80 L 281.23 357.36 L 282.94 370.05 L 283.18 374.96 L 283.17 380.99 L 282.84 396.11 L 282.11 413.23 L 282.17 436.52 L 283.47 455.33 L 284.41 462.92 L 286.51 475.01 L 288.96 485.42 L 290.72 490.58 L 292.57 494.80 L 294.00 497.06 L 296.25 499.92 L 298.54 502.04 L 300.23 503.35 L 303.78 505.34 L 309.77 506.71 L 312.92 506.64 L 316.05 506.11 L 322.16 504.08 L 324.97 502.76 L 331.17 499.01 L 332.14 497.69 L 332.57 496.11 L 332.57 494.74 L 331.96 493.07 L 331.03 491.70 L 328.98 488.96" fill="none" stroke="rgb(0,168,0)" stroke-width="13.67" stroke-linecap="round" stroke-linejoin="round"/>
  <path d="M 259.29 413.41 L 259.39 413.48 L 259.62 413.60 L 260.85 414.45 L 262.58 415.27 L 267.75 417.09 L 274.60 418.96 L 278.17 419.57 L 288.51 420.10 L 300.44 419.51 L 303.01 419.15 L 304.11 418.67" fill="none" stroke="rgb(0,168,0)" stroke-width="11.56" stroke-linecap="round" stroke-linejoin="round"/>
  <path d="M 329.47 353.01 L 329.89 358.03 L 331.72 371.14 L 336.34 393.87 L 338.44 406.68 L 339.68 418.78 L 340.89 434.10 L 342.22 453.22 L 343.72 466.28 L 347.07 484.30 L 348.92 492.08 L 351.10 497.41 L 356.63 507.96 L 357.13 509.10 L 357.47 510.32 L 357.59 510.97 L 357.71 511.40 L 357.70 511.44 L 357.65 511.42 L 357.50 511.29 L 357.32 511.02 L 356.68 510.22 L 356.33 509.65 L 353.16 501.91 L 352.71 500.25 L 352.26 498.30 L 352.08 497.75 L 351.85 496.67 L 351.85 496.23 L 351.92 495.62 L 352.24 495.28" fill="none" stroke="rgb(0,168,0)" stroke-width="13.57" stroke-linecap="round" stroke-linejoin="round"/>
  <path d="M 349.38 483.95 L 348.58 482.55 L 348.27 481.77 L 347.98 479.26 L 347.91 476.25 L 348.62 470.08 L 350.85 459.36 L 352.10 456.01 L 353.87 452.69 L 358.04 445.86 L 361.23 441.55 L 365.80 437.11 L 367.65 436.11 L 369.46 435.58 L 373.46 435.54 L 375.48 436.04 L 378.79 437.69 L 382.65 440.13 L 386.59 443.40 L 390.66 447.57 L 393.00 450.76 L 395.00 454.16 L 397.32 459.21 L 399.80 465.90 L 400.57 469.20 L 402.03 479.93 L 402.12 487.81 L 401.69 492.06 L 400.55 496.80 L 398.63 502.56 L 397.06 505.59 L 396.81 505.79 L 396.56 505.93 L 396.38 506.06 L 395.81 506.30 L 395.03 506.08 L 393.45 505.08 L 392.62 503.70 L 392.91 500.89 L 393.93 498.82 L 394.97 497.53" fill="none" stroke="rgb(0,168,0)" stroke-width="13.24" stroke-linecap="round" stroke-linejoin="round"/>
  <path d="M 427.54 453.70 L 426.16 448.48 L 424.28 443.60 L 422.73 440.37 L 422.03 439.83 L 421.77 439.93 L 421.72 440.18 L 421.60 440.52 L 420.75 443.24 L 420.66 444.16 L 420.63 446.24 L 420.50 448.76 L 420.50 450.21 L 420.91 463.17 L 421.72 471.19 L 422.47 475.52 L 424.46 482.95 L 427.25 489.85 L 429.14 493.49 L 429.45 493.82 L 429.99 494.26 L 430.33 494.59 L 430.68 494.81 L 431.03 494.67 L 431.02 493.89 L 430.28 491.75 L 429.43 488.99 L 428.01 483.32" fill="none" stroke="rgb(0,168,0)" stroke-width="13.07" stroke-linecap="round" stroke-linejoin="round"/>
  <path d="M 411.72 393.17 L 411.78 393.85 L 412.25 396.38 L 412.88 402.62" fill="none" stroke="rgb(0,168,0)" stroke-width="11.62" stroke-linecap="round" stroke-linejoin="round"/>
  <path d="M 467.92 476.70 L 467.91 476.68" fill="none" stroke="rgb(0,168,0)" stroke-width="9.00" stroke-linecap="round" stroke-linejoin="round"/>
  <path d="M 460.80 442.35 L 460.80 442.47 L 460.88 443.06 L 461.56 448.03 L 461.93 451.08 L 462.47 456.38 L 463.24 461.61 L 463.99 468.25 L 464.82 477.10 L 465.73 488.53 L 466.36 495.13 L 467.66 501.31 L 469.07 505.65 L 471.49 510.88 L 472.04 511.70 L 472.62 512.25 L 473.13 512.87 L 473.26 512.99 L 473.38 513.03 L 473.55 513.14 L 473.85 511.39 L 473.75 507.16 L 473.83 504.52 L 473.64 503.65 L 473.56 502.78 L 473.74 500.78" fill="none" stroke="rgb(0,168,0)" stroke-width="14.51" stroke-linecap="round" stroke-linejoin="round"/>
  <path d="M 465.31 483.72 L 465.47 483.64 L 474.95 466.52 L 477.09 463.16 L 481.42 457.43 L 485.66 453.08 L 491.22 449.02 L 493.38 448.02 L 496.73 447.06 L 499.35 446.67 L 502.09 446.77 L 507.20 448.35 L 510.79 450.17 L 513.10 451.79 L 517.34 455.16 L 522.03 459.82 L 525.48 464.56 L 526.54 466.70 L 527.49 469.09 L 528.24 471.78 L 529.35 477.98 L 529.67 482.87 L 529.91 489.98 L 529.69 493.41 L 529.13 498.13 L 527.80 505.53 L 525.52 515.95 L 525.32 516.38 L 524.82 517.29 L 524.67 517.52 L 524.68 517.51 L 524.63 517.45 L 524.42 517.50 L 524.19 517.24 L 522.73 516.88 L 520.97 515.21 L 520.57 514.37 L 520.44 513.29 L 520.76 510.00" fill="none" stroke="rgb(0,168,0)" stroke-width="14.60" stroke-linecap="round" stroke-linejoin="round"/>
  <path d="M 590.47 458.58 L 590.48 458.49 L 590.57 458.08 L 591.84 454.75 L 591.75 453.64 L 591.34 452.91 L 590.74 452.62 L 586.66 452.40 L 582.24 452.59 L 578.61 453.13 L 570.87 455.32 L 566.60 457.44 L 562.72 460.12 L 558.81 463.85 L 555.33 467.94 L 549.03 477.65 L 546.76 482.47 L 545.31 487.19 L 544.61 491.99 L 544.37 496.22 L 544.60 498.91 L 544.92 501.29 L 545.44 503.38 L 546.58 506.04 L 547.56 507.77 L 549.12 510.04 L 550.33 511.23 L 552.44 512.56 L 555.42 513.26 L 558.05 513.00 L 561.04 512.17 L 566.78 508.81 L 574.20 502.25 L 580.91 495.26 L 586.83 487.96 L 589.35 484.08 L 591.46 479.86 L 592.97 474.69 L 593.39 470.63 L 593.29 462.88 L 591.67 454.94 L 589.07 446.08 L 588.74 445.84 L 588.74 445.91 L 588.77 446.17 L 588.73 446.54 L 588.74 447.98 L 589.51 451.34 L 590.32 455.54 L 590.75 457.25 L 591.92 460.84 L 593.95 466.46 L 595.17 470.35 L 599.70 487.51 L 602.28 502.72 L 602.84 508.85 L 603.03 513.35 L 602.96 520.13 L 601.96 529.78 L 600.36 538.95 L 598.75 545.98 L 596.70 553.17 L 595.04 557.47 L 593.00 561.08 L 589.42 565.72 L 585.38 569.12 L 582.60 570.64 L 579.41 571.83 L 576.23 572.54 L 573.11 573.10 L 568.15 573.67 L 560.71 574.25 L 556.89 574.09 L 551.05 573.21 L 544.89 571.54 L 543.22 570.78 L 538.93 568.27 L 537.97 567.42 L 537.19 566.25" fill="none" stroke="rgb(0,168,0)" stroke-width="14.53" stroke-linecap="round" stroke-linejoin="round"/>
  <path d="M -425.93 716.94 L -427.95 711.79 L -430.18 704.66 L -430.17 704.85 L -430.06 705.48 L -429.92 706.85 L -428.97 711.92 L -426.35 722.97 L -422.51 734.84 L -416.84 750.84 L -412.71 764.80 L -406.60 786.13 L -402.67 798.20 L -396.08 817.85 L -393.53 825.21 L -385.50 847.31 L -380.28 859.99 L -377.19 865.38 L -376.52 866.90 L -373.87 872.19 L -373.69 872.74 L -373.54 873.28 L -373.31 874.29 L -373.11 874.96 L -372.60 876.12" fill="none" stroke="rgb(0,168,0)" stroke-width="17.88" stroke-linecap="round" stroke-linejoin="round"/>
  <path d="M -416.81 874.75 L -418.71 869.72 L -420.58 863.69 L -423.03 853.39 L -424.86 843.27 L -428.02 814.85 L -428.71 802.13 L -428.67 791.74 L -427.09 769.40 L -425.49 754.90 L -424.08 746.21 L -421.60 734.19 L -420.10 728.05 L -417.31 719.05 L -412.93 707.78 L -407.91 696.49 L -400.34 682.99 L -393.70 673.44 L -387.05 665.46 L -380.09 658.16 L -372.41 651.72 L -366.23 647.74 L -357.66 644.10 L -353.19 642.87 L -348.57 641.80 L -339.41 640.62 L -323.12 640.61 L -312.40 641.80 L -308.35 642.93 L -304.58 644.38 L -300.93 646.18 L -297.36 648.09 L -294.00 650.23 L -289.47 653.59 L -285.74 657.18 L -282.90 661.05 L -280.52 664.98 L -278.75 669.15 L -277.57 673.79 L -277.19 679.09 L -277.51 685.09 L -278.01 689.42 L -279.51 696.11 L -282.60 704.85 L -285.85 711.69 L -293.12 724.27 L -300.00 734.66 L -311.05 750.00 L -318.93 759.48 L -326.85 768.10 L -334.96 775.78 L -354.65 793.41 L -362.19 799.38 L -368.99 804.07 L -378.35 809.55 L -382.83 811.84 L -386.17 813.03 L -387.47 813.80 L -387.75 813.85" fill="none" stroke="rgb(0,168,0)" stroke-width="13.83" stroke-linecap="round" stroke-linejoin="round"/>
  <path d="M -280.10 823.80 L -278.78 824.68 L -275.03 826.36 L -271.40 827.09 L -267.65 826.30 L -263.46 824.12 L -258.69 819.95 L -250.05 810.46 L -244.19 803.31 L -238.36 795.03 L -232.77 783.68 L -231.33 779.96 L -230.31 775.35 L -230.20 769.97 L -231.43 764.82 L -233.84 760.88 L -236.64 758.69 L -239.40 757.69 L -241.52 757.49 L -246.30 758.12 L -252.59 760.92 L -259.65 765.99 L -265.01 771.00 L -271.40 778.58 L -273.71 782.26 L -278.10 790.59 L -281.75 799.38 L -283.99 806.14 L -285.47 813.02 L -286.23 822.16 L -286.08 826.88 L -284.74 836.20 L -282.80 842.57 L -280.11 848.38 L -276.92 853.33 L -275.75 854.74 L -273.24 857.22 L -268.88 860.12 L -264.13 862.06 L -260.59 862.83 L -258.77 863.00 L -255.00 863.16 L -251.18 862.87 L -249.14 862.57 L -242.90 861.20 L -238.74 859.84 L -234.60 858.20 L -228.48 855.06 L -220.22 850.05 L -211.96 844.17 L -206.41 839.65 L -198.91 832.73 L -197.67 831.41 L -194.19 827.63 L -190.22 822.92" fill="none" stroke="rgb(0,168,0)" stroke-width="13.36" stroke-linecap="round" stroke-linejoin="round"/>
  <path d="M -109.59 763.96 L -112.90 760.55 L -118.22 753.79 L -120.63 751.35 L -122.26 750.17 L -124.87 749.00 L -126.61 748.63 L -134.03 749.06 L -137.34 749.88 L -140.84 751.50 L -144.02 753.64 L -149.22 758.15 L -154.68 764.88 L -161.31 775.13 L -162.78 778.02 L -163.99 781.13 L -165.94 787.93 L -166.70 793.37 L -167.27 799.28 L -167.36 803.12 L -167.06 808.79 L -166.60 812.42 L -165.51 817.49 L -164.43 820.75 L -163.11 823.98 L -161.54 827.20 L -159.02 831.78 L -156.20 835.80 L -154.11 838.13 L -151.76 840.14 L -147.90 842.44 L -144.95 843.43 L -143.43 843.76 L -141.90 843.96 L -138.83 844.19 L -135.77 843.97 L -132.76 843.31 L -129.80 842.38 L -125.48 840.18 L -121.17 837.33 L -118.20 835.01 L -115.53 832.40 L -110.50 826.12 L -103.94 815.53 L -99.50 806.51 L -95.77 795.52 L -94.17 786.63 L -93.91 775.23 L -94.44 770.76 L -96.16 764.07 L -97.45 760.49 L -99.37 756.44 L -100.88 754.25 L -102.50 752.88 L -103.61 752.37 L -105.71 752.31 L -107.14 753.09 L -109.13 755.35 L -110.76 758.61 L -112.33 762.89 L -114.35 773.21 L -114.36 777.26 L -114.04 780.22 L -113.27 785.12 L -111.25 793.67 L -110.03 797.12 L -106.68 805.83 L -102.06 816.53 L -99.46 820.79 L -96.77 824.54 L -93.97 827.64 L -92.00 829.49 L -85.86 833.51 L -83.63 834.32 L -82.40 834.55 L -79.81 834.88 L -77.31 834.96 L -74.88 834.77 L -73.68 834.56 L -71.32 834.05 L -70.15 833.70 L -67.84 832.92 L -65.56 831.76 L -63.47 830.46 L -61.69 828.94 L -58.37 825.00 L -56.47 822.38 L -55.77 821.29 L -54.42 818.38 L -53.85 816.09" fill="none" stroke="rgb(0,168,0)" stroke-width="15.13" stroke-linecap="round" stroke-linejoin="round"/>
  <path d="M -18.19 740.31 L -18.09 740.77 L -17.63 743.11 L -16.88 746.52 L -16.14 750.32 L -13.67 760.83 L -12.01 767.57 L -10.18 774.37 L -8.95 779.11 L -7.13 786.68 L -4.68 799.70 L -2.86 808.06 L -0.01 822.83 L 4.30 851.76 L 5.64 859.61 L 9.83 879.80 L 13.74 894.61 L 14.07 896.56 L 14.72 901.47 L 15.23 902.74 L 15.30 903.09 L 15.30 903.41 L 15.23 903.45 L 14.98 903.30 L 14.63 903.07 L 13.89 902.45 L 13.03 901.55 L 11.99 900.33" fill="none" stroke="rgb(0,168,0)" stroke-width="19.34" stroke-linecap="round" stroke-linejoin="round"/>
  <path d="M -25.14 839.33 L -27.94 833.98 L -30.11 828.71 L -34.37 816.06 L -35.91 807.66 L -36.94 798.61 L -36.62 790.21 L -35.49 781.84 L -34.50 777.25 L -32.89 772.34 L -28.42 761.34 L -24.66 753.72 L -19.00 745.08 L -13.88 739.11 L -7.75 733.63 L -2.74 730.06 L 2.49 726.91 L 15.57 720.35 L 25.14 716.77 L 32.59 715.01 L 36.07 714.54 L 42.73 714.30 L 45.74 714.34 L 48.58 714.78 L 52.41 716.18 L 54.96 717.56 L 57.32 719.20 L 58.41 720.13 L 60.56 722.09 L 62.52 724.08 L 64.93 727.29 L 66.24 729.61 L 67.53 733.22 L 68.44 737.30 L 68.63 740.17 L 68.47 744.71 L 68.04 748.25 L 67.33 752.00 L 65.77 758.07 L 63.56 764.48 L 61.69 768.71 L 57.53 776.77 L 46.35 795.66 L 37.22 809.00 L 26.58 822.18 L 21.54 827.64 L 17.92 830.88 L 15.48 832.53 L 13.54 833.15" fill="none" stroke="rgb(0,168,0)" stroke-width="13.88" stroke-linecap="round" stroke-linejoin="round"/>
  <path d="M 70.49 594.91 L 70.54 595.07 L 70.56 595.60 L 70.59 597.92 L 70.71 599.36 L 71.16 604.37 L 71.33 606.13 L 72.87 613.42 L 77.51 625.72 L 81.52 634.78 L 86.21 648.72 L 88.43 656.39 L 90.54 664.26 L 91.91 670.09 L 96.00 688.77 L 98.24 701.26 L 101.29 725.54 L 103.08 744.62 L 103.85 758.84 L 104.04 760.98 L 104.31 764.96 L 104.73 770.12 L 105.69 775.99 L 106.29 778.41 L 107.20 781.39 L 108.07 785.06 L 108.61 786.58 L 109.67 789.28 L 110.53 790.89 L 111.41 792.12 L 111.98 793.07 L 112.37 793.81 L 112.69 794.55 L 112.85 794.82 L 112.76 794.86 L 112.48 794.76 L 112.11 794.62 L 111.73 794.46 L 110.89 793.90" fill="none" stroke="rgb(0,168,0)" stroke-width="23.13" stroke-linecap="round" stroke-linejoin="round"/>
  <path d="M 167.21 782.69 L 167.33 782.77 L 169.68 785.14 L 174.16 788.87 L 176.34 790.31 L 179.61 791.63 L 181.87 792.14 L 185.48 791.96 L 190.34 789.95 L 208.72 779.45 L 216.96 773.81 L 222.18 769.57 L 230.47 761.56 L 236.74 754.60 L 243.18 746.56 L 245.19 743.51 L 249.34 736.06 L 250.95 731.31 L 252.05 726.53 L 252.46 723.25 L 252.57 716.88 L 252.08 712.62 L 251.39 709.87 L 250.40 707.16 L 248.11 703.02 L 241.25 694.20 L 237.36 690.41 L 234.60 688.34 L 231.62 686.84 L 228.76 685.99 L 224.31 685.97 L 219.50 687.34 L 214.68 690.19 L 207.83 695.80 L 200.86 702.94 L 192.35 713.48 L 189.33 718.01 L 186.50 722.56 L 182.93 729.69 L 180.34 737.19 L 178.42 744.94 L 177.58 750.28 L 177.21 755.71 L 177.01 761.25 L 177.51 769.26 L 178.66 777.03 L 180.72 784.56 L 182.51 789.49 L 185.98 796.21 L 190.10 802.26 L 195.11 807.60 L 200.75 812.14 L 204.80 814.59 L 209.07 816.79 L 213.36 818.73 L 219.69 821.32 L 226.26 823.53 L 233.08 825.22 L 241.79 826.19 L 246.06 826.14 L 254.04 824.88 L 259.79 823.24 L 269.39 819.16 L 275.68 815.39 L 277.61 813.80 L 278.79 812.30 L 279.17 810.91 L 278.62 810.10" fill="none" stroke="rgb(0,168,0)" stroke-width="13.17" stroke-linecap="round" stroke-linejoin="round"/>
  <path d="M -440.26 1040.75 L -440.00 1044.88 L -439.98 1050.71 L -440.03 1072.68 L -439.90 1077.32 L -439.54 1082.08 L -438.17 1097.28 L -437.34 1103.82 L -436.05 1112.82 L -433.30 1126.59 L -428.99 1144.37 L -427.53 1149.27 L -422.94 1164.22 L -422.18 1166.82 L -418.72 1177.08 L -416.73 1181.91 L -414.65 1186.48 L -411.11 1192.82 L -406.08 1200.12 L -400.28 1206.34 L -394.37 1211.12 L -391.40 1213.06 L -387.08 1215.25 L -382.76 1216.73 L -379.90 1217.14 L -375.63 1217.40 L -374.21 1217.32 L -371.38 1217.05 L -369.96 1216.82 L -364.26 1215.24 L -358.53 1212.61 L -354.54 1210.16 L -352.08 1208.25 L -348.66 1205.03 L -345.55 1201.15 L -340.25 1192.10 L -337.10 1184.95 L -333.73 1174.43 L -332.11 1167.76 L -330.62 1159.30 L -329.38 1147.86 L -328.21 1127.88 L -328.05 1118.72 L -329.33 1103.20 L -331.08 1090.05 L -331.07 1090.11 L -331.05 1090.20 L -331.21 1091.73 L -331.26 1095.31 L -331.06 1097.72 L -330.23 1105.02 L -328.99 1111.84 L -327.52 1117.21 L -323.35 1128.33 L -314.75 1148.60 L -307.86 1162.89 L -304.45 1168.78 L -299.68 1175.84 L -297.09 1179.00 L -293.08 1182.96 L -290.20 1185.24 L -287.23 1187.26 L -282.92 1189.62 L -278.57 1191.56 L -274.41 1192.91 L -271.62 1193.47 L -267.36 1193.97 L -263.01 1193.82 L -258.22 1193.16 L -252.97 1191.93 L -247.70 1189.84 L -244.10 1188.01 L -240.51 1185.80 L -237.13 1183.24 L -230.99 1176.87 L -226.47 1171.17 L -222.44 1164.81 L -217.71 1156.12 L -213.48 1146.79 L -210.94 1139.30 L -208.41 1128.99 L -207.30 1123.83 L -205.84 1113.65 L -205.36 1105.92 L -205.13 1093.32 L -205.72 1079.48 L -210.94 1045.12 L -214.33 1029.24 L -214.00 1026.52 L -213.92 1026.56 L -213.70 1027.01 L -212.85 1028.96" fill="none" stroke="rgb(0,168,0)" stroke-width="15.53" stroke-linecap="round" stroke-linejoin="round"/>
  <path d="M -90.95 1093.69 L -91.32 1093.82 L -104.51 1094.77 L -111.40 1095.90 L -117.19 1097.61 L -119.71 1098.93 L -123.79 1102.22 L -127.27 1106.27 L -130.39 1111.62 L -134.80 1120.74 L -137.93 1129.63 L -139.27 1136.62 L -140.02 1145.09 L -139.83 1148.33 L -139.15 1152.79 L -137.57 1158.09 L -135.67 1161.79 L -134.11 1164.11 L -128.83 1170.50 L -123.99 1174.50 L -121.91 1175.64 L -119.84 1176.54 L -117.59 1177.03 L -115.08 1177.36 L -112.45 1177.38 L -108.42 1177.03 L -102.57 1175.87 L -95.12 1172.78 L -90.71 1170.17 L -88.00 1168.07 L -79.19 1159.99 L -72.53 1152.84 L -70.52 1150.11 L -67.89 1145.58 L -65.65 1140.81 L -63.06 1133.94 L -61.28 1126.96 L -60.76 1121.86 L -60.62 1114.49 L -61.23 1109.49 L -62.00 1106.35 L -63.72 1101.54 L -65.50 1098.44 L -67.12 1096.50 L -71.09 1092.83 L -73.17 1091.40 L -75.36 1090.63 L -78.86 1090.25 L -80.18 1091.06 L -81.83 1093.76 L -82.16 1095.29 L -82.22 1099.23 L -81.53 1104.68 L -79.78 1112.50 L -78.12 1117.90 L -76.60 1121.78 L -68.98 1139.89 L -66.25 1145.69 L -64.18 1149.31 L -59.48 1156.35 L -54.65 1162.84 L -49.40 1168.65 L -45.21 1172.40 L -37.17 1177.74 L -32.19 1180.08 L -26.92 1182.06 L -23.43 1182.96 L -20.19 1183.43 L -17.15 1183.74 L -12.70 1183.66 L -10.10 1183.22 L -8.94 1182.95 L -6.71 1182.21 L -4.46 1181.20 L 0.37 1177.83 L 2.90 1175.29 L 5.23 1172.51 L 9.81 1166.36 L 10.73 1164.98 L 13.10 1161.02" fill="none" stroke="rgb(0,168,0)" stroke-width="14.21" stroke-linecap="round" stroke-linejoin="round"/>
  <path d="M 52.91 1070.78 L 53.34 1073.53 L 58.82 1098.45 L 62.13 1115.40 L 63.00 1120.56 L 64.04 1127.82 L 65.87 1140.83 L 67.24 1147.86 L 69.12 1155.06 L 71.75 1163.70 L 74.16 1169.07 L 77.38 1175.31 L 78.80 1177.23 L 79.11 1177.20" fill="none" stroke="rgb(0,168,0)" stroke-width="12.43" stroke-linecap="round" stroke-linejoin="round"/>
  <path d="M 62.17 1146.05 L 60.11 1142.69 L 58.90 1140.41 L 57.20 1135.83 L 55.78 1130.41 L 55.88 1126.62 L 57.53 1121.94 L 60.19 1116.90 L 63.54 1112.22 L 68.81 1105.91 L 73.05 1101.21 L 77.91 1096.57 L 80.67 1094.56 L 86.76 1091.03 L 93.41 1088.09 L 107.31 1083.14 L 114.83 1081.44 L 118.87 1080.90 L 132.34 1080.41 L 137.88 1080.56 L 143.03 1081.15 L 152.89 1083.21 L 158.53 1084.87 L 163.89 1087.14 L 167.42 1089.27 L 172.64 1093.67 L 175.93 1097.63 L 177.30 1099.90 L 180.45 1105.71 L 181.74 1109.18 L 182.40 1111.46 L 182.81 1113.72 L 183.00 1115.95 L 183.35 1124.75 L 182.95 1128.36 L 182.21 1132.98 L 176.42 1151.44 L 175.52 1153.37 L 174.81 1151.98 L 174.54 1150.50 L 174.66 1141.62 L 175.40 1139.17 L 175.63 1137.88 L 175.60 1137.12" fill="none" stroke="rgb(0,168,0)" stroke-width="15.19" stroke-linecap="round" stroke-linejoin="round"/>
  <path d="M 272.74 939.91 L 272.80 942.86 L 274.15 953.27 L 277.38 973.44 L 278.42 981.47 L 279.34 992.39 L 279.73 999.12 L 280.15 1004.02 L 280.59 1011.95 L 281.36 1022.78 L 283.42 1042.81 L 285.28 1054.85 L 289.23 1071.96 L 294.79 1091.10 L 298.34 1101.55 L 304.61 1117.48 L 307.06 1122.48 L 311.10 1129.36 L 314.06 1133.31 L 317.12 1136.86 L 321.88 1141.47 L 326.60 1145.05 L 334.61 1149.98 L 341.18 1152.89 L 346.38 1154.51 L 351.76 1155.38 L 362.54 1156.20 L 367.54 1156.08 L 373.86 1155.40 L 379.64 1154.00 L 387.44 1150.69 L 391.90 1147.75 L 394.73 1145.47 L 398.19 1141.68 L 399.02 1140.25 L 400.50 1136.84 L 400.59 1134.21 L 399.92 1133.11 L 398.59 1132.11 L 397.43 1131.43 L 392.86 1129.12" fill="none" stroke="rgb(0,168,0)" stroke-width="13.41" stroke-linecap="round" stroke-linejoin="round"/>
  <path d="M 252.85 1066.09 L 253.03 1066.19 L 255.24 1067.02 L 258.52 1067.73 L 263.34 1068.14 L 275.17 1066.77 L 282.04 1065.37 L 293.20 1061.93 L 314.53 1053.78 L 324.68 1050.01 L 341.11 1042.59 L 345.81 1041.23 L 350.72 1040.87 L 348.11 1041.81 L 346.86 1042.37 L 346.23 1042.60 L 345.24 1043.10 L 344.51 1043.55" fill="none" stroke="rgb(0,168,0)" stroke-width="10.92" stroke-linecap="round" stroke-linejoin="round"/>
  <path d="M -558.98 1457.73 L -559.07 1457.74 L -559.29 1457.76 L -560.74 1457.79 L -564.92 1457.82 L -569.37 1457.81 L -570.66 1457.79 L -571.99 1457.75 L -572.81 1457.69 L -572.96 1457.68 L -572.23 1457.70 L -570.32 1457.71 L -564.79 1458.03 L -537.88 1458.38 L -517.59 1459.88 L -507.24 1461.43 L -494.17 1463.96 L -492.82 1464.25 L -489.30 1465.08 L -487.43 1465.62 L -484.10 1466.66 L -480.87 1467.43 L -480.48 1467.44 L -480.14 1467.42 L -479.88 1467.39 L -479.67 1467.41 L -479.53 1467.33 L -479.98 1466.26 L -480.79 1464.83 L -481.72 1463.76 L -481.97 1463.41 L -482.69 1462.64 L -482.77 1462.47" fill="none" stroke="rgb(0,0,0)" stroke-width="12.16" stroke-linecap="round" stroke-linejoin="round"/>
  <path d="M -486.97 1452.91 L -489.30 1453.23 L -492.31 1453.23 L -495.22 1453.09 L -495.84 1453.08 L -496.41 1453.09 L -496.49 1453.09 L -496.43 1453.13 L -496.22 1453.23 L -495.92 1453.51 L -495.55 1453.82 L -494.55 1454.47 L -492.40 1455.55 L -486.20 1458.00 L -480.39 1460.04 L -478.30 1461.15 L -474.85 1463.40 L -474.37 1463.77 L -473.59 1464.49 L -472.82 1465.34 L -472.40 1465.88 L -472.23 1466.38 L -472.17 1466.62 L -472.04 1467.38 L -471.92 1467.89 L -471.95 1468.42 L -472.06 1468.67 L -472.21 1468.94 L -472.48 1469.43 L -473.00 1470.08 L -473.26 1470.33 L -475.17 1471.74 L -476.70 1472.38 L -482.86 1474.05 L -485.46 1473.95 L -485.93 1473.80 L -485.92 1473.75 L -485.73 1473.46" fill="none" stroke="rgb(0,0,0)" stroke-width="15.59" stroke-linecap="round" stroke-linejoin="round"/>
  <path d="M -432.26 1492.44 L -431.91 1491.56 L -430.48 1487.50 L -428.69 1481.94 L -426.51 1471.32 L -425.16 1460.87 L -424.04 1444.12 L -421.40 1420.66 L -420.49 1417.02 L -418.87 1412.85 L -417.59 1411.05 L -415.89 1410.23 L -414.96 1410.20 L -413.54 1410.22 L -412.60 1410.38 L -412.15 1410.54 L -411.24 1410.92 L -410.80 1411.27 L -410.35 1411.69 L -409.29 1412.62 L -408.72 1413.19 L -408.15 1413.88 L -406.89 1415.64 L -402.03 1425.09 L -393.59 1444.13 L -382.14 1468.00 L -378.96 1473.62 L -376.88 1476.80 L -371.81 1481.95 L -371.67 1482.24 L -371.62 1482.41 L -371.57 1482.60 L -371.47 1483.03 L -371.40 1483.21 L -371.48 1483.37 L -371.61 1483.45" fill="none" stroke="rgb(0,0,0)" stroke-width="17.04" stroke-linecap="round" stroke-linejoin="round"/>
  <path d="M -431.95 1481.41 L -431.84 1481.42 L -431.62 1481.44 L -431.33 1481.45 L -429.97 1481.46 L -428.15 1481.46 L -427.14 1481.36 L -423.82 1480.95 L -414.82 1478.72 L -409.85 1476.63 L -399.82 1470.99 L -394.01 1468.74 L -393.14 1468.53 L -391.41 1468.32 L -389.89 1468.24 L -387.77 1468.17 L -387.11 1468.15 L -385.33 1468.00 L -383.78 1468.05 L -381.49 1468.21 L -380.15 1468.20 L -380.03 1468.26 L -379.91 1468.27 L -379.71 1468.27" fill="none" stroke="rgb(0,0,0)" stroke-width="17.62" stroke-linecap="round" stroke-linejoin="round"/>
  <path d="M -298.00 1472.39 L -297.94 1472.34 L -297.76 1472.31 L -296.83 1472.27 L -294.94 1471.76 L -293.52 1470.95 L -291.41 1469.11 L -288.73 1465.25 L -286.32 1460.30 L -284.29 1453.63 L -283.44 1448.34 L -283.03 1444.45 L -282.55 1431.04 L -283.69 1420.29 L -285.62 1412.34 L -286.94 1408.91 L -288.45 1405.47 L -292.75 1398.19 L -296.32 1393.52 L -297.01 1393.03 L -297.79 1393.02 L -298.42 1393.84 L -299.41 1396.43 L -300.14 1401.32 L -300.07 1407.99 L -299.73 1412.00 L -299.11 1416.50 L -297.59 1423.89 L -295.30 1431.70 L -293.47 1436.78 L -290.31 1443.48 L -286.75 1449.50 L -283.11 1454.61 L -281.06 1457.61 L -280.02 1458.91 L -277.01 1462.27 L -274.21 1464.95 L -268.61 1469.59 L -267.40 1470.03 L -266.80 1470.18 L -265.75 1470.47 L -265.24 1470.54 L -264.74 1470.51 L -264.24 1470.45 L -263.73 1470.28 L -263.28 1470.08 L -262.55 1469.44 L -261.59 1467.94 L -261.30 1467.30 L -260.47 1463.71" fill="none" stroke="rgb(0,0,0)" stroke-width="15.59" stroke-linecap="round" stroke-linejoin="round"/>
  <path d="M -253.98 1438.55 L -254.15 1438.62 L -258.30 1438.48 L -260.96 1439.36 L -262.23 1441.11 L -263.07 1445.70 L -262.38 1452.73 L -259.99 1464.84 L -257.58 1471.57 L -256.38 1473.70 L -255.13 1475.34 L -253.04 1477.33 L -252.27 1477.79 L -250.82 1478.56 L -246.81 1479.30 L -245.46 1479.20 L -243.59 1478.80 L -243.02 1478.59 L -241.40 1477.89 L -239.82 1476.93 L -238.63 1475.63 L -237.07 1472.35 L -236.35 1465.61 L -236.45 1462.43 L -237.18 1458.28 L -238.52 1454.65 L -240.06 1451.82 L -242.61 1448.99 L -245.88 1446.69 L -250.10 1445.15 L -256.23 1444.49 L -257.46 1445.27 L -258.44 1447.98 L -258.19 1449.88 L -257.60 1451.45 L -256.87 1452.83 L -256.22 1453.69 L -255.79 1454.02 L -255.33 1454.31 L -254.85 1454.58 L -253.80 1455.05 L -250.64 1456.11 L -248.47 1456.27 L -246.31 1456.09 L -245.07 1455.84 L -243.89 1455.44 L -242.78 1455.01 L -241.18 1454.05" fill="none" stroke="rgb(0,0,0)" stroke-width="13.97" stroke-linecap="round" stroke-linejoin="round"/>
  <path d="M -240.47 1391.53 L -240.45 1391.61 L -240.32 1392.47 L -239.36 1396.69 L -238.38 1399.94 L -236.45 1404.91 L -231.53 1416.34 L -229.68 1420.54 L -220.36 1440.55 L -212.10 1456.43 L -208.76 1463.49 L -203.61 1472.11 L -202.81 1473.64 L -202.58 1474.22 L -202.49 1474.51 L -202.43 1474.75 L -202.39 1474.79 L -202.55 1474.57 L -202.65 1474.34 L -203.24 1473.45" fill="none" stroke="rgb(0,0,0)" stroke-width="15.64" stroke-linecap="round" stroke-linejoin="round"/>
  <path d="M -236.88 1444.67 L -236.81 1444.71 L -236.69 1444.80 L -236.44 1444.84 L -235.90 1444.77 L -233.19 1444.34 L -231.12 1444.00 L -229.99 1443.83 L -224.04 1442.95 L -212.69 1441.44 L -210.31 1440.91 L -206.57 1439.70 L -204.24 1438.78 L -203.12 1438.31 L -200.94 1437.12" fill="none" stroke="rgb(0,0,0)" stroke-width="17.80" stroke-linecap="round" stroke-linejoin="round"/>
  <path d="M -557.78 1598.72 L -558.43 1598.44 L -564.13 1597.26 L -566.93 1596.59 L -570.46 1595.70 L -572.01 1595.17 L -572.48 1594.91 L -572.82 1594.67 L -573.47 1594.18 L -573.59 1594.11 L -573.57 1594.11 L -573.54 1594.13 L -573.41 1594.15 L -572.28 1594.13 L -567.09 1593.85 L -544.37 1591.68 L -531.20 1591.40 L -508.88 1591.70 L -500.67 1591.99 L -497.08 1592.24 L -492.68 1592.23 L -487.48 1592.46 L -486.44 1592.63 L -485.58 1592.89 L -484.98 1593.01 L -484.02 1593.08 L -483.54 1593.26 L -483.36 1593.31 L -483.31 1593.34 L -483.31 1593.35 L -483.34 1593.36 L -483.33 1593.43 L -483.28 1593.45 L -483.29 1593.46 L -483.34 1593.46 L -483.38 1593.46 L -483.49 1593.51 L -484.11 1593.73 L -484.44 1593.79" fill="none" stroke="rgb(0,0,0)" stroke-width="15.37" stroke-linecap="round" stroke-linejoin="round"/>
  <path d="M -494.01 1588.58 L -494.05 1588.59 L -494.11 1588.60 L -494.14 1588.61 L -494.16 1588.61 L -494.16 1588.61 L -494.15 1588.61 L -494.01 1588.68 L -493.63 1588.78 L -493.13 1588.98 L -492.55 1589.23 L -491.25 1589.82 L -488.92 1591.21 L -486.79 1592.35 L -485.45 1592.95 L -484.45 1593.61 L -483.70 1594.15 L -483.49 1594.35 L -483.36 1594.59 L -483.25 1594.75 L -483.25 1594.82 L -483.23 1594.91 L -483.19 1595.01 L -483.13 1595.39 L -483.08 1595.62 L -482.96 1596.13 L -482.55 1597.22 L -482.65 1597.73 L -483.10 1598.64 L -483.98 1600.10 L -484.63 1600.65 L -486.19 1601.30 L -486.87 1601.13" fill="none" stroke="rgb(0,0,0)" stroke-width="16.61" stroke-linecap="round" stroke-linejoin="round"/>
  <path d="M -449.21 1551.52 L -449.17 1551.66 L -449.09 1552.01 L -448.96 1552.33 L -448.11 1553.82 L -447.08 1555.77 L -445.79 1557.89 L -445.02 1559.03 L -442.80 1562.85 L -440.68 1567.20 L -438.11 1574.08 L -431.12 1595.60 L -429.26 1599.70 L -423.15 1611.69" fill="none" stroke="rgb(0,0,0)" stroke-width="19.93" stroke-linecap="round" stroke-linejoin="round"/>
  <path d="M -449.95 1592.62 L -449.90 1592.55 L -451.77 1589.57 L -454.46 1583.20 L -455.00 1580.38 L -454.79 1575.35 L -453.43 1569.54 L -450.77 1563.48 L -448.90 1560.73 L -446.45 1558.49 L -441.97 1556.03 L -437.65 1554.54 L -429.58 1553.88 L -424.80 1554.27 L -420.13 1555.43 L -417.84 1556.35 L -415.77 1557.44 L -414.86 1558.15 L -413.11 1559.94 L -410.35 1563.22 L -409.43 1564.51 L -406.98 1568.72 L -404.28 1575.36 L -401.19 1584.12 L -398.57 1593.37 L -398.30 1595.63 L -398.14 1597.85 L -398.02 1603.13 L -398.32 1606.10 L -398.74 1609.19 L -400.10 1614.92 L -401.54 1618.73 L -402.55 1620.98 L -403.55 1622.77 L -405.31 1624.97 L -407.74 1626.63 L -410.86 1627.12 L -417.42 1626.62 L -423.44 1626.79 L -428.07 1625.87 L -428.40 1625.73 L -428.88 1625.46 L -429.80 1624.17" fill="none" stroke="rgb(0,0,0)" stroke-width="14.06" stroke-linecap="round" stroke-linejoin="round"/>
  <path d="M -375.40 1584.88 L -376.00 1584.81 L -377.63 1584.78 L -379.29 1584.63 L -380.85 1584.69 L -384.07 1585.40 L -385.46 1586.10 L -386.93 1587.39 L -387.56 1588.42 L -389.80 1593.37 L -390.17 1595.43 L -390.05 1597.55 L -389.90 1598.40 L -389.33 1600.87 L -388.37 1603.91 L -387.65 1605.86 L -386.23 1608.64 L -385.02 1610.40 L -383.73 1612.12 L -381.75 1614.21 L -379.63 1615.77 L -378.11 1616.51 L -376.67 1616.95 L -374.65 1617.40 L -373.23 1617.48 L -372.52 1617.42 L -371.11 1617.22 L -369.00 1616.55 L -364.08 1613.78 L -360.53 1610.74 L -358.14 1607.88 L -356.14 1604.45 L -354.97 1601.19 L -354.47 1596.43 L -355.10 1593.90 L -357.05 1590.43 L -358.08 1589.22 L -361.67 1586.71 L -364.57 1585.53 L -367.93 1584.93 L -372.20 1584.45 L -376.40 1584.71 L -379.37 1585.53 L -382.29 1587.29 L -383.52 1588.71 L -384.76 1591.96 L -384.79 1592.58 L -384.73 1592.86 L -384.56 1593.36 L -384.38 1593.58 L -384.17 1593.80 L -383.50 1594.45 L -383.28 1594.67 L -380.88 1596.37 L -380.03 1596.72 L -379.12 1597.00 L -377.77 1597.37 L -377.32 1597.40 L -376.87 1597.41 L -375.99 1597.37 L -375.57 1597.33 L -373.48 1597.11 L -367.91 1595.49 L -356.84 1593.15 L -350.68 1591.06 L -343.70 1589.80 L -342.13 1590.19 L -340.67 1590.79 L -340.32 1591.01 L -340.01 1591.30 L -338.91 1592.30 L -338.30 1592.82 L -337.77 1593.41 L -336.15 1598.31 L -336.06 1599.09 L -336.03 1599.73 L -336.13 1602.03 L -336.12 1602.01 L -336.11 1601.61 L -336.11 1601.26 L -336.08 1600.10 L -334.84 1594.88 L -333.96 1593.28 L -332.79 1592.14 L -330.23 1590.75 L -327.68 1589.95 L -320.93 1589.34 L -317.68 1590.40 L -317.24 1590.71 L -316.91 1591.04 L -316.29 1591.71 L -315.23 1592.75 L -314.68 1593.59 L -314.20 1594.48 L -312.99 1597.37 L -311.49 1602.88 L -311.23 1603.42 L -310.95 1603.85 L -310.80 1603.97 L -310.74 1603.86 L -310.61 1603.62" fill="none" stroke="rgb(0,0,0)" stroke-width="14.48" stroke-linecap="round" stroke-linejoin="round"/>
  <path d="M -311.09 1543.79 L -311.09 1544.04 L -311.01 1544.62 L -310.77 1545.48 L -309.73 1548.79 L -309.01 1551.18 L -308.28 1553.39 L -305.93 1559.13 L -303.07 1564.09 L -299.79 1567.48 L -298.03 1570.31" fill="none" stroke="rgb(0,0,0)" stroke-width="14.52" stroke-linecap="round" stroke-linejoin="round"/>
  <path d="M -293.84 1537.12 L -293.79 1537.33 L -292.49 1539.92 L -291.91 1541.05 L -289.65 1545.88 L -287.63 1551.49 L -281.50 1571.27 L -278.59 1581.59 L -278.59 1581.59 L -278.01 1583.56 L -277.45 1585.18 L -276.83 1588.04" fill="none" stroke="rgb(0,0,0)" stroke-width="14.31" stroke-linecap="round" stroke-linejoin="round"/>
  <path d="M -294.55 1579.92 L -294.54 1579.91 L -294.48 1579.89 L -294.29 1579.80 L -293.78 1579.65 L -292.99 1579.47 L -288.86 1578.73 L -263.15 1574.71" fill="none" stroke="rgb(0,0,0)" stroke-width="9.75" stroke-linecap="round" stroke-linejoin="round"/>
  <path d="M -219.89 1541.56 L -219.84 1541.61 L -219.81 1540.56 L -220.22 1532.97 L -220.22 1532.99 L -219.89 1533.72 L -219.63 1534.37 L -218.58 1537.34 L -216.52 1543.44 L -214.53 1548.56 L -212.44 1554.09 L -211.07 1558.05 L -206.71 1572.41 L -199.52 1602.39 L -197.44 1610.03 L -197.19 1610.54 L -196.94 1610.93 L -196.44 1611.45 L -196.49 1611.35 L -196.59 1611.12 L -196.74 1610.78 L -196.91 1610.43 L -197.35 1608.97 L -197.46 1608.44" fill="none" stroke="rgb(0,0,0)" stroke-width="15.25" stroke-linecap="round" stroke-linejoin="round"/>
  <path d="M -207.57 1588.66 L -207.55 1588.70 L -207.44 1588.57 L -207.09 1588.03 L -202.96 1580.41 L -196.48 1570.77 L -191.78 1564.51 L -187.75 1560.80" fill="none" stroke="rgb(0,0,0)" stroke-width="9.66" stroke-linecap="round" stroke-linejoin="round"/>
  <path d="M -203.44 1588.27 L -202.97 1588.69 L -202.47 1589.52 L -201.29 1591.71 L -199.89 1594.17 L -195.70 1600.91 L -190.01 1609.67 L -188.54 1611.71 L -183.81 1616.80 L -177.60 1622.16" fill="none" stroke="rgb(0,0,0)" stroke-width="14.55" stroke-linecap="round" stroke-linejoin="round"/>
  <path d="M -167.80 1587.88 L -168.73 1584.50 L -168.81 1582.92 L -168.55 1583.13 L -168.28 1583.43 L -167.63 1584.28 L -163.35 1590.80 L -159.98 1596.62 L -158.08 1601.70 L -156.35 1610.89 L -155.93 1611.90 L -155.63 1612.32 L -155.25 1612.78 L -155.19 1612.77 L -155.17 1612.71 L -155.15 1612.62 L -155.38 1612.12 L -157.83 1608.22 L -159.19 1602.74 L -158.81 1597.07 L -158.31 1594.91 L -157.13 1591.88 L -155.44 1589.94 L -153.60 1589.94 L -152.98 1590.17 L -151.05 1590.94 L -149.51 1591.73 L -148.86 1592.24 L -148.27 1592.81 L -147.15 1594.16 L -145.56 1595.81 L -145.01 1596.17 L -144.46 1596.44 L -143.91 1596.83 L -143.05 1597.22 L -142.50 1597.34 L -142.37 1597.39 L -142.24 1597.39 L -142.21 1597.44 L -142.05 1597.60 L -141.86 1597.71 L -140.75 1600.43 L -139.48 1604.28 L -138.99 1605.37 L -138.51 1606.23 L -138.40 1606.72 L -138.38 1606.95 L -138.40 1607.23 L -138.34 1607.33 L -138.36 1607.50 L -138.37 1607.49 L -138.40 1607.45 L -138.44 1607.31" fill="none" stroke="rgb(0,0,0)" stroke-width="16.09" stroke-linecap="round" stroke-linejoin="round"/>
  <path d="M -126.13 1590.91 L -126.15 1590.93 L -126.17 1590.95 L -126.20 1590.98 L -126.23 1591.01 L -126.41 1591.10 L -127.43 1591.58 L -128.53 1592.36 L -130.60 1595.11 L -131.21 1597.16 L -131.21 1599.88 L -130.84 1601.96 L -130.02 1604.90 L -128.64 1608.26 L -127.22 1610.84 L -126.23 1612.21 L -125.60 1612.80 L -125.01 1613.14 L -123.92 1613.67 L -123.29 1613.78 L -123.00 1613.74 L -122.74 1613.67 L -122.14 1613.49 L -119.66 1612.17 L -117.27 1609.74 L -115.51 1607.07 L -112.99 1601.93 L -111.92 1594.45 L -112.04 1593.53 L -112.77 1592.53 L -117.78 1591.44 L -118.62 1591.67 L -125.12 1594.45 L -124.84 1594.51 L -124.51 1594.67 L -122.77 1595.22 L -121.65 1595.33 L -119.56 1595.35 L -112.43 1595.15 L -109.12 1595.20 L -107.69 1595.05" fill="none" stroke="rgb(0,0,0)" stroke-width="12.33" stroke-linecap="round" stroke-linejoin="round"/>
  <path d="M -98.97 1589.58 L -99.21 1588.94 L -99.87 1587.80 L -100.89 1585.84 L -101.12 1585.34 L -101.09 1585.97 L -101.06 1586.45 L -100.94 1587.00 L -100.39 1589.08 L -99.74 1590.69 L -98.58 1593.08 L -97.05 1595.47 L -95.98 1597.27 L -94.91 1598.92 L -92.24 1602.59 L -89.81 1604.78 L -88.19 1605.86 L -87.05 1606.29 L -85.38 1606.74 L -84.45 1607.03 L -83.75 1607.17 L -83.00 1607.09 L -80.36 1606.07 L -77.85 1603.93 L -76.85 1602.51 L -76.21 1600.17 L -75.51 1595.42 L -75.74 1591.96 L -75.72 1592.00 L -75.71 1592.06 L -75.62 1592.48 L -75.34 1593.41 L -74.99 1594.51 L -74.59 1595.66 L -74.40 1596.38 L -73.46 1598.73 L -71.69 1602.10 L -70.05 1604.39 L -67.35 1607.45 L -66.43 1608.18 L -65.35 1608.67 L -64.77 1608.87 L -63.59 1609.24 L -62.39 1609.40 L -60.57 1609.22 L -58.39 1608.32 L -56.65 1606.80 L -54.99 1604.45 L -53.85 1601.48 L -52.84 1595.69 L -52.92 1592.62 L -53.87 1592.13" fill="none" stroke="rgb(0,0,0)" stroke-width="15.72" stroke-linecap="round" stroke-linejoin="round"/>
  <path d="M 11.30 1575.13 L 11.07 1573.41 L 10.20 1570.91 L 7.73 1566.86 L 7.75 1566.95 L 7.75 1567.09 L 7.70 1567.92 L 7.71 1568.53 L 7.81 1571.18 L 8.08 1573.40 L 8.64 1577.10 L 9.59 1581.08 L 11.05 1585.90 L 12.46 1588.67 L 14.99 1592.25 L 16.09 1593.35 L 17.87 1594.64 L 18.47 1594.96 L 19.67 1595.33 L 20.27 1595.47 L 22.01 1595.82 L 22.58 1595.95 L 23.72 1596.07 L 25.97 1595.85 L 28.20 1594.74 L 30.10 1592.94 L 31.01 1590.83 L 31.92 1585.14 L 31.92 1578.53 L 30.03 1571.15 L 30.05 1571.15 L 30.04 1571.25 L 29.97 1571.57 L 29.96 1572.01 L 29.96 1573.14 L 29.98 1573.76 L 30.05 1576.03 L 30.10 1577.99 L 30.22 1578.95 L 30.69 1581.62 L 30.87 1583.26 L 31.17 1584.78 L 32.41 1588.80 L 32.99 1589.62 L 33.37 1589.95 L 34.05 1590.67 L 34.47 1590.98 L 35.38 1591.60 L 35.86 1591.84 L 37.30 1592.46 L 39.05 1593.07 L 41.23 1593.75 L 43.58 1594.21 L 47.49 1594.06 L 50.47 1593.30 L 52.62 1592.37 L 55.79 1590.03 L 58.42 1586.78 L 59.58 1584.39 L 60.86 1579.85 L 61.47 1573.48 L 60.83 1572.57 L 60.23 1572.46 L 57.80 1572.50 L 57.15 1572.62 L 56.29 1573.07" fill="none" stroke="rgb(0,0,0)" stroke-width="15.08" stroke-linecap="round" stroke-linejoin="round"/>
  <path d="M 57.39 1525.05 L 57.51 1525.36 L 57.77 1526.08 L 59.93 1531.60 L 62.45 1537.51 L 64.57 1544.08 L 65.52 1547.54 L 66.40 1551.02 L 67.22 1554.46 L 69.47 1565.31 L 74.92 1587.05 L 78.34 1597.91 L 78.56 1598.35 L 78.99 1599.00 L 79.17 1599.10 L 78.99 1598.75 L 78.73 1598.43 L 76.24 1595.51 L 75.37 1594.03 L 73.98 1590.21 L 73.20 1583.99 L 73.78 1574.55 L 74.98 1568.93 L 75.87 1567.03 L 78.13 1565.45 L 79.95 1564.98 L 83.36 1565.06 L 87.07 1566.25 L 89.49 1567.71 L 91.14 1569.07 L 93.26 1571.12 L 94.12 1572.36 L 94.44 1573.06 L 95.04 1574.69 L 95.30 1575.50 L 95.87 1578.13 L 96.45 1585.18 L 96.26 1591.70 L 96.28 1592.35 L 96.30 1592.41 L 96.33 1592.36 L 96.35 1592.26" fill="none" stroke="rgb(0,0,0)" stroke-width="15.71" stroke-linecap="round" stroke-linejoin="round"/>
  <path d="M 118.92 1589.81 L 118.99 1589.65 L 123.45 1584.76 L 125.46 1582.10 L 126.87 1579.53 L 127.31 1577.73 L 127.53 1574.61 L 127.12 1572.03 L 125.30 1568.72 L 123.38 1567.28 L 120.85 1567.13 L 118.62 1568.07 L 116.26 1569.91 L 113.53 1573.18 L 110.65 1578.23 L 109.02 1582.05 L 107.63 1587.52 L 107.70 1589.97 L 108.07 1591.56 L 108.77 1592.94 L 109.58 1594.24 L 110.63 1595.49 L 113.92 1598.34 L 115.12 1598.85 L 115.73 1599.07 L 117.54 1599.63 L 120.35 1600.23 L 121.81 1600.23 L 123.93 1600.08 L 129.32 1598.26 L 130.32 1597.67 L 132.78 1595.79 L 133.59 1595.33 L 134.59 1594.58" fill="none" stroke="rgb(0,0,0)" stroke-width="12.00" stroke-linecap="round" stroke-linejoin="round"/>
  <path d="M 132.46 1527.41 L 132.49 1527.50" fill="none" stroke="rgb(0,0,0)" stroke-width="9.38" stroke-linecap="round" stroke-linejoin="round"/>
  <path d="M 145.61 1575.01 L 144.79 1572.88 L 143.69 1568.05 L 141.57 1561.57 L 141.69 1561.70 L 141.82 1562.65 L 143.00 1567.89 L 144.68 1578.04 L 145.95 1582.95 L 147.76 1587.43 L 149.85 1591.86 L 151.31 1594.62 L 151.98 1595.76 L 153.11 1598.01 L 155.40 1603.31 L 155.39 1603.21 L 155.45 1602.97 L 155.64 1602.24 L 155.56 1600.80 L 153.69 1595.11 L 149.63 1590.10 L 147.10 1587.75 L 146.51 1586.34 L 146.82 1585.29 L 148.24 1582.82 L 151.02 1579.82 L 152.71 1578.46 L 155.01 1577.04 L 156.36 1576.58 L 160.18 1575.71 L 161.31 1575.80 L 161.54 1575.97 L 161.72 1576.17" fill="none" stroke="rgb(0,0,0)" stroke-width="13.50" stroke-linecap="round" stroke-linejoin="round"/>
  <path d="M 160.70 1586.77 L 160.71 1586.77 L 160.89 1586.86 L 161.95 1587.38 L 163.24 1588.00 L 163.92 1588.24 L 166.76 1588.59 L 169.52 1588.39 L 172.78 1587.16 L 175.30 1584.19 L 176.43 1581.55 L 177.42 1574.58 L 175.94 1571.63 L 174.26 1571.23 L 173.14 1571.78 L 171.87 1573.20 L 170.16 1576.08 L 166.64 1587.31 L 166.47 1592.00 L 166.82 1593.12 L 167.50 1594.55 L 167.75 1594.93 L 168.41 1595.57 L 175.98 1599.40 L 177.23 1599.80 L 178.27 1599.85 L 178.53 1599.83 L 179.02 1599.76 L 181.34 1598.00" fill="none" stroke="rgb(0,0,0)" stroke-width="12.41" stroke-linecap="round" stroke-linejoin="round"/>
  <path d="M 267.74 1547.15 L 262.41 1529.22 L 255.32 1511.44 L 254.66 1510.28 L 253.97 1509.87 L 253.94 1510.60 L 253.95 1511.10 L 254.21 1516.10 L 255.67 1528.62 L 257.49 1564.29 L 257.98 1567.86 L 259.23 1572.88 L 261.62 1580.38 L 262.39 1582.33 L 263.34 1584.49 L 266.61 1588.62 L 267.39 1589.03 L 268.64 1589.65 L 269.98 1590.05 L 270.44 1590.09 L 271.34 1590.11 L 273.14 1590.04 L 276.66 1588.92 L 281.92 1585.59 L 282.50 1584.56 L 282.66 1584.03 L 282.87 1583.22 L 283.03 1582.66 L 283.34 1581.82" fill="none" stroke="rgb(0,0,0)" stroke-width="13.53" stroke-linecap="round" stroke-linejoin="round"/>
  <path d="M 255.67 1562.27 L 255.74 1562.31 L 255.90 1562.42 L 256.13 1562.44 L 256.64 1562.35 L 261.44 1561.25 L 263.72 1561.19 L 265.75 1561.29 L 272.96 1562.50 L 278.55 1563.11" fill="none" stroke="rgb(0,0,0)" stroke-width="9.60" stroke-linecap="round" stroke-linejoin="round"/>
  <path d="M 293.46 1559.27 L 293.29 1559.39 L 290.69 1561.04 L 288.60 1562.55 L 285.34 1565.95 L 283.61 1568.44 L 282.64 1570.79 L 282.12 1573.00 L 282.18 1574.66 L 282.72 1577.45 L 284.69 1583.05 L 286.27 1586.31 L 287.70 1588.16 L 289.15 1589.44 L 290.09 1589.90 L 290.53 1590.07 L 291.81 1590.49 L 293.41 1590.58 L 298.16 1589.09 L 300.03 1587.56 L 301.22 1585.28 L 301.96 1579.11 L 301.71 1574.87 L 300.95 1571.93 L 300.35 1570.73 L 298.29 1568.27 L 295.00 1566.62 L 289.75 1565.94 L 288.58 1566.02 L 287.73 1566.55" fill="none" stroke="rgb(0,0,0)" stroke-width="12.15" stroke-linecap="round" stroke-linejoin="round"/>
  <path d="M 370.21 1566.84 L 371.80 1566.69 L 374.76 1565.74 L 375.08 1564.89 L 374.92 1563.99 L 374.28 1562.87 L 372.82 1561.62 L 370.14 1560.40 L 368.17 1560.09 L 365.27 1560.90 L 362.65 1562.57 L 359.82 1565.13 L 358.06 1567.40 L 357.01 1569.93 L 356.27 1573.08 L 356.05 1575.32 L 356.13 1577.67 L 357.26 1582.14 L 358.59 1585.10 L 359.62 1586.53 L 360.99 1587.79 L 362.01 1588.19 L 362.57 1588.29 L 363.70 1588.36 L 365.88 1587.67 L 368.07 1586.17 L 369.93 1584.36 L 370.90 1583.14 L 372.07 1580.74 L 373.06 1577.10 L 373.77 1572.09 L 373.51 1563.54 L 373.00 1558.21 L 373.14 1555.34 L 373.17 1555.35 L 373.25 1555.41 L 373.70 1555.77 L 374.00 1556.17 L 374.70 1557.18 L 375.82 1558.69 L 376.47 1559.70 L 378.05 1561.78 L 379.72 1564.24 L 386.30 1574.61 L 389.19 1579.93 L 391.55 1585.44 L 393.28 1590.34 L 395.33 1599.54 L 395.51 1603.12 L 395.54 1609.64 L 395.04 1612.93 L 394.50 1615.00 L 393.81 1616.91 L 393.09 1618.56 L 392.17 1619.91 L 391.01 1621.13 L 389.74 1622.26 L 387.79 1623.43 L 382.94 1624.54 L 378.26 1624.05 L 376.21 1623.39 L 371.58 1621.11 L 368.78 1619.39 L 367.76 1618.32 L 367.32 1617.46 L 368.09 1615.27 L 370.58 1611.65 L 372.44 1609.80 L 374.01 1608.44" fill="none" stroke="rgb(0,0,0)" stroke-width="14.43" stroke-linecap="round" stroke-linejoin="round"/>
  <path d="M 400.61 1579.72 L 404.42 1577.90 L 404.85 1577.60 L 407.62 1575.39 L 408.92 1573.52 L 410.42 1565.84 L 410.52 1563.66 L 409.78 1560.74 L 408.69 1559.99 L 406.11 1560.10 L 404.28 1561.24 L 401.13 1565.20 L 399.44 1568.05 L 398.48 1570.49 L 397.92 1572.44 L 397.16 1575.22 L 397.00 1576.06 L 396.96 1577.51 L 397.06 1578.87 L 397.43 1580.28 L 397.91 1581.41 L 398.26 1581.76 L 398.63 1582.03 L 399.42 1582.61 L 399.82 1582.82 L 400.67 1583.31 L 401.91 1583.88 L 402.91 1584.14 L 406.04 1585.14 L 407.90 1585.50 L 410.47 1586.35 L 412.37 1586.67 L 413.81 1586.50 L 415.53 1585.35 L 417.92 1582.09 L 418.72 1580.67" fill="none" stroke="rgb(0,0,0)" stroke-width="13.06" stroke-linecap="round" stroke-linejoin="round"/>
  <path d="M 438.22 1567.91 L 434.75 1549.30 L 432.45 1541.38 L 428.84 1531.04 L 425.14 1516.31 L 424.84 1512.89 L 425.46 1511.13 L 426.05 1511.47 L 426.39 1512.02 L 426.85 1512.82 L 427.48 1514.16 L 430.06 1522.13 L 430.92 1526.59 L 431.94 1532.18 L 432.75 1536.91 L 433.40 1540.55 L 434.59 1548.36 L 435.53 1556.01 L 436.68 1563.90 L 438.04 1570.99 L 439.35 1575.25 L 440.81 1578.68 L 441.06 1578.90 L 441.30 1579.23 L 441.77 1579.66 L 442.27 1580.24 L 442.59 1580.47 L 442.76 1580.54 L 442.90 1580.66 L 443.06 1580.73 L 443.18 1580.80 L 443.38 1580.75 L 443.43 1580.16 L 443.34 1579.79 L 442.86 1578.42 L 442.75 1577.99 L 442.39 1577.02" fill="none" stroke="rgb(0,0,0)" stroke-width="16.20" stroke-linecap="round" stroke-linejoin="round"/>
  <path d="M 423.28 1558.22 L 423.32 1558.24 L 423.45 1558.32 L 425.64 1559.15 L 433.74 1561.24 L 435.20 1561.51 L 436.25 1561.51 L 438.33 1560.14 L 439.20 1559.98 L 440.37 1560.04 L 443.12 1561.09" fill="none" stroke="rgb(0,0,0)" stroke-width="9.68" stroke-linecap="round" stroke-linejoin="round"/>
  <path d="M 505.84 1555.43 L 505.77 1555.71 L 505.53 1556.33 L 505.32 1557.25 L 505.10 1559.96 L 505.19 1562.28 L 505.42 1563.98 L 505.75 1565.82 L 506.14 1567.36 L 507.17 1571.27 L 507.76 1572.98 L 508.11 1573.83 L 508.98 1576.61 L 509.98 1578.58 L 510.24 1578.80 L 510.51 1579.08 L 510.57 1579.10 L 510.59 1579.09 L 510.67 1579.20" fill="none" stroke="rgb(0,0,0)" stroke-width="17.76" stroke-linecap="round" stroke-linejoin="round"/>
  <path d="M 505.82 1546.25 L 505.83 1546.31 L 505.73 1546.27 L 505.38 1545.99 L 503.47 1544.89 L 503.46 1545.15" fill="none" stroke="rgb(0,0,0)" stroke-width="9.88" stroke-linecap="round" stroke-linejoin="round"/>
  <path d="M 524.04 1526.49 L 522.51 1521.59 L 520.56 1514.30 L 520.32 1512.05 L 520.48 1512.19 L 520.56 1512.38 L 520.83 1513.06 L 521.02 1513.65 L 521.76 1516.10 L 523.25 1520.48 L 524.20 1524.30 L 526.93 1538.59 L 528.76 1549.71 L 529.10 1551.11 L 531.05 1560.08 L 531.41 1561.26 L 533.25 1568.75 L 533.44 1569.75 L 535.11 1576.02 L 535.30 1576.38 L 535.59 1577.04 L 535.72 1577.27 L 536.50 1578.27 L 536.63 1578.35 L 536.77 1578.44 L 536.91 1578.52 L 537.04 1578.61 L 537.20 1578.62 L 537.27 1578.62 L 537.37 1578.67 L 537.51 1578.68 L 537.56 1578.68 L 537.77 1578.66 L 537.91 1578.66 L 538.33 1578.44 L 539.26 1576.97 L 539.82 1575.53 L 539.88 1574.24 L 539.65 1573.33 L 539.41 1572.03 L 539.18 1571.21" fill="none" stroke="rgb(0,0,0)" stroke-width="20.20" stroke-linecap="round" stroke-linejoin="round"/>
  <path d="M 522.87 1555.17 L 522.90 1555.18 L 522.90 1555.20 L 523.08 1555.22 L 523.67 1555.23 L 527.14 1555.07 L 528.76 1554.85 L 533.90 1554.55 L 538.93 1554.15 L 542.20 1553.57 L 547.06 1550.93 L 550.51 1546.87" fill="none" stroke="rgb(0,0,0)" stroke-width="10.31" stroke-linecap="round" stroke-linejoin="round"/>
</svg>
