<?xml version="1.0" encoding="UTF-8"?>
<svg xmlns="http://www.w3.org/2000/svg" viewBox="-366.6 152.1 653.2 260.1" width="653" height="260">
<rect x="-366.6" y="152.1" width="653.2" height="260.1" fill="white"/>
  <path d="M -306.49 189.63 L -309.50 179.61 L -311.45 176.00 L -313.09 174.62 L -315.90 173.21 L -321.16 172.08 L -324.82 172.62 L -327.17 173.41 L -329.56 174.67 L -332.82 177.19 L -335.12 179.62 L -338.01 183.39 L -340.78 187.75 L -342.64 191.50 L -344.69 197.62 L -345.64 206.98 L -345.36 212.79 L -344.02 222.48 L -342.28 229.70 L -340.54 233.62 L -339.02 235.93 L -336.85 238.35 L -334.05 240.14 L -330.69 241.17 L -328.76 241.19 L -326.73 239.55 L -325.75 236.33" fill="none" stroke="rgb(0,0,0)" stroke-width="8.00" stroke-linecap="round" stroke-linejoin="round"/>
  <path d="M -305.90 213.65 L -310.48 214.26 L -313.08 215.52 L -314.40 217.52 L -315.97 222.98 L -315.83 231.25 L -314.76 236.31 L -313.45 238.24 L -310.21 240.50 L -303.16 243.43 L -300.47 243.51 L -298.33 242.41 L -297.02 241.32 L -295.69 239.33 L -295.06 237.28 L -294.30 231.75 L -294.27 229.08 L -295.58 223.73 L -296.59 221.88 L -298.22 220.18 L -299.50 219.53 L -306.30 218.70 L -308.37 219.39 L -309.63 221.14 L -311.19 225.91 L -310.94 229.34 L -309.64 231.65 L -308.73 232.57 L -306.06 234.24 L -303.82 235.06 L -298.70 234.41 L -295.47 232.63 L -293.92 230.95 L -292.45 228.64 L -289.58 222.07 L -288.46 221.12 L -286.11 220.71 L -285.03 220.86 L -283.12 221.83 L -278.88 226.92 L -276.80 230.65 L -275.51 234.88 L -275.59 236.53 L -276.11 234.40 L -275.70 232.72 L -274.33 229.64 L -272.19 226.18 L -270.07 224.24 L -268.49 223.45 L -264.72 222.76 L -262.39 223.08 L -260.85 224.69 L -258.98 231.06 L -259.00 234.17" fill="none" stroke="rgb(0,0,0)" stroke-width="8.00" stroke-linecap="round" stroke-linejoin="round"/>
  <path d="M -243.66 214.69 L -248.03 216.20 L -252.25 218.33 L -254.22 220.42 L -255.43 223.27 L -255.07 225.83 L -253.68 228.67 L -252.55 229.86 L -251.65 230.30 L -249.77 230.61 L -242.00 229.68 L -239.10 229.92 L -238.35 230.28 L -238.40 231.67 L -238.91 232.86 L -241.55 235.80 L -243.21 239.03" fill="none" stroke="rgb(0,0,0)" stroke-width="8.00" stroke-linecap="round" stroke-linejoin="round"/>
  <path d="M -235.74 188.54 L -234.37 198.16 L -232.15 207.68 L -230.30 213.01 L -225.34 224.73 L -223.52 231.55" fill="none" stroke="rgb(0,0,0)" stroke-width="8.00" stroke-linecap="round" stroke-linejoin="round"/>
  <path d="M -238.17 220.01 L -231.97 218.87 L -227.79 217.34 L -224.38 215.03 L -222.17 212.28 L -219.94 211.04" fill="none" stroke="rgb(0,0,0)" stroke-width="8.00" stroke-linecap="round" stroke-linejoin="round"/>
  <path d="M -201.91 221.26 L -203.36 218.02 L -206.21 217.23 L -207.56 217.87 L -210.17 220.11 L -212.79 223.41 L -214.48 227.06 L -214.44 229.34 L -212.71 232.74 L -209.87 234.72 L -208.60 235.04 L -206.97 234.84 L -205.12 233.62 L -204.24 232.29 L -202.74 226.42 L -202.75 220.31 L -201.98 224.31 L -200.11 228.30 L -197.76 231.42 L -195.04 233.99 L -194.48 233.64 L -192.47 226.30 L -191.00 222.24 L -189.17 220.12 L -184.31 218.89 L -183.08 219.33 L -182.19 220.10 L -179.51 224.71 L -178.40 229.49 L -178.27 231.81 L -178.94 228.62 L -177.85 225.74 L -177.06 224.63 L -175.41 222.87 L -171.08 219.45 L -169.83 218.74 L -167.71 218.24 L -165.73 219.13 L -162.63 222.60 L -160.97 226.44 L -159.03 234.55 L -157.97 235.74" fill="none" stroke="rgb(0,0,0)" stroke-width="8.00" stroke-linecap="round" stroke-linejoin="round"/>
  <path d="M -160.28 183.34 L -155.01 194.46 L -153.52 199.69 L -150.01 215.44 L -146.98 223.99 L -146.00 228.02 L -145.16 229.37" fill="none" stroke="rgb(0,0,0)" stroke-width="8.00" stroke-linecap="round" stroke-linejoin="round"/>
  <path d="M -158.06 223.33 L -150.86 222.65 L -145.06 221.21 L -141.26 221.53" fill="none" stroke="rgb(0,0,0)" stroke-width="8.00" stroke-linecap="round" stroke-linejoin="round"/>
  <path d="M -130.70 215.10 L -127.63 227.80 L -126.57 229.72" fill="none" stroke="rgb(0,0,0)" stroke-width="8.00" stroke-linecap="round" stroke-linejoin="round"/>
  <path d="M -128.02 208.01 L -128.03 208.14" fill="none" stroke="rgb(0,0,0)" stroke-width="8.00" stroke-linecap="round" stroke-linejoin="round"/>
  <path d="M -121.46 214.37 L -118.79 219.07 L -117.07 222.84 L -116.36 225.22 L -115.33 231.11 L -113.69 233.42 L -115.97 229.45 L -116.47 227.97 L -116.49 226.19 L -116.26 223.64 L -115.69 221.78 L -114.13 219.14 L -112.74 218.31 L -107.39 217.03 L -104.84 218.09 L -103.74 219.29 L -102.25 222.17 L -100.72 228.57 L -100.61 230.37 L -100.61 229.60 L -100.03 228.44" fill="none" stroke="rgb(0,0,0)" stroke-width="8.00" stroke-linecap="round" stroke-linejoin="round"/>
  <path d="M -85.73 217.12 L -88.88 216.81 L -90.34 217.12 L -91.57 217.83 L -93.32 220.03 L -93.68 222.23 L -93.12 225.98 L -90.86 231.68 L -89.07 233.49 L -86.38 234.79 L -84.87 235.14 L -82.68 234.96 L -79.19 233.79 L -77.48 232.63 L -75.77 230.47 L -74.47 228.14 L -73.52 225.43 L -72.71 218.73 L -72.81 216.36 L -73.56 213.50 L -74.61 211.18 L -77.00 208.30 L -78.00 207.55 L -81.71 205.90 L -84.45 205.16 L -88.60 204.78 L -90.60 205.58 L -91.88 208.16 L -91.80 210.36 L -90.36 213.14 L -88.47 214.30 L -82.50 216.42 L -72.90 218.15 L -65.07 217.89 L -63.93 217.63 L -65.05 217.20" fill="none" stroke="rgb(0,0,0)" stroke-width="8.00" stroke-linecap="round" stroke-linejoin="round"/>
  <path d="M -18.46 218.01 L -12.90 219.41 L -1.30 219.94 L 5.01 220.56 L 8.20 220.41 L 9.03 220.06 L 11.36 217.03" fill="none" stroke="rgb(0,0,0)" stroke-width="8.00" stroke-linecap="round" stroke-linejoin="round"/>
  <path d="M 9.45 211.65 L 12.40 214.59 L 16.75 217.40 L 16.26 217.01 L 12.63 220.14 L 10.74 221.02" fill="none" stroke="rgb(0,0,0)" stroke-width="8.00" stroke-linecap="round" stroke-linejoin="round"/>
  <path d="M 41.08 227.57 L 41.97 223.13 L 42.02 219.48 L 41.54 216.66 L 40.52 215.15 L 40.71 215.40 L 44.19 213.27 L 45.95 212.83 L 47.23 213.10 L 47.30 219.74 L 48.65 222.81 L 49.92 223.85 L 53.08 225.57 L 55.81 226.72 L 57.18 226.94 L 60.05 226.52 L 61.96 225.34 L 63.38 223.86 L 65.01 220.36 L 66.05 216.78 L 65.89 215.51 L 65.42 215.02 L 63.62 214.43 L 62.18 214.77 L 60.45 216.60 L 59.40 218.80 L 58.94 222.08 L 59.13 224.68 L 60.02 227.67 L 61.89 229.67 L 63.81 230.07 L 68.74 229.46 L 70.90 228.34 L 74.22 225.46" fill="none" stroke="rgb(0,0,0)" stroke-width="8.00" stroke-linecap="round" stroke-linejoin="round"/>
  <path d="M 81.27 220.00 L 74.88 221.60 L 73.16 222.40 L 71.99 223.67 L 72.02 224.20 L 72.83 226.23 L 73.71 226.87 L 76.97 227.16 L 79.96 226.12 L 80.45 225.74 L 81.58 223.01 L 84.05 227.42 L 84.64 227.44 L 85.61 227.10 L 87.31 225.83 L 88.49 223.09 L 91.61 223.01" fill="none" stroke="rgb(0,0,0)" stroke-width="8.00" stroke-linecap="round" stroke-linejoin="round"/>
  <path d="M 100.20 216.69 L 97.68 217.10 L 95.70 218.10 L 94.07 219.58 L 93.40 220.72 L 93.10 221.94 L 93.43 224.40 L 94.46 226.86 L 95.44 228.22 L 97.27 229.38 L 99.85 230.39 L 104.92 229.56 L 106.10 226.98 L 107.25 222.42" fill="none" stroke="rgb(0,0,0)" stroke-width="8.00" stroke-linecap="round" stroke-linejoin="round"/>
  <path d="M 108.60 191.16 L 110.84 206.26 L 112.32 219.03 L 113.79 226.04 L 113.62 227.02 L 112.61 225.47 L 112.58 222.78 L 114.38 219.29 L 117.07 218.13 L 119.94 217.53 L 121.80 217.73 L 123.05 218.33 L 124.11 219.28 L 124.68 220.53 L 125.72 225.80 L 125.64 228.46 L 125.15 229.78" fill="none" stroke="rgb(0,0,0)" stroke-width="8.00" stroke-linecap="round" stroke-linejoin="round"/>
  <path d="M 180.07 219.57 L 177.31 217.94 L 174.20 216.59 L 173.34 216.61 L 172.74 217.09 L 169.46 224.46 L 168.81 227.02 L 168.87 228.78 L 169.47 230.10 L 170.20 231.16 L 171.83 232.27 L 174.90 233.30 L 179.26 232.97 L 183.44 231.35 L 184.99 230.12 L 185.29 229.42 L 186.02 225.59 L 186.03 224.04 L 185.03 220.41 L 183.68 218.02 L 181.69 215.77 L 180.24 214.77 L 178.35 214.32 L 176.15 214.91 L 174.04 216.60 L 171.82 220.67 L 171.47 221.64 L 171.59 222.69 L 173.56 224.61 L 175.64 225.27 L 180.55 224.84 L 188.64 221.97 L 190.03 221.17 L 190.47 220.49 L 190.13 220.97 L 191.18 224.25 L 193.13 227.68 L 200.03 233.28 L 201.20 233.50 L 202.12 231.99" fill="none" stroke="rgb(0,0,0)" stroke-width="8.00" stroke-linecap="round" stroke-linejoin="round"/>
  <path d="M 202.38 231.38 L 202.02 231.44 L 205.20 227.10 L 207.19 223.77 L 208.11 221.19 L 206.04 228.92 L 205.96 230.78 L 206.51 233.46 L 207.71 234.74 L 208.75 234.59" fill="none" stroke="rgb(0,0,0)" stroke-width="8.00" stroke-linecap="round" stroke-linejoin="round"/>
  <path d="M 219.90 198.07 L 219.86 192.49 L 219.83 200.30 L 222.02 220.25 L 224.23 229.88 L 225.54 233.55 L 226.15 233.88" fill="none" stroke="rgb(0,0,0)" stroke-width="8.00" stroke-linecap="round" stroke-linejoin="round"/>
  <path d="M 215.07 217.68 L 233.25 215.10 L 239.79 213.61" fill="none" stroke="rgb(0,0,0)" stroke-width="8.00" stroke-linecap="round" stroke-linejoin="round"/>
  <path d="M -342.69 352.18 L -344.48 349.13 L -345.79 346.10 L -346.36 343.92 L -346.61 340.33 L -346.41 338.26 L -343.85 330.27 L -342.45 323.75 L -341.56 321.78 L -340.55 320.44 L -339.53 319.94 L -337.86 319.80 L -335.59 320.86 L -334.41 321.93 L -330.68 326.77 L -327.13 333.89 L -324.62 344.32 L -322.78 360.48 L -322.72 363.90 L -323.71 365.37 L -325.53 363.79 L -326.40 362.47 L -327.28 358.85 L -326.79 350.83 L -324.23 337.99 L -322.32 333.46 L -319.73 329.90 L -315.20 326.30 L -310.67 324.49 L -308.73 330.40 L -309.22 339.61 L -308.97 346.55 L -306.24 361.68 L -305.04 364.58 L -300.83 369.29 L -299.65 369.78 L -297.61 369.29 L -295.99 368.37 L -295.12 367.20 L -292.16 358.47 L -292.37 359.21 L -292.15 360.20 L -286.47 369.89 L -284.90 370.05 L -282.53 369.45 L -281.83 367.14" fill="none" stroke="rgb(0,0,0)" stroke-width="8.00" stroke-linecap="round" stroke-linejoin="round"/>
  <path d="M -287.13 345.31 L -287.33 345.61" fill="none" stroke="rgb(0,0,0)" stroke-width="8.00" stroke-linecap="round" stroke-linejoin="round"/>
  <path d="M -269.99 351.00 L -274.47 354.39 L -275.46 355.74 L -276.62 358.37 L -276.81 359.93 L -276.49 361.92 L -274.99 365.36 L -273.46 367.10 L -270.68 368.25 L -268.45 367.92 L -264.72 366.35 L -260.93 365.18 L -260.28 365.13 L -260.49 365.32" fill="none" stroke="rgb(0,0,0)" stroke-width="8.00" stroke-linecap="round" stroke-linejoin="round"/>
  <path d="M -255.66 350.50 L -256.77 352.34 L -258.27 355.95 L -258.58 358.93 L -258.01 361.66 L -256.72 364.17 L -255.06 365.71 L -250.10 367.85 L -246.30 367.51 L -243.44 366.36 L -241.65 364.92 L -240.94 363.46 L -240.33 359.73 L -240.60 356.45 L -241.48 353.85 L -243.46 350.53 L -246.73 348.13 L -251.88 347.25 L -253.65 347.60 L -255.56 348.50 L -257.52 351.22 L -257.24 353.32 L -255.49 355.54 L -251.16 357.51 L -245.77 357.23 L -238.70 356.00 L -233.51 354.77 L -232.45 354.13 L -232.60 353.65" fill="none" stroke="rgb(0,0,0)" stroke-width="8.00" stroke-linecap="round" stroke-linejoin="round"/>
  <path d="M -184.79 340.74 L -184.79 333.88 L -183.33 328.88 L -181.54 328.69 L -180.47 329.13 L -174.24 333.67 L -172.21 335.66 L -170.59 338.13 L -168.31 344.52 L -166.68 352.08 L -165.40 361.75 L -164.94 363.15 L -164.05 364.11 L -164.67 363.00 L -165.03 361.19 L -165.15 357.20 L -164.89 345.26 L -163.77 337.43 L -162.54 333.83 L -161.30 332.22 L -158.18 330.81 L -156.44 330.57 L -155.72 330.88 L -152.39 334.25 L -150.63 336.63 L -148.79 339.77 L -147.56 343.10 L -145.75 356.49 L -144.62 361.60 L -144.86 363.49 L -144.75 368.08 L -144.71 355.72 L -143.63 350.08 L -141.11 342.48 L -139.64 340.90 L -135.95 340.03 L -132.32 340.28 L -129.24 341.19 L -125.99 343.98 L -123.47 347.51 L -122.77 349.45 L -121.75 355.26 L -121.69 357.41 L -122.05 359.25 L -123.16 361.98 L -124.50 364.28 L -125.03 366.80 L -126.31 366.60" fill="none" stroke="rgb(0,0,0)" stroke-width="8.00" stroke-linecap="round" stroke-linejoin="round"/>
  <path d="M -104.20 361.88 L -105.47 358.84 L -106.41 357.81 L -108.61 357.16 L -111.04 357.34 L -114.65 358.84 L -119.11 363.84 L -119.21 365.74 L -116.32 373.47 L -115.14 374.88 L -112.97 376.17 L -112.07 376.22 L -110.22 374.92 L -108.73 372.89 L -106.28 363.87 L -106.38 360.69 L -106.27 361.91 L -105.09 363.97 L -102.74 366.31 L -101.55 367.00 L -99.99 367.20 L -98.36 366.96 L -94.06 364.93" fill="none" stroke="rgb(0,0,0)" stroke-width="8.00" stroke-linecap="round" stroke-linejoin="round"/>
  <path d="M -80.01 356.10 L -85.60 357.70 L -86.89 358.86 L -88.26 361.01 L -88.83 363.22 L -88.66 366.00 L -86.27 370.65 L -85.66 371.27 L -84.66 371.62 L -82.61 371.23 L -78.49 368.91 L -76.38 367.13 L -74.23 363.39 L -73.85 363.67 L -71.88 367.83 L -69.39 370.18 L -67.86 370.59 L -65.86 370.19 L -63.78 369.36 L -63.37 368.23" fill="none" stroke="rgb(0,0,0)" stroke-width="8.00" stroke-linecap="round" stroke-linejoin="round"/>
  <path d="M -71.41 345.44 L -71.45 345.97" fill="none" stroke="rgb(0,0,0)" stroke-width="8.00" stroke-linecap="round" stroke-linejoin="round"/>
  <path d="M -46.95 363.32 L -45.69 359.03 L -50.14 357.85 L -51.62 358.11 L -54.03 359.63 L -58.65 364.70 L -58.83 366.04 L -57.58 368.15 L -54.93 370.15 L -52.44 371.00 L -49.52 370.84 L -46.88 369.48 L -45.66 364.76 L -45.71 361.01 L -46.05 360.24 L -45.85 362.16 L -43.65 368.89 L -41.33 371.50 L -40.04 371.92 L -36.71 371.08 L -33.24 362.83 L -29.70 361.75 L -27.91 362.31 L -26.92 363.02 L -25.64 364.73 L -24.09 367.80 L -24.15 368.66 L -24.48 367.38 L -24.18 365.87 L -23.38 364.38 L -21.67 362.82 L -20.34 362.22 L -16.82 361.57 L -13.74 361.85 L -11.17 363.05 L -7.95 366.26 L -3.20 375.29" fill="none" stroke="rgb(0,0,0)" stroke-width="8.00" stroke-linecap="round" stroke-linejoin="round"/>
  <path d="M 28.55 370.26 L 30.97 371.43 L 39.37 374.08 L 46.69 375.74 L 50.99 376.06 L 59.50 375.23 L 62.72 375.24 L 62.31 375.20 L 61.15 371.83 L 61.10 369.36" fill="none" stroke="rgb(0,0,0)" stroke-width="8.00" stroke-linecap="round" stroke-linejoin="round"/>
  <path d="M 61.18 369.18 L 60.97 368.87 L 61.44 368.87 L 65.55 369.91 L 67.58 370.91 L 69.20 372.29 L 70.21 375.99 L 68.81 377.77 L 67.67 378.24" fill="none" stroke="rgb(0,0,0)" stroke-width="8.00" stroke-linecap="round" stroke-linejoin="round"/>
  <path d="M 95.18 387.73 L 95.29 385.64 L 94.63 377.12 L 93.91 372.49 L 93.15 371.27 L 93.18 370.80 L 93.66 369.80 L 94.51 369.04 L 98.64 367.33 L 100.34 367.56 L 100.01 367.71 L 100.25 373.79 L 102.42 379.00 L 104.33 381.31 L 107.27 382.87 L 109.72 383.13 L 112.38 381.54 L 116.72 376.28 L 118.76 369.04 L 118.45 368.25 L 117.79 367.86 L 114.88 367.45 L 112.33 372.00 L 111.17 377.75 L 111.39 380.02 L 113.30 383.90 L 114.80 385.18 L 116.45 385.19 L 120.97 382.82 L 124.90 379.59" fill="none" stroke="rgb(0,0,0)" stroke-width="8.00" stroke-linecap="round" stroke-linejoin="round"/>
  <path d="M 134.03 375.56 L 132.01 374.61 L 129.92 374.26 L 128.06 374.61 L 127.01 375.39 L 124.89 378.83 L 124.44 380.41 L 124.81 383.38 L 125.72 384.69 L 126.47 384.92 L 128.24 384.66 L 130.44 383.29 L 131.53 381.34 L 133.13 375.90 L 134.05 373.82 L 133.97 381.18 L 135.17 383.62 L 136.16 383.73 L 137.79 383.29 L 141.86 381.12 L 142.55 380.34" fill="none" stroke="rgb(0,0,0)" stroke-width="8.00" stroke-linecap="round" stroke-linejoin="round"/>
  <path d="M 152.05 371.74 L 145.59 374.98 L 143.94 376.07 L 143.28 376.98 L 142.34 380.11 L 142.74 382.52 L 143.75 384.79 L 144.81 386.05 L 146.11 386.86 L 148.47 386.89 L 157.30 383.56 L 157.69 382.52" fill="none" stroke="rgb(0,0,0)" stroke-width="8.00" stroke-linecap="round" stroke-linejoin="round"/>
  <path d="M 157.01 344.67 L 157.03 349.83 L 157.86 357.45 L 161.05 374.04 L 161.11 377.66 L 161.76 382.74 L 162.92 378.54 L 164.26 371.73 L 165.11 369.71 L 167.11 367.66 L 169.88 367.44 L 171.44 367.99 L 173.30 369.54 L 174.31 370.79 L 175.36 372.89 L 175.93 374.86 L 176.62 381.15 L 176.42 385.37 L 175.96 383.33" fill="none" stroke="rgb(0,0,0)" stroke-width="8.00" stroke-linecap="round" stroke-linejoin="round"/>
  <path d="M 213.57 374.80 L 211.29 369.91 L 210.70 369.21 L 209.89 368.97 L 208.38 370.21 L 206.39 372.55 L 204.69 375.60 L 204.42 377.87 L 204.92 380.08 L 206.07 382.68 L 207.19 384.08 L 210.50 386.00 L 212.88 386.20 L 216.32 384.68 L 217.80 383.18 L 218.62 380.75 L 218.53 379.21 L 217.41 376.28 L 215.39 372.72 L 214.28 371.87 L 212.03 371.47 L 209.61 372.16 L 206.35 374.77 L 205.92 376.73 L 206.73 378.34 L 208.98 379.47 L 214.50 380.32 L 217.55 380.20 L 221.17 378.46 L 222.24 377.55 L 223.99 375.20 L 224.92 372.46 L 224.74 373.79 L 226.38 382.09 L 227.55 384.30 L 229.91 386.39 L 231.22 386.24 L 232.47 385.10 L 235.40 376.90 L 234.55 378.66 L 234.40 381.92 L 237.40 389.86 L 238.00 391.13 L 238.88 391.94 L 242.83 392.20 L 246.00 390.95 L 247.98 388.37 L 248.62 385.78" fill="none" stroke="rgb(0,0,0)" stroke-width="8.00" stroke-linecap="round" stroke-linejoin="round"/>
  <path d="M 243.51 349.26 L 243.77 355.59 L 244.87 363.74 L 245.98 368.81 L 247.82 373.96 L 253.07 381.68 L 255.33 385.71 L 257.56 388.15 L 258.70 388.82 L 259.98 388.81 L 260.82 388.25 L 261.56 386.56 L 261.69 384.95 L 260.60 379.80" fill="none" stroke="rgb(0,0,0)" stroke-width="8.00" stroke-linecap="round" stroke-linejoin="round"/>
  <path d="M 244.76 371.24 L 250.74 373.63 L 257.38 374.64 L 260.04 374.21 L 263.29 372.86 L 264.97 371.72 L 266.63 370.03" fill="none" stroke="rgb(0,0,0)" stroke-width="8.00" stroke-linecap="round" stroke-linejoin="round"/>
</svg>
