<?xml version="1.0" encoding="UTF-8"?>
<svg xmlns="http://www.w3.org/2000/svg" viewBox="-361.0 85.9 766.9 1188.2" width="767" height="1188">
<rect x="-361.0" y="85.9" width="766.9" height="1188.2" fill="white"/>
  <path d="M -278.90 279.11 L -271.41 257.38 L -269.23 247.33 L -272.22 256.24 L -275.41 268.51 L -279.52 287.09 L -282.93 304.39 L -283.85 310.92 L -284.87 322.13 L -284.63 329.60 L -283.41 334.32 L -283.46 335.45 L -283.88 333.94 L -284.08 330.21" fill="none" stroke="rgb(0,0,0)" stroke-width="8.00" stroke-linecap="round" stroke-linejoin="round"/>
  <path d="M -292.90 270.11 L -294.66 276.77 L -295.09 280.33 L -295.08 285.32 L -294.10 291.99 L -289.22 308.95 L -286.15 318.30 L -284.82 320.06 L -283.87 320.50 L -282.45 320.45" fill="none" stroke="rgb(0,0,0)" stroke-width="8.00" stroke-linecap="round" stroke-linejoin="round"/>
  <path d="M -262.09 304.82 L -265.12 304.42 L -267.31 304.78 L -269.03 305.82 L -270.23 308.27 L -272.14 318.50 L -272.54 324.74 L -272.32 328.72 L -271.68 332.00 L -271.00 334.19 L -269.86 335.60 L -268.06 336.21 L -266.15 336.21 L -263.52 335.53 L -262.09 334.56 L -259.09 331.59 L -257.58 329.64 L -255.97 326.41 L -253.92 320.84 L -253.12 317.23 L -252.67 311.38 L -253.29 307.44 L -254.48 304.73 L -256.19 301.96 L -258.10 300.63 L -260.01 300.26 L -262.47 301.18 L -265.01 303.09 L -266.93 305.70 L -267.64 307.51 L -268.81 312.62 L -268.79 316.30 L -267.88 319.58 L -266.31 321.49 L -261.68 324.01 L -259.61 324.74 L -257.46 324.71 L -253.79 322.81 L -250.83 319.64 L -248.90 315.85 L -247.01 310.60 L -245.50 304.25 L -247.33 309.10 L -247.94 312.89 L -246.79 324.23 L -245.97 327.24 L -245.19 328.60 L -242.46 330.29 L -239.61 330.13 L -236.96 328.73 L -235.20 326.65 L -233.63 323.09 L -231.62 313.68 L -230.48 310.21 L -230.67 307.24 L -231.69 311.87 L -231.52 322.44 L -230.88 325.88 L -229.67 329.37 L -228.75 330.71 L -227.17 331.28 L -225.19 331.03 L -220.11 329.11" fill="none" stroke="rgb(0,0,0)" stroke-width="8.00" stroke-linecap="round" stroke-linejoin="round"/>
  <path d="M -32.45 274.06 L -30.52 288.91 L -28.06 318.17 L -26.94 325.21 L -25.45 331.08 L -25.59 332.64 L -25.87 330.34 L -25.87 323.42 L -25.29 318.29 L -24.27 314.32 L -23.04 311.59 L -21.54 309.67 L -20.48 308.94 L -19.25 308.98 L -18.42 310.33 L -16.18 322.17 L -14.61 327.71 L -14.51 329.17" fill="none" stroke="rgb(0,0,0)" stroke-width="8.00" stroke-linecap="round" stroke-linejoin="round"/>
  <path d="M 7.04 310.24 L -0.56 308.78 L -2.62 309.20 L -4.28 310.32 L -5.74 312.70 L -7.00 315.99 L -9.05 325.48 L -9.25 330.51 L -9.09 332.26 L -8.25 333.35 L -5.94 332.99 L -3.90 331.72 L -1.45 327.78 L 0.56 323.39 L 1.80 320.16 L 2.95 315.42 L 2.91 316.92 L 5.04 324.27 L 7.04 327.13 L 8.21 328.23" fill="none" stroke="rgb(0,0,0)" stroke-width="8.00" stroke-linecap="round" stroke-linejoin="round"/>
  <path d="M 14.81 310.58 L 14.98 329.49 L 15.70 331.75 L 16.98 333.07 L 18.69 331.37 L 19.49 329.99 L 23.75 320.84 L 26.27 313.81 L 26.64 313.41" fill="none" stroke="rgb(0,0,0)" stroke-width="8.00" stroke-linecap="round" stroke-linejoin="round"/>
  <path d="M 34.14 327.33 L 35.25 327.19 L 39.02 325.61 L 40.64 324.48 L 41.62 323.34 L 42.05 311.93 L 41.54 309.50 L 40.76 308.01 L 39.62 308.51 L 38.48 309.68 L 36.73 312.07 L 35.05 315.53 L 32.49 324.93 L 32.21 327.22 L 32.33 330.14 L 33.73 335.69 L 34.80 337.43 L 35.92 338.31 L 37.51 338.82 L 39.69 338.42 L 45.00 336.12" fill="none" stroke="rgb(0,0,0)" stroke-width="8.00" stroke-linecap="round" stroke-linejoin="round"/>
  <path d="M 97.63 306.47 L 94.95 310.82 L 94.40 312.49 L 97.62 328.04 L 98.06 329.13 L 98.66 329.54 L 99.89 329.55 L 104.37 328.59 L 106.25 327.81 L 107.08 326.89 L 107.80 324.64 L 109.62 314.50 L 110.61 312.10 L 111.47 317.27 L 114.12 328.23 L 115.06 329.90 L 116.39 331.31 L 118.43 332.77 L 119.81 332.97 L 120.85 332.04 L 121.99 330.36 L 124.93 318.91 L 125.35 317.73 L 125.39 318.16" fill="none" stroke="rgb(0,0,0)" stroke-width="8.00" stroke-linecap="round" stroke-linejoin="round"/>
  <path d="M 127.89 278.62 L 130.78 316.25 L 132.29 329.68 L 132.08 335.32 L 131.23 333.66 L 130.89 331.69 L 130.95 329.07 L 133.76 319.43 L 135.49 317.10 L 138.02 316.65 L 138.74 317.05 L 141.21 319.71 L 142.17 321.21 L 142.82 322.98 L 145.01 335.46 L 144.99 337.66 L 144.28 338.83 L 143.91 338.40" fill="none" stroke="rgb(0,0,0)" stroke-width="8.00" stroke-linecap="round" stroke-linejoin="round"/>
  <path d="M 162.04 327.13 L 159.09 325.25 L 155.17 324.00 L 153.94 324.02 L 152.76 324.68 L 151.44 326.10 L 149.94 328.45 L 147.50 334.59 L 145.34 338.90 L 145.31 339.58 L 147.51 341.10 L 149.75 342.17 L 150.73 342.18 L 151.47 341.82 L 153.21 340.35 L 155.93 336.07 L 157.54 332.58 L 158.98 328.18 L 159.93 323.38 L 161.48 337.49 L 162.40 340.18 L 163.89 342.14 L 164.72 344.08" fill="none" stroke="rgb(0,0,0)" stroke-width="8.00" stroke-linecap="round" stroke-linejoin="round"/>
  <path d="M 171.36 280.56 L 172.48 276.61 L 173.05 278.08 L 173.56 281.59 L 174.73 297.15 L 175.36 333.40 L 176.13 339.56 L 177.26 343.79 L 179.20 348.78 L 178.61 347.77" fill="none" stroke="rgb(0,0,0)" stroke-width="8.00" stroke-linecap="round" stroke-linejoin="round"/>
  <path d="M 164.34 319.55 L 166.81 321.14 L 168.24 321.70 L 170.94 322.43 L 173.29 322.65 L 174.77 322.42 L 176.58 321.66 L 179.38 319.64 L 180.45 318.27" fill="none" stroke="rgb(0,0,0)" stroke-width="8.00" stroke-linecap="round" stroke-linejoin="round"/>
  <path d="M 252.55 305.59 L 251.40 310.55 L 245.98 327.75 L 242.31 337.72 L 242.44 338.78 L 242.72 338.76 L 242.94 335.59" fill="none" stroke="rgb(0,0,0)" stroke-width="8.00" stroke-linecap="round" stroke-linejoin="round"/>
  <path d="M 237.30 308.94 L 237.92 314.51 L 238.55 316.97 L 240.27 319.09 L 241.39 321.15 L 243.13 321.90" fill="none" stroke="rgb(0,0,0)" stroke-width="8.00" stroke-linecap="round" stroke-linejoin="round"/>
  <path d="M 256.48 313.75 L 254.56 317.96 L 251.13 330.07 L 250.92 332.50 L 251.55 334.81 L 255.25 338.62 L 256.75 339.31 L 257.59 339.35 L 259.78 338.32 L 261.10 337.22 L 264.45 333.53 L 266.02 331.05 L 267.86 325.88 L 269.08 318.94 L 269.17 317.01 L 267.57 311.64 L 265.60 308.49 L 264.04 307.05 L 262.88 306.97 L 261.22 308.10 L 257.50 313.28 L 255.03 320.15 L 255.33 323.54 L 256.36 326.11 L 258.26 328.70 L 259.41 329.29 L 261.76 329.48 L 265.64 328.02 L 268.52 326.10 L 271.97 321.33 L 270.18 324.27 L 268.61 328.10 L 267.49 333.36 L 267.56 337.65 L 269.57 341.34 L 270.44 341.96 L 271.44 341.84 L 273.73 340.47 L 281.61 330.97 L 285.23 324.82 L 287.25 320.74 L 287.81 318.86 L 286.17 325.85 L 284.52 339.35 L 284.71 346.00 L 285.68 348.13 L 288.05 350.06 L 291.06 351.88 L 293.46 351.95" fill="none" stroke="rgb(0,0,0)" stroke-width="8.00" stroke-linecap="round" stroke-linejoin="round"/>
  <path d="M -186.70 1122.29 L -186.30 1118.47 L -179.51 1157.95 L -174.95 1180.05 L -174.06 1186.07 L -173.49 1187.33 L -173.49 1187.60 L -174.97 1186.55 L -176.50 1185.13 L -177.61 1183.09 L -178.60 1180.00 L -180.65 1172.09 L -181.16 1168.75 L -180.70 1161.93 L -179.30 1157.20 L -177.74 1155.52 L -175.53 1154.44 L -166.19 1152.28 L -164.21 1152.72 L -162.52 1153.55 L -160.62 1155.37 L -159.39 1158.06 L -158.64 1165.75 L -158.64 1171.00 L -159.12 1174.90 L -160.41 1179.14 L -161.17 1180.59 L -162.29 1182.06 L -163.79 1183.26 L -169.96 1185.18 L -174.71 1185.02 L -176.32 1184.50 L -176.72 1184.04 L -175.61 1182.68" fill="none" stroke="rgb(0,0,0)" stroke-width="8.00" stroke-linecap="round" stroke-linejoin="round"/>
  <path d="M -146.85 1163.93 L -146.64 1163.45 L -144.78 1164.50 L -142.35 1164.77 L -140.57 1164.09 L -139.22 1162.69 L -137.67 1158.48 L -136.75 1148.75 L -139.57 1150.30 L -142.06 1152.78 L -144.14 1155.67 L -146.44 1160.20 L -148.48 1166.11 L -150.19 1174.74 L -150.41 1177.78 L -150.02 1180.65 L -149.31 1181.33 L -145.66 1182.35 L -143.50 1182.38 L -139.26 1181.75 L -133.72 1179.87 L -123.78 1174.69 L -122.38 1174.37 L -122.97 1175.98" fill="none" stroke="rgb(0,0,0)" stroke-width="8.00" stroke-linecap="round" stroke-linejoin="round"/>
  <path d="M -72.97 1147.22 L -60.49 1162.91 L -55.99 1167.51 L -52.32 1170.52 L -54.38 1173.47 L -56.75 1175.90 L -59.03 1177.37 L -66.14 1180.59 L -69.33 1183.95" fill="none" stroke="rgb(0,0,0)" stroke-width="8.00" stroke-linecap="round" stroke-linejoin="round"/>
  <path d="M 7.24 1102.66 L 7.71 1118.65 L 8.83 1133.85 L 10.09 1145.17 L 12.37 1157.90 L 15.89 1172.36 L 16.48 1176.13 L 17.34 1177.72 L 14.88 1175.83 L 13.98 1174.41" fill="none" stroke="rgb(0,0,0)" stroke-width="8.00" stroke-linecap="round" stroke-linejoin="round"/>
  <path d="M 7.09 1160.99 L 7.85 1158.23 L 8.03 1154.59 L 7.61 1152.69 L 6.96 1151.61 L 6.67 1151.37 L 4.10 1151.74 L -0.22 1154.07 L -2.78 1156.47 L -5.62 1160.96 L -6.94 1164.78 L -8.21 1172.60 L -8.25 1179.37 L -7.15 1183.92 L -6.27 1185.71 L -4.00 1186.54 L -1.73 1186.31 L 3.09 1184.08 L 4.99 1182.53" fill="none" stroke="rgb(0,0,0)" stroke-width="8.00" stroke-linecap="round" stroke-linejoin="round"/>
  <path d="M 29.00 1158.55 L 27.42 1158.32 L 23.85 1159.19 L 21.19 1160.98 L 19.97 1163.05 L 18.25 1169.34 L 17.74 1173.24 L 18.37 1177.75 L 19.22 1180.02 L 20.08 1181.10 L 21.42 1181.52 L 25.96 1180.16 L 28.53 1178.87 L 32.09 1175.99 L 34.50 1172.99 L 36.95 1168.81 L 38.36 1165.36 L 39.16 1161.40 L 38.82 1160.11 L 37.26 1158.47 L 31.39 1157.07 L 29.31 1157.05 L 25.69 1157.71 L 21.62 1159.69 L 20.30 1161.16 L 18.95 1164.34 L 19.09 1165.12 L 20.37 1166.01 L 24.25 1167.28 L 26.34 1167.60 L 31.64 1168.13 L 38.83 1168.11" fill="none" stroke="rgb(0,0,0)" stroke-width="8.00" stroke-linecap="round" stroke-linejoin="round"/>
  <path d="M -291.49 410.79 L -291.63 413.13 L -292.90 420.29 L -292.90 423.98 L -290.20 432.62 L -289.27 434.69 L -287.09 436.62 L -285.81 436.97 L -284.67 436.72 L -282.62 435.50 L -281.18 433.86 L -279.70 431.06 L -279.21 429.04 L -277.78 421.04 L -277.88 416.53 L -279.43 422.97 L -279.54 424.75 L -279.24 428.49 L -278.10 432.59 L -276.79 435.51 L -274.86 437.93 L -273.22 439.05 L -270.87 439.98 L -269.96 439.90 L -268.64 439.19 L -266.59 437.03 L -265.09 434.56 L -263.99 431.34 L -262.32 420.26 L -262.20 417.37 L -262.44 413.03 L -264.05 415.04" fill="none" stroke="rgb(0,0,0)" stroke-width="8.00" stroke-linecap="round" stroke-linejoin="round"/>
  <path d="M -243.42 416.98 L -247.43 416.36 L -250.41 416.90 L -252.23 417.94 L -253.66 419.59 L -256.26 425.54 L -258.31 433.16 L -258.30 437.21 L -257.14 439.75 L -254.85 440.76 L -252.87 440.79 L -250.89 439.89 L -249.22 438.24 L -246.89 432.97 L -245.76 428.38 L -244.47 421.59 L -244.46 419.35 L -244.80 418.96 L -246.25 423.42 L -246.91 429.29 L -246.33 435.47 L -245.39 437.99 L -244.19 439.77 L -243.56 440.09 L -242.14 439.88 L -240.14 438.61 L -236.96 433.88 L -233.13 426.34 L -229.82 422.82 L -226.30 421.65 L -225.48 422.14 L -224.53 424.39 L -223.30 429.95 L -223.32 432.98 L -224.87 438.66 L -224.67 441.52 L -222.98 432.92 L -220.99 427.75 L -219.13 424.69 L -216.48 421.37 L -214.70 420.31 L -212.96 420.15 L -212.14 420.43 L -211.14 421.45 L -209.86 424.76 L -207.29 438.79 L -206.38 442.32 L -206.28 443.60 L -206.70 441.79" fill="none" stroke="rgb(0,0,0)" stroke-width="8.00" stroke-linecap="round" stroke-linejoin="round"/>
  <path d="M -193.38 413.10 L -192.02 435.50 L -190.77 443.84 L -190.21 445.33 L -188.53 447.42 L -188.33 446.92 L -188.61 445.77" fill="none" stroke="rgb(0,0,0)" stroke-width="8.00" stroke-linecap="round" stroke-linejoin="round"/>
  <path d="M -159.64 303.66 L -159.55 303.92 L -163.16 302.79 L -165.06 303.12 L -167.22 304.81 L -168.63 307.27 L -170.39 315.57 L -170.60 319.39 L -170.25 323.08 L -169.03 327.25 L -168.06 328.85 L -166.81 329.96 L -164.69 330.69 L -162.03 331.03 L -158.82 330.62 L -152.31 328.76 L -149.72 327.82 L -149.46 327.19" fill="none" stroke="rgb(0,0,0)" stroke-width="8.00" stroke-linecap="round" stroke-linejoin="round"/>
  <path d="M -135.68 308.85 L -138.39 304.83 L -139.53 303.74 L -140.79 303.26 L -142.79 303.00 L -143.83 303.39 L -145.84 305.01 L -147.18 306.83 L -148.45 309.67 L -150.21 315.37 L -150.64 319.13 L -150.41 321.96 L -149.32 325.38 L -148.15 327.03 L -146.74 328.20 L -143.29 329.74 L -141.50 329.97 L -139.10 328.89 L -137.29 326.52 L -135.11 316.59 L -134.73 303.27 L -135.79 307.22 L -135.88 312.04 L -133.25 322.85 L -131.75 325.21 L -129.07 327.20 L -127.13 328.08 L -125.77 327.94 L -125.28 327.13 L -120.12 309.20 L -118.31 309.00 L -117.07 309.49 L -115.30 311.38 L -114.09 313.36 L -112.94 316.59 L -111.12 325.25 L -111.18 327.76 L -111.71 326.24 L -111.80 324.02 L -110.17 318.72 L -109.17 316.59 L -106.26 311.35 L -105.21 310.08 L -103.55 308.59 L -101.83 308.22 L -101.19 308.45 L -100.35 309.29 L -99.86 310.70 L -98.18 321.19 L -98.18 329.40 L -98.83 330.50" fill="none" stroke="rgb(0,0,0)" stroke-width="8.00" stroke-linecap="round" stroke-linejoin="round"/>
  <path d="M -99.13 268.10 L -98.37 285.99" fill="none" stroke="rgb(0,0,0)" stroke-width="8.00" stroke-linecap="round" stroke-linejoin="round"/>
  <path d="M -84.92 278.18 L -82.21 313.31 L -82.36 326.29 L -82.17 327.46 L -81.88 327.64" fill="none" stroke="rgb(0,0,0)" stroke-width="8.00" stroke-linecap="round" stroke-linejoin="round"/>
  <path d="M -86.41 306.58 L -82.76 306.52 L -78.97 307.01" fill="none" stroke="rgb(0,0,0)" stroke-width="8.00" stroke-linecap="round" stroke-linejoin="round"/>
  <path d="M -195.38 415.49 L -195.83 407.09 L -197.82 389.65 L -197.95 384.19 L -197.60 378.08 L -197.95 391.27 L -196.84 403.31 L -196.37 423.86 L -195.87 426.73 L -194.87 428.91 L -194.57 430.47" fill="none" stroke="rgb(0,0,0)" stroke-width="8.00" stroke-linecap="round" stroke-linejoin="round"/>
  <path d="M -209.26 410.51 L -207.34 412.85 L -205.99 413.89 L -202.62 415.33 L -200.89 415.73 L -197.37 415.73 L -194.66 415.11 L -191.21 413.86 L -188.51 412.34" fill="none" stroke="rgb(0,0,0)" stroke-width="8.00" stroke-linecap="round" stroke-linejoin="round"/>
  <path d="M -125.50 391.07 L -123.92 402.32 L -120.98 428.98 L -119.97 444.95 L -120.38 430.01 L -118.77 423.01 L -117.00 419.97 L -115.83 419.29 L -113.36 419.07 L -111.65 419.82 L -110.38 420.96 L -109.03 422.58 L -107.39 425.66 L -106.04 431.80 L -106.00 433.23 L -106.64 435.60 L -109.80 440.54 L -111.75 442.16 L -113.63 443.20 L -114.95 443.46 L -117.34 443.06" fill="none" stroke="rgb(0,0,0)" stroke-width="8.00" stroke-linecap="round" stroke-linejoin="round"/>
  <path d="M -98.72 433.86 L -96.93 433.95 L -93.75 432.82 L -91.70 430.97 L -90.49 429.15 L -88.78 424.65 L -87.29 415.16 L -87.58 414.66 L -89.64 414.48 L -90.83 414.84 L -93.38 417.41 L -95.62 420.85 L -97.64 425.55 L -99.56 434.27 L -99.36 439.20 L -98.33 443.11 L -97.35 444.74 L -96.17 445.66 L -94.87 446.06 L -93.02 445.52 L -90.13 443.56 L -85.40 438.96 L -81.88 434.45" fill="none" stroke="rgb(0,0,0)" stroke-width="8.00" stroke-linecap="round" stroke-linejoin="round"/>
  <path d="M -77.72 426.50 L -74.50 445.23 L -73.92 447.31 L -73.18 447.98" fill="none" stroke="rgb(0,0,0)" stroke-width="8.00" stroke-linecap="round" stroke-linejoin="round"/>
  <path d="M -76.24 412.83 L -76.08 413.89" fill="none" stroke="rgb(0,0,0)" stroke-width="8.00" stroke-linecap="round" stroke-linejoin="round"/>
  <path d="M -64.67 425.70 L -61.83 431.33 L -61.05 434.61 L -60.38 441.14 L -60.36 450.76 L -60.32 437.65 L -60.05 435.27 L -58.18 427.62 L -57.61 426.37 L -56.67 425.53 L -55.10 424.84 L -51.60 424.33 L -49.92 424.56 L -48.37 425.73 L -47.78 427.24 L -46.97 432.09 L -47.07 440.20 L -47.51 442.24" fill="none" stroke="rgb(0,0,0)" stroke-width="8.00" stroke-linecap="round" stroke-linejoin="round"/>
  <path d="M -28.55 425.47 L -30.78 425.15 L -31.99 425.29 L -35.13 426.48 L -37.85 428.18 L -40.52 430.62 L -43.53 434.17 L -46.48 439.41 L -48.00 444.50 L -47.85 446.89 L -47.04 448.38 L -44.80 449.81 L -42.89 449.65 L -41.36 448.70 L -37.49 444.14 L -35.56 441.03 L -29.97 427.02 L -28.84 426.16 L -27.86 426.17 L -26.84 426.60 L -25.08 428.22 L -23.40 431.21 L -22.01 434.92 L -20.32 441.56 L -18.81 456.99 L -18.84 460.93 L -19.68 465.74 L -21.78 470.79 L -23.56 473.55 L -26.14 476.22 L -29.07 477.68 L -31.55 477.93 L -33.89 477.34 L -36.62 476.18 L -40.54 473.93" fill="none" stroke="rgb(0,0,0)" stroke-width="8.00" stroke-linecap="round" stroke-linejoin="round"/>
  <path d="M 39.41 425.49 L 38.94 426.94 L 38.66 429.85 L 39.21 433.49 L 40.18 436.95 L 41.32 439.05 L 42.90 440.72 L 46.58 442.24 L 48.55 441.90 L 49.94 440.65 L 50.48 439.62 L 52.44 431.82 L 52.65 428.93 L 52.41 425.76 L 51.49 428.36 L 51.41 431.61 L 54.38 439.49 L 55.40 440.89 L 56.93 442.06 L 57.67 442.24 L 58.62 442.00 L 60.00 440.91 L 60.76 439.80 L 63.97 426.24 L 61.58 431.19" fill="none" stroke="rgb(0,0,0)" stroke-width="8.00" stroke-linecap="round" stroke-linejoin="round"/>
  <path d="M 69.11 402.77 L 69.19 400.93 L 68.83 399.79 L 68.97 403.43 L 70.66 414.50 L 72.67 431.22 L 74.16 439.31 L 74.12 440.02 L 73.89 439.44 L 74.08 445.54" fill="none" stroke="rgb(0,0,0)" stroke-width="8.00" stroke-linecap="round" stroke-linejoin="round"/>
  <path d="M 73.76 445.19 L 74.45 445.67 L 74.81 445.33 L 75.06 441.96 L 76.33 436.09 L 78.14 432.26 L 80.74 429.36 L 84.20 428.61 L 85.33 428.72 L 87.19 429.56 L 88.69 431.30 L 89.71 433.23 L 91.36 440.30 L 92.48 442.48 L 92.52 442.79 L 91.37 443.39" fill="none" stroke="rgb(0,0,0)" stroke-width="8.00" stroke-linecap="round" stroke-linejoin="round"/>
  <path d="M 106.42 429.88 L 104.88 425.79 L 103.20 425.56 L 101.82 426.24 L 99.97 428.25 L 96.18 436.76 L 95.74 440.04 L 95.89 444.29 L 96.46 445.79 L 98.04 448.37 L 98.77 448.98 L 100.02 449.52 L 101.62 449.48 L 104.93 447.71 L 109.37 443.16 L 111.63 437.54 L 112.38 433.34 L 110.45 429.33 L 109.11 428.71 L 106.24 428.13 L 104.41 428.12 L 101.23 428.95 L 99.50 430.25 L 98.45 432.08" fill="none" stroke="rgb(0,0,0)" stroke-width="8.00" stroke-linecap="round" stroke-linejoin="round"/>
  <path d="M 153.70 443.71 L 151.53 448.38 L 151.45 448.92 L 151.67 448.62 L 156.37 437.86 L 157.93 433.56 L 160.34 422.02" fill="none" stroke="rgb(0,0,0)" stroke-width="8.00" stroke-linecap="round" stroke-linejoin="round"/>
  <path d="M 148.86 431.29 L 152.13 436.82 L 152.83 436.73 L 153.61 435.64" fill="none" stroke="rgb(0,0,0)" stroke-width="8.00" stroke-linecap="round" stroke-linejoin="round"/>
  <path d="M 172.44 426.24 L 170.31 427.11 L 168.48 428.89 L 167.27 431.38 L 166.42 434.31 L 166.27 438.83 L 166.84 443.76 L 168.82 450.99 L 170.58 451.10 L 175.43 447.66 L 181.29 439.66 L 182.98 436.13 L 183.52 434.29 L 183.73 430.27 L 183.32 428.35 L 182.21 426.23 L 180.33 425.31 L 177.35 425.68 L 174.57 426.64 L 171.96 428.05 L 169.99 430.02 L 168.91 432.31 L 168.56 434.24 L 168.67 436.97 L 169.67 438.66 L 171.94 440.21 L 174.10 440.69 L 176.77 440.78 L 179.92 439.63 L 181.95 438.34 L 183.38 436.98 L 187.67 429.56 L 188.38 428.92 L 188.55 429.66 L 187.80 433.95 L 187.87 438.84 L 189.52 447.52 L 190.16 448.99 L 191.43 449.98 L 193.84 450.49 L 195.90 450.00 L 197.37 448.96 L 198.13 447.93 L 199.79 444.64 L 203.41 434.31 L 202.99 442.99 L 203.88 449.02 L 204.98 452.02 L 206.44 454.83 L 207.97 456.58 L 210.00 456.85" fill="none" stroke="rgb(0,0,0)" stroke-width="8.00" stroke-linecap="round" stroke-linejoin="round"/>
  <path d="M 255.63 442.38 L 252.67 441.36" fill="none" stroke="rgb(0,0,0)" stroke-width="8.00" stroke-linecap="round" stroke-linejoin="round"/>
  <path d="M 261.25 435.01 L 258.95 433.65 L 255.72 432.52 L 254.04 432.48 L 252.33 433.36 L 245.03 441.93 L 245.29 443.37 L 247.66 446.43 L 248.98 446.93 L 250.23 446.39 L 253.36 442.70 L 255.08 439.53 L 257.41 432.82 L 257.46 431.66 L 257.10 432.60 L 256.94 435.01 L 257.24 441.46 L 259.69 447.80 L 261.06 449.11 L 261.86 449.40 L 263.87 448.90 L 265.31 448.09 L 270.03 439.20 L 278.19 433.05 L 279.73 432.31 L 279.57 432.75 L 280.14 436.99 L 279.62 443.03 L 279.84 446.61 L 280.88 449.10 L 282.37 451.34 L 283.29 452.05 L 284.84 452.52 L 287.65 451.98 L 290.84 449.82 L 293.34 447.23 L 297.55 441.81 L 298.98 437.92 L 299.05 436.87 L 298.71 435.20 L 297.32 433.27 L 295.45 432.58 L 294.23 433.19 L 292.05 435.32 L 289.97 438.30 L 289.62 439.41 L 290.02 442.44 L 291.02 445.70 L 292.06 447.80 L 293.72 450.34 L 296.74 452.60" fill="none" stroke="rgb(0,0,0)" stroke-width="8.00" stroke-linecap="round" stroke-linejoin="round"/>
  <path d="M -325.34 603.56 L -329.79 605.55 L -331.66 605.86 L -331.20 605.70 L -310.78 608.24 L -296.06 609.32 L -289.94 610.63 L -280.18 613.69 L -276.60 614.44 L -275.91 614.42 L -276.65 614.10" fill="none" stroke="rgb(0,0,0)" stroke-width="8.00" stroke-linecap="round" stroke-linejoin="round"/>
  <path d="M -280.24 604.16 L -285.52 603.53 L -285.18 603.63 L -285.49 604.49 L -284.74 606.11 L -283.06 607.52 L -277.21 609.01 L -275.56 609.80 L -273.35 612.01 L -272.71 615.44 L -272.91 616.81 L -274.14 618.48 L -278.08 620.14 L -280.44 623.12" fill="none" stroke="rgb(0,0,0)" stroke-width="8.00" stroke-linecap="round" stroke-linejoin="round"/>
  <path d="M -257.79 565.37 L -250.38 592.07 L -245.38 614.00 L -243.03 621.17 L -242.32 622.36 L -242.37 622.72 L -243.49 622.83" fill="none" stroke="rgb(0,0,0)" stroke-width="8.00" stroke-linecap="round" stroke-linejoin="round"/>
  <path d="M -253.83 614.99 L -242.88 611.52 L -239.69 610.08" fill="none" stroke="rgb(0,0,0)" stroke-width="8.00" stroke-linecap="round" stroke-linejoin="round"/>
  <path d="M -232.04 600.64 L -236.35 606.56 L -238.99 612.37 L -239.74 615.16 L -240.19 618.57 L -239.87 621.27 L -237.43 626.19 L -236.29 627.41 L -232.19 629.09 L -230.06 629.05 L -226.89 627.93 L -223.78 625.61 L -220.98 622.70 L -219.21 619.70 L -218.33 617.03 L -217.85 611.83 L -218.01 609.75 L -219.21 606.21 L -220.71 604.27 L -223.08 603.14 L -228.56 602.97 L -231.67 603.85 L -233.96 605.58 L -234.92 607.33 L -235.42 609.93 L -235.06 611.10 L -232.99 612.95 L -231.41 613.47 L -229.49 613.39 L -224.77 611.73" fill="none" stroke="rgb(0,0,0)" stroke-width="8.00" stroke-linecap="round" stroke-linejoin="round"/>
  <path d="M -152.03 602.54 L -153.95 599.81 L -155.73 598.41 L -158.68 597.62 L -159.71 597.69 L -161.69 598.49 L -167.12 602.03 L -170.77 605.77 L -172.73 609.08 L -174.23 614.85 L -174.42 618.71 L -173.80 620.70 L -172.95 621.91 L -170.89 623.01 L -169.75 623.22 L -168.22 622.80 L -166.78 621.70 L -164.73 618.92 L -163.27 615.44 L -159.04 599.44 L -158.50 598.44 L -156.26 599.58 L -153.54 602.68 L -150.79 606.83 L -146.72 615.08 L -145.63 618.43 L -144.59 624.02 L -144.05 632.64 L -144.51 637.95 L -146.96 646.21 L -148.55 649.13 L -149.81 650.62 L -151.28 651.41 L -154.24 652.03 L -157.53 651.84 L -160.62 650.82 L -161.68 650.08 L -161.15 648.64" fill="none" stroke="rgb(0,0,0)" stroke-width="8.00" stroke-linecap="round" stroke-linejoin="round"/>
  <path d="M -138.88 617.73 L -133.96 618.22 L -131.08 617.65 L -128.06 616.00 L -126.38 614.36 L -124.65 610.71 L -123.55 605.18 L -123.54 604.24 L -124.01 603.00 L -124.63 602.10 L -125.63 601.45 L -126.98 601.04 L -128.80 601.86 L -130.40 603.47 L -131.98 605.96 L -133.37 609.40 L -134.87 615.95 L -134.94 620.78 L -133.53 624.87 L -132.03 626.38 L -130.72 626.96 L -128.50 626.67 L -122.76 624.00 L -121.64 623.89" fill="none" stroke="rgb(0,0,0)" stroke-width="8.00" stroke-linecap="round" stroke-linejoin="round"/>
  <path d="M -116.56 570.81 L -116.26 563.06 L -115.09 554.98 L -115.09 555.99 L -113.13 561.20 L -111.62 567.18 L -107.01 594.82 L -104.99 604.55 L -103.68 608.69 L -101.06 614.87" fill="none" stroke="rgb(0,0,0)" stroke-width="8.00" stroke-linecap="round" stroke-linejoin="round"/>
  <path d="M -117.81 602.92 L -109.02 602.64 L -104.32 602.13 L -99.44 600.76 L -96.60 598.74" fill="none" stroke="rgb(0,0,0)" stroke-width="8.00" stroke-linecap="round" stroke-linejoin="round"/>
  <path d="M -67.48 642.83 L -66.26 637.01 L -61.72 626.51" fill="none" stroke="rgb(0,0,0)" stroke-width="8.00" stroke-linecap="round" stroke-linejoin="round"/>
  <path d="M -21.19 565.56 L -21.38 568.76 L -20.26 577.41 L -15.35 602.21 L -13.83 612.83 L -12.63 627.51 L -12.15 630.33 L -11.31 632.20 L -12.21 629.29 L -14.39 625.43 L -14.98 622.43 L -14.59 616.74 L -12.67 612.47 L -9.71 609.14 L -6.91 608.20 L -5.55 608.74 L -3.39 611.54 L -2.42 613.82 L -1.76 616.75 L -1.15 622.19 L -1.13 625.52 L -2.47 631.66 L -3.53 633.71 L -5.60 635.89 L -7.21 636.69 L -9.85 636.98" fill="none" stroke="rgb(0,0,0)" stroke-width="8.00" stroke-linecap="round" stroke-linejoin="round"/>
  <path d="M 2.13 626.37 L 4.80 625.87 L 6.65 624.84 L 8.70 622.86 L 10.43 620.58 L 11.40 617.79 L 11.90 612.86 L 11.84 610.99 L 11.15 609.62 L 9.76 609.46 L 8.92 609.94 L 6.92 612.87 L 5.37 615.88 L 2.38 623.58 L 0.69 629.59 L 0.46 632.50 L 0.71 633.66 L 1.24 634.33 L 5.70 636.82 L 9.63 636.91 L 13.81 636.13" fill="none" stroke="rgb(0,0,0)" stroke-width="8.00" stroke-linecap="round" stroke-linejoin="round"/>
  <path d="M -338.15 733.06 L -310.75 739.12 L -304.83 739.39 L -295.84 738.77 L -292.31 739.06" fill="none" stroke="rgb(0,0,0)" stroke-width="8.00" stroke-linecap="round" stroke-linejoin="round"/>
  <path d="M -291.09 731.44 L -293.95 730.47 L -296.75 730.19 L -286.72 736.96 L -285.94 738.04 L -285.49 741.04 L -286.75 743.27 L -289.33 745.73 L -290.50 746.33 L -291.65 745.98" fill="none" stroke="rgb(0,0,0)" stroke-width="8.00" stroke-linecap="round" stroke-linejoin="round"/>
  <path d="M -243.33 719.36 L -246.15 725.11 L -245.37 730.44 L -243.55 738.85 L -242.42 742.60 L -240.81 745.89 L -239.13 747.69 L -236.29 749.40 L -235.25 749.56 L -233.92 748.94 L -233.18 748.25 L -231.99 745.84 L -229.60 734.39 L -228.94 732.78 L -229.06 736.20 L -228.81 737.74 L -226.67 744.15 L -224.17 745.92 L -222.41 745.58 L -221.01 744.53 L -220.08 743.42 L -219.55 741.90 L -217.96 733.09 L -217.79 729.69" fill="none" stroke="rgb(0,0,0)" stroke-width="8.00" stroke-linecap="round" stroke-linejoin="round"/>
  <path d="M -204.48 722.25 L -200.77 742.84 L -198.59 750.46 L -196.97 754.60 L -196.78 755.51 L -197.38 754.46 L -197.13 747.45 L -195.85 743.88 L -195.32 743.45 L -192.81 742.99 L -190.29 743.79 L -188.60 744.96 L -186.88 749.14 L -186.64 760.97" fill="none" stroke="rgb(0,0,0)" stroke-width="8.00" stroke-linecap="round" stroke-linejoin="round"/>
  <path d="M -172.80 739.38 L -175.15 741.37 L -176.89 743.36 L -179.41 748.04 L -178.87 750.52 L -176.83 754.40 L -173.72 757.06 L -171.65 757.36 L -170.06 756.65 L -168.99 755.76 L -165.67 750.90 L -163.23 744.60 L -162.06 737.11 L -162.44 735.73 L -162.94 735.24 L -165.23 735.33 L -166.90 735.84 L -173.06 739.38 L -175.99 742.26 L -177.76 745.75 L -177.30 747.00 L -176.23 747.66 L -172.19 747.24 L -164.68 744.97 L -163.56 744.88" fill="none" stroke="rgb(0,0,0)" stroke-width="8.00" stroke-linecap="round" stroke-linejoin="round"/>
  <path d="M -109.72 753.15 L -109.35 753.18 L -105.79 739.31 L -105.25 748.33 L -103.15 756.52 L -102.53 758.00 L -101.89 758.56" fill="none" stroke="rgb(0,0,0)" stroke-width="8.00" stroke-linecap="round" stroke-linejoin="round"/>
  <path d="M -104.98 722.02 L -106.22 724.64" fill="none" stroke="rgb(0,0,0)" stroke-width="8.00" stroke-linecap="round" stroke-linejoin="round"/>
  <path d="M -81.53 733.80 L -89.13 739.16 L -90.71 741.03 L -92.94 745.19 L -92.91 745.60 L -90.52 746.64 L -85.01 747.30 L -80.75 748.32 L -78.38 749.58 L -77.26 751.26 L -76.94 752.90 L -77.68 754.66 L -82.94 760.02 L -87.55 764.08 L -86.98 763.91" fill="none" stroke="rgb(0,0,0)" stroke-width="8.00" stroke-linecap="round" stroke-linejoin="round"/>
  <path d="M -63.38 766.38 L -60.84 760.90 L -59.04 754.38" fill="none" stroke="rgb(0,0,0)" stroke-width="8.00" stroke-linecap="round" stroke-linejoin="round"/>
  <path d="M -2.42 721.69 L -3.35 718.50 L -4.05 713.55 L -4.19 705.57 L -3.72 699.75 L 0.30 732.06 L 1.23 737.56 L 2.16 740.32 L 2.04 741.15 L 1.53 741.62" fill="none" stroke="rgb(0,0,0)" stroke-width="8.00" stroke-linecap="round" stroke-linejoin="round"/>
  <path d="M 2.43 734.31 L -1.64 730.78 L -4.01 729.92 L -4.98 729.98 L -6.92 730.77 L -9.66 733.08 L -11.73 735.51 L -13.38 738.77 L -14.29 741.84 L -14.48 745.47 L -13.65 748.81 L -11.76 751.54 L -9.14 753.01 L -7.31 752.88 L -4.24 750.93 L -3.07 749.54 L -2.49 747.91" fill="none" stroke="rgb(0,0,0)" stroke-width="8.00" stroke-linecap="round" stroke-linejoin="round"/>
  <path d="M 12.16 733.86 L 11.18 735.03 L 9.12 739.15 L 7.96 742.09 L 7.70 743.93 L 8.08 746.35 L 11.56 752.67 L 12.98 752.56 L 15.94 750.39 L 18.94 746.62 L 21.41 741.37 L 22.09 737.67 L 21.62 735.55 L 19.76 733.50 L 16.98 732.70 L 15.03 732.85 L 11.44 734.01 L 8.75 735.88 L 6.92 739.26 L 7.12 741.21 L 7.59 742.19 L 9.35 743.99 L 12.15 745.76 L 13.30 746.14 L 18.25 745.66 L 26.49 743.70 L 28.94 742.76 L 29.86 741.62 L 31.03 737.05 L 31.00 735.43 L 27.90 735.28 L 25.65 736.32 L 24.08 737.70 L 21.90 742.08 L 21.45 744.17 L 21.37 747.25 L 22.83 752.75 L 24.29 754.77 L 26.32 755.85 L 32.26 755.40" fill="none" stroke="rgb(0,0,0)" stroke-width="8.00" stroke-linecap="round" stroke-linejoin="round"/>
  <path d="M 44.81 732.20 L 36.48 738.58 L 33.64 741.21 L 32.69 743.90 L 32.79 745.84 L 35.68 746.96 L 43.00 747.44 L 48.90 749.32 L 51.30 751.30 L 52.16 755.09 L 51.02 757.77 L 48.68 760.85 L 47.09 762.33 L 43.37 764.27 L 41.02 764.67 L 39.25 764.34" fill="none" stroke="rgb(0,0,0)" stroke-width="8.00" stroke-linecap="round" stroke-linejoin="round"/>
  <path d="M -291.76 682.36 L -287.76 700.28 L -285.74 704.92 L -285.99 705.95 L -286.88 704.69 L -287.07 701.74 L -286.48 699.33 L -285.74 698.33 L -284.16 698.64 L -283.36 699.23 L -282.06 701.15 L -278.92 707.25 L -278.96 708.09 L -279.55 709.05 L -281.98 711.09 L -284.38 712.47 L -284.82 713.30" fill="none" stroke="rgb(0,0,0)" stroke-width="8.00" stroke-linecap="round" stroke-linejoin="round"/>
  <path d="M -270.62 700.80 L -272.72 705.02 L -273.03 707.36 L -272.96 708.86 L -272.50 709.92 L -270.62 711.85 L -269.17 712.09 L -266.52 711.00 L -262.15 707.91" fill="none" stroke="rgb(0,0,0)" stroke-width="8.00" stroke-linecap="round" stroke-linejoin="round"/>
  <path d="M -332.71 861.43 L -328.22 861.15 L -322.28 861.27 L -314.78 862.16 L -306.37 863.60 L -301.78 863.74 L -297.79 863.44 L -287.03 861.18 L -285.21 861.19 L -285.78 861.40 L -286.19 861.10" fill="none" stroke="rgb(0,0,0)" stroke-width="8.00" stroke-linecap="round" stroke-linejoin="round"/>
  <path d="M -291.42 857.69 L -295.71 857.94 L -294.04 859.52 L -289.90 861.81 L -279.55 865.49 L -277.10 867.05 L -281.40 871.47 L -285.03 873.40" fill="none" stroke="rgb(0,0,0)" stroke-width="8.00" stroke-linecap="round" stroke-linejoin="round"/>
  <path d="M -241.40 843.82 L -242.96 847.78 L -243.41 850.52 L -243.47 855.06 L -242.58 859.63 L -241.01 863.30 L -237.43 868.83 L -233.35 873.35 L -231.01 875.17 L -228.83 875.98 L -227.08 876.17 L -224.55 875.24 L -223.11 873.84 L -221.99 871.81 L -220.89 868.23 L -219.55 858.43 L -219.48 855.97 L -219.81 858.41 L -219.65 862.76 L -218.88 866.37 L -217.83 868.23 L -213.71 864.25 L -212.79 863.68 L -211.09 863.31" fill="none" stroke="rgb(0,0,0)" stroke-width="8.00" stroke-linecap="round" stroke-linejoin="round"/>
  <path d="M -208.49 869.74 L -208.29 869.91" fill="none" stroke="rgb(0,0,0)" stroke-width="8.00" stroke-linecap="round" stroke-linejoin="round"/>
  <path d="M -221.17 859.15 L -221.40 863.82 L -220.30 869.74 L -218.54 873.18 L -216.38 875.23 L -215.18 875.95 L -213.76 875.86 L -212.84 875.39 L -211.46 874.18 L -210.32 872.62 L -208.05 868.37 L -206.15 862.92 L -205.47 859.83 L -206.56 863.28" fill="none" stroke="rgb(0,0,0)" stroke-width="8.00" stroke-linecap="round" stroke-linejoin="round"/>
  <path d="M -198.94 837.19 L -199.70 833.91 L -199.62 839.30 L -197.16 861.31 L -195.42 871.71 L -194.81 872.67 L -194.52 864.81 L -193.59 860.43 L -192.85 858.73 L -192.01 857.61 L -190.46 856.57 L -187.52 856.24 L -186.33 857.09 L -185.78 857.98 L -184.79 864.02 L -185.12 866.34 L -187.08 871.19 L -187.13 873.88 L -187.00 874.11 L -186.53 873.82" fill="none" stroke="rgb(0,0,0)" stroke-width="8.00" stroke-linecap="round" stroke-linejoin="round"/>
  <path d="M -173.22 858.20 L -178.47 862.98 L -179.87 864.83 L -180.96 867.45 L -181.79 870.69 L -181.21 873.69 L -179.94 875.12 L -178.15 875.98 L -176.59 875.90 L -173.27 874.62 L -170.27 872.82 L -166.95 870.08 L -165.14 867.47 L -164.34 865.56 L -164.07 863.75 L -164.36 862.50 L -165.08 861.28 L -166.87 859.98 L -174.11 858.79 L -178.28 859.50 L -180.93 861.17 L -181.86 863.51 L -181.71 865.45 L -180.32 867.26 L -177.90 868.58 L -174.78 869.66 L -171.09 869.47 L -166.93 868.56" fill="none" stroke="rgb(0,0,0)" stroke-width="8.00" stroke-linecap="round" stroke-linejoin="round"/>
  <path d="M -109.43 856.43 L -113.76 853.82 L -116.75 852.85 L -119.33 853.29 L -121.33 855.10 L -122.79 858.52 L -123.97 865.55 L -123.88 868.81 L -123.28 871.74 L -122.39 874.19 L -121.63 874.85 L -120.91 875.12 L -119.38 874.73 L -117.46 872.26 L -116.00 868.24 L -115.16 862.66 L -113.22 841.08 L -114.12 835.78 L -116.31 831.00 L -117.52 835.15 L -117.59 840.82 L -116.02 853.64 L -114.72 859.83 L -112.60 865.36 L -110.87 868.17 L -109.84 869.12 L -107.69 869.80 L -105.88 868.61 L -104.51 866.81 L -103.49 864.49 L -102.23 859.74 L -101.73 858.95 L -101.83 859.42 L -104.34 861.00 L -105.58 862.58 L -106.30 865.74 L -106.12 868.01 L -105.17 871.36 L -103.77 874.33 L -102.68 875.61 L -101.08 876.58 L -100.10 876.72 L -98.88 876.30 L -97.19 874.93 L -95.53 872.23 L -93.73 867.37 L -92.22 856.89 L -92.19 854.03 L -92.54 852.60 L -93.36 851.17 L -94.12 850.75 L -96.18 850.52 L -98.62 851.13 L -100.74 852.24 L -103.78 854.78 L -105.40 856.86 L -107.09 862.46 L -106.84 864.27 L -105.69 865.81 L -102.13 867.41 L -100.16 867.88 L -98.35 867.64 L -95.53 866.43 L -92.26 863.46 L -89.08 858.65 L -88.33 856.56 L -88.77 855.28 L -89.52 855.04 L -90.08 854.97 L -90.70 855.45 L -91.59 857.64 L -90.33 864.94 L -90.44 867.34 L -88.58 870.25 L -85.74 872.49 L -83.45 873.09 L -81.82 872.77 L -81.17 872.32 L -79.30 870.36 L -74.61 862.15 L -73.26 861.02 L -71.16 860.68 L -70.65 860.82 L -70.43 861.31 L -69.61 866.42 L -69.68 869.06 L -70.87 875.33 L -70.90 878.14 L -70.60 879.40 L -69.63 879.89 L -67.82 879.44 L -64.44 877.94 L -61.11 875.53" fill="none" stroke="rgb(0,0,0)" stroke-width="8.00" stroke-linecap="round" stroke-linejoin="round"/>
  <path d="M -86.96 870.24 L -83.38 868.09 L -81.27 865.86 L -79.79 863.73 L -78.64 860.30 L -78.34 855.95 L -78.62 853.67 L -78.75 853.21 L -79.43 853.60 L -80.93 855.64 L -85.23 865.91 L -87.30 868.88" fill="none" stroke="rgb(0,0,0)" stroke-width="8.00" stroke-linecap="round" stroke-linejoin="round"/>
  <path d="M -44.11 880.00 L -38.25 874.69 L -34.13 870.05" fill="none" stroke="rgb(0,0,0)" stroke-width="8.00" stroke-linecap="round" stroke-linejoin="round"/>
  <path d="M 1.35 848.42 L -4.77 852.30 L -8.34 855.84 L -9.75 858.92 L -10.58 864.23 L -10.33 869.55 L -9.45 871.80 L -7.65 872.87 L -6.58 872.49 L -5.73 871.55 L -4.28 868.83 L -3.08 865.19 L -1.86 852.98 L -1.32 850.30 L -0.67 849.38 L 1.64 850.68 L 5.64 855.41 L 7.65 859.24 L 9.39 864.93 L 10.10 870.08 L 10.25 880.60 L 9.53 885.87 L 7.97 891.75 L 5.93 896.44 L 4.71 898.36 L 2.97 900.28 L -0.54 901.46 L -2.23 901.40 L -1.80 900.57" fill="none" stroke="rgb(0,0,0)" stroke-width="8.00" stroke-linecap="round" stroke-linejoin="round"/>
  <path d="M 13.10 877.18 L 14.89 877.08 L 19.76 876.04 L 22.56 874.93 L 25.10 873.26 L 27.95 870.54 L 29.97 867.62 L 30.60 865.50 L 30.65 861.89 L 29.29 862.03 L 26.33 863.55 L 24.10 865.28 L 21.52 867.99 L 20.21 870.71 L 19.17 875.71 L 19.17 878.07 L 19.66 879.85 L 20.73 881.31 L 22.17 882.10 L 23.32 882.32 L 24.89 882.09 L 28.99 879.72" fill="none" stroke="rgb(0,0,0)" stroke-width="8.00" stroke-linecap="round" stroke-linejoin="round"/>
  <path d="M 39.80 832.35 L 44.57 850.56 L 48.27 862.84 L 49.71 866.66 L 52.30 871.78 L 44.92 863.00 L 36.91 855.11 L 37.24 855.56 L 39.20 856.28 L 44.90 859.38" fill="none" stroke="rgb(0,0,0)" stroke-width="8.00" stroke-linecap="round" stroke-linejoin="round"/>
  <path d="M 72.32 851.97 L 67.73 852.28 L 61.35 853.74 L 57.65 855.70 L 56.57 857.21 L 56.33 858.29 L 56.29 859.92 L 56.63 860.98 L 58.56 863.91 L 60.40 865.37 L 68.89 870.30 L 70.89 872.16 L 72.07 874.10 L 72.75 876.76 L 73.02 879.45 L 72.85 880.97 L 72.28 881.83 L 69.32 883.44" fill="none" stroke="rgb(0,0,0)" stroke-width="8.00" stroke-linecap="round" stroke-linejoin="round"/>
  <path d="M -101.52 1175.62 L -98.99 1171.19 L -99.39 1171.73 L -100.38 1171.48 L -101.39 1170.95 L -100.47 1170.63 L -84.95 1172.90 L -81.59 1172.98 L -77.64 1172.61 L -70.51 1169.84 L -68.91 1171.85" fill="none" stroke="rgb(0,0,0)" stroke-width="8.00" stroke-linecap="round" stroke-linejoin="round"/>
  <path d="M -82.98 1171.65 L -76.04 1172.01 L -63.28 1174.08 L -59.35 1173.66 L -59.47 1172.51" fill="none" stroke="rgb(0,0,0)" stroke-width="8.00" stroke-linecap="round" stroke-linejoin="round"/>
  <path d="M 182.43 1136.97 L 178.55 1132.74 L 173.07 1125.01 L 164.48 1114.48 L 156.61 1103.43" fill="none" stroke="rgb(0,0,0)" stroke-width="8.00" stroke-linecap="round" stroke-linejoin="round"/>
  <path d="M 143.04 1119.73 L 147.62 1120.44 L 155.74 1120.51 L 162.51 1121.12 L 170.11 1123.07 L 171.94 1123.97 L 171.89 1124.29" fill="none" stroke="rgb(0,0,0)" stroke-width="8.00" stroke-linecap="round" stroke-linejoin="round"/>
  <path d="M 173.23 1109.45 L 175.31 1113.70 L 179.15 1117.40 L 181.76 1118.90 L 183.63 1119.56 L 190.50 1121.71 L 192.35 1121.63 L 194.39 1120.15 L 195.31 1118.91 L 197.39 1114.11 L 197.44 1113.03 L 196.96 1111.54 L 194.24 1108.19 L 191.80 1106.00 L 188.70 1103.87 L 183.70 1102.79 L 181.90 1102.87 L 178.38 1104.22 L 175.86 1106.19 L 175.82 1107.01 L 176.29 1108.21 L 178.02 1110.72 L 179.99 1112.46 L 188.32 1109.48 L 189.64 1108.59 L 191.14 1106.77 L 192.52 1101.41 L 192.39 1099.20 L 191.40 1096.55 L 189.85 1094.03 L 187.50 1091.17 L 185.70 1090.13 L 187.45 1091.48 L 192.59 1094.44 L 198.79 1097.61 L 200.65 1097.86 L 201.93 1097.04 L 203.33 1094.24 L 203.18 1092.38 L 194.99 1079.61 L 198.01 1081.65 L 201.77 1083.57 L 210.21 1086.78 L 212.81 1088.06" fill="none" stroke="rgb(0,0,0)" stroke-width="8.00" stroke-linecap="round" stroke-linejoin="round"/>
  <path d="M 227.40 1038.98 L 224.94 1036.87 L 220.81 1034.23 L 218.32 1033.55 L 217.09 1034.38 L 214.45 1038.13 L 214.35 1039.49 L 214.93 1040.88 L 216.72 1043.13 L 220.69 1047.00 L 223.39 1049.03 L 226.46 1050.64 L 230.17 1051.89 L 234.36 1052.35 L 237.43 1051.98 L 239.23 1050.77 L 238.98 1047.94 L 237.87 1046.10 L 227.94 1035.81 L 220.67 1029.29 L 216.61 1026.12 L 208.99 1021.28 L 203.81 1019.09 L 201.79 1018.61 L 200.80 1017.92 L 202.97 1020.46 L 205.63 1022.36 L 229.22 1033.68 L 237.49 1036.69 L 247.37 1038.62 L 248.79 1038.57 L 249.26 1038.43 L 243.54 1033.56 L 237.52 1026.65 L 235.78 1025.51 L 231.70 1024.08 L 232.15 1025.57 L 233.53 1027.66 L 235.69 1029.57 L 239.56 1031.49 L 245.19 1033.28 L 247.60 1033.75 L 251.15 1033.39 L 254.18 1031.21 L 254.91 1028.54 L 253.95 1026.20 L 248.42 1019.79 L 243.38 1016.37 L 241.02 1015.64 L 237.20 1015.11 L 233.13 1017.04 L 233.00 1017.86 L 233.37 1018.97 L 235.32 1022.00 L 237.95 1024.73 L 241.29 1027.25 L 242.85 1027.16 L 245.44 1025.41 L 248.37 1024.37 L 249.83 1020.84 L 249.84 1019.13 L 248.72 1016.05 L 248.57 1014.67 L 248.69 1013.38 L 249.90 1011.57 L 251.82 1010.08 L 255.56 1008.67 L 256.91 1008.74 L 261.01 1010.82 L 259.34 1009.39 L 257.56 1006.87 L 255.41 1001.98 L 254.89 998.44 L 255.11 997.18 L 255.76 996.48 L 260.25 996.70 L 265.91 998.96 L 269.32 1001.25 L 272.50 1002.89 L 274.08 1004.53 L 274.56 1005.73" fill="none" stroke="rgb(0,0,0)" stroke-width="8.00" stroke-linecap="round" stroke-linejoin="round"/>
  <path d="M 238.77 971.50 L 246.67 976.02 L 254.02 979.29 L 256.20 979.96" fill="none" stroke="rgb(0,0,0)" stroke-width="8.00" stroke-linecap="round" stroke-linejoin="round"/>
  <path d="M 244.11 959.50 L 258.14 965.23 L 276.34 975.11 L 284.36 978.41 L 285.55 979.53 L 283.61 980.44" fill="none" stroke="rgb(0,0,0)" stroke-width="8.00" stroke-linecap="round" stroke-linejoin="round"/>
  <path d="M 269.76 983.76 L 279.06 977.48 L 281.98 974.63" fill="none" stroke="rgb(0,0,0)" stroke-width="8.00" stroke-linecap="round" stroke-linejoin="round"/>
  <path d="M 277.61 897.19 L 282.57 900.84 L 297.59 910.36 L 305.86 914.50 L 315.18 917.63 L 317.17 919.04 L 316.81 919.02 L 317.67 919.49 L 320.08 921.87 L 315.92 919.64 L 312.09 915.92 L 310.41 914.02 L 308.89 911.58 L 308.80 910.69 L 309.19 910.10 L 316.77 908.14 L 320.41 908.19 L 324.28 909.66 L 328.95 912.52 L 330.92 914.40" fill="none" stroke="rgb(0,0,0)" stroke-width="8.00" stroke-linecap="round" stroke-linejoin="round"/>
  <path d="M 328.61 890.15 L 326.82 892.86 L 324.26 897.99 L 323.92 900.72 L 324.36 902.49 L 327.47 908.15 L 328.28 909.32 L 330.52 910.92 L 332.32 911.04 L 334.11 910.05 L 334.79 908.64 L 335.07 906.44 L 334.51 904.70 L 332.10 900.09 L 327.93 893.19 L 326.10 890.83 L 328.46 892.62 L 332.29 894.80 L 340.12 898.16 L 340.96 898.31 L 342.13 897.97 L 342.21 895.79" fill="none" stroke="rgb(0,0,0)" stroke-width="8.00" stroke-linecap="round" stroke-linejoin="round"/>
  <path d="M 331.57 880.99 L 343.67 886.48 L 345.98 887.88 L 346.78 888.17 L 348.64 888.10 L 348.28 885.81 L 346.68 882.30 L 342.05 876.18 L 341.22 875.34 L 340.31 875.08" fill="none" stroke="rgb(0,0,0)" stroke-width="8.00" stroke-linecap="round" stroke-linejoin="round"/>
  <path d="M 349.01 875.72 L 350.76 873.14 L 351.69 870.76 L 352.37 867.85 L 352.10 865.28 L 351.24 863.42 L 349.61 861.33 L 344.62 857.56 L 342.10 856.79 L 340.69 858.01 L 340.36 858.89 L 340.60 860.52 L 341.50 862.66 L 344.91 866.96 L 349.73 870.90 L 355.52 874.01 L 359.61 875.05 L 360.38 874.85 L 360.92 874.06 L 361.39 870.53 L 361.13 869.34" fill="none" stroke="rgb(0,0,0)" stroke-width="8.00" stroke-linecap="round" stroke-linejoin="round"/>
  <path d="M 208.92 1170.15 L 211.85 1171.54 L 216.96 1173.32 L 222.94 1174.79 L 223.77 1174.69 L 224.32 1171.78 L 223.86 1170.04 L 221.37 1166.57 L 217.15 1162.42 L 219.28 1164.33 L 223.33 1166.04 L 226.35 1166.41 L 227.34 1166.21 L 228.48 1165.45 L 229.38 1162.38 L 229.40 1161.34 L 228.97 1160.10 L 227.49 1157.93 L 223.91 1154.70" fill="none" stroke="rgb(0,0,0)" stroke-width="8.00" stroke-linecap="round" stroke-linejoin="round"/>
  <path d="M 208.04 1139.88 L 216.61 1143.51 L 235.71 1150.48 L 239.68 1152.15 L 241.71 1153.39 L 240.45 1153.19 L 235.71 1151.86 L 232.94 1150.43 L 230.90 1147.78 L 230.68 1147.13 L 230.89 1146.16 L 232.07 1144.68 L 233.01 1144.20 L 238.54 1142.89 L 239.95 1143.07 L 244.66 1145.19 L 244.91 1146.57" fill="none" stroke="rgb(0,0,0)" stroke-width="8.00" stroke-linecap="round" stroke-linejoin="round"/>
  <path d="M 245.38 1127.28 L 244.12 1130.05 L 243.56 1132.44 L 243.51 1134.75 L 244.48 1137.82 L 246.93 1141.00 L 249.62 1143.09 L 251.83 1144.05 L 255.49 1145.06 L 256.40 1144.95 L 256.68 1144.56 L 256.30 1141.66 L 255.41 1139.22 L 251.84 1134.18 L 251.52 1132.81 L 251.82 1131.22 L 252.15 1130.88 L 254.77 1130.44 L 259.73 1130.92 L 262.98 1130.76 L 263.19 1130.10 L 262.23 1128.47" fill="none" stroke="rgb(0,0,0)" stroke-width="8.00" stroke-linecap="round" stroke-linejoin="round"/>
  <path d="M 238.94 1107.33 L 250.54 1110.49 L 265.01 1113.36 L 267.68 1113.59 L 269.66 1112.45" fill="none" stroke="rgb(0,0,0)" stroke-width="8.00" stroke-linecap="round" stroke-linejoin="round"/>
  <path d="M 250.10 1118.15 L 255.72 1110.67 L 257.59 1107.33" fill="none" stroke="rgb(0,0,0)" stroke-width="8.00" stroke-linecap="round" stroke-linejoin="round"/>
  <path d="M 281.77 1077.64 L 281.79 1079.91 L 282.78 1081.43 L 285.05 1082.86 L 288.00 1083.66 L 291.24 1083.21 L 293.38 1081.76 L 294.26 1080.65 L 294.79 1077.95 L 294.37 1076.51 L 293.31 1075.00 L 290.47 1072.41 L 284.26 1068.32 L 282.16 1067.68 L 281.88 1067.84 L 282.03 1068.93" fill="none" stroke="rgb(0,0,0)" stroke-width="8.00" stroke-linecap="round" stroke-linejoin="round"/>
  <path d="M 303.82 1036.42 L 307.82 1039.05 L 311.89 1040.37 L 316.53 1040.69 L 319.50 1040.32 L 320.51 1039.77 L 320.99 1039.22 L 321.08 1038.50 L 320.94 1035.13 L 320.27 1033.31 L 319.18 1031.64 L 315.38 1028.20 L 313.57 1027.23 L 311.17 1026.47 L 312.19 1027.96 L 313.18 1028.78 L 316.50 1030.00 L 325.28 1029.90 L 327.88 1029.21 L 328.53 1028.64 L 328.46 1026.33 L 326.62 1021.15 L 325.11 1019.31 L 321.46 1017.60 L 323.59 1020.96" fill="none" stroke="rgb(0,0,0)" stroke-width="8.00" stroke-linecap="round" stroke-linejoin="round"/>
  <path d="M 330.91 1002.96 L 329.63 1005.08 L 328.79 1008.05 L 328.83 1010.37 L 329.72 1012.75 L 331.03 1014.45 L 333.08 1015.81 L 336.46 1017.40 L 337.91 1017.21 L 338.84 1016.31 L 339.52 1014.53 L 339.51 1013.43 L 338.97 1012.05 L 335.07 1007.27 L 331.33 1004.87 L 335.82 1006.76 L 339.48 1007.73 L 342.94 1007.85 L 347.27 1007.42 L 346.76 1005.02 L 342.79 997.16 L 342.37 995.38 L 342.54 993.66 L 342.92 993.24 L 347.60 992.65 L 350.46 993.78 L 352.97 995.90 L 350.22 993.27 L 348.35 990.40 L 347.14 985.61 L 347.19 984.26 L 347.58 983.29 L 348.42 982.15 L 349.21 981.64 L 354.66 979.90 L 356.16 979.75 L 358.67 980.70 L 364.49 984.32 L 361.31 981.61" fill="none" stroke="rgb(0,0,0)" stroke-width="8.00" stroke-linecap="round" stroke-linejoin="round"/>
  <path d="M 336.53 961.35 L 341.38 963.83 L 357.58 969.20 L 364.80 971.17 L 368.79 971.81 L 370.06 971.72 L 372.97 970.57 L 371.08 970.03" fill="none" stroke="rgb(0,0,0)" stroke-width="8.00" stroke-linecap="round" stroke-linejoin="round"/>
  <path d="M 355.97 975.36 L 352.83 978.42 L 350.46 980.35 L 349.96 980.45 L 355.56 970.39 L 359.15 962.83 L 359.95 961.98 L 361.25 962.12" fill="none" stroke="rgb(0,0,0)" stroke-width="8.00" stroke-linecap="round" stroke-linejoin="round"/>
  <path d="M 247.60 1206.97 L 253.86 1208.70 L 269.90 1215.46 L 273.06 1217.06 L 273.70 1217.22 L 273.41 1216.93" fill="none" stroke="rgb(0,0,0)" stroke-width="8.00" stroke-linecap="round" stroke-linejoin="round"/>
  <path d="M 269.02 1217.88 L 263.35 1214.20 L 265.65 1210.30 L 267.06 1208.76 L 270.66 1207.32 L 271.75 1207.40 L 272.88 1208.04 L 275.03 1210.78 L 277.32 1215.55 L 277.41 1216.53 L 276.64 1216.59" fill="none" stroke="rgb(0,0,0)" stroke-width="8.00" stroke-linecap="round" stroke-linejoin="round"/>
  <path d="M 276.38 1201.36 L 276.20 1201.73 L 276.62 1203.04 L 278.82 1206.51 L 281.51 1209.26 L 284.05 1210.65 L 286.41 1207.21 L 289.05 1200.60" fill="none" stroke="rgb(0,0,0)" stroke-width="8.00" stroke-linecap="round" stroke-linejoin="round"/>
  <path d="M 293.92 1167.11 L 299.00 1168.00 L 302.79 1168.12 L 304.32 1167.50 L 306.24 1165.91 L 306.79 1165.04 L 307.53 1162.84 L 307.62 1161.50 L 306.36 1158.59 L 302.91 1155.08 L 299.38 1153.25 L 303.15 1155.09 L 305.32 1155.46 L 312.30 1154.80 L 315.30 1153.95 L 317.46 1152.75 L 317.44 1150.47 L 316.56 1148.77 L 314.47 1146.64 L 311.02 1145.14" fill="none" stroke="rgb(0,0,0)" stroke-width="8.00" stroke-linecap="round" stroke-linejoin="round"/>
  <path d="M 316.67 1132.55 L 315.42 1134.85 L 314.89 1137.08 L 315.00 1138.47 L 315.88 1140.12 L 318.40 1141.76 L 322.04 1143.21 L 323.61 1143.12 L 325.25 1142.12" fill="none" stroke="rgb(0,0,0)" stroke-width="8.00" stroke-linecap="round" stroke-linejoin="round"/>
  <path d="M 299.58 1134.64 L 304.84 1135.91 L 318.11 1137.54 L 324.06 1139.38 L 327.04 1141.27 L 328.68 1141.87 L 324.40 1140.05 L 319.88 1136.96 L 317.57 1134.80 L 317.73 1133.22 L 319.94 1131.75 L 323.42 1130.72 L 326.43 1131.89 L 331.80 1135.02" fill="none" stroke="rgb(0,0,0)" stroke-width="8.00" stroke-linecap="round" stroke-linejoin="round"/>
  <path d="M 325.39 1116.51 L 325.99 1120.12 L 327.54 1125.20 L 330.01 1130.51 L 330.52 1131.05 L 331.43 1131.33 L 333.69 1131.45 L 336.26 1130.98 L 339.18 1129.89 L 340.84 1128.30 L 341.69 1126.24 L 341.98 1122.62 L 341.57 1120.81 L 339.77 1117.00 L 337.17 1113.29 L 335.09 1110.95 L 333.52 1109.78 L 331.67 1109.02 L 329.41 1108.91 L 327.97 1109.54 L 326.49 1111.77 L 324.99 1115.78 L 324.80 1120.00 L 325.42 1122.50 L 326.46 1124.80 L 328.27 1125.89 L 330.22 1125.37 L 331.27 1124.64 L 332.61 1122.81 L 335.29 1114.37" fill="none" stroke="rgb(0,0,0)" stroke-width="8.00" stroke-linecap="round" stroke-linejoin="round"/>
  <path d="M 362.95 1089.03 L 360.22 1082.20 L 354.39 1070.22" fill="none" stroke="rgb(0,0,0)" stroke-width="8.00" stroke-linecap="round" stroke-linejoin="round"/>
  <path d="M 349.24 1081.68 L 353.66 1081.47 L 355.29 1081.01 L 356.92 1079.96 L 357.84 1078.87 L 358.09 1077.88 L 357.77 1076.29 L 357.14 1075.28" fill="none" stroke="rgb(0,0,0)" stroke-width="8.00" stroke-linecap="round" stroke-linejoin="round"/>
  <path d="M 360.27 1067.39 L 362.40 1070.67 L 364.27 1072.75 L 367.74 1075.16 L 369.10 1075.30 L 372.65 1073.68 L 373.81 1070.96 L 373.86 1068.94 L 371.21 1061.26 L 369.11 1057.56 L 366.96 1057.19 L 365.23 1057.80 L 362.57 1060.52 L 361.44 1062.35 L 360.67 1065.60 L 360.81 1067.86 L 361.54 1069.65 L 362.76 1069.84 L 365.90 1068.13 L 369.05 1064.99 L 370.60 1059.35 L 370.46 1055.38 L 371.80 1056.68 L 374.33 1057.85 L 378.57 1057.44 L 380.18 1056.58 L 381.24 1053.00 L 381.35 1051.50 L 379.81 1048.71 L 378.33 1047.72 L 381.43 1048.05 L 382.94 1047.70 L 384.42 1046.74 L 385.85 1043.36 L 385.37 1041.82 L 384.23 1040.47" fill="none" stroke="rgb(0,0,0)" stroke-width="8.00" stroke-linecap="round" stroke-linejoin="round"/>
  <path d="M 312.39 1245.47 L 310.46 1241.72 L 308.70 1240.82 L 305.94 1240.23 L 305.55 1241.51 L 305.65 1242.90 L 307.67 1246.52 L 310.19 1249.58 L 313.58 1252.39 L 316.83 1253.90 L 318.34 1254.15 L 318.75 1254.07 L 319.81 1252.91 L 322.36 1248.22 L 322.49 1246.87 L 321.60 1244.85 L 319.16 1242.17 L 316.08 1239.90 L 310.95 1238.31 L 308.66 1238.33 L 311.15 1239.73 L 324.85 1244.49 L 327.65 1245.16 L 328.86 1245.01 L 329.56 1244.45 L 329.99 1241.22 L 329.00 1239.35 L 324.46 1235.68 L 321.42 1234.02 L 318.91 1233.13 L 318.79 1232.73 L 319.07 1230.17 L 319.77 1227.91 L 324.14 1219.76 L 326.70 1213.71 L 327.19 1213.95 L 329.68 1217.79 L 332.27 1220.48 L 334.75 1222.86 L 339.16 1226.26 L 340.66 1226.46 L 343.27 1225.90 L 344.46 1225.38 L 345.33 1224.41 L 345.81 1223.09 L 345.80 1221.83 L 345.16 1220.42 L 343.42 1218.28 L 342.84 1216.67 L 342.77 1214.12 L 341.49 1211.51 L 338.25 1208.38 L 335.28 1206.29 L 333.80 1206.17 L 332.77 1206.68 L 331.85 1208.28 L 331.66 1209.47 L 331.93 1210.81 L 333.32 1213.06 L 336.69 1215.69 L 340.35 1217.16 L 344.42 1218.03 L 347.66 1217.67 L 350.64 1216.93 L 352.17 1216.01" fill="none" stroke="rgb(0,0,0)" stroke-width="8.00" stroke-linecap="round" stroke-linejoin="round"/>
  <path d="M 222.29 914.44 L 222.44 912.27 L 221.66 895.63 L 221.95 872.94 L 225.23 834.36 L 226.02 829.40 L 226.79 826.95 L 227.51 830.61" fill="none" stroke="rgb(0,0,0)" stroke-width="8.00" stroke-linecap="round" stroke-linejoin="round"/>
  <path d="M 223.90 834.55 L 217.85 837.82 L 219.57 834.99 L 221.64 829.34 L 224.35 828.68 L 226.03 829.54 L 226.91 830.78 L 228.10 833.73 L 229.09 837.72 L 228.87 839.72 L 227.59 841.96 L 226.88 843.97" fill="none" stroke="rgb(0,0,0)" stroke-width="8.00" stroke-linecap="round" stroke-linejoin="round"/>
  <path d="M 218.13 773.69 L 215.85 773.48 L 214.00 774.02 L 212.52 775.34 L 211.66 777.54 L 211.54 779.80 L 212.05 782.57 L 213.49 786.05 L 215.70 788.99 L 218.94 790.94 L 220.05 791.28 L 221.69 791.17 L 223.29 790.14 L 223.80 787.33 L 222.98 784.89 L 217.70 775.13 L 216.39 773.30 L 214.49 771.98 L 217.48 771.48 L 222.42 772.27 L 226.76 774.43 L 235.25 779.90 L 237.53 781.91 L 237.96 783.58 L 236.58 785.58 L 235.01 786.55 L 233.49 786.52 L 232.45 785.57" fill="none" stroke="rgb(0,0,0)" stroke-width="8.00" stroke-linecap="round" stroke-linejoin="round"/>
  <path d="M 230.21 772.00 L 231.34 767.50 L 231.39 761.98 L 229.04 757.67 L 226.83 754.63 L 225.84 753.75 L 224.65 753.46 L 224.25 754.85 L 224.38 757.84 L 226.17 763.50 L 227.39 765.56 L 229.78 767.15 L 231.66 767.82 L 233.15 767.69 L 235.30 766.64 L 236.70 765.52 L 237.76 763.82 L 238.48 760.46 L 238.35 759.38" fill="none" stroke="rgb(0,0,0)" stroke-width="8.00" stroke-linecap="round" stroke-linejoin="round"/>
  <path d="M 224.05 740.79 L 220.89 739.40 L 214.13 735.65 L 211.51 733.99 L 212.45 734.34 L 228.16 743.72 L 234.39 746.84 L 239.35 748.58 L 247.49 750.42" fill="none" stroke="rgb(0,0,0)" stroke-width="8.00" stroke-linecap="round" stroke-linejoin="round"/>
  <path d="M 231.51 753.65 L 233.86 747.58 L 235.83 739.54" fill="none" stroke="rgb(0,0,0)" stroke-width="8.00" stroke-linecap="round" stroke-linejoin="round"/>
  <path d="M 249.53 694.00 L 249.72 696.81 L 250.81 701.35 L 253.75 706.47 L 255.56 708.69 L 259.24 711.79 L 261.98 713.04 L 263.64 713.09 L 265.35 712.15 L 267.04 710.06 L 268.39 705.15 L 267.85 702.19 L 264.92 697.51 L 261.67 695.21 L 257.98 694.45 L 256.54 694.46 L 254.43 695.28 L 253.37 696.04 L 252.10 697.18 L 251.18 698.69 L 250.61 700.50 L 250.65 702.00 L 251.73 704.97 L 252.41 706.08 L 254.13 707.46 L 255.37 707.40 L 257.65 705.19 L 260.15 701.18 L 262.22 694.87 L 262.01 692.99 L 260.30 690.03 L 263.36 692.34 L 266.52 693.54 L 269.85 694.25 L 271.78 694.03 L 272.57 693.45 L 272.80 691.47 L 272.29 689.92 L 268.45 684.83 L 266.57 683.16 L 270.40 685.71 L 273.55 687.02 L 275.68 687.36 L 278.46 686.65 L 278.17 686.50" fill="none" stroke="rgb(0,0,0)" stroke-width="8.00" stroke-linecap="round" stroke-linejoin="round"/>
  <path d="M 241.25 659.31 L 257.06 667.05 L 269.97 674.04 L 276.65 676.51 L 276.55 677.10" fill="none" stroke="rgb(0,0,0)" stroke-width="8.00" stroke-linecap="round" stroke-linejoin="round"/>
  <path d="M 261.85 681.74 L 260.21 678.70 L 259.86 677.45 L 259.78 675.66 L 260.49 672.98 L 261.71 671.77 L 262.57 671.42 L 268.27 671.29" fill="none" stroke="rgb(0,0,0)" stroke-width="8.00" stroke-linecap="round" stroke-linejoin="round"/>
  <path d="M 286.52 620.23 L 286.83 620.28 L 286.39 622.98 L 286.69 625.26 L 287.12 626.72 L 288.18 628.33 L 289.57 629.62 L 294.26 632.15 L 296.09 632.26 L 297.60 630.97 L 298.50 628.31 L 298.35 626.51 L 297.43 624.99 L 294.28 621.43 L 289.15 617.34 L 285.13 616.38 L 283.42 616.88 L 281.11 619.87 L 280.53 621.19 L 280.61 622.35 L 282.05 624.32 L 283.06 625.03 L 285.50 625.59 L 286.85 625.39 L 290.21 623.48 L 291.42 619.47 L 292.26 617.82" fill="none" stroke="rgb(0,0,0)" stroke-width="8.00" stroke-linecap="round" stroke-linejoin="round"/>
  <path d="M 303.02 618.45 L 297.45 613.02 L 290.82 605.54 L 285.40 601.08 L 280.02 597.91 L 278.15 597.18 L 273.91 596.20 L 270.12 595.97 L 273.32 596.60 L 275.80 595.93 L 277.28 594.80 L 280.84 590.88 L 286.72 586.14 L 288.48 585.85 L 289.31 587.33" fill="none" stroke="rgb(0,0,0)" stroke-width="8.00" stroke-linecap="round" stroke-linejoin="round"/>
  <path d="M 288.27 610.02 L 295.68 594.15 L 296.00 592.52" fill="none" stroke="rgb(0,0,0)" stroke-width="8.00" stroke-linecap="round" stroke-linejoin="round"/>
  <path d="M 264.03 794.11 L 263.71 793.99 L 263.33 795.04 L 262.97 797.63 L 263.91 800.41 L 265.12 801.36 L 268.17 802.60 L 271.29 802.31 L 273.67 801.35 L 275.09 800.29 L 276.58 798.88 L 277.74 796.59 L 278.19 794.03 L 277.96 792.08 L 276.94 790.19 L 274.73 788.18 L 269.94 785.48 L 265.11 784.57 L 263.75 784.66 L 262.31 785.25 L 261.15 786.36 L 258.67 790.54 L 257.00 792.52 L 256.99 793.15 L 260.02 793.85 L 263.03 794.24 L 268.08 794.26 L 272.57 793.25 L 274.05 792.17 L 274.79 790.91" fill="none" stroke="rgb(0,0,0)" stroke-width="8.00" stroke-linecap="round" stroke-linejoin="round"/>
  <path d="M 279.12 772.48 L 279.14 772.50" fill="none" stroke="rgb(0,0,0)" stroke-width="8.00" stroke-linecap="round" stroke-linejoin="round"/>
  <path d="M 268.04 776.07 L 270.47 776.43 L 275.34 776.23 L 277.23 775.39 L 279.22 772.69 L 280.74 765.72 L 279.73 764.20 L 278.40 763.12 L 274.28 761.11 L 276.09 762.40 L 279.80 764.29 L 282.52 765.05 L 284.24 764.67 L 284.38 760.02 L 283.63 757.63 L 282.88 756.17 L 280.98 753.80 L 280.79 753.63 L 280.08 754.12" fill="none" stroke="rgb(0,0,0)" stroke-width="8.00" stroke-linecap="round" stroke-linejoin="round"/>
  <path d="M 289.29 747.56 L 284.13 745.54 L 283.42 745.04 L 284.57 745.05 L 288.11 745.71 L 294.45 747.59 L 297.23 747.70 L 298.18 748.20" fill="none" stroke="rgb(0,0,0)" stroke-width="8.00" stroke-linecap="round" stroke-linejoin="round"/>
  <path d="M 300.36 749.16 L 297.17 745.73 L 294.46 742.07 L 292.37 736.51 L 292.13 735.42 L 292.35 734.30 L 292.90 733.70 L 297.13 733.63 L 302.55 735.35 L 305.59 736.82" fill="none" stroke="rgb(0,0,0)" stroke-width="8.00" stroke-linecap="round" stroke-linejoin="round"/>
  <path d="M 303.56 692.93 L 304.46 695.60 L 305.74 697.92 L 307.22 699.54 L 308.67 700.32 L 311.60 700.99 L 314.75 700.81 L 320.10 700.11 L 321.92 699.24 L 322.64 697.91 L 322.60 695.16 L 320.25 690.40 L 317.76 688.52 L 311.38 686.52 L 314.39 688.08 L 319.49 689.23 L 323.83 688.73 L 325.60 688.01 L 325.94 687.47 L 326.13 685.68 L 325.35 683.31 L 319.14 678.48 L 318.54 680.04" fill="none" stroke="rgb(0,0,0)" stroke-width="8.00" stroke-linecap="round" stroke-linejoin="round"/>
  <path d="M 323.01 664.96 L 322.56 668.98 L 323.47 673.30 L 325.27 675.86 L 326.76 676.78 L 328.19 677.14 L 329.70 676.37 L 330.38 675.20 L 330.88 672.54 L 330.33 670.23 L 327.94 666.55 L 325.50 663.83 L 323.19 661.95 L 319.90 660.49 L 321.30 661.80 L 324.72 664.08 L 328.45 665.76 L 330.36 666.20 L 331.91 665.98 L 336.10 664.08 L 337.49 662.51 L 338.07 659.34 L 337.58 658.20 L 335.92 656.03 L 332.17 653.02 L 327.41 650.58 L 329.38 653.34 L 334.01 656.52 L 335.12 656.90 L 336.71 656.73 L 337.72 656.18 L 338.39 655.20 L 339.38 652.15 L 338.84 650.81 L 336.50 647.96 L 331.14 642.98 L 328.96 640.22 L 329.53 639.63 L 332.03 638.94 L 336.06 639.56 L 342.86 642.24 L 349.51 645.65 L 352.78 648.11 L 362.81 657.03 L 364.59 659.19 L 365.53 660.92 L 366.17 663.69 L 365.85 666.11" fill="none" stroke="rgb(0,0,0)" stroke-width="8.00" stroke-linecap="round" stroke-linejoin="round"/>
  <path d="M -324.28 105.91 L -325.12 111.65 L -325.93 114.85 L -330.79 129.36 L -332.91 140.21 L -333.08 138.39" fill="none" stroke="rgb(0,0,0)" stroke-width="8.00" stroke-linecap="round" stroke-linejoin="round"/>
  <path d="M -335.90 112.54 L -335.60 117.05 L -333.99 126.29 L -333.43 127.62 L -332.65 127.08" fill="none" stroke="rgb(0,0,0)" stroke-width="8.00" stroke-linecap="round" stroke-linejoin="round"/>
  <path d="M -324.92 127.67 L -327.95 132.22 L -329.04 136.12 L -328.89 137.33 L -328.10 138.53 L -325.58 139.61 L -322.28 138.95 L -319.74 137.61 L -316.92 134.46 L -315.65 132.01 L -315.24 130.39 L -315.06 126.97 L -315.40 124.60 L -317.07 122.04 L -318.18 121.43 L -319.81 121.34 L -321.88 122.46 L -323.45 124.55 L -324.62 128.88 L -324.41 131.06 L -321.46 132.62 L -319.87 132.64 L -318.06 132.05 L -315.78 130.73 L -313.82 129.09 L -311.02 126.00 L -309.96 124.02 L -311.58 126.64 L -313.27 132.67 L -313.09 134.85 L -312.28 137.11 L -311.66 138.11 L -310.44 138.88 L -309.14 139.06 L -307.90 138.68 L -304.43 136.19 L -301.30 131.94 L -300.45 129.77 L -300.18 127.75 L -301.98 131.01 L -303.23 134.29 L -302.97 135.44 L -301.78 136.77 L -300.23 136.90 L -298.77 136.09 L -296.07 133.26 L -294.15 131.79" fill="none" stroke="rgb(0,0,0)" stroke-width="8.00" stroke-linecap="round" stroke-linejoin="round"/>
  <path d="M -267.75 129.56 L -270.48 126.84 L -271.39 126.59 L -271.77 126.82 L -273.54 129.64 L -275.01 132.74 L -276.02 135.71 L -276.49 138.38 L -276.34 139.77 L -275.60 140.93 L -274.57 141.09 L -273.16 140.26 L -270.72 136.26 L -268.38 130.92 L -266.96 125.34 L -266.52 119.04 L -266.72 115.89 L -267.63 112.92 L -268.41 114.01 L -269.47 117.76 L -269.77 124.23 L -268.26 136.99 L -267.09 142.01 L -265.94 144.29 L -264.90 144.90 L -264.16 144.68 L -262.24 141.51 L -261.09 136.84 L -260.03 133.93 L -260.60 132.66 L -260.91 132.68 L -262.39 134.33 L -263.05 136.86 L -263.04 140.42 L -262.13 143.05 L -260.59 143.88 L -258.83 143.61 L -256.93 142.19 L -254.84 139.73 L -253.01 135.31 L -252.68 131.18 L -253.72 129.09 L -254.62 128.31 L -256.20 127.98 L -257.09 128.10 L -257.86 128.65 L -259.34 130.63 L -260.40 133.42 L -260.24 135.00 L -259.02 136.23 L -257.40 136.26 L -255.78 135.45 L -251.99 132.26 L -250.25 131.72 L -248.96 131.81 L -248.37 133.97 L -248.33 135.32 L -249.35 142.00 L -244.66 135.71 L -240.64 132.10 L -239.54 131.37 L -238.52 131.27 L -238.07 135.71 L -239.14 144.81" fill="none" stroke="rgb(0,0,0)" stroke-width="8.00" stroke-linecap="round" stroke-linejoin="round"/>
  <path d="M -234.91 110.98 L -235.52 115.82 L -235.29 127.20 L -235.01 130.01 L -234.37 131.40" fill="none" stroke="rgb(0,0,0)" stroke-width="8.00" stroke-linecap="round" stroke-linejoin="round"/>
  <path d="M -223.67 113.10 L -224.89 119.51 L -226.05 137.31 L -226.01 140.62 L -226.36 140.96" fill="none" stroke="rgb(0,0,0)" stroke-width="8.00" stroke-linecap="round" stroke-linejoin="round"/>
  <path d="M -229.86 133.72 L -223.31 136.80" fill="none" stroke="rgb(0,0,0)" stroke-width="8.00" stroke-linecap="round" stroke-linejoin="round"/>
  <path d="M -195.66 120.33 L -194.13 115.19 L -193.85 117.11 L -193.69 131.92 L -194.22 139.38 L -194.11 146.72 L -192.87 140.87 L -191.84 137.83 L -189.58 133.04 L -187.77 132.38 L -185.65 132.66 L -184.55 133.51 L -183.97 134.54 L -183.54 138.49 L -183.64 144.85" fill="none" stroke="rgb(0,0,0)" stroke-width="8.00" stroke-linecap="round" stroke-linejoin="round"/>
  <path d="M -171.54 138.10 L -170.92 135.89 L -171.27 135.05 L -171.91 134.83 L -173.33 134.85 L -174.48 135.24 L -177.31 137.39 L -178.77 139.39 L -179.46 141.23 L -179.91 144.20 L -179.80 145.18 L -179.27 146.07 L -177.37 146.42 L -175.83 145.44 L -169.86 137.34 L -168.46 135.87 L -168.17 136.01 L -167.79 139.28 L -168.19 144.02 L -168.04 146.47 L -165.64 142.97" fill="none" stroke="rgb(0,0,0)" stroke-width="8.00" stroke-linecap="round" stroke-linejoin="round"/>
  <path d="M -160.52 134.63 L -161.44 138.11 L -162.32 144.57 L -162.14 146.81 L -161.84 147.35 L -155.53 141.07" fill="none" stroke="rgb(0,0,0)" stroke-width="8.00" stroke-linecap="round" stroke-linejoin="round"/>
  <path d="M -151.47 142.77 L -148.82 142.30 L -147.68 141.75 L -146.92 140.96 L -144.58 136.47 L -144.19 134.49 L -144.37 133.70 L -145.46 133.37 L -146.35 133.63 L -147.45 134.46 L -148.82 136.23 L -151.36 141.41 L -152.38 145.28 L -152.32 147.11 L -151.68 148.03 L -149.14 149.13 L -147.52 149.09" fill="none" stroke="rgb(0,0,0)" stroke-width="8.00" stroke-linecap="round" stroke-linejoin="round"/>
  <path d="M -112.36 131.24 L -114.63 133.93 L -115.51 135.47 L -114.34 137.58 L -113.45 140.80 L -112.73 142.06 L -108.40 140.54 L -106.08 139.02 L -105.33 137.70 L -104.43 132.64 L -105.25 139.03 L -105.02 140.29 L -104.10 142.09 L -102.70 143.08 L -100.64 142.37 L -99.86 141.32 L -98.70 137.70 L -99.59 138.48" fill="none" stroke="rgb(0,0,0)" stroke-width="8.00" stroke-linecap="round" stroke-linejoin="round"/>
  <path d="M -98.79 117.23 L -97.67 125.75 L -97.11 133.38 L -97.19 136.91 L -97.81 140.88 L -97.34 145.31 L -96.94 145.75 L -96.63 143.05 L -95.55 139.95 L -91.77 134.98 L -91.08 135.28 L -88.13 138.94 L -87.82 140.46 L -88.27 143.18" fill="none" stroke="rgb(0,0,0)" stroke-width="8.00" stroke-linecap="round" stroke-linejoin="round"/>
  <path d="M -77.59 140.71 L -78.70 139.21 L -79.53 138.63 L -80.09 138.63 L -80.87 139.24 L -82.83 142.59 L -83.98 146.93 L -82.72 145.99 L -78.40 141.02 L -77.31 141.06 L -76.70 143.18 L -75.98 148.69 L -74.91 150.92 L -73.76 151.87 L -73.07 151.33 L -72.44 148.64 L -71.51 139.22" fill="none" stroke="rgb(0,0,0)" stroke-width="8.00" stroke-linecap="round" stroke-linejoin="round"/>
  <path d="M -69.17 118.51 L -69.68 125.62 L -69.23 135.49 L -67.35 145.39 L -65.91 149.52" fill="none" stroke="rgb(0,0,0)" stroke-width="8.00" stroke-linecap="round" stroke-linejoin="round"/>
  <path d="M -69.97 139.37 L -67.41 139.89 L -64.53 139.57" fill="none" stroke="rgb(0,0,0)" stroke-width="8.00" stroke-linecap="round" stroke-linejoin="round"/>
  <path d="M -325.47 167.60 L -325.09 170.33 L -325.19 172.20 L -328.84 186.11 L -329.12 187.93 L -328.85 189.52 L -328.97 186.22" fill="none" stroke="rgb(0,0,0)" stroke-width="8.00" stroke-linecap="round" stroke-linejoin="round"/>
  <path d="M -333.40 172.16 L -332.26 180.01 L -331.93 180.86 L -331.02 181.45" fill="none" stroke="rgb(0,0,0)" stroke-width="8.00" stroke-linecap="round" stroke-linejoin="round"/>
  <path d="M -318.05 170.62 L -320.67 173.25 L -321.96 175.41 L -322.83 177.69 L -323.60 185.17 L -323.38 187.66 L -322.68 189.21 L -321.99 189.51 L -321.19 189.21 L -318.56 186.76 L -316.22 182.91 L -314.51 178.39 L -314.12 174.64 L -314.51 172.78 L -315.80 171.00 L -317.97 170.59 L -318.73 170.99 L -319.43 171.89 L -320.70 176.31 L -320.75 178.49 L -320.09 179.88 L -316.27 181.08 L -314.72 180.98 L -312.81 180.28 L -311.13 178.70 L -309.82 176.77 L -308.93 175.09 L -308.17 172.59 L -309.05 175.83 L -309.04 179.72 L -308.26 182.50 L -307.57 183.70 L -306.66 184.53 L -305.53 184.89 L -304.31 184.31 L -302.57 182.03 L -300.60 178.18 L -299.39 174.20 L -300.32 178.16 L -300.28 181.05 L -299.57 183.00 L -297.53 186.52" fill="none" stroke="rgb(0,0,0)" stroke-width="8.00" stroke-linecap="round" stroke-linejoin="round"/>
  <path d="M -274.08 178.39 L -275.42 181.55 L -275.35 185.65 L -274.10 189.21 L -273.48 189.88 L -271.37 190.75 L -269.59 190.27 L -268.21 188.31 L -266.88 184.16 L -266.19 179.44 L -265.71 178.19 L -266.14 180.83 L -265.97 184.72 L -265.22 187.82 L -264.33 188.83 L -262.76 188.77 L -261.63 188.23 L -260.17 184.98 L -260.25 183.97 L -258.51 180.04 L -257.57 176.36 L -258.46 179.83" fill="none" stroke="rgb(0,0,0)" stroke-width="8.00" stroke-linecap="round" stroke-linejoin="round"/>
  <path d="M -250.18 180.64 L -251.64 180.63 L -253.15 181.29 L -254.15 182.30 L -255.07 184.01 L -255.90 187.36 L -255.97 189.00 L -255.64 190.03 L -254.34 190.80 L -253.40 190.67 L -252.23 189.87 L -250.68 187.75 L -249.84 185.06 L -248.93 178.20 L -249.48 187.14 L -249.30 188.68 L -248.94 188.94 L -246.68 187.06 L -244.63 183.84 L -243.10 180.60 L -242.14 179.77 L -241.32 180.52 L -240.28 182.95 L -239.34 188.54 L -239.43 190.96 L -237.66 185.85 L -233.59 178.65 L -232.75 177.82 L -231.89 178.75 L -231.38 181.72 L -231.39 193.17 L -229.78 186.73" fill="none" stroke="rgb(0,0,0)" stroke-width="8.00" stroke-linecap="round" stroke-linejoin="round"/>
  <path d="M -224.03 166.58 L -223.90 175.31 L -222.56 187.79 L -221.53 190.56 L -219.99 192.19" fill="none" stroke="rgb(0,0,0)" stroke-width="8.00" stroke-linecap="round" stroke-linejoin="round"/>
  <path d="M -224.40 181.49 L -221.22 182.46 L -218.98 183.90" fill="none" stroke="rgb(0,0,0)" stroke-width="8.00" stroke-linecap="round" stroke-linejoin="round"/>
  <path d="M -186.61 170.90 L -186.35 178.25 L -186.74 189.14 L -186.45 193.07 L -185.88 195.36 L -185.65 195.53 L -185.26 195.08 L -184.79 193.28 L -183.92 184.07 L -182.69 179.17 L -177.81 183.95 L -176.45 186.79 L -176.39 189.04 L -177.63 191.41 L -179.92 193.73 L -183.26 195.30 L -183.63 196.06 L -181.63 194.70" fill="none" stroke="rgb(0,0,0)" stroke-width="8.00" stroke-linecap="round" stroke-linejoin="round"/>
  <path d="M -174.32 192.70 L -172.78 194.81 L -170.73 196.07 L -169.00 195.80 L -167.47 194.55 L -164.94 190.44 L -163.14 185.93 L -162.67 182.31 L -162.86 180.99 L -163.24 180.19 L -164.40 179.82 L -165.64 180.04 L -166.95 181.01 L -168.48 183.57 L -169.67 188.10 L -169.68 191.35 L -169.29 193.06 L -168.49 194.72 L -168.01 195.28 L -167.13 195.58 L -162.33 192.65" fill="none" stroke="rgb(0,0,0)" stroke-width="8.00" stroke-linecap="round" stroke-linejoin="round"/>
  <path d="M -151.68 181.63 L -153.73 183.38 L -155.15 185.72 L -155.94 188.87 L -156.53 194.59 L -156.36 197.01 L -155.83 197.73 L -155.21 197.50 L -152.31 195.03" fill="none" stroke="rgb(0,0,0)" stroke-width="8.00" stroke-linecap="round" stroke-linejoin="round"/>
  <path d="M -141.43 184.08 L -145.34 187.10 L -147.10 189.68 L -148.38 194.37 L -148.11 196.37 L -147.20 197.80 L -145.14 196.59 L -143.87 195.09 L -140.20 186.99 L -139.46 184.11 L -140.88 186.94 L -141.47 189.73 L -141.25 192.28 L -140.16 195.10 L -139.40 195.67 L -137.97 195.90 L -136.38 195.16 L -134.80 193.75 L -133.61 191.55 L -132.13 185.53 L -133.34 188.56 L -133.08 193.60 L -132.63 195.51 L -132.01 196.15 L -131.16 196.41 L -129.24 195.68 L -127.87 193.91 L -125.99 189.22 L -125.47 185.16 L -126.17 188.37 L -126.18 192.25 L -125.76 193.86 L -124.87 194.53 L -122.43 193.49 L -120.30 191.55 L -118.77 189.19 L -116.87 185.19 L -116.05 189.36 L -116.84 194.23 L -116.99 197.75 L -116.45 198.73 L -115.92 199.00 L -114.42 198.60 L -112.29 197.42 L -109.42 195.34 L -107.22 193.05 L -105.33 190.40 L -104.22 187.93 L -103.94 185.90 L -105.55 185.59 L -107.63 186.52 L -109.31 188.51 L -110.16 190.38 L -111.03 194.77 L -110.88 197.30 L -110.30 198.89 L -106.83 200.48" fill="none" stroke="rgb(0,0,0)" stroke-width="8.00" stroke-linecap="round" stroke-linejoin="round"/>
  <path d="M -71.68 185.17 L -71.11 184.48 L -70.95 184.95 L -71.86 188.48 L -76.57 201.25 L -74.08 199.53 L -73.56 198.24" fill="none" stroke="rgb(0,0,0)" stroke-width="8.00" stroke-linecap="round" stroke-linejoin="round"/>
  <path d="M -80.05 184.19 L -78.75 186.39 L -77.22 190.16 L -75.16 193.00" fill="none" stroke="rgb(0,0,0)" stroke-width="8.00" stroke-linecap="round" stroke-linejoin="round"/>
  <path d="M -65.23 184.15 L -67.62 187.75 L -68.90 191.05 L -68.82 193.80 L -68.29 196.31 L -67.49 198.41 L -66.76 198.83 L -63.98 198.51 L -60.82 196.28 L -58.72 194.23 L -56.22 190.95 L -54.83 187.78 L -54.76 185.92 L -55.13 184.20 L -56.12 182.62 L -57.14 181.82 L -58.67 181.19 L -61.41 180.87 L -62.94 181.21 L -64.16 181.94 L -64.93 183.06 L -65.31 184.70 L -64.70 187.35 L -63.88 188.23 L -62.22 187.88 L -58.58 186.42 L -57.52 186.38 L -56.45 187.02 L -55.78 187.04" fill="none" stroke="rgb(0,0,0)" stroke-width="8.00" stroke-linecap="round" stroke-linejoin="round"/>
  <path d="M -57.01 195.16 L -56.60 195.43 L -55.48 194.35 L -53.88 191.73 L -50.70 181.99 L -52.27 187.32 L -52.65 190.06 L -52.80 195.02 L -52.62 197.15 L -52.17 198.23 L -51.53 198.39 L -50.73 197.92 L -48.91 195.69 L -46.71 191.18 L -44.09 186.76 L -43.07 184.16 L -44.61 190.71 L -44.88 193.44 L -44.73 197.10 L -41.78 194.52" fill="none" stroke="rgb(0,0,0)" stroke-width="8.00" stroke-linecap="round" stroke-linejoin="round"/>
  <path d="M -38.21 170.57 L -36.83 178.18" fill="none" stroke="rgb(0,0,0)" stroke-width="8.00" stroke-linecap="round" stroke-linejoin="round"/>
  <path d="M -34.14 197.41 L -29.50 183.72 L -29.45 184.11 L -27.55 183.17 L -26.48 183.06 L -26.34 184.85 L -27.81 191.02 L -27.18 194.22 L -25.96 195.22 L -24.47 195.62 L -22.56 194.90 L -21.37 194.10 L -17.88 190.69 L -14.68 188.86 L -14.22 188.13 L -17.45 189.36 L -21.14 192.19 L -21.53 193.60 L -21.89 200.84" fill="none" stroke="rgb(0,0,0)" stroke-width="8.00" stroke-linecap="round" stroke-linejoin="round"/>
  <path d="M -341.01 227.99 L -337.46 220.88 L -335.51 218.16 L -334.50 217.40 L -333.30 217.22 L -332.41 217.83 L -331.43 221.05 L -331.46 225.03 L -332.03 228.42 L -330.58 225.24 L -328.33 222.29 L -323.74 218.23 L -320.66 216.72 L -320.17 218.72 L -320.12 220.44 L -321.40 226.47 L -321.28 227.05 L -321.61 227.49" fill="none" stroke="rgb(0,0,0)" stroke-width="8.00" stroke-linecap="round" stroke-linejoin="round"/>
  <path d="M -313.10 219.21 L -316.52 221.97 L -317.41 223.92 L -317.81 226.04 L -317.73 227.55 L -317.40 229.69 L -316.68 231.50 L -315.77 232.23 L -313.99 232.76 L -312.58 232.54 L -311.40 231.94 L -309.54 230.36 L -307.93 228.37 L -306.44 225.14 L -305.91 221.03 L -306.55 218.42 L -307.70 217.24 L -308.71 216.83 L -310.03 216.74 L -312.13 217.37 L -313.43 218.17 L -314.21 219.50 L -312.34 223.50 L -310.45 226.30 L -309.25 227.33 L -307.49 227.58 L -306.91 227.13 L -306.71 226.53" fill="none" stroke="rgb(0,0,0)" stroke-width="8.00" stroke-linecap="round" stroke-linejoin="round"/>
  <path d="M -300.37 206.66 L -300.57 214.86 L -300.36 221.61 L -299.84 225.13 L -298.14 229.81" fill="none" stroke="rgb(0,0,0)" stroke-width="8.00" stroke-linecap="round" stroke-linejoin="round"/>
  <path d="M -306.03 220.22 L -299.35 222.31 L -294.46 222.97" fill="none" stroke="rgb(0,0,0)" stroke-width="8.00" stroke-linecap="round" stroke-linejoin="round"/>
  <path d="M -270.44 222.37 L -271.33 224.64 L -271.85 227.18 L -271.66 231.14 L -271.07 232.92 L -270.39 233.80 L -268.73 234.52 L -266.99 233.96 L -265.58 232.41 L -264.63 229.98 L -263.44 224.46 L -263.21 230.84 L -262.47 233.09 L -261.77 233.78 L -259.58 233.43 L -258.14 232.39 L -255.76 228.07 L -254.47 224.61" fill="none" stroke="rgb(0,0,0)" stroke-width="8.00" stroke-linecap="round" stroke-linejoin="round"/>
  <path d="M -250.50 211.96 L -250.25 218.18 L -251.71 236.19 L -251.65 238.57 L -250.62 233.11 L -249.83 230.73 L -247.64 227.50 L -246.47 226.50 L -245.82 226.60 L -245.42 227.03 L -244.92 229.29 L -245.17 237.04" fill="none" stroke="rgb(0,0,0)" stroke-width="8.00" stroke-linecap="round" stroke-linejoin="round"/>
  <path d="M -240.70 229.40 L -242.64 232.07 L -243.73 235.20 L -243.34 237.75 L -242.11 239.29 L -240.44 239.88 L -239.30 239.81 L -236.65 238.42 L -234.31 235.52 L -233.14 232.16 L -232.83 228.50 L -233.23 227.35 L -233.98 226.68 L -236.44 226.59 L -239.66 228.26 L -240.38 229.24 L -239.68 230.37 L -236.59 232.25 L -233.89 233.02" fill="none" stroke="rgb(0,0,0)" stroke-width="8.00" stroke-linecap="round" stroke-linejoin="round"/>
  <path d="M -208.51 243.15 L -207.23 239.58 L -202.62 231.62 L -201.42 228.33" fill="none" stroke="rgb(0,0,0)" stroke-width="8.00" stroke-linecap="round" stroke-linejoin="round"/>
  <path d="M -208.81 225.00 L -208.48 230.62 L -207.64 233.40 L -206.45 234.45 L -202.71 234.92" fill="none" stroke="rgb(0,0,0)" stroke-width="8.00" stroke-linecap="round" stroke-linejoin="round"/>
  <path d="M -194.78 229.40 L -198.02 232.25 L -199.02 234.88 L -199.29 238.74 L -198.86 242.69 L -198.02 245.91 L -197.31 246.31 L -196.49 246.20 L -195.24 245.35 L -194.25 244.18 L -191.75 239.70 L -189.90 234.27 L -189.58 230.28 L -190.09 228.40 L -190.82 227.28 L -191.69 226.62 L -194.10 225.97 L -195.39 226.27 L -196.18 226.96 L -196.87 228.38 L -197.42 230.66 L -197.32 233.09 L -196.21 235.90 L -192.66 237.71 L -189.46 237.42 L -188.43 236.81 L -187.66 235.77 L -186.19 231.85 L -186.84 236.00 L -186.85 239.16 L -186.24 243.19 L -185.33 244.93 L -182.67 242.22 L -178.59 235.94 L -177.90 234.05 L -178.68 236.38 L -179.09 239.46 L -178.83 241.94 L -177.41 246.22" fill="none" stroke="rgb(0,0,0)" stroke-width="8.00" stroke-linecap="round" stroke-linejoin="round"/>
  <path d="M -152.17 238.77 L -152.44 239.11 L -152.41 238.85 L -151.11 233.68 L -149.91 230.71 L -148.59 232.20 L -146.64 236.66 L -145.32 242.87 L -143.23 236.50 L -141.96 234.40 L -140.63 233.50 L -138.95 233.95 L -137.44 233.30 L -136.94 233.70 L -136.28 235.24 L -134.14 242.90 L -133.27 243.75 L -132.18 243.82 L -130.94 243.07 L -129.74 241.83 L -125.51 236.38 L -124.34 234.48 L -123.31 231.46 L -125.48 231.91 L -127.38 233.09 L -128.24 234.03 L -129.17 236.84 L -128.57 240.10 L -128.00 241.30 L -126.14 242.85 L -123.45 243.01 L -121.68 242.72 L -119.87 241.98 L -118.67 240.90 L -116.59 236.08 L -118.56 236.70 L -119.48 237.68 L -120.01 238.88 L -119.99 242.09 L -119.22 244.65 L -118.62 245.61" fill="none" stroke="rgb(0,0,0)" stroke-width="8.00" stroke-linecap="round" stroke-linejoin="round"/>
  <path d="M -107.46 239.64 L -106.32 237.55 L -106.28 236.89 L -108.67 236.25 L -109.91 236.58 L -111.85 237.83 L -112.87 239.10 L -113.45 240.44 L -114.07 244.34 L -113.95 246.56 L -113.38 247.71 L -111.21 246.25 L -108.11 243.16 L -103.70 237.29 L -102.71 235.24 L -101.71 231.35 L -100.51 221.17 L -100.69 218.98 L -101.74 221.52 L -102.19 224.57 L -102.27 236.85 L -101.95 239.33 L -101.10 241.91 L -98.92 245.18" fill="none" stroke="rgb(0,0,0)" stroke-width="8.00" stroke-linecap="round" stroke-linejoin="round"/>
  <path d="M -96.73 246.63 L -94.14 246.68 L -93.36 246.02 L -92.57 244.43 L -91.33 238.05 L -91.52 236.79 L -92.08 235.87 L -93.18 235.66 L -95.15 237.45 L -96.31 239.76 L -96.80 241.70 L -96.25 244.37 L -93.72 247.98 L -92.42 248.71 L -91.34 247.94 L -89.51 245.66" fill="none" stroke="rgb(0,0,0)" stroke-width="8.00" stroke-linecap="round" stroke-linejoin="round"/>
  <path d="M -80.78 238.53 L -83.58 237.66 L -84.50 237.98 L -85.21 238.73 L -86.27 243.74 L -85.86 248.64 L -85.37 249.45 L -84.77 249.09 L -83.37 246.67 L -82.55 244.15 L -81.77 239.53 L -80.94 231.07 L -81.08 229.18 L -81.68 230.92 L -81.82 232.94 L -81.30 238.16 L -79.97 243.19 L -78.95 245.55 L -78.32 245.99" fill="none" stroke="rgb(0,0,0)" stroke-width="8.00" stroke-linecap="round" stroke-linejoin="round"/>
  <path d="M -53.19 224.68 L -56.48 226.14 L -57.30 225.78 L -58.17 224.00 L -58.32 221.73 L -57.77 220.09 L -57.13 218.91 L -56.04 218.09 L -55.15 217.99 L -54.18 218.40 L -51.49 221.68 L -50.48 224.25 L -49.34 229.07 L -48.74 236.07 L -48.98 239.81 L -50.16 243.20 L -50.74 243.91 L -52.04 244.49 L -53.16 244.31 L -54.33 243.57 L -55.00 242.73 L -55.80 240.70 L -55.82 238.55 L -55.04 237.43 L -54.30 237.50 L -53.26 238.31 L -50.86 241.75 L -49.39 240.71" fill="none" stroke="rgb(0,0,0)" stroke-width="8.00" stroke-linecap="round" stroke-linejoin="round"/>
  <path d="M -36.65 220.71 L -36.22 215.58 L -36.40 215.84 L -35.89 218.30 L -32.59 229.47 L -31.76 235.79 L -31.39 242.37 L -31.62 243.99 L -31.45 237.61 L -30.92 234.85 L -30.24 233.50 L -28.42 232.31 L -26.86 232.05 L -24.29 232.34 L -23.39 232.83 L -22.98 233.44 L -22.88 236.00 L -24.17 239.86 L -28.28 247.99 L -29.54 248.86 L -29.52 247.59" fill="none" stroke="rgb(0,0,0)" stroke-width="8.00" stroke-linecap="round" stroke-linejoin="round"/>
  <path d="M -23.92 244.92 L -24.36 247.15 L -24.10 248.62 L -19.49 246.63 L -17.83 245.56 L -15.49 242.76 L -14.32 240.50 L -13.59 237.22 L -14.08 236.29 L -15.16 235.53 L -16.73 235.01 L -17.75 235.45 L -18.83 236.55 L -20.24 238.60 L -21.07 240.48 L -21.59 243.08 L -21.57 246.22 L -20.80 249.04 L -19.19 251.23 L -16.52 253.12 L -12.86 254.53" fill="none" stroke="rgb(0,0,0)" stroke-width="8.00" stroke-linecap="round" stroke-linejoin="round"/>
</svg>
